<?xml version="1.0" standalone="no"?>
<!DOCTYPE svg PUBLIC "-//W3C//DTD SVG 1.1//EN" "http://www.w3.org/Graphics/SVG/1.1/DTD/svg11.dtd" >
<svg>
<metadata>
Created by FontForge 20090914 at Sat Jan 18 02:17:12 2014
 By www-data
KhmerOS - font for the Khmer language of Cambodia
Copyright 2008 Danh Hong
 
This font is free software; you can redistribute it and/or modify it under the terms of the GNU Lesser General Public License as published by the Free Software Foundation; either version 2.1 of the License, or (at your option) any later version.

This library is distributed in the hope that it will be useful, but WITHOUT ANY WARRANTY; without even the implied warranty of MERCHANTABILITY or FITNESS FOR A PARTICULAR PURPOSE.? See the GNU Lesser General Public License for more details.

You should have received a copy of the GNU Lesser General Public License along with this font; if not, write to the Free Software Foundation, Inc., 51 Franklin Street, Fifth Floor, Boston, MA 02110-1301  USA or visit http://www.gnu.org/licenses/lgpl.html
</metadata>
<defs>
<font id="Kh-Bokor" horiz-adv-x="0" >
  <font-face 
    font-family="Kh Bokor"
    font-weight="400"
    font-stretch="normal"
    units-per-em="2048"
    panose-1="2 0 5 0 0 0 0 2 0 4"
    ascent="1638"
    descent="-410"
    x-height="1140"
    cap-height="1500"
    bbox="-2800 -1200 4200 2594"
    underline-thickness="48"
    underline-position="-140"
    unicode-range="U+0020-U+25CC"
  />
<missing-glyph horiz-adv-x="1536" 
d="M256 0v1280h1024v-1280h-1024zM288 32h960v1216h-960v-1216z" />
    <glyph glyph-name="uni17D2_uni1780.liga" unicode="&#x17d2;&#x1780;" 
d="M-1000 -650l0.000976562 376c0 49.333 58.333 99.333 175 150c116.667 49.333 191.667 74 225 74s86.333 -15.667 159 -47c160.667 -68.667 241 -127.667 241 -177v-247l-200 -129v338c0 17.333 -46 46 -138 86c-92.667 39.333 -151.334 59 -176.001 59
s-45 -3.66699 -61 -11c-16.667 -6.66699 -25 -38.667 -25 -96v-247z" />
    <glyph glyph-name="uni17D2_uni1781.liga" unicode="&#x17d2;&#x1781;" 
d="M-1000 -320l0.00195312 113.998c0 35.333 58.333 70.333 175 105c116.667 34 191.667 51 225 51s86.333 -10.667 159 -32c160.667 -47.333 241 -104.333 241 -171c0 -16.667 -100 -61 -300 -133l-300 -107c0 -28 8.33301 -44.333 25 -49c16 -5.33301 36.333 -8 61 -8
s83.334 10.667 176.001 32c92 22.667 138 40 138 52v26l200 104v-157c0 -34.667 -80.333 -75.667 -241 -123c-72.667 -22.667 -125.667 -34 -159 -34s-108.333 17.667 -225 53c-116.667 34.667 -175 69.334 -175 104.001v68c133.333 0 266.666 24.333 399.999 73
c133.333 49.333 200 82.333 200 99c0 26 -46 50.333 -138 73c-92.667 22.667 -151.334 34 -176.001 34s-45 -2.66699 -61 -8c-16.667 -5.33301 -25 -27.666 -25 -66.999c66.667 0 100 -8.16699 100 -24.5s-33.333 -39.833 -100 -70.5s-118.334 -46 -155.001 -46
c-30 0 -45 14 -45 42z" />
    <glyph glyph-name="uni17D2_uni1782.liga" unicode="&#x17d2;&#x1782;" 
d="M-1000 -274c0 49.333 58.335 99.333 175.002 150c116.667 49.333 191.667 74 225 74s86.333 -15.667 159 -47c160.667 -68.667 241 -127.667 241 -177v-247l-200 -129v338c0 17.333 -46 46 -138 86c-92.667 39.333 -151.334 59 -176.001 59s-45 -3.66699 -61 -11
c-16.667 -6.66699 -25 -38.667 -25 -96v-205c43.333 86 97.333 129 162 129c28.667 0 59 -10 91 -30c31.333 -20 47 -48.333 47 -85c0 -37.333 -33.333 -69 -100 -95c-12 26 -37 39 -75 39c-38.667 0 -80.334 -17 -125.001 -51l-100 -78l-100 86v290z" />
    <glyph glyph-name="uni17D2_uni1784.liga" unicode="&#x17d2;&#x1784;" 
d="M-820 -90c-53.333 0 -96.668 -18.999 -130.001 -56.999s-50 -99.333 -50 -184s33.333 -159 100 -223s116.667 -96 150 -96c100 0 202.333 58 307 174l94 104c128 148 211 222 249 222c-20 66.667 -63.333 100 -130 100s-157 -66.667 -271 -200l-86 -100
c-57.333 -66.667 -111.666 -100 -162.999 -100c-62.667 0 -103.334 7.66699 -122.001 23s-2 57 50 125l39 51c26 33.333 85 49.666 177 48.999c-57.333 74.667 -128.666 112 -213.999 112z" />
    <glyph glyph-name="uni17D2_uni1785.liga" unicode="&#x17d2;&#x1785;" 
d="M-329 -290c0.666992 26.667 -16.667 40 -52 40c-49.333 0 -74 -18.333 -74 -55c0 -24 25.333 -48 76 -72c33.333 34 50 63 50 87zM-282.001 -413c2.66699 -0.666992 5.33301 -1.66895 8 -3.00195l91 -28c41.333 -12.667 62 -32.667 62 -60
c0 -12.667 -4.66699 -27.334 -14 -44.001c-28.667 -51.333 -69.334 -68.666 -122.001 -51.999c-66 20.667 -120.667 41 -164 61c-28.667 -20 -58.667 -37.667 -90 -53c-79.333 -38.667 -150 -58 -212 -58c-62.667 0 -124.334 17.667 -185.001 53
c-61.333 34.667 -92 100.334 -92 197.001c0 60 50 133.333 150 220l150 130c66.667 0 66.667 -53.333 0 -160c-67.333 -106.667 -100.666 -170 -99.999 -190c0 -36.667 12.333 -62 37 -76c24 -14 83 -11.667 177 7c18.667 4 36 8 52 12l-2 2
c-28 48.667 -42.333 103.334 -43 164.001s18.333 116 57 166s85.334 75 140.001 75c121.333 0 182 -45.667 182 -137c0 -84.667 -27.333 -160 -82 -226z" />
    <glyph glyph-name="uni17D2_uni1786.liga" unicode="&#x17d2;&#x1786;" 
d="M-400 -185c-46.667 -8 -70 -19.667 -70 -35c0 -16 13.333 -24 40 -24h30v59zM-997 -418l-53 -28l53 -40v68zM-1095 -578c-63.333 26.667 -95 61.666 -95 104.999c0 22 16.667 40.333 50 55l140 62v133c0 26 -40.667 43.333 -122 52c-32 2.66699 -48 12.667 -48 30
s8.33301 39 25 65l113 26c70.667 -9.33301 127 -25 169 -47s63 -50.333 63 -85v-161c92 0 160.667 -13.333 206 -40c46 -27.333 69 -59.333 69 -96c0 -26 23.333 -39 70 -39c36.667 0 55 13 55 39v136h-30c-31.333 0 -58.333 2.33301 -81 7
c-22 4.66699 -39 11.334 -51 20.001c-25.333 17.333 -38 41 -38 71c0 44 41.5 87.5 124.5 130.5s139.833 64.5 170.5 64.5c70 0 105 -21.667 105 -65v-364c0 -48 -21.333 -88.333 -64 -121c-42 -32.667 -105.667 -49 -191 -49c-71.333 0 -125 19.333 -161 58
c-36 37.333 -54 74.666 -54 111.999c0 14.667 -10.667 30.334 -32 47.001c-22 16 -54.667 24 -98 24v-188l-77 -53l-128 -1c-11.333 28 -41.333 52 -90 72z" />
    <glyph glyph-name="uni17D2_uni1787.liga" unicode="&#x17d2;&#x1787;" 
d="M-400 -238v61c0 18 -13.333 27 -40 27c-26.667 -0.666992 -40 -13 -40 -37c0 -22 26.667 -39 80 -51zM-200 -267c66.667 -19.333 100.002 -56 100.002 -110c-34 14.667 -67.333 27 -100 37v-181c0 -30.667 -17 -59.667 -51 -87c-34 -28 -83.667 -42 -149 -42
c-78 0 -130 12.667 -156 38l-118 112l-79 -74c-52.667 -50.667 -90.334 -76 -113.001 -76s-50.667 13.667 -84 41c-33.333 26.667 -50 56 -50 88v311l200 160v-464l200 191l200 -191v204c-166.667 17.333 -250 59 -250 125c0 90 75 135 225 135
c83.333 0 141.666 -13.167 174.999 -39.5s50 -54.5 50 -84.5v-93z" />
    <glyph glyph-name="uni17D2_uni1789.liga" unicode="&#x17d2;&#x1789;" 
d="M-1036 -499c-8 12 -12 27.667 -12 47c0 6.66699 0.333008 13.667 1 21c3.33301 28.667 14.333 64 33 106c36.667 83.333 101.334 125 194.001 125c81.333 0 170.833 -50 268.5 -150s173.167 -150 226.5 -150c36 0 54 15 54 45s-11 58.333 -33 85
c-23.333 26 -62.333 39.333 -117 40l125 150c100 -40 150 -100 150 -180s-17.667 -140 -53 -180s-77 -60 -125 -60c-168.667 0 -298.334 46.667 -389.001 140s-156 140 -196 140c-40.667 0 -83 -59.667 -127 -179z" />
    <glyph glyph-name="uni17D2_uni178A.liga" unicode="&#x17d2;&#x178a;" 
d="M-800 -440l0.000976562 -39c33.333 20.667 46.666 35.667 39.999 45c-6.66699 8.66699 -20 6.66699 -40 -6zM-999.999 -274c0 49.333 58.334 99.333 175.001 150c116.667 49.333 191.667 74 225 74s86.333 -15.667 159 -47c160.667 -68.667 241 -127.667 241 -177v-247
l-200 -129v338c0 17.333 -46 46 -138 86c-92.667 39.333 -151.334 59 -176.001 59s-45 -3.66699 -61 -11c-16.667 -6.66699 -25 -38.667 -25 -96v-84c42 17.333 79 16 111 -4c32.667 -20 49 -44.333 49 -73s-30 -71.667 -90 -129s-110 -86 -150 -86
c-39.333 0 -79.333 17.333 -120 52v324z" />
    <glyph glyph-name="uni17D2_uni178B.liga" unicode="&#x17d2;&#x178b;" 
d="M-376 -250h-424v-242l200 193l130 -151c33.333 0 58.333 26.667 75 80c8.66699 26.667 15 66.667 19 120zM-270 -150l120.001 0.00195312c33.333 0 50 -25 50 -75s-16.667 -81.667 -50 -95c0 46.667 -16.667 70 -50 70l-72 1c-5.33301 -118 -21.333 -210 -48 -276
c-33.333 -83.333 -66.666 -125 -99.999 -125h-50c-51.333 0 -90 14.667 -116 44l-88 101l-79 -72c-52.667 -48.667 -90.334 -73 -113.001 -73s-50.667 15.667 -84 47s-50 65.666 -50 102.999v200c0 33.333 16.667 66.666 50 99.999s66.666 50 99.999 50h479
c0.666992 30.667 1 64 1 100c66.667 0 100 -33.333 100 -100z" />
    <glyph glyph-name="uni17D2_uni178C.liga" unicode="&#x17d2;&#x178c;" 
d="M-400 -136h-59.998c-59.333 0 -128.666 -23.333 -207.999 -70l7 18c14 34.667 1 52 -39 52h-182c-22.667 -22.667 -23.834 -40 -3.50098 -52s91.5 -26.667 213.5 -44c-27.333 -31.333 -70.666 -55.666 -129.999 -72.999c-74.667 7.33301 -126.334 15 -155.001 23
c-28.667 9.33301 -43 34.666 -43 75.999c0 40.667 16.667 76.667 50 108l50 48h240c46.667 0 70 -18.667 70 -56c50 37.333 103.333 56 160 56h230v-177c0 -26 -200 -82 -600 -168v-34c140.667 -54 242.667 -72.333 306 -55l94 24v69l200 86v-246
c0 -13.333 -67 -36.333 -201 -69c-66.667 -16.667 -128.334 -26.667 -185.001 -30h-30c-22.667 0 -44.667 1.33301 -66 4l-116 42l148 40c108.667 -23.333 177.667 -31.333 207 -24s44 21 44 41v39l-42 -12c-72.667 -18 -125.667 -27 -159 -27s-108.333 11 -225 33
s-175 47.333 -175 76v95c133.333 0 266.666 12.833 399.999 38.5s200 51.5 200 77.5v91z" />
    <glyph glyph-name="uni17D2_uni178E.liga" unicode="&#x17d2;&#x178e;" 
d="M-1900 -529c60 19.333 90 35 90 47c0 16 -13.333 24 -40 24h-50v-71zM-2200 -171l100 121h750v-479l200 138l200 -138v168c0 23.333 -40.667 39 -122 47c-32 2 -48 10.667 -48 26s8.33301 34.666 25 57.999l145 180h750v-570l-51 -30h-149v486h-533l-29 -42
c57.333 -9.33301 107 -23.333 149 -42c42 -20 63 -45.333 63 -76v-260l-129 -66h-153l-192 132l-192 -132h-134v486h-533l-29 -42c57.333 -9.33301 107 -23.333 149 -42c42 -20 63 -45.333 63 -76v-48h50c100 0 150 -28.667 150 -86c0 -58 -41.667 -104.333 -125 -139
l-126 -53h-46l-103 59v230c0 20.667 -33.333 35.334 -100 44.001v146z" />
    <glyph glyph-name="uni17D2_uni178F.liga" unicode="&#x17d2;&#x178f;" 
d="M-800 -440l0.000976562 -39c33.333 20.667 46.666 35.667 39.999 45c-6.66699 8.66699 -20 6.66699 -40 -6zM-999.999 -274c0 49.333 58.334 99.333 175.001 150c116.667 49.333 191.667 74 225 74s86.333 -15.667 159 -47c160.667 -68.667 241 -127.667 241 -177v-247
l-200 -129v338c0 17.333 -46 46 -138 86c-92.667 39.333 -151.334 59 -176.001 59s-45 -3.66699 -61 -11c-16.667 -6.66699 -25 -38.667 -25 -96v-84c42 17.333 79 16 111 -4c32.667 -20 49 -44.333 49 -73s-30 -71.667 -90 -129s-110 -86 -150 -86
c-39.333 0 -79.333 17.333 -120 52v324z" />
    <glyph glyph-name="uni17D2_uni1790.liga" unicode="&#x17d2;&#x1790;" 
d="M-802 -638l-12.999 -0.00195312c-48 0 -90 16 -126 48c-38.667 36 -58 95 -58 177v4c0 84 30.333 155.333 91 214c60.667 58 127.667 89.333 201 94c4.66699 0.666992 9 1 13 1c70 0 150.667 -42.667 242 -128l101 -98c137.333 -139.333 225 -207.666 263 -204.999
c-15.333 -68 -56.333 -104 -123 -108h-7c-66 0 -158.333 60.667 -277 182l-92 94c-61.333 62.667 -131.333 94.667 -210 96c-60 1.33301 -91.667 -26 -95 -82c-2.66699 -56.667 28 -99.667 92 -129c64 -28.667 134 -40.667 210 -36
c-56.667 -77.333 -127.334 -118.666 -212.001 -123.999z" />
    <glyph glyph-name="uni17D2_uni1791.liga" unicode="&#x17d2;&#x1791;" 
d="M-573 -50c0 -118.667 -71 -187.333 -213 -206c-142.667 -18.667 -214 -73.667 -214 -165c0 -54 31.333 -99 94 -135s122.667 -54 180 -54s126 30.667 206 92l120 92v-224l200 160v360l-200 -160c0 -40 -47.333 -86 -142 -138c-95.333 -52 -162 -69.667 -200 -53
c-37.333 16.667 -56.333 38.667 -57 66c0 43.333 66.667 88.333 200 135c132.667 46.667 199 90 199 130c0 39.333 -16.667 66 -50 80c-33.333 13.333 -74.333 20 -123 20z" />
    <glyph glyph-name="uni17D2_uni1792.liga" unicode="&#x17d2;&#x1792;" 
d="M-521 -344c-86 -32.667 -180.333 -54.668 -283 -66.001c48.667 -64 102 -95.667 160 -95s95.333 38.334 112 113.001zM-470 -324.001l28 -33.001c44 -50.667 78.667 -72 104 -64c25.333 7.33301 38 45.333 38 114v83c-52 -39.333 -108.667 -72.666 -170 -99.999z
M-225 -160.002c16.667 -20 25.001 -40.333 25.001 -61c0 -208.667 -34.333 -323 -103 -343c-69.333 -20.667 -131.333 -5.33398 -186 45.999c-68 -88 -147.333 -132 -238 -132c-91.333 0 -159.666 23.667 -204.999 71c-45.333 46 -68 98.667 -68 158s42.667 94 128 104
c127.333 14.667 238.666 44.334 333.999 89.001s174.666 104 237.999 178l100 -85z" />
    <glyph glyph-name="uni17D2_uni1793.liga" unicode="&#x17d2;&#x1793;" 
d="M-400 -309c-28 -9.33301 -55.668 -21.667 -83.001 -37c-69.333 -38 -141.666 -57 -216.999 -57c-66.667 0 -100 38 -100 114c0 63.333 50 95 150 95h250v-115zM-200.001 -431.001h26l-26 -48v48zM-200.001 -194.001l99.999 -0.000976562l50 94h-600
c-116.667 0 -204 -15.667 -262 -47c-58.667 -31.333 -88 -78.666 -88 -141.999c0 -79.333 25 -138.333 75 -177c50 -40 125 -60 225 -60c36.667 0 79.334 15.667 128.001 47c33.333 22 91 36.333 173 43l-1 -138l171 -76l65 56c42.667 36.667 64 97 64 181
c0 82.667 -21.667 124 -65 124h-35v95z" />
    <glyph glyph-name="uni17D2_uni1795.liga" unicode="&#x17d2;&#x1795;" 
d="M-400 -221v44c0 18 -8.33301 27 -25 27c-33.333 0 -50 -12.333 -50 -37c0 -22.667 25 -34 75 -34zM-200 -521c0 -30.667 -16.998 -59.667 -50.998 -87c-34 -28 -83.667 -42 -149 -42c-78 0 -130 12.667 -156 38l-118 112l-79 -74
c-52.667 -50.667 -90.334 -76 -113.001 -76s-50.667 13.667 -84 41c-33.333 26.667 -50 56 -50 88v311l200 160v-464l200 191l200 -191v207c-66.667 0 -116.667 10.333 -150 31c-33.333 20 -50 50.333 -50 91c0 45.333 14.667 79.333 44 102c29.333 22 73 33 131 33
c83.333 0 141.666 -13 174.999 -39c33.333 -26.667 50 -55 50 -85v-347z" />
    <glyph glyph-name="uni17D2_uni1796.liga" unicode="&#x17d2;&#x1796;" 
d="M-700 -530c44.667 31.333 67 55.667 67 73c0 11.333 -11.333 17 -34 17h-33v-90zM-200 -570.999l-93 -79.001h-107v496h-48c-54.667 0 -118.667 -28.333 -192 -85l7 21c12.667 42.667 0.666992 64 -36 64h-222l-27 -44c65.333 -7.33301 117.333 -20 156 -38
c41.333 -17.333 62 -39.666 62 -66.999v-59h33c46 0 80.333 -6 103 -18c23.333 -11.333 35 -28 35 -50c0 -42 -39 -89 -117 -141l-119 -79h-28l-107 54v259c0 21.333 -33.333 35.333 -100 42v108l93 137h275c42.667 0 64 -22.667 64 -68c46 45.333 88.333 68 127 68h241
v-521z" />
    <glyph glyph-name="uni17D2_uni1797.liga" unicode="&#x17d2;&#x1797;" 
d="M-898 -616c-68 22 -101.999 59.9971 -101.999 113.997c0 42.667 33.333 71.667 100 87c0 -46.667 33.333 -81 100 -103c58 -18 97.667 -22.333 119 -13c20.667 8.66699 31 22.667 31 42c0 17.333 -14.667 38 -44 62c-28.667 24.667 -72.334 46.334 -131.001 65.001
c-58 20 -101.667 45 -131 75s-44 61.667 -44 95c0 18.667 58.333 47.334 175 86.001c116.667 37.333 191.667 56 225 56s86.333 -12 159 -36c160.667 -52 241 -97 241 -135v-257l-200 -172v401c0 12.667 -46 34.334 -138 65.001c-92.667 30 -151.334 45 -176.001 45
s-45 -2.66699 -61 -8c-16.667 -6 -25 -21 -25 -45c0 -30.667 21 -53 63 -67c62 -20 108.667 -46.333 140 -79s47 -71.667 47 -117v-34c0 -42 -21.667 -79.333 -65 -112s-84.333 -49 -123 -49c-39.333 0 -92.666 11.333 -159.999 34z" />
    <glyph glyph-name="uni17D2_uni1798.liga" unicode="&#x17d2;&#x1798;" 
d="M-200 -450h27l-27 -20v20zM-400 -300h-100.003c-53.333 0 -100.333 -30 -141 -90c-41.333 -60 -70.666 -90 -87.999 -90c-18 0 -47.667 18.333 -89 55s-62 64 -62 82s27.333 49 82 93c-68 0 -168.667 -44.667 -302 -134c0 -24.667 26.667 -50.667 80 -78
c52.667 -28 98.667 -66.333 138 -115s75 -73 107 -73c31.333 0 68.333 33.333 111 100s97.334 100 164.001 100h100v-100l172 -100l65 59c42 38.667 63 85.667 63 141v150h-100v150c0 33.333 -16.667 50 -50 50s-66.666 -16.667 -99.999 -50l-50 -50v-100z" />
    <glyph glyph-name="uni17D2_uni179A.liga" unicode="&#x17d2;&#x179a;" horiz-adv-x="600" 
d="M200 860c0 40 -47.335 66.668 -142.002 80.001c-32 4 -48 19.333 -48 46s8.33301 60 25 100l165 414h300c0 -81.333 -8.66699 -150.333 -26 -207c-18 -57.333 -48 -98.333 -90 -123c10.667 40.667 16 72.667 16 96c0 22.667 -16.667 34 -50 34h-133l-69 -173
c84 -15.333 147 -40 189 -74c42 -33.333 63 -76.333 63 -129v-1224c0 -22.667 46 -60.667 138 -114c92.667 -52.667 151.334 -79 176.001 -79s45 5 61 15c16.667 9.33301 25 52 25 128v150l113 113c24.667 24.667 45.334 37 62.001 37s25 -16.667 25 -50v-250
c0 -66.667 -58.333 -133.334 -175 -200.001s-191.667 -100 -225 -100s-86.333 21 -159 63c-160.667 91.333 -241 170.333 -241 237v1210z" />
    <glyph glyph-name="uni17D2_uni179B.liga" unicode="&#x17d2;&#x179b;" 
d="M-157 -400c-38.667 -93.333 -96.335 -167.001 -173.002 -221.001c-22 -15.333 -50 -24 -84 -26h-6c-57.333 0 -137.666 60.667 -240.999 182l-80 94c-53.333 62.667 -114.333 94.667 -183 96c-52 1.33301 -79.333 -26 -82 -82c-2.66699 -56.667 24 -99.667 80 -129
c55.333 -28.667 116 -40.667 182 -36c-49.333 -77.333 -110.666 -118.666 -183.999 -123.999h-11c-42 0 -78.667 16 -110 48c-34 36 -51 96.333 -51 181c0 84 26.667 155.333 80 214c52.667 58 110.667 89.333 174 94c63.333 5.33301 137.333 -37 222 -127l88 -98
c52.667 -61.333 97 -109 133 -143c54 4.66699 92 20 114 46c26 30.667 39 70.667 39 120s-15 99.333 -45 150l195 101c0 -132.667 -19 -246 -57 -340z" />
    <glyph glyph-name="uni17D2_uni179C.liga" unicode="&#x17d2;&#x179c;" 
d="M-752 -255c67.333 -18.667 130.333 -20.833 189 -6.5s113 53.833 163 118.5l200 93c0 -173.333 -48 -316.666 -144 -429.999s-194 -170 -294 -170c-100.667 0 -186 20.667 -256 62c-70.667 41.333 -106 83.666 -106 126.999s24.667 93 74 149
c48.667 56 106.667 75 174 57zM-899 -373.999c-16.667 -18.667 10.3311 -41 80.998 -67c70.667 -26.667 140.334 -40 209.001 -40c68 0 127.333 19.667 178 59c50.667 38 70.667 87.333 60 148c-37.333 -36 -91.666 -67.333 -162.999 -94c-72 -26 -146.667 -29 -224 -9
c-78 20 -125 21 -141 3z" />
    <glyph glyph-name="uni17D2_uni17A0.liga" unicode="&#x17d2;&#x17a0;" 
d="M-938 -74c31.333 -17.333 47.002 -43.668 47.002 -79.001v-236c0 -18 -5.66699 -31.667 -17 -41c0 -14.667 26.333 -35 79 -61c83.333 -35.333 135.666 -53 156.999 -53c20.667 0 37.667 3 51 9c14.667 6.66699 22 35.334 22 86.001v67c0 26.667 -34 44.334 -102 53.001
c-26.667 2.66699 -40 12.667 -40 30c0 18 7 40.333 21 67l96 182h525v-499l-125 -101h-41v468h-345l-16 -22c59.333 -10.667 106.333 -27 141 -49c35.333 -22.667 53 -51.667 53 -87v-109c0 -44.667 -49.667 -89.334 -149 -134.001c-100.667 -44.667 -165 -67 -193 -67
c-28.667 0 -74 14.333 -136 43c-40.667 22 -78.334 46 -113.001 72c-34 26.667 -59.667 61 -77 103c17.333 6 28.666 13.5 33.999 22.5s8 20.167 8 33.5v180c0 23.333 -14 40 -42 50v49c0 31.333 19.333 47 58 47s73.334 -8 104.001 -24z" />
    <glyph glyph-name="uni17D2_uni17A2.liga" unicode="&#x17d2;&#x17a2;" 
d="M-924 -445l-48 -27l48 -41v68zM-379 -445l-48 -27l48 -41v68zM-981 -650c-9.33301 11.333 -20 20.667 -32 28c-58 39.333 -87 80.333 -87 123c0 22 15.333 39.667 46 53l127 63v180c0 26 -43 43.333 -129 52c-29.333 2 -44 12 -44 30c0 16.667 7.66699 38 23 64l5 7h193
c31.333 -7.33301 57 -17 77 -29c38 -21.333 57 -49 57 -83v-116l93 81c32.667 -44.667 70.334 -74 113.001 -88c39.333 -12 92 -18.667 158 -20v102c0 26 -43 43.333 -129 52c-29.333 2 -44 12 -44 30c0 16.667 7.66699 38 23 64l4 7h194c30.667 -7.33301 56 -17 76 -29
c38 -21.333 57 -49 57 -83v-369c-43.333 -79.333 -122 -119 -236 -119c-9.33301 11.333 -20 20.666 -32 27.999c-57.333 39.333 -86 80.333 -86 123c0 22 15 39.667 45 53l128 63v66c-71.333 -33.333 -133.333 -49 -186 -47c-50.667 0.666992 -110 14.334 -178 41.001v-197
c-36.667 -86.667 -115.334 -130 -236.001 -130z" />
    <glyph glyph-name="uni17B7_uni17CD.liga" unicode="&#x17b7;&#x17cd;" 
d="M-814 1862c61.333 6.66699 172.667 -23.999 334 -91.999l12 21l-172 107c-64 33.333 -123.667 48.333 -179 45c-56 -2.66699 -111 -60 -165 -172c52 53.333 108.667 83.666 170 90.999zM-411.999 1824c-6 -22 -16.333 -42.668 -31 -62.001l-97 -157l-99 33
c-100 32.667 -188.333 50 -265 52s-142 -12 -196 -42l29 110c28.667 108 62.334 192 101.001 252c38 60 81 95.333 129 106c47.333 10.667 94.333 12 141 4c32.667 -5.33301 70.667 -19 114 -41c12 23.333 27.333 49.666 46 79c36.667 55.333 75 88 115 98
c40 10.667 81.333 -1.66602 124 -36.999c55.333 -45.333 90.333 -103 105 -173c12 0.666992 33.333 75 64 223c16 73.333 37.667 128.333 65 165c28.667 37.333 63 56 103 56h59l-59 -167c-60 0 -98 -34.667 -114 -104l-25 -104c-32 -139.333 -64 -209 -96 -209
c-40 59.333 -92.667 115.333 -158 168c-71.333 56.667 -120.333 67 -147 31c-16.667 -24 -21.334 -45.667 -14.001 -65c32 -22 57 -45 75 -69c62 -43.333 111 -65 147 -65l-41 -84l-58 1z" />
    <glyph glyph-name=".notdef" horiz-adv-x="1536" 
d="M256 0v1280h1024v-1280h-1024zM288 32h960v1216h-960v-1216z" />
    <glyph glyph-name="space" unicode=" " horiz-adv-x="569" 
 />
    <glyph glyph-name="space" unicode="&#xa0;" horiz-adv-x="569" 
 />
    <glyph glyph-name="exclam" unicode="!" horiz-adv-x="872" 
d="M612 1493v-692l-40 -457h-70l-40 457v692h150zM622 213v-213h-172v213h172z" />
    <glyph glyph-name="quotedbl" unicode="&#x22;" horiz-adv-x="727" 
d="M106 1452h190v-227l-55 -275h-80l-55 275v227zM434 1452h190v-227l-55 -275h-80l-55 275v227z" />
    <glyph glyph-name="numbersign" unicode="#" horiz-adv-x="1138" 
d="M993 1427l-74 -401h190v-139h-217l-63 -357h215v-139h-240l-80 -431h-155l77 431h-253l-80 -431h-156l78 431h-207v139h233l64 357h-221v139h248l73 401h156l-74 -401h256l72 401h158zM737 887h-254l-66 -357h256z" />
    <glyph glyph-name="dollar" unicode="$" horiz-adv-x="1138" 
d="M501 1577l121.001 0.000976562v-111c172 -12 290 -81.667 354 -209c26 -51.333 40.333 -109.333 43 -174v-20h-161c-1.33301 105.333 -41 181 -119 227c-27.333 15.333 -57.333 25.666 -90 30.999c-8.66699 1.33301 -17.667 2 -27 2v-510
c136.667 -42 226 -74.667 268 -98c116 -66 174 -171.333 174 -316c0 -142 -46.333 -254.667 -139 -338c-14.667 -13.333 -31 -25.333 -49 -36c-66.667 -39.333 -151.334 -63.333 -254.001 -72v-211h-121v211c-210 14 -344.333 100.667 -403 260
c-22 62.667 -31 133.667 -27 213h162c9.33301 -101.333 23.666 -168.333 42.999 -201c2.66699 -4 5.33398 -8.66699 8.00098 -14c48 -65.333 120.333 -104.333 217 -117v557c-126.667 38.667 -212.667 74.334 -258 107.001c-96.667 69.333 -145 169 -145 299
c0 199.333 95.333 327.666 286 384.999c36 10.667 75 18.667 117 24v111zM501.001 829.001v492.001c-130.667 -18 -207.667 -78.667 -231 -182c-4 -19.333 -6 -40 -6 -62c0 -122.667 79 -205.334 237 -248.001zM622.001 633.002l-0.000976562 -539
c83.333 10 146 35.333 188 76c57.333 54.667 86 123 86 205c0 83.333 -32 145.333 -96 186c-39.333 24.667 -98.666 48.667 -177.999 72z" />
    <glyph glyph-name="percent" unicode="%" horiz-adv-x="1820" 
d="M407 1403c114.667 0 207.001 -45.001 277.001 -135.001l37 -58c24 -50 36 -103.667 36 -161c0 -108 -43 -197 -129 -267c-64 -53.333 -137 -80 -219 -80c-110.667 0 -201.334 43 -272.001 129c-52 66 -78 140 -78 222c0 110.667 43 201.334 129 272.001
c64 52 137 78 219 78zM407.001 1260c-73.333 0 -130.667 -31.666 -172 -94.999l-24 -47c-7.33301 -22 -11 -43.667 -11 -65c0 -72.667 30.667 -130 92 -172c36 -23.333 75 -35 117 -35c74 0 131.333 30.667 172 92c23.333 34 35 71.667 35 113
c0 77.333 -32.667 136.666 -98 177.999c-32.667 20.667 -69.667 31 -111 31zM1247 1452h135l-809 -1492h-135zM1409 659c116 0 208.667 -45 278 -135c48 -62.667 72 -135 72 -217c0 -108 -43 -196.667 -129 -266c-64 -52.667 -137 -79 -219 -79
c-110.667 0 -201.667 42.667 -273 128c-52 65.333 -78 139 -78 221c0 110.667 44 201 132 271c64 51.333 136.333 77 217 77zM1409 516c-74 0 -131.332 -30.667 -171.999 -92c-23.333 -34 -35 -71.667 -35 -113c0 -74.667 32 -132.667 96 -174c34 -22 71.667 -33 113 -33
c73.333 0 130.666 31 171.999 93c23.333 34 35 70.667 35 110c0 78 -33 137.333 -99 178l-47 21c-20.667 6.66699 -41.667 10 -63 10z" />
    <glyph glyph-name="ampersand" unicode="&#x26;" horiz-adv-x="1366" 
d="M1009 684l164.001 -0.00292969c0 -128 -39.667 -253 -119 -375l250 -309h-223l-127 160c-66.667 -66 -119.334 -110.333 -158.001 -133c-76.667 -49.333 -166.667 -74 -270 -74c-158.667 0 -276 56 -352 168c-45.333 66.667 -68 146.334 -68 239.001
c0 110.667 35.333 202.334 106 275.001c49.333 49.333 124.666 103.333 225.999 162c-96 120 -150 212.667 -162 278c-2.66699 18 -4 36.333 -4 55c0 105.333 44.333 190 133 254c62.667 45.333 135 68 217 68c122.667 0 215.667 -45 279 -135l30 -57
c12.667 -28.667 20.334 -59.667 23.001 -93c1.33301 -12 2 -24.333 2 -37c0 -94 -37.667 -174.333 -113 -241c-39.333 -35.333 -96 -73.666 -170 -114.999l273 -334c43.333 76.667 64.333 158 63 244zM583.001 882.997c110.667 69.333 176.333 129.332 197 179.999
c9.33301 20.667 14 44.667 14 72c0 70.667 -30.667 121.667 -92 153c-26 14 -54.667 21 -86 21c-82 0 -136.667 -34.333 -164 -103c-8 -21.333 -12 -45.666 -12 -72.999c0 -45.333 17 -92 51 -140zM856 280.996l-327.999 408.999c-128.667 -82 -206.667 -157 -234 -225
c-10.667 -27.333 -16 -57.333 -16 -90c0 -88.667 37 -159 111 -211c47.333 -34 99.666 -51 156.999 -51c92 0 184.333 44.333 277 133c10.667 10.667 21.667 22.334 33 35.001z" />
    <glyph glyph-name="quotesingle" unicode="'" horiz-adv-x="391" 
d="M98 1452h193v-227l-56 -275h-82l-55 275v227z" />
    <glyph glyph-name="parenleft" unicode="(" horiz-adv-x="1146" 
d="M584 1493h112.001c-168.667 -273.333 -261.334 -566.333 -278.001 -879c-1.33301 -28.667 -2 -56.667 -2 -84c0 -318 83.333 -622 250 -912c9.33301 -18 19.333 -35.333 30 -52h-112c-154.667 202 -257 434 -307 696c-18 92.667 -27 182 -27 268
c0 244.667 63.333 489.334 190 734.001c42.667 83.333 90.667 159.666 144 228.999z" />
    <glyph glyph-name="parenright" unicode=")" horiz-adv-x="1146" 
d="M563 -434l-113 -0.000976562c169.333 273.333 262.333 566 279 878c1.33301 28.667 2 56.667 2 84c0 318.667 -83.333 623.334 -250 914.001c-10 17.333 -20.333 34.333 -31 51h113c154 -202 256.333 -434 307 -696c17.333 -93.333 26 -183 26 -269
c0 -244 -63.333 -488 -190 -732c-42 -83.333 -89.667 -160 -143 -230z" />
    <glyph glyph-name="asterisk" unicode="*" horiz-adv-x="1321" 
d="M696 1493h129l-10 -229l217 77l39 -120l-222 -62l144 -182l-105 -74l-127 191l-129 -191l-102 74l141 182l-221 62l39 120l217 -77z" />
    <glyph glyph-name="plus" unicode="+" horiz-adv-x="1196" 
d="M1093 547v-144h-424v-423h-143v423h-424v144h424v424h143v-424h424z" />
    <glyph glyph-name="comma" unicode="," horiz-adv-x="569" 
d="M178 213l215 -0.000976562v-245c0 -179.333 -71.667 -269 -215 -269v78c58.667 2.66699 95 25.334 109 68.001c9.33301 26 14 65.667 14 119v36h-123v213z" />
    <glyph glyph-name="hyphen" unicode="-" horiz-adv-x="681" 
d="M581 639v-147h-487v147h487z" />
    <glyph glyph-name="hyphen" unicode="&#xad;" horiz-adv-x="681" 
d="M581 639v-147h-487v147h487z" />
    <glyph glyph-name="period" unicode="." horiz-adv-x="569" 
d="M391 213v-213h-213v213h213z" />
    <glyph glyph-name="slash" unicode="/" horiz-adv-x="569" 
d="M469 1493h113l-485 -1533h-113z" />
    <glyph glyph-name="zero" unicode="0" horiz-adv-x="1166" 
d="M583 1500c330 0 495 -250 495 -750s-165 -750 -495 -750s-495 250 -495 750s165 750 495 750zM583 1350c-230 0 -345 -200 -345 -600s115 -600 345 -600s345 200 345 600s-115 600 -345 600z" />
    <glyph glyph-name="one" unicode="1" horiz-adv-x="952" 
d="M431 1172h-205v95c141.333 0 222 77.667 242 233h113v-1350h205v-150h-560v150h205v1022z" />
    <glyph glyph-name="two" unicode="2" horiz-adv-x="1129" 
d="M889 1053c0 198 -105 297.001 -315 297.001s-315 -99 -315 -297h-150c0 298 155 447 465 447s465 -149 465 -447c0 -208 -127.333 -366.667 -382 -476l-191 -83c-138 -56.667 -207 -171.334 -207 -344.001h780v-150h-930v150c0 238.667 102.333 401.667 307 489l191 82
c188 81.333 282 192 282 332z" />
    <glyph glyph-name="three" unicode="3" horiz-adv-x="1143" 
d="M562 861c190 0 285 81.668 285 245.001c0 162.667 -95 244 -285 244s-285 -81.333 -285 -244h-150c0 262.667 145 394 435 394s435 -130.667 435 -392c0 -146.667 -45.333 -252.334 -136 -317.001c110.667 -68.667 166 -188.667 166 -360c0 -287.333 -155 -431 -465 -431
s-465 144.333 -465 433h150c0 -188.667 105 -283 315 -283s315 94.333 315 283c0 188 -105 282 -315 282h-78v146h78z" />
    <glyph glyph-name="four" unicode="4" horiz-adv-x="1091" 
d="M698 1231l-477 -712h477v712zM698 1500h150v-981h192v-150h-192v-369h-150v369h-658v150z" />
    <glyph glyph-name="five" unicode="5" horiz-adv-x="1146" 
d="M1039 500c0 -333.333 -145.666 -500 -436.999 -500c-285.333 -0 -444.666 132.333 -477.999 397h150c33.333 -164.667 142.666 -247 327.999 -247c191.333 0 287 116.667 287 350s-92.333 350 -277 350c-134.667 0 -230.667 -42.667 -288 -128h-145l70 778h720v-178h-585
l-37 -373c71.333 34 159.666 51 264.999 51c284.667 0 427 -166.667 427 -500z" />
    <glyph glyph-name="six" unicode="6" horiz-adv-x="1082" 
d="M243 573c28.667 -282 130.999 -423 306.999 -423c210 0 315 108.333 315 325s-105 325 -315 325c-175.333 0 -277.666 -75.667 -306.999 -227zM549.999 0c-310 0 -465 250 -465 750s171.667 750 515 750c276.667 0 415 -117.333 415 -352h-150
c0 134.667 -88.333 202 -265 202c-218.667 0 -339 -162 -361 -486c75.333 57.333 179 86 311 86c310 0 465 -158.333 465 -475s-155 -475 -465 -475z" />
    <glyph glyph-name="seven" unicode="7" horiz-adv-x="1103" 
d="M1029 1350l-533 -1350h-161l534 1350h-770v150h930v-150z" />
    <glyph glyph-name="eight" unicode="8" horiz-adv-x="1078" 
d="M539 1350c-190 0 -285 -83.333 -285 -250s95 -250 285 -250s285 83.333 285 250s-95 250 -285 250zM539 700c-210 0 -315 -91.667 -315 -275s105 -275 315 -275s315 91.667 315 275s-105 275 -315 275zM237 780c-88.667 65.333 -133 172 -133 320
c0 266.667 145 400 435 400s435 -133.333 435 -400c0 -148 -44.333 -254.667 -133 -320c108.667 -68.667 163 -187 163 -355c0 -283.333 -155 -425 -465 -425s-465 141.667 -465 425c0 168 54.333 286.333 163 355z" />
    <glyph glyph-name="nine" unicode="9" horiz-adv-x="1082" 
d="M839 927c-28.667 282 -130.999 423 -306.999 423c-210 0 -315 -108.333 -315 -325s105 -325 315 -325c175.333 0 277.666 75.667 306.999 227zM532.001 1500c310 0 465 -250 465 -750s-171.667 -750 -515 -750c-276.667 -0 -415 117.333 -415 352h150
c0 -134.667 88.333 -202 265 -202c218.667 0 339 162 361 486c-75.333 -57.333 -179 -86 -311 -86c-310 0 -465 158.333 -465 475s155 475 465 475z" />
    <glyph glyph-name="colon" unicode=":" horiz-adv-x="569" 
d="M438 213v-213h-213v213h213zM438 1073v-213h-213v213h213z" />
    <glyph glyph-name="semicolon" unicode=";" horiz-adv-x="569" 
d="M440 1073v-213h-213v213h213zM225 213l215 -0.000976562v-245c0 -179.333 -71.667 -269 -215 -269v78c58.667 2.66699 95 25.334 109 68.001c9.33301 26 14 65.667 14 119v36h-123v213z" />
    <glyph glyph-name="semicolon" unicode="&#x37e;" horiz-adv-x="569" 
d="M440 1073v-213h-213v213h213zM225 213l215 -0.000976562v-245c0 -179.333 -71.667 -269 -215 -269v78c58.667 2.66699 95 25.334 109 68.001c9.33301 26 14 65.667 14 119v36h-123v213z" />
    <glyph glyph-name="less" unicode="&#x3c;" horiz-adv-x="1196" 
d="M92 406v141l1001 424v-162l-806 -330l806 -336v-161z" />
    <glyph glyph-name="equal" unicode="=" horiz-adv-x="1196" 
d="M1093 723v-143h-991v143h991zM1093 371v-144h-991v144h991z" />
    <glyph glyph-name="greater" unicode="&#x3e;" horiz-adv-x="1196" 
d="M1103 547v-141l-1001 -424v161l807 330l-807 336v162z" />
    <glyph glyph-name="question" unicode="?" horiz-adv-x="1585" 
d="M968 408l-184 0.000976562v112c0 68.667 19 128 57 178c23.333 30 59 67.667 107 113l49 43c100.667 90 151.667 180 153 270c0 96 -41.667 164.333 -125 205l-63 21c-23.333 5.33301 -48 8 -74 8c-112 0 -188.333 -39.667 -229 -119
c-23.333 -46.667 -35 -113.667 -35 -201h-174c0 144 30.667 255.667 92 335c62 79.333 154.333 126 277 140c26 3.33301 52.667 5 80 5c172 0 296 -56.667 372 -170l33 -62c20.667 -49.333 31 -103.333 31 -162c0 -95.333 -35 -183.333 -105 -264
c-26 -31.333 -59.333 -65.333 -100 -102c-86 -79.333 -136 -137.333 -150 -174c-8 -20.667 -12 -47.334 -12 -80.001v-96zM968 213.001v-213h-184v213h184z" />
    <glyph glyph-name="at" unicode="@" horiz-adv-x="2078" 
d="M1361 1026h170.001l-184 -573c-16.667 -48 -25 -82.333 -25 -103c0 -36.667 20 -64 60 -82c13.333 -5.33301 27.666 -8 42.999 -8c87.333 0 167 49.333 239 148c70 96.667 105 204.334 105 323.001c0 164 -66.333 306.667 -199 428c-135.333 126 -299 193 -491 201h-31
c-200.667 0 -378.334 -69.667 -533.001 -209l-69 -70c-135.333 -154 -203 -328 -203 -522c0 -192.667 71.667 -355 215 -487c147.333 -136.667 331.666 -205 552.999 -205c108 0 239.667 22 395 66l58 -137c-153.333 -57.333 -307.666 -86 -462.999 -86
c-246 0 -458.333 73 -637 219c-166.667 136 -263 304.333 -289 505c-4 31.333 -6 62.666 -6 93.999c0 210.667 65 404.667 195 582c38 53.333 81 101 129 143c147.333 134 324 218 530 252c50.667 8.66699 101.334 13 152.001 13c226.667 0 423.667 -69 591 -207
c158.667 -128.667 250.334 -285 275.001 -469c4 -28.667 6 -57.334 6 -86.001c0 -165.333 -58.667 -317.666 -176 -456.999c-104 -121.333 -231 -182 -381 -182c-131.333 0 -206.333 52.333 -225 157c-90 -98 -187 -147 -291 -147c-112 0 -200 47 -264 141
c-46.667 67.333 -70 145.333 -70 234c0 148.667 54 280.334 162 395.001c105.333 113.333 226.666 170.666 363.999 171.999c114.667 0 198 -59.333 250 -178zM1054 938c-90 0 -169 -48.332 -237 -144.999c-62 -86 -93 -183.667 -93 -293c0 -92 32.333 -161 97 -207
c32.667 -23.333 68 -35 106 -35c79.333 0 149 44.333 209 133c45.333 65.333 78.666 155.666 99.999 270.999c6 30 9.66699 56.333 11 79c4 74 -24 130 -84 168c-33.333 19.333 -69.666 29 -108.999 29z" />
    <glyph glyph-name="A" unicode="A" horiz-adv-x="1222" 
d="M847 597l-236 685l-236 -685h472zM694 1500l518 -1500h-159l-154 447h-576l-154 -447h-159l518 1500h166z" />
    <glyph glyph-name="B" unicode="B" horiz-adv-x="1257" 
d="M311 710v-560h400c113.333 0 198.333 23.333 255 70s85 116.667 85 210s-28.333 163.333 -85 210s-141.667 70 -255 70h-400zM661 860c113.333 0 198.333 20.334 255 61.001c56.667 41.333 85 102.666 85 183.999c0 82 -28.333 143.333 -85 184s-141.667 61 -255 61h-350
v-490h350zM161 1500l499.999 -0.00390625c163.333 0 286 -33 368 -99c81.333 -65.333 122 -164 122 -296c0 -69.333 -11.333 -129.666 -34 -180.999s-57 -93.666 -103 -126.999c62.667 -33.333 109.334 -80.666 140.001 -141.999c31.333 -61.333 47 -136.333 47 -225
c0 -143.333 -40.667 -250.666 -122 -321.999c-82 -72 -204.667 -108 -368 -108h-550v1500z" />
    <glyph glyph-name="C" unicode="C" horiz-adv-x="1253" 
d="M676 0c-200 0 -350 62.668 -450 188.001c-100 124.667 -150 312 -150 562s50 437.667 150 563c100 124.667 250 187 450 187c125.333 0 231 -24.333 317 -73c86 -49.333 152.333 -123 199 -221l-129 -82c-35.333 80.667 -85.333 141 -150 181c-64 40 -143 60 -237 60
c-150 0 -262.333 -51.333 -337 -154c-75.333 -102 -113 -255.667 -113 -461c0 -204.667 37.667 -358.334 113 -461.001c74.667 -102.667 187 -154 337 -154c98.667 0 181 22.333 247 67c66.667 44 116.667 110.333 150 199l136 -68c-44 -110.667 -110.667 -194 -200 -250
c-88.667 -55.333 -199.667 -83 -333 -83z" />
    <glyph glyph-name="D" unicode="D" horiz-adv-x="1325" 
d="M661 1350h-350v-1200h300c163.333 0 286 50 368 150c81.333 100 122 250 122 450s-36.667 350 -110 450s-183.333 150 -330 150zM1251 750c0 -250 -53.334 -437.333 -160.001 -562c-106.667 -125.333 -266.667 -188 -480 -188h-450v1500h500
c196.667 0 344.334 -62.333 443.001 -187c98 -125.333 147 -313 147 -563z" />
    <glyph glyph-name="E" unicode="E" horiz-adv-x="1278" 
d="M311 723v-573h890v-150h-1040v1500h1020v-150h-870v-477h840v-150h-840z" />
    <glyph glyph-name="F" unicode="F" horiz-adv-x="1216" 
d="M311 873h759v-150h-759v-723h-150v1500h1019v-150h-869v-477z" />
    <glyph glyph-name="G" unicode="G" horiz-adv-x="1308" 
d="M1050 425v183h-376v150h526v-758h-150v134c-95.333 -89.333 -225 -134 -389 -134c-194.667 0 -341 62.667 -439 188c-97.333 124.667 -146 312 -146 562s48.667 437.667 146 563c98 124.667 244.333 187 439 187c242.667 0 409.667 -96.667 501 -290l-140 -67
c-70.667 138 -191 207 -361 207c-144.667 0 -253.334 -50 -326.001 -150s-109 -250 -109 -450s36.333 -350 109 -450s181.334 -150 326.001 -150c196 0 325.667 91.667 389 275z" />
    <glyph glyph-name="H" unicode="H" horiz-adv-x="1378" 
d="M311 693v-693h-150v1500h150v-657h756v657h150v-1500h-150v693h-756z" />
    <glyph glyph-name="I" unicode="I" horiz-adv-x="656" 
d="M253 1350h-150v150h450v-150h-150v-1200h150v-150h-450v150h150v1200z" />
    <glyph glyph-name="J" unicode="J" horiz-adv-x="941" 
d="M570 1350h-155v150h450v-150h-145v-950c0 -266.667 -110.333 -400 -331 -400c-221.333 0 -332 126.667 -332 380h150c0 -153.333 60.667 -230 182 -230c120.667 0 181 83.333 181 250v950z" />
    <glyph glyph-name="K" unicode="K" horiz-adv-x="1231" 
d="M1036 0l-538 805l-187 -179v-626h-150v1500h150v-667l693 667h217l-613 -589l608 -911h-180z" />
    <glyph glyph-name="L" unicode="L" horiz-adv-x="1030" 
d="M311 150h709v-150h-859v1500h150v-1350z" />
    <glyph glyph-name="M" unicode="M" horiz-adv-x="1616" 
d="M808 225l-435 1275h-212v-1500h150v1218l416 -1218h162l416 1218v-1218h150v1500h-212z" />
    <glyph glyph-name="N" unicode="N" horiz-adv-x="1393" 
d="M311 1267v-1267h-150v1500h188l733 -1265v1265h150v-1500h-187z" />
    <glyph glyph-name="O" unicode="O" horiz-adv-x="1322" 
d="M661 1500c195.333 0 341.666 -62.333 438.999 -187c97.333 -125.333 146 -313 146 -563s-48.667 -437.333 -146 -562c-97.333 -125.333 -243.666 -188 -438.999 -188c-194.667 0 -341 62.667 -439 188c-97.333 124.667 -146 312 -146 562s48.667 437.667 146 563
c98 124.667 244.333 187 439 187zM661 1350c-144.667 0 -253.334 -50 -326.001 -150s-109 -250 -109 -450s36.333 -350 109 -450s181.334 -150 326.001 -150c145.333 0 254 50 326 150c72.667 100 109 250 109 450s-36.333 350 -109 450c-72 100 -180.667 150 -326 150z" />
    <glyph glyph-name="P" unicode="P" horiz-adv-x="1239" 
d="M1191 1090c0 -136.667 -41.333 -238.999 -124 -306.999c-82 -68.667 -205.667 -103 -371 -103h-385v-680h-150v1500h535c165.333 0 289 -34 371 -102c82.667 -68.667 124 -171.334 124 -308.001zM311 830.001h385c115.333 0 201.666 21.667 258.999 65s86 108.333 86 195
s-28.667 151.667 -86 195s-143.666 65 -258.999 65h-385v-520z" />
    <glyph glyph-name="Q" unicode="Q" horiz-adv-x="1334" 
d="M1017 348c52.667 98 79 232 79 402c0 200 -36.333 350 -109 450c-72 100 -180.667 150 -326 150c-144.667 0 -253.334 -50 -326.001 -150s-109 -250 -109 -450s36.333 -350 109 -450s181.334 -150 326.001 -150c106.667 0 193.667 27 261 81l-248 181l88 122zM1053 136
c-95.333 -90.667 -225.999 -136 -391.999 -136c-194.667 0 -341 62.667 -439 188c-97.333 124.667 -146 312 -146 562s48.667 437.667 146 563c98 124.667 244.333 187 439 187c195.333 0 341.666 -62.333 438.999 -187c97.333 -125.333 146 -313 146 -563
c0 -208.667 -34 -373.667 -102 -495l184 -134l-88 -121z" />
    <glyph glyph-name="R" unicode="R" horiz-adv-x="1252" 
d="M311 830h385c115.333 0 201.666 21.667 258.999 65s86 108.333 86 195s-28.667 151.667 -86 195s-143.666 65 -258.999 65h-385v-520zM1076 0l-328.001 681.002c-17.333 -0.666992 -34.666 -1 -51.999 -1h-385v-680h-150v1500h535c165.333 0 289 -34 371 -102
c82.667 -68.667 124 -171.334 124 -308.001c0 -104 -24 -188.333 -72 -253s-120 -109.334 -216 -134.001l339 -703h-166z" />
    <glyph glyph-name="S" unicode="S" horiz-adv-x="1204" 
d="M615 1500c332 0 498 -133.334 498 -400.001h-150c0 166.667 -116 250 -348 250s-348 -67.667 -348 -203c0 -136 81 -221 243 -255l244 -53c259.333 -55.333 389 -202 389 -440c0 -266 -176 -399 -528 -399s-528 166.667 -528 500h150c0 -233.333 126 -350 378 -350
s378 83 378 249c0 166.667 -91 269.667 -273 309l-244 53c-239.333 48.667 -359 177.334 -359 386.001c0 235.333 166 353 498 353z" />
    <glyph glyph-name="T" unicode="T" horiz-adv-x="1076" 
d="M464 1350h-454v150h1056v-150h-452v-1350h-150v1350z" />
    <glyph glyph-name="U" unicode="U" horiz-adv-x="1386" 
d="M693 0c-366.667 0 -550 166.667 -550 500v1000h150v-1000c0 -233.333 133.333 -350 400 -350s400 116.667 400 350v1000h150v-1000c0 -333.333 -183.333 -500 -550 -500z" />
    <glyph glyph-name="V" unicode="V" horiz-adv-x="1222" 
d="M1053 1500h159l-518 -1500h-166l-518 1500h159l442 -1282z" />
    <glyph glyph-name="W" unicode="W" horiz-adv-x="1999" 
d="M1079 1500l377 -1283l376 1283h157l-441 -1500h-185l-363 1236l-364 -1236h-185l-441 1500h157l377 -1283l376 1283h159z" />
    <glyph glyph-name="X" unicode="X" horiz-adv-x="1258" 
d="M629 619l-428 -619h-183l520 751l-518 749h183l426 -616l426 616h183l-517 -749l519 -751h-183z" />
    <glyph glyph-name="Y" unicode="Y" horiz-adv-x="1212" 
d="M531 631l-521 869h175l421 -703l421 703h175l-521 -869v-622h-150v622z" />
    <glyph glyph-name="Z" unicode="Z" horiz-adv-x="1193" 
d="M930 1350h-854v150h1041v-150l-853 -1200h853v-150h-1041v150z" />
    <glyph glyph-name="bracketleft" unicode="[" horiz-adv-x="665" 
d="M176 1500h381v-150h-231v-1634h231v-150h-381v1934z" />
    <glyph glyph-name="backslash" unicode="\" horiz-adv-x="752" 
d="M215 1500l485 -1533h-163l-485 1533h163z" />
    <glyph glyph-name="bracketright" unicode="]" horiz-adv-x="665" 
d="M339 1350h-231v150h381v-1934h-381v150h231v1634z" />
    <glyph glyph-name="asciicircum" unicode="^" horiz-adv-x="1046" 
d="M446 1500h150l317 -778h-141l-250 614l-248 -614h-141z" />
    <glyph glyph-name="underscore" unicode="_" horiz-adv-x="1197" 
d="M1213 -241v-135h-1229v135h1229z" />
    <glyph glyph-name="grave" unicode="`" horiz-adv-x="681" 
d="M220 1516l223 -304h-123l-275 304h175z" />
    <glyph glyph-name="a" unicode="a" horiz-adv-x="1115" 
d="M819 620c-58 -24 -132.997 -42.332 -224.997 -54.999c-124.667 -17.333 -218.334 -46.333 -281.001 -87s-94 -93 -94 -157c0 -56.667 18.333 -99.334 55 -128.001s91.667 -43 165 -43c71.333 0 138.666 18 201.999 54s122.666 89.667 177.999 161v255zM69.0029 850.001
c0 96.667 37.6641 169.333 112.997 218c74.667 48 187 72 337 72s262.667 -25.667 338 -77c74.667 -52 112 -129.667 112 -233v-830h-150v186c-55.333 -62 -114.666 -108.333 -177.999 -139c-63.333 -31.333 -130.666 -47 -201.999 -47
c-123.333 0 -215.666 26.667 -276.999 80c-62 54 -93 134.333 -93 241c0 104 41.667 187.333 125 250c82.667 63.333 207 105.666 373 126.999c168 22.667 252 53.334 252 92.001v40c0 53.333 -25 93.333 -75 120s-125 40 -225 40s-175 -11.667 -225 -35
s-75 -58.333 -75 -105h-150z" />
    <glyph glyph-name="b" unicode="b" horiz-adv-x="1115" 
d="M296 0h-150v1500h150v-527c64 111.333 164 167 300 167c300 0 450 -190 450 -570s-150 -570 -450 -570c-136 0 -236 55.667 -300 167v-167zM296 570c0 -131.333 25.5 -234.167 76.5 -308.5s125.5 -111.5 223.5 -111.5c200 0 300 140 300 420s-100 420 -300 420
c-98 0 -172.5 -37 -223.5 -111s-76.5 -177 -76.5 -309z" />
    <glyph glyph-name="c" unicode="c" horiz-adv-x="1031" 
d="M901 143c-79.333 -95.333 -198.332 -143.001 -356.999 -143.001c-158 0 -276.667 47.667 -356 143c-79.333 94.667 -119 237 -119 427s39.667 332.667 119 428c79.333 94.667 198 142 356 142c158.667 0 277.667 -47.333 357 -142
c15.333 -19.333 29.333 -40.666 42 -63.999l-131 -76c-6.66699 11.333 -13.334 21.666 -20.001 30.999c-52 67.333 -134.667 101 -248 101s-195.666 -33.667 -246.999 -101c-52 -67.333 -78 -173.666 -78 -318.999c0 -144.667 26 -250.667 78 -318
c51.333 -68 133.666 -102 246.999 -102s196 34 248 102c20.667 26.667 37 60 49 100l145 -44c-20 -65.333 -48.333 -120.333 -85 -165z" />
    <glyph glyph-name="d" unicode="d" horiz-adv-x="1115" 
d="M819 167c-64 -111.333 -164 -167 -300 -167c-300 0 -450 190 -450 570s150 570 450 570c136 0 236 -55.667 300 -167v527h150v-1500h-150v167zM519 990c-200 0 -300 -139.999 -300 -419.999s100 -420 300 -420c98 0 172.5 37.167 223.5 111.5s76.5 177.166 76.5 308.499
c0 132 -25.5 235 -76.5 309s-125.5 111 -223.5 111z" />
    <glyph glyph-name="e" unicode="e" horiz-adv-x="1083" 
d="M219 545c3.33301 -132 29.332 -229.667 77.999 -293c51.333 -68 133.666 -102 246.999 -102s196 34 248 102c20.667 27.333 37.334 61 50.001 101h156c-19.333 -85.333 -51.666 -155.333 -96.999 -210c-79.333 -95.333 -198.333 -143 -357 -143
c-158 0 -276.667 47.5 -356 142.5s-119 237.5 -119 427.5s39.667 332.5 119 427.5s198 142.5 356 142.5c158.667 0 277.5 -47.5 356.5 -142.5s118.5 -237.5 118.5 -427.5v-25h-800zM860.999 695c-10.667 83.333 -33.668 148 -69.001 194c-52 67.333 -134.667 101 -248 101
s-195.666 -33.667 -246.999 -101c-36 -46 -59.333 -110.667 -70 -194h634z" />
    <glyph glyph-name="f" unicode="f" horiz-adv-x="501" 
d="M179 1140v110c0 166.667 114 250 342 250v-135c-128 0 -192 -38.333 -192 -115v-110h162v-150h-162v-990h-150v990h-140v150h140z" />
    <glyph glyph-name="g" unicode="g" horiz-adv-x="1115" 
d="M519 990c-200 0 -300 -139.999 -300 -419.999s100 -420 300 -420c98 0 172.5 37.167 223.5 111.5s76.5 177.166 76.5 308.499c0 132 -25.5 235 -76.5 309s-125.5 111 -223.5 111zM819 130.001v37c-64 -111.333 -164 -167 -300 -167c-300 0 -450 190 -450 570
s150 570 450 570c136 0 236 -55.667 300 -167v167h150v-1010c0 -326.667 -143.333 -490 -430 -490c-246.667 0 -396.667 91.667 -450 275l125 20c46.667 -96.667 155 -145 325 -145c186.667 0 280 113.333 280 340z" />
    <glyph glyph-name="h" unicode="h" horiz-adv-x="1184" 
d="M898 0v710c0 186.667 -86.667 280 -260 280c-91.333 0 -170.833 -40.333 -238.5 -121s-101.5 -137 -101.5 -169v-700h-150v1500h150v-557c104 131.333 217.333 197 340 197c273.333 0 410 -143.333 410 -430v-710h-150z" />
    <glyph glyph-name="i" unicode="i" horiz-adv-x="424" 
d="M137 1350v150h150v-150h-150zM287 1140v-1140h-150v1140h150z" />
    <glyph glyph-name="j" unicode="j" horiz-adv-x="474" 
d="M187 1350v150h150v-150h-150zM10 -360v150c118 0 177 53.333 177 160v1190h150v-1190c0 -206.667 -109 -310 -327 -310z" />
    <glyph glyph-name="k" unicode="k" horiz-adv-x="1054" 
d="M296 632l502 508h211l-469 -474l504 -666h-188l-422 558l-138 -140v-418h-150v1500h150v-868z" />
    <glyph glyph-name="l" unicode="l" horiz-adv-x="450" 
d="M300 1500v-1500h-150v1500h150z" />
    <glyph glyph-name="m" unicode="m" horiz-adv-x="1732" 
d="M946 700l-0.000976562 -700h-150v710c0 186.667 -73.333 280 -220 280c-91.333 0 -160.833 -40.333 -208.5 -121s-71.5 -137 -71.5 -169v-700h-150v1140h150v-197c90.667 131.333 194 197 310 197c164.667 0 269.334 -77.333 314.001 -232l26 35
c90.667 131.333 194 197 310 197c226.667 0 340 -146.667 340 -440v-700h-150v710c0 186.667 -73.333 280 -220 280c-91.333 0 -160.833 -40.333 -208.5 -121s-71.5 -137 -71.5 -169z" />
    <glyph glyph-name="n" unicode="n" horiz-adv-x="1184" 
d="M898 0v710c0 186.667 -86.667 280 -260 280c-91.333 0 -170.833 -40.333 -238.5 -121s-101.5 -137 -101.5 -169v-700h-150v1140h150v-197c104 131.333 217.333 197 340 197c273.333 0 410 -143.333 410 -430v-710h-150z" />
    <glyph glyph-name="o" unicode="o" horiz-adv-x="1084" 
d="M867 570c0 145.333 -25.667 251.666 -77 318.999c-52 67.333 -134.667 101 -248 101s-195.666 -33.667 -246.999 -101c-52 -67.333 -78 -173.666 -78 -318.999c0 -144.667 26 -250.667 78 -318c51.333 -68 133.666 -102 246.999 -102s196 34 248 102
c51.333 67.333 77 173.333 77 318zM67 570c0 190 39.667 332.667 119 428c79.333 94.667 198 142 356 142c158.667 0 277.667 -47.333 357 -142c78.667 -95.333 118 -238 118 -428s-39.333 -332.333 -118 -427c-79.333 -95.333 -198.333 -143 -357 -143
c-158 0 -276.667 47.667 -356 143c-79.333 94.667 -119 237 -119 427z" />
    <glyph glyph-name="p" unicode="p" horiz-adv-x="1115" 
d="M296 973c64 111.333 164 167 300 167c300 0 450 -190 450 -570s-150 -570 -450 -570c-136 0 -236 55.667 -300 167v-527h-150v1500h150v-167zM596 150c200 0 300 139.999 300 419.999s-100 420 -300 420c-98 0 -172.5 -37.167 -223.5 -111.5
s-76.5 -177.166 -76.5 -308.499c0 -132 25.5 -235 76.5 -309s125.5 -111 223.5 -111z" />
    <glyph glyph-name="q" unicode="q" horiz-adv-x="1115" 
d="M819 1140h150v-1500h-150v527c-64 -111.333 -164 -167 -300 -167c-300 0 -450 190 -450 570s150 570 450 570c136 0 236 -55.667 300 -167v167zM819 570c0 131.333 -25.5 234.167 -76.5 308.5s-125.5 111.5 -223.5 111.5c-200 0 -300 -140 -300 -420s100 -420 300 -420
c98 0 172.5 37 223.5 111s76.5 177 76.5 309z" />
    <glyph glyph-name="r" unicode="r" horiz-adv-x="676" 
d="M656 990c-98 0 -182.5 -40.333 -253.5 -121s-106.5 -137 -106.5 -169v-700h-150v1140h150v-197c110.667 131.333 230.667 197 360 197v-150z" />
    <glyph glyph-name="s" unicode="s" horiz-adv-x="1026" 
d="M77 361l150 0.00195312c0 -140.667 100 -211 300 -211s300 66.667 300 200c0 71.333 -64 123.666 -192 156.999l-160 39c-245.333 59.333 -368 160.666 -368 303.999c0 193.333 140 290 420 290s420 -107.333 420 -322h-150c0 114.667 -90 172 -270 172
s-270 -46.667 -270 -140c0 -71.333 87 -129.333 261 -174l160 -39c199.333 -48 299 -143.667 299 -287c0 -233.333 -150 -350 -450 -350s-450 120.333 -450 361z" />
    <glyph glyph-name="t" unicode="t" horiz-adv-x="566" 
d="M192 990h-161v150h161v360h150v-360h209v-150h-209v-700c0 -93.333 69.667 -140 209 -140v-150c-239.333 0 -359 96.667 -359 290v700z" />
    <glyph glyph-name="u" unicode="u" horiz-adv-x="1184" 
d="M286 1140v-710c0 -186.667 86.667 -280 260 -280c91.333 0 170.833 40.333 238.5 121s101.5 137 101.5 169v700h150v-1140h-150v197c-104 -131.333 -217.333 -197 -340 -197c-273.333 -0 -410 143.333 -410 430v710h150z" />
    <glyph glyph-name="v" unicode="v" horiz-adv-x="929" 
d="M756 1140h157l-368 -1140h-161l-368 1140h157l291 -898z" />
    <glyph glyph-name="w" unicode="w" horiz-adv-x="1448" 
d="M724 844l-220 -844h-191l-297 1140h155l238 -909l237 909h156l238 -909l237 909h155l-297 -1140h-191z" />
    <glyph glyph-name="x" unicode="x" horiz-adv-x="941" 
d="M471 433l-283 -433h-178l372 570l-372 570h178l283 -433l282 433h178l-371 -570l371 -570h-178z" />
    <glyph glyph-name="y" unicode="y" horiz-adv-x="1023" 
d="M492 266l353 874h162l-607 -1500h-162l169 418l-391 1082h159z" />
    <glyph glyph-name="z" unicode="z" horiz-adv-x="1071" 
d="M982 990l-732 -840h762v-150h-953v150l732 840h-702v150h893v-150z" />
    <glyph glyph-name="braceleft" unicode="{" horiz-adv-x="635" 
d="M60 600c74 15.333 119.167 37.835 135.5 67.502s24.5 101.5 24.5 215.5v342c0 139.333 48.333 224.666 145 255.999c24.667 8 50.667 12 78 12h94v-93c-121.333 0 -182 -49.667 -182 -149v-399c0 -180.667 -48.333 -288 -145 -322c96.667 -34 145 -141.333 145 -322v-399
c0 -99.333 60.667 -149 182 -149v-93h-94c-27.333 0 -53.333 4 -78 12c-96.667 31.333 -145 116.666 -145 255.999v342c0 114 -8.16699 185.833 -24.5 215.5s-61.5 52.167 -135.5 67.5v140z" />
    <glyph glyph-name="bar" unicode="|" horiz-adv-x="766" 
d="M308 1500h150v-1860h-150v1860z" />
    <glyph glyph-name="braceright" unicode="}" horiz-adv-x="635" 
d="M575 460c-74 -15.333 -119.167 -37.835 -135.5 -67.502s-24.5 -101.5 -24.5 -215.5v-342c0 -139.333 -48.333 -224.666 -145 -255.999c-24.667 -8 -50.667 -12 -78 -12h-94v93c121.333 0 182 49.667 182 149v399c0 180.667 48.333 288 145 322
c-96.667 34 -145 141.333 -145 322v399c0 99.333 -60.667 149 -182 149v93h94c27.333 0 53.333 -4 78 -12c96.667 -31.333 145 -116.666 145 -255.999v-342c0 -114 8.16699 -185.833 24.5 -215.5s61.5 -52.167 135.5 -67.5v-140z" />
    <glyph glyph-name="asciitilde" unicode="~" horiz-adv-x="1200" 
d="M800 250c-99.333 0 -173.999 41.667 -223.999 125l-38 63c-25.333 41.333 -71.333 62 -138 62c-66 0 -99 -33.333 -99 -100v-150h-151v151c0 166 82.333 249 247 249h3c99.333 0 174.666 -41.667 225.999 -125l37 -62c24.667 -42 70.667 -63 138 -63
c66 0 99 33.333 99 100v150h150v-150c0 -166 -83.333 -249.333 -250 -250z" />
    <glyph glyph-name="uni1780" unicode="&#x1780;" horiz-adv-x="1200" 
d="M200 -50l0.000976562 849.999c0 66.667 58.333 133.334 175 200.001s191.667 100 225 100s86.333 -21 159 -63c160.667 -91.333 241 -170.333 241 -237v-650l-200 -200v800c0 22.667 -46 60.667 -138 114c-92.667 52.667 -151.334 79 -176.001 79s-45 -5 -61 -15
c-16.667 -9.33301 -25 -52 -25 -128v-650zM294.001 999.999c-20 35.333 -46.335 61.334 -79.002 78.001c-32 16.667 -70.333 24 -115 22l200 400h310c26.667 0 40 -33.333 40 -100c43.333 66.667 80 100 110 100h290c0 -81.333 -8.66699 -150.333 -26 -207
c-18 -57.333 -54.667 -104.666 -110 -141.999c14 53.333 22.667 91.666 26 114.999c2.66699 23.333 -10.666 34.666 -39.999 33.999h-180c-39.333 0 -82.666 -40 -129.999 -120c20 80 10 120 -30 120h-262l-24 -50c44 -18 84 -43 120 -75c36 -31.333 38.667 -66 8 -104
c-30.667 -37.333 -66.667 -61 -108 -71z" />
    <glyph glyph-name="uni1781" unicode="&#x1781;" horiz-adv-x="1200" 
d="M400 1005c45.333 25.333 68 44.333 68 57c0 18.667 -11.333 28 -34 28h-34v-85zM200 880l0.000976562 319.998c0 66.667 58.333 133.334 175 200.001s191.667 100 225 100s86.333 -21 159 -63c160.667 -91.333 241 -170.333 241 -237v-200c0 -60 -100 -156.667 -300 -290
l-300 -200v-210c0 -76 8.33301 -118.667 25 -128c16 -10 36.333 -15 61 -15s83.334 26.333 176.001 79c92 53.333 138 91.333 138 114v200l200 200v-450c0 -66.667 -80.333 -145.667 -241 -237c-72.667 -42 -125.667 -63 -159 -63s-108.333 33.333 -225 100
s-175 133.334 -175 200.001v330c133.333 0 266.666 46.667 399.999 140s200 170 200 230v150c0 22.667 -46 60.667 -138 114c-92.667 52.667 -151.334 79 -176.001 79s-45 -5 -61 -15c-16.667 -9.33301 -25 -52 -25 -128h40c106.667 0 160 -35 160 -105
s-50 -136.667 -150 -200s-168.333 -95 -205 -95c-30 0 -45 26.667 -45 80z" />
    <glyph glyph-name="uni1782" unicode="&#x1782;" horiz-adv-x="1200" 
d="M294 1000c-20 35.333 -46.335 61.334 -79.002 78.001c-32 16.667 -70.333 24 -115 22l200 400h310c26.667 0 40 -33.333 40 -100c43.333 66.667 80 100 110 100h290c0 -81.333 -8.66699 -150.333 -26 -207c-18 -57.333 -54.667 -104.666 -110 -141.999
c14 53.333 22.667 91.666 26 114.999c2.66699 23.333 -10.666 34.666 -39.999 33.999h-180c-39.333 0 -82.666 -40 -129.999 -120c20 80 10 120 -30 120h-262l-24 -50c44 -18 84 -43 120 -75c36 -31.333 38.667 -66 8 -104c-30.667 -37.333 -66.667 -61 -108 -71z
M224.998 0.000976562c-16.667 0 -24.9971 13.332 -24.9971 39.999v760c0 66.667 58.333 133.334 175 200.001s191.667 100 225 100s86.333 -21 159 -63c160.667 -91.333 241 -170.333 241 -237v-650l-200 -200v800c0 22.667 -46 60.667 -138 114
c-92.667 52.667 -151.334 79 -176.001 79s-45 -5 -61 -15c-16.667 -9.33301 -25 -52 -25 -128v-451c43.333 100.667 97.333 151 162 151c28.667 0 59 -11.667 91 -35c31.333 -24 47 -57.333 47 -100c0 -43.333 -33.333 -80 -100 -110c-12 30 -37 45 -75 45
c-18.667 0 -38.334 -12.333 -59.001 -37l-185 -225c-20.667 -25.333 -39.334 -38 -56.001 -38z" />
    <glyph glyph-name="uni1783" unicode="&#x1783;" horiz-adv-x="1800" 
d="M400 410c0 -26.667 -6.66699 -46.9971 -20 -60.9971c0 -22 48 -59.333 144 -112c100 -53.333 162.667 -80 188 -80s46 5 62 15c17.333 9.33301 26 52 26 128v560c0 40 -47.333 66.667 -142 80c-32 4 -48 19.333 -48 46s8.33301 60 25 100l165 414h300
c0 -81.333 -8.66699 -150.333 -26 -207c-18 -57.333 -48 -98.333 -90 -123c10.667 40.667 16 72.667 16 96c0 22.667 -16.667 34 -50 34h-133l-69 -173c84 -15.333 147 -40 189 -74c42 -33.333 63 -76.333 63 -129v-606c22.667 -21.333 64 -48.333 124 -81
c100 -53.333 162.667 -80 188 -80s46 5 62 15c17.333 9.33301 26 52 26 128v560c0 40 -47.333 66.667 -142 80c-32 4 -48 19.333 -48 46s8.33301 60 25 100l165 414h300c0 -81.333 -8.66699 -150.333 -26 -207c-18 -57.333 -48 -98.333 -90 -123
c10.667 40.667 16 72.667 16 96c0 22.667 -16.667 34 -50 34h-133l-69 -173c84 -15.333 147 -40 189 -74c42 -33.333 63 -76.333 63 -129v-624c0 -66.667 -59.667 -133.334 -179 -200.001c-120 -66.667 -197 -100 -231 -100s-88.333 21 -163 63
c-52 29.333 -96 57.333 -132 84c-21.333 -16 -46 -31.667 -74 -47c-120 -66.667 -197 -100 -231 -100s-88.333 21 -163 63c-82 46 -143.667 88.667 -185 128s-72.666 90.666 -93.999 153.999c21.333 9.33301 35.333 20.833 42 34.5s10 30.5 10 50.5v640
c97.333 9.33301 161.666 33 192.999 71c31.333 37.333 47 75 47 113c0 28.667 -9.16699 50.167 -27.5 64.5s-39.166 21.5 -62.499 21.5c-33.333 0 -50 -15 -50 -45s20 -46.333 60 -49c0.666992 -54.667 -42.333 -81 -129 -79c-87.333 2 -131 46.333 -131 133
c0 66.667 20 116.667 60 150s86.667 50 140 50c80 0 141.667 -23.333 185 -70s65 -103.334 65 -170.001c0 -73.333 -13.333 -140 -40 -200s-63.334 -113.333 -110.001 -160v-490z" />
    <glyph glyph-name="uni1784" unicode="&#x1784;" horiz-adv-x="1200" 
d="M729 1300c42 1.33301 67.001 5.66797 75.001 13.001c9.33301 8 6.66602 21.667 -8.00098 41c-44 57.333 -77.667 66 -101 26c-14 -16.667 -2.66699 -43.334 34 -80.001zM200.001 638.002v73l-40 -42zM872.001 1188c85.333 -68.667 128.001 -131.332 128.001 -187.999
v-850l-75 -75c-50 -50 -83.333 -75 -100 -75s-47.667 27.333 -93 82l-206 245l-241 -286c-23.333 -27.333 -43.333 -41 -60 -41s-25 13.333 -25 40v470l-127 98c-28.667 21.333 -43 48.666 -43 81.999c0 66.667 16 117.667 48 153l95 105c31.333 34.667 67 52 107 52
c39.333 0 79.333 -20 120 -60v-631l200 239l200 -239v691c0 50 -19.667 100.667 -59 152c-13.333 -1.33301 -27 -2 -41 -2h-200c-106.667 0 -173.334 -16.667 -200.001 -50c-66.667 20 -100 53.333 -100 100v470c0 26.667 -8 40 -24 40s-41.333 -10 -76 -30
c66.667 146.667 126.667 220 180 220c80 0 120 -76.667 120 -230v-370h216c-10.667 18.667 -16 35 -16 49c0 47.333 16.667 87.666 50 120.999s83.333 50 150 50s116.667 -20 150 -60c32.667 -40 49 -80.667 49 -122c0.666992 -42 -28 -83.667 -86 -125
c-13.333 -9.33301 -27 -17.666 -41 -24.999z" />
    <glyph glyph-name="uni1785" unicode="&#x1785;" horiz-adv-x="1200" 
d="M800 892c-46.667 -46 -70 -81 -70 -105s13.333 -36 40 -36h30v141zM217 1300l-49.0039 -132.996c70.667 -15.333 127 -39.666 169 -72.999c42 -34 63 -77.333 63 -130v-554c0 -26.667 -6.66699 -47 -20 -61c0 -22 48 -59.333 144 -112c100 -53.333 162.667 -80 188 -80
s46 5 62 15c17.333 9.33301 26 52 26 128v300h-30c-63.333 0 -107.5 13.167 -132.5 39.5s-37.5 63.166 -37.5 110.499c0 67.333 43.667 144.666 131 231.999c78.667 78.667 133.334 118 164.001 118c70 0 105 -33.333 105 -100v-700
c0 -66.667 -59.667 -133.334 -179 -200.001c-120 -66.667 -197 -100 -231 -100s-88.333 21 -163 63c-82 46 -143.667 88.667 -185 128s-72.666 90.666 -93.999 153.999c21.333 9.33301 35.333 20.833 42 34.5s10 30.5 10 50.5v470c0 40 -40.667 66.667 -122 80
c-32 4 -48 19.333 -48 46s8.33301 60 25 100l145 374h369c26.667 0 40 -33.333 40 -100c43.333 66.667 80 100 110 100h320c0 -81.333 -8.66699 -150.333 -26 -207c-18 -57.333 -54.667 -104.666 -110 -141.999c14 53.333 22.667 91.666 26 114.999
c2.66699 23.333 -10.666 34.666 -39.999 33.999h-210c-39.333 0 -82.666 -40 -129.999 -120c20 80 10 120 -30 120h-302z" />
    <glyph glyph-name="uni1786" unicode="&#x1786;" horiz-adv-x="1200" 
d="M800 892c-46.667 -46 -70 -81 -70 -105s13.333 -36 40 -36h30v141zM203 484l-53 -43l53 -62v105zM200 900c0 40 -40.6699 66.667 -122.003 80c-32 4 -48 19.333 -48 46s8.33301 60 25 100l145 374h369c26.667 0 40 -33.333 40 -100c43.333 66.667 80 100 110 100h320
c0 -81.333 -8.66699 -150.333 -26 -207c-18 -57.333 -54.667 -104.666 -110 -141.999c14 53.333 22.667 91.666 26 114.999c2.66699 23.333 -10.666 34.666 -39.999 33.999h-210c-39.333 0 -82.666 -40 -129.999 -120c20 80 10 120 -30 120h-302l-49 -133
c70.667 -15.333 127 -39.666 169 -72.999c42 -34 63 -77.333 63 -130v-364c92 0 160.667 -20.667 206 -62c46 -42 69 -104.667 69 -188c0 -100 23.333 -150 70 -150c36.667 0 55 33.333 55 100v300h-30c-31.333 0 -58.333 3.33301 -81 10c-22 6.66699 -39 16.667 -51 30
c-25.333 26 -38 62.667 -38 110c0 67.333 43.667 144.666 131 231.999c78.667 78.667 133.334 118 164.001 118c70 0 105 -33.333 105 -100v-700c0 -100 -21.333 -175 -64 -225c-42 -50 -105.667 -75 -191 -75c-71.333 0 -125 29.333 -161 88c-36 58 -54 145.333 -54 262
c0 50 -10.667 87.667 -32 113c-22 24.667 -54.667 37 -98 37v-350l-112 -112c-25.333 -25.333 -46.333 -38 -63 -38s-25 11.667 -25 35c0 54.667 -31.667 112.667 -95 174c-63.333 60.667 -95 124.334 -95 191.001c0 33.333 16.667 61 50 83l140 97v320z" />
    <glyph glyph-name="uni1787" unicode="&#x1787;" horiz-adv-x="1200" 
d="M956 1279c-56.667 -67.333 -108.335 -93.668 -155.002 -79.001c8.66699 20.667 14.667 42.667 18 66c2.66699 23.333 -10.666 34.666 -39.999 33.999h-562l-49 -133c70.667 -15.333 127 -39.666 169 -72.999c42 -34 63 -77.333 63 -130v-655l200 239l200 -239v591
l200 200v-950l-75 -75c-50 -50 -83.333 -75 -100 -75s-47.667 27.333 -93 82l-206 245l-241 -286c-23.333 -27.333 -43.333 -41 -60 -41s-25 13.333 -25 40v860c0 40 -40.667 66.667 -122 80c-32 4 -48 19.333 -48 46s8.33301 60 25 100l145 374h620c30 0 52.667 -10 68 -30
c14.667 -20.667 22 -51.334 22 -92.001c20.667 14.667 34.167 31.834 40.5 51.501s4.5 37.167 -5.5 52.5c-16 26 -47 64 -93 114c-74.667 81.333 -112 149.666 -112 204.999c0 39.333 18.667 77 56 113s100 64.667 188 86c-52.667 -52 -79 -99.333 -79 -142
c0.666992 -29.333 23.334 -68.666 68.001 -117.999s67 -105 67 -167c0 -25.333 -1.66699 -49 -5 -71c-10 -97.333 -36.333 -171.666 -79 -222.999z" />
    <glyph glyph-name="uni1788" unicode="&#x1788;" horiz-adv-x="2400" 
d="M400 309c60 59.333 90 109.333 90 150c0 27.333 -13.333 41 -40 41h-50v-191zM1495 147c-21.333 -16 -46.001 -31.666 -74.001 -46.999c-120 -66.667 -197 -100 -231 -100s-88.333 21 -163 63c-82 46 -143.667 88.667 -185 128s-72.666 90.666 -93.999 153.999
c21.333 9.33301 35.333 20.833 42 34.5s10 30.5 10 50.5v870h-583l-49 -133c70.667 -15.333 127 -39.666 169 -72.999c42 -34 63 -77.333 63 -130v-314h50c100 0 150 -50 150 -150s-43.667 -193.667 -131 -281l-175 -175c-29.333 -29.333 -52.333 -44 -69 -44
s-25 13.333 -25 40v860c0 40 -40.667 66.667 -122 80c-32 4 -48 19.333 -48 46s8.33301 60 25 100l145 374h800v-1090c0 -26.667 -6.66699 -47 -20 -61c0 -22 48 -59.333 144 -112c100 -53.333 162.667 -80 188 -80s46 5 62 15c17.333 9.33301 26 52 26 128v560
c0 40 -47.333 66.667 -142 80c-32 4 -48 19.333 -48 46s8.33301 60 25 100l165 414h300c0 -81.333 -8.66699 -150.333 -26 -207c-18 -57.333 -48 -98.333 -90 -123c10.667 40.667 16 72.667 16 96c0 22.667 -16.667 34 -50 34h-133l-69 -173c84 -15.333 147 -40 189 -74
c42 -33.333 63 -76.333 63 -129v-606c22.667 -21.333 64 -48.333 124 -81c100 -53.333 162.667 -80 188 -80s46 5 62 15c17.333 9.33301 26 52 26 128v560c0 40 -47.333 66.667 -142 80c-32 4 -48 19.333 -48 46s8.33301 60 25 100l165 414h300
c0 -81.333 -8.66699 -150.333 -26 -207c-18 -57.333 -48 -98.333 -90 -123c10.667 40.667 16 72.667 16 96c0 22.667 -16.667 34 -50 34h-133l-69 -173c84 -15.333 147 -40 189 -74c42 -33.333 63 -76.333 63 -129v-624c0 -66.667 -59.667 -133.334 -179 -200.001
c-120 -66.667 -197 -100 -231 -100s-88.333 21 -163 63c-52 29.333 -96 57.333 -132 84z" />
    <glyph glyph-name="uni1789" unicode="&#x1789;" horiz-adv-x="1800" 
d="M400 309c60 59.333 90 109.333 90 150c0 27.333 -13.333 41 -40 41h-50v-191zM1400 -50l-0.000976562 1350h-120c-108.667 0 -202 -50.333 -280 -151v-999l-200 -200v1350h-100c-59.333 0 -128.666 -54 -207.999 -162l7 41c14 80.667 1 121 -39 121h-243l-49 -133
c70.667 -15.333 127 -39.666 169 -72.999c42 -34 63 -77.333 63 -130v-314h50c100 0 150 -50 150 -150s-43.667 -193.667 -131 -281l-175 -175c-29.333 -29.333 -52.333 -44 -69 -44s-25 13.333 -25 40v860c0 40 -40.667 66.667 -122 80c-32 4 -48 19.333 -48 46
s8.33301 60 25 100l145 374h300c46.667 0 70 -43.333 70 -130c50 86.667 103.333 130 160 130h270v-200c96.667 133.333 200 200 310 200h290v-1350zM190.999 -469.001c-26.667 32 -4.66406 90 66.0029 174c70.667 83.333 165 125 283 125s264 -50 438 -150
s296.333 -150 367 -150c70 0 105 15 105 45s-13.333 58.333 -40 85c-27.333 26 -74 39.333 -140 40l150 150c120 -40 180 -100 180 -180s-21 -140 -63 -180c-42.667 -40 -106.334 -60 -191.001 -60c-222.667 0 -406.334 41 -551.001 123c-186 104.667 -300 157 -342 157
c-68.667 0 -129.334 -29.667 -182.001 -89z" />
    <glyph glyph-name="uni178A" unicode="&#x178a;" horiz-adv-x="1200" 
d="M400 900v-591l200 239l200 -239v591l200 200v-950l-75 -75c-50 -50 -83.333 -75 -100 -75s-47.667 27.333 -93 82l-206 245l-241 -286c-23.333 -27.333 -43.333 -41 -60 -41s-25 13.333 -25 40v860h200zM364 1035c-156 42 -234 90.666 -234 145.999
c0 26.667 31.333 89.334 94 188.001c41.333 55.333 87.333 93.333 138 114c50.667 20 105.667 22.667 165 8c60 -15.333 97.667 -37 113 -65c15.333 -27.333 8.66602 -61 -20.001 -101c-44.667 -62 -119.667 -80 -225 -54c14.667 27.333 5 45.333 -29 54
c-34.667 8 -60.334 0.333008 -77.001 -23c-17.333 -24 43 -53.667 181 -89c137.333 -36 240 -26.667 308 28c68.667 54 79.334 125 32.001 213c-46.667 88 -70 175.333 -70 262c0 44.667 16.333 87 49 127c32 40 86 72 162 96c-45.333 -58.667 -68 -111.667 -68 -159
c0.666992 -25.333 20.334 -72.333 59.001 -141s58 -137.667 58 -207c0 -98 -67 -199.333 -201 -304s-279 -135.667 -435 -93z" />
    <glyph glyph-name="uni178B" unicode="&#x178b;" horiz-adv-x="1200" 
d="M1076 1279c-56.667 -67.333 -108.335 -93.6641 -155.002 -78.9971c8.66699 20.667 14.667 42.667 18 66c2.66699 23.333 -10.666 34.666 -39.999 33.999h-82l-69 -173c84 -15.333 147 -40 189 -74c42 -33.333 63 -76.333 63 -129v-624
c0 -66.667 -59.667 -133.334 -179 -200.001c-120 -66.667 -197 -100 -231 -100s-88.333 21 -163 63c-82 46 -143.667 88.667 -185 128s-72.666 90.666 -93.999 153.999c21.333 9.33301 35.333 20.833 42 34.5s10 30.5 10 50.5v640c97.333 9.33301 161.666 33 192.999 71
c31.333 37.333 47 75 47 113c0 28.667 -9.16699 50.167 -27.5 64.5s-39.166 21.5 -62.499 21.5c-33.333 0 -50 -15 -50 -45s20 -46.333 60 -49c0.666992 -54.667 -42.333 -81 -129 -79c-87.333 2 -131 46.333 -131 133c0 66.667 20 116.667 60 150s86.667 50 140 50
c80 0 141.667 -23.333 185 -70s65 -103.334 65 -170.001c0 -73.333 -13.333 -140 -40 -200s-63.334 -113.333 -110.001 -160v-490c0 -26.667 -6.66699 -47 -20 -61c0 -22 48 -59.333 144 -112c100 -53.333 162.667 -80 188 -80s46 5 62 15c17.333 9.33301 26 52 26 128v560
c0 40 -47.333 66.667 -142 80c-32 4 -48 19.333 -48 46s8.33301 60 25 100l165 414h140c30 0 52.667 -10 68 -30c14.667 -20.667 22 -51.334 22 -92.001c20.667 14.667 34.167 31.834 40.5 51.501s4.5 37.167 -5.5 52.5c-16 26 -47 64 -93 114
c-74.667 81.333 -112 149.666 -112 204.999c0 39.333 18.667 77 56 113s100 64.667 188 86c-52.667 -52 -79 -99.333 -79 -142c0.666992 -29.333 23.334 -68.666 68.001 -117.999s67 -105 67 -167c0 -25.333 -1.66699 -49 -5 -71c-10 -97.333 -36.333 -171.666 -79 -222.999
z" />
    <glyph glyph-name="uni178C" unicode="&#x178c;" horiz-adv-x="1200" 
d="M801 88l-41.999 -25.0029c-72.667 -42 -125.667 -63 -159 -63s-108.333 33.333 -225 100s-175 133.334 -175 200.001v330c133.333 0 266.666 46.667 399.999 140s200 170 200 230v300h-60c-59.333 0 -128.666 -54 -207.999 -162l7 41c14 80.667 1 121 -39 121h-182
c-22.667 -53.333 -23.834 -93.666 -3.50098 -120.999s91.5 -61 213.5 -101c-27.333 -72 -70.666 -128.333 -129.999 -169c-74.667 16 -126.334 34.333 -155.001 55s-43 78.667 -43 174c0 94.667 16.667 178.667 50 252l50 110h240c46.667 0 70 -43.333 70 -130
c50 86.667 103.333 130 160 130h230v-500c0 -60 -100 -156.667 -300 -290l-300 -200v-190c140.667 -157.333 242.667 -215.666 306 -174.999l94 57v348l200 200v-650l-199 -200v188z" />
    <glyph glyph-name="uni178D" unicode="&#x178d;" horiz-adv-x="1800" 
d="M803 484l-53 -43l53 -62v105zM400 329c51.333 59.333 77 106 77 140c0 20.667 -12.333 31 -37 31h-40v-171zM1400 860c0 40 -47.333 66.665 -142 79.998c-32 4 -48 19.333 -48 46s8.33301 60 25 100l165 414h300c0 -81.333 -8.66699 -150.333 -26 -207
c-18 -57.333 -48 -98.333 -90 -123c10.667 40.667 16 72.667 16 96c0 22.667 -16.667 34 -50 34h-133l-69 -173c84 -15.333 147 -40 189 -74c42 -33.333 63 -76.333 63 -129v-624c0 -100 -21.333 -175 -64 -225c-42 -50 -105.667 -75 -191 -75
c-71.333 0 -125 29.333 -161 88c-36 58 -54 145.333 -54 262c0 50 -10.667 87.667 -32 113c-22 24.667 -54.667 37 -98 37v-350l-112 -112c-25.333 -25.333 -46.333 -38 -63 -38s-25 11.667 -25 35c0 54.667 -31.667 112.667 -95 174
c-63.333 60.667 -95 124.334 -95 191.001c0 33.333 16.667 61 50 83l140 97v720h-100c-59.333 0 -128.666 -54 -207.999 -162l7 41c14 80.667 1 121 -39 121h-243l-49 -133c70.667 -15.333 127 -39.666 169 -72.999c42 -34 63 -77.333 63 -130v-314h40
c50 0 87.667 -10.667 113 -32c24.667 -22 37 -54.667 37 -98c0 -80 -42.333 -170 -127 -270l-170 -200c-28.667 -33.333 -51.334 -50 -68.001 -50s-25 13.333 -25 40v860c0 40 -40.667 66.667 -122 80c-32 4 -48 19.333 -48 46s8.33301 60 25 100l145 374h300
c46.667 0 70 -43.333 70 -130c50 86.667 103.333 130 160 130h270v-900c92 0 160.667 -20.667 206 -62c46 -42 69 -104.667 69 -188c0 -100 23.333 -150 70 -150c36.667 0 55 33.333 55 100v560z" />
    <glyph glyph-name="uni178E" unicode="&#x178e;" horiz-adv-x="2400" 
d="M400 309c60 59.333 90 109.333 90 150c0 27.333 -13.333 41 -40 41h-50v-191zM800 1300l-583 -0.00195312l-49 -133c70.667 -15.333 127 -39.666 169 -72.999c42 -34 63 -77.333 63 -130v-314h50c100 0 150 -50 150 -150s-43.667 -193.667 -131 -281l-175 -175
c-29.333 -29.333 -52.333 -44 -69 -44s-25 13.333 -25 40v860c0 40 -40.667 66.667 -122 80c-32 4 -48 19.333 -48 46s8.33301 60 25 100l145 374h800v-1191l200 239l200 -239v591c0 40 -40.667 66.667 -122 80c-32 4 -48 19.333 -48 46s8.33301 60 25 100l145 374h800
v-1350l-200 -200v1350h-583l-49 -133c70.667 -15.333 127 -39.666 169 -72.999c42 -34 63 -77.333 63 -130v-814l-75 -75c-50 -50 -83.333 -75 -100 -75s-47.667 27.333 -93 82l-206 245l-241 -286c-23.333 -27.333 -43.333 -41 -60 -41s-25 13.333 -25 40v1260z" />
    <glyph glyph-name="uni178F" unicode="&#x178f;" horiz-adv-x="1200" 
d="M200 40l0.000976562 759.998c0 66.667 58.333 133.334 175 200.001s191.667 100 225 100s86.333 -21 159 -63c160.667 -91.333 241 -170.333 241 -237v-650l-200 -200v800c0 22.667 -46 60.667 -138 114c-92.667 52.667 -151.334 79 -176.001 79s-45 -5 -61 -15
c-16.667 -9.33301 -25 -52 -25 -128v-250h50c50 0 87.667 -8.33301 113 -25c24.667 -16 37 -40.667 37 -74c0 -67.333 -43.667 -144.666 -131 -231.999l-175 -175c-29.333 -29.333 -52.333 -44 -69 -44s-25 13.333 -25 40zM294.001 999.998
c-20 35.333 -46.335 61.334 -79.002 78.001c-32 16.667 -70.333 24 -115 22l200 400h310c26.667 0 40 -33.333 40 -100c43.333 66.667 80 100 110 100h290c0 -81.333 -8.66699 -150.333 -26 -207c-18 -57.333 -54.667 -104.666 -110 -141.999
c14 53.333 22.667 91.666 26 114.999c2.66699 23.333 -10.666 34.666 -39.999 33.999h-180c-39.333 0 -82.666 -40 -129.999 -120c20 80 10 120 -30 120h-262l-24 -50c44 -18 84 -43 120 -75c36 -31.333 38.667 -66 8 -104c-30.667 -37.333 -66.667 -61 -108 -71z
M399.999 308.999c60 59.333 90 97.667 90 115s-13.333 26 -40 26h-50v-141z" />
    <glyph glyph-name="uni1790" unicode="&#x1790;" horiz-adv-x="1200" 
d="M800 892c-46.667 -46 -70 -81 -70 -105s13.333 -36 40 -36h30v141zM956 1279c-56.667 -67.333 -108.337 -93.6641 -155.004 -78.9971c8.66699 20.667 14.667 42.667 18 66c2.66699 23.333 -10.666 34.666 -39.999 33.999h-562l-49 -133
c70.667 -15.333 127 -39.666 169 -72.999c42 -34 63 -77.333 63 -130v-554c0 -26.667 -6.66699 -47 -20 -61c0 -22 48 -59.333 144 -112c100 -53.333 162.667 -80 188 -80s46 5 62 15c17.333 9.33301 26 52 26 128v300h-30c-63.333 0 -107.5 13.167 -132.5 39.5
s-37.5 63.166 -37.5 110.499c0 67.333 43.667 144.666 131 231.999c78.667 78.667 133.334 118 164.001 118c70 0 105 -33.333 105 -100v-700c0 -66.667 -59.667 -133.334 -179 -200.001c-120 -66.667 -197 -100 -231 -100s-88.333 21 -163 63
c-82 46 -143.667 88.667 -185 128s-72.666 90.666 -93.999 153.999c21.333 9.33301 35.333 20.833 42 34.5s10 30.5 10 50.5v470c0 40 -40.667 66.667 -122 80c-32 4 -48 19.333 -48 46s8.33301 60 25 100l145 374h620c30 0 52.667 -10 68 -30
c14.667 -20.667 22 -51.334 22 -92.001c20.667 14.667 34.167 31.834 40.5 51.501s4.5 37.167 -5.5 52.5c-16 26 -47 64 -93 114c-74.667 81.333 -112 149.666 -112 204.999c0 39.333 18.667 77 56 113s100 64.667 188 86c-52.667 -52 -79 -99.333 -79 -142
c0.666992 -29.333 23.334 -68.666 68.001 -117.999s67 -105 67 -167c0 -25.333 -1.66699 -49 -5 -71c-10 -97.333 -36.333 -171.666 -79 -222.999z" />
    <glyph glyph-name="uni1791" unicode="&#x1791;" horiz-adv-x="1200" 
d="M179 930l-49 45.999c0 82.667 14.333 157.334 43 224.001l127 300h730c0 -81.333 -11 -153.333 -33 -216l-50 -142c-33.333 -94.667 -90.333 -142 -171 -142s-190.334 42 -329.001 126l172 129c62 -36.667 121 -55 177 -55s91.333 16.667 106 50s4 50 -32 50h-553
l-66 -163l87 -83c57.333 -56 141 -98.667 251 -128l274 -75c67.333 -18 123 4.33301 167 67c0 -102 -25.667 -174 -77 -216c-52 -42.667 -101 -57.667 -147 -45l-68 20l-207 57c-137.333 38.667 -254.666 104 -351.999 196zM400 679.999l-0.00292969 -329.999
c0 -22.667 46 -60.667 138 -114c92.667 -52.667 151.334 -79 176.001 -79s45 5 61 15c16.667 9.33301 25 52 25 128v314c47.333 -4 88.333 3.16699 123 21.5s60.334 43.5 77.001 75.5v-411c0 -66.667 -58.333 -133.334 -175 -200.001s-191.667 -100 -225 -100
s-86.333 21 -159 63c-160.667 91.333 -241 170.333 -241 237v280l113 113c24.667 24.667 45.334 37 62.001 37s25 -16.667 25 -50z" />
    <glyph glyph-name="uni1792" unicode="&#x1792;" horiz-adv-x="1200" 
d="M800 892c-46.667 -46 -70 -81 -70 -105s13.333 -36 40 -36h30v141zM800 600l-30.0029 0.00195312c-63.333 0 -107.5 13.167 -132.5 39.5s-37.5 63.166 -37.5 110.499c0 67.333 43.667 144.666 131 231.999c78.667 78.667 133.334 118 164.001 118
c70 0 105 -33.333 105 -100v-850l-75 -75c-50 -50 -83.333 -75 -100 -75s-47.667 27.333 -93 82l-206 245l-241 -286c-23.333 -27.333 -43.333 -41 -60 -41s-25 13.333 -25 40v860c0 40 -40.667 66.667 -122 80c-32 4 -48 19.333 -48 46s8.33301 60 25 100l145 374h369
c26.667 0 40 -33.333 40 -100c43.333 66.667 80 100 110 100h320c0 -81.333 -8.66699 -150.333 -26 -207c-18 -57.333 -54.667 -104.666 -110 -141.999c14 53.333 22.667 91.666 26 114.999c2.66699 23.333 -10.666 34.666 -39.999 33.999h-210
c-39.333 0 -82.666 -40 -129.999 -120c20 80 10 120 -30 120h-302l-49 -133c70.667 -15.333 127 -39.666 169 -72.999c42 -34 63 -77.333 63 -130v-655l200 239l200 -239v291z" />
    <glyph glyph-name="uni1793" unicode="&#x1793;" horiz-adv-x="1200" 
d="M179 930l-49 45.999c0 82.667 14.333 157.334 43 224.001l127 300h730c0 -81.333 -11 -153.333 -33 -216l-50 -142c-33.333 -94.667 -90.333 -142 -171 -142s-190.334 42 -329.001 126l172 129c62 -36.667 121 -55 177 -55s91.333 16.667 106 50s4 50 -32 50h-553
l-66 -163l87 -83c57.333 -56 141 -98.667 251 -128l274 -75c67.333 -18 123 4.33301 167 67c0 -102 -25.667 -174 -77 -216c-52 -42.667 -101 -57.667 -147 -45l-68 20l-207 57c-137.333 38.667 -254.666 104 -351.999 196zM200 579.999l112.998 113
c24.667 24.667 45.334 37 62.001 37s25 -16.667 25 -50v-371l200 239l200 -239v305c47.333 -4 88.333 3.16699 123 21.5s60.334 43.5 77.001 75.5v-561l-75 -75c-50 -50 -83.333 -75 -100 -75s-47.667 27.333 -93 82l-206 245l-241 -286
c-23.333 -27.333 -43.333 -41 -60 -41s-25 13.333 -25 40v540z" />
    <glyph glyph-name="uni1794" unicode="&#x1794;" horiz-adv-x="1200" 
d="M1000 300c0 -66.667 -59.668 -133.332 -179.001 -199.999c-120 -66.667 -197 -100 -231 -100s-88.333 21 -163 63c-82 46 -143.667 88.667 -185 128s-72.666 90.666 -93.999 153.999c21.333 9.33301 35.333 20.833 42 34.5s10 30.5 10 50.5v430
c0 40 -47.333 66.667 -142 80c-32 4 -48 19.333 -48 46s8.33301 60 25 100l165 414h300c0 -81.333 -8.66699 -150.333 -26 -207c-18 -57.333 -48 -98.333 -90 -123c10.667 40.667 16 72.667 16 96c0 22.667 -16.667 34 -50 34h-133l-69 -173c84 -15.333 147 -40 189 -74
c42 -33.333 63 -76.333 63 -129v-514c0 -26.667 -6.66699 -47 -20 -61c0 -22 48 -59.333 144 -112c100 -53.333 162.667 -80 188 -80s46 5 62 15c17.333 9.33301 26 52 26 128v560c0 40 -47.333 66.667 -142 80c-32 4 -48 19.333 -48 46s8.33301 60 25 100l165 414h300
c0 -81.333 -8.66699 -150.333 -26 -207c-18 -57.333 -48 -98.333 -90 -123c10.667 40.667 16 72.667 16 96c0 22.667 -16.667 34 -50 34h-133l-69 -173c84 -15.333 147 -40 189 -74c42 -33.333 63 -76.333 63 -129v-624z" />
    <glyph glyph-name="uni1795" unicode="&#x1795;" horiz-adv-x="1200" 
d="M800 892c-46.667 -46 -70 -81 -70 -105s13.333 -36 40 -36h30v141zM956 1279c-56.667 -67.333 -108.336 -93.666 -155.003 -78.999c8.66699 20.667 14.667 42.667 18 66c2.66699 23.333 -10.666 34.666 -39.999 33.999h-562l-49 -133
c70.667 -15.333 127 -39.666 169 -72.999c42 -34 63 -77.333 63 -130v-655l200 239l200 -239v291h-30c-63.333 0 -107.5 13.167 -132.5 39.5s-37.5 63.166 -37.5 110.499c0 67.333 43.667 144.666 131 231.999c78.667 78.667 133.334 118 164.001 118
c70 0 105 -33.333 105 -100v-850l-75 -75c-50 -50 -83.333 -75 -100 -75s-47.667 27.333 -93 82l-206 245l-241 -286c-23.333 -27.333 -43.333 -41 -60 -41s-25 13.333 -25 40v860c0 40 -40.667 66.667 -122 80c-32 4 -48 19.333 -48 46s8.33301 60 25 100l145 374h620
c30 0 52.667 -10 68 -30c14.667 -20.667 22 -51.334 22 -92.001c20.667 14.667 34.167 31.834 40.5 51.501s4.5 37.167 -5.5 52.5c-16 26 -47 64 -93 114c-74.667 81.333 -112 149.666 -112 204.999c0 39.333 18.667 77 56 113s100 64.667 188 86
c-52.667 -52 -79 -99.333 -79 -142c0.666992 -29.333 23.334 -68.666 68.001 -117.999s67 -105 67 -167c0 -25.333 -1.66699 -49 -5 -71c-10 -97.333 -36.333 -171.666 -79 -222.999z" />
    <glyph glyph-name="uni1796" unicode="&#x1796;" horiz-adv-x="1200" 
d="M400 309c60 59.333 90 109.333 90 150c0 27.333 -13.333 41 -40 41h-50v-191zM217 1300l-49.001 -133.001c70.667 -15.333 127 -39.666 169 -72.999c42 -34 63 -77.333 63 -130v-314h50c100 0 150 -50 150 -150s-43.667 -193.667 -131 -281l-175 -175
c-29.333 -29.333 -52.333 -44 -69 -44s-25 13.333 -25 40v860c0 40 -40.667 66.667 -122 80c-32 4 -48 19.333 -48 46s8.33301 60 25 100l145 374h300c46.667 0 70 -43.333 70 -130c50 86.667 103.333 130 160 130h270v-1350l-200 -200v1350h-100
c-59.333 0 -128.666 -54 -207.999 -162l7 41c14 80.667 1 121 -39 121h-243z" />
    <glyph glyph-name="uni1797" unicode="&#x1797;" horiz-adv-x="1200" 
d="M302 58c-68 38.667 -101.999 105.329 -101.999 199.996s33.333 155.334 100 182.001c0 -101.333 33.333 -171 100 -209c58 -32.667 97.667 -41 119 -25c20.667 16 31 40.667 31 74c0 50.667 -14.667 97.334 -44 140.001c-28.667 42.667 -72.334 80.667 -131.001 114
c-58 34 -101.667 77.333 -131 130s-44 114.667 -44 186c0 33.333 58.333 83.333 175 150s191.667 100 225 100s86.333 -21 159 -63c160.667 -91.333 241 -170.333 241 -237v-650l-200 -200v800c0 22.667 -46 60.667 -138 114c-92.667 52.667 -151.334 79 -176.001 79
s-45 -5 -61 -15c-16.667 -9.33301 -25 -35.333 -25 -78c0 -66.667 21 -112 63 -136c62 -35.333 108.667 -81.666 140 -138.999s47 -125.666 47 -204.999v-90c0 -73.333 -21.667 -138.333 -65 -195s-84.333 -85 -123 -85c-39.333 -0 -92.666 19.333 -159.999 58z
M294.001 999.995c-20 35.333 -46.335 61.334 -79.002 78.001c-32 16.667 -70.333 24 -115 22l200 400h310c26.667 0 40 -33.333 40 -100c43.333 66.667 80 100 110 100h290c0 -81.333 -8.66699 -150.333 -26 -207c-18 -57.333 -54.667 -104.666 -110 -141.999
c14 53.333 22.667 91.666 26 114.999c2.66699 23.333 -10.666 34.666 -39.999 33.999h-180c-39.333 0 -82.666 -40 -129.999 -120c20 80 10 120 -30 120h-262l-24 -50c44 -18 84 -43 120 -75c36 -31.333 38.667 -66 8 -104c-30.667 -37.333 -66.667 -61 -108 -71z" />
    <glyph glyph-name="uni1798" unicode="&#x1798;" horiz-adv-x="1200" 
d="M800 632l-0.00195312 228.002c0 40 -47.333 66.667 -142 80c-32 4 -48 19.333 -48 46s8.33301 60 25 100l165 414h300c0 -81.333 -8.66699 -150.333 -26 -207c-18 -57.333 -48 -98.333 -90 -123c10.667 40.667 16 72.667 16 96c0 22.667 -16.667 34 -50 34h-133l-69 -173
c84 -15.333 147 -40 189 -74c42 -33.333 63 -76.333 63 -129v-624c0 -66.667 -59.667 -133.334 -179 -200.001c-120 -66.667 -197 -100 -231 -100s-88.333 21 -163 63c-82 46 -143.667 88.667 -185 128s-72.666 90.666 -93.999 153.999
c21.333 9.33301 35.333 20.833 42 34.5s10 30.5 10 50.5v430c0 40 -47.333 66.667 -142 80c-32 4 -48 19.333 -48 46s8.33301 60 25 100l165 414h300c0 -81.333 -8.66699 -150.333 -26 -207c-18 -57.333 -48 -98.333 -90 -123c10.667 40.667 16 72.667 16 96
c0 22.667 -16.667 34 -50 34h-133l-69 -173c84 -15.333 147 -40 189 -74c42 -33.333 63 -76.333 63 -129v-251l102 127c36 -70 77.667 -115.667 125 -137c42.667 -18.667 100.334 -29 173.001 -31zM399.998 604.002v-194.001c0 -26.667 -6.66699 -47 -20 -61
c0 -22 48 -59.333 144 -112c100 -53.333 162.667 -80 188 -80s46 5 62 15c17.333 9.33301 26 52 26 128v312c-78 -51.333 -146 -75.666 -204 -72.999c-56 2 -121.333 23.667 -196 65z" />
    <glyph glyph-name="uni1799" unicode="&#x1799;" horiz-adv-x="1800" 
d="M895 147c-21.333 -16 -46 -31.666 -74 -46.999c-120 -66.667 -197 -100 -231 -100s-88.333 21 -163 63c-82 46 -143.667 88.667 -185 128s-72.666 90.666 -93.999 153.999c21.333 9.33301 35.333 20.833 42 34.5s10 30.5 10 50.5v470
c-60 13.333 -103.333 46.666 -130 99.999s-40 113.333 -40 180c0 80 21.667 153.333 65 220s111.666 100 204.999 100c66.667 0 116.667 -16.667 150 -50s50 -83.333 50 -150s-43.333 -112.667 -130 -138c-87.333 -25.333 -137.333 -10.666 -150 44.001
c53.333 42.667 80 75.667 80 99s-16.667 35 -50 35c-36.667 0 -64 -14 -82 -42c-18.667 -27.333 -28 -68.666 -28 -123.999c0 -31.333 19 -54 57 -68c38 -14.667 105.667 -16.667 203 -6v-690c0 -26.667 -6.66699 -47 -20 -61c0 -22 48 -59.333 144 -112
c100 -53.333 162.667 -80 188 -80s46 5 62 15c17.333 9.33301 26 52 26 128v560c0 40 -47.333 66.667 -142 80c-32 4 -48 19.333 -48 46s8.33301 60 25 100l165 414h300c0 -81.333 -8.66699 -150.333 -26 -207c-18 -57.333 -48 -98.333 -90 -123
c10.667 40.667 16 72.667 16 96c0 22.667 -16.667 34 -50 34h-133l-69 -173c84 -15.333 147 -40 189 -74c42 -33.333 63 -76.333 63 -129v-606c22.667 -21.333 64 -48.333 124 -81c100 -53.333 162.667 -80 188 -80s46 5 62 15c17.333 9.33301 26 52 26 128v560
c0 40 -47.333 66.667 -142 80c-32 4 -48 19.333 -48 46s8.33301 60 25 100l165 414h300c0 -81.333 -8.66699 -150.333 -26 -207c-18 -57.333 -48 -98.333 -90 -123c10.667 40.667 16 72.667 16 96c0 22.667 -16.667 34 -50 34h-133l-69 -173c84 -15.333 147 -40 189 -74
c42 -33.333 63 -76.333 63 -129v-624c0 -66.667 -59.667 -133.334 -179 -200.001c-120 -66.667 -197 -100 -231 -100s-88.333 21 -163 63c-52 29.333 -96 57.333 -132 84z" />
    <glyph glyph-name="uni179A" unicode="&#x179a;" horiz-adv-x="600" 
d="M203 484l-53 -43l53 -62v105zM400 150l-112 -112.001c-25.333 -25.333 -46.333 -38 -63 -38s-25 11.667 -25 35c0 54.667 -31.667 112.667 -95 174c-63.333 60.667 -95 124.334 -95 191.001c0 33.333 16.667 61 50 83l140 97v280c0 40 -47.333 66.667 -142 80
c-32 4 -48 19.333 -48 46s8.33301 60 25 100l165 414h300c0 -81.333 -8.66699 -150.333 -26 -207c-18 -57.333 -48 -98.333 -90 -123c10.667 40.667 16 72.667 16 96c0 22.667 -16.667 34 -50 34h-133l-69 -173c84 -15.333 147 -40 189 -74c42 -33.333 63 -76.333 63 -129
v-774z" />
    <glyph glyph-name="uni179B" unicode="&#x179b;" horiz-adv-x="1800" 
d="M400 309c60 59.333 90 109.333 90 150c0 27.333 -13.333 41 -40 41h-50v-191zM1000 410c0 -26.667 -6.66797 -46.999 -20.001 -60.999c0 -22 48 -59.333 144 -112c100 -53.333 162.667 -80 188 -80s46 5 62 15c17.333 9.33301 26 52 26 128v560
c0 40 -47.333 66.667 -142 80c-32 4 -48 19.333 -48 46s8.33301 60 25 100l165 414h300c0 -81.333 -8.66699 -150.333 -26 -207c-18 -57.333 -48 -98.333 -90 -123c10.667 40.667 16 72.667 16 96c0 22.667 -16.667 34 -50 34h-133l-69 -173c84 -15.333 147 -40 189 -74
c42 -33.333 63 -76.333 63 -129v-624c0 -66.667 -59.667 -133.334 -179 -200.001c-120 -66.667 -197 -100 -231 -100s-88.333 21 -163 63c-82 46 -143.667 88.667 -185 128s-72.666 90.666 -93.999 153.999c21.333 9.33301 35.333 20.833 42 34.5s10 30.5 10 50.5v870h-583
l-49 -133c70.667 -15.333 127 -39.666 169 -72.999c42 -34 63 -77.333 63 -130v-314h50c100 0 150 -50 150 -150s-43.667 -193.667 -131 -281l-175 -175c-29.333 -29.333 -52.333 -44 -69 -44s-25 13.333 -25 40v860c0 40 -40.667 66.667 -122 80c-32 4 -48 19.333 -48 46
s8.33301 60 25 100l145 374h800v-1090z" />
    <glyph glyph-name="uni179C" unicode="&#x179c;" horiz-adv-x="600" 
d="M203 484l-53 -43l53 -62v105zM475 1482c-16 26 -47.001 63.998 -93.001 113.998c-74.667 81.333 -112 149.666 -112 204.999c0 39.333 18.667 77 56 113s100 64.667 188 86c-52.667 -52 -79 -99.333 -79 -142c0.666992 -29.333 23.334 -68.666 68.001 -117.999
s67 -105 67 -167c0 -25.333 -1.66699 -49 -5 -71c-10 -97.333 -36.333 -171.666 -79 -222.999c-56.667 -67.333 -108.334 -93.666 -155.001 -78.999c8.66699 20.667 14.667 42.667 18 66c2.66699 23.333 -10.666 34.666 -39.999 33.999h-92l-69 -173
c84 -15.333 147 -40 189 -74c42 -33.333 63 -76.333 63 -129v-774l-112 -112c-25.333 -25.333 -46.333 -38 -63 -38s-25 11.667 -25 35c0 54.667 -31.667 112.667 -95 174c-63.333 60.667 -95 124.334 -95 191.001c0 33.333 16.667 61 50 83l140 97v280
c0 40 -47.333 66.667 -142 80c-32 4 -48 19.333 -48 46s8.33301 60 25 100l165 414h150c30 0 52.667 -10 68 -30c14.667 -20.667 22 -51.334 22 -92.001c20.667 14.667 34.167 31.834 40.5 51.501s4.5 37.167 -5.5 52.5z" />
    <glyph glyph-name="uni179D" unicode="&#x179d;" horiz-adv-x="1200" 
d="M294 1000c-20 35.333 -46.335 61.334 -79.002 78.001c-32 16.667 -70.333 24 -115 22l200 400h310c26.667 0 40 -33.333 40 -100c43.333 66.667 80 100 110 100h290c0 -81.333 -8.66699 -150.333 -26 -207c-18 -57.333 -54.667 -104.666 -110 -141.999
c14 53.333 22.667 91.666 26 114.999c2.66699 23.333 -10.666 34.666 -39.999 33.999h-180c-39.333 0 -82.666 -40 -129.999 -120c20 80 10 120 -30 120h-262l-24 -50c44 -18 84 -43 120 -75c36 -31.333 38.667 -66 8 -104c-30.667 -37.333 -66.667 -61 -108 -71z
M799.998 590.001l0.00292969 159.998c0 22.667 -46 60.667 -138 114c-92.667 52.667 -151.334 79 -176.001 79s-45 -5 -61 -15c-16.667 -9.33301 -25 -52 -25 -128v-451c43.333 100.667 97.333 151 162 151c28.667 0 59 -11.667 91 -35c31.333 -24 47 -57.333 47 -100
c0 -43.333 -33.333 -80 -100 -110c-12 30 -37 45 -75 45c-18.667 0 -38.334 -12.333 -59.001 -37l-185 -225c-20.667 -25.333 -39.334 -38 -56.001 -38s-25 13.333 -25 40v760c0 66.667 58.333 133.334 175 200.001s191.667 100 225 100s86.333 -21 159 -63
c160.667 -91.333 241 -170.333 241 -237v-322c42.667 -11.333 96 -16.666 160 -15.999c-58.667 -42 -112 -69.667 -160 -83v-229l-200 -200v450c-34 14 -70 32.667 -108 56z" />
    <glyph glyph-name="uni179E" unicode="&#x179e;" horiz-adv-x="1200" 
d="M1000 549l-0.000976562 -248.999c0 -66.667 -59.667 -133.334 -179 -200.001c-120 -66.667 -197 -100 -231 -100s-88.333 21 -163 63c-82 46 -143.667 88.667 -185 128s-72.666 90.666 -93.999 153.999c21.333 9.33301 35.333 20.833 42 34.5s10 30.5 10 50.5v430
c0 40 -47.333 66.667 -142 80c-32 4 -48 19.333 -48 46s8.33301 60 25 100l165 414h300c0 -81.333 -8.66699 -150.333 -26 -207c-18 -57.333 -48 -98.333 -90 -123c10.667 40.667 16 72.667 16 96c0 22.667 -16.667 34 -50 34h-133l-69 -173c84 -15.333 147 -40 189 -74
c42 -33.333 63 -76.333 63 -129v-514c0 -26.667 -6.66699 -47 -20 -61c0 -22 48 -59.333 144 -112c100 -53.333 162.667 -80 188 -80s46 5 62 15c17.333 9.33301 26 52 26 128v270c-34 14 -70 32.667 -108 56l108 134v100c0 40 -47.333 66.667 -142 80
c-32 4 -48 19.333 -48 46s8.33301 60 25 100l165 414h300c0 -81.333 -8.66699 -150.333 -26 -207c-18 -57.333 -48 -98.333 -90 -123c10.667 40.667 16 72.667 16 96c0 22.667 -16.667 34 -50 34h-133l-69 -173c84 -15.333 147 -40 189 -74c42 -33.333 63 -76.333 63 -129
v-276c42.667 -11.333 96 -16.666 160 -15.999c-58.667 -42 -112 -69.667 -160 -83z" />
    <glyph glyph-name="uni179F" unicode="&#x179f;" horiz-adv-x="1800" 
d="M401 309c60 59.333 90 97.667 90 115s-13.333 26 -40 26h-50v-141zM341 979.001c-24.667 35.333 -48.0029 63.002 -70.0029 83.002c-29.333 25.333 -82.666 38 -159.999 38l200 400h670c0 -81.333 -8.66699 -150.333 -26 -207
c-18 -57.333 -54.667 -104.666 -110 -141.999c14 53.333 22.667 91.666 26 114.999c2.66699 23.333 -10.666 34.666 -39.999 33.999h-522l-24 -50c60 -26 109.667 -59.333 149 -100c24.667 -26 45.334 -54.667 62.001 -86c50 24 85 36 105 36c33.333 0 86.333 -21 159 -63
c160.667 -91.333 241 -170.333 241 -237v-390c0 -26.667 -6.66699 -47 -20 -61c0 -22 48 -59.333 144 -112c100 -53.333 162.667 -80 188 -80s46 5 62 15c17.333 9.33301 26 52 26 128v560c0 40 -47.333 66.667 -142 80c-32 4 -48 19.333 -48 46s8.33301 60 25 100l165 414
h300c0 -81.333 -8.66699 -150.333 -26 -207c-18 -57.333 -48 -98.333 -90 -123c10.667 40.667 16 72.667 16 96c0 22.667 -16.667 34 -50 34h-133l-69 -173c84 -15.333 147 -40 189 -74c42 -33.333 63 -76.333 63 -129v-624c0 -66.667 -59.667 -133.334 -179 -200.001
c-120 -66.667 -197 -100 -231 -100s-88.333 21 -163 63c-82 46 -143.667 88.667 -185 128s-72.666 90.666 -93.999 153.999c21.333 9.33301 35.333 20.833 42 34.5s10 30.5 10 50.5v320c0 22.667 -46 60.667 -138 114c-92.667 52.667 -151.334 79 -176.001 79
s-45 -5 -61 -15c-16.667 -9.33301 -25 -52 -25 -128v-250h50c50 0 87.667 -8.33301 113 -25c24.667 -16 37 -40.667 37 -74c0 -67.333 -43.667 -144.666 -131 -231.999l-175 -175c-29.333 -29.333 -52.333 -44 -69 -44s-25 13.333 -25 40v760c0 59.333 46.667 119 140 179z
" />
    <glyph glyph-name="uni17A0" unicode="&#x17a0;" horiz-adv-x="1800" 
d="M1000 300c0 -66.667 -59.668 -133.333 -179.001 -200c-120 -66.667 -197 -100 -231 -100s-88.333 21 -163 63c-82 46 -143.667 88.667 -185 128s-72.666 90.666 -93.999 153.999c21.333 9.33301 35.333 20.833 42 34.5s10 30.5 10 50.5v430c0 40 -47.333 66.667 -142 80
c-32 4 -48 19.333 -48 46s8.33301 60 25 100l165 414h300c0 -81.333 -8.66699 -150.333 -26 -207c-18 -57.333 -48 -98.333 -90 -123c10.667 40.667 16 72.667 16 96c0 22.667 -16.667 34 -50 34h-133l-69 -173c84 -15.333 147 -40 189 -74c42 -33.333 63 -76.333 63 -129
v-514c0 -26.667 -6.66699 -47 -20 -61c0 -22 48 -59.333 144 -112c100 -53.333 162.667 -80 188 -80s46 5 62 15c17.333 9.33301 26 52 26 128v600c0 40 -40.667 66.667 -122 80c-32 4 -48 19.333 -48 46s8.33301 60 25 100l145 374h800v-1350l-200 -200v1350h-583l-49 -133
c70.667 -15.333 127 -39.666 169 -72.999c42 -34 63 -77.333 63 -130v-664z" />
    <glyph glyph-name="uni17A1" unicode="&#x17a1;" horiz-adv-x="1800" 
d="M800 -291v62l-40 -36zM179 930l-49 45.999c0 82.667 14.333 157.334 43 224.001l127 300h730c0 -81.333 -11 -153.333 -33 -216l-50 -142c-33.333 -94.667 -90.333 -142 -171 -142s-190.334 42 -329.001 126l172 129c62 -36.667 121 -55 177 -55s91.333 16.667 106 50
s4 50 -32 50h-553l-66 -163l87 -83c57.333 -56 141 -98.667 251 -128l274 -75c67.333 -18 123 4.33301 167 67c0 -102 -25.667 -174 -77 -216c-52 -42.667 -101 -57.667 -147 -45l-68 20l-207 57c-137.333 38.667 -254.666 104 -351.999 196zM1400 859.999
c0 40 -47.333 66.665 -142 79.998c-32 4 -48 19.333 -48 46s8.33301 60 25 100l165 414h300c0 -81.333 -8.66699 -150.333 -26 -207c-18 -57.333 -48 -98.333 -90 -123c10.667 40.667 16 72.667 16 96c0 22.667 -16.667 34 -50 34h-133l-69 -173c84 -15.333 147 -40 189 -74
c42 -33.333 63 -76.333 63 -129v-1445l-75 -64c-50 -43.333 -83.333 -65 -100 -65s-47.667 23.667 -93 71l-206 210l-241 -245c-23.333 -24 -43.333 -36 -60 -36s-25 11.667 -25 35v205l-127 84c-28.667 18.667 -43 39.334 -43 62.001s16 49.334 48 80.001l95 90
c31.333 29.333 67 44 107 44c39.333 0 79.333 -17 120 -51v-284l200 205l200 -205v1245zM400 679.997l-0.00292969 -329.999c0 -22.667 46 -60.667 138 -114c92.667 -52.667 151.334 -79 176.001 -79s45 5 61 15c16.667 9.33301 25 52 25 128v314
c47.333 -4 88.333 3.16699 123 21.5s60.334 43.5 77.001 75.5v-411c0 -66.667 -58.333 -133.334 -175 -200.001s-191.667 -100 -225 -100s-86.333 21 -159 63c-160.667 91.333 -241 170.333 -241 237v280l113 113c24.667 24.667 45.334 37 62.001 37s25 -16.667 25 -50z" />
    <glyph glyph-name="uni17A2" unicode="&#x17a2;" horiz-adv-x="1200" 
d="M203 484l-53 -43l53 -62v105zM803 484l-53 -43l53 -62v105zM400 674l-0.000976562 -524.003l-112 -112c-25.333 -25.333 -46.333 -38 -63 -38s-25 11.667 -25 35c0 54.667 -31.667 112.667 -95 174c-63.333 60.667 -95 124.334 -95 191.001c0 33.333 16.667 61 50 83
l140 97v280c0 40 -47.333 66.667 -142 80c-32 4 -48 19.333 -48 46s8.33301 60 25 100l165 414h300c0 -81.333 -8.66699 -150.333 -26 -207c-18 -57.333 -48 -98.333 -90 -123c10.667 40.667 16 72.667 16 96c0 22.667 -16.667 34 -50 34h-133l-69 -173
c84 -15.333 147 -40 189 -74c42 -33.333 63 -76.333 63 -129v-181l102 127c36 -70 77.667 -115.667 125 -137c42.667 -18.667 100.334 -29 173.001 -31v158c0 40 -47.333 66.667 -142 80c-32 4 -48 19.333 -48 46s8.33301 60 25 100l165 414h300
c0 -81.333 -8.66699 -150.333 -26 -207c-18 -57.333 -48 -98.333 -90 -123c10.667 40.667 16 72.667 16 96c0 22.667 -16.667 34 -50 34h-133l-69 -173c84 -15.333 147 -40 189 -74c42 -33.333 63 -76.333 63 -129v-774l-112 -112c-25.333 -25.333 -46.333 -38 -63 -38
s-25 11.667 -25 35c0 54.667 -31.667 112.667 -95 174c-63.333 60.667 -95 124.334 -95 191.001c0 33.333 16.667 61 50 83l140 97v102c-78 -51.333 -146 -75.666 -204 -72.999c-56 2 -121.333 23.667 -196 65z" />
    <glyph glyph-name="uni17A3" unicode="&#x17a3;" horiz-adv-x="1200" 
d="M203 484l-53 -43l53 -62v105zM803 484l-53 -43l53 -62v105zM400 674l-0.000976562 -524.003l-112 -112c-25.333 -25.333 -46.333 -38 -63 -38s-25 11.667 -25 35c0 54.667 -31.667 112.667 -95 174c-63.333 60.667 -95 124.334 -95 191.001c0 33.333 16.667 61 50 83
l140 97v280c0 40 -47.333 66.667 -142 80c-32 4 -48 19.333 -48 46s8.33301 60 25 100l165 414h300c0 -81.333 -8.66699 -150.333 -26 -207c-18 -57.333 -48 -98.333 -90 -123c10.667 40.667 16 72.667 16 96c0 22.667 -16.667 34 -50 34h-133l-69 -173
c84 -15.333 147 -40 189 -74c42 -33.333 63 -76.333 63 -129v-181l102 127c36 -70 77.667 -115.667 125 -137c42.667 -18.667 100.334 -29 173.001 -31v158c0 40 -47.333 66.667 -142 80c-32 4 -48 19.333 -48 46s8.33301 60 25 100l165 414h300
c0 -81.333 -8.66699 -150.333 -26 -207c-18 -57.333 -48 -98.333 -90 -123c10.667 40.667 16 72.667 16 96c0 22.667 -16.667 34 -50 34h-133l-69 -173c84 -15.333 147 -40 189 -74c42 -33.333 63 -76.333 63 -129v-774l-112 -112c-25.333 -25.333 -46.333 -38 -63 -38
s-25 11.667 -25 35c0 54.667 -31.667 112.667 -95 174c-63.333 60.667 -95 124.334 -95 191.001c0 33.333 16.667 61 50 83l140 97v102c-78 -51.333 -146 -75.666 -204 -72.999c-56 2 -121.333 23.667 -196 65z" />
    <glyph glyph-name="uni17A4" unicode="&#x17a4;" horiz-adv-x="1800" 
d="M203 484l-53 -43l53 -62v105zM803 484l-53 -43l53 -62v105zM400 674l-0.000976562 -524.003l-112 -112c-25.333 -25.333 -46.333 -38 -63 -38s-25 11.667 -25 35c0 54.667 -31.667 112.667 -95 174c-63.333 60.667 -95 124.334 -95 191.001c0 33.333 16.667 61 50 83
l140 97v280c0 40 -47.333 66.667 -142 80c-32 4 -48 19.333 -48 46s8.33301 60 25 100l165 414h300c0 -81.333 -8.66699 -150.333 -26 -207c-18 -57.333 -48 -98.333 -90 -123c10.667 40.667 16 72.667 16 96c0 22.667 -16.667 34 -50 34h-133l-69 -173
c84 -15.333 147 -40 189 -74c42 -33.333 63 -76.333 63 -129v-181l102 127c36 -70 77.667 -115.667 125 -137c42.667 -18.667 100.334 -29 173.001 -31v158c0 40 -47.333 66.667 -142 80c-32 4 -48 19.333 -48 46s8.33301 60 25 100l165 414h800v-1350l-200 -200v1350h-583
l-69 -173c84 -15.333 147 -40 189 -74c42 -33.333 63 -76.333 63 -129v-774l-112 -112c-25.333 -25.333 -46.333 -38 -63 -38s-25 11.667 -25 35c0 54.667 -31.667 112.667 -95 174c-63.333 60.667 -95 124.334 -95 191.001c0 33.333 16.667 61 50 83l140 97v102
c-78 -51.333 -146 -75.666 -204 -72.999c-56 2 -121.333 23.667 -196 65z" />
    <glyph glyph-name="uni17A5" unicode="&#x17a5;" horiz-adv-x="1200" 
d="M200 40l0.000976562 759.998c0 66.667 58.333 133.334 175 200.001s191.667 100 225 100s86.333 -21 159 -63c160.667 -91.333 241 -170.333 241 -237v-650l-200 -200v800c0 22.667 -46 60.667 -138 114c-92.667 52.667 -151.334 79 -176.001 79s-45 -5 -61 -15
c-16.667 -9.33301 -25 -52 -25 -128v-250h50c50 0 87.667 -8.33301 113 -25c24.667 -16 37 -40.667 37 -74c0 -67.333 -43.667 -144.666 -131 -231.999l-175 -175c-29.333 -29.333 -52.333 -44 -69 -44s-25 13.333 -25 40zM400.001 308.998c60 59.333 90 97.667 90 115
s-13.333 26 -40 26h-50v-141zM298.001 1300l-24.001 -49.9971c44 -18 84 -43 120 -75c36 -31.333 38.667 -66 8 -104c-30.667 -37.333 -66.667 -61 -108 -71c-20 35.333 -46.333 61.333 -79 78c-32 16.667 -70.333 24 -115 22l200 400h520c30 0 52.667 -10 68 -30
c14.667 -20.667 22 -51.334 22 -92.001c27.333 28 43 53.667 47 77c4.66699 24 -30.333 92.333 -105 205c-74.667 113.333 -112 199 -112 257c0 55.333 18.667 107.666 56 156.999c37.333 50 100 90 188 120c-52.667 -72.667 -79 -138.667 -79 -198
c0.666992 -40 23.334 -94.333 68.001 -163s67 -146.334 67 -233.001c0 -146.667 -28 -253.667 -84 -321c-56.667 -67.333 -108.334 -93.666 -155.001 -78.999c8.66699 20.667 14.667 42.667 18 66c2.66699 23.333 -10.666 34.666 -39.999 33.999h-481z" />
    <glyph glyph-name="uni17A6" unicode="&#x17a6;" horiz-adv-x="1800" 
d="M400 -641c60 59.333 90 97.667 90 115s-13.333 26 -40 26h-50v-141zM400 309.001c60 59.333 90 109.333 90 150c0 27.333 -13.333 41 -40 41h-50v-191zM800 -449.999c0 22.667 -46.001 60.6689 -138.001 114.002c-92.667 52.667 -151.334 79 -176.001 79s-45 -5 -61 -15
c-16.667 -9.33301 -25 -35.333 -25 -78v-50h50c50 0 87.667 -8.33301 113 -25c24.667 -16 37 -40.667 37 -74c0 -67.333 -43.667 -144.666 -131 -231.999c-46 -46 -102.333 -69 -169 -69s-100 33.333 -100 100v350c0 33.333 58.333 83.333 175 150s191.667 100 225 100
s86.333 -21 159 -63c160.667 -91.333 241 -170.333 241 -237v-100c46.667 -133.333 125 -200 235 -200s165 66.667 165 200v1360c0 40 -47.333 66.667 -142 80c-32 4 -48 19.333 -48 46s8.33301 60 25 100l165 414h150c30 0 52.667 -10 68 -30
c14.667 -20.667 22 -51.334 22 -92.001c27.333 28 43 53.667 47 77c4.66699 24 -30.333 92.333 -105 205c-74.667 113.333 -112 199 -112 257c0 55.333 18.667 107.666 56 156.999c37.333 50 100 90 188 120c-52.667 -72.667 -79 -138.667 -79 -198
c0.666992 -40 23.334 -94.333 68.001 -163s67 -146.334 67 -233.001c0 -146.667 -28 -253.667 -84 -321c-56.667 -67.333 -108.334 -93.666 -155.001 -78.999c8.66699 20.667 14.667 42.667 18 66c2.66699 23.333 -10.666 34.666 -39.999 33.999h-92l-69 -173
c84 -15.333 147 -40 189 -74c42 -33.333 63 -76.333 63 -129v-1424c0 -200 -133.333 -300 -400 -300c-89.333 0 -170.666 24.667 -243.999 74l-156 -94v370zM199.999 1200c0 66.667 58.334 133.333 175.001 200s191.667 100 225 100s86.333 -21 159 -63
c160.667 -91.333 241 -170.333 241 -237v-1050l-200 -200v1200c0 22.667 -46 60.667 -138 114c-92.667 52.667 -151.334 79 -176.001 79s-45 -5 -61 -15c-16.667 -9.33301 -25 -52 -25 -128v-550h50c100 0 150 -50 150 -150s-43.667 -193.667 -131 -281l-175 -175
c-29.333 -29.333 -52.333 -44 -69 -44s-25 13.333 -25 40v1160z" />
    <glyph glyph-name="uni17A7" unicode="&#x17a7;" horiz-adv-x="1200" 
d="M400 1005c45.333 25.333 68 44.333 68 57c0 18.667 -11.333 28 -34 28h-34v-85zM200 630c133.333 0 266.669 46.667 400.002 140s200 170 200 230v150c0 22.667 -46 60.667 -138 114c-92.667 52.667 -151.334 79 -176.001 79s-45 -5 -61 -15
c-16.667 -9.33301 -25 -52 -25 -128h40c106.667 0 160 -35 160 -105s-50 -136.667 -150 -200s-168.333 -95 -205 -95c-30 0 -45 26.667 -45 80v320c0 66.667 58.333 133.334 175 200.001s191.667 100 225 100s86.333 -21 159 -63c160.667 -91.333 241 -170.333 241 -237
v-200c0 -60 -100 -156.667 -300 -290l-300 -200v-190c140.667 -157.333 242.667 -215.666 306 -174.999l94 57v348l200 200v-810c0 -70.667 -67 -144.334 -201 -221.001c-66.667 -38.667 -128.334 -61 -185.001 -67c-56 -6 -107 4 -153 30s-91.333 40.333 -136 43
c-44.667 3.33301 -93 -26 -145 -88c-1.33301 10.667 -2 21 -2 31c0 21.333 2.66699 40.666 8 57.999c8 26 30 57.333 66 94c36 37.333 81 61.666 135 72.999c54.667 12 109 2 163 -30c108.667 -63.333 177.667 -86.333 207 -69c29.333 16.667 44 48.667 44 96v198l-42 -25
c-72.667 -42 -125.667 -63 -159 -63s-108.333 33.333 -225 100s-175 133.334 -175 200.001v330z" />
    <glyph glyph-name="uni17A8" unicode="&#x17a8;" horiz-adv-x="1200" 
d="M400 1005c45.333 25.333 68 44.333 68 57c0 18.667 -11.333 28 -34 28h-34v-85zM200 630c133.333 0 266.669 46.666 400.002 139.999s200 170 200 230v150c0 22.667 -46 60.667 -138 114c-92.667 52.667 -151.334 79 -176.001 79s-45 -5 -61 -15
c-16.667 -9.33301 -25 -52 -25 -128h40c106.667 0 160 -35 160 -105s-50 -136.667 -150 -200s-168.333 -95 -205 -95c-30 0 -45 26.667 -45 80v320c0 66.667 58.333 133.334 175 200.001s191.667 100 225 100s86.333 -21 159 -63c160.667 -91.333 241 -170.333 241 -237
v-200c0 -60 -100 -156.667 -300 -290l-300 -200v-190c140.667 -157.333 242.667 -215.666 306 -174.999l94 57v348l200 200v-810c0 -70.667 -67 -144.334 -201 -221.001c-66.667 -38.667 -128.334 -61 -185.001 -67c-56 -6 -107 4 -153 30s-91.333 40.333 -136 43
c-44.667 3.33301 -93 -26 -145 -88c-3.33301 33.333 -1.33301 63 6 89c8 26 30 57.333 66 94c36 37.333 81 61.666 135 72.999c54.667 12 109 2 163 -30c108.667 -63.333 177.667 -86.333 207 -69c29.333 16.667 44 48.667 44 96v198l-42 -25
c-72.667 -42 -125.667 -63 -159 -63s-108.333 33.333 -225 100s-175 133.334 -175 200.001v330zM294.003 1390c-20 35.333 -46.335 61.334 -79.002 78.001c-32 16.667 -70.333 24 -115 22l200 400h310c26.667 0 40 -33.333 40 -100c43.333 66.667 80 100 110 100h290
c0 -81.333 -8.66699 -150.333 -26 -207c-18 -57.333 -54.667 -104.666 -110 -141.999c14 53.333 22.667 91.666 26 114.999c2.66699 23.333 -10.666 34.666 -39.999 33.999h-180c-39.333 0 -82.666 -40 -129.999 -120c20 80 10 120 -30 120h-262l-24 -50
c44 -18 84 -43 120 -75c36 -31.333 38.667 -66 8 -104c-30.667 -37.333 -66.667 -61 -108 -71z" />
    <glyph glyph-name="uni17A9" unicode="&#x17a9;" horiz-adv-x="1347" 
d="M400 1005c45.333 25.333 68 44.333 68 57c0 18.667 -11.333 28 -34 28h-34v-85zM200 630c133.333 0 266.669 46.667 400.002 140s200 170 200 230v150c0 22.667 -46 60.667 -138 114c-92.667 52.667 -151.334 79 -176.001 79s-45 -5 -61 -15
c-16.667 -9.33301 -25 -52 -25 -128h40c106.667 0 160 -35 160 -105s-50 -136.667 -150 -200s-168.333 -95 -205 -95c-30 0 -45 26.667 -45 80v320c0 66.667 58.333 133.334 175 200.001s191.667 100 225 100s86.333 -21 159 -63c160.667 -91.333 241 -170.333 241 -237
v-200c0 -60 -100 -156.667 -300 -290l-300 -200v-190c140.667 -157.333 242.667 -215.666 306 -174.999l94 57v348l200 200v-810c0 -70.667 -67 -144.334 -201 -221.001c-66.667 -38.667 -128.334 -61 -185.001 -67c-56 -6 -107 4 -153 30s-91.333 40.333 -136 43
c-44.667 3.33301 -93 -26 -145 -88c-1.33301 10.667 -2 21 -2 31c0 21.333 2.66699 40.666 8 57.999c8 26 30 57.333 66 94c36 37.333 81 61.666 135 72.999c54.667 12 109 2 163 -30c108.667 -63.333 177.667 -86.333 207 -69c29.333 16.667 44 48.667 44 96v198l-42 -25
c-72.667 -42 -125.667 -63 -159 -63s-108.333 33.333 -225 100s-175 133.334 -175 200.001v330zM1100 600l200 200v-900l-200 -200v900z" />
    <glyph glyph-name="uni17AA" unicode="&#x17aa;" horiz-adv-x="1200" 
d="M400 1005c45.333 25.333 68 44.333 68 57c0 18.667 -11.333 28 -34 28h-34v-85zM200 630c133.333 0 266.669 46.666 400.002 139.999s200 170 200 230v150c0 22.667 -46 60.667 -138 114c-92.667 52.667 -151.334 79 -176.001 79s-45 -5 -61 -15
c-16.667 -9.33301 -25 -52 -25 -128h40c106.667 0 160 -35 160 -105s-50 -136.667 -150 -200s-168.333 -95 -205 -95c-30 0 -45 26.667 -45 80v320c0 66.667 58.333 133.334 175 200.001s191.667 100 225 100s86.333 -21 159 -63c160.667 -91.333 241 -170.333 241 -237
v-200c0 -60 -100 -156.667 -300 -290l-300 -200v-190c140.667 -157.333 242.667 -215.666 306 -174.999l94 57v348l200 200v-810c0 -70.667 -67 -144.334 -201 -221.001c-66.667 -38.667 -128.334 -61 -185.001 -67c-56 -6 -107 4 -153 30s-91.333 40.333 -136 43
c-44.667 3.33301 -93 -26 -145 -88c-3.33301 33.333 -1.33301 63 6 89c8 26 30 57.333 66 94c36 37.333 81 61.666 135 72.999c54.667 12 109 2 163 -30c108.667 -63.333 177.667 -86.333 207 -69c29.333 16.667 44 48.667 44 96v198l-42 -25
c-72.667 -42 -125.667 -63 -159 -63s-108.333 33.333 -225 100s-175 133.334 -175 200.001v330zM298.003 1700l-24.001 -49.998c44 -18 84 -43 120 -75c36 -31.333 38.667 -66 8 -104c-30.667 -37.333 -66.667 -61 -108 -71c-20 35.333 -46.333 61.333 -79 78
c-32 16.667 -70.333 24 -115 22l200 400h520c30 0 52.667 -10 68 -30c14.667 -20.667 22 -51.334 22 -92.001c27.333 28 43 53.667 47 77c4.66699 24 -30.333 92.333 -105 205c-74.667 113.333 -112 199 -112 257c0 55.333 18.667 107.666 56 157c37.333 50 100 90 188 120
c-52.667 -72.667 -79 -138.667 -79 -198c0.666992 -40 23.334 -94.333 68.001 -163s67 -146.334 67 -233.001c0 -146.667 -28 -253.667 -84 -321c-56.667 -67.333 -108.334 -93.666 -155.001 -78.999c8.66699 20.667 14.667 42.667 18 66
c2.66699 23.333 -10.666 34.666 -39.999 33.999h-481z" />
    <glyph glyph-name="uni17AB" unicode="&#x17ab;" horiz-adv-x="1200" 
d="M1000 300c0 -66.667 -59.668 -133.332 -179.001 -199.999c-120 -66.667 -197 -100 -231 -100s-88.333 21 -163 63c-82 46 -143.667 88.667 -185 128s-72.666 90.666 -93.999 153.999c21.333 9.33301 35.333 20.833 42 34.5s10 30.5 10 50.5v430
c0 40 -47.333 66.667 -142 80c-32 4 -48 19.333 -48 46s8.33301 60 25 100l165 414h300c0 -81.333 -8.66699 -150.333 -26 -207c-18 -57.333 -48 -98.333 -90 -123c10.667 40.667 16 72.667 16 96c0 22.667 -16.667 34 -50 34h-133l-69 -173c84 -15.333 147 -40 189 -74
c42 -33.333 63 -76.333 63 -129v-514c0 -26.667 -6.66699 -47 -20 -61c0 -22 48 -59.333 144 -112c100 -53.333 162.667 -80 188 -80s46 5 62 15c17.333 9.33301 26 52 26 128v560c0 40 -47.333 66.667 -142 80c-32 4 -48 19.333 -48 46s8.33301 60 25 100l165 414h300
c0 -81.333 -8.66699 -150.333 -26 -207c-18 -57.333 -48 -98.333 -90 -123c10.667 40.667 16 72.667 16 96c0 22.667 -16.667 34 -50 34h-133l-69 -173c84 -15.333 147 -40 189 -74c42 -33.333 63 -76.333 63 -129v-624zM135.999 -484.998
c-24 22.667 -36.168 61.3311 -36.501 115.998s45.167 104.334 136.5 149.001s194.666 51.667 309.999 21c230 -62.667 345.333 -78.334 346 -47.001c0 30.667 -15 53.334 -45 68.001c-30 15.333 -89 8 -177 -22l160 200c56.667 0 99 -14.333 127 -43
c28.667 -28 43 -70 43 -126c0 -111.333 -52.667 -185.666 -158 -222.999c-106 -37.333 -221.667 -37.666 -347 -0.999023c-161.333 46 -257.666 63 -288.999 51c-31.333 -12.667 -54.666 -60.334 -69.999 -143.001z" />
    <glyph glyph-name="uni17AC" unicode="&#x17ac;" horiz-adv-x="1200" 
d="M1000 300c0 -66.667 -59.668 -133.332 -179.001 -199.999c-120 -66.667 -197 -100 -231 -100s-88.333 21 -163 63c-82 46 -143.667 88.667 -185 128s-72.666 90.666 -93.999 153.999c21.333 9.33301 35.333 20.833 42 34.5s10 30.5 10 50.5v430
c0 40 -47.333 66.667 -142 80c-32 4 -48 19.333 -48 46s8.33301 60 25 100l165 414h300c0 -81.333 -8.66699 -150.333 -26 -207c-18 -57.333 -48 -98.333 -90 -123c10.667 40.667 16 72.667 16 96c0 22.667 -16.667 34 -50 34h-133l-69 -173c84 -15.333 147 -40 189 -74
c42 -33.333 63 -76.333 63 -129v-514c0 -26.667 -6.66699 -47 -20 -61c0 -22 48 -59.333 144 -112c100 -53.333 162.667 -80 188 -80s46 5 62 15c17.333 9.33301 26 52 26 128v560c0 40 -47.333 66.667 -142 80c-32 4 -48 19.333 -48 46s8.33301 60 25 100l165 414h300
c0 -81.333 -8.66699 -150.333 -26 -207c-18 -57.333 -48 -98.333 -90 -123c10.667 40.667 16 72.667 16 96c0 22.667 -16.667 34 -50 34h-133l-69 -173c84 -15.333 147 -40 189 -74c42 -33.333 63 -76.333 63 -129v-624zM824.999 -396.998
c-101.333 -31.333 -211.333 -30.002 -330 3.99805c-161.333 46 -257.666 63 -288.999 51c-31.333 -12.667 -54.666 -60.334 -69.999 -143.001c-24 22.667 -36.167 61.334 -36.5 116.001s45.167 104.334 136.5 149.001s194.666 51.667 309.999 21
c230 -62.667 345.333 -78.334 346 -47.001c0 30.667 -15 53.334 -45 68.001c-30 15.333 -89 8 -177 -22l160 200c56.667 0 99 -14.333 127 -43c28.667 -28 43 -70 43 -126c0 -41.333 -7.33301 -78 -22 -110c18 -46.667 42 -82 72 -106
c41.333 -31.333 104.666 -57 189.999 -77c-72 -29.333 -134.333 -44 -187 -44c-22.667 0 -43.334 2.66699 -62.001 8c-51.333 14.667 -106.666 48.334 -165.999 101.001z" />
    <glyph glyph-name="uni17AD" unicode="&#x17ad;" horiz-adv-x="1200" 
d="M400 309c60 59.333 90 109.333 90 150c0 27.333 -13.333 41 -40 41h-50v-191zM800 -37l-0.00195312 1337h-100c-59.333 0 -128.666 -54 -207.999 -162l7 41c14 80.667 1 121 -39 121h-243l-49 -133c70.667 -15.333 127 -39.666 169 -72.999c42 -34 63 -77.333 63 -130
v-314h50c100 0 150 -50 150 -150s-43.667 -193.667 -131 -281l-175 -175c-29.333 -29.333 -52.333 -44 -69 -44s-25 13.333 -25 40v860c0 40 -40.667 66.667 -122 80c-32 4 -48 19.333 -48 46s8.33301 60 25 100l145 374h300c46.667 0 70 -43.333 70 -130
c50 86.667 103.333 130 160 130h270v-1350l-151 -150c47.333 -3.33301 83.333 -17.666 108 -42.999c28.667 -28 43 -70 43 -126c0 -111.333 -52.667 -185.666 -158 -222.999c-106 -37.333 -221.667 -37.666 -347 -0.999023c-161.333 46 -257.666 63 -288.999 51
c-31.333 -12.667 -54.666 -60.334 -69.999 -143.001c-24 22.667 -36.167 61.334 -36.5 116.001s45.167 104.334 136.5 149.001s194.666 51.667 309.999 21c230 -62.667 345.333 -78.334 346 -47.001c0 30.667 -15 53.334 -45 68.001c-30 15.333 -89 8 -177 -22z" />
    <glyph glyph-name="uni17AE" unicode="&#x17ae;" horiz-adv-x="1200" 
d="M400 309c60 59.333 90 109.333 90 150c0 27.333 -13.333 41 -40 41h-50v-191zM800 -37l-0.000976562 1337h-100c-59.333 0 -128.666 -54 -207.999 -162l7 41c14 80.667 1 121 -39 121h-243l-49 -133c70.667 -15.333 127 -39.666 169 -72.999c42 -34 63 -77.333 63 -130
v-314h50c100 0 150 -50 150 -150s-43.667 -193.667 -131 -281l-175 -175c-29.333 -29.333 -52.333 -44 -69 -44s-25 13.333 -25 40v860c0 40 -40.667 66.667 -122 80c-32 4 -48 19.333 -48 46s8.33301 60 25 100l145 374h300c46.667 0 70 -43.333 70 -130
c50 86.667 103.333 130 160 130h270v-1350l-151 -150c47.333 -3.33301 83.333 -17.666 108 -42.999c28.667 -28 43 -70 43 -126c0 -41.333 -7.33301 -78 -22 -110c18 -46.667 42 -82 72 -106c41.333 -31.333 104.666 -57 189.999 -77c-72 -29.333 -134.333 -44 -187 -44
c-22.667 0 -43.334 2.66699 -62.001 8c-51.333 14.667 -106.666 48.334 -165.999 101.001c-101.333 -31.333 -211.333 -30 -330 4c-161.333 46 -257.666 63 -288.999 51c-31.333 -12.667 -54.666 -60.334 -69.999 -143.001c-24 22.667 -36.167 61.334 -36.5 116.001
s45.167 104.334 136.5 149.001s194.666 51.667 309.999 21c230 -62.667 345.333 -78.334 346 -47.001c0 30.667 -15 53.334 -45 68.001c-30 15.333 -89 8 -177 -22z" />
    <glyph glyph-name="uni17AF" unicode="&#x17af;" horiz-adv-x="1200" 
d="M200 638v73l-40 -42zM200 1670c0 26.667 -8 40.001 -24 40.001s-41.333 -10 -76 -30c66.667 146.667 126.667 220 180 220c80 0 120 -76.667 120 -230v-256c102.667 57.333 169.334 86 200.001 86c33.333 0 86.333 -21 159 -63c160.667 -91.333 241 -170.333 241 -237
v-1050l-75 -75c-50 -50 -83.333 -75 -100 -75s-47.667 27.333 -93 82l-206 245l-241 -286c-23.333 -27.333 -43.333 -41 -60 -41s-25 13.333 -25 40v470l-127 98c-28.667 21.333 -43 48.666 -43 81.999c0 66.667 16 117.667 48 153l95 105c31.333 34.667 67 52 107 52
c39.333 0 79.333 -20 120 -60v-631l200 239l200 -239v841c0 22.667 -46 60.667 -138 114c-92.667 52.667 -151.334 79 -176.001 79s-45 -5 -61 -15c-16.667 -9.33301 -25 -35.333 -25 -78c0 -70.667 -33.333 -106 -100 -106s-100 35.333 -100 106v420z" />
    <glyph glyph-name="uni17B0" unicode="&#x17b0;" horiz-adv-x="1200" 
d="M400 309c60 59.333 90 109.333 90 150c0 27.333 -13.333 41 -40 41h-50v-191zM217 1300l-49.001 -133.001c70.667 -15.333 127 -39.666 169 -72.999c42 -34 63 -77.333 63 -130v-314h50c100 0 150 -50 150 -150s-43.667 -193.667 -131 -281l-175 -175
c-29.333 -29.333 -52.333 -44 -69 -44s-25 13.333 -25 40v860c0 40 -40.667 66.667 -122 80c-32 4 -48 19.333 -48 46s8.33301 60 25 100l145 374h300c46.667 0 70 -43.333 70 -130c50 86.667 103.333 130 160 130h270v-1350l-200 -200v1350h-100
c-59.333 0 -128.666 -54 -207.999 -162l7 41c14 80.667 1 121 -39 121h-243zM999.999 -300.001c0 -60 -10.667 -111.333 -32 -154s-53.333 -76.667 -96 -102s-78.667 -35 -108 -29c-30 6 -53.333 27.333 -70 64c-0.666992 -47.333 -13.334 -88.333 -38.001 -123
s-61 -62.667 -109 -84c-24 -10.667 -48.333 -17 -73 -19h-17c-19.333 0 -38.333 2.33301 -57 7c-49.333 14 -99.333 45.333 -150 94c-33.333 32.667 -50 86 -50 160s50 125.667 150 155l338 99c74.667 21.333 145.334 65.333 212.001 132l100 100v-300zM325.999 -551.001
c83.333 -71.333 143.333 -98.667 180 -82c36 16 48.333 62.667 37 140zM750.999 -433.002c16.667 -41.333 36 -56.667 58 -46c21.333 10.667 25.333 36.667 12 78z" />
    <glyph glyph-name="uni17B1" unicode="&#x17b1;" horiz-adv-x="1200" 
d="M400 1005c45.333 25.333 68 44.333 68 57c0 18.667 -11.333 28 -34 28h-34v-85zM200 630c133.333 0 266.669 46.666 400.002 139.999s200 170 200 230v150c0 22.667 -46 60.667 -138 114c-92.667 52.667 -151.334 79 -176.001 79s-45 -5 -61 -15
c-16.667 -9.33301 -25 -52 -25 -128h40c106.667 0 160 -35 160 -105s-50 -136.667 -150 -200s-168.333 -95 -205 -95c-30 0 -45 26.667 -45 80v320c0 66.667 58.333 133.334 175 200.001s191.667 100 225 100s86.333 -21 159 -63c160.667 -91.333 241 -170.333 241 -237
v-200c0 -60 -100 -156.667 -300 -290l-300 -200v-190c140.667 -157.333 242.667 -215.666 306 -174.999l94 57v348l200 200v-810c0 -70.667 -67 -144.334 -201 -221.001c-66.667 -38.667 -128.334 -61 -185.001 -67c-56 -6 -107 4 -153 30s-91.333 40.333 -136 43
c-44.667 3.33301 -93 -26 -145 -88c-3.33301 33.333 -1.33301 63 6 89c8 26 30 57.333 66 94c36 37.333 81 61.666 135 72.999c54.667 12 109 2 163 -30c108.667 -63.333 177.667 -86.333 207 -69c29.333 16.667 44 48.667 44 96v198l-42 -25
c-72.667 -42 -125.667 -63 -159 -63s-108.333 33.333 -225 100s-175 133.334 -175 200.001v330zM294.003 1390c-20 35.333 -46.334 61.334 -79.001 78.001c-32 16.667 -70.333 24 -115 22l200 400h750c0 -81.333 -8.66699 -150.333 -26 -207
c-18 -57.333 -54.667 -104.666 -110 -141.999c14 53.333 22.667 91.666 26 114.999c2.66699 23.333 -10.666 34.666 -39.999 33.999h-602l-24 -50c44 -18 84 -43 120 -75c36 -31.333 38.667 -66 8 -104c-30.667 -37.333 -66.667 -61 -108 -71z" />
    <glyph glyph-name="uni17B2" unicode="&#x17b2;" horiz-adv-x="1200" 
d="M1000 300c0 -66.667 -58.333 -133.333 -175 -200s-191.667 -100 -225 -100s-86.333 21 -159 63c-160.667 91.333 -241 170.333 -241 237v900c0 66.667 58.333 133.334 175 200.001s191.667 100 225 100s86.333 -21 159 -63l241 -137l-200 -116l-138 80
c-92.667 52.667 -151.334 79 -176.001 79s-45 -5 -61 -15c-16.667 -9.33301 -25 -52 -25 -128v-850c0 -22.667 46 -60.667 138 -114c92.667 -52.667 151.334 -79 176.001 -79s45 5 61 15c16.667 9.33301 25 52 25 128c0 74.667 -25 127 -75 157s-75 69.667 -75 119v74
c97.333 22.667 161.666 53 192.999 91c31.333 37.333 47 75 47 113c0 28.667 -9.16699 50.167 -27.5 64.5s-39.166 21.5 -62.499 21.5c-33.333 0 -50 -15 -50 -45s20 -46.333 60 -49c0.666992 -54.667 -42.333 -81 -129 -79c-87.333 2 -131 46.333 -131 133
c0 66.667 20 116.667 60 150s86.667 50 140 50c80 0 141.667 -23.333 185 -70s65 -103.334 65 -170.001c0 -73.333 -13.333 -140 -40 -200s-80 -103.333 -160 -130c133.333 -20 200 -96.667 200 -230z" />
    <glyph glyph-name="uni17B3" unicode="&#x17b3;" horiz-adv-x="1200" 
d="M400 1005c45.333 25.333 68 44.333 68 57c0 18.667 -11.333 28 -34 28h-34v-85zM200 630c133.333 0 266.669 46.666 400.002 139.999s200 170 200 230v150c0 22.667 -46 60.667 -138 114c-92.667 52.667 -151.334 79 -176.001 79s-45 -5 -61 -15
c-16.667 -9.33301 -25 -52 -25 -128h40c106.667 0 160 -35 160 -105s-50 -136.667 -150 -200s-168.333 -95 -205 -95c-30 0 -45 26.667 -45 80v320c0 66.667 58.333 133.334 175 200.001s191.667 100 225 100s86.333 -21 159 -63c160.667 -91.333 241 -170.333 241 -237
v-200c0 -60 -100 -156.667 -300 -290l-300 -200v-190c140.667 -157.333 242.667 -215.666 306 -174.999l94 57v348l200 200v-810c0 -70.667 -67 -144.334 -201 -221.001c-66.667 -38.667 -128.334 -61 -185.001 -67c-56 -6 -107 4 -153 30s-91.333 40.333 -136 43
c-44.667 3.33301 -93 -26 -145 -88c-3.33301 33.333 -1.33301 63 6 89c8 26 30 57.333 66 94c36 37.333 81 61.666 135 72.999c54.667 12 109 2 163 -30c108.667 -63.333 177.667 -86.333 207 -69c29.333 16.667 44 48.667 44 96v198l-42 -25
c-72.667 -42 -125.667 -63 -159 -63s-108.333 33.333 -225 100s-175 133.334 -175 200.001v330zM298.003 1700l-24.001 -49.998c44 -18 84 -43 120 -75c36 -31.333 38.667 -66 8 -104c-30.667 -37.333 -66.667 -61 -108 -71c-20 35.333 -46.333 61.333 -79 78
c-32 16.667 -70.333 24 -115 22l200 400h520c30 0 52.667 -10 68 -30c14.667 -20.667 22 -51.334 22 -92.001c27.333 28 43 53.667 47 77c4.66699 24 -30.333 92.333 -105 205c-74.667 113.333 -112 199 -112 257c0 55.333 18.667 107.666 56 157c37.333 50 100 90 188 120
c-52.667 -72.667 -79 -138.667 -79 -198c0.666992 -40 23.334 -94.333 68.001 -163s67 -146.334 67 -233.001c0 -146.667 -28 -253.667 -84 -321c-56.667 -67.333 -108.334 -93.666 -155.001 -78.999c8.66699 20.667 14.667 42.667 18 66
c2.66699 23.333 -10.666 34.666 -39.999 33.999h-481z" />
    <glyph glyph-name="uni17B4" unicode="&#x17b4;" horiz-adv-x="200" 
d="M-350 1300c0 66.667 8.33301 116.667 25 150s41.667 50 75 50h450v-1350l-200 -200v1350h-350zM0 2000l200 200v-400l-200 -200v400z" />
    <glyph glyph-name="uni17B5" unicode="&#x17b5;" horiz-adv-x="200" 
d="M-350 1300c0 66.667 8.33301 116.667 25 150s41.667 50 75 50h450v-1350l-200 -200v1350h-350z" />
    <glyph glyph-name="uni17B6" unicode="&#x17b6;" horiz-adv-x="600" 
d="M-150 1300c0 66.667 8.33301 116.667 25 150s41.667 50 75 50h450v-1350l-200 -200v1350h-350z" />
    <glyph glyph-name="uni17B7" unicode="&#x17b7;" 
d="M-642 1966c76.667 6.66699 216.333 -25 419 -95l15 22l-216 110c-80 34.667 -154.667 50.334 -224 47.001c-70 -2.66699 -139 -62 -207 -178c65.333 55.333 136.333 86.666 213 93.999zM-963.001 1858c36 112 78 199 126 261c47.333 62 101 98.667 161 110
c34.667 6 68.667 9 102 9c25.333 0 50.333 -1.66699 75 -5c58 -8 129.667 -33.333 215 -76c84.667 -46 133.667 -95.667 147 -149c3.33301 -13.333 5 -26.333 5 -39c0 -38 -15 -73.667 -45 -107l-121 -162l-125 34c-124.667 34 -235 52 -331 54s-177.667 -12.333 -245 -43z
" />
    <glyph glyph-name="uni17B8" unicode="&#x17b8;" 
d="M-642 1966c76.667 6.66699 216.333 -25 419 -95l15 22l-216 110c-80 34.667 -154.667 50.334 -224 47.001c-70 -2.66699 -139 -62 -207 -178c65.333 55.333 136.333 86.666 213 93.999zM-149.001 1898l-149 -198l-125 34c-124.667 34 -235 52 -331 54
s-177.667 -12.333 -245 -43l36 113c36 112 78 199 126 261c47.333 62 101 98.667 161 110c60 10.667 119 12 177 4s129.667 -33.333 215 -76c84.667 -46 133.667 -95.667 147 -149c24.667 43.333 37 75.333 37 96c0 24 -14 53.333 -42 88l94 138l24 -41
c16 -28 24 -67 24 -117c0 -50.667 -49.667 -142 -149 -274z" />
    <glyph glyph-name="uni17B9" unicode="&#x17b9;" 
d="M-642 1966c76.667 6.66699 216.333 -25 419 -95l15 22l-216 110c-80 34.667 -154.667 50.334 -224 47.001c-70 -2.66699 -139 -62 -207 -178c65.333 55.333 136.333 86.666 213 93.999zM-134.001 1998c9.33301 -49.333 -4.99902 -94.667 -42.999 -136l-121 -162l-125 34
c-124.667 34 -235 52 -331 54s-177.667 -12.333 -245 -43l36 113c36 112 78 199 126 261c47.333 62 101 98.667 161 110c60 10.667 119 12 177 4c3.33301 -0.666992 6.33301 -1 9 -1c3.33301 34.667 14.333 68.334 33 101c22 38.667 52.5 68.334 91.5 89
c39 20.667 79.167 31 120.5 31c40.667 0 80.5 -10.333 119.5 -31s69.667 -50.334 92 -89c22.333 -38.667 33.5 -79 33.5 -121c0 -41.333 -10.833 -81 -32.5 -119s-51.834 -67.333 -90.501 -88c-3.33301 -2.66699 -7 -5 -11 -7zM-304 2335
c-30.667 9.33301 -55 5.33203 -73 -12.001c-17.333 -18 -19.666 -40 -6.99902 -66c12.667 -26.667 41 -58 85 -94c44.667 -36 82 -58.333 112 -67c30.667 -9.33301 55 -5.33301 73 12c17.333 17.333 19.666 39.333 6.99902 66c-12.667 26 -41 57 -85 93
c-44 36.667 -81.333 59.334 -112 68.001z" />
    <glyph glyph-name="uni17BA" unicode="&#x17ba;" 
d="M-642 1966c76.667 6.66699 216.333 -25 419 -95l15 22l-216 110c-80 34.667 -154.667 50.334 -224 47.001c-70 -2.66699 -139 -62 -207 -178c65.333 55.333 136.333 86.666 213 93.999zM-270.001 2150c76.667 -44 121 -91.333 133 -142c24.667 43.333 37 75.333 37 96
c0 24 -14 53.333 -42 88l94 138l24 -41c16 -28 24 -67 24 -117c0 -50.667 -49.667 -142 -149 -274l-149 -198l-125 34c-124.667 34 -235 52 -331 54s-177.667 -12.333 -245 -43l36 113c36 112 78 199 126 261c47.333 62 101 98.667 161 110c60 10.667 119 12 177 4
c49.333 -6.66699 108.333 -26 177 -58c14.667 30 22 53 22 69c0 24 -14 53.333 -42 88l94 138l24 -41c16 -28 24 -67 24 -117c0 -34.667 -23.333 -88.667 -70 -162z" />
    <glyph glyph-name="uni17BB" unicode="&#x17bb;" 
d="M-200 -500l-200 -200v450l200 200v-450z" />
    <glyph glyph-name="uni17BC" unicode="&#x17bc;" 
d="M-680 -291l-0.000976562 38.001c-33.333 -19.333 -46.666 -33.333 -39.999 -42s20 -7.33398 40 3.99902zM-630.001 -618.999c-33.333 27.333 -50 54.335 -50 81.002v170c-42 -16.667 -79 -15.334 -111 3.99902c-32.667 19.333 -49 42.333 -49 69c0 27.333 30 68 90 122
s110 81 150 81c39.333 0 79.333 -16.333 120 -49v-414c53.333 11.333 90 26.333 110 45c20 19.333 30 50.666 30 93.999c0 26.667 -10 53.667 -30 81c-20 26.667 -30 65.667 -30 117c0 30 16.667 58.667 50 86c32.667 26 82 50 148 72c-45.333 -48 -68 -87 -68 -117
c0 -35.333 21.667 -69 65 -101c43.333 -32.667 65 -78.667 65 -138c0 -38 -53 -88 -159 -150c-106 -62.667 -182.667 -94 -230 -94c-34 0 -67.667 13.667 -101 41z" />
    <glyph glyph-name="uni17BD" unicode="&#x17bd;" 
d="M-740 -291l-0.000976562 38.001c-33.333 -19.333 -46.666 -33.333 -39.999 -42s20 -7.33398 40 3.99902zM-695.001 -618.999c-30 27.333 -45 54.335 -45 81.002v170c-42 -16.667 -79 -15.334 -111 3.99902c-32.667 19.333 -49 42.333 -49 69c0 27.333 30 68 90 122
s110 81 150 81c26 0 59.333 -16.333 100 -49v-349l99 95l167 -135c14.667 10.667 22 33.667 22 69s-18.333 69 -55 101c-36.667 32.667 -55 80 -55 142c0 30 16.667 58.667 50 86c32.667 26 82 50 148 72c-45.333 -48 -68 -87 -68 -117c0 -35.333 21.667 -69 65 -101
c43.333 -32.667 65 -81.334 65 -146.001c0 -65.333 -27 -121 -81 -167s-95.333 -69 -124 -69s-63.667 17.333 -105 52l-63 52l-85 -78c-19.333 -17.333 -34 -26 -44 -26c-17.333 0 -41 13.667 -71 41z" />
    <glyph glyph-name="uni17BE" unicode="&#x17be;" 
d="M-642 1966c76.667 6.66699 216.333 -25 419 -95l15 22l-216 110c-80 34.667 -154.667 50.334 -224 47.001c-70 -2.66699 -139 -62 -207 -178c65.333 55.333 136.333 86.666 213 93.999zM-149.001 1898l-149 -198l-125 34c-124.667 34 -235 52 -331 54
s-177.667 -12.333 -245 -43l36 113c36 112 78 199 126 261c47.333 62 101 98.667 161 110c60 10.667 119 12 177 4s129.667 -33.333 215 -76c84.667 -46 133.667 -95.667 147 -149c24.667 43.333 37 75.333 37 96c0 24 -14 53.333 -42 88l94 138l24 -41
c16 -28 24 -67 24 -117c0 -50.667 -49.667 -142 -149 -274z" />
    <glyph glyph-name="uni17BF" unicode="&#x17bf;" horiz-adv-x="600" 
d="M-144 2138c76.667 5.33301 216.333 -17 419 -67l15 16l-216 78c-80 25.333 -154.667 36.666 -224 34c-70 -2 -139 -44.667 -207 -128c65.333 40 136.333 62.333 213 67zM399.999 -500c0 -66.667 -58.335 -133.333 -175.002 -200s-191.667 -100 -225 -100
s-86.333 21 -159 63c-160.667 91.333 -241 170.333 -241 237v150l113 113c24.667 24.667 45.334 37 62.001 37s25 -16.667 25 -50v-200c0 -22.667 46 -60.667 138 -114c92.667 -52.667 151.334 -79 176.001 -79s45 5 61 15c16.667 9.33301 25 52 25 128v2377
c0 48 -41.667 79.667 -125 95c-124.667 24.667 -235 37.667 -331 39c-96 2 -177.667 -8 -245 -30l36 80c36 80.667 78 143 126 187c47.333 44.667 101 71 161 79s119 9 177 3c49.333 -4.66699 108.333 -18.667 177 -42c14.667 21.333 22 38 22 50
c0 17.333 -14 38.333 -42 63l94 99l24 -29c16 -20.667 24 -49 24 -85c0 -24 -23.333 -62.333 -70 -115c76.667 -31.333 121 -65.333 133 -102c24.667 31.333 37 54.333 37 69c0 17.333 -14 38.333 -42 63l94 99l24 -30c16 -20 24 -47.667 24 -83
c0 -37.333 -24.667 -79.666 -74 -127l-102 -105c52 -24 78 -83.333 78 -178v-2377z" />
    <glyph glyph-name="uni17C0" unicode="&#x17c0;" horiz-adv-x="600" 
d="M400 -500c0 -66.667 -58.3359 -133.33 -175.003 -199.997s-191.667 -100 -225 -100s-86.333 21 -159 63c-160.667 91.333 -241 170.333 -241 237v150l113 113c24.667 24.667 45.334 37 62.001 37s25 -16.667 25 -50v-200c0 -22.667 46 -60.667 138 -114
c92.667 -52.667 151.334 -79 176.001 -79s45 5 61 15c16.667 9.33301 25 52 25 128v1360c0 40 -47.333 66.667 -142 80c-32 4 -48 19.333 -48 46s8.33301 60 25 100l165 414h150c30 0 52.667 -10 68 -30c14.667 -20.667 22 -51.334 22 -92.001c27.333 28 43 53.667 47 77
c4.66699 24 -30.333 92.333 -105 205c-74.667 113.333 -112 199 -112 257c0 55.333 18.667 107.666 56 156.999c37.333 50 100 90 188 120c-52.667 -72.667 -79 -138.667 -79 -198c0.666992 -40 23.334 -94.333 68.001 -163s67 -146.334 67 -233.001
c0 -146.667 -28 -253.667 -84 -321c-56.667 -67.333 -108.334 -93.666 -155.001 -78.999c8.66699 20.667 14.667 42.667 18 66c2.66699 23.333 -10.666 34.666 -39.999 33.999h-92l-69 -173c84 -15.333 147 -40 189 -74c42 -33.333 63 -76.333 63 -129v-1424z" />
    <glyph glyph-name="uni17C1" unicode="&#x17c1;" horiz-adv-x="600" 
d="M400 329c51.333 59.333 77 106 77 140c0 20.667 -12.333 31 -37 31h-40v-171zM200 860c0 40 -47.332 66.667 -141.999 80c-32 4 -48 19.333 -48 46s8.33301 60 25 100l165 414h300c0 -81.333 -8.66699 -150.333 -26 -207c-18 -57.333 -48 -98.333 -90 -123
c10.667 40.667 16 72.667 16 96c0 22.667 -16.667 34 -50 34h-133l-69 -173c84 -15.333 147 -40 189 -74c42 -33.333 63 -76.333 63 -129v-274h40c50 0 87.667 -10.667 113 -32c24.667 -22 37 -54.667 37 -98c0 -80 -42.333 -170 -127 -270l-170 -200
c-28.667 -33.333 -51.334 -50 -68.001 -50s-25 13.333 -25 40v820z" />
    <glyph glyph-name="uni17C2" unicode="&#x17c2;" horiz-adv-x="600" 
d="M400 329c51.333 59.333 77 106 77 140c0 20.667 -12.333 31 -37 31h-40v-171zM200 860c0 40 -47.332 66.667 -141.999 80c-32 4 -48 19.333 -48 46s8.33301 60 25 100l165 414h300c0 -81.333 -8.66699 -150.333 -26 -207c-18 -57.333 -48 -98.333 -90 -123
c10.667 40.667 16 72.667 16 96c0 22.667 -16.667 34 -50 34h-133l-69 -173c84 -15.333 147 -40 189 -74c42 -33.333 63 -76.333 63 -129v-274h40c50 0 87.667 -10.667 113 -32c24.667 -22 37 -54.667 37 -98c0 -80 -42.333 -170 -127 -270l-170 -200
c-28.667 -33.333 -51.334 -50 -68.001 -50s-25 13.333 -25 40v820zM695.001 2213c1.33301 -10 2.00098 -20.667 2.00098 -32c0 -91.333 -46.333 -210 -139 -356c-52 -82.667 -108 -142.334 -168 -179.001c-59.333 -36.667 -122.666 -51 -189.999 -43
c-150.667 22 -229.334 60 -236.001 114v7c0 28.667 21 90.667 63 186c31.333 58.667 69.333 101 114 127c44.667 25.333 95.334 34.333 152.001 27c58 -8 96 -24.667 114 -50c18 -24.667 16.333 -58 -5 -100c-34 -65.333 -101.667 -91.666 -203 -78.999
c10 28.667 -1.33301 45 -34 49c-33.333 4 -56.333 -6.33301 -69 -31c-13.333 -25.333 46.667 -47 180 -65c110.667 -11.333 192 36.667 244 144s63.333 184 34 230s-94 84.667 -194 116c97.333 81.333 169.666 122 216.999 122c18.667 0 33.667 -6.33301 45 -19
c39.333 -44.667 63.666 -100.667 72.999 -168z" />
    <glyph glyph-name="uni17C3" unicode="&#x17c3;" horiz-adv-x="600" 
d="M400 329c51.333 59.333 77 106 77 140c0 20.667 -12.333 31 -37 31h-40v-171zM200 860c0 40 -47.332 66.667 -141.999 80c-32 4 -48 19.333 -48 46s8.33301 60 25 100l165 414h300c0 -81.333 -8.66699 -150.333 -26 -207c-18 -57.333 -48 -98.333 -90 -123
c10.667 40.667 16 72.667 16 96c0 22.667 -16.667 34 -50 34h-133l-69 -173c84 -15.333 147 -40 189 -74c42 -33.333 63 -76.333 63 -129v-274h40c50 0 87.667 -10.667 113 -32c24.667 -22 37 -54.667 37 -98c0 -80 -42.333 -170 -127 -270l-170 -200
c-28.667 -33.333 -51.334 -50 -68.001 -50s-25 13.333 -25 40v820zM224.001 1899c-34 -66 -8.66699 -98.998 76 -98.998c116.667 0 187 28.333 211 85c23.333 56.667 -13.667 85 -111 85c-203.333 0 -325.333 -24.667 -366 -74c83.333 218 111.666 340.333 84.999 367
c-26.667 26 -93 38.333 -199 37c52 133.333 106.333 200 163 200s111.334 -20.333 164.001 -61c52.667 -41.333 37.334 -160.333 -45.999 -357c53.333 58.667 119.666 88 198.999 88c112.667 0 188 -24.667 226 -74c16.667 -21.333 25 -48.333 25 -81
c0 -4.66699 -0.333008 -9.33398 -1 -14.001c-2 -38.667 -14.667 -84.334 -38 -137.001c-39.333 -88 -85 -154 -137 -198s-110.333 -66 -175 -66c-170.667 0 -256 36.667 -256 110c0.666992 73.333 60.667 136.333 180 189z" />
    <glyph glyph-name="uni17C4" unicode="&#x17c4;" horiz-adv-x="600" 
d="M-150 1300c0 66.667 8.33301 116.667 25 150s41.667 50 75 50h450v-1350l-200 -200v1350h-350z" />
    <glyph glyph-name="uni17C5" unicode="&#x17c5;" horiz-adv-x="600" 
d="M200 1242l-0.000976562 58.0029h-350c0 66.667 8.33301 116.667 25 150s41.667 50 75 50h337c-10.667 47.333 -35.667 100.666 -75 159.999c-74.667 113.333 -112 199 -112 257c0 55.333 18.667 107.666 56 156.999c37.333 50 100 90 188 120
c-52.667 -72.667 -79 -138.667 -79 -198c0.666992 -40 23.334 -94.333 68.001 -163s67 -146.334 67 -233.001c0 -36 -1.66699 -69.333 -5 -100h5v-1350l-200 -200v1247c-13.333 -2 -26.333 -1 -39 3c14 13.333 27 27.333 39 42z" />
    <glyph glyph-name="uni17C6" unicode="&#x17c6;" 
d="M-666 2051c-34 11.333 -61 6 -81 -16c-20 -21.333 -22.667 -48.666 -8 -81.999c14 -32.667 45.667 -71.334 95 -116.001c49.333 -45.333 91 -73.666 125 -84.999s61 -6 81 16c20 21.333 22.667 48.666 8 81.999c-14 32.667 -45.667 71.334 -95 116.001
c-49.333 45.333 -91 73.666 -125 84.999zM-601 2198c46 0 90.8311 -13 134.498 -39s78 -63 103 -111s37.5 -98.333 37.5 -151c0 -51.333 -12.167 -100.666 -36.5 -147.999s-58.166 -84.166 -101.499 -110.499s-89 -39.5 -137 -39.5c-47.333 0 -92.833 13.167 -136.5 39.5
s-77.5 63.166 -101.5 110.499s-36 96.666 -36 147.999c0 52.667 12.333 103 37 151s58.834 85 102.501 111s88.5 39 134.5 39z" />
    <glyph glyph-name="uni17C7" unicode="&#x17c7;" horiz-adv-x="950" 
d="M409 1352c-34 11.333 -61 6 -81 -16c-20 -21.333 -22.667 -48.666 -8 -81.999c14 -32.667 45.667 -71.334 95 -116.001c49.333 -45.333 91 -73.666 125 -84.999s61 -6 81 16c20 21.333 22.667 48.666 8 81.999c-14 32.667 -45.667 71.334 -95 116.001
c-49.333 45.333 -91 73.666 -125 84.999zM474 1499c46 0 90.8311 -13 134.498 -39s78 -63 103 -111s37.5 -98.333 37.5 -151c0 -51.333 -12.167 -100.666 -36.5 -147.999s-58.166 -84.166 -101.499 -110.499s-89 -39.5 -137 -39.5c-47.333 0 -92.833 13.167 -136.5 39.5
s-77.5 63.166 -101.5 110.499s-36 96.666 -36 147.999c0 52.667 12.333 103 37 151s58.834 85 102.501 111s88.5 39 134.5 39zM408.998 452c-34 11.333 -61 6 -81 -16c-20 -21.333 -22.667 -48.666 -8 -81.999c14 -32.667 45.667 -71.334 95 -116.001
c49.333 -45.333 91 -73.666 125 -84.999s61 -6 81 16c20 21.333 22.667 48.666 8 81.999c-14 32.667 -45.667 71.334 -95 116.001c-49.333 45.333 -91 73.666 -125 84.999zM473.998 599c46 0 91 -13 135 -39c43.333 -26 77.666 -63 102.999 -111
c24.667 -48 37 -98.333 37 -151c0 -51.333 -12 -100.666 -36 -147.999c-24.667 -47.333 -58.667 -84 -102 -110c-43.333 -26.667 -89 -40 -137 -40c-47.333 0 -92.666 13.333 -135.999 40c-44 26 -78 62.667 -102 110s-36 96.666 -36 147.999c0 52.667 12.333 103 37 151
s59 85 103 111c43.333 26 88 39 134 39z" />
    <glyph glyph-name="uni17C8" unicode="&#x17c8;" horiz-adv-x="700" 
d="M200 1000v300h300v-300h-300zM200 0v300h300v-300h-300z" />
    <glyph glyph-name="uni17C9" unicode="&#x17c9;" 
d="M-500 1600v550l200 200v-550zM-900 1600v550l200 200v-550z" />
    <glyph glyph-name="uni17CA" unicode="&#x17ca;" 
d="M-1065 1584c-10 4.66699 -15.002 14.002 -15.002 28.002c0 18 8 43 24 75l106 213h310c26.667 0 40 -33.333 40 -100c43.333 66.667 80 100 110 100h290c0 -81.333 -8.66699 -150.333 -26 -207c-18 -57.333 -54.667 -104.666 -110 -141.999
c14 53.333 22.667 91.666 26 114.999c2.66699 23.333 -10.666 34.666 -39.999 33.999h-180c-39.333 0 -82.666 -40 -129.999 -120c20 80 10 120 -30 120h-262l-22 -46c-14.667 -30.667 11 -46.334 77 -47.001c-28 -26 -57 -39 -87 -39c-30.667 0 -57.667 5.33301 -81 16z
" />
    <glyph glyph-name="uni17CB" unicode="&#x17cb;" 
d="M-700 1600v550l200 200v-550z" />
    <glyph glyph-name="uni17CC" unicode="&#x17cc;" 
d="M-200 1869c-90.667 0 -170.669 13.668 -240.002 41.001c-69.333 26.667 -122.666 40 -159.999 40c-102 0 -187 -57.667 -255 -173c65.333 55.333 136.333 86.666 213 93.999c76 6.66699 188 -15.333 336 -66c40.667 -14 66.667 -31 78 -51
c10.667 -20 6.33398 -43.333 -12.999 -70l-57 -79l-125 34c-124.667 34 -235 52 -331 54s-177.667 -12.333 -245 -43l36 113c36 112 81.333 204.333 136 277c54 72.667 129.667 109.334 227 110c92 0 185.667 -25 281 -75c94.667 -50 155 -75 181 -75
c25.333 0 38 9.66699 38 29c0 24 -14 46.667 -42 68l94 138l24 -41c16 -28 24 -67 24 -117c0 -50.667 -17 -98 -51 -142s-83.667 -66 -149 -66z" />
    <glyph glyph-name="uni17CD" unicode="&#x17cd;" 
d="M-564 1599l-89.001 0.998047c-106 0 -190 19 -252 57s-93 79 -93 123v1c0 44 41 117.333 123 220c56 66.667 114.667 106.334 176 119.001c61.333 12 125.333 -3 192 -45c84 -54.667 137.333 -124 160 -208c17.333 0.666992 50 89.667 98 267
c24 88.667 57.333 155 100 199c42.667 44.667 95 67 157 67h91l-91 -200c-92 0 -150.333 -41.667 -175 -125l-37 -125c-49.333 -166.667 -98.666 -250 -147.999 -250c-61.333 70.667 -142 137.334 -242 200.001c-110 68 -185.333 80.333 -226 37
c-40 -44 -35.333 -82 14 -114c134 -82 236 -123 306 -123z" />
    <glyph glyph-name="uni17CE" unicode="&#x17ce;" 
d="M-499 1941v-141l-200 -200v341h-165l-110 99h275v110l200 200v-310h155l120 -99h-275z" />
    <glyph glyph-name="uni17CF" unicode="&#x17cf;" 
d="M-354 1854c29.333 -36.667 15.667 -88.333 -41 -155c-56.667 -66 -108 -99 -154 -99s-98.333 27 -157 81l-102 -81c-128 76.667 -192 137 -192 181s35.667 125 107 243c71.333 117.333 135.666 176 192.999 176c92 0 166.667 -54.667 224 -164
c24 0.666992 42.667 58 56 172c13.333 113.333 41 190.333 83 231c41.333 40.667 93 61 155 61h91l-91 -200c-78.667 0 -128 -58.333 -148 -175c-10 -58 -31.333 -101.667 -64 -131c-33.333 -29.333 -64 -44 -92 -44s-58.667 8.33301 -92 25s-74 25 -122 25
c-60.667 0 -106 -21.333 -136 -64c-30.667 -42.667 7 -101 113 -175l101 86c92.667 -102 145.334 -145.667 158.001 -131c12 14.667 -9.33301 60.334 -64 137.001c86 37.333 144 37.666 174 0.999023z" />
    <glyph glyph-name="uni17D0" unicode="&#x17d0;" 
d="M-377 1606c-28 -6 -56.6641 -9 -85.9971 -9c-39.333 0 -80 5.66699 -122 17c-143.333 38.667 -215 83.667 -215 135c0 24.667 29 82.667 87 174c38 51.333 80.333 86.666 127 105.999c46 18.667 96.333 21.334 151 8.00098c55.333 -14.667 90 -35 104 -61
c14 -25.333 8 -56.333 -18 -93c-20.667 -28 -48.334 -46 -83.001 -54c-34.667 -8.66699 -76 -7.33398 -124 3.99902c13.333 25.333 4.33301 42 -27 50c-32 7.33301 -55.333 0 -70 -22c-16 -22 39.333 -49.333 166 -82c62.667 -16.667 117.667 -23 165 -19
c47.333 4.66699 86.666 19.667 117.999 45c31.333 24.667 49.333 53.667 54 87c5.33301 32.667 -3 69.334 -25 110.001c-42.667 82 -64 163 -64 243c0 41.333 15 80.666 45 118c29.333 37.333 78.666 67 147.999 89c-41.333 -54.667 -62 -103.667 -62 -147
c0.666992 -24 18.667 -67.667 54 -131c35.333 -64 53 -128 53 -192c0 -45.333 -15.333 -91.666 -46 -138.999c-30.667 -46.667 -76.667 -94.334 -138 -143.001s-125.333 -80 -192 -94z" />
    <glyph glyph-name="uni17D1" unicode="&#x17d1;" 
d="M-100 1800l-200 -200h-800l200 200h800z" />
    <glyph glyph-name="uni17D2" unicode="&#x17d2;" 
d="M-400 -450h-150v-150h-100v150h-150v100h150v150h100v-150h150v-100z" />
    <glyph glyph-name="uni17D3" unicode="&#x17d3;" 
d="M-752 1798c0 -33.333 12.333 -58.333 37 -75c26 -16.667 64.333 -25 115 -25s89 8.33301 115 25c24.667 16.667 37 41.667 37 75s-12.333 58.333 -37 75c-26 16.667 -64.333 25 -115 25s-89 -8.33301 -115 -25c-24.667 -16.667 -37 -41.667 -37 -75zM-249 1798
c0 -66.667 -29.333 -116.667 -88 -150c-58 -33.333 -145.333 -50 -262 -50s-204 16.667 -262 50c-59.333 33.333 -89 83.333 -89 150s29.667 116.667 89 150c58 33.333 145.333 50 262 50s204 -16.667 262 -50c58.667 -33.333 88 -83.333 88 -150z" />
    <glyph glyph-name="uni17D4" unicode="&#x17d4;" horiz-adv-x="1400" 
d="M1000 1126l0.000976562 174.003l200 200v-1340c0 -70.667 -67 -144.334 -201 -221.001c-66.667 -38.667 -128.334 -61 -185.001 -67c-56 -6 -107 4 -153 30s-91.333 40.333 -136 43c-44.667 3.33301 -93 -26 -145 -88c-2 16.667 -2.66699 31.667 -2 45
s2.33398 25 5.00098 35c10 32 33 66.333 69 103c36 37.333 81 61.666 135 72.999c54.667 12 109 2 163 -30c108.667 -63.333 177.667 -86.333 207 -69c28.667 16.667 43 52 43 106v899c-134 -107.333 -235.667 -161 -305 -161c-89.333 -0.666992 -164 14.333 -224 45
c-180.667 92.667 -271 182 -271 268c0 19.333 44.333 79 133 179s161 150 217 150c94.667 0 176.667 -49.333 246 -148c46.667 -62.667 18 -135.334 -86 -218.001l-62 83c-41.333 55.333 -74 83 -98 83c-70.667 0 -113.334 -9 -128.001 -27
c-14.667 -17.333 -22 -46.333 -22 -87c0 -14.667 59 -51.667 177 -111c117.333 -60 190 -90 218 -90s79 32 153 96z" />
    <glyph glyph-name="uni17D5" unicode="&#x17d5;" horiz-adv-x="1800" 
d="M1000 1126l0.000976562 174.003l200 200v-1560c0 -70.667 -67 -144.334 -201 -221.001c-66.667 -38.667 -128.334 -61 -185.001 -67c-56 -6 -107 4 -153 30s-91.333 40.333 -136 43c-44.667 3.33301 -93 -26 -145 -88c-2 16.667 -2.66699 31.667 -2 45
s2.33398 25 5.00098 35c10 32 33 66.333 69 103c36 37.333 81 61.666 135 72.999c54.667 12 109 2 163 -30c108.667 -63.333 177.667 -86.333 207 -69c28.667 16.667 43 52 43 106v1119c-134 -107.333 -235.667 -161 -305 -161c-89.333 -0.666992 -164 14.333 -224 45
c-180.667 92.667 -271 182 -271 268c0 19.333 44.333 79 133 179s161 150 217 150c94.667 0 176.667 -49.333 246 -148c46.667 -62.667 18 -135.334 -86 -218.001l-62 83c-41.333 55.333 -74 83 -98 83c-70.667 0 -113.334 -9 -128.001 -27
c-14.667 -17.333 -22 -46.333 -22 -87c0 -14.667 59 -51.667 177 -111c117.333 -60 190 -90 218 -90s79 32 153 96zM1400 1300l200 200v-1650l-200 -200v1650z" />
    <glyph glyph-name="uni17D6" unicode="&#x17d6;" horiz-adv-x="950" 
d="M409 1352c-34 11.333 -61 6 -81 -16c-20 -21.333 -22.667 -48.666 -8 -81.999c14 -32.667 45.667 -71.334 95 -116.001c49.333 -45.333 91 -73.666 125 -84.999s61 -6 81 16c20 21.333 22.667 48.666 8 81.999c-14 32.667 -45.667 71.334 -95 116.001
c-49.333 45.333 -91 73.666 -125 84.999zM474 1499c46 0 90.8311 -13 134.498 -39s78 -63 103 -111s37.5 -98.333 37.5 -151c0 -51.333 -12.167 -100.666 -36.5 -147.999s-58.166 -84.166 -101.499 -110.499s-89 -39.5 -137 -39.5c-47.333 0 -92.833 13.167 -136.5 39.5
s-77.5 63.166 -101.5 110.499s-36 96.666 -36 147.999c0 52.667 12.333 103 37 151s58.834 85 102.501 111s88.5 39 134.5 39zM408.998 452c-34 11.333 -61 6 -81 -16c-20 -21.333 -22.667 -48.666 -8 -81.999c14 -32.667 45.667 -71.334 95 -116.001
c49.333 -45.333 91 -73.666 125 -84.999s61 -6 81 16c20 21.333 22.667 48.666 8 81.999c-14 32.667 -45.667 71.334 -95 116.001c-49.333 45.333 -91 73.666 -125 84.999zM473.998 599c46 0 91 -13 135 -39c43.333 -26 77.666 -63 102.999 -111
c24.667 -48 37 -98.333 37 -151c0 -51.333 -12 -100.666 -36 -147.999c-24.667 -47.333 -58.667 -84 -102 -110c-43.333 -26.667 -89 -40 -137 -40c-47.333 0 -92.666 13.333 -135.999 40c-44 26 -78 62.667 -102 110s-36 96.666 -36 147.999c0 52.667 12.333 103 37 151
s59 85 103 111c43.333 26 88 39 134 39zM99.998 700l100 100h650l-100 -100h-650z" />
    <glyph glyph-name="uni17D7" unicode="&#x17d7;" horiz-adv-x="1400" 
d="M1000 1289l-82.999 -93.998c-55.333 -63.333 -104.333 -95 -147 -95s-80.334 19.667 -113.001 59l-49 58c-41.333 55.333 -77.333 83 -108 83c-37.333 0 -63.333 -9 -78 -27c-28 -24 -42 -69.667 -42 -137c0 -20.667 19.667 -38.334 59 -53.001
c38.667 -14 90.334 -8.33301 155.001 17l-4 -32c-40 -54.667 -81.333 -90 -124 -106c-42 -15.333 -85.667 -11.666 -131 11.001c-90 46 -135 98.667 -135 158c0 46 44.333 119 133 219s151 150 187 150c81.333 0 156.666 -49.333 225.999 -148l80 -94l224 242l150 -150
v-1410c0 -70.667 -67 -144.334 -201 -221.001c-66.667 -38.667 -128.334 -61 -185.001 -67c-56 -6 -107 4 -153 30s-91.333 40.333 -136 43c-44.667 3.33301 -93 -26 -145 -88c-2 16.667 -2.66699 31.667 -2 45s2.33398 25 5.00098 35c10 32 33 66.333 69 103
c36 37.333 81 61.666 135 72.999c54.667 12 109 2 163 -30c108.667 -63.333 177.667 -86.333 207 -69c28.667 16.667 43 52 43 106v1389z" />
    <glyph glyph-name="uni17D8" unicode="&#x17d8;" horiz-adv-x="4400" 
d="M1000 1126l0.000976562 174.003l200 200v-1350c0 -70.667 -67 -144.334 -201 -221.001c-66.667 -38.667 -128.334 -61 -185.001 -67c-56 -6 -107 4 -153 30s-91.333 40.333 -136 43c-44.667 3.33301 -93 -26 -145 -88c-2 16.667 -2.66699 31.667 -2 45
s2.33398 25 5.00098 35c10 32 33 66.333 69 103c36 37.333 81 61.666 135 72.999c54.667 12 109 2 163 -30c108.667 -63.333 177.667 -86.333 207 -69c28.667 16.667 43 52 43 106v909c-134 -107.333 -235.667 -161 -305 -161c-89.333 -0.666992 -164 14.333 -224 45
c-180.667 92.667 -271 182 -271 268c0 19.333 44.333 79 133 179s161 150 217 150c94.667 0 176.667 -49.333 246 -148c46.667 -62.667 18 -135.334 -86 -218.001l-62 83c-41.333 55.333 -74 83 -98 83c-70.667 0 -113.334 -9 -128.001 -27
c-14.667 -17.333 -22 -46.333 -22 -87c0 -14.667 59 -51.667 177 -111c117.333 -60 190 -90 218 -90s79 32 153 96zM1800 309.003c60 59.333 90 109.333 90 150c0 27.333 -13.333 41 -40 41h-50v-191zM2400 410.003c0 -26.667 -6.66797 -46.999 -20.001 -60.999
c0 -22 48 -59.333 144 -112c100 -53.333 162.667 -80 188 -80s46 5 62 15c17.333 9.33301 26 52 26 128v560c0 40 -47.333 66.667 -142 80c-32 4 -48 19.333 -48 46s8.33301 60 25 100l165 414h300c0 -81.333 -8.66699 -150.333 -26 -207c-18 -57.333 -48 -98.333 -90 -123
c10.667 40.667 16 72.667 16 96c0 22.667 -16.667 34 -50 34h-133l-69 -173c84 -15.333 147 -40 189 -74c42 -33.333 63 -76.333 63 -129v-624c0 -66.667 -59.667 -133.334 -179 -200.001c-120 -66.667 -197 -100 -231 -100s-88.333 21 -163 63
c-82 46 -143.667 88.667 -185 128s-72.666 90.666 -93.999 153.999c21.333 9.33301 35.333 20.833 42 34.5s10 30.5 10 50.5v870h-583l-49 -133c70.667 -15.333 127 -39.666 169 -72.999c42 -34 63 -77.333 63 -130v-314h50c100 0 150 -50 150 -150
s-43.667 -193.667 -131 -281l-175 -175c-29.333 -29.333 -52.333 -44 -69 -44s-25 13.333 -25 40v860c0 40 -40.667 66.667 -122 80c-32 4 -48 19.333 -48 46s8.33301 60 25 100l145 374h800v-1090zM4000 1126v174.003l200 200v-1350c0 -70.667 -67 -144.334 -201 -221.001
c-66.667 -38.667 -128.334 -61 -185 -67c-56 -6 -107 4 -153 30s-91.333 40.333 -136 43c-44.667 3.33301 -93 -26 -145 -88c-2 16.667 -2.66699 31.667 -2 45s2.33398 25 5 35c10 32 33 66.333 69 103c36 37.333 81 61.666 135 72.999c54.667 12 109 2 163 -30
c108.667 -63.333 177.667 -86.333 207 -69c28.667 16.667 43 52 43 106v909c-134 -107.333 -235.667 -161 -305 -161c-89.333 -0.666992 -164 14.333 -224 45c-180.667 92.667 -271 182 -271 268c0 19.333 44.333 79 133 179s161 150 217 150
c94.667 0 176.667 -49.333 246 -148c46.667 -62.667 18 -135.334 -86 -218.001l-62 83c-41.333 55.333 -74 83 -98 83c-70.667 0 -113.334 -9 -128 -27c-14.667 -17.333 -22 -46.333 -22 -87c0 -14.667 59 -51.667 177 -111c117.333 -60 190 -90 218 -90s79 32 153 96z" />
    <glyph glyph-name="uni17D9" unicode="&#x17d9;" horiz-adv-x="1550" 
d="M775 0c-158 0 -276.667 58.333 -356 175s-119 291.667 -119 525s39.667 408.333 119 525s198 175 356 175s276.667 -58.333 356 -175s119 -291.667 119 -525s-39.667 -408.333 -119 -525s-198 -175 -356 -175zM775 1283c-118.667 0 -207.667 -48.333 -267 -145
c-59.333 -97.333 -89 -243.333 -89 -438s29.667 -340.667 89 -438c59.333 -96.667 148.333 -145 267 -145s207.667 48.333 267 145c59.333 97.333 89 243.333 89 438s-29.667 340.667 -89 438c-59.333 96.667 -148.333 145 -267 145zM775 233
c-79.333 0 -138.666 39 -177.999 117s-59 194.667 -59 350s19.667 272 59 350s98.666 117 177.999 117s138.666 -39 177.999 -117s59 -194.667 59 -350s-19.667 -272 -59 -350s-98.666 -117 -177.999 -117zM775 1050c-39.333 0 -69 -29 -89 -87
c-20 -58.667 -30 -146.334 -30 -263.001s10 -204 30 -262c20 -58.667 49.667 -88 89 -88s69 29.333 89 88c20 58 30 145.333 30 262s-10 204.334 -30 263.001c-20 58 -49.667 87 -89 87z" />
    <glyph glyph-name="uni17DA" unicode="&#x17da;" horiz-adv-x="3501" 
d="M2871 538c10 -19.333 13.333 -30.333 10 -33c-10 -8.66699 -18.333 -8 -25 2c-4 6 1 16.333 15 31zM1543 979c-4.66699 6 -8.66699 11.999 -12 17.999c-39.333 60.667 -51 101.667 -35 123c32 42.667 65.667 46.334 101 11.001c18 -18 0 -68.667 -54 -152zM1821 438.999
c39.333 -54.667 52.001 -87.666 38.001 -98.999c-28.667 -22.667 -54.667 -20.334 -78 6.99902c-10.667 13.333 2.66602 44 39.999 92zM2161 1018c-28.667 47.333 -36.999 75.333 -24.999 84c24.667 18 45.667 15.333 63 -8c7.33301 -10 -5.33398 -35.333 -38.001 -76z
M2388 468c12 -20 16 -31.332 12 -33.999c-12.667 -8 -23.334 -7 -32 3c-3.33301 3.33301 3.33398 13.666 20 30.999zM2732 979.001c-8 15.333 -10 24.668 -6 28.001c12 10.667 22 12 30 4c2.66699 -2.66699 -5.33301 -13.334 -24 -32.001zM2864 794.003l-47.002 60.0059
c19.333 23.333 35.333 45.333 48 66c42.667 70.667 46.334 128.334 11 173.001c-36 44.667 -74 69.667 -114 75c-40 6 -82 -7.66699 -126 -41c-44.667 -33.333 -57 -84.333 -37 -153c7.33301 -25.333 18.666 -53 34 -83l-125 -104c-39.333 -32.667 -74.333 -64 -105 -94
c-23.333 33.333 -49.666 68.333 -79 105l-81 103c22.667 32.667 41.334 63 56 91c45.333 88 49 156.333 11 205s-79.333 75.667 -124 81c-44 5.33301 -91.667 -11.334 -143 -50.001s-62.333 -102 -33 -190c14.667 -44 32.667 -85.667 54 -125
c-38 -39.333 -84 -84.333 -138 -135c-41.333 -40.667 -78.333 -79.334 -111 -116.001c-26 30.667 -54.667 62.667 -86 96c-35.333 37.333 -67 72.333 -95 105c24 40.667 43.667 78.667 59 114c50 116.667 50.333 203 1 259s-98.333 83.667 -147 83
c-49.333 -0.666992 -98.666 -29.334 -147.999 -86.001s-55 -132.667 -17 -228c17.333 -43.333 44 -90.666 80 -141.999c-51.333 -70 -117 -153 -197 -249c-128.667 -154.667 -247 -270.667 -355 -348s-206 -116 -294 -116c-88.667 0 -155 50 -199 150s-66 250 -66 450
c-0.666992 200 26.333 350 81 450c54 100 135 150 243 150s189.333 -21.333 244 -64c54 -42 81 -105 81 -189c0 -94 -19.667 -169.667 -59 -227s-98 -96 -176 -116c-56.667 -15.333 -78.334 -47.333 -65.001 -96c13.333 -48 48 -64 104 -48
c115.333 29.333 202 85.333 260 168c57.333 82 86 190.667 86 326c0 132 -39.333 231 -118 297c-79.333 66 -198.333 99 -357 99c-158 0 -276.667 -62.667 -356 -188c-79.333 -124.667 -119 -312 -119 -562s34.667 -437.667 104 -563c69.333 -124.667 173 -187 311 -187
c111.333 0 232.333 44.667 363 134c130 88.667 269.333 222 418 400c62 74.667 115.333 144 160 208l73 -80l99 -108c-24 -34 -43.333 -66 -58 -96c-42.667 -86.667 -43 -154.667 -1 -204s86.667 -76 134 -80s97.333 14 150 54s60.334 104 23.001 192
c-15.333 36 -37.666 75.667 -66.999 119l129 128c42 42 79.333 81.667 112 119l69 -86l86 -113c-16 -20.667 -29.667 -40.334 -41 -59.001c-42.667 -73.333 -46.667 -132.333 -12 -177s72.334 -70 113 -76c40 -6 82.667 8 128 42s54 91 26 171c-8 22 -18.667 45.667 -32 71
l133 110c37.333 30 71.333 59 102 87c10 -14 21 -28.333 33 -43l32 -46c-49.333 -40 -79 -80 -89 -120c-10 -42.667 2 -85.334 36 -128.001s70.667 -66.334 110 -71.001c38.667 -5.33301 80 8.66699 124 42s57.333 83.666 40 150.999c-6 23.333 -15.667 48.666 -29 75.999
c44 22 94.667 33 152 33h120c66 0 99 25 99 75s-31.667 75 -95 75c-98 0 -185.333 -10.667 -262 -32c-30.667 -8 -59.667 -18 -87 -30c-12.667 18 -26.667 36.667 -42 56z" />
    <glyph glyph-name="uni17DB" unicode="&#x17db;" horiz-adv-x="600" 
d="M203 484l-53 -43l53 -62v105zM400 700v-550.001l-112 -112c-25.333 -25.333 -46.333 -38 -63 -38s-25 11.667 -25 35c0 54.667 -31.667 112.667 -95 174c-63.333 60.667 -95 124.334 -95 191.001c0 33.333 16.667 61 50 83l140 97v120h-190l100 100h90v60
c0 40 -47.333 66.667 -142 80c-32 4 -48 19.333 -48 46s8.33301 60 25 100l165 414h300c0 -81.333 -8.66699 -150.333 -26 -207c-18 -57.333 -48 -98.333 -90 -123c10.667 40.667 16 72.667 16 96c0 22.667 -16.667 34 -50 34h-133l-69 -173c84 -15.333 147 -40 189 -74
c42 -33.333 63 -76.333 63 -129v-124h190l-100 -100h-90z" />
    <glyph glyph-name="uni17DC" unicode="&#x17dc;" horiz-adv-x="1536" 
d="M256 0v1280h1024v-1280h-1024zM288 32h960v1216h-960v-1216z" />
    <glyph glyph-name="uni17DD" unicode="&#x17dd;" horiz-adv-x="1536" 
d="M256 0v1280h1024v-1280h-1024zM288 32h960v1216h-960v-1216z" />
    <glyph glyph-name="uni17E0" unicode="&#x17e0;" horiz-adv-x="1200" 
d="M400 350c0 -22.667 46 -60.667 138 -114c92.667 -52.667 151.334 -79 176.001 -79s45 5 61 15c16.667 9.33301 25 52 25 128v850c0 22.667 -46 60.667 -138 114c-92.667 52.667 -151.334 79 -176.001 79s-45 -5 -61 -15c-16.667 -9.33301 -25 -52 -25 -128v-850z
M200 1200c0 66.667 58.333 133.334 175 200.001s191.667 100 225 100s86.333 -21 159 -63c160.667 -91.333 241 -170.333 241 -237v-900c0 -66.667 -58.333 -133.334 -175 -200.001s-191.667 -100 -225 -100s-86.333 21 -159 63c-160.667 91.333 -241 170.333 -241 237v900z
" />
    <glyph glyph-name="uni17E1" unicode="&#x17e1;" horiz-adv-x="1200" 
d="M400 1000v-191c60 59.333 90 109.333 90 150c0 27.333 -13.333 41 -40 41h-50zM800 1150c0 22.667 -45.999 60.667 -137.999 114c-92.667 52.667 -151.334 79 -176.001 79s-45 -5 -61 -15c-16.667 -9.33301 -25 -52 -25 -128v-50h50c100 0 150 -50 150 -150
s-43.667 -193.667 -131 -281l-169 -169l-100 99v551c0 66.667 58.333 133.334 175 200.001s191.667 100 225 100s86.333 -21 159 -63c160.667 -91.333 241 -170.333 241 -237v-910c0 -70.667 -67 -144.334 -201 -221.001c-66.667 -38.667 -128.334 -61 -185.001 -67
c-56 -6 -107 4 -153 30s-91.333 40.333 -136 43c-44.667 3.33301 -93 -26 -145 -88c-1.33301 12.667 -2 24.334 -2 35.001v10c0.666992 13.333 2.33398 25 5.00098 35c10 32 33 66.333 69 103c36 37.333 81 61.666 135 72.999c54.667 12 109 2 163 -30
c108.667 -63.333 177.667 -86.333 207 -69c28.667 16.667 43 52 43 106v900z" />
    <glyph glyph-name="uni17E2" unicode="&#x17e2;" horiz-adv-x="1500" 
d="M1100 1300l-60 0.000976562c-59.333 0 -128.666 -54 -207.999 -162l7 41c14 80.667 1 121 -39 121h-182c-22.667 -53.333 -23.834 -93.666 -3.50098 -120.999s91.5 -61 213.5 -101c-27.333 -72 -70.666 -128.333 -129.999 -169c-74.667 16 -126.334 34.333 -155.001 55
s-43 78.667 -43 174c0 94.667 16.667 178.667 50 252l50 110h240c46.667 0 70 -43.333 70 -130c50 86.667 103.333 130 160 130h230v-1200c0 -66.667 -83.667 -133.334 -251 -200.001s-274.333 -100 -321 -100c-46 0 -120 21 -222 63c-112 46 -195.667 88.667 -251 128
s-97.333 90.666 -126 153.999c28.667 9.33301 47.667 20.833 57 34.5s14 30.5 14 50.5v1253c0 42 -16.667 75 -50 99c-33.333 24.667 -83.333 40.667 -150 48l99 50c32.667 16.667 65.667 25 99 25s67 -8.66699 101 -26c67.333 -34 101 -100.333 101 -199v-1240
c0 -26.667 -9 -47 -27 -61c0 -22 78.333 -64.5 235 -127.5s252 -94.5 286 -94.5c34.667 0 77.667 4.83301 129 14.5s77 52.5 77 128.5v1000z" />
    <glyph glyph-name="uni17E3" unicode="&#x17e3;" horiz-adv-x="1600" 
d="M400 309c60 59.333 90 109.333 90 150c0 27.333 -13.333 41 -40 41h-50v-191zM700 1150c0 22.667 -36.998 60.666 -110.998 113.999c-74 52.667 -120.333 79 -139 79c-18 0 -31 -4.66699 -39 -14c-7.33301 -10 -11 -53 -11 -129v-550h50c50 0 87.667 -12.333 113 -37
c24.667 -25.333 37 -63 37 -113c0 -100 -43.667 -193.667 -131 -281l-175 -175c-29.333 -29.333 -52.333 -44 -69 -44s-25 13.333 -25 40v1160c0 66.667 51 133.334 153 200.001s167.667 100 197 100s75.666 -21 138.999 -63c42 -27.333 77.667 -53.333 107 -78
c16.667 13.333 35.667 27 57 41c102 66.667 167.667 100 197 100s75.666 -21 138.999 -63c140.667 -91.333 211 -170.333 211 -237v-1050l-200 -200v1200c0 22.667 -37 60.667 -111 114c-74 52.667 -120.333 79 -139 79c-18 0 -31 -4.66699 -39 -14
c-7.33301 -10 -11 -53 -11 -129v-1050l-200 -200v1200z" />
    <glyph glyph-name="uni17E4" unicode="&#x17e4;" horiz-adv-x="1200" 
d="M662 1336c92 42.667 138 97.333 138 164c0 80 -16.667 146.667 -50 200s-50 109 -50 167c0 55.333 18.667 107.666 56 156.999c37.333 50 100 90 188 120c-52.667 -72.667 -79 -138.667 -79 -198c0.666992 -40 23.334 -94.333 68.001 -163s67 -163 67 -283
c0 -94.667 -74 -171 -222 -229c-148.667 -58.667 -248.667 -119.667 -300 -183c-52 -64 -78 -133.333 -78 -208v-720l119 214c230.667 -145.333 352 -204.666 364 -177.999c11.333 26 -33 73 -133 141s-150 172.333 -150 313c0 116.667 21.667 204.334 65 263.001
c43.333 58 108.333 87 195 87c93.333 0 140 -50 140 -150s-33.333 -160.667 -100 -182c0 88 -13.333 132 -40 132c-40 0 -60 -50 -60 -150c0 -66.667 33.333 -129.334 100 -188.001s100 -125.667 100 -201c0 -76 -13.333 -138.333 -40 -187
c-26.667 -49.333 -68 -74 -124 -74c-56.667 0 -166.334 55.667 -329.001 167l-53 -83c-36 -56 -87.333 -84 -154 -84l-100 100v780c0 79.333 54 164.333 162 255c107.333 90.667 207.333 157.667 300 201z" />
    <glyph glyph-name="uni17E5" unicode="&#x17e5;" horiz-adv-x="1200" 
d="M501 1250c1.33301 33.333 -32.333 50 -101 50c-82.667 0 -126 -18.333 -130 -55c-4.66699 -36.667 22 -55 80 -55c46 0 88.333 2 127 6c14.667 22 22.667 40 24 54zM598.001 1220c40 12.667 73.335 29.335 100.002 50.002c68 53.333 102 130 102 230
c0 80 -16.667 146.667 -50 200s-50 109 -50 167c0 55.333 18.667 107.666 56 156.999c37.333 50 100 90 188 120c-52.667 -72.667 -79 -138.667 -79 -198c0.666992 -40 23.334 -94.333 68.001 -163s67 -163 67 -283c0 -68 -76.667 -168.333 -230 -301
c-100 -86 -194.333 -144.333 -283 -175c-58 -74.667 -87 -149.334 -87 -224.001v-640l119 214c230.667 -145.333 352 -204.666 364 -177.999c11.333 26 -33 73 -133 141s-150 155.667 -150 263c0 83.333 21.667 154.333 65 213c43.333 58 108.333 87 195 87
c93.333 0 140 -50 140 -150s-33.333 -160.667 -100 -182c0 88 -13.333 132 -40 132c-40 0 -60 -33.333 -60 -100c0 -33.333 33.333 -79.333 100 -138s100 -125.667 100 -201c0 -76 -13.333 -138.333 -40 -187c-26.667 -49.333 -68 -74 -124 -74
c-56.667 0 -166.334 55.667 -329.001 167l-53 -83c-36 -56 -87.333 -84 -154 -84l-100 100v700c0 46 36 113.667 108 203c-52.667 6.66699 -92.334 27 -119.001 61c-26 34.667 -39 82.667 -39 144c0 99.333 22 172.666 66 219.999c43.333 48 104.666 72 183.999 72
c73.333 0 125 -20.667 155 -62c30 -42 45 -104.667 45 -188c0.666992 -9.33301 0 -19.333 -2 -30z" />
    <glyph glyph-name="uni17E6" unicode="&#x17e6;" horiz-adv-x="1200" 
d="M400 655c33.333 21.333 50 50 50 86s-16.667 42.667 -50 20v-106zM800 1150c0 22.667 -46 60.668 -138 114.001c-92.667 52.667 -151.334 79 -176.001 79s-45 -5 -61 -15c-16.667 -9.33301 -25 -35.333 -25 -78c0 -70.667 -33.333 -106 -100 -106s-100 35.333 -100 106
v420c0 26.667 -8 40 -24 40s-41.333 -10 -76 -30c66.667 146.667 126.667 220 180 220c80 0 120 -76.667 120 -230v-256c102.667 57.333 169.334 86 200.001 86c33.333 0 86.333 -21 159 -63c160.667 -91.333 241 -170.333 241 -237v-900
c0 -66.667 -58.333 -133.334 -175 -200.001s-191.667 -100 -225 -100s-86.333 21 -159 63c-160.667 91.333 -241 170.333 -241 237v400c0 33.333 33.667 75 101 125s124 75 170 75c43.333 0 75.666 -12 96.999 -36s32 -60.333 32 -109c0 -34.667 -16.667 -69 -50 -103
c-33.333 -34.667 -83.333 -68.667 -150 -102v-200c0 -22.667 46 -60.667 138 -114c92.667 -52.667 151.334 -79 176.001 -79s45 5 61 15c16.667 9.33301 25 52 25 128v850z" />
    <glyph glyph-name="uni17E7" unicode="&#x17e7;" horiz-adv-x="1500" 
d="M400 309c40 46 60 89.333 60 130s-20 61 -60 61v-191zM400 650c63.333 0 107.664 -12.3379 132.997 -37.0049c24.667 -25.333 37 -63 37 -113c0 -113.333 -33.667 -207 -101 -281l-175 -175c-29.333 -29.333 -52.333 -44 -69 -44s-25 13.333 -25 40v1160
c120 200 188.333 300.333 205 301s54 -29.666 112 -90.999l86 -92l89 91c58.667 60.667 96.334 91 113.001 91s53.334 -31.667 110.001 -95s85 -110 85 -140v-45c-100 -167.333 -150 -307.333 -150 -420v-500c0 -33.333 26.667 -75 80 -125s95 -75 125 -75s45 66.667 45 200
v1200c0 116.667 25 208.334 75 275.001s125 108.334 225 125.001c-66.667 -66.667 -100 -200 -100 -400v-1200c0 -73.333 -38.333 -141.666 -115 -204.999s-146.667 -95 -210 -95s-133.333 33.333 -210 100s-115 133.334 -115 200.001v450c0 98 42.667 224.667 128 380
c28.667 52 29.334 93 2.00098 123s-57.333 27.333 -90 -8l-147 -161l-143 154v-588z" />
    <glyph glyph-name="uni17E8" unicode="&#x17e8;" horiz-adv-x="1200" 
d="M1000 160c0 -38.667 -16.999 -75 -50.999 -109s-83.667 -51 -149 -51c-78 0 -130 15.667 -156 47l-118 140l-79 -93c-52.667 -62.667 -90.334 -94 -113.001 -94s-50.667 16.667 -84 50s-50 70 -50 110v1040c0 66.667 53.333 133.334 160 200.001
c106 66.667 174.333 100 205 100s79 -21 145 -63l89 -50c0.666992 10.667 1 21.667 1 33c0 80 -16.667 146.667 -50 200s-50 109 -50 167c0 55.333 18.667 107.666 56 156.999c37.333 50 100 90 188 120c-52.667 -72.667 -79 -138.667 -79 -198
c0.666992 -40 23.334 -94.333 68.001 -163s67 -163 67 -283c0 -38.667 -26.833 -85.334 -80.5 -140.001s-92.834 -83.667 -117.501 -87c-36 -6 -96 17.667 -180 71c-102 62.667 -164.333 86.667 -187 72c-23.333 -14.667 -35 -41 -35 -79v-1088l200 239l200 -239v717
c0 36 -13.333 54 -40 54c-26.667 -0.666992 -40 -53 -40 -157c0 -88.667 16.667 -149.667 50 -183c-73.333 0 -128.333 15.333 -165 46s-55 76.334 -55 137.001c0 68.667 25 129.667 75 183s100 80 150 80s100 -24.333 150 -73s75 -89.667 75 -123v-690z" />
    <glyph glyph-name="uni17E9" unicode="&#x17e9;" horiz-adv-x="1200" 
d="M715 950c68.667 7.33301 132.003 -5.99707 190.003 -39.9971c106.667 -61.333 148 -123 124 -185c-23.333 -62 -69.666 -73.667 -138.999 -35l-104 57c-108.667 62.667 -200 65 -274 7s-111.333 -159.333 -112 -304c-0.666992 -81.333 53.333 -152 162 -212
c109.333 -60.667 177.333 -69 204 -25c27.333 43.333 -60.334 139.333 -263.001 288c96.667 66.667 166.334 87.334 209.001 62.001c128.667 -76 193 -158 193 -246c0 -88.667 -36.667 -163.334 -110 -224.001c-73.333 -62 -128.666 -93 -165.999 -93
c-36.667 0 -117.334 35.667 -242.001 107c-124 70.667 -186.333 185 -187 343c0 50 21 117.667 63 203c42.667 85.333 133.667 165 273 239c0.666992 0 1 0.333008 1 1c-27.333 10 -58 24.333 -92 43c-96.667 54 -145 127.667 -145 221s28.333 173.666 85 240.999
c57.333 68 119.666 102.333 186.999 103c67.333 0 171.666 -57.667 312.999 -173c49.333 246 87.333 386.333 114 421c27.333 34 59.333 51.333 96 52h1c69.333 0 104 -57 104 -171c-63.333 0 -114 -27.667 -152 -83c-37.333 -54.667 -59.333 -109.334 -66 -164.001l-9 -82
c-6.66699 -64 -35.167 -108.833 -85.5 -134.5s-127.5 4.16602 -231.5 89.499c-52 42.667 -95 69 -129 79c-34.667 10 -60.334 4 -77.001 -18c-33.333 -44.667 -50 -76.667 -50 -96c0 -18.667 52.667 -57.667 158 -117l159 -90c1.33301 -24.667 0.666016 -46 -2.00098 -64z
" />
    <glyph glyph-name="uni17F0" unicode="&#x17f0;" horiz-adv-x="1536" 
d="M256 0v1280h1024v-1280h-1024zM288 32h960v1216h-960v-1216z" />
    <glyph glyph-name="uni17F1" unicode="&#x17f1;" horiz-adv-x="1536" 
d="M256 0v1280h1024v-1280h-1024zM288 32h960v1216h-960v-1216z" />
    <glyph glyph-name="uni17F2" unicode="&#x17f2;" horiz-adv-x="1536" 
d="M256 0v1280h1024v-1280h-1024zM288 32h960v1216h-960v-1216z" />
    <glyph glyph-name="uni17F3" unicode="&#x17f3;" horiz-adv-x="1536" 
d="M256 0v1280h1024v-1280h-1024zM288 32h960v1216h-960v-1216z" />
    <glyph glyph-name="uni17F4" unicode="&#x17f4;" horiz-adv-x="1536" 
d="M256 0v1280h1024v-1280h-1024zM288 32h960v1216h-960v-1216z" />
    <glyph glyph-name="uni17F5" unicode="&#x17f5;" horiz-adv-x="1536" 
d="M256 0v1280h1024v-1280h-1024zM288 32h960v1216h-960v-1216z" />
    <glyph glyph-name="uni17F6" unicode="&#x17f6;" horiz-adv-x="1536" 
d="M256 0v1280h1024v-1280h-1024zM288 32h960v1216h-960v-1216z" />
    <glyph glyph-name="uni17F7" unicode="&#x17f7;" horiz-adv-x="1536" 
d="M256 0v1280h1024v-1280h-1024zM288 32h960v1216h-960v-1216z" />
    <glyph glyph-name="uni17F8" unicode="&#x17f8;" horiz-adv-x="1536" 
d="M256 0v1280h1024v-1280h-1024zM288 32h960v1216h-960v-1216z" />
    <glyph glyph-name="uni17F9" unicode="&#x17f9;" horiz-adv-x="1536" 
d="M256 0v1280h1024v-1280h-1024zM288 32h960v1216h-960v-1216z" />
    <glyph glyph-name="uni200B" unicode="&#x200b;" 
 />
    <glyph glyph-name="afii61664" unicode="&#x200c;" 
d="M36 -275h-72v1859h72v-1859z" />
    <glyph glyph-name="afii301" unicode="&#x200d;" 
d="M219 1369l-49 -49l-134 136v-1731h-72v1731l-134 -136l-49 49l171 169l-171 168l49 49l170 -171l170 171l49 -49l-171 -168z" />
    <glyph glyph-name="uni25CC" unicode="&#x25cc;" horiz-adv-x="1300" 
d="M954 250c32.667 0 49 -14.001 49 -42.001c0 -26.667 -15.333 -40 -46 -40h-3c-32.667 0.666992 -49 14.334 -49 41.001c0 27.333 16.333 41 49 41zM1022 404.999c33.333 0 50 -13.668 50 -41.001s-16.667 -41 -50 -41c-32.667 0.666992 -49 14.334 -49 41.001
c0 27.333 16.333 41 49 41zM835 113.998c32.667 0 49 -14 49 -42c0 -27.333 -16.333 -41 -49 -41c-32.667 0.666992 -49 14.667 -49 42s16.333 41 49 41zM617 82.998c33.333 0 50 -14.001 50 -42.001c0 -26.667 -15.667 -40 -47 -40h-3
c-32.667 0.666992 -49 14.334 -49 41.001c0 27.333 16.333 41 49 41zM472 205.997c33.333 0 50 -14.001 50 -42.001c0 -26.667 -15.667 -40 -47 -40h-3c-32.667 0.666992 -49 14.334 -49 41.001c0 27.333 16.333 41 49 41zM391 359.996c33.333 0 50 -14.001 50 -42.001
c0 -26.667 -15.667 -40 -47 -40h-3c-32.667 0.666992 -49 14.334 -49 41.001c0 27.333 16.333 41 49 41zM353 520.995c33.333 0 50 -14.001 50 -42.001c0 -26.667 -15.667 -40 -47 -40h-3c-32.667 0.666992 -49 14.334 -49 41.001c0 27.333 16.333 41 49 41zM349 682.994
c33.333 0 50 -14.001 50 -42.001c0 -26.667 -15.667 -40 -47 -40h-3c-32.667 0.666992 -49 14.334 -49 41.001c0 27.333 16.333 41 49 41zM373 844.993c33.333 0 50 -14.001 50 -42.001c0 -26.667 -15.667 -40 -47 -40h-3c-32.667 0.666992 -49 14.334 -49 41.001
c0 27.333 16.333 41 49 41zM436 1001.99c32.667 0 49 -13.668 49 -41.001s-16.333 -41 -49 -41c-32.667 0.666992 -49 14.334 -49 41.001c0 27.333 16.333 41 49 41zM551 1144.99c32.667 0 49 -14.001 49 -42.001c0 -26.667 -15.333 -40 -46 -40h-3
c-32.667 0.666992 -49 14.334 -49 41.001c0 27.333 16.333 41 49 41zM738 1196.99c33.333 0 50 -14.001 50 -42.001c0 -26.667 -15.667 -40 -47 -40h-3c-32.667 0.666992 -49 14.334 -49 41.001c0 27.333 16.333 41 49 41zM901 1092.99c33.333 0 50 -14.001 50 -42.001
c0 -26.667 -15.667 -40 -47 -40h-3c-32.667 0.666992 -49 14.334 -49 41.001c0 27.333 16.333 41 49 41zM1000 925.988c33.333 0 50 -14.001 50 -42.001c0 -26.667 -15.667 -40 -47 -40h-3c-32.667 0.666992 -49 14.334 -49 41.001c0 27.333 16.333 41 49 41zM1042 765.987
c33.333 0 50 -14 50 -42c0 -27.333 -16.667 -41 -50 -41c-32.667 0.666992 -49 14.667 -49 42s16.333 41 49 41zM1050 578.987c33.333 0 50 -14.001 50 -42.001c0 -26.667 -15.667 -40 -47 -40h-3c-32.667 0.666992 -49 14.334 -49 41.001c0 27.333 16.333 41 49 41z" />
    <glyph glyph-name="glyph1" 
 />
    <glyph glyph-name="glyph2" horiz-adv-x="569" 
 />
    <glyph glyph-name="glyph192" horiz-adv-x="1536" 
d="M256 0v1280h1024v-1280h-1024zM288 32h960v1216h-960v-1216z" />
    <glyph glyph-name="glyph193" horiz-adv-x="1536" 
d="M256 0v1280h1024v-1280h-1024zM288 32h960v1216h-960v-1216z" />
    <glyph glyph-name="glyph204" horiz-adv-x="1536" 
d="M256 0v1280h1024v-1280h-1024zM288 32h960v1216h-960v-1216z" />
    <glyph glyph-name="glyph205" horiz-adv-x="1536" 
d="M256 0v1280h1024v-1280h-1024zM288 32h960v1216h-960v-1216z" />
    <glyph glyph-name="glyph206" horiz-adv-x="1536" 
d="M256 0v1280h1024v-1280h-1024zM288 32h960v1216h-960v-1216z" />
    <glyph glyph-name="glyph207" horiz-adv-x="1536" 
d="M256 0v1280h1024v-1280h-1024zM288 32h960v1216h-960v-1216z" />
    <glyph glyph-name="glyph208" horiz-adv-x="1536" 
d="M256 0v1280h1024v-1280h-1024zM288 32h960v1216h-960v-1216z" />
    <glyph glyph-name="glyph209" horiz-adv-x="1536" 
d="M256 0v1280h1024v-1280h-1024zM288 32h960v1216h-960v-1216z" />
    <glyph glyph-name="glyph220" horiz-adv-x="1536" 
d="M256 0v1280h1024v-1280h-1024zM288 32h960v1216h-960v-1216z" />
    <glyph glyph-name="glyph221" horiz-adv-x="1536" 
d="M256 0v1280h1024v-1280h-1024zM288 32h960v1216h-960v-1216z" />
    <glyph glyph-name="glyph222" horiz-adv-x="1536" 
d="M256 0v1280h1024v-1280h-1024zM288 32h960v1216h-960v-1216z" />
    <glyph glyph-name="glyph223" horiz-adv-x="1536" 
d="M256 0v1280h1024v-1280h-1024zM288 32h960v1216h-960v-1216z" />
    <glyph glyph-name="glyph224" horiz-adv-x="1536" 
d="M256 0v1280h1024v-1280h-1024zM288 32h960v1216h-960v-1216z" />
    <glyph glyph-name="glyph225" horiz-adv-x="1536" 
d="M256 0v1280h1024v-1280h-1024zM288 32h960v1216h-960v-1216z" />
    <glyph glyph-name="glyph229" horiz-adv-x="600" 
d="M400 -460c0 -39.333 -58.667 -80.6689 -176 -124.002s-192.333 -65 -225 -65s-85 13 -157 39c-50 17.333 -92.333 34 -127 50c-20.667 -9.33301 -44.334 -18.666 -71.001 -27.999c-115.333 -40.667 -189.333 -61 -222 -61s-85 13 -157 39c-78.667 27.333 -138 53 -178 77
c-39.333 23.333 -69.333 54 -90 92c20.667 6 34.167 13 40.5 21s9.5 18 9.5 30v144c93.333 6 155.333 20.333 186 43c30 22 45 37 45 45s-8.83301 16.333 -26.5 25s-37.834 13 -60.501 13c-32 0 -48 -7 -48 -21c0 -18 19.333 -28 58 -30
c0.666992 -24 -40.666 -35.667 -123.999 -35c-84 1.33301 -126 24 -126 68c0 20 19.333 40 58 60c38 19.333 82.667 29 134 29c77.333 0 136.833 -8.83301 178.5 -26.5s62.5 -42.5 62.5 -74.5s-13 -66 -39 -102c-25.333 -36 -60.666 -68.333 -105.999 -97v-53
c0 -16 -6.33301 -28.333 -19 -37c0 -13.333 46.333 -35.666 139 -66.999c96 -32 156 -48 180 -48c24.667 0 44.667 3 60 9c16.667 5.33301 25 31 25 77v96c0 24 -45.667 40 -137 48c-30.667 2.66699 -46 12 -46 28s8 35.667 24 59l130 188h288
c0 -48 -3.66699 -79.167 -11 -93.5s-31 -34.833 -71 -61.5c10 24 -10.667 36 -62 36h-128l-37 -44c80.667 -8.66699 141 -23.334 181 -44.001c40.667 -20 61 -46 61 -78v-123c22 -13.333 61.667 -29.666 119 -48.999c96 -32 156.333 -48 181 -48c24 0 44 3 60 9
c16 5.33301 24 31 24 77v1328c0 40 -47.333 66.667 -142 80c-32 4 -48 19.333 -48 46s8.33301 60 25 100l165 414h300c0 -81.333 -8.66699 -150.333 -26 -207c-18 -57.333 -48 -98.333 -90 -123c10.667 40.667 16 72.667 16 96c0 22.667 -16.667 34 -50 34h-133l-69 -173
c84 -15.333 147 -40 189 -74c42 -33.333 63 -76.333 63 -129v-1384z" />
    <glyph glyph-name="glyph234" horiz-adv-x="600" 
d="M-925 -536c44 18.667 66 37 66 55c0 15.333 -10 23 -30 23h-36v-78zM400 -392c0 -98.667 -48.334 -166.331 -145.001 -202.998c-96 -36.667 -157 -55 -183 -55c-24 0 -63.333 12 -118 36c-38.667 16 -71.667 31 -99 45c-15.333 -8.66699 -33 -17.334 -53 -26.001
c-89.333 -36.667 -146.666 -55 -171.999 -55c-24.667 0 -64.667 12 -120 36c-60 24 -105.333 47 -136 69s-54 50 -70 84c16 5.33301 26.5 11.666 31.5 18.999s7.5 16.333 7.5 27v257h-419l-20 -46c52 -8 93.333 -21 124 -39c31.333 -19.333 47 -43 47 -71v-62h36
c74 0 111 -27.333 111 -82c0 -56 -62.333 -120 -187 -192l-108 73v227c0 22.667 -30 37.334 -90 44.001c-24.667 2.66699 -37 11.334 -37 26.001c0 14 6.66699 32 20 54l93 176h577v-376c0 -14 -4.66699 -24.667 -14 -32c0 -12 35.333 -32.667 106 -62
c74 -29.333 120.333 -44 139 -44s34 3 46 9c12.667 4.66699 19 27.667 19 69v115c0 22 -35 36.667 -105 44c-24 2 -36 10.333 -36 25s6.66699 32.667 20 54l98 198h223c0 -44 -6.66699 -81.333 -20 -112c-13.333 -31.333 -25.833 -44.833 -37.5 -40.5
s-17.5 13.166 -17.5 26.499c0 12 -12.333 18 -37 18h-97l-29 -67c62 -8.66699 108.333 -22.334 139 -41.001c31.333 -18 47 -41.333 47 -70v-140c16 -12 46.333 -26.667 91 -44c73.333 -29.333 119 -44 137 -44c25.333 0 38 43 38 129v1295c0 40 -47.333 66.667 -142 80
c-32 4 -48 19.333 -48 46s8.33301 60 25 100l165 414h300c0 -81.333 -8.66699 -150.333 -26 -207c-18 -57.333 -48 -98.333 -90 -123c10.667 40.667 16 72.667 16 96c0 22.667 -16.667 34 -50 34h-133l-69 -173c84 -15.333 147 -40 189 -74c42 -33.333 63 -76.333 63 -129
v-1316z" />
    <glyph glyph-name="glyph236" 
d="M-1270 -432c54 22 81 40.667 81 56c0 10 -12 15 -36 15h-45v-71zM-1448 -305c0 15.333 -36.334 25.333 -109.001 30c-28.667 2 -43 8 -43 18s7.66699 22.333 23 37l129 140h268c41.333 0 62 -16 62 -48c44.667 32 92.334 48 143.001 48h240v-75c86.667 50 179 75 277 75
h258v-375l-100 -42c-22 -9.33301 -40.667 -14 -56 -14c-14.667 0 -22 5 -22 15v341h-107c-96.667 0 -180 -18.667 -250 -56v-244l-99 -42c-22.667 -9.33301 -41.667 -14 -57 -14c-14.667 0 -22 5 -22 15v341h-89c-52.667 0 -114.667 -20 -186 -60l7 15
c12 30 0.333008 45 -35 45h-217l-43 -49c62.667 -6 112.667 -15.333 150 -28s56 -29 56 -49v-24h45c89.333 0 134 -18.667 134 -56s-39 -72.333 -117 -105l-111 -46l-129 39v168zM-1456 -641c-24 12 -4.33203 33.667 59.001 65c62.667 30.667 146.667 46 252 46
s235.666 -18.667 390.999 -56s264.333 -56 327 -56s94 5.66699 94 17s-12 22 -36 32s-65.667 15 -125 15l134 56c106.667 -15.333 160 -38 160 -68s-18.667 -52.333 -56 -67c-38 -15.333 -94.667 -23 -170 -23c-198.667 0 -362.334 15.667 -491.001 47
c-166 38.667 -267.667 58 -305 58c-61.333 0 -115.666 -11 -162.999 -33z" />
    <glyph glyph-name="glyph240" horiz-adv-x="600" 
d="M-334 -450l-48 -22l48 -33v55zM-704 -530c47.333 30.667 71 55 71 73c0 10.667 -11.333 16 -34 16h-37v-89zM400 -436c0 -57.333 -19.668 -107.498 -59.001 -150.498s-98.333 -64.5 -177 -64.5c-65.333 0 -114.666 15.667 -147.999 47c-32.667 30 -49 58 -49 84
s-9.66699 45.667 -29 59c-20.667 13.333 -50.667 20 -90 20v-131l-93 -79h-104c-13.333 19.333 -38.333 38.666 -75 57.999c-58 31.333 -87 64.666 -87 99.999c0 16.667 15.333 30.667 46 42l129 51v246h-92c-54.667 0 -118.667 -28.333 -192 -85l7 21
c12.667 42.667 0.666992 64 -36 64h-242l-27 -44c65.333 -7.33301 117.333 -20 156 -38s58 -40.667 58 -68v-59h37c46 0 80.333 -5.66699 103 -17c23.333 -11.333 35 -28.333 35 -51c0 -41.333 -39 -88.333 -117 -141l-119 -79h-28l-95 54v260c0 21.333 -37 35.333 -111 42
l-1 108l93 136h295c42.667 0 64 -22.333 64 -67c46 44.667 95 67 147 67h249v-339c84.667 0 147.667 -10.333 189 -31c42 -22.667 63 -50 63 -82c0 -28.667 16.667 -43 50 -43s50 22.333 50 67v1339c0 40 -47.333 66.667 -142 80c-32 4 -48 19.333 -48 46s8.33301 60 25 100
l165 414h300c0 -81.333 -8.66699 -150.333 -26 -207c-18 -57.333 -48 -98.333 -90 -123c10.667 40.667 16 72.667 16 96c0 22.667 -16.667 34 -50 34h-133l-69 -173c84 -15.333 147 -40 189 -74c42 -33.333 63 -76.333 63 -129v-1360z" />
    <glyph glyph-name="glyph247" horiz-adv-x="600" 
d="M-200 -246c33.333 17.333 50 40.333 50 69s-16.667 34 -50 16v-85zM400 -548l-152.999 -102.002h-127l-194 182l-195 -182h-25l-106 82v358c0 26.667 33.667 60 101 100s124 60 170 60c43.333 0 75.666 -9.33301 96.999 -28c21.333 -19.333 32 -48.666 32 -87.999
c-0 -27.333 -16.667 -54.666 -50 -81.999c-33.333 -28 -83.333 -55.333 -150 -82v-152l200 191l200 -191v1342c0 40 -47.333 66.667 -142 80c-32 4 -48 19.333 -48 46s8.33301 60 25 100l165 414h300c0 -81.333 -8.66699 -150.333 -26 -207
c-18 -57.333 -48 -98.333 -90 -123c10.667 40.667 16 72.667 16 96c0 22.667 -16.667 34 -50 34h-133l-69 -173c84 -15.333 147 -40 189 -74c42 -33.333 63 -76.333 63 -129v-1472z" />
    <glyph glyph-name="glyph252" horiz-adv-x="600" 
d="M-200 -246c33.333 17.333 50 40.333 50 69s-16.667 34 -50 16v-85zM200 860c0 40 -47.333 66.6641 -142 79.9971c-32 4 -48 19.333 -48 46s8.33301 60 25 100l165 414h300c0 -81.333 -8.66699 -150.333 -26 -207c-18 -57.333 -48 -98.333 -90 -123
c10.667 40.667 16 72.667 16 96c0 22.667 -16.667 34 -50 34h-133l-69 -173c84 -15.333 147 -40 189 -74c42 -33.333 63 -76.333 63 -129v-1334c0 -53.333 -58.333 -106.666 -175 -159.999s-191.667 -80 -225 -80s-86.333 17 -159 51c-160.667 72.667 -241 135.667 -241 189
v200c0 26.667 33.667 60 101 100s124 60 170 60c43.333 0 75.666 -9.33301 96.999 -28c21.333 -19.333 32 -48.666 32 -87.999c0 -27.333 -16.667 -54.666 -50 -81.999c-33.333 -28 -83.333 -55.333 -150 -82v-40c0 -18 46 -48.333 138 -91
c92.667 -42 151.334 -63 176.001 -63s45 4 61 12c16.667 7.33301 25 41.333 25 102v1270z" />
    <glyph glyph-name="glyph256" horiz-adv-x="600" 
d="M-400 -260l-0.000976562 40c-33.333 -20.667 -46.666 -35.667 -39.999 -45c6.66699 -8.66699 20 -7 40 5zM399.999 -392c0 -57.333 -58.332 -114.668 -174.999 -172.001s-191.667 -86 -225 -86s-86.333 18 -159 54c-160.667 78.667 -241 146.667 -241 204v51
c-42 -18 -79 -16.667 -111 4c-32.667 20 -49 44.333 -49 73s30 71.667 90 129c60 56.667 110 85 150 85c39.333 0 79.333 -17 120 -51v-249c0 -19.333 46 -51.666 138 -96.999c92.667 -45.333 151.334 -68 176.001 -68s45 4.33301 61 13c16.667 8 25 44.667 25 110v397
c-51.333 6.66699 -108 20.334 -170 41.001l112 213c19.333 -18 38.666 -34 57.999 -48v649c0 40 -47.333 66.667 -142 80c-32 4 -48 19.333 -48 46s8.33301 60 25 100l165 414h300c0 -81.333 -8.66699 -150.333 -26 -207c-18 -57.333 -48 -98.333 -90 -123
c10.667 40.667 16 72.667 16 96c0 22.667 -16.667 34 -50 34h-133l-69 -173c84 -15.333 147 -40 189 -74c42 -33.333 63 -76.333 63 -129v-798c49.333 -4.66699 107.666 -1.33398 174.999 9.99902c-62 -52.667 -120.333 -90 -175 -112v-416z" />
    <glyph glyph-name="glyph259" 
d="M-200 -1052l-200 -148v404l200 146v-402z" />
    <glyph glyph-name="glyph260" 
d="M-680 -862l-0.000976562 31c-33.333 -16 -46.666 -27.667 -39.999 -35s20 -6 40 4zM-630.001 -1166c-33.333 22.667 -50 45.332 -50 67.999v172c-42 -14 -79 -13 -111 3c-32.667 16 -49 35.333 -49 58c0 22 30 55.667 90 101c60 44.667 110 67 150 67
c39.333 0 79.333 -13.333 120 -40v-375c53.333 9.33301 90 21.666 110 36.999c20 16 30 42 30 78c0 22.667 -10 45.334 -30 68.001s-30 55 -30 97c0 25.333 16.667 49.333 50 72c32.667 22 82 42 148 60c-45.333 -40 -68 -72.333 -68 -97
c0 -29.333 21.667 -57.666 65 -84.999c43.333 -26.667 65 -65 65 -115c0 -31.333 -53 -73 -159 -125s-182.667 -78 -230 -78c-34 0 -67.667 11.333 -101 34z" />
    <glyph glyph-name="glyph261" 
d="M-740 -862l-0.000976562 31c-33.333 -16 -46.666 -27.667 -39.999 -35s20 -6 40 4zM-695.001 -1166c-30 22.667 -45 45.334 -45 68.001v172c-42 -14 -79 -13 -111 3c-32.667 16 -49 35.333 -49 58c0 22 30 55.667 90 101c60 44.667 110 67 150 67
c26 0 59.333 -13.333 100 -40v-321l99 79l167 -112c14.667 8.66699 22 27.667 22 57s-18.333 57.333 -55 84c-36.667 27.333 -55 66.666 -55 117.999c0 25.333 16.667 49.333 50 72c32.667 22 82 42 148 60c-45.333 -40 -68 -72.333 -68 -97
c0 -29.333 21.667 -57.666 65 -84.999c43.333 -26.667 65 -67.334 65 -122.001c0 -54 -27 -100 -81 -138c-54 -38.667 -95.333 -58 -124 -58s-63.667 14.667 -105 44l-63 43l-85 -65c-19.333 -14.667 -34 -22 -44 -22c-17.333 0 -41 11.333 -71 34z" />
    <glyph glyph-name="glyph262" 
d="M-642 2196c76.667 6.66699 216.333 -25 419 -95l15 22l-216 110c-80 34.667 -154.667 50.334 -224 47c-70 -2.66699 -139 -62 -207 -178c65.333 55.333 136.333 86.666 213 94zM-963.001 2088c36 112 78 199 126 261c47.333 62 101 98.667 161 110
c34.667 6 68.667 9 102 9c25.333 0 50.333 -1.66699 75 -5c58 -8 129.667 -33.333 215 -76c84.667 -46 133.667 -95.667 147 -149c3.33301 -13.333 5 -26.333 5 -39c0 -38 -15 -73.667 -45 -107l-60 -81l-517 7c-96 2 -177.667 -12.333 -245 -43z" />
    <glyph glyph-name="glyph263" 
d="M-642 2171c76.667 6 216.333 -22.667 419 -86l15 20l-216 99c-80 31.333 -154.667 45.666 -224 43c-70 -2.66699 -139 -56.334 -207 -161c65.333 50 136.333 78.333 213 85zM-149.001 2109l-74 -89l-531 -10c-96 1.33301 -177.667 -11.667 -245 -39l36 102
c36 101.333 78 180 126 236c47.333 56 101 89.333 161 100c60 9.33301 119 10.333 177 3s129.667 -30.333 215 -69c84.667 -41.333 133.667 -86 147 -134c24.667 38.667 37 67.667 37 87c0 21.333 -14 47.666 -42 79l94 125l24 -37c16 -25.333 24 -60.666 24 -106
c0 -46 -49.667 -128.667 -149 -248z" />
    <glyph glyph-name="glyph264" 
d="M-642 2131c76.667 5.33301 216.333 -18.667 419 -72l15 17l-216 83c-80 26.667 -154.667 38.667 -224 36c-70 -2 -139 -47 -207 -135c65.333 42 136.333 65.667 213 71zM-134.001 2156c9.33301 -37.333 -4.99902 -71.666 -42.999 -103l-60 -53l-517 -3
c-96 1.33301 -177.667 -9.66699 -245 -33l36 86c36 84.667 78 150.334 126 197c47.333 47.333 101 75 161 83c60 8.66699 119 9.66699 177 3h9c3.33301 26 14.333 51.333 33 76c22 29.333 52.5 51.833 91.5 67.5s79.167 23.5 120.5 23.5c40.667 0 80.5 -7.83301 119.5 -23.5
s69.667 -38.167 92 -67.5s33.5 -59.666 33.5 -91c0 -31.333 -10.833 -61.5 -32.5 -90.5s-51.834 -51.167 -90.501 -66.5c-3.33301 -2 -7 -3.66699 -11 -5zM-304 2411c-30.667 6.66699 -55 3.66699 -73 -9c-17.333 -14 -19.666 -30.667 -6.99902 -50
c12.667 -20.667 41 -44.667 85 -72c44.667 -26.667 82 -43.334 112 -50c30.667 -7.33301 55 -4.33301 73 9c17.333 13.333 19.666 30 6.99902 50c-12.667 19.333 -41 42.666 -85 70c-44 28 -81.333 45.333 -112 52z" />
    <glyph glyph-name="glyph265" 
d="M-642 2127c76.667 4.66699 216.333 -18.666 419 -70l15 16l-216 81c-80 26 -154.667 37.667 -224 35c-70 -2 -139 -46 -207 -132c65.333 41.333 136.333 64.666 213 70zM-270.001 2263c76.667 -32.667 121 -67.667 133 -105c24.667 32 37 55.667 37 71
c0 18 -14 39.667 -42 65l94 102l24 -30c16 -20.667 24 -49.667 24 -87s-49.667 -104.666 -149 -201.999l-74 -73l-531 -9c-96 1.33301 -177.667 -9.33398 -245 -32.001l36 84c36 82.667 78 147 126 193c47.333 46 101 73.333 161 82c60 7.33301 119 8.33301 177 3
c49.333 -5.33301 108.333 -19.666 177 -43c14.667 22 22 39 22 51c0 17.333 -14 39 -42 65l94 102l24 -30c16 -20.667 24 -49.667 24 -87c0 -25.333 -23.333 -65.333 -70 -120z" />
    <glyph glyph-name="glyph266" 
d="M-666 2360c-34 10.667 -61 5.66699 -81 -15s-22.667 -46.667 -8 -78c14 -31.333 45.667 -68.333 95 -111s91 -69.334 125 -80c34 -11.333 61 -6.33301 81 15c20 20 22.667 46 8 78c-14 30.667 -45.667 67.334 -95 110c-49.333 43.333 -91 70.333 -125 81zM-601 2500
c46 0 90.8311 -12.333 134.498 -37s78 -59.834 103 -105.5c25 -45.667 37.5 -93.5 37.5 -143.5c0 -49.333 -12.167 -96.5 -36.5 -141.5s-58.166 -80 -101.499 -105s-89 -37.5 -137 -37.5c-47.333 0 -92.833 12.5 -136.5 37.5s-77.5 60 -101.5 105s-36 92.167 -36 141.5
c0 50 12.333 97.833 37 143.5s58.834 80.834 102.501 105.5c43.667 24.667 88.5 37 134.5 37z" />
    <glyph glyph-name="glyph267" 
d="M-499 2168v-86l-200 -152v238h-165l-110 117h275v63l200 152v-215h155l120 -117h-275z" />
    <glyph glyph-name="glyph268" 
d="M-377 1936c-28 -4 -56.6641 -6.00098 -85.9971 -6.00098c-39.333 0 -80 3.66699 -122 11c-143.333 26 -215 56 -215 90c0 16.667 29 55.334 87 116.001c38 34.667 80.333 58.334 127 71c46 12.667 96.333 14.334 151 5c55.333 -9.33301 90 -22.666 104 -40
c14 -17.333 8 -38 -18 -62c-20.667 -18.667 -48.334 -30.667 -83.001 -36c-34.667 -6 -76 -5.33301 -124 2c13.333 17.333 4.33301 28.666 -27 33.999c-32 4.66699 -55.333 -0.333008 -70 -15c-16 -14.667 39.333 -33 166 -55c62.667 -10.667 117.667 -14.667 165 -12
s86.666 12.667 117.999 30.001c31.333 16 49.333 35.333 54 58c5.33301 21.333 -3 45.666 -25 73c-42.667 54.667 -64 108.667 -64 162c0 27.333 15 53.666 45 79c29.333 24.667 78.666 44.334 147.999 59c-41.333 -36.667 -62 -69.334 -62 -98
c0.666992 -16 18.667 -45 54 -87c35.333 -42.667 53 -85.334 53 -128c0 -30.667 -15.333 -61.667 -46 -93s-76.667 -63 -138 -95c-61.333 -32.667 -125.333 -53.667 -192 -63z" />
    <glyph glyph-name="glyph269" horiz-adv-x="1800" 
d="M400 309c60 59.333 90 109.333 90 150c0 27.333 -13.333 41 -40 41h-50v-191zM1400 -50l-0.000976562 1350h-120c-108.667 0 -202 -50.333 -280 -151v-999l-200 -200v1350h-100c-59.333 0 -128.666 -54 -207.999 -162l7 41c14 80.667 1 121 -39 121h-243l-49 -133
c70.667 -15.333 127 -39.666 169 -72.999c42 -34 63 -77.333 63 -130v-314h50c100 0 150 -50 150 -150s-43.667 -193.667 -131 -281l-175 -175c-29.333 -29.333 -52.333 -44 -69 -44s-25 13.333 -25 40v860c0 40 -40.667 66.667 -122 80c-32 4 -48 19.333 -48 46
s8.33301 60 25 100l145 374h300c46.667 0 70 -43.333 70 -130c50 86.667 103.333 130 160 130h270v-200c96.667 133.333 200 200 310 200h290v-1350z" />
    <glyph glyph-name="glyph270" 
d="M-1400 -440l0.000976562 -39c33.333 20.667 46.666 35.667 39.999 45c-6.66699 8.66699 -20 6.66699 -40 -6zM-1600 -274c0 49.333 58.334 99.333 175.001 150c116.667 49.333 191.667 74 225 74s86.333 -15.667 159 -47c160.667 -68.667 241 -127.667 241 -177v-247
l-200 -129v338c0 17.333 -46 46 -138 86c-92.667 39.333 -151.334 59 -176.001 59s-45 -3.66699 -61 -11c-16.667 -6.66699 -25 -38.667 -25 -96v-84c42 17.333 79 16 111 -4c32.667 -20 49 -44.333 49 -73s-30 -71.667 -90 -129s-110 -86 -150 -86
c-39.333 0 -79.333 17.333 -120 52v324z" />
    <glyph glyph-name="glyph271" 
d="M-800 -1052l-200 -148v404l200 146v-402z" />
    <glyph glyph-name="glyph272" 
d="M-1340 -862l-0.000976562 31c-33.333 -16 -46.666 -27.667 -39.999 -35s20 -6 40 4zM-1290 -1166c-33.333 22.667 -50 45.332 -50 67.999v172c-42 -14 -79 -13 -111 3c-32.667 16 -49 35.333 -49 58c0 22 30 55.667 90 101c60 44.667 110 67 150 67
c39.333 0 79.333 -13.333 120 -40v-375c53.333 9.33301 90 21.666 110 36.999c20 16 30 42 30 78c0 22.667 -10 45.334 -30 68.001s-30 55 -30 97c0 25.333 16.667 49.333 50 72c32.667 22 82 42 148 60c-45.333 -40 -68 -72.333 -68 -97
c0 -29.333 21.667 -57.666 65 -84.999c43.333 -26.667 65 -65 65 -115c0 -31.333 -53 -73 -159 -125s-182.667 -78 -230 -78c-34 0 -67.667 11.333 -101 34z" />
    <glyph glyph-name="glyph273" 
d="M-1418 -862l-0.000976562 31c-33.333 -16 -46.666 -27.667 -39.999 -35s20 -6 40 4zM-1373 -1166c-30 22.667 -45 45.334 -45 68.001v172c-42 -14 -79 -13 -111 3c-32.667 16 -49 35.333 -49 58c0 22 30 55.667 90 101c60 44.667 110 67 150 67
c26 0 59.333 -13.333 100 -40v-321l99 79l167 -112c14.667 8.66699 22 27.667 22 57s-18.333 57.333 -55 84c-36.667 27.333 -55 66.666 -55 117.999c0 25.333 16.667 49.333 50 72c32.667 22 82 42 148 60c-45.333 -40 -68 -72.333 -68 -97
c0 -29.333 21.667 -57.666 65 -84.999c43.333 -26.667 65 -67.334 65 -122.001c0 -54 -27 -100 -81 -138c-54 -38.667 -95.333 -58 -124 -58s-63.667 14.667 -105 44l-63 43l-85 -65c-19.333 -14.667 -34 -22 -44 -22c-17.333 0 -41 11.333 -71 34z" />
    <glyph glyph-name="glyph275" horiz-adv-x="600" 
d="M-144 2138c76.667 5.33301 216.333 -17 419 -67l15 16l-216 78c-80 25.333 -154.667 36.666 -224 34c-70 -2 -139 -44.667 -207 -128c65.333 40 136.333 62.333 213 67zM399.999 -900c0 -66.667 -58.335 -133.333 -175.002 -200s-191.667 -100 -225 -100
s-86.333 21 -159 63c-160.667 91.333 -241 170.333 -241 237v100l113 113c24.667 24.667 45.334 37 62.001 37s25 -16.667 25 -50v-150c0 -22.667 46 -60.667 138 -114c92.667 -52.667 151.334 -79 176.001 -79s45 5 61 15c16.667 9.33301 25 52 25 128v2777
c0 48 -41.667 79.667 -125 95c-124.667 24.667 -235 37.667 -331 39c-96 2 -177.667 -8 -245 -30l36 80c36 80.667 78 143 126 187c47.333 44.667 101 71 161 79s119 9 177 3c49.333 -4.66699 108.333 -18.667 177 -42c14.667 21.333 22 38 22 50
c0 17.333 -14 38.333 -42 63l94 99l24 -29c16 -20.667 24 -49 24 -85c0 -24 -23.333 -62.333 -70 -115c76.667 -31.333 121 -65.333 133 -102c24.667 31.333 37 54.333 37 69c0 17.333 -14 38.333 -42 63l94 99l24 -30c16 -20 24 -47.667 24 -83
c0 -37.333 -24.667 -79.666 -74 -127l-102 -105c52 -24 78 -83.333 78 -178v-2777z" />
    <glyph glyph-name="glyph276" horiz-adv-x="600" 
d="M400 -900c0 -66.667 -58.3359 -133.33 -175.003 -199.997s-191.667 -100 -225 -100s-86.333 21 -159 63c-160.667 91.333 -241 170.333 -241 237v100l113 113c24.667 24.667 45.334 37 62.001 37s25 -16.667 25 -50v-150c0 -22.667 46 -60.667 138 -114
c92.667 -52.667 151.334 -79 176.001 -79s45 5 61 15c16.667 9.33301 25 52 25 128v1760c0 40 -47.333 66.667 -142 80c-32 4 -48 19.333 -48 46s8.33301 60 25 100l165 414h150c30 0 52.667 -10 68 -30c14.667 -20.667 22 -51.334 22 -92.001c27.333 28 43 53.667 47 77
c4.66699 24 -30.333 92.333 -105 205c-74.667 113.333 -112 199 -112 257c0 55.333 18.667 107.666 56 156.999c37.333 50 100 90 188 120c-52.667 -72.667 -79 -138.667 -79 -198c0.666992 -40 23.334 -94.333 68.001 -163s67 -146.334 67 -233.001
c0 -146.667 -28 -253.667 -84 -321c-56.667 -67.333 -108.334 -93.666 -155.001 -78.999c8.66699 20.667 14.667 42.667 18 66c2.66699 23.333 -10.666 34.666 -39.999 33.999h-92l-69 -173c84 -15.333 147 -40 189 -74c42 -33.333 63 -76.333 63 -129v-1824z" />
    <glyph glyph-name="glyph277" horiz-adv-x="600" 
d="M400 -1042c0 -32.667 -58.667 -67.1699 -176 -103.503s-192.333 -54.5 -225 -54.5s-85 11 -157 33c-50 14.667 -92.333 28.667 -127 42c-20.667 -8 -44.334 -16 -71.001 -24c-115.333 -34 -189.333 -51 -222 -51s-85 11 -157 33c-78.667 22.667 -138 44 -178 64
c-39.333 19.333 -69.333 45 -90 77c20.667 4.66699 34.167 10.334 40.5 17.001s9.5 15 9.5 25v120c93.333 5.33301 155.333 17.333 186 36c30 18.667 45 31.334 45 38.001s-8.83301 13.5 -26.5 20.5s-37.834 10.5 -60.501 10.5c-32 0 -48 -5.66699 -48 -17
c0 -15.333 19.333 -23.666 58 -24.999c0.666992 -20 -40.666 -29.667 -123.999 -29c-84 0.666992 -126 19.334 -126 56.001c0 16.667 19.333 33.334 58 50.001c38 16 82.667 24 134 24c77.333 0 136.833 -7.33301 178.5 -22s62.5 -35.334 62.5 -62.001s-13 -55 -39 -85
c-25.333 -30 -60.666 -57 -105.999 -81v-44c0 -13.333 -6.33301 -23.666 -19 -30.999c0 -10.667 46.333 -29 139 -55c96 -26.667 156 -40 180 -40c24.667 0 44.667 2.33301 60 7c16.667 4.66699 25 26 25 64v80c0 20 -45.667 33.333 -137 40
c-30.667 2.66699 -46 10.667 -46 24s8 29.666 24 48.999l130 156h288c0 -40 -3.66699 -65.833 -11 -77.5s-31 -28.834 -71 -51.501c10 20 -10.667 30 -62 30h-128l-37 -36c80.667 -7.33301 141 -19.666 181 -36.999c40.667 -16.667 61 -38.334 61 -65.001v-103
c22 -10.667 61.667 -24 119 -40c96 -26.667 156.333 -40 181 -40c24 0 44 2.33301 60 7s24 26 24 64v1909c0 40 -47.333 66.667 -142 80c-32 4 -48 19.333 -48 46s8.33301 60 25 100l165 414h300c0 -81.333 -8.66699 -150.333 -26 -207c-18 -57.333 -48 -98.333 -90 -123
c10.667 40.667 16 72.667 16 96c0 22.667 -16.667 34 -50 34h-133l-69 -173c84 -15.333 147 -40 189 -74c42 -33.333 63 -76.333 63 -129v-1966z" />
    <glyph glyph-name="glyph278" horiz-adv-x="600" 
d="M-925 -1105c44 16 66 31.333 66 46c0 12.667 -10 19 -30 19h-36v-65zM400 -985c0 -82 -48.334 -138.333 -145.001 -169c-96 -30.667 -157 -46 -183 -46c-24 0 -63.333 10 -118 30c-38.667 13.333 -71.667 26 -99 38c-15.333 -7.33301 -33 -14.666 -53 -21.999
c-89.333 -30.667 -146.666 -46 -171.999 -46c-24.667 0 -64.667 10 -120 30c-60 20 -105.333 39.333 -136 58c-30.667 18 -54 41.333 -70 70c16 4.66699 26.5 10 31.5 16s7.5 13.333 7.5 22v214h-419l-20 -38c52 -6.66699 93.333 -17.334 124 -32.001
c31.333 -16.667 47 -36.667 47 -60v-51h36c74 0 111 -23 111 -69c0 -46.667 -62.333 -100 -187 -160l-108 61v189c0 19.333 -30 31.666 -90 36.999c-24.667 2 -37 9.33301 -37 22c0 11.333 6.66699 26.333 20 45l93 146h577v-313c0 -11.333 -4.66699 -20.333 -14 -27
c0 -10 35.333 -27 106 -51c74 -24.667 120.333 -37 139 -37s34 2.66699 46 8c12.667 3.33301 19 22.333 19 57v96c0 18 -35 30.333 -105 37c-24 1.33301 -36 8 -36 20c0 12.667 6.66699 27.667 20 45l98 165h223c0 -36.667 -6.66699 -67.667 -20 -93
c-13.333 -26 -25.833 -37.167 -37.5 -33.5s-17.5 10.834 -17.5 21.501c0 10 -12.333 15 -37 15h-97l-29 -55c62 -7.33301 108.333 -19 139 -35c31.333 -14.667 47 -34 47 -58v-117c16 -10 46.333 -22 91 -36c73.333 -24.667 119 -37 137 -37c25.333 0 38 36 38 108v1880
c0 40 -47.333 66.667 -142 80c-32 4 -48 19.333 -48 46s8.33301 60 25 100l165 414h300c0 -81.333 -8.66699 -150.333 -26 -207c-18 -57.333 -48 -98.333 -90 -123c10.667 40.667 16 72.667 16 96c0 22.667 -16.667 34 -50 34h-133l-69 -173c84 -15.333 147 -40 189 -74
c42 -33.333 63 -76.333 63 -129v-1909z" />
    <glyph glyph-name="glyph279" horiz-adv-x="600" 
d="M-334 -1032l-48 -18l48 -28v46zM-704 -1099c47.333 26 71 46.333 71 61c0 8.66699 -11.333 13 -34 13h-37v-74zM200 860c0 40 -47.334 66.6699 -142.001 80.0029c-32 4 -48 19.333 -48 46s8.33301 60 25 100l165 414h300c0 -81.333 -8.66699 -150.333 -26 -207
c-18 -57.333 -48 -98.333 -90 -123c10.667 40.667 16 72.667 16 96c0 22.667 -16.667 34 -50 34h-133l-69 -173c84 -15.333 147 -40 189 -74c42 -33.333 63 -76.333 63 -129v-1944c0 -48 -19.667 -90 -59 -126s-98.333 -54 -177 -54c-65.333 0 -114.666 13.333 -147.999 40
c-32.667 24.667 -49 48 -49 70c0 21.333 -9.66699 37.666 -29 48.999c-20.667 10.667 -50.667 16 -90 16v-109l-93 -66h-104c-13.333 16.667 -38.333 33 -75 49c-58 26 -87 53.667 -87 83c0 14 15.333 25.667 46 35l129 43v205h-92c-54.667 0 -118.667 -23.667 -192 -71
l7 17c12.667 36 0.666992 54 -36 54h-242l-27 -37c65.333 -6 117.333 -16.667 156 -32c38.667 -14.667 58 -33.334 58 -56.001v-50h37c46 0 80.333 -4.66699 103 -14c23.333 -9.33301 35 -23.333 35 -42c0 -34.667 -39 -74 -117 -118l-119 -66h-28l-95 45v217
c0 18 -37 29.667 -111 35l-1 90l93 113h295c42.667 0 64 -18.333 64 -55c46 36.667 95 55 147 55h249v-282c84.667 0 147.667 -8.66699 189 -26c42 -18.667 63 -41.334 63 -68.001c0 -24 16.667 -36 50 -36s50 18.667 50 56v1916z" />
    <glyph glyph-name="glyph280" horiz-adv-x="600" 
d="M-200 -863c33.333 14.667 50 34.001 50 58.001c0 23.333 -16.667 27.666 -50 12.999v-71zM200 860.001c0 40 -47.332 66.667 -141.999 80c-32 4 -48 19.333 -48 46s8.33301 60 25 100l165 414h300c0 -81.333 -8.66699 -150.333 -26 -207
c-18 -57.333 -48 -98.333 -90 -123c10.667 40.667 16 72.667 16 96c0 22.667 -16.667 34 -50 34h-133l-69 -173c84 -15.333 147 -40 189 -74c42 -33.333 63 -76.333 63 -129v-2039l-153 -85h-127l-194 152l-195 -152h-25l-106 69v298c0 22 33.667 49.667 101 83
s124 50 170 50c43.333 0 75.666 -7.66699 96.999 -23c21.333 -16 32 -40.333 32 -73c-0 -22.667 -16.667 -45.667 -50 -69s-83.333 -46 -150 -68v-127l200 160l200 -160v1920z" />
    <glyph glyph-name="glyph281" horiz-adv-x="600" 
d="M-200 -863c33.333 14.667 50 34.001 50 58.001c0 23.333 -16.667 27.666 -50 12.999v-71zM200 860.001c0 40 -47.333 66.666 -142 79.999c-32 4 -48 19.333 -48 46s8.33301 60 25 100l165 414h300c0 -81.333 -8.66699 -150.333 -26 -207
c-18 -57.333 -48 -98.333 -90 -123c10.667 40.667 16 72.667 16 96c0 22.667 -16.667 34 -50 34h-133l-69 -173c84 -15.333 147 -40 189 -74c42 -33.333 63 -76.333 63 -129v-1924c0 -44 -58.333 -88.333 -175 -133s-191.667 -67 -225 -67s-86.333 14.333 -159 43
c-160.667 60.667 -241 113 -241 157v167c0 22 33.667 49.667 101 83s124 50 170 50c43.333 0 75.666 -7.66699 96.999 -23c21.333 -16 32 -40.333 32 -73c0 -22.667 -16.667 -45.667 -50 -69s-83.333 -46 -150 -68v-33c0 -15.333 46 -40.666 138 -75.999
c92.667 -35.333 151.334 -53 176.001 -53s45 3.33301 61 10c16.667 6.66699 25 35 25 85v1860z" />
    <glyph glyph-name="glyph282" horiz-adv-x="600" 
d="M400 -908c0 -18.667 45.998 -50.333 137.998 -95c92.667 -44 151.334 -66 176.001 -66s45 4.33301 61 13c16.667 7.33301 25 42.666 25 105.999v125l113 95c24.667 20 45.334 30 62.001 30s25 -13.667 25 -41v-209c0 -55.333 -58.333 -110.666 -175 -165.999
c-116.667 -56 -191.667 -84 -225 -84s-86.333 17.667 -159 53c-160.667 76 -241 141.667 -241 197v1810c0 40 -47.333 66.667 -142 80c-32 4 -48 19.333 -48 46s8.33301 60 25 100l165 414h300c0 -81.333 -8.66699 -150.333 -26 -207c-18 -57.333 -48 -98.333 -90 -123
c10.667 40.667 16 72.667 16 96c0 22.667 -16.667 34 -50 34h-133l-69 -173c84 -15.333 147 -40 189 -74c42 -33.333 63 -76.333 63 -129v-1832z" />
    <glyph glyph-name="glyph283" horiz-adv-x="600" 
d="M-400 -875l-0.000976562 34c-33.333 -17.333 -46.666 -30 -39.999 -38c6.66699 -7.33301 20 -6 40 4zM199.999 5c-51.333 6.66699 -107.999 20.334 -169.999 41.001l112 213c19.333 -18 38.666 -34 57.999 -48v649c0 40 -47.333 66.667 -142 80c-32 4 -48 19.333 -48 46
s8.33301 60 25 100l165 414h300c0 -81.333 -8.66699 -150.333 -26 -207c-18 -57.333 -48 -98.333 -90 -123c10.667 40.667 16 72.667 16 96c0 22.667 -16.667 34 -50 34h-133l-69 -173c84 -15.333 147 -40 189 -74c42 -33.333 63 -76.333 63 -129v-798
c49.333 -4.66699 107.666 -1.33398 174.999 9.99902c-62 -52.667 -120.333 -90 -175 -112v-1009c0 -47.333 -58.333 -95 -175 -143s-191.667 -72 -225 -72s-86.333 15 -159 45c-160.667 66 -241 122.667 -241 170v43c-42 -15.333 -79 -14.333 -111 3
c-32.667 16.667 -49 37 -49 61s30 60 90 108c60 46.667 110 70 150 70c39.333 0 79.333 -14 120 -42v-208c0 -16 46 -42.667 138 -80c92.667 -38 151.334 -57 176.001 -57s45 3.66699 61 11c16.667 6.66699 25 37 25 91v990z" />
    <glyph glyph-name="glyph284" 
d="M-443 1966c76.667 6.66699 216.333 -25 419 -95l15 22l-216 110c-80 34.667 -154.667 50.334 -224 47.001c-70 -2.66699 -139 -62 -207 -178c65.333 55.333 136.333 86.666 213 93.999zM-764.001 1858c36 112 78 199 126 261c47.333 62 101 98.667 161 110
c34.667 6 68.667 9 102 9c25.333 0 50.333 -1.66699 75 -5c58 -8 129.667 -33.333 215 -76c84.667 -46 133.667 -95.667 147 -149c3.33301 -13.333 5 -26.333 5 -39c0 -38 -15 -73.667 -45 -107l-121 -162l-125 34c-124.667 34 -235 52 -331 54s-177.667 -12.333 -245 -43z
" />
    <glyph glyph-name="glyph285" 
d="M-443 1966c76.667 6.66699 216.333 -25 419 -95l15 22l-216 110c-80 34.667 -154.667 50.334 -224 47.001c-70 -2.66699 -139 -62 -207 -178c65.333 55.333 136.333 86.666 213 93.999zM49.999 1898l-149 -198l-125 34c-124.667 34 -235 52 -331 54
s-177.667 -12.333 -245 -43l36 113c36 112 78 199 126 261c47.333 62 101 98.667 161 110c60 10.667 119 12 177 4s129.667 -33.333 215 -76c84.667 -46 133.667 -95.667 147 -149c24.667 43.333 37 75.333 37 96c0 24 -14 53.333 -42 88l94 138l24 -41
c16 -28 24 -67 24 -117c0 -50.667 -49.667 -142 -149 -274z" />
    <glyph glyph-name="glyph286" 
d="M-443 1966c76.667 6.66699 216.333 -25 419 -95l15 22l-216 110c-80 34.667 -154.667 50.334 -224 47.001c-70 -2.66699 -139 -62 -207 -178c65.333 55.333 136.333 86.666 213 93.999zM64.999 1998c9.33301 -49.333 -4.99902 -94.667 -42.999 -136l-121 -162l-125 34
c-124.667 34 -235 52 -331 54s-177.667 -12.333 -245 -43l36 113c36 112 78 199 126 261c47.333 62 101 98.667 161 110c60 10.667 119 12 177 4c3.33301 -0.666992 6.33301 -1 9 -1c3.33301 34.667 14.333 68.334 33 101c22 38.667 52.5 68.334 91.5 89
c39 20.667 79.167 31 120.5 31c40.667 0 80.5 -10.333 119.5 -31s69.667 -50.334 92 -89c22.333 -38.667 33.5 -79 33.5 -121c0 -41.333 -10.833 -81 -32.5 -119s-51.834 -67.333 -90.501 -88c-3.33301 -2.66699 -7 -5 -11 -7zM-105 2335
c-30.667 9.33301 -55 5.33203 -73 -12.001c-17.333 -18 -19.666 -40 -6.99902 -66c12.667 -26.667 41 -58 85 -94c44.667 -36 82 -58.333 112 -67c30.667 -9.33301 55 -5.33301 73 12c17.333 17.333 19.666 39.333 6.99902 66c-12.667 26 -41 57 -85 93
c-44 36.667 -81.333 59.334 -112 68.001z" />
    <glyph glyph-name="glyph287" 
d="M-443 1966c76.667 6.66699 216.333 -25 419 -95l15 22l-216 110c-80 34.667 -154.667 50.334 -224 47.001c-70 -2.66699 -139 -62 -207 -178c65.333 55.333 136.333 86.666 213 93.999zM-71.001 2150c76.667 -44 121 -91.333 133 -142c24.667 43.333 37 75.333 37 96
c0 24 -14 53.333 -42 88l94 138l24 -41c16 -28 24 -67 24 -117c0 -50.667 -49.667 -142 -149 -274l-149 -198l-125 34c-124.667 34 -235 52 -331 54s-177.667 -12.333 -245 -43l36 113c36 112 78 199 126 261c47.333 62 101 98.667 161 110c60 10.667 119 12 177 4
c49.333 -6.66699 108.333 -26 177 -58c14.667 30 22 53 22 69c0 24 -14 53.333 -42 88l94 138l24 -41c16 -28 24 -67 24 -117c0 -34.667 -23.333 -88.667 -70 -162z" />
    <glyph glyph-name="glyph288" 
d="M-410 2051c-34 11.333 -61 6 -81 -16c-20 -21.333 -22.667 -48.666 -8 -81.999c14 -32.667 45.667 -71.334 95 -116.001c49.333 -45.333 91 -73.666 125 -84.999s61 -6 81 16c20 21.333 22.667 48.666 8 81.999c-14 32.667 -45.667 71.334 -95 116.001
c-49.333 45.333 -91 73.666 -125 84.999zM-345 2198c46 0 90.8311 -13 134.498 -39s78 -63 103 -111s37.5 -98.333 37.5 -151c0 -51.333 -12.167 -100.666 -36.5 -147.999s-58.166 -84.166 -101.499 -110.499s-89 -39.5 -137 -39.5c-47.333 0 -92.833 13.167 -136.5 39.5
s-77.5 63.166 -101.5 110.499s-36 96.666 -36 147.999c0 52.667 12.333 103 37 151s58.834 85 102.501 111s88.5 39 134.5 39z" />
    <glyph glyph-name="glyph289" 
d="M-245 1600v550l200 200v-550zM-645 1600v550l200 200v-550z" />
    <glyph glyph-name="glyph290" 
d="M-366 1599l-89.001 0.998047c-106 0 -190 19 -252 57s-93 79 -93 123v1c0 44 41 117.333 123 220c56 66.667 114.667 106.334 176 119.001c61.333 12 125.333 -3 192 -45c84 -54.667 137.333 -124 160 -208c17.333 0.666992 50 89.667 98 267
c24 88.667 57.333 155 100 199c42.667 44.667 95 67 157 67h91l-91 -200c-92 0 -150.333 -41.667 -175 -125l-37 -125c-49.333 -166.667 -98.666 -250 -147.999 -250c-61.333 70.667 -142 137.334 -242 200.001c-110 68 -185.333 80.333 -226 37
c-40 -44 -35.333 -82 14 -114c134 -82 236 -123 306 -123z" />
    <glyph glyph-name="glyph291" 
d="M-514 1862c61.333 6.66699 172.667 -23.999 334 -91.999l12 21l-172 107c-64 33.333 -123.667 48.333 -179 45c-56 -2.66699 -111 -60 -165 -172c52 53.333 108.667 83.666 170 90.999zM-111.999 1824c-6 -22 -16.333 -42.668 -31 -62.001l-97 -157l-99 33
c-100 32.667 -188.333 50 -265 52s-142 -12 -196 -42l29 110c28.667 108 62.334 192 101.001 252c38 60 81 95.333 129 106c47.333 10.667 94.333 12 141 4c32.667 -5.33301 70.667 -19 114 -41c12 23.333 27.333 49.666 46 79c36.667 55.333 75 88 115 98
c40 10.667 81.333 -1.66602 124 -36.999c55.333 -45.333 90.333 -103 105 -173c12 0.666992 33.333 75 64 223c16 73.333 37.667 128.333 65 165c28.667 37.333 63 56 103 56h59l-59 -167c-60 0 -98 -34.667 -114 -104l-25 -104c-32 -139.333 -64 -209 -96 -209
c-40 59.333 -92.667 115.333 -158 168c-71.333 56.667 -120.333 67 -147 31c-16.667 -24 -21.334 -45.667 -14.001 -65c32 -22 57 -45 75 -69c62 -43.333 111 -65 147 -65l-41 -84l-58 1z" />
    <glyph glyph-name="glyph292" horiz-adv-x="2162" 
 />
    <glyph glyph-name="glyph293" horiz-adv-x="2162" 
 />
    <glyph glyph-name="glyph294" 
d="M-745 -650l0.000976562 376c0 49.333 58.333 99.333 175 150c116.667 49.333 191.667 74 225 74s86.333 -15.667 159 -47c160.667 -68.667 241 -127.667 241 -177v-247l-200 -129v338c0 17.333 -46 46 -138 86c-92.667 39.333 -151.334 59 -176.001 59
s-45 -3.66699 -61 -11c-16.667 -6.66699 -25 -38.667 -25 -96v-247z" />
    <glyph glyph-name="glyph295" 
d="M-745 -320l0.00195312 113.998c0 35.333 58.333 70.333 175 105c116.667 34 191.667 51 225 51s86.333 -10.667 159 -32c160.667 -47.333 241 -104.333 241 -171c0 -16.667 -100 -61 -300 -133l-300 -107c0 -28 8.33301 -44.333 25 -49c16 -5.33301 36.333 -8 61 -8
s83.334 10.667 176.001 32c92 22.667 138 40 138 52v26l200 104v-157c0 -34.667 -80.333 -75.667 -241 -123c-72.667 -22.667 -125.667 -34 -159 -34s-108.333 17.667 -225 53c-116.667 34.667 -175 69.334 -175 104.001v68c133.333 0 266.666 24.333 399.999 73
c133.333 49.333 200 82.333 200 99c0 26 -46 50.333 -138 73c-92.667 22.667 -151.334 34 -176.001 34s-45 -2.66699 -61 -8c-16.667 -5.33301 -25 -27.666 -25 -66.999c66.667 0 100 -8.16699 100 -24.5s-33.333 -39.833 -100 -70.5s-118.334 -46 -155.001 -46
c-30 0 -45 14 -45 42z" />
    <glyph glyph-name="glyph296" 
d="M-745 -274c0 49.333 58.335 99.333 175.002 150c116.667 49.333 191.667 74 225 74s86.333 -15.667 159 -47c160.667 -68.667 241 -127.667 241 -177v-247l-200 -129v338c0 17.333 -46 46 -138 86c-92.667 39.333 -151.334 59 -176.001 59s-45 -3.66699 -61 -11
c-16.667 -6.66699 -25 -38.667 -25 -96v-205c43.333 86 97.333 129 162 129c28.667 0 59 -10 91 -30c31.333 -20 47 -48.333 47 -85c0 -37.333 -33.333 -69 -100 -95c-12 26 -37 39 -75 39c-38.667 0 -80.334 -17 -125.001 -51l-100 -78l-100 86v290z" />
    <glyph glyph-name="glyph297" 
d="M-615 -90c-53.333 0 -96.668 -18.999 -130.001 -56.999s-50 -99.333 -50 -184s33.333 -159 100 -223s116.667 -96 150 -96c100 0 202.333 58 307 174l94 104c128 148 211 222 249 222c-20 66.667 -63.333 100 -130 100s-157 -66.667 -271 -200l-86 -100
c-57.333 -66.667 -111.666 -100 -162.999 -100c-62.667 0 -103.334 7.66699 -122.001 23s-2 57 50 125l39 51c26 33.333 85 49.666 177 48.999c-57.333 74.667 -128.666 112 -213.999 112z" />
    <glyph glyph-name="glyph298" 
d="M-113 -290c0.666992 26.667 -16.667 40 -52 40c-49.333 0 -74 -18.333 -74 -55c0 -24 25.333 -48 76 -72c33.333 34 50 63 50 87zM-66.001 -413c2.66699 -0.666992 5.33301 -1.66895 8 -3.00195l91 -28c41.333 -12.667 62 -32.667 62 -60
c0 -12.667 -4.66699 -27.334 -14 -44.001c-28.667 -51.333 -69.334 -68.666 -122.001 -51.999c-66 20.667 -120.667 41 -164 61c-28.667 -20 -58.667 -37.667 -90 -53c-79.333 -38.667 -150 -58 -212 -58c-62.667 0 -124.334 17.667 -185.001 53
c-61.333 34.667 -92 100.334 -92 197.001c0 60 50 133.333 150 220l150 130c66.667 0 66.667 -53.333 0 -160c-67.333 -106.667 -100.666 -170 -99.999 -190c0 -36.667 12.333 -62 37 -76c24 -14 83 -11.667 177 7c18.667 4 36 8 52 12l-2 2
c-28 48.667 -42.333 103.334 -43 164.001s18.333 116 57 166s85.334 75 140.001 75c121.333 0 182 -45.667 182 -137c0 -84.667 -27.333 -160 -82 -226z" />
    <glyph glyph-name="glyph299" 
d="M-50 -185c-46.667 -8 -70 -19.667 -70 -35c0 -16 13.333 -24 40 -24h30v59zM-647 -418l-53 -28l53 -40v68zM-745 -578c-63.333 26.667 -95 61.666 -95 104.999c0 22 16.667 40.333 50 55l140 62v133c0 26 -40.667 43.333 -122 52c-32 2.66699 -48 12.667 -48 30
s8.33301 39 25 65l113 26c70.667 -9.33301 127 -25 169 -47s63 -50.333 63 -85v-161c92 0 160.667 -13.333 206 -40c46 -27.333 69 -59.333 69 -96c0 -26 23.333 -39 70 -39c36.667 0 55 13 55 39v136h-30c-31.333 0 -58.333 2.33301 -81 7
c-22 4.66699 -39 11.334 -51 20.001c-25.333 17.333 -38 41 -38 71c0 44 41.5 87.5 124.5 130.5s139.833 64.5 170.5 64.5c70 0 105 -21.667 105 -65v-364c0 -48 -21.333 -88.333 -64 -121c-42 -32.667 -105.667 -49 -191 -49c-71.333 0 -125 19.333 -161 58
c-36 37.333 -54 74.666 -54 111.999c0 14.667 -10.667 30.334 -32 47.001c-22 16 -54.667 24 -98 24v-188l-77 -53l-128 -1c-11.333 28 -41.333 52 -90 72z" />
    <glyph glyph-name="glyph300" 
d="M-195 -238v61c0 18 -13.333 27 -40 27c-26.667 -0.666992 -40 -13 -40 -37c0 -22 26.667 -39 80 -51zM5 -267c66.667 -19.333 100.002 -56 100.002 -110c-34 14.667 -67.333 27 -100 37v-181c0 -30.667 -17 -59.667 -51 -87c-34 -28 -83.667 -42 -149 -42
c-78 0 -130 12.667 -156 38l-118 112l-79 -74c-52.667 -50.667 -90.334 -76 -113.001 -76s-50.667 13.667 -84 41c-33.333 26.667 -50 56 -50 88v311l200 160v-464l200 191l200 -191v204c-166.667 17.333 -250 59 -250 125c0 90 75 135 225 135
c83.333 0 141.666 -13.167 174.999 -39.5s50 -54.5 50 -84.5v-93z" />
    <glyph glyph-name="glyph301" 
d="M-784 -499c-8 12 -12 27.667 -12 47c0 6.66699 0.333008 13.667 1 21c3.33301 28.667 14.333 64 33 106c36.667 83.333 101.334 125 194.001 125c81.333 0 170.833 -50 268.5 -150s173.167 -150 226.5 -150c36 0 54 15 54 45s-11 58.333 -33 85
c-23.333 26 -62.333 39.333 -117 40l125 150c100 -40 150 -100 150 -180s-17.667 -140 -53 -180s-77 -60 -125 -60c-168.667 0 -298.334 46.667 -389.001 140s-156 140 -196 140c-40.667 0 -83 -59.667 -127 -179z" />
    <glyph glyph-name="glyph302" 
d="M-715 -402c54 22 81 40.667 81 56c0 10 -12 15 -36 15h-45v-71zM-893 -275c0 15.333 -36.334 25.333 -109.001 30c-28.667 2 -43 8 -43 18s7.66699 22.333 23 37l129 140h268c41.333 0 62 -16 62 -48c44.667 32 92.334 48 143.001 48h240v-75c86.667 50 179 75 277 75
h258v-375l-100 -42c-22 -9.33301 -40.667 -14 -56 -14c-14.667 0 -22 5 -22 15v341h-107c-96.667 0 -180 -18.667 -250 -56v-244l-99 -42c-22.667 -9.33301 -41.667 -14 -57 -14c-14.667 0 -22 5 -22 15v341h-89c-52.667 0 -114.667 -20 -186 -60l7 15
c12 30 0.333008 45 -35 45h-217l-43 -49c62.667 -6 112.667 -15.333 150 -28s56 -29 56 -49v-24h45c89.333 0 134 -18.667 134 -56s-39 -72.333 -117 -105l-111 -46l-129 39v168zM-901.001 -611c-24 12 -4.33203 33.667 59.001 65c62.667 30.667 146.667 46 252 46
s235.666 -18.667 390.999 -56s264.333 -56 327 -56s94 5.66699 94 17s-12 22 -36 32s-65.667 15 -125 15l134 56c106.667 -15.333 160 -38 160 -68s-18.667 -52.333 -56 -67c-38 -15.333 -94.667 -23 -170 -23c-198.667 0 -362.334 15.667 -491.001 47
c-166 38.667 -267.667 58 -305 58c-61.333 0 -115.666 -11 -162.999 -33z" />
    <glyph glyph-name="glyph303" 
d="M-545 -440l0.000976562 -39c33.333 20.667 46.666 35.667 39.999 45c-6.66699 8.66699 -20 6.66699 -40 -6zM-744.999 -274c0 49.333 58.334 99.333 175.001 150c116.667 49.333 191.667 74 225 74s86.333 -15.667 159 -47c160.667 -68.667 241 -127.667 241 -177v-247
l-200 -129v338c0 17.333 -46 46 -138 86c-92.667 39.333 -151.334 59 -176.001 59s-45 -3.66699 -61 -11c-16.667 -6.66699 -25 -38.667 -25 -96v-84c42 17.333 79 16 111 -4c32.667 -20 49 -44.333 49 -73s-30 -71.667 -90 -129s-110 -86 -150 -86
c-39.333 0 -79.333 17.333 -120 52v324z" />
    <glyph glyph-name="glyph304" 
d="M-171 -250h-424v-242l200 193l130 -151c33.333 0 58.333 26.667 75 80c8.66699 26.667 15 66.667 19 120zM-65 -150l120.001 0.00195312c33.333 0 50 -25 50 -75s-16.667 -81.667 -50 -95c0 46.667 -16.667 70 -50 70l-72 1c-5.33301 -118 -21.333 -210 -48 -276
c-33.333 -83.333 -66.666 -125 -99.999 -125h-50c-51.333 0 -90 14.667 -116 44l-88 101l-79 -72c-52.667 -48.667 -90.334 -73 -113.001 -73s-50.667 15.667 -84 47s-50 65.666 -50 102.999v200c0 33.333 16.667 66.666 50 99.999s66.666 50 99.999 50h479
c0.666992 30.667 1 64 1 100c66.667 0 100 -33.333 100 -100z" />
    <glyph glyph-name="glyph305" 
d="M-145 -136h-59.998c-59.333 0 -128.666 -23.333 -207.999 -70l7 18c14 34.667 1 52 -39 52h-182c-22.667 -22.667 -23.834 -40 -3.50098 -52s91.5 -26.667 213.5 -44c-27.333 -31.333 -70.666 -55.666 -129.999 -72.999c-74.667 7.33301 -126.334 15 -155.001 23
c-28.667 9.33301 -43 34.666 -43 75.999c0 40.667 16.667 76.667 50 108l50 48h240c46.667 0 70 -18.667 70 -56c50 37.333 103.333 56 160 56h230v-177c0 -26 -200 -82 -600 -168v-34c140.667 -54 242.667 -72.333 306 -55l94 24v69l200 86v-246
c0 -13.333 -67 -36.333 -201 -69c-66.667 -16.667 -128.334 -26.667 -185.001 -30h-30c-22.667 0 -44.667 1.33301 -66 4l-116 42l148 40c108.667 -23.333 177.667 -31.333 207 -24s44 21 44 41v39l-42 -12c-72.667 -18 -125.667 -27 -159 -27s-108.333 11 -225 33
s-175 47.333 -175 76v95c133.333 0 266.666 12.833 399.999 38.5s200 51.5 200 77.5v91z" />
    <glyph glyph-name="glyph306" 
d="M-1045 -529c60 19.333 90 35 90 47c0 16 -13.333 24 -40 24h-50v-71zM-1345 -171l100 121h750v-479l200 138l200 -138v168c0 23.333 -40.667 39 -122 47c-32 2 -48 10.667 -48 26s8.33301 34.666 25 57.999l145 180h750v-570l-51 -30h-149v486h-533l-29 -42
c57.333 -9.33301 107 -23.333 149 -42c42 -20 63 -45.333 63 -76v-260l-129 -66h-153l-192 132l-192 -132h-134v486h-533l-29 -42c57.333 -9.33301 107 -23.333 149 -42c42 -20 63 -45.333 63 -76v-48h50c100 0 150 -28.667 150 -86c0 -58 -41.667 -104.333 -125 -139
l-126 -53h-46l-103 59v230c0 20.667 -33.333 35.334 -100 44.001v146z" />
    <glyph glyph-name="glyph307" 
d="M-545 -440l0.000976562 -39c33.333 20.667 46.666 35.667 39.999 45c-6.66699 8.66699 -20 6.66699 -40 -6zM-744.999 -274c0 49.333 58.334 99.333 175.001 150c116.667 49.333 191.667 74 225 74s86.333 -15.667 159 -47c160.667 -68.667 241 -127.667 241 -177v-247
l-200 -129v338c0 17.333 -46 46 -138 86c-92.667 39.333 -151.334 59 -176.001 59s-45 -3.66699 -61 -11c-16.667 -6.66699 -25 -38.667 -25 -96v-84c42 17.333 79 16 111 -4c32.667 -20 49 -44.333 49 -73s-30 -71.667 -90 -129s-110 -86 -150 -86
c-39.333 0 -79.333 17.333 -120 52v324z" />
    <glyph glyph-name="glyph308" 
d="M-603 -638l-12.999 -0.00195312c-48 0 -90 16 -126 48c-38.667 36 -58 95 -58 177v4c0 84 30.333 155.333 91 214c60.667 58 127.667 89.333 201 94c4.66699 0.666992 9 1 13 1c70 0 150.667 -42.667 242 -128l101 -98c137.333 -139.333 225 -207.666 263 -204.999
c-15.333 -68 -56.333 -104 -123 -108h-7c-66 0 -158.333 60.667 -277 182l-92 94c-61.333 62.667 -131.333 94.667 -210 96c-60 1.33301 -91.667 -26 -95 -82c-2.66699 -56.667 28 -99.667 92 -129c64 -28.667 134 -40.667 210 -36
c-56.667 -77.333 -127.334 -118.666 -212.001 -123.999z" />
    <glyph glyph-name="glyph309" 
d="M-318 -50c0 -118.667 -71 -187.333 -213 -206c-142.667 -18.667 -214 -73.667 -214 -165c0 -54 31.333 -99 94 -135s122.667 -54 180 -54s126 30.667 206 92l120 92v-224l200 160v360l-200 -160c0 -40 -47.333 -86 -142 -138c-95.333 -52 -162 -69.667 -200 -53
c-37.333 16.667 -56.333 38.667 -57 66c0 43.333 66.667 88.333 200 135c132.667 46.667 199 90 199 130c0 39.333 -16.667 66 -50 80c-33.333 13.333 -74.333 20 -123 20z" />
    <glyph glyph-name="glyph310" 
d="M-266 -344c-86 -32.667 -180.333 -54.668 -283 -66.001c48.667 -64 102 -95.667 160 -95s95.333 38.334 112 113.001zM-215 -324.001l28 -33.001c44 -50.667 78.667 -72 104 -64c25.333 7.33301 38 45.333 38 114v83c-52 -39.333 -108.667 -72.666 -170 -99.999z
M30 -160.002c16.667 -20 25.001 -40.333 25.001 -61c0 -208.667 -34.333 -323 -103 -343c-69.333 -20.667 -131.333 -5.33398 -186 45.999c-68 -88 -147.333 -132 -238 -132c-91.333 0 -159.666 23.667 -204.999 71c-45.333 46 -68 98.667 -68 158s42.667 94 128 104
c127.333 14.667 238.666 44.334 333.999 89.001s174.666 104 237.999 178l100 -85z" />
    <glyph glyph-name="glyph311" 
d="M-220 -309c-28 -9.33301 -55.668 -21.667 -83.001 -37c-69.333 -38 -141.666 -57 -216.999 -57c-66.667 0 -100 38 -100 114c0 63.333 50 95 150 95h250v-115zM-20.001 -431.001h26l-26 -48v48zM-20.001 -194.001l99.999 -0.000976562l50 94h-600
c-116.667 0 -204 -15.667 -262 -47c-58.667 -31.333 -88 -78.666 -88 -141.999c0 -79.333 25 -138.333 75 -177c50 -40 125 -60 225 -60c36.667 0 79.334 15.667 128.001 47c33.333 22 91 36.333 173 43l-1 -138l171 -76l65 56c42.667 36.667 64 97 64 181
c0 82.667 -21.667 124 -65 124h-35v95z" />
    </font>
</defs>
</svg>
