<?xml version="1.0" standalone="no"?>
<!DOCTYPE svg PUBLIC "-//W3C//DTD SVG 1.1//EN" "http://www.w3.org/Graphics/SVG/1.1/DTD/svg11.dtd" >
<svg>
<metadata>
Created by FontForge 20090914 at Sat Jan 18 02:14:09 2014
 By www-data
KhmerOS - font for the Khmer language of Cambodia
Copyright 2008 Danh Hong
 
This font is free software; you can redistribute it and/or modify it under the terms of the GNU Lesser General Public License as published by the Free Software Foundation; either version 2.1 of the License, or (at your option) any later version.

This library is distributed in the hope that it will be useful, but WITHOUT ANY WARRANTY; without even the implied warranty of MERCHANTABILITY or FITNESS FOR A PARTICULAR PURPOSE.? See the GNU Lesser General Public License for more details.

You should have received a copy of the GNU Lesser General Public License along with this font; if not, write to the Free Software Foundation, Inc., 51 Franklin Street, Fifth Floor, Boston, MA 02110-1301  USA or visit http://www.gnu.org/licenses/lgpl.html
</metadata>
<defs>
<font id="Kh-Freehand" horiz-adv-x="0" >
  <font-face 
    font-family="Kh Freehand"
    font-weight="400"
    font-stretch="normal"
    units-per-em="2048"
    panose-1="2 0 5 0 0 0 0 2 0 4"
    ascent="1638"
    descent="-410"
    x-height="1140"
    cap-height="1500"
    bbox="-4049 -1202 5445 2501"
    underline-thickness="48"
    underline-position="-140"
    unicode-range="U+0020-U+25CC"
  />
<missing-glyph horiz-adv-x="1536" 
d="M256 0v1280h1024v-1280h-1024zM288 32h960v1216h-960v-1216z" />
    <glyph glyph-name="uni17D2_uni1780.liga" unicode="&#x17d2;&#x1780;" 
d="M-1358 -584c-12.667 -43.333 -44.6689 -64.998 -96.002 -64.998h-1c-39.333 0 -59 15.667 -59 47c0 9.33301 1.66699 19.666 5 30.999l72 245c10.667 40 39.667 82.667 87 128c48 44.667 111.333 74 190 88c44.667 7.33301 87.667 11 129 11
c32.667 0 64.667 -2.33301 96 -7c70.667 -10 140.334 -25 209.001 -45s137.334 -50.333 206.001 -91c69.333 -40.667 111.666 -84 126.999 -130c8 -22 12 -45.667 12 -71c0 -28 -4.66699 -58 -14 -90l-15 -49c-7.33301 -22 -19 -38.667 -35 -50s-37 -17 -63 -17
c-25.333 0 -42.666 6.66699 -51.999 20c-8.66699 12.667 -9.33398 31.667 -2.00098 57l19 62c12.667 43.333 14.334 79 5.00098 107c-9.33301 27.333 -39 55.333 -89 84c-50 29.333 -102.667 52 -158 68s-111 28.333 -167 37c-56 8 -109.667 7.66699 -161 -1
c-51.333 -8 -92 -26.333 -122 -55s-48 -56.334 -54 -83.001z" />
    <glyph glyph-name="uni17D2_uni1781.liga" unicode="&#x17d2;&#x1781;" 
d="M-1351 -302c-50.667 0 -69.3311 22.668 -55.998 68.001c12 44.667 62 78 150 100c88.667 22 215.667 33 381 33s285 -14.667 359 -44c60.667 -23.333 91 -57 91 -101c0 -10 -1.66699 -20.333 -5 -31c-11.333 -38.667 -60.666 -70.334 -147.999 -95.001
c-88 -25.333 -214.333 -43 -379 -53c-120 -7.33301 -211.333 -17 -274 -29c-62 -11.333 -95.333 -24.666 -100 -39.999c-4 -16 21.333 -27.667 76 -35s139 -11 253 -11s200.667 4.33301 260 13s91.666 22 96.999 40c10.667 36.667 41.334 54.667 92.001 54
c50 -0.666992 69.667 -26.667 59 -78c-14.667 -46.667 -67 -81.667 -157 -105c-90.667 -23.333 -218.334 -35 -383.001 -35c-165.333 0 -285.666 13 -360.999 39c-62 21.333 -93 51.666 -93 90.999c0 7.33301 1 15.333 3 24c15.333 51.333 65 92.333 149 123
c84.667 30 204 49.667 358 59c130.667 8 229.667 17.333 297 28c66.667 10.667 102 22.667 106 36c3.33301 14 -22.334 24 -77.001 30c-55.333 6.66699 -140 10 -254 10s-200.667 -3.66699 -260 -11c-58.667 -7.33301 -90.334 -19 -95.001 -35
c-8.66699 -30 -38.334 -45 -89.001 -45z" />
    <glyph glyph-name="uni17D2_uni1782.liga" unicode="&#x17d2;&#x1782;" 
d="M-1360 -590c-13.333 -39.333 -44.6699 -58.9971 -94.0029 -58.9971h-1c-39.333 0 -59 15.667 -59 47c0 9.33301 1.66699 19.666 5 30.999l72 245c10.667 40 39.667 82.667 87 128c48 44.667 111.333 74 190 88c44.667 7.33301 87.667 11 129 11
c32.667 0 64.667 -2.33301 96 -7c70.667 -10 140.334 -25 209.001 -45s137.334 -50.333 206.001 -91c69.333 -40.667 111.666 -84 126.999 -130c8 -22 12 -45.667 12 -71c0 -28 -4.66699 -58 -14 -90l-15 -49c-7.33301 -22 -19 -38.667 -35 -50s-37 -17 -63 -17
c-25.333 0 -42.666 6.66699 -51.999 20c-8.66699 12.667 -9.33398 31.667 -2.00098 57l19 62c12.667 43.333 14.334 79 5.00098 107c-9.33301 27.333 -39 55.333 -89 84c-50 29.333 -102.667 52 -158 68s-111 28.333 -167 37c-56 8 -109.667 7.66699 -161 -1
c-51.333 -8 -92 -26.333 -122 -55s-48 -56.334 -54 -83.001l-18 -62c62 27.333 124 41 186 41s126.667 -14.333 194 -43c48 -21.333 58.667 -47.333 32 -78c-26 -31.333 -64 -36 -114 -14c-38 16.667 -74.667 25 -110 25s-78.666 -11.667 -129.999 -35
c-38 -20.667 -75 -44.334 -111 -71.001z" />
    <glyph glyph-name="uni17D2_uni1784.liga" unicode="&#x17d2;&#x1784;" 
d="M-1130 -332c0 -38 -33 -57 -99 -57c-33.333 0 -58.333 -6 -75 -18s-25 -30.333 -25 -55c0 -25.333 25.333 -44 76 -56c50.667 -12.667 101.667 -19 153 -19c141.333 0 255.333 31 342 93c87.333 62 149 155.333 185 280c12.667 42.667 38.334 64 77.001 64
c6 0 12 -0.333008 18 -1c38 -4.66699 57 -23.667 57 -57c0 -10 -2 -21.333 -6 -34c-44 -152.667 -122.333 -267 -235 -343c-112.667 -76.667 -258.667 -115 -438 -115c-104.667 0 -194 15.667 -268 47c-74.667 31.333 -112 78.333 -112 141c0 62 21 108.333 63 139
c41.333 31.333 103.666 47 186.999 47c66.667 0 100 -18.667 100 -56z" />
    <glyph glyph-name="uni17D2_uni1785.liga" unicode="&#x17d2;&#x1785;" 
d="M-656 -342c32.667 38 40.999 62.001 24.999 72.001c-15.333 9.33301 -30.666 14 -45.999 14c-14.667 0 -28 -10.667 -40 -32c-11.333 -20.667 -8 -40.334 10 -59.001c7.33301 -6.66699 16.333 -13 27 -19c9.33301 8 17.333 16 24 24zM-544.001 -417.999
c40 -15.333 72.001 -32.3379 96.001 -51.0049c36.667 -27.333 56.667 -57.666 60 -90.999c1.33301 -5.33301 2 -10.333 2 -15c0 -37.333 -22.333 -57.666 -67 -60.999c-50.667 -4 -78.334 19.333 -83.001 70c-1.33301 18.667 -39 39.667 -113 63
c-27.333 -18.667 -58 -38 -92 -58c-50.667 -29.333 -106.334 -51.666 -167.001 -66.999c-60 -14.667 -124.667 -22 -194 -22h-9c-78.667 0 -142.667 6.33301 -192 19c-50.667 13.333 -85.667 32.666 -105 57.999c-20.667 28.667 -31 56 -31 82c0 12.667 2.33301 25 7 37
c15.333 36.667 54.333 70.334 117 101.001c76 37.333 135.333 73 178 107c42 33.333 67.667 64.666 77 93.999c10 34.667 33 52 69 52c6.66699 0 13.667 -0.666992 21 -2c48.667 -7.33301 67.667 -31.333 57 -72c-12.667 -44 -46 -88.667 -100 -134
c-54 -44.667 -129 -90.667 -225 -138c-45.333 -24 -60.666 -45.667 -45.999 -65s74.334 -29 179.001 -29c52 0 101.333 5.66699 148 17c46 12 89.333 29.667 130 53c12 6.66699 23.333 13.667 34 21c-16 8 -27.333 15.667 -34 23c-50 62.667 -58.333 125.334 -25 188.001
c33.333 62 92.666 92.333 177.999 91c46 0.666992 94.667 -12.666 146 -39.999c42 -22 64 -50 66 -84s-16.667 -73.667 -56 -119c-8 -9.33301 -16.667 -18.666 -26 -27.999z" />
    <glyph glyph-name="uni17D2_uni1786.liga" unicode="&#x17d2;&#x1786;" 
d="M-1400 -503c0 -24.667 16.667 -37 50 -37l32 110h-21c-14 0 -27.667 -6 -41 -18s-20 -30.333 -20 -55zM-1240 -149c9.33301 32.667 39.666 49.001 90.999 49.001s71 -21.333 59 -64l-44 -156c42.667 0 82.667 -9 120 -27c38.667 -18.667 74.667 -46.334 108 -83.001
c67.333 -73.333 121 -110 161 -110c31.333 0 61 9.33301 89 28c27.333 19.333 46.333 47.666 57 84.999l19 73c8 26 6.33301 47 -5 63c-10 15.333 -29 23 -57 23c-36.667 0 -57.667 -11.667 -63 -35c-5.33301 -17.333 3.66699 -26 27 -26c34.667 0.666992 52 -17.333 52 -54
s-17 -55.334 -51 -56.001c-74 0 -125 16 -153 48c-26.667 30 -34 65.667 -22 107c12 42 35.333 73.333 70 94c34.667 21.333 81.334 32 140.001 32c71.333 0 129.333 -19.333 174 -58c31.333 -25.333 47 -58.333 47 -99c0 -18 -3 -37.333 -9 -58l-21 -71
c-20 -69.333 -55.667 -120.666 -107 -153.999c-52.667 -34.667 -115 -52 -187 -52c-46.667 0 -93.667 13 -141 39c-48 26 -96 65.333 -144 118c-37.333 42 -73.333 63 -108 63h-27l-41 -134c-15.333 -57.333 -63.333 -86 -144 -86c-66.667 0 -116.667 12.333 -150 37
s-50 61.334 -50 110.001c0 61.333 19.333 107.333 58 138c38 30 89 45 153 45h50z" />
    <glyph glyph-name="uni17D2_uni1787.liga" unicode="&#x17d2;&#x1787;" 
d="M-588 -301c17.333 60.667 2.66797 90.999 -43.999 90.999c-46.667 0.666992 -72.334 -9 -77.001 -29c-5.33301 -19.333 1.66699 -37.666 21 -54.999c15.333 -14 47 -22 95 -24c2 5.33301 3.66699 11 5 17zM-439.998 -318.001l65.0029 -0.99707
c66.667 -0.666992 100 -19.334 100 -56.001s-33.667 -55 -101 -55h-105c-24 -54 -51.333 -98 -82 -132c-51.333 -58.667 -111 -87.667 -179 -87c-97.333 0 -173 36.333 -227 109c-70.667 -73.333 -157 -110 -259 -110c-98 0 -163.333 27.667 -196 83
c-16.667 28.667 -25 64 -25 106c0 40.667 7.66699 87.334 23 140.001c21.333 74 57.333 129.333 108 166c50 36.667 114.333 55 193 55c66 0 99 -18.333 99 -55s-32.667 -55 -98 -55c-38.667 0 -70.334 -9 -95.001 -27c-24.667 -18.667 -42.667 -46.334 -54 -83.001
c-20.667 -73.333 -27 -128.333 -19 -165c8.66699 -36 32 -54.333 70 -55c48.667 0 94 21 136 63c41.333 41.333 80.666 62 117.999 62s72 -20.667 104 -62c31.333 -42 73.666 -63 126.999 -63c26.667 0 52.334 20 77.001 60c9.33301 15.333 18.666 33.666 27.999 54.999
c-79.333 7.33301 -137.333 28.666 -174 63.999c-47.333 45.333 -63.333 92.333 -48 141c11.333 40 35.666 70 72.999 90s88 30 152 30c84 0 142 -16.667 174 -50c32.667 -34 39.334 -84.333 20.001 -151c-1.33301 -6 -3 -11.667 -5 -17z" />
    <glyph glyph-name="uni17D2_uni1789.liga" unicode="&#x17d2;&#x1789;" 
d="M-530 -135c16.667 23.333 36.666 34.999 59.999 34.999s50.333 -12.333 81 -37c45.333 -35.333 68 -84.666 68 -147.999c0 -21.333 -3 -45 -9 -71c-21.333 -98 -65.833 -171.5 -133.5 -220.5s-185.167 -73.5 -352.5 -73.5c-120.667 0 -223.167 16 -307.5 48
s-180.833 89 -289.5 171s-231.334 123 -368.001 123c-128 0 -230 -17 -306 -51c-70 -34 -121 -33 -153 3c-9.33301 10 -14 20.667 -14 32c0 28 29 58.667 87 92c88.667 47.333 218.334 71 389.001 71c158 0 300 -44.5 426 -133.5s222.667 -146 290 -171
s150.666 -37.5 249.999 -37.5c125.333 0 208.833 12.167 250.5 36.5s67.834 61.166 78.501 110.499c10 48.667 -2.33301 85.334 -37 110.001c-39.333 26 -42.666 63 -9.99902 111z" />
    <glyph glyph-name="uni17D2_uni178A.liga" unicode="&#x17d2;&#x178a;" 
d="M-1318 -432l-17.001 -57c-10 -34 0 -51 30 -51c48.667 0 85.334 5.66699 110.001 17c24.667 12 37 30 37 54c0 12 -11.667 21.333 -35 28c-23.333 6 -58.333 9 -105 9h-20zM-1080 -604c-50 -30 -125.335 -45.001 -226.002 -45.001c-80 0 -135.333 17.333 -166 52
c-13.333 17.333 -20 39.333 -20 66c0 18.667 3 39.334 9 62.001l43 143c10.667 40 39.667 82.667 87 128c48 44.667 111.333 74 190 88c44.667 7.33301 87.667 11 129 11c32.667 0 64.667 -2.33301 96 -7c70.667 -10 140.334 -25 209.001 -45s137.334 -50.333 206.001 -91
c69.333 -40.667 111.666 -84 126.999 -130c8 -22 12 -45.667 12 -71c0 -28 -4.66699 -58 -14 -90l-15 -49c-7.33301 -22 -19 -38.667 -35 -50s-37 -17 -63 -17c-25.333 0 -42.666 6.66699 -51.999 20c-8.66699 12.667 -9.33398 31.667 -2.00098 57l19 62
c12.667 43.333 14.334 79 5.00098 107c-9.33301 27.333 -39 55.333 -89 84c-50 29.333 -102.667 52 -158 68s-111 28.333 -167 37c-56 8 -109.667 7.66699 -161 -1c-51.333 -8 -92 -26.333 -122 -55s-45.667 -46.667 -47 -54c93.333 0 163.333 -12 210 -36
c46.667 -24.667 70 -61 70 -109c0 -59.333 -25 -104.333 -75 -135z" />
    <glyph glyph-name="uni17D2_uni178B.liga" unicode="&#x17d2;&#x178b;" 
d="M-1435 -397c8 -45.333 24.332 -79.332 48.999 -101.999c25.333 -22.667 59 -34.334 101 -35.001c38 0 73.333 9.66699 106 29c32.667 18 63.334 46 92.001 84l55 71l-406 -31zM-1638 -233.999c-17.333 18.667 -40.668 27.666 -70.001 26.999c-57.333 0 -85 -15 -83 -45
c0.666992 -15.333 34 -24 100 -26c22.667 -1.33301 49.334 -1.66602 80.001 -0.999023c-6.66699 18.667 -15.667 33.667 -27 45zM-844.003 -405c32.667 -42.667 64.334 -74.667 95.001 -96c31.333 -22 61.666 -33 90.999 -33c29.333 0.666992 56 17 80 49s45.667 80 65 144
l9 29l-388 -28zM-1589 -391c-104 -4 -185.329 2.99902 -243.996 20.999c-68.667 22 -104 59.333 -106 112v10c0 48.667 18.333 85.334 55 110.001c38.667 26.667 98 40 178 40c73.333 0 130.666 -15.667 171.999 -47c38.667 -28.667 63 -71 73 -127l66 4l924 68l15 52
c12 36.667 37.667 55 77 55c5.33301 0 10.666 -0.333008 15.999 -1c48.667 -6 67.667 -30.333 57 -73l-6 -21l97 7c66.667 4.66699 103 -10.666 109 -45.999c0.666992 -3.33301 1 -6.33301 1 -9c0 -30.667 -30.333 -48.334 -91 -53.001l-153 -11l-24 -70
c-24 -90.667 -59.667 -158.667 -107 -204c-47.333 -46 -106.333 -69 -177 -69c-60.667 0 -116.334 14 -167.001 42c-50.667 27.333 -96.334 68.333 -137.001 123c-43.333 -54.667 -92 -95.667 -146 -123c-53.333 -28 -111.666 -42 -174.999 -42c-88 0 -157 18.333 -207 55
c-50.667 36 -82.334 90.667 -95.001 164z" />
    <glyph glyph-name="uni17D2_uni178C.liga" unicode="&#x17d2;&#x178c;" 
d="M-1299 -308c-49.333 0 -91.334 11.001 -126.001 33.001c-24.667 15.333 -37 36.333 -37 63c0 10.667 2 22 6 34c13.333 42.667 43.333 74.667 90 96c46.667 20.667 90 31 130 31c79.333 0 148.666 -9.66699 207.999 -29l94 -33c88.667 42 158.334 63 209.001 63
c58 0 119.667 -13.667 185 -41c51.333 -22 77 -51.667 77 -89c0 -10.667 -2 -21.667 -6 -33c-10 -33.333 -50.5 -64 -121.5 -92s-172.167 -53.667 -303.5 -77l-284 -51c21.333 -18 93.333 -18 216 0l141 22c94 14 153 12.667 177 -4c24.667 -17.333 28 -51.666 10 -102.999
l-27 -78c-11.333 -36 -36.333 -54 -75 -54c-6 0 -12.333 0.333008 -19 1c-49.333 6 -66.333 31.333 -51 76l22 69l-146 -22c-93.333 -14 -172 -17.333 -236 -10c-63.333 8 -112 26 -146 54c-39.333 35.333 -54.666 64.666 -45.999 87.999c9.33301 23.333 43 40.333 101 51
l318 53c205.333 37.333 312 68.666 320 93.999c4.66699 12 -3.66602 23.333 -24.999 34s-51 15.667 -89 15c-44.667 0 -85.334 -10.667 -122.001 -32c-30.667 -21.333 -62.334 -32 -95.001 -32c-30 0 -74.333 11 -133 33c-52 21.333 -100.333 32 -145 32
c-42 1.33301 -67.667 -9 -77 -31c-6 -22.667 -1.66699 -34 13 -34c54.667 0 81.834 -16 81.501 -48s-29.833 -48.333 -88.5 -49z" />
    <glyph glyph-name="uni17D2_uni178E.liga" unicode="&#x17d2;&#x178e;" 
d="M-3018 -435l-17 -55c-9.33301 -33.333 0.333984 -50 29 -50c47.333 0 83 6 107 18c23.333 11.333 35 28.333 35 51c0 12 -11 21 -33 27c-22.667 6 -56.667 9 -102 9h-19zM-2257 -384c-14 21.333 -40.665 43 -79.998 65c-50 29.333 -102.667 52 -158 68
s-111 28.333 -167 37c-56 8 -109.667 7.66699 -161 -1c-51.333 -8 -92 -26.333 -122 -55s-45.667 -46.667 -47 -54c93.333 0 163.333 -12 210 -36c46.667 -24.667 70 -61 70 -109c0 -59.333 -25 -104.333 -75 -135c-50 -30 -125.333 -45 -226 -45
c-80 0 -135.333 17.333 -166 52c-13.333 17.333 -20 39.333 -20 66c0 18.667 3 39.334 9 62.001l43 143c10.667 40 39.667 82.667 87 128c48 44.667 111.333 74 190 88c44.667 7.33301 87.667 11 129 11c32.667 0 64.667 -2.33301 96 -7c70.667 -10 140.334 -25 209 -45
c68.667 -20 137.334 -50.333 206 -91c69.333 -40.667 111.666 -84 126.999 -130c1.33301 -2.66699 2.33301 -5 3 -7c22.667 15.333 61 23 115 23c68.667 0 169 -33.333 301 -100l165 -83c18 0 41 9.33301 69 28c27.333 19.333 52.333 64.666 75 135.999
c22.667 72.667 57.667 131.667 105 177c48 44.667 111.333 74 190 88c36.667 7.33301 73.334 11 110.001 11c28.667 0 57 -2.33301 85 -7c64 -10 127 -25 189 -45c68.667 -20 137.334 -50.333 206.001 -91c69.333 -40.667 111.666 -84 126.999 -130c8 -22 12 -45.667 12 -71
c0 -28 -4.66699 -58 -14 -90l-15 -49c-7.33301 -22 -19 -38.667 -35 -50s-37 -17 -63 -17c-25.333 0 -42.666 6.66699 -51.999 20c-8.66699 12.667 -9.33398 31.667 -2.00098 57l19 62c12.667 43.333 14.334 79 5.00098 107c-9.33301 27.333 -39 55.333 -89 84
c-50 29.333 -102.667 52 -158 68c-48.667 16 -97.667 28.333 -147 37c-49.333 8 -93 7.66699 -131 -1c-51.333 -8 -92 -26.333 -122 -55s-51 -62.667 -63 -102l-18 -58c-24.667 -77.333 -63.334 -133 -116.001 -167c-52.667 -34.667 -110.334 -52 -173.001 -52
c-22.667 0 -95 30.667 -217 92s-203.333 92 -244 92s-79.334 -24.667 -116.001 -74c-57.333 -73.333 -110.333 -110 -159 -110s-66.667 22.667 -54 68l20 67z" />
    <glyph glyph-name="uni17D2_uni178F.liga" unicode="&#x17d2;&#x178f;" 
d="M-1318 -432l-17.001 -57c-10 -34 0 -51 30 -51c48.667 0 85.334 5.66699 110.001 17c24.667 12 37 30 37 54c0 12 -11.667 21.333 -35 28c-23.333 6 -58.333 9 -105 9h-20zM-1080 -604c-50 -30 -125.335 -45.001 -226.002 -45.001c-80 0 -135.333 17.333 -166 52
c-13.333 17.333 -20 39.333 -20 66c0 18.667 3 39.334 9 62.001l43 143c10.667 40 39.667 82.667 87 128c48 44.667 111.333 74 190 88c44.667 7.33301 87.667 11 129 11c32.667 0 64.667 -2.33301 96 -7c70.667 -10 140.334 -25 209.001 -45s137.334 -50.333 206.001 -91
c69.333 -40.667 111.666 -84 126.999 -130c8 -22 12 -45.667 12 -71c0 -28 -4.66699 -58 -14 -90l-15 -49c-7.33301 -22 -19 -38.667 -35 -50s-37 -17 -63 -17c-25.333 0 -42.666 6.66699 -51.999 20c-8.66699 12.667 -9.33398 31.667 -2.00098 57l19 62
c12.667 43.333 14.334 79 5.00098 107c-9.33301 27.333 -39 55.333 -89 84c-50 29.333 -102.667 52 -158 68s-111 28.333 -167 37c-56 8 -109.667 7.66699 -161 -1c-51.333 -8 -92 -26.333 -122 -55s-45.667 -46.667 -47 -54c93.333 0 163.333 -12 210 -36
c46.667 -24.667 70 -61 70 -109c0 -59.333 -25 -104.333 -75 -135z" />
    <glyph glyph-name="uni17D2_uni1790.liga" unicode="&#x17d2;&#x1790;" 
d="M-951 -481c0 -50.667 -16.3301 -88.6689 -48.9971 -114.002c-33.333 -26 -83.333 -39 -150 -39c-116.667 0 -204.334 22.667 -263.001 68c-58.667 44 -88 110.333 -88 199s33.333 155.334 100 200.001s166.667 67 300 67c108 0 222 -35.667 342 -107
c119.333 -71.333 244.666 -178.333 375.999 -321c28 -28.667 42 -53 42 -73c0 -16 -9.33301 -29 -28 -39c-11.333 -6.66699 -23.333 -10 -36 -10c-32 0 -67.333 20.333 -106 61c-114.667 125.333 -221.334 219.333 -320.001 282c-98 62 -188 93 -270 93
c-83.333 0 -145.666 -12.667 -186.999 -38s-62 -63.333 -62 -114s16.667 -88.667 50 -114s83.666 -38 150.999 -38c32.667 0 49 12.667 49 38c0 50 24.667 75 74 75c50 0.666992 75 -24.666 75 -75.999z" />
    <glyph glyph-name="uni17D2_uni1791.liga" unicode="&#x17d2;&#x1791;" 
d="M-937 -102c47.333 -8 64.3311 -32.666 50.998 -73.999c-13.333 -46.667 -40.666 -86.667 -81.999 -120c-41.333 -32 -96.666 -57.667 -165.999 -77c-46 -12.667 -72.333 -29.334 -79 -50.001s12 -43.334 56 -68.001s88.667 -37 134 -37c38.667 0 134.667 90.667 288 272
c62 60.667 121.667 82.334 179 65.001c41.333 -11.333 62 -37.666 62 -78.999c0 -16 -3.33301 -34.667 -10 -56l-83 -277c-9.33301 -31.333 -31.666 -47 -66.999 -47c-6.66699 0 -14 0.666992 -22 2c-48.667 6.66699 -66.334 31.667 -53.001 75l59 199
c-66 -86 -129.333 -150.667 -190 -194c-60 -43.333 -117.333 -65 -172 -65c-75.333 0 -153.666 22.667 -234.999 68c-40.667 23.333 -69 48.333 -85 75c-9.33301 16.667 -14 34 -14 52c0 11.333 1.66699 22.666 5 33.999c9.33301 30.667 28 56.667 56 78
c27.333 21.333 64.333 38.333 111 51c46 12.667 82.667 28.667 110 48c27.333 20 45.666 44 54.999 72c11.333 36.667 35 55 71 55c6.66699 0 13.667 -0.666992 21 -2z" />
    <glyph glyph-name="uni17D2_uni1792.liga" unicode="&#x17d2;&#x1792;" 
d="M-889 -321l68.999 -57c46 -36.667 87.333 -62.667 124 -78c37.333 -16 70 -21.333 98 -16c28.667 5.33301 49.667 25.333 63 60c12.667 36 16.334 80 11.001 132c0 30.667 12 51 36 61zM-1351 -439c-43.333 -12.667 -58.667 -23 -46 -31c22 -14.667 48.667 -31 80 -49
c32 -18 68.667 -23.667 110 -17c36.667 6.66699 68 14.667 94 24c25.333 9.33301 46 35 62 77l32 80zM-451.002 -212c49.333 2.66699 75.668 -18.002 79.001 -62.002c1.33301 -12 2 -24 2 -36c0 -70 -13.667 -127.333 -41 -172c-32 -52.667 -82.333 -85 -151 -97
c-58.667 -10 -117 -5.66699 -175 13c-58.667 18 -116.334 50.333 -173.001 97c-24.667 -61.333 -60.334 -101.666 -107.001 -120.999c-40 -23.333 -91 -40.333 -153 -51c-30 -6 -58.667 -9 -86 -9c-49.333 0 -93.333 9 -132 27c-61.333 26.667 -109.666 60 -144.999 100
c-20 22.667 -30 44 -30 64c0 13.333 4.33301 26 13 38c22 30.667 72.333 58.334 151 83.001l896 230c20.667 5.33301 38.667 8 54 8c33.333 0 55.333 -11.667 66 -35c4.66699 -6.66699 7 -13.667 7 -21c0 -23.333 -24.667 -41.333 -74 -54l-12 -3c4 0.666992 7.66699 1 11 1
z" />
    <glyph glyph-name="uni17D2_uni1793.liga" unicode="&#x17d2;&#x1793;" 
d="M-622 -257h-708.001c-44 0 -78.667 -6.33301 -104 -19c-26 -13.333 -42.333 -33 -49 -59s4 -45.333 32 -58c28 -13.333 73.333 -20 136 -20c125.333 0 251.333 13 378 39c88.667 18.667 186.334 30.667 293.001 36zM-485.001 -532c38.667 0.666992 61.332 14 67.999 40
s-22.666 39.333 -87.999 40h-10c-8 -53.333 2 -80 30 -80zM-487.003 -335c86 -1.33301 146.999 -17.335 182.999 -48.002c38.667 -32 49.667 -80.667 33 -146c-12 -40 -35 -70 -69 -90c-34.667 -20.667 -80.334 -31 -137.001 -31c-83.333 0 -139.333 24.333 -168 73
c-18 30 -25.333 70 -22 120c-81.333 -6 -157 -16 -227 -30c-142.667 -30 -283.667 -45 -423 -45c-123.333 0 -210.666 18.667 -261.999 56c-36 26.667 -54 62.667 -54 108c0 18.667 2.66699 38.334 8 59.001c13.333 56.667 44.666 99.334 93.999 128.001
c48.667 28 115.334 42 200.001 42h742l5 20c13.333 46 39.333 69 78 69c5.33301 0 11 -0.333008 17 -1c46.667 -8 64.334 -37.333 53.001 -88h162c64 0.666992 96 -19 96 -59c0 -39.333 -32 -59 -96 -59h-193z" />
    <glyph glyph-name="uni17D2_uni1795.liga" unicode="&#x17d2;&#x1795;" 
d="M-1275 -381c22.667 16.667 66.001 25.001 130.001 25.001c54 0 99.667 -9.33301 137 -28c38.667 -18 74.667 -40.667 108 -68c67.333 -58.667 127.666 -88 180.999 -88c38 0 71 9.33301 99 28c27.333 19.333 46.333 47.666 57 84.999l19 73c8 26 6.33301 47 -5 63
c-10 15.333 -29 23 -57 23c-36.667 0 -57.667 -11.667 -63 -35c-5.33301 -17.333 3.66699 -26 27 -26c34.667 0.666992 52 -17.333 52 -54s-17 -55.334 -51 -56.001c-74 0 -125 16 -153 48c-26.667 30 -34 65.667 -22 107c12 42 35.333 73.333 70 94
c34.667 21.333 81.334 32 140.001 32c71.333 0 129.333 -19.333 174 -58c31.333 -25.333 47 -58.333 47 -99c0 -18 -3 -37.333 -9 -58l-21 -71c-20 -69.333 -55.667 -120.666 -107 -153.999c-52.667 -34.667 -118.334 -52 -197.001 -52c-60 0 -113.667 13 -161 39
c-48 26 -96 58 -144 96c-37.333 32.667 -78 49 -122 49c-49.333 0 -92.333 -24.667 -129 -74c-57.333 -73.333 -110.333 -110 -159 -110c-38 0 -57 14.333 -57 43c0 8 1 16.333 3 25l20 67l102 345c14 46.667 46.667 70 98 70c50.667 0 68 -27.667 52 -83z" />
    <glyph glyph-name="uni17D2_uni1796.liga" unicode="&#x17d2;&#x1796;" 
d="M-1318 -429l-17.001 -57c-10 -35.333 0 -53 30 -53c48.667 0 85.334 6 110.001 18s37 30.333 37 55c0 12.667 -11.667 22 -35 28s-58.333 9.33301 -105 10zM-1080 -604c-50 -30.667 -125.332 -46.001 -225.999 -46.001c-80 0 -135.333 17.667 -166 53
c-13.333 18 -20 40.667 -20 68c0 18.667 3 39.667 9 63l63 217c14 49.333 44.333 86.333 91 111s90 37 130 37c59.333 0 122 -11.333 188 -34l94 -39c95.333 49.333 161.666 74 198.999 74c44.667 0 107.667 -15.667 189 -47c62.667 -24 94 -66.333 94 -127
c0 -18.667 -3.33301 -39.667 -10 -63l-76 -260c-12 -35.333 -43 -53 -93 -53c-50.667 0 -69 25 -55 75l75 260c9.33301 30.667 2.5 55.334 -20.5 74.001s-53.5 28 -91.5 28c-31.333 0 -65.333 -12.667 -102 -38c-37.333 -24 -72.333 -36 -105 -36
c-30 0 -77.667 12.333 -143 37c-65.333 25.333 -110.333 38 -135 38c-42 1.33301 -66.333 -11 -73 -37l-21 -69c93.333 0 163.333 -12.333 210 -37s70 -61.667 70 -111c0 -60.667 -25 -106.667 -75 -138z" />
    <glyph glyph-name="uni17D2_uni1797.liga" unicode="&#x17d2;&#x1797;" 
d="M-1480 -430c-42.667 13.333 -76.333 20.666 -101 21.999c-24.667 2 -40.667 -2.66699 -48 -14c-13.333 -21.333 -12 -41.333 4 -60c16 -18 46.333 -34.333 91 -49c27.333 -9.33301 46 3.33398 56 38.001l16 56zM-1794 -458c0 26 8.66504 53.333 25.998 82
c27.333 44 69 70 125 78s126.667 -2 212 -30l2 10c9.33301 34.667 37.666 74.667 84.999 120c48 44.667 111.333 74 190 88c44.667 7.33301 87.667 11 129 11c32.667 0 64.667 -2.33301 96 -7c70.667 -10 140.334 -25 209.001 -45s137.334 -50.333 206.001 -91
c69.333 -40.667 111.666 -84 126.999 -130c8 -22 12 -45.667 12 -71c0 -28 -4.66699 -58 -14 -90l-15 -49c-7.33301 -22 -19 -38.667 -35 -50s-37 -17 -63 -17c-25.333 0 -42.666 6.66699 -51.999 20c-8.66699 12.667 -9.33398 31.667 -2.00098 57l19 62
c12.667 43.333 14.334 79 5.00098 107c-9.33301 27.333 -39 55.333 -89 84c-50 29.333 -102.667 52 -158 68s-111 28.333 -167 37c-56 8 -109.667 7.66699 -161 -1c-51.333 -8 -92 -26.333 -122 -55s-45.667 -46.667 -47 -54l-56 -196
c-17.333 -56 -44.666 -93.667 -81.999 -113c-22 -10.667 -47.333 -16 -76 -16c-31.333 0 -66 6.33301 -104 19c-92 30 -152.333 66.333 -181 109c-12.667 20 -19 41 -19 63z" />
    <glyph glyph-name="uni17D2_uni1798.liga" unicode="&#x17d2;&#x1798;" 
d="M-466 -435c-17.333 -64.667 3.00098 -97 61.001 -97c52 0 84.667 26.333 98 79s-29.334 79 -128.001 79h-14zM-604.999 -382c-79.333 -9.33301 -162.666 -24.001 -249.999 -44.001c-195.333 -44 -369.333 -66 -522 -66c-123.333 0 -210.666 18.333 -261.999 55
c-36 26.667 -54 64.334 -54 113.001c0 20.667 3 43 9 67c12.667 44.667 43.167 62.5 91.5 53.5s68.166 -32.167 59.499 -69.5c-11.333 -41.333 -3 -68.333 25 -81c28 -13.333 72.333 -20 133 -20c138.667 0 294 19.667 466 59c119.333 27.333 231.666 45 336.999 53l38 143
c13.333 46 39.333 69 78 69c5.33301 0 11 -0.333008 17 -1c48 -8.66699 65 -40 51 -94l-29 -111c99.333 -2 171 -23 215 -63c33.333 -29.333 50 -66.333 50 -111c0 -18 -3 -37.667 -9 -59c-16 -54.667 -45.333 -95 -88 -121c-42 -26.667 -91.333 -40 -148 -40
c-103.333 0 -169.333 24.333 -198 73c-29.333 48 -35.333 103.333 -18 166z" />
    <glyph glyph-name="uni17D2_uni179A.liga" unicode="&#x17d2;&#x179a;" horiz-adv-x="800" 
d="M512 927c-70.667 -330.667 -95.6699 -581.669 -75.0029 -753.002c21.333 -171.333 88.333 -318.333 201 -441c132 -154.667 290.333 -232 475 -232c184 0 326.333 55 427 165c65.333 70 115 87.667 149 53c34 -34 19 -89.667 -45 -167
c-120 -133.333 -295.667 -200.666 -527 -201.999c-231.333 0 -426 92.333 -584 277c-138.667 152.667 -219.667 324.334 -243 515.001c-5.33301 42.667 -8 90 -8 142c0 181.333 28 403.333 84 666c74 346.667 204.333 608.334 391 785.001c188 176.667 377 265 567 265
s392.333 -48.333 607 -145c35.333 -18 53 -41 53 -69c0 -10.667 -2.66699 -22.334 -8 -35.001c-19.333 -44 -56.666 -55.333 -111.999 -34c-191.333 88.667 -370.333 133 -537 133c-151.333 0 -308.666 -77 -471.999 -231s-277.666 -384.667 -342.999 -692z" />
    <glyph glyph-name="uni17D2_uni179B.liga" unicode="&#x17d2;&#x179b;" 
d="M-1665 -352c22 84 64.6699 147.335 128.003 190.002c64 41.333 148.333 62 253 62c87.333 0 166.666 -21 237.999 -63c71.333 -42.667 134.666 -106.667 189.999 -192c72.667 -112.667 124.334 -169 155.001 -169c25.333 0 62.666 40 111.999 120l163 254
c21.333 32 45.333 48 72 48c11.333 0 23.333 -3 36 -9c26 -12.667 39 -29.667 39 -51c0 -14.667 -5.66699 -31 -17 -49l-159 -254c-39.333 -61.333 -80.333 -107.333 -123 -138c-42 -31.333 -86.333 -47 -133 -47c-42 0 -85.667 19 -131 57c-46 38 -93.667 95 -143 171
c-40.667 65.333 -86 114 -136 146c-50 32.667 -104.333 49 -163 49c-64.667 0 -116.334 -12 -155.001 -36c-38.667 -24.667 -63.667 -61.667 -75 -111c-12.667 -50 -10.667 -87.667 6 -113c16 -24.667 47 -37 93 -37c24 39.333 51.833 58.666 83.5 57.999
s58.5 -8.66699 80.5 -24c22 -14.667 33 -37.334 33 -68.001s-16.667 -53.667 -50 -69c-32 -15.333 -81 -23 -147 -23c-107.333 0 -182 25 -224 75c-26 32 -39 73.667 -39 125c0 29.333 4.33301 62 13 98z" />
    <glyph glyph-name="uni17D2_uni179C.liga" unicode="&#x17d2;&#x179c;" 
d="M-842 -344c-150.667 -45.333 -296.334 -71 -437.001 -77l-43 -3c-7.33301 -50 19 -81.333 79 -94c59.333 -12.667 109 -19 149 -19c126.667 0 218.334 12.333 275.001 37c72 29.333 152.667 104.333 242 225l30 40c-100 -44 -198.333 -80.333 -295 -109zM-392 -257
l-49 -65c-106.667 -145.333 -197.667 -234 -273 -266c-81.333 -41.333 -209 -62 -383 -62c-101.333 0 -193.333 19.333 -276 58c-64.667 30.667 -97 81.667 -97 153c0 18 2 38 6 60c13.333 46 71 68.667 173 68c126.667 6 257.667 29.333 393 70s275 98.334 419 173.001
c23.333 12 44.333 18 63 18c20.667 0 38.667 -8 54 -24c14 -12.667 21 -24.667 21 -36c0 -14.667 -10.667 -28 -32 -40c-0.666992 -0.666992 -1.66699 -1.33398 -3 -2.00098c14 -36 8.66699 -71 -16 -105z" />
    <glyph glyph-name="uni17D2_uni17A0.liga" unicode="&#x17d2;&#x17a0;" 
d="M-1444 -174l-76.001 -263.997c-10 -34 3.66699 -59.667 41 -77c37.333 -16.667 98.666 -25 183.999 -25c84.667 0 151 9.33301 199 28c47.333 18 76.333 45 87 81l42 139c18 63.333 63 110.666 135 141.999c71.333 32 169.333 48 294 48
c144.667 0 247.334 -20 308.001 -60c44.667 -28.667 67 -68 67 -118c0 -18 -3.33301 -38 -10 -60l-70 -238c-14 -47.333 -46.333 -71 -97 -71c-51.333 0 -69 27 -53 81l70 246c11.333 36.667 -1.33398 64 -38.001 82c-36 18.667 -95.667 28 -179 28
s-148.666 -9 -195.999 -27c-47.333 -18.667 -76.333 -46 -87 -82l-36 -134c-20 -64.667 -66.333 -113.334 -139 -146.001c-73.333 -32.667 -173 -49 -299 -49c-146.667 0 -250.667 21 -312 63c-43.333 30 -65 70.667 -65 122c0 19.333 3 40.666 9 63.999l72 248
c12 35.333 36.667 53 74 53c6 0 12.333 -0.333008 19 -1c48.667 -6.66699 67.334 -31 56.001 -73z" />
    <glyph glyph-name="uni17D2_uni17A2.liga" unicode="&#x17d2;&#x17a2;" 
d="M-672 -380l6.99902 27.001l-69 49c-54 51.333 -44.333 104.333 29 159c40.667 30 84.334 45 131.001 45c38 0 78.333 -10 121 -30c40 -16.667 60 -35.667 60 -57c0 -8.66699 -4 -18.334 -12 -29.001c-24 -31.333 -61.333 -36 -112 -14c-44.667 16.667 -76 16.667 -94 0
c-17.333 -16.667 19 -45.667 109 -87l-46 -168c-32 -110 -112 -165 -240 -165c-68 0 -101.833 18.5 -101.5 55.5s34.166 55.5 101.499 55.5c39.333 0 67.333 16.667 84 50l-370 28c-33.333 2 -57.666 8.33301 -72.999 19c-14.667 10.667 -20.667 25 -18 43
c2 18.667 12 31.667 30 39c18 8 43.333 11 76 9zM-1335 -352.999l-69.001 49.001c-54 51.333 -44.333 104.333 29 159c40.667 30 84.334 45 131.001 45c38 0 78.333 -10 121 -30c56.667 -24.667 72.667 -53.334 48 -86.001c-24 -31.333 -61.333 -36 -112 -14
c-44.667 16.667 -76 16.667 -94 0c-17.333 -16.667 19 -45.667 109 -87l-46 -168c-32 -110 -112 -165 -240 -165c-67.333 0 -101 18.667 -101 56c0 36.667 33.667 55 101 55c47.333 0 78 24.333 92 73z" />
    <glyph glyph-name="uni17B7_uni17CD.liga" unicode="&#x17b7;&#x17cd;" 
d="M-303 1969l-41 38c-68 63.333 -147.333 128.333 -238 195c-62 44 -123.333 74.333 -184 91c-60 16.667 -120 20.334 -180 11c-76 -12 -131 -35.667 -165 -71c-34 -34.667 -47.667 -81.334 -41 -140c4.66699 -42 24 -76 58 -102c34 -25.333 82.667 -42.333 146 -51
l372 -49c131.333 -19.333 244 -39 338 -59c-26 28 -44.667 57 -56 87c-5.33301 16 -8.33301 32.667 -9 50zM66 1669c-1.33301 -22 -11.6699 -36.0049 -31.0029 -42.0049l-22 -4c-7.33301 0.666992 -16.333 1.33398 -27 2.00098c-20.667 2.66699 -45 9 -73 19
c-112 36.667 -284.667 69.334 -518 98.001l-355 47c-122.667 9.33301 -212.667 43 -270 101c-28 28.667 -48 63.334 -60 104.001c-2.66699 10.667 -4.66699 21.334 -6 32.001c-2.66699 18.667 -4 38.667 -4 60.001c0 15.333 0.666992 31.666 2 49
c10 90 42.333 161.667 97 215c55.333 52.667 132.333 87 231 103c30.667 4.66699 61 7 91 7c48.667 0 97.334 -6.33301 146.001 -19c77.333 -21.333 154.333 -59.666 231 -115c96.667 -69.333 179.667 -135.333 249 -198c44 58 104 87.333 180 88c81.333 0 181 -33 299 -99
c40 -23.333 79.333 -3.66602 118 59l68 108c44.667 70.667 90.667 124 138 160c47.333 35.333 96 54 146 56h8c48 0 94 -11.333 138 -34c46 -24 90.667 -60.333 134 -109c18 -20 27 -39.333 27 -58s-9 -37 -27 -55c-35.333 -35.333 -69.333 -35 -102 1
c-61.333 70.667 -117.333 105.334 -168 104.001c-51.333 -1.33301 -103.666 -44.333 -156.999 -129l-76 -120c-44.667 -72 -93.667 -117.667 -147 -137s-111.333 -12.333 -174 21c-77.333 43.333 -139.666 69.666 -186.999 78.999c-48 10 -81 2.66699 -99 -22
c-3.33301 -6.66699 -5.66602 -13.667 -6.99902 -21c22 -23.333 41.667 -46 59 -68c24 -30 45 -58.333 63 -85c86 -44.667 166.333 -67 241 -67c66 0 99.167 -25 99.5 -75s-32.834 -75 -99.501 -75c-53.333 0 -105.333 6.33301 -156 19z" />
    <glyph glyph-name=".notdef" horiz-adv-x="1536" 
d="M256 0v1280h1024v-1280h-1024zM288 32h960v1216h-960v-1216z" />
    <glyph glyph-name="space" unicode=" " horiz-adv-x="569" 
 />
    <glyph glyph-name="space" unicode="&#xa0;" horiz-adv-x="569" 
 />
    <glyph glyph-name="exclam" unicode="!" horiz-adv-x="872" 
d="M612 1493v-692l-40 -457h-70l-40 457v692h150zM622 213v-213h-172v213h172z" />
    <glyph glyph-name="quotedbl" unicode="&#x22;" horiz-adv-x="727" 
d="M106 1452h190v-227l-55 -275h-80l-55 275v227zM434 1452h190v-227l-55 -275h-80l-55 275v227z" />
    <glyph glyph-name="numbersign" unicode="#" horiz-adv-x="1138" 
d="M993 1427l-74 -401h190v-139h-217l-63 -357h215v-139h-240l-80 -431h-155l77 431h-253l-80 -431h-156l78 431h-207v139h233l64 357h-221v139h248l73 401h156l-74 -401h256l72 401h158zM737 887h-254l-66 -357h256z" />
    <glyph glyph-name="dollar" unicode="$" horiz-adv-x="1138" 
d="M501 1577l121.001 0.000976562v-111c172 -12 290 -81.667 354 -209c26 -51.333 40.333 -109.333 43 -174v-20h-161c-1.33301 105.333 -41 181 -119 227c-27.333 15.333 -57.333 25.666 -90 30.999c-8.66699 1.33301 -17.667 2 -27 2v-510
c136.667 -42 226 -74.667 268 -98c116 -66 174 -171.333 174 -316c0 -142 -46.333 -254.667 -139 -338c-14.667 -13.333 -31 -25.333 -49 -36c-66.667 -39.333 -151.334 -63.333 -254.001 -72v-211h-121v211c-210 14 -344.333 100.667 -403 260
c-22 62.667 -31 133.667 -27 213h162c9.33301 -101.333 23.666 -168.333 42.999 -201c2.66699 -4 5.33398 -8.66699 8.00098 -14c48 -65.333 120.333 -104.333 217 -117v557c-126.667 38.667 -212.667 74.334 -258 107.001c-96.667 69.333 -145 169 -145 299
c0 199.333 95.333 327.666 286 384.999c36 10.667 75 18.667 117 24v111zM501.001 829.001v492.001c-130.667 -18 -207.667 -78.667 -231 -182c-4 -19.333 -6 -40 -6 -62c0 -122.667 79 -205.334 237 -248.001zM622.001 633.002l-0.000976562 -539
c83.333 10 146 35.333 188 76c57.333 54.667 86 123 86 205c0 83.333 -32 145.333 -96 186c-39.333 24.667 -98.666 48.667 -177.999 72z" />
    <glyph glyph-name="percent" unicode="%" horiz-adv-x="1820" 
d="M407 1403c114.667 0 207.001 -45.001 277.001 -135.001l37 -58c24 -50 36 -103.667 36 -161c0 -108 -43 -197 -129 -267c-64 -53.333 -137 -80 -219 -80c-110.667 0 -201.334 43 -272.001 129c-52 66 -78 140 -78 222c0 110.667 43 201.334 129 272.001
c64 52 137 78 219 78zM407.001 1260c-73.333 0 -130.667 -31.666 -172 -94.999l-24 -47c-7.33301 -22 -11 -43.667 -11 -65c0 -72.667 30.667 -130 92 -172c36 -23.333 75 -35 117 -35c74 0 131.333 30.667 172 92c23.333 34 35 71.667 35 113
c0 77.333 -32.667 136.666 -98 177.999c-32.667 20.667 -69.667 31 -111 31zM1247 1452h135l-809 -1492h-135zM1409 659c116 0 208.667 -45 278 -135c48 -62.667 72 -135 72 -217c0 -108 -43 -196.667 -129 -266c-64 -52.667 -137 -79 -219 -79
c-110.667 0 -201.667 42.667 -273 128c-52 65.333 -78 139 -78 221c0 110.667 44 201 132 271c64 51.333 136.333 77 217 77zM1409 516c-74 0 -131.332 -30.667 -171.999 -92c-23.333 -34 -35 -71.667 -35 -113c0 -74.667 32 -132.667 96 -174c34 -22 71.667 -33 113 -33
c73.333 0 130.666 31 171.999 93c23.333 34 35 70.667 35 110c0 78 -33 137.333 -99 178l-47 21c-20.667 6.66699 -41.667 10 -63 10z" />
    <glyph glyph-name="ampersand" unicode="&#x26;" horiz-adv-x="1366" 
d="M1009 684l164.001 -0.00292969c0 -128 -39.667 -253 -119 -375l250 -309h-223l-127 160c-66.667 -66 -119.334 -110.333 -158.001 -133c-76.667 -49.333 -166.667 -74 -270 -74c-158.667 0 -276 56 -352 168c-45.333 66.667 -68 146.334 -68 239.001
c0 110.667 35.333 202.334 106 275.001c49.333 49.333 124.666 103.333 225.999 162c-96 120 -150 212.667 -162 278c-2.66699 18 -4 36.333 -4 55c0 105.333 44.333 190 133 254c62.667 45.333 135 68 217 68c122.667 0 215.667 -45 279 -135l30 -57
c12.667 -28.667 20.334 -59.667 23.001 -93c1.33301 -12 2 -24.333 2 -37c0 -94 -37.667 -174.333 -113 -241c-39.333 -35.333 -96 -73.666 -170 -114.999l273 -334c43.333 76.667 64.333 158 63 244zM583.001 882.997c110.667 69.333 176.333 129.332 197 179.999
c9.33301 20.667 14 44.667 14 72c0 70.667 -30.667 121.667 -92 153c-26 14 -54.667 21 -86 21c-82 0 -136.667 -34.333 -164 -103c-8 -21.333 -12 -45.666 -12 -72.999c0 -45.333 17 -92 51 -140zM856 280.996l-327.999 408.999c-128.667 -82 -206.667 -157 -234 -225
c-10.667 -27.333 -16 -57.333 -16 -90c0 -88.667 37 -159 111 -211c47.333 -34 99.666 -51 156.999 -51c92 0 184.333 44.333 277 133c10.667 10.667 21.667 22.334 33 35.001z" />
    <glyph glyph-name="quotesingle" unicode="'" horiz-adv-x="391" 
d="M98 1452h193v-227l-56 -275h-82l-55 275v227z" />
    <glyph glyph-name="parenleft" unicode="(" horiz-adv-x="1146" 
d="M584 1493h112.001c-168.667 -273.333 -261.334 -566.333 -278.001 -879c-1.33301 -28.667 -2 -56.667 -2 -84c0 -318 83.333 -622 250 -912c9.33301 -18 19.333 -35.333 30 -52h-112c-154.667 202 -257 434 -307 696c-18 92.667 -27 182 -27 268
c0 244.667 63.333 489.334 190 734.001c42.667 83.333 90.667 159.666 144 228.999z" />
    <glyph glyph-name="parenright" unicode=")" horiz-adv-x="1146" 
d="M563 -434l-113 -0.000976562c169.333 273.333 262.333 566 279 878c1.33301 28.667 2 56.667 2 84c0 318.667 -83.333 623.334 -250 914.001c-10 17.333 -20.333 34.333 -31 51h113c154 -202 256.333 -434 307 -696c17.333 -93.333 26 -183 26 -269
c0 -244 -63.333 -488 -190 -732c-42 -83.333 -89.667 -160 -143 -230z" />
    <glyph glyph-name="asterisk" unicode="*" horiz-adv-x="1321" 
d="M696 1493h129l-10 -229l217 77l39 -120l-222 -62l144 -182l-105 -74l-127 191l-129 -191l-102 74l141 182l-221 62l39 120l217 -77z" />
    <glyph glyph-name="plus" unicode="+" horiz-adv-x="1196" 
d="M1093 547v-144h-424v-423h-143v423h-424v144h424v424h143v-424h424z" />
    <glyph glyph-name="comma" unicode="," horiz-adv-x="569" 
d="M178 213l215 -0.000976562v-245c0 -179.333 -71.667 -269 -215 -269v78c58.667 2.66699 95 25.334 109 68.001c9.33301 26 14 65.667 14 119v36h-123v213z" />
    <glyph glyph-name="hyphen" unicode="-" horiz-adv-x="681" 
d="M581 639v-147h-487v147h487z" />
    <glyph glyph-name="hyphen" unicode="&#xad;" horiz-adv-x="681" 
d="M581 639v-147h-487v147h487z" />
    <glyph glyph-name="period" unicode="." horiz-adv-x="569" 
d="M391 213v-213h-213v213h213z" />
    <glyph glyph-name="slash" unicode="/" horiz-adv-x="569" 
d="M469 1493h113l-485 -1533h-113z" />
    <glyph glyph-name="zero" unicode="0" horiz-adv-x="1166" 
d="M583 1500c330 0 495 -250 495 -750s-165 -750 -495 -750s-495 250 -495 750s165 750 495 750zM583 1350c-230 0 -345 -200 -345 -600s115 -600 345 -600s345 200 345 600s-115 600 -345 600z" />
    <glyph glyph-name="one" unicode="1" horiz-adv-x="952" 
d="M431 1172h-205v95c141.333 0 222 77.667 242 233h113v-1350h205v-150h-560v150h205v1022z" />
    <glyph glyph-name="two" unicode="2" horiz-adv-x="1129" 
d="M889 1053c0 198 -105 297.001 -315 297.001s-315 -99 -315 -297h-150c0 298 155 447 465 447s465 -149 465 -447c0 -208 -127.333 -366.667 -382 -476l-191 -83c-138 -56.667 -207 -171.334 -207 -344.001h780v-150h-930v150c0 238.667 102.333 401.667 307 489l191 82
c188 81.333 282 192 282 332z" />
    <glyph glyph-name="three" unicode="3" horiz-adv-x="1143" 
d="M562 861c190 0 285 81.668 285 245.001c0 162.667 -95 244 -285 244s-285 -81.333 -285 -244h-150c0 262.667 145 394 435 394s435 -130.667 435 -392c0 -146.667 -45.333 -252.334 -136 -317.001c110.667 -68.667 166 -188.667 166 -360c0 -287.333 -155 -431 -465 -431
s-465 144.333 -465 433h150c0 -188.667 105 -283 315 -283s315 94.333 315 283c0 188 -105 282 -315 282h-78v146h78z" />
    <glyph glyph-name="four" unicode="4" horiz-adv-x="1091" 
d="M698 1231l-477 -712h477v712zM698 1500h150v-981h192v-150h-192v-369h-150v369h-658v150z" />
    <glyph glyph-name="five" unicode="5" horiz-adv-x="1146" 
d="M1039 500c0 -333.333 -145.666 -500 -436.999 -500c-285.333 -0 -444.666 132.333 -477.999 397h150c33.333 -164.667 142.666 -247 327.999 -247c191.333 0 287 116.667 287 350s-92.333 350 -277 350c-134.667 0 -230.667 -42.667 -288 -128h-145l70 778h720v-178h-585
l-37 -373c71.333 34 159.666 51 264.999 51c284.667 0 427 -166.667 427 -500z" />
    <glyph glyph-name="six" unicode="6" horiz-adv-x="1082" 
d="M243 573c28.667 -282 130.999 -423 306.999 -423c210 0 315 108.333 315 325s-105 325 -315 325c-175.333 0 -277.666 -75.667 -306.999 -227zM549.999 0c-310 0 -465 250 -465 750s171.667 750 515 750c276.667 0 415 -117.333 415 -352h-150
c0 134.667 -88.333 202 -265 202c-218.667 0 -339 -162 -361 -486c75.333 57.333 179 86 311 86c310 0 465 -158.333 465 -475s-155 -475 -465 -475z" />
    <glyph glyph-name="seven" unicode="7" horiz-adv-x="1103" 
d="M1029 1350l-533 -1350h-161l534 1350h-770v150h930v-150z" />
    <glyph glyph-name="eight" unicode="8" horiz-adv-x="1078" 
d="M539 1350c-190 0 -285 -83.333 -285 -250s95 -250 285 -250s285 83.333 285 250s-95 250 -285 250zM539 700c-210 0 -315 -91.667 -315 -275s105 -275 315 -275s315 91.667 315 275s-105 275 -315 275zM237 780c-88.667 65.333 -133 172 -133 320
c0 266.667 145 400 435 400s435 -133.333 435 -400c0 -148 -44.333 -254.667 -133 -320c108.667 -68.667 163 -187 163 -355c0 -283.333 -155 -425 -465 -425s-465 141.667 -465 425c0 168 54.333 286.333 163 355z" />
    <glyph glyph-name="nine" unicode="9" horiz-adv-x="1082" 
d="M839 927c-28.667 282 -130.999 423 -306.999 423c-210 0 -315 -108.333 -315 -325s105 -325 315 -325c175.333 0 277.666 75.667 306.999 227zM532.001 1500c310 0 465 -250 465 -750s-171.667 -750 -515 -750c-276.667 -0 -415 117.333 -415 352h150
c0 -134.667 88.333 -202 265 -202c218.667 0 339 162 361 486c-75.333 -57.333 -179 -86 -311 -86c-310 0 -465 158.333 -465 475s155 475 465 475z" />
    <glyph glyph-name="colon" unicode=":" horiz-adv-x="569" 
d="M438 213v-213h-213v213h213zM438 1073v-213h-213v213h213z" />
    <glyph glyph-name="semicolon" unicode=";" horiz-adv-x="569" 
d="M440 1073v-213h-213v213h213zM225 213l215 -0.000976562v-245c0 -179.333 -71.667 -269 -215 -269v78c58.667 2.66699 95 25.334 109 68.001c9.33301 26 14 65.667 14 119v36h-123v213z" />
    <glyph glyph-name="semicolon" unicode="&#x37e;" horiz-adv-x="569" 
d="M440 1073v-213h-213v213h213zM225 213l215 -0.000976562v-245c0 -179.333 -71.667 -269 -215 -269v78c58.667 2.66699 95 25.334 109 68.001c9.33301 26 14 65.667 14 119v36h-123v213z" />
    <glyph glyph-name="less" unicode="&#x3c;" horiz-adv-x="1196" 
d="M92 406v141l1001 424v-162l-806 -330l806 -336v-161z" />
    <glyph glyph-name="equal" unicode="=" horiz-adv-x="1196" 
d="M1093 723v-143h-991v143h991zM1093 371v-144h-991v144h991z" />
    <glyph glyph-name="greater" unicode="&#x3e;" horiz-adv-x="1196" 
d="M1103 547v-141l-1001 -424v161l807 330l-807 336v162z" />
    <glyph glyph-name="question" unicode="?" horiz-adv-x="1585" 
d="M968 408l-184 0.000976562v112c0 68.667 19 128 57 178c23.333 30 59 67.667 107 113l49 43c100.667 90 151.667 180 153 270c0 96 -41.667 164.333 -125 205l-63 21c-23.333 5.33301 -48 8 -74 8c-112 0 -188.333 -39.667 -229 -119
c-23.333 -46.667 -35 -113.667 -35 -201h-174c0 144 30.667 255.667 92 335c62 79.333 154.333 126 277 140c26 3.33301 52.667 5 80 5c172 0 296 -56.667 372 -170l33 -62c20.667 -49.333 31 -103.333 31 -162c0 -95.333 -35 -183.333 -105 -264
c-26 -31.333 -59.333 -65.333 -100 -102c-86 -79.333 -136 -137.333 -150 -174c-8 -20.667 -12 -47.334 -12 -80.001v-96zM968 213.001v-213h-184v213h184z" />
    <glyph glyph-name="at" unicode="@" horiz-adv-x="2078" 
d="M1361 1026h170.001l-184 -573c-16.667 -48 -25 -82.333 -25 -103c0 -36.667 20 -64 60 -82c13.333 -5.33301 27.666 -8 42.999 -8c87.333 0 167 49.333 239 148c70 96.667 105 204.334 105 323.001c0 164 -66.333 306.667 -199 428c-135.333 126 -299 193 -491 201h-31
c-200.667 0 -378.334 -69.667 -533.001 -209l-69 -70c-135.333 -154 -203 -328 -203 -522c0 -192.667 71.667 -355 215 -487c147.333 -136.667 331.666 -205 552.999 -205c108 0 239.667 22 395 66l58 -137c-153.333 -57.333 -307.666 -86 -462.999 -86
c-246 0 -458.333 73 -637 219c-166.667 136 -263 304.333 -289 505c-4 31.333 -6 62.666 -6 93.999c0 210.667 65 404.667 195 582c38 53.333 81 101 129 143c147.333 134 324 218 530 252c50.667 8.66699 101.334 13 152.001 13c226.667 0 423.667 -69 591 -207
c158.667 -128.667 250.334 -285 275.001 -469c4 -28.667 6 -57.334 6 -86.001c0 -165.333 -58.667 -317.666 -176 -456.999c-104 -121.333 -231 -182 -381 -182c-131.333 0 -206.333 52.333 -225 157c-90 -98 -187 -147 -291 -147c-112 0 -200 47 -264 141
c-46.667 67.333 -70 145.333 -70 234c0 148.667 54 280.334 162 395.001c105.333 113.333 226.666 170.666 363.999 171.999c114.667 0 198 -59.333 250 -178zM1054 938c-90 0 -169 -48.332 -237 -144.999c-62 -86 -93 -183.667 -93 -293c0 -92 32.333 -161 97 -207
c32.667 -23.333 68 -35 106 -35c79.333 0 149 44.333 209 133c45.333 65.333 78.666 155.666 99.999 270.999c6 30 9.66699 56.333 11 79c4 74 -24 130 -84 168c-33.333 19.333 -69.666 29 -108.999 29z" />
    <glyph glyph-name="A" unicode="A" horiz-adv-x="1222" 
d="M847 597l-236 685l-236 -685h472zM694 1500l518 -1500h-159l-154 447h-576l-154 -447h-159l518 1500h166z" />
    <glyph glyph-name="B" unicode="B" horiz-adv-x="1257" 
d="M311 710v-560h400c113.333 0 198.333 23.333 255 70s85 116.667 85 210s-28.333 163.333 -85 210s-141.667 70 -255 70h-400zM661 860c113.333 0 198.333 20.334 255 61.001c56.667 41.333 85 102.666 85 183.999c0 82 -28.333 143.333 -85 184s-141.667 61 -255 61h-350
v-490h350zM161 1500l499.999 -0.00390625c163.333 0 286 -33 368 -99c81.333 -65.333 122 -164 122 -296c0 -69.333 -11.333 -129.666 -34 -180.999s-57 -93.666 -103 -126.999c62.667 -33.333 109.334 -80.666 140.001 -141.999c31.333 -61.333 47 -136.333 47 -225
c0 -143.333 -40.667 -250.666 -122 -321.999c-82 -72 -204.667 -108 -368 -108h-550v1500z" />
    <glyph glyph-name="C" unicode="C" horiz-adv-x="1253" 
d="M676 0c-200 0 -350 62.668 -450 188.001c-100 124.667 -150 312 -150 562s50 437.667 150 563c100 124.667 250 187 450 187c125.333 0 231 -24.333 317 -73c86 -49.333 152.333 -123 199 -221l-129 -82c-35.333 80.667 -85.333 141 -150 181c-64 40 -143 60 -237 60
c-150 0 -262.333 -51.333 -337 -154c-75.333 -102 -113 -255.667 -113 -461c0 -204.667 37.667 -358.334 113 -461.001c74.667 -102.667 187 -154 337 -154c98.667 0 181 22.333 247 67c66.667 44 116.667 110.333 150 199l136 -68c-44 -110.667 -110.667 -194 -200 -250
c-88.667 -55.333 -199.667 -83 -333 -83z" />
    <glyph glyph-name="D" unicode="D" horiz-adv-x="1325" 
d="M661 1350h-350v-1200h300c163.333 0 286 50 368 150c81.333 100 122 250 122 450s-36.667 350 -110 450s-183.333 150 -330 150zM1251 750c0 -250 -53.334 -437.333 -160.001 -562c-106.667 -125.333 -266.667 -188 -480 -188h-450v1500h500
c196.667 0 344.334 -62.333 443.001 -187c98 -125.333 147 -313 147 -563z" />
    <glyph glyph-name="E" unicode="E" horiz-adv-x="1278" 
d="M311 723v-573h890v-150h-1040v1500h1020v-150h-870v-477h840v-150h-840z" />
    <glyph glyph-name="F" unicode="F" horiz-adv-x="1216" 
d="M311 873h759v-150h-759v-723h-150v1500h1019v-150h-869v-477z" />
    <glyph glyph-name="G" unicode="G" horiz-adv-x="1308" 
d="M1050 425v183h-376v150h526v-758h-150v134c-95.333 -89.333 -225 -134 -389 -134c-194.667 0 -341 62.667 -439 188c-97.333 124.667 -146 312 -146 562s48.667 437.667 146 563c98 124.667 244.333 187 439 187c242.667 0 409.667 -96.667 501 -290l-140 -67
c-70.667 138 -191 207 -361 207c-144.667 0 -253.334 -50 -326.001 -150s-109 -250 -109 -450s36.333 -350 109 -450s181.334 -150 326.001 -150c196 0 325.667 91.667 389 275z" />
    <glyph glyph-name="H" unicode="H" horiz-adv-x="1378" 
d="M311 693v-693h-150v1500h150v-657h756v657h150v-1500h-150v693h-756z" />
    <glyph glyph-name="I" unicode="I" horiz-adv-x="656" 
d="M253 1350h-150v150h450v-150h-150v-1200h150v-150h-450v150h150v1200z" />
    <glyph glyph-name="J" unicode="J" horiz-adv-x="941" 
d="M570 1350h-155v150h450v-150h-145v-950c0 -266.667 -110.333 -400 -331 -400c-221.333 0 -332 126.667 -332 380h150c0 -153.333 60.667 -230 182 -230c120.667 0 181 83.333 181 250v950z" />
    <glyph glyph-name="K" unicode="K" horiz-adv-x="1231" 
d="M1036 0l-538 805l-187 -179v-626h-150v1500h150v-667l693 667h217l-613 -589l608 -911h-180z" />
    <glyph glyph-name="L" unicode="L" horiz-adv-x="1030" 
d="M311 150h709v-150h-859v1500h150v-1350z" />
    <glyph glyph-name="M" unicode="M" horiz-adv-x="1616" 
d="M808 225l-435 1275h-212v-1500h150v1218l416 -1218h162l416 1218v-1218h150v1500h-212z" />
    <glyph glyph-name="N" unicode="N" horiz-adv-x="1393" 
d="M311 1267v-1267h-150v1500h188l733 -1265v1265h150v-1500h-187z" />
    <glyph glyph-name="O" unicode="O" horiz-adv-x="1322" 
d="M661 1500c195.333 0 341.666 -62.333 438.999 -187c97.333 -125.333 146 -313 146 -563s-48.667 -437.333 -146 -562c-97.333 -125.333 -243.666 -188 -438.999 -188c-194.667 0 -341 62.667 -439 188c-97.333 124.667 -146 312 -146 562s48.667 437.667 146 563
c98 124.667 244.333 187 439 187zM661 1350c-144.667 0 -253.334 -50 -326.001 -150s-109 -250 -109 -450s36.333 -350 109 -450s181.334 -150 326.001 -150c145.333 0 254 50 326 150c72.667 100 109 250 109 450s-36.333 350 -109 450c-72 100 -180.667 150 -326 150z" />
    <glyph glyph-name="P" unicode="P" horiz-adv-x="1239" 
d="M1191 1090c0 -136.667 -41.333 -238.999 -124 -306.999c-82 -68.667 -205.667 -103 -371 -103h-385v-680h-150v1500h535c165.333 0 289 -34 371 -102c82.667 -68.667 124 -171.334 124 -308.001zM311 830.001h385c115.333 0 201.666 21.667 258.999 65s86 108.333 86 195
s-28.667 151.667 -86 195s-143.666 65 -258.999 65h-385v-520z" />
    <glyph glyph-name="Q" unicode="Q" horiz-adv-x="1334" 
d="M1017 348c52.667 98 79 232 79 402c0 200 -36.333 350 -109 450c-72 100 -180.667 150 -326 150c-144.667 0 -253.334 -50 -326.001 -150s-109 -250 -109 -450s36.333 -350 109 -450s181.334 -150 326.001 -150c106.667 0 193.667 27 261 81l-248 181l88 122zM1053 136
c-95.333 -90.667 -225.999 -136 -391.999 -136c-194.667 0 -341 62.667 -439 188c-97.333 124.667 -146 312 -146 562s48.667 437.667 146 563c98 124.667 244.333 187 439 187c195.333 0 341.666 -62.333 438.999 -187c97.333 -125.333 146 -313 146 -563
c0 -208.667 -34 -373.667 -102 -495l184 -134l-88 -121z" />
    <glyph glyph-name="R" unicode="R" horiz-adv-x="1252" 
d="M311 830h385c115.333 0 201.666 21.667 258.999 65s86 108.333 86 195s-28.667 151.667 -86 195s-143.666 65 -258.999 65h-385v-520zM1076 0l-328.001 681.002c-17.333 -0.666992 -34.666 -1 -51.999 -1h-385v-680h-150v1500h535c165.333 0 289 -34 371 -102
c82.667 -68.667 124 -171.334 124 -308.001c0 -104 -24 -188.333 -72 -253s-120 -109.334 -216 -134.001l339 -703h-166z" />
    <glyph glyph-name="S" unicode="S" horiz-adv-x="1204" 
d="M615 1500c332 0 498 -133.334 498 -400.001h-150c0 166.667 -116 250 -348 250s-348 -67.667 -348 -203c0 -136 81 -221 243 -255l244 -53c259.333 -55.333 389 -202 389 -440c0 -266 -176 -399 -528 -399s-528 166.667 -528 500h150c0 -233.333 126 -350 378 -350
s378 83 378 249c0 166.667 -91 269.667 -273 309l-244 53c-239.333 48.667 -359 177.334 -359 386.001c0 235.333 166 353 498 353z" />
    <glyph glyph-name="T" unicode="T" horiz-adv-x="1076" 
d="M464 1350h-454v150h1056v-150h-452v-1350h-150v1350z" />
    <glyph glyph-name="U" unicode="U" horiz-adv-x="1386" 
d="M693 0c-366.667 0 -550 166.667 -550 500v1000h150v-1000c0 -233.333 133.333 -350 400 -350s400 116.667 400 350v1000h150v-1000c0 -333.333 -183.333 -500 -550 -500z" />
    <glyph glyph-name="V" unicode="V" horiz-adv-x="1222" 
d="M1053 1500h159l-518 -1500h-166l-518 1500h159l442 -1282z" />
    <glyph glyph-name="W" unicode="W" horiz-adv-x="1999" 
d="M1079 1500l377 -1283l376 1283h157l-441 -1500h-185l-363 1236l-364 -1236h-185l-441 1500h157l377 -1283l376 1283h159z" />
    <glyph glyph-name="X" unicode="X" horiz-adv-x="1258" 
d="M629 619l-428 -619h-183l520 751l-518 749h183l426 -616l426 616h183l-517 -749l519 -751h-183z" />
    <glyph glyph-name="Y" unicode="Y" horiz-adv-x="1212" 
d="M531 631l-521 869h175l421 -703l421 703h175l-521 -869v-622h-150v622z" />
    <glyph glyph-name="Z" unicode="Z" horiz-adv-x="1193" 
d="M930 1350h-854v150h1041v-150l-853 -1200h853v-150h-1041v150z" />
    <glyph glyph-name="bracketleft" unicode="[" horiz-adv-x="665" 
d="M176 1500h381v-150h-231v-1634h231v-150h-381v1934z" />
    <glyph glyph-name="backslash" unicode="\" horiz-adv-x="752" 
d="M215 1500l485 -1533h-163l-485 1533h163z" />
    <glyph glyph-name="bracketright" unicode="]" horiz-adv-x="665" 
d="M339 1350h-231v150h381v-1934h-381v150h231v1634z" />
    <glyph glyph-name="asciicircum" unicode="^" horiz-adv-x="1046" 
d="M446 1500h150l317 -778h-141l-250 614l-248 -614h-141z" />
    <glyph glyph-name="underscore" unicode="_" horiz-adv-x="1197" 
d="M1213 -241v-135h-1229v135h1229z" />
    <glyph glyph-name="grave" unicode="`" horiz-adv-x="681" 
d="M220 1516l223 -304h-123l-275 304h175z" />
    <glyph glyph-name="a" unicode="a" horiz-adv-x="1115" 
d="M819 620c-58 -24 -132.997 -42.332 -224.997 -54.999c-124.667 -17.333 -218.334 -46.333 -281.001 -87s-94 -93 -94 -157c0 -56.667 18.333 -99.334 55 -128.001s91.667 -43 165 -43c71.333 0 138.666 18 201.999 54s122.666 89.667 177.999 161v255zM69.0029 850.001
c0 96.667 37.6641 169.333 112.997 218c74.667 48 187 72 337 72s262.667 -25.667 338 -77c74.667 -52 112 -129.667 112 -233v-830h-150v186c-55.333 -62 -114.666 -108.333 -177.999 -139c-63.333 -31.333 -130.666 -47 -201.999 -47
c-123.333 0 -215.666 26.667 -276.999 80c-62 54 -93 134.333 -93 241c0 104 41.667 187.333 125 250c82.667 63.333 207 105.666 373 126.999c168 22.667 252 53.334 252 92.001v40c0 53.333 -25 93.333 -75 120s-125 40 -225 40s-175 -11.667 -225 -35
s-75 -58.333 -75 -105h-150z" />
    <glyph glyph-name="b" unicode="b" horiz-adv-x="1115" 
d="M296 0h-150v1500h150v-527c64 111.333 164 167 300 167c300 0 450 -190 450 -570s-150 -570 -450 -570c-136 0 -236 55.667 -300 167v-167zM296 570c0 -131.333 25.5 -234.167 76.5 -308.5s125.5 -111.5 223.5 -111.5c200 0 300 140 300 420s-100 420 -300 420
c-98 0 -172.5 -37 -223.5 -111s-76.5 -177 -76.5 -309z" />
    <glyph glyph-name="c" unicode="c" horiz-adv-x="1031" 
d="M901 143c-79.333 -95.333 -198.332 -143.001 -356.999 -143.001c-158 0 -276.667 47.667 -356 143c-79.333 94.667 -119 237 -119 427s39.667 332.667 119 428c79.333 94.667 198 142 356 142c158.667 0 277.667 -47.333 357 -142
c15.333 -19.333 29.333 -40.666 42 -63.999l-131 -76c-6.66699 11.333 -13.334 21.666 -20.001 30.999c-52 67.333 -134.667 101 -248 101s-195.666 -33.667 -246.999 -101c-52 -67.333 -78 -173.666 -78 -318.999c0 -144.667 26 -250.667 78 -318
c51.333 -68 133.666 -102 246.999 -102s196 34 248 102c20.667 26.667 37 60 49 100l145 -44c-20 -65.333 -48.333 -120.333 -85 -165z" />
    <glyph glyph-name="d" unicode="d" horiz-adv-x="1115" 
d="M819 167c-64 -111.333 -164 -167 -300 -167c-300 0 -450 190 -450 570s150 570 450 570c136 0 236 -55.667 300 -167v527h150v-1500h-150v167zM519 990c-200 0 -300 -139.999 -300 -419.999s100 -420 300 -420c98 0 172.5 37.167 223.5 111.5s76.5 177.166 76.5 308.499
c0 132 -25.5 235 -76.5 309s-125.5 111 -223.5 111z" />
    <glyph glyph-name="e" unicode="e" horiz-adv-x="1083" 
d="M219 545c3.33301 -132 29.332 -229.667 77.999 -293c51.333 -68 133.666 -102 246.999 -102s196 34 248 102c20.667 27.333 37.334 61 50.001 101h156c-19.333 -85.333 -51.666 -155.333 -96.999 -210c-79.333 -95.333 -198.333 -143 -357 -143
c-158 0 -276.667 47.5 -356 142.5s-119 237.5 -119 427.5s39.667 332.5 119 427.5s198 142.5 356 142.5c158.667 0 277.5 -47.5 356.5 -142.5s118.5 -237.5 118.5 -427.5v-25h-800zM860.999 695c-10.667 83.333 -33.668 148 -69.001 194c-52 67.333 -134.667 101 -248 101
s-195.666 -33.667 -246.999 -101c-36 -46 -59.333 -110.667 -70 -194h634z" />
    <glyph glyph-name="f" unicode="f" horiz-adv-x="501" 
d="M179 1140v110c0 166.667 114 250 342 250v-135c-128 0 -192 -38.333 -192 -115v-110h162v-150h-162v-990h-150v990h-140v150h140z" />
    <glyph glyph-name="g" unicode="g" horiz-adv-x="1115" 
d="M519 990c-200 0 -300 -139.999 -300 -419.999s100 -420 300 -420c98 0 172.5 37.167 223.5 111.5s76.5 177.166 76.5 308.499c0 132 -25.5 235 -76.5 309s-125.5 111 -223.5 111zM819 130.001v37c-64 -111.333 -164 -167 -300 -167c-300 0 -450 190 -450 570
s150 570 450 570c136 0 236 -55.667 300 -167v167h150v-1010c0 -326.667 -143.333 -490 -430 -490c-246.667 0 -396.667 91.667 -450 275l125 20c46.667 -96.667 155 -145 325 -145c186.667 0 280 113.333 280 340z" />
    <glyph glyph-name="h" unicode="h" horiz-adv-x="1184" 
d="M898 0v710c0 186.667 -86.667 280 -260 280c-91.333 0 -170.833 -40.333 -238.5 -121s-101.5 -137 -101.5 -169v-700h-150v1500h150v-557c104 131.333 217.333 197 340 197c273.333 0 410 -143.333 410 -430v-710h-150z" />
    <glyph glyph-name="i" unicode="i" horiz-adv-x="424" 
d="M137 1350v150h150v-150h-150zM287 1140v-1140h-150v1140h150z" />
    <glyph glyph-name="j" unicode="j" horiz-adv-x="474" 
d="M187 1350v150h150v-150h-150zM10 -360v150c118 0 177 53.333 177 160v1190h150v-1190c0 -206.667 -109 -310 -327 -310z" />
    <glyph glyph-name="k" unicode="k" horiz-adv-x="1054" 
d="M296 632l502 508h211l-469 -474l504 -666h-188l-422 558l-138 -140v-418h-150v1500h150v-868z" />
    <glyph glyph-name="l" unicode="l" horiz-adv-x="450" 
d="M300 1500v-1500h-150v1500h150z" />
    <glyph glyph-name="m" unicode="m" horiz-adv-x="1732" 
d="M946 700l-0.000976562 -700h-150v710c0 186.667 -73.333 280 -220 280c-91.333 0 -160.833 -40.333 -208.5 -121s-71.5 -137 -71.5 -169v-700h-150v1140h150v-197c90.667 131.333 194 197 310 197c164.667 0 269.334 -77.333 314.001 -232l26 35
c90.667 131.333 194 197 310 197c226.667 0 340 -146.667 340 -440v-700h-150v710c0 186.667 -73.333 280 -220 280c-91.333 0 -160.833 -40.333 -208.5 -121s-71.5 -137 -71.5 -169z" />
    <glyph glyph-name="n" unicode="n" horiz-adv-x="1184" 
d="M898 0v710c0 186.667 -86.667 280 -260 280c-91.333 0 -170.833 -40.333 -238.5 -121s-101.5 -137 -101.5 -169v-700h-150v1140h150v-197c104 131.333 217.333 197 340 197c273.333 0 410 -143.333 410 -430v-710h-150z" />
    <glyph glyph-name="o" unicode="o" horiz-adv-x="1084" 
d="M867 570c0 145.333 -25.667 251.666 -77 318.999c-52 67.333 -134.667 101 -248 101s-195.666 -33.667 -246.999 -101c-52 -67.333 -78 -173.666 -78 -318.999c0 -144.667 26 -250.667 78 -318c51.333 -68 133.666 -102 246.999 -102s196 34 248 102
c51.333 67.333 77 173.333 77 318zM67 570c0 190 39.667 332.667 119 428c79.333 94.667 198 142 356 142c158.667 0 277.667 -47.333 357 -142c78.667 -95.333 118 -238 118 -428s-39.333 -332.333 -118 -427c-79.333 -95.333 -198.333 -143 -357 -143
c-158 0 -276.667 47.667 -356 143c-79.333 94.667 -119 237 -119 427z" />
    <glyph glyph-name="p" unicode="p" horiz-adv-x="1115" 
d="M296 973c64 111.333 164 167 300 167c300 0 450 -190 450 -570s-150 -570 -450 -570c-136 0 -236 55.667 -300 167v-527h-150v1500h150v-167zM596 150c200 0 300 139.999 300 419.999s-100 420 -300 420c-98 0 -172.5 -37.167 -223.5 -111.5
s-76.5 -177.166 -76.5 -308.499c0 -132 25.5 -235 76.5 -309s125.5 -111 223.5 -111z" />
    <glyph glyph-name="q" unicode="q" horiz-adv-x="1115" 
d="M819 1140h150v-1500h-150v527c-64 -111.333 -164 -167 -300 -167c-300 0 -450 190 -450 570s150 570 450 570c136 0 236 -55.667 300 -167v167zM819 570c0 131.333 -25.5 234.167 -76.5 308.5s-125.5 111.5 -223.5 111.5c-200 0 -300 -140 -300 -420s100 -420 300 -420
c98 0 172.5 37 223.5 111s76.5 177 76.5 309z" />
    <glyph glyph-name="r" unicode="r" horiz-adv-x="676" 
d="M656 990c-98 0 -182.5 -40.333 -253.5 -121s-106.5 -137 -106.5 -169v-700h-150v1140h150v-197c110.667 131.333 230.667 197 360 197v-150z" />
    <glyph glyph-name="s" unicode="s" horiz-adv-x="1026" 
d="M77 361l150 0.00195312c0 -140.667 100 -211 300 -211s300 66.667 300 200c0 71.333 -64 123.666 -192 156.999l-160 39c-245.333 59.333 -368 160.666 -368 303.999c0 193.333 140 290 420 290s420 -107.333 420 -322h-150c0 114.667 -90 172 -270 172
s-270 -46.667 -270 -140c0 -71.333 87 -129.333 261 -174l160 -39c199.333 -48 299 -143.667 299 -287c0 -233.333 -150 -350 -450 -350s-450 120.333 -450 361z" />
    <glyph glyph-name="t" unicode="t" horiz-adv-x="566" 
d="M192 990h-161v150h161v360h150v-360h209v-150h-209v-700c0 -93.333 69.667 -140 209 -140v-150c-239.333 0 -359 96.667 -359 290v700z" />
    <glyph glyph-name="u" unicode="u" horiz-adv-x="1184" 
d="M286 1140v-710c0 -186.667 86.667 -280 260 -280c91.333 0 170.833 40.333 238.5 121s101.5 137 101.5 169v700h150v-1140h-150v197c-104 -131.333 -217.333 -197 -340 -197c-273.333 -0 -410 143.333 -410 430v710h150z" />
    <glyph glyph-name="v" unicode="v" horiz-adv-x="929" 
d="M756 1140h157l-368 -1140h-161l-368 1140h157l291 -898z" />
    <glyph glyph-name="w" unicode="w" horiz-adv-x="1448" 
d="M724 844l-220 -844h-191l-297 1140h155l238 -909l237 909h156l238 -909l237 909h155l-297 -1140h-191z" />
    <glyph glyph-name="x" unicode="x" horiz-adv-x="941" 
d="M471 433l-283 -433h-178l372 570l-372 570h178l283 -433l282 433h178l-371 -570l371 -570h-178z" />
    <glyph glyph-name="y" unicode="y" horiz-adv-x="1023" 
d="M492 266l353 874h162l-607 -1500h-162l169 418l-391 1082h159z" />
    <glyph glyph-name="z" unicode="z" horiz-adv-x="1071" 
d="M982 990l-732 -840h762v-150h-953v150l732 840h-702v150h893v-150z" />
    <glyph glyph-name="braceleft" unicode="{" horiz-adv-x="635" 
d="M60 600c74 15.333 119.167 37.835 135.5 67.502s24.5 101.5 24.5 215.5v342c0 139.333 48.333 224.666 145 255.999c24.667 8 50.667 12 78 12h94v-93c-121.333 0 -182 -49.667 -182 -149v-399c0 -180.667 -48.333 -288 -145 -322c96.667 -34 145 -141.333 145 -322v-399
c0 -99.333 60.667 -149 182 -149v-93h-94c-27.333 0 -53.333 4 -78 12c-96.667 31.333 -145 116.666 -145 255.999v342c0 114 -8.16699 185.833 -24.5 215.5s-61.5 52.167 -135.5 67.5v140z" />
    <glyph glyph-name="bar" unicode="|" horiz-adv-x="766" 
d="M308 1500h150v-1860h-150v1860z" />
    <glyph glyph-name="braceright" unicode="}" horiz-adv-x="635" 
d="M575 460c-74 -15.333 -119.167 -37.835 -135.5 -67.502s-24.5 -101.5 -24.5 -215.5v-342c0 -139.333 -48.333 -224.666 -145 -255.999c-24.667 -8 -50.667 -12 -78 -12h-94v93c121.333 0 182 49.667 182 149v399c0 180.667 48.333 288 145 322
c-96.667 34 -145 141.333 -145 322v399c0 99.333 -60.667 149 -182 149v93h94c27.333 0 53.333 -4 78 -12c96.667 -31.333 145 -116.666 145 -255.999v-342c0 -114 8.16699 -185.833 24.5 -215.5s61.5 -52.167 135.5 -67.5v-140z" />
    <glyph glyph-name="asciitilde" unicode="~" horiz-adv-x="1200" 
d="M800 250c-99.333 0 -173.999 41.667 -223.999 125l-38 63c-25.333 41.333 -71.333 62 -138 62c-66 0 -99 -33.333 -99 -100v-150h-151v151c0 166 82.333 249 247 249h3c99.333 0 174.666 -41.667 225.999 -125l37 -62c24.667 -42 70.667 -63 138 -63
c66 0 99 33.333 99 100v150h150v-150c0 -166 -83.333 -249.333 -250 -250z" />
    <glyph glyph-name="uni1780" unicode="&#x1780;" horiz-adv-x="1750" 
d="M461 807c13.333 -6 23.3359 -15.332 30.0029 -27.999c8.66699 -18 9.66699 -43 3 -75l-129 -604c-7.33301 -33.333 -19.333 -58.333 -36 -75c-16 -16.667 -36.667 -25 -62 -25c-26 0 -43.667 8.33301 -53 25c-4.66699 8 -7.33398 18.333 -8.00098 31
c0 12 1.66699 26.333 5 43l134 631c-12 -4 -23 -5.66699 -33 -5c-20.667 2 -37.334 13.333 -50.001 34c-13.333 20.667 -15.666 41 -6.99902 61s27.667 39.333 57 58c97.333 74 185.5 129.5 264.5 166.5s159.5 55.5 241.5 55.5c81.333 0 162.666 -17.667 243.999 -53
c80.667 -34.667 171.334 -87 272.001 -157c100 -70 171 -142.333 213 -217c41.333 -74.667 53.666 -151.667 36.999 -231l-73 -342c-6.66699 -33.333 -18.334 -58.333 -35.001 -75c-16 -16.667 -37 -25 -63 -25s-43.333 8 -52 24c-9.33301 16.667 -10.333 42 -3 76l73 351
c12 54 1 108.667 -33 164c-34 54.667 -91 110 -171 166s-151.667 98 -215 126s-128.333 42 -195 42c-80 0 -151.667 -16.667 -215 -50c-43.333 -22.667 -90.333 -53.334 -141 -92.001zM406.003 978.001c-24.667 -6 -61.999 8.33008 -111.999 42.9971
c-25.333 17.333 -44.333 40 -57 68c-12 28 -18 61.333 -18 100s9 75.667 27 111c18 36 45.333 70.333 82 103c36 32.667 79.333 57 130 73c51.333 16 106.333 24 165 24s114.667 -13 168 -39s107.666 -65 162.999 -117c66 -62.667 107.667 -94 125 -94s62.333 25 135 75
c36 25.333 73.667 44 113 56c39.333 12.667 80 19 122 19c42.667 0 84.667 -9.66699 126 -29c42 -20 83.333 -49.333 124 -88c60.667 -55.333 91 -111 91 -167c0 -53.333 -11 -82.666 -33 -87.999c-22.667 -4.66699 -42.667 6.5 -60 33.5s-52.333 65.167 -105 114.5
c-26 24.667 -51.333 43.334 -76 56.001c-25.333 12 -49.666 18 -72.999 18c-47.333 0 -89.333 -12.333 -126 -37c-54 -37.333 -101.333 -65.666 -142 -84.999c-40.667 -18.667 -74.667 -28 -102 -28c-26.667 0 -57.667 10.667 -93 32c-36 20.667 -76 51.667 -120 93
c-44.667 42 -86.334 73.333 -125.001 94s-74.667 31 -108 31c-84.667 0 -148.667 -18.667 -192 -56s-65 -70.333 -65 -99c0 -28 17.667 -54.333 53 -79c36 -25.333 48.333 -53 37 -83c-10.667 -30.667 -28.667 -49 -54 -55z" />
    <glyph glyph-name="uni1781" unicode="&#x1781;" horiz-adv-x="1510" 
d="M545 928c55.333 34.667 95.6689 30.665 121.002 -12.002c25.333 -43.333 14.333 -80.333 -33 -111c-88 -53.333 -165 -65.333 -231 -36c-66 30 -106.667 86 -122 168c-16 82.667 -14 170 6 262c19.333 91.333 77.333 164.333 174 219
c97.333 54.667 224.666 82 381.999 82c64 0 144 -9.33301 240 -28c139.333 -32 236.333 -88.667 291 -170c35.333 -52.667 53 -115.667 53 -189c0 -39.333 -5 -81.666 -15 -126.999c-20.667 -106 -170.334 -223 -449.001 -351s-441.667 -218.667 -489 -272
c-48 -54 -73.333 -95.667 -76 -125c-2.66699 -30 11.666 -52.333 42.999 -67c30.667 -14 97.667 -21 201 -21c102.667 0 206.334 23.333 311.001 70s164.667 108 180 184c16 76 19.667 132 11 168c-8 36 11.667 61 59 75s78 -3.33301 92 -52c14.667 -48 10 -127 -14 -237
c-24 -110.667 -105 -198 -243 -262s-271.667 -96 -401 -96s-229 17.667 -299 53c-62 32.667 -93 84.667 -93 156c0 8 0.333008 16.333 1 25c8 84 42.667 159.333 104 226s226.333 162 495 286s410 213.333 424 268c16.667 82 6.66699 149.333 -30 202
s-100 90.334 -190 113.001c-87.333 14 -154 21 -200 21c-139.333 0 -241 -18.667 -305 -56c-63.333 -37.333 -101.666 -87 -114.999 -149c-14 -62 -15.667 -115 -5 -159c10 -44 23.333 -70 40 -78c17.333 -8.66699 44.666 -2 81.999 20z" />
    <glyph glyph-name="uni1782" unicode="&#x1782;" horiz-adv-x="1750" 
d="M386 978c-24.667 -6 -61.999 8.33008 -111.999 42.9971c-25.333 17.333 -44.333 40 -57 68c-12 28 -18 61.333 -18 100s9 75.667 27 111c18 36 45.333 70.333 82 103c36 32.667 79.333 57 130 73c51.333 16 106.333 24 165 24s114.667 -13 168 -39
s107.666 -65 162.999 -117c66 -62.667 107.667 -94 125 -94s62.333 25 135 75c36 25.333 73.667 44 113 56c39.333 12.667 80 19 122 19c42.667 0 84.667 -9.66699 126 -29c42 -20 83.333 -49.333 124 -88c60.667 -55.333 91 -111 91 -167
c0 -53.333 -11 -82.666 -33 -87.999c-22.667 -4.66699 -42.667 6.5 -60 33.5s-52.333 65.167 -105 114.5c-26 24.667 -51.333 43.334 -76 56.001c-25.333 12 -49.666 18 -72.999 18c-47.333 0 -89.333 -12.333 -126 -37c-54 -37.333 -101.333 -65.666 -142 -84.999
c-40.667 -18.667 -74.667 -28 -102 -28c-26.667 0 -57.667 10.667 -93 32c-36 20.667 -76 51.667 -120 93c-44.667 42 -86.334 73.333 -125.001 94s-74.667 31 -108 31c-84.667 0 -148.667 -18.667 -192 -56s-65 -70.333 -65 -99c0 -28 17.667 -54.333 53 -79
c36 -25.333 48.333 -53 37 -83c-10.667 -30.667 -28.667 -49 -54 -55zM220.001 243.997l106.001 488.001c31.333 136.667 95.666 232 192.999 286c97.333 54.667 193.666 82 288.999 82c74.667 0 152.667 -17.667 234 -53c80.667 -34.667 171.334 -87 272.001 -157
c100 -70 171 -142.333 213 -217c41.333 -74.667 53.666 -151.667 36.999 -231l-73 -342c-6.66699 -33.333 -18.334 -58.333 -35.001 -75c-16 -16.667 -37 -25 -63 -25s-43.333 8 -52 24c-9.33301 16.667 -10.333 42 -3 76l73 351c12 54 1 108.667 -33 164
c-34 54.667 -91 110 -171 166s-151.667 98 -215 126s-125 42 -185 42c-73.333 0 -142.333 -18.667 -207 -56s-106.667 -100.333 -126 -189l-89 -415c53.333 60 112.333 111.333 177 154c62.667 38 125.334 57 188.001 57c62 0 126.667 -19.667 194 -59
c48 -29.333 58.667 -65 32 -107c-26 -42 -64 -48 -114 -18c-38 22.667 -74.667 34 -110 34s-78.666 -16 -129.999 -48c-45.333 -33.333 -89 -73 -131 -119c-101.333 -122 -167 -183 -197 -183c-29.333 0 -53 20.333 -71 61c-9.33301 21.333 -14 48.666 -14 81.999
c0 29.333 3.66699 63 11 101z" />
    <glyph glyph-name="uni1783" unicode="&#x1783;" horiz-adv-x="2516" 
d="M1384 152c-18 -32.667 -39.3301 -59.999 -63.9971 -81.999c-52.667 -46.667 -121.667 -70 -207 -70h-662c-50.667 0 -86.334 12.333 -107.001 37c-20 25.333 -25 63.333 -15 114l229 1085c7.33301 38 5.66602 66.667 -5.00098 86c-10 18.667 -29 28 -57 28
c-28.667 0 -53 -13.667 -73 -41s-35.667 -68.333 -47 -123c-12.667 -57.333 -6.33398 -86 18.999 -86c34.667 0.666992 52 -24 52 -74s-17 -75.333 -51 -76c-74 0 -125 21.667 -153 65c-17.333 26.667 -26 61.334 -26 104.001c0 28 3.66699 59 11 93
c20.667 96 53.334 168 98.001 216s101.334 72 170.001 72c71.333 0 129.333 -25.333 174 -76c44.667 -50 57.334 -121.333 38.001 -214l-224 -1060h629c44.667 0 81 12.667 109 38c27.333 26 46.666 64.333 57.999 115l118 546l-152 78
c-129.333 63.333 -193 133.333 -191 210c2 76 32.333 147 91 213c58 66.667 115 100 171 100c56.667 0 125.667 -24.333 207 -73l117 -73c56.667 -34 72.667 -73 48 -117c-24 -43.333 -61.333 -50 -112 -20l-117 74c-66.667 39.333 -110 59 -130 59s-45.333 -17.667 -76 -53
s-46.667 -66.333 -48 -93s35 -57.334 109 -92.001l254 -131l-123 -573c20.667 -62.667 42 -111 64 -145c26.667 -42 55 -63 85 -63h354c44.667 0 81 12.667 109 38c27.333 26 46.666 64.333 57.999 115l108 496l-152 78c-129.333 63.333 -193 133.333 -191 210
c2 76 32.333 147 91 213c58 66.667 115 100 171 100c56.667 0 125.667 -24.333 207 -73l107 -63c39.333 -24 59 -50 59 -78c0 -12.667 -3.66699 -25.667 -11 -39c-24 -43.333 -61.333 -50 -112 -20l-107 64c-66.667 39.333 -110 59 -130 59s-45.333 -17.667 -76 -53
s-46.667 -66.333 -48 -93s35 -57.334 109 -92.001l254 -131l-130 -601c-20 -93.333 -56.333 -163.333 -109 -210s-121.667 -70 -207 -70h-353c-66.667 0 -124.334 30.667 -173.001 92c-14 17.333 -27 37.333 -39 60z" />
    <glyph glyph-name="uni1784" unicode="&#x1784;" horiz-adv-x="1650" 
d="M1158 1250h62.001c52 0 83 24.333 93 73c6 26 3.66699 45.333 -7 58s-29.334 19 -56.001 19c-29.333 0 -53.333 -13.333 -72 -40c-18.667 -27.333 -28 -57.333 -28 -90c0 -6 2.66699 -12.667 8 -20zM1106 1100l-205.996 -0.000976562c-137.333 0 -234.333 29.667 -291 89
c-56 58.667 -71 147.334 -45 266.001l22 106c8.66699 41.333 5 74 -11 98s-44 39.667 -84 47c-37.333 8 -64 20 -80 36s-21.333 36.333 -16 61c4.66699 24 17 40.667 37 50c10.667 4.66699 23.667 7 39 7c12.667 0 27 -1.66699 43 -5c92 -17.333 156 -53 192 -107
s44.333 -126.333 25 -217l-20 -106c-12.667 -58 -3.33398 -101.333 27.999 -130c32 -29.333 86 -44 162 -44h101c-1.33301 6.66699 -2 13.667 -2 21c0 85.333 21 153 63 203s104 75 186 75c66.667 0 122.667 -23.667 168 -71c44.667 -48 59.334 -111.667 44.001 -191
c-13.333 -62.667 -40 -109.667 -80 -141c-10 -7.33301 -20.333 -14 -31 -20c57.333 -38.667 97.666 -87 120.999 -145c16 -38.667 24 -82 24 -130c0 -40.667 -6 -85 -18 -133l-94 -439c-20 -93.333 -56.333 -163.333 -109 -210s-110.334 -70 -173.001 -70
c-22.667 0 -101.667 41.667 -237 125s-223.333 125 -264 125s-79.334 -33.333 -116.001 -100c-57.333 -100 -110.333 -150 -159 -150s-66.667 30.667 -54 92l20 92l116 552c13.333 76 7.33301 114 -18 114c-24.667 0 -37.667 -25 -39 -75c-0.666992 -50 -26 -75 -76 -75
c-50 0.666992 -75 26 -75 76c0.666992 50.667 14.667 100.667 42 150s77.666 74 150.999 74s124 -25.333 152 -76c28 -50 32.333 -121.333 13 -214l-73 -344c22.667 22.667 61.667 34 117 34c68.667 0 175.667 -45.667 321 -137l185 -113c18 0 41 12.667 69 38
c27.333 26 46.666 64.333 57.999 115l96 447c14 64.667 12.667 119.667 -4 165s-48.667 81 -96 107c-49.333 25.333 -90.666 51.333 -123.999 78z" />
    <glyph glyph-name="uni1785" unicode="&#x1785;" horiz-adv-x="1750" 
d="M414 919c-79.333 55.333 -128.83 90.4971 -148.497 105.497s-35.834 36.5 -48.501 64.5c-12 28 -18 61.333 -18 100s9 75.667 27 111c18 36 45.333 70.333 82 103c36 32.667 79.333 57 130 73c51.333 16 106.333 24 165 24s114.667 -13 168 -39s107.666 -65 162.999 -117
c66 -62.667 107.667 -94 125 -94s62.333 25 135 75c36 25.333 73.667 44 113 56c39.333 12.667 80 19 122 19c42.667 0 84.667 -9.66699 126 -29c42 -20 83.333 -49.333 124 -88c60.667 -55.333 91 -111 91 -167c0 -53.333 -11 -82.666 -33 -87.999
c-22.667 -4.66699 -42.667 6.5 -60 33.5s-52.333 65.167 -105 114.5c-26 24.667 -51.333 43.334 -76 56.001c-25.333 12 -49.666 18 -72.999 18c-47.333 0 -89.333 -12.333 -126 -37c-54 -37.333 -101.333 -65.666 -142 -84.999c-40.667 -18.667 -74.667 -28 -102 -28
c-26.667 0 -57.667 10.667 -93 32c-36 20.667 -76 51.667 -120 93c-44.667 42 -86.334 73.333 -125.001 94s-74.667 31 -108 31c-84.667 0 -148.667 -18.667 -192 -56s-65 -70.333 -65 -99c0 -28 17.667 -54.333 53 -79l182 -115l-179 -851h759c44.667 0 81 12.667 109 38
c27.333 26 46.666 64.333 57.999 115l92 431c7.33301 38 5.66602 66.667 -5.00098 86c-10 18.667 -29 28 -57 28c-28.667 0 -53 -13.667 -73 -41s-35.667 -68.333 -47 -123c-12.667 -57.333 -6.33398 -86 18.999 -86c34.667 0.666992 52 -24 52 -74s-17 -75.333 -51 -76
c-74 0 -125 21.667 -153 65c-28 44 -33 109.667 -15 197c20.667 96 53.334 168 98.001 216s101.334 72 170.001 72c71.333 0 129.333 -25.333 174 -76c44.667 -50 57.334 -121.333 38.001 -214l-93 -428c-20 -93.333 -56.333 -163.333 -109 -210s-121.667 -70 -207 -70h-791
c-50.667 -0 -86.334 12.333 -107.001 37c-20 25.333 -24.667 63 -14 113l64 310z" />
    <glyph glyph-name="uni1786" unicode="&#x1786;" horiz-adv-x="1800" 
d="M562 919c-144.667 55.333 -226.832 90.4951 -246.499 105.495s-35.834 36.5 -48.501 64.5c-12 28 -18 61.333 -18 100s9 75.667 27 111c18 36 45.333 70.333 82 103c36 32.667 79.333 57 130 73c51.333 16 99.666 24 144.999 24c58.667 0 114.667 -13 168 -39
s107.666 -65 162.999 -117c66 -62.667 107.667 -94 125 -94s62.333 25 135 75c36 25.333 73.667 44 113 56c39.333 12.667 80 19 122 19c42.667 0 84.667 -9.66699 126 -29c42 -20 83.333 -49.333 124 -88c60.667 -55.333 91 -111 91 -167
c0 -53.333 -11 -82.666 -33 -87.999c-22.667 -4.66699 -42.667 6.5 -60 33.5s-52.333 65.167 -105 114.5c-26 24.667 -51.333 43.334 -76 56.001c-25.333 12 -49.666 18 -72.999 18c-47.333 0 -89.333 -12.333 -126 -37c-54 -37.333 -101.333 -65.666 -142 -84.999
c-40.667 -18.667 -74.667 -28 -102 -28c-26.667 0 -57.667 10.667 -93 32c-36 20.667 -76 51.667 -120 93c-44.667 42 -86.334 73.333 -125.001 94s-74.667 31 -108 31c-71.333 0 -128.666 -18.667 -171.999 -56s-65 -70.333 -65 -99c0 -28 21 -54.333 63 -79l270 -115
l-106 -501c90 0 178.333 -25.667 265 -77c86 -51.333 159.333 -109.666 220 -174.999s115 -98 163 -98c44.667 0 81 12.667 109 38c27.333 26 46.333 64.333 57 115l80 382c7.33301 38 5.66602 66.667 -5.00098 86c-10 18.667 -29 28 -57 28c-28.667 0 -53 -13.667 -73 -41
s-33.333 -51.666 -40 -72.999c-7.33301 -24 1.66699 -36 27 -36c34.667 0.666992 52 -24 52 -74s-17 -75.333 -51 -76c-74 0 -125 21.667 -153 65c-28 44 -34.667 93 -20 147c14 62.667 43.333 118 88 166s101.334 72 170.001 72c71.333 0 129.333 -25.333 174 -76
c44.667 -50 57.334 -121.333 38.001 -214l-82 -379c-20 -94 -55.667 -164 -107 -210c-52.667 -46.667 -121.667 -70 -207 -70c-93.333 0 -173.333 37 -240 111c-66 74 -133.667 132.333 -203 175c-68.667 42.667 -138.667 64 -210 64h-27l-23 -121
c-17.333 -76.667 -44.333 -134 -81 -172c-37.333 -38 -84.333 -57 -141 -57c-66.667 0 -116.667 20.667 -150 62c-33.333 42 -50 104.667 -50 188s21 146 63 188c41.333 41.333 104 62 188 62h72zM300.002 249.995c0 -66.667 16.667 -100 50 -100c32.667 0 56 33.333 70 100
l22 100h-41c-34 0 -59.333 -8.33301 -76 -25s-25 -41.667 -25 -75z" />
    <glyph glyph-name="uni1787" unicode="&#x1787;" horiz-adv-x="1600" 
d="M449 366c22.667 22.667 61.6748 33.998 117.008 33.998c68.667 0 175.667 -45.667 321 -137l185 -113c18 0 41 12.667 69 38c27.333 26 46.666 64.333 57.999 115l107 493c7.33301 36 19 61.667 35 77s36.333 20.333 61 15c25.333 -5.33301 42.333 -19 51 -41
c8 -21.333 8.33301 -51 1 -89l-106 -478c-20 -93.333 -56.333 -163.333 -109 -210s-110.334 -70 -173.001 -70c-22.667 0 -101.667 41.667 -237 125s-223.333 125 -264 125s-79.334 -33.333 -116.001 -100c-57.333 -100 -110.333 -150 -159 -150s-66.667 30.667 -54 92
l20 92l158 735c-79.333 55.333 -128.833 90.5 -148.5 105.5s-35.834 36.5 -48.501 64.5c-12 28 -18 61.333 -18 100s9 75.667 27 111c18 36 45.333 70.333 82 103c36 32.667 79.333 57 130 73c51.333 16 106.333 24 165 24s114.667 -13 168 -39s107.666 -65 162.999 -117
c33.333 -31.333 73.666 -54.666 120.999 -69.999c47.333 -16 102 -24 164 -24c61.333 0 110.333 15.333 147 46s60.334 66.334 71.001 107.001c7.33301 36.667 -4.33398 91 -35.001 163c-24 62.667 -80.333 105 -169 127c-64.667 20.667 -88.334 55 -71.001 103
c12.667 34 38 51 76 51c14.667 0 31 -2.33301 49 -7c128.667 -35.333 211.667 -102 249 -200c34.667 -83.333 52 -155.333 52 -216c0 -17.333 -1.33301 -33.666 -4 -48.999c-19.333 -83.333 -59.666 -150 -120.999 -200s-142.333 -75 -243 -75
c-82.667 0 -155.667 10.333 -219 31c-62.667 21.333 -116.334 52.666 -161.001 93.999c-44.667 42 -86.334 73.333 -125.001 94s-74.667 31 -108 31c-84.667 0 -148.667 -18.667 -192 -56s-65 -70.333 -65 -99c0 -28 17.667 -54.333 53 -79l182 -115z" />
    <glyph glyph-name="uni1788" unicode="&#x1788;" horiz-adv-x="3218" 
d="M416 445l-38.001 -179.999c-8 -38.667 -8.66699 -67.334 -2 -86.001c6 -19.333 19.667 -29 41 -29c23.333 0 54.333 20.667 93 62c38.667 42 62 82.333 70 121c4.66699 19.333 -0.666016 36.333 -15.999 51c-14.667 14.667 -38.667 27 -72 37zM2185 367.001
c21.333 -66.667 43.665 -118.002 66.999 -154.002c26.667 -42 55 -63 85 -63h354c44.667 0 81 12.667 109 38c27.333 26 46.666 64.333 58 115l108 496l-152 78c-129.333 63.333 -193 133.333 -191 210c2 76 32.333 147 91 213c58 66.667 115 100 171 100
c56.667 0 125.667 -24.333 207 -73l107 -63c39.333 -24 59 -50 59 -78c0 -12.667 -3.66699 -25.667 -11 -39c-24 -43.333 -61.333 -50 -112 -20l-107 64c-66.667 39.333 -110 59 -130 59s-45.333 -17.667 -76 -53s-46.667 -66.333 -48 -93s35 -57.334 109 -92.001l254 -131
l-130 -601c-20 -93.333 -56.333 -163.333 -109 -210s-121.667 -70 -207 -70h-353c-66.667 0 -124.334 30.667 -173 92c-20.667 26 -39.667 57.333 -57 94c-20.667 -29.333 -45 -56.666 -73 -81.999c-78 -69.333 -167 -104 -267 -104h-498c-50.667 0 -86 12.333 -106 37
c-20 25.333 -24.667 63 -14 113l165 779c12.667 60.667 14.334 110.334 5.00098 149.001c-9.33301 38 -39 77 -89 117s-102.667 71.333 -158 94s-111 39.667 -167 51c-56 10.667 -109.667 10.334 -161 -0.999023s-92 -36.666 -122 -75.999c-30 -40 -52 -93 -66 -159
l-109 -513l101 -29c73.333 -22 124.666 -54 153.999 -96c30 -42.667 38.333 -95.667 25 -159c-14 -68.667 -52.333 -137 -115 -205c-63.333 -68 -128.666 -102 -195.999 -102c-83.333 0 -140.333 25 -171 75c-18 29.333 -27 67.666 -27 114.999c0 32 4.33301 68.667 13 110
l176 825c19.333 95.333 52.666 174.333 99.999 237c48 62.667 111.333 103.334 190 122.001c44 10.667 87 16 129 16c32.667 0 64.667 -3.33301 96 -10c70.667 -14 140.334 -35 209.001 -63c68.667 -27.333 137.334 -69.333 206.001 -126
c69.333 -56 111.666 -116.333 126.999 -181c16 -64 15.333 -138 -2 -222l-159 -748h468c58 0 112.667 23 164 69c52 46 85.667 104 101 174l96 456l-152 78c-129.333 63.333 -193 133.333 -191 210c2 76 32.333 147 91 213c58 66.667 115 100 171 100
c56.667 0 125.667 -24.333 207 -73l137 -83c56.667 -34 72.667 -73 48 -117c-24 -43.333 -61.333 -50 -112 -20l-137 84c-66.667 39.333 -110 59 -130 59s-45.333 -17.667 -76 -53s-46.667 -66.333 -48 -93s35 -57.334 109 -92.001l254 -131z" />
    <glyph glyph-name="uni1789" unicode="&#x1789;" horiz-adv-x="2668" 
d="M2224 -175c60.667 -50 80.3301 -125.001 58.9971 -225.001s-74.333 -175 -159 -225c-84 -50 -199.667 -75 -347 -75c-127.333 0 -235.666 14.667 -324.999 44c-90 28.667 -161 72.334 -213 131.001c-52.667 58.667 -112.667 102.334 -180 131.001
c-68 29.333 -143.667 44 -227 44c-82.667 0 -161 -15.333 -235 -46c-73.333 -30.667 -141.666 -77 -204.999 -139c-31.333 -30.667 -59.333 -49.334 -84 -56.001c-24.667 -6 -45.667 0 -63 18s-23 39 -17 63c6 23.333 24 49.333 54 78c80 77.333 166 135.333 258 174
c92.667 38.667 191 58 295 58c104.667 0 199.334 -18.333 284.001 -55c85.333 -36.667 160.666 -91.334 225.999 -164.001c39.333 -43.333 95.333 -76 168 -98s162 -33 268 -33c105.333 0 187.333 12.333 246 37c58 25.333 92.333 63 103 113c10 50 -2.33301 87.667 -37 113
c-35.333 24.667 -93.666 37 -174.999 37c-33.333 0 -58.333 6.33301 -75 19c-16.667 12 -25 30.667 -25 56c0 24.667 8.33301 43.334 25 56.001s41.667 19 75 19c142.667 0 244.667 -25 306 -75zM415.996 444.999l-38.001 -179.999c-8 -38.667 -8.66699 -67.334 -2 -86.001
c6 -19.333 19.667 -29 41 -29c23.333 0 54.333 20.667 93 62c38.667 42 62 82.333 70 121c4.66699 19.333 -0.666016 36.333 -15.999 51c-14.667 14.667 -38.667 27 -72 37zM1668 980c-1.33301 -24.667 -5.99902 -56.332 -13.999 -94.999l-168 -792
c-6.66699 -31.333 -18 -54.666 -34 -69.999s-36.667 -23 -62 -23c-26 0 -43.333 10 -52 30s-8.66699 49.667 0 89l169 793c7.33301 35.333 11 61.5 11 78.5s-2.66699 42.5 -8 76.5c-5.33301 33.333 -20.333 70.666 -45 111.999c-24.667 42 -50.334 72.667 -77.001 92
c-26 19.333 -51.333 29 -76 29l-151 -182c-33.333 -37.333 -65.666 -56 -96.999 -56s-65.666 23.333 -102.999 70l-100 125c-54.667 62 -101.334 93 -140.001 93c-35.333 -18.667 -68 -47.667 -98 -87c-30 -40 -52 -93 -66 -159l-109 -513l101 -29
c73.333 -22 124.666 -54 153.999 -96c30 -42.667 38.333 -95.667 25 -159c-14 -68.667 -52.333 -137 -115 -205c-63.333 -68 -128.666 -102 -195.999 -102c-83.333 0 -140.333 25 -171 75c-18 29.333 -27 67.666 -27 114.999c0 32 4.33301 68.667 13 110l176 825
c19.333 95.333 52.666 174.333 99.999 237c48 62.667 109.667 109 185 139h27c85.333 0 167 -44.667 245 -134l100 -123l88 103c58.667 68.667 114 103 166 103c52.667 0 103 -18 151 -54c48 -35.333 89.333 -81.333 124 -138c23.333 -38.667 40.333 -75.334 51 -110.001
l217 158c85.333 62.667 162 94 230 94s164.333 -50 289 -150s187 -187.333 187 -262c0 -29.333 -6 -72.666 -18 -129.999l-163 -768c-6.66699 -30 -18 -52.667 -34 -68c-15.333 -14.667 -36 -22 -62 -22s-43.333 8.66699 -52 26c-9.33301 17.333 -10.333 43.333 -3 78
l164 769c11.333 56 17 96 17 120s-45.5 72.833 -136.5 146.5s-153.167 110.5 -186.5 110.5c-34 0 -83.333 -22.667 -148 -68z" />
    <glyph glyph-name="uni178A" unicode="&#x178a;" horiz-adv-x="1615" 
d="M446 366c22.667 22.667 61.6699 34.001 117.003 34.001c68.667 0 175.667 -45.667 321 -137l185 -113c18 0 41 12.667 69 38c27.333 26 46.666 64.333 57.999 115l107 493c7.33301 36 19 61.667 35 77s36.333 20.333 61 15c25.333 -5.33301 42.333 -19 51 -41
c8 -21.333 8.33301 -51 1 -89l-106 -478c-20 -93.333 -56.333 -163.333 -109 -210s-110.334 -70 -173.001 -70c-22.667 0 -101.667 41.667 -237 125s-223.333 125 -264 125s-79.334 -33.333 -116.001 -100c-57.333 -100 -110.333 -150 -159 -150
c-38.667 0 -58 19.333 -58 58c0 10 1.33301 21.333 4 34l20 92l158 735c6 26.667 16.667 47 32 61c16 13.333 36.667 20 62 20c26 0 43.667 -8.33301 53 -25s10.333 -41.334 3 -74.001zM752.003 1650c60.667 0 88.333 -24.999 83 -74.999s-33 -75 -83 -75
c-42.667 0 -70.667 -29 -84 -87c-12 -66 10.667 -118 68 -156s158.333 -57 303 -57c134.667 0 231.334 20.667 290.001 62c58 41.333 96 97.333 114 168c8.66699 56 -2.66602 108.333 -33.999 157c-32 48.667 -92.333 84 -181 106c-64.667 20.667 -88.334 55 -71.001 103
c12.667 34 38 51 76 51c14.667 0 31 -2.33301 49 -7c128.667 -35.333 215.667 -95 261 -179c34.667 -64 52 -129.667 52 -197c0 -20.667 -1.66699 -41.334 -5 -62.001c-26.667 -101.333 -86.334 -185.333 -179.001 -252c-93.333 -66.667 -227 -100 -401 -100
c-196.667 0 -333.667 33.667 -411 101c-77.333 68 -103.333 164.667 -78 290c30 139.333 107 209 231 209z" />
    <glyph glyph-name="uni178B" unicode="&#x178b;" horiz-adv-x="1716" 
d="M496 1350c-28.667 0 -52.9961 -13.665 -72.9961 -40.998s-35.667 -68.333 -47 -123c-12.667 -57.333 -6.33398 -86 18.999 -86c34.667 0.666992 52 -24 52 -74s-17 -75.333 -51 -76c-74 0 -125 21.667 -153 65c-17.333 26.667 -26 61.334 -26 104.001
c0 28 3.66699 59 11 93c20.667 96 53.334 168 98.001 216s101.334 72 170.001 72c71.333 0 129.333 -25.333 174 -76c44.667 -50 57.334 -121.333 38.001 -214l-224 -1060h629c44.667 0 81 12.667 109 38c27.333 26 46.666 64.333 57.999 115l108 496l-152 78
c-129.333 63.333 -193 133.333 -191 210c2 76 32.333 147 91 213c58 66.667 115 100 171 100c56.667 0 110.667 -15.667 162 -47c50 -30 90.333 -38.667 121 -26c30.667 13.333 51.667 47.666 63 102.999c9.33301 56 -1.83398 108.333 -33.501 157s-91.834 84 -180.501 106
c-64.667 20.667 -88.334 55 -71.001 103c12.667 34 38 51 76 51c14.667 0 31 -2.33301 49 -7c128.667 -35.333 215.667 -95 261 -179c34.667 -64 52 -129.667 52 -197c0 -20.667 -1.66699 -41.334 -5 -62.001c-26.667 -122.667 -73 -199 -139 -229
c-66.667 -30.667 -152.667 -15.667 -258 45c-36 21.333 -64 32 -84 32s-45.333 -17.667 -76 -53s-46.667 -66.333 -48 -93s35 -57.334 109 -92.001l254 -131l-130 -601c-20 -93.333 -56.333 -163.333 -109 -210s-121.667 -70 -207 -70h-662
c-50.667 -0 -86.334 12.333 -107.001 37c-20 25.333 -25 63.333 -15 114l229 1085c7.33301 38 5.66602 66.667 -5.00098 86c-10 18.667 -29 28 -57 28z" />
    <glyph glyph-name="uni178C" unicode="&#x178c;" horiz-adv-x="1610" 
d="M1357 1008c5.33301 27.333 6.00098 52.6689 2.00098 76.002c-3.33301 22 -17.333 53.667 -42 95c-24.667 42 -50.334 72.667 -77.001 92c-26 19.333 -51.333 29 -76 29l-151 -182c-33.333 -37.333 -65.666 -56 -96.999 -56s-65.666 23.333 -102.999 70l-100 125
c-54.667 62 -101.334 93 -140.001 93c-35.333 -18.667 -68 -47.667 -98 -87c-30 -40 -50.333 -85 -61 -135c-11.333 -50.667 -11.666 -98 -0.999023 -142c10 -44 23.333 -70 40 -78c17.333 -8.66699 44.666 -2 81.999 20c55.333 34.667 95.666 30.667 120.999 -12
c25.333 -43.333 14.333 -80.333 -33 -111c-88 -53.333 -165 -65.333 -231 -36c-66 30 -106.667 86 -122 168c-8.66699 43.333 -13 84.666 -13 123.999c0 36 3.66699 70.667 11 104c14 68.667 44.667 134.334 92 197.001c48 62.667 109.667 109 185 139h27
c85.333 0 167 -44.667 245 -134l100 -123l88 103c58.667 68.667 114 103 166 103c52.667 0 103 -18 151 -54c48 -35.333 89.333 -81.333 124 -138c34 -56.667 55 -109 63 -157c3.33301 -16.667 5 -33 5 -49c0 -18 -2 -35.667 -6 -53c-20 -88 -59.333 -145.333 -118 -172
l-418 -192c-278.667 -128 -441.667 -218.667 -489 -272c-48 -54 -73.333 -95.667 -76 -125c-2.66699 -30 11.666 -52.333 42.999 -67c30.667 -14 74.334 -21 131.001 -21c70 0 126 15.333 168 46l461 356c38.667 32 82 39 130 21s60.667 -79.667 38 -185l-51 -236
c-34 -156.667 -82.667 -265 -146 -325c-39.333 -36.667 -73.333 -55 -102 -55c-18 0 -34 7 -48 21c-37.333 37.333 -28 81.666 28 132.999c56.667 51.333 97.667 138.666 123 261.999l39 185l-363 -280c-80.667 -62 -174.667 -93 -282 -93c-82.667 0 -159 17.667 -229 53
c-62 32.667 -93 84.667 -93 156c0 8 0.333008 16.333 1 25c8 84 42.667 159.333 104 226s226.333 162 495 286l403 186c60.667 24 94 49.333 100 76z" />
    <glyph glyph-name="uni178D" unicode="&#x178d;" horiz-adv-x="2618" 
d="M416 445l-38.001 -179.999c-8 -38.667 -8.66699 -67.334 -2 -86.001c6 -19.333 19.667 -29 41 -29c23.333 0 54.333 20.667 93 62c38.667 42 62 82.333 70 121c4.66699 19.333 -0.666016 36.333 -15.999 51c-14.667 14.667 -38.667 27 -72 37zM1246 250.001
c0 -66.667 16.667 -100 50 -100c32.667 0 56 33.333 70 100l22 100h-41c-34 0 -59.333 -8.33301 -76 -25s-25 -41.667 -25 -75zM416.999 0.000976562c-83.333 0 -140.332 25.002 -170.999 75.002c-18 29.333 -27 67.666 -27 114.999c0 32 4.33301 68.667 13 110l176 825
c19.333 95.333 52.666 174.333 99.999 237c48 62.667 109.667 109 185 139h27c85.333 0 167 -44.667 245 -134l100 -123l88 103c58.667 68.667 114 103 166 103c52.667 0 103 -18 151 -54c48 -35.333 89.333 -81.333 124 -138c34 -56.667 55 -109 63 -157
c7.33301 -48 11 -84.667 11 -110c0 -26 -4.66699 -61.333 -14 -106l-81 -385c31.333 0 90.333 -25.667 177 -77c86 -51.333 159.333 -109.666 220 -174.999s98.334 -98 113.001 -98c24.667 0 51 12.667 79 38c27.333 26 46 65 56 117l105 494l-152 78
c-129.333 63.333 -193 133.333 -191 210c2 76 32.333 147 91 213c58 66.667 115 100 171 100c56.667 0 125.667 -24.333 207 -73l137 -83c39.333 -24 59 -50 59 -78c0 -12.667 -3.66699 -25.667 -11 -39c-24 -43.333 -61.333 -50 -112 -20l-137 84
c-66.667 39.333 -110 59 -130 59s-45.333 -17.667 -76 -53s-46.667 -66.333 -48 -93s35 -57.334 109 -92.001l254 -131l-127 -598c-20 -96 -55.667 -167 -107 -213c-52.667 -46.667 -111.667 -70 -177 -70c-60 0 -123.333 37 -190 111c-66 74 -133.667 132.333 -203 175
c-68.667 42.667 -109.334 64 -122.001 64h-27l-23 -121c-17.333 -76.667 -44.333 -134 -81 -172c-37.333 -38 -84.333 -57 -141 -57c-66.667 0 -116.667 20.667 -150 62c-33.333 42 -50 104.667 -50 188s21 146 63 188c41.333 41.333 104 62 188 62h72l88 412
c7.33301 35.333 11 61.5 11 78.5s-2.66699 42.5 -8 76.5c-5.33301 33.333 -20.333 70.666 -45 111.999c-24.667 42 -50.334 72.667 -77.001 92c-26 19.333 -51.333 29 -76 29l-151 -182c-33.333 -37.333 -65.666 -56 -96.999 -56s-65.666 23.333 -102.999 70l-100 125
c-54.667 62 -101.334 93 -140.001 93c-35.333 -18.667 -68 -47.667 -98 -87c-30 -40 -52 -93 -66 -159l-109 -513l101 -29c73.333 -22 124.666 -54 153.999 -96c30 -42.667 38.333 -95.667 25 -159c-14 -68.667 -52.333 -137 -115 -205
c-63.333 -68 -128.666 -102 -195.999 -102z" />
    <glyph glyph-name="uni178E" unicode="&#x178e;" horiz-adv-x="3418" 
d="M416 445l-38.001 -179.999c-8 -38.667 -8.66699 -67.334 -2 -86.001c6 -19.333 19.667 -29 41 -29c23.333 0 54.333 20.667 93 62c38.667 42 62 82.333 70 121c4.66699 19.333 -0.666016 36.333 -15.999 51c-14.667 14.667 -38.667 27 -72 37zM416.999 0.000976562
c-83.333 0 -140.332 24.9932 -170.999 74.9932c-18 29.333 -27 67.666 -27 114.999c0 32 4.33301 68.667 13 110l176 825c19.333 95.333 52.666 174.333 99.999 237c48 62.667 111.333 103.334 190 122.001c44 10.667 87 16 129 16c32.667 0 64.667 -3.33301 96 -10
c70.667 -14 140.334 -35 209.001 -63c68.667 -27.333 137.334 -69.333 206.001 -126c69.333 -56 111.666 -116.333 126.999 -181c16 -64 15.333 -138 -2 -222l-114 -532c22.667 22.667 61.667 34 117 34c68.667 0 175.667 -45.667 321 -137l185 -113c18 0 41 12.667 69 38
c27.333 26 46.666 64.333 58 115l157 722c19.333 95.333 52.666 174.333 100 237c48 62.667 111.333 103.334 190 122.001s153.667 20.667 225 6c70.667 -14 140.334 -35 209 -63c68.667 -27.333 137.334 -69.333 206 -126c69.333 -56 111.666 -116.333 127 -181
c8 -30.667 12 -63.667 12 -99c0 -38 -4.66699 -79 -14 -123l-157 -706c-14.667 -61.333 -46.334 -92 -95 -92c-48.667 0 -66.667 30.667 -54 92l158 737c12.667 60.667 14.334 110.334 5 149.001c-9.33301 38 -39 77 -89 117s-102.667 71.333 -158 94s-111 39.667 -167 51
c-56 10.667 -109.667 10.334 -161 -0.999023s-92 -36.666 -122 -75.999c-30 -40 -52 -93 -66 -159l-157 -724c-20 -93.333 -56.333 -163.333 -109 -210s-110.334 -70 -173.001 -70c-22.667 0 -101.667 41.667 -237 125s-223.333 125 -264 125s-79.334 -33.333 -116.001 -100
c-57.333 -100 -110.333 -150 -159 -150s-66.667 30.667 -54 92l20 92l159 745c12.667 60.667 14.334 110.334 5.00098 149.001c-9.33301 38 -39 77 -89 117s-102.667 71.333 -158 94s-111 39.667 -167 51c-56 10.667 -109.667 10.334 -161 -0.999023
s-92 -36.666 -122 -75.999c-30 -40 -52 -93 -66 -159l-109 -513l101 -29c73.333 -22 124.666 -54 153.999 -96c30 -42.667 38.333 -95.667 25 -159c-14 -68.667 -52.333 -137 -115 -205c-63.333 -68 -128.666 -102 -195.999 -102z" />
    <glyph glyph-name="uni178F" unicode="&#x178f;" horiz-adv-x="1748" 
d="M386 978c-24.667 -6 -61.999 8.33008 -111.999 42.9971c-25.333 17.333 -44.333 40 -57 68c-12 28 -18 61.333 -18 100s9 75.667 27 111c18 36 45.333 70.333 82 103c36 32.667 79.333 57 130 73c51.333 16 106.333 24 165 24s114.667 -13 168 -39
s107.666 -65 162.999 -117c66 -62.667 107.667 -94 125 -94s62.333 25 135 75c36 25.333 73.667 44 113 56c39.333 12.667 80 19 122 19c42.667 0 84.667 -9.66699 126 -29c42 -20 83.333 -49.333 124 -88c60.667 -55.333 91 -111 91 -167
c0 -53.333 -11 -82.666 -33 -87.999c-22.667 -4.66699 -42.667 6.5 -60 33.5s-52.333 65.167 -105 114.5c-26 24.667 -51.333 43.334 -76 56.001c-25.333 12 -49.666 18 -72.999 18c-47.333 0 -89.333 -12.333 -126 -37c-54 -37.333 -101.333 -65.666 -142 -84.999
c-40.667 -18.667 -74.667 -28 -102 -28c-26.667 0 -57.667 10.667 -93 32c-36 20.667 -76 51.667 -120 93c-44.667 42 -86.334 73.333 -125.001 94s-74.667 31 -108 31c-84.667 0 -148.667 -18.667 -192 -56s-65 -70.333 -65 -99c0 -28 17.667 -54.333 53 -79
c36 -25.333 48.333 -53 37 -83c-10.667 -30.667 -28.667 -49 -54 -55zM417.001 444.997l-38.001 -179.999c-8 -38.667 -8.66699 -67.334 -2 -86.001c6 -19.333 19.667 -29 41 -29c23.333 0 54.333 20.667 93 62c38.667 42 62 82.333 70 121
c4.66699 19.333 -0.666016 36.333 -15.999 51c-14.667 14.667 -38.667 27 -72 37zM326 731.998c31.333 136.667 95.6699 232 193.003 286c97.333 54.667 193.666 82 288.999 82c74.667 0 152.667 -17.667 234 -53c80.667 -34.667 171.334 -87 272.001 -157
c100 -70 171 -142.333 213 -217c41.333 -74.667 53.666 -151.667 36.999 -231l-73 -342c-6.66699 -33.333 -18.334 -58.333 -35.001 -75c-16 -16.667 -37 -25 -63 -25s-43.333 8 -52 24c-9.33301 16.667 -10.333 42 -3 76l73 351c12 54 1 108.667 -33 164
c-34 54.667 -91 110 -171 166s-151.667 98 -215 126s-125 42 -185 42c-73.333 0 -142.333 -18.667 -207 -56s-106.667 -100.333 -126 -189l-25 -113l101 -29c73.333 -22 124.666 -54 153.999 -96c30 -42.667 38.333 -95.667 25 -159c-14 -68.667 -52.333 -137 -115 -205
c-63.333 -68 -128.666 -102 -195.999 -102c-83.333 0 -140.333 25 -171 75s-35.334 125 -14.001 225z" />
    <glyph glyph-name="uni1790" unicode="&#x1790;" horiz-adv-x="1749" 
d="M414 919c-79.333 55.333 -128.83 90.4971 -148.497 105.497s-35.834 36.5 -48.501 64.5c-12 28 -18 61.333 -18 100s9 75.667 27 111c18 36 45.333 70.333 82 103c36 32.667 79.333 57 130 73c51.333 16 106.333 24 165 24s114.667 -13 168 -39s126 -67.667 218 -125
c91.333 -57.333 184.666 -86 279.999 -86c88 0 158.667 22 212 66s82 86.333 86 127c14 56.667 4 107 -30 151s-95.333 77 -184 99c-64.667 20.667 -88.334 55 -71.001 103c12.667 34 38 51 76 51c14.667 0 31 -2.33301 49 -7c128.667 -35.333 217 -92.666 265 -171.999
c33.333 -56 50 -115 50 -177c0 -24.667 -2.66699 -50 -8 -76c-6 -83.333 -49.667 -156.666 -131 -219.999s-185.666 -95 -312.999 -95c-116 0 -227.667 31.333 -335 94c-108 62.667 -181.333 104.334 -220 125.001s-74.667 31 -108 31c-84.667 0 -148.667 -18.667 -192 -56
s-65 -70.333 -65 -99c0 -28 17.667 -54.333 53 -79l182 -115l-179 -851h749c44.667 0 81 12.667 109 38c27.333 26 46.666 64.333 57.999 115l92 421c7.33301 38 5.66602 66.667 -5.00098 86c-10 18.667 -29 28 -57 28c-28.667 0 -53 -13.667 -73 -41
s-35.667 -68.333 -47 -123c-12.667 -57.333 -6.33398 -86 18.999 -86c34.667 0.666992 52 -24 52 -74s-17 -75.333 -51 -76c-74 0 -125 21.667 -153 65c-28 44 -33 109.667 -15 197c20.667 96 53.334 168 98.001 216s101.334 72 170.001 72
c71.333 0 129.333 -25.333 174 -76c44.667 -50 57.334 -121.333 38.001 -214l-93 -418c-20 -93.333 -56.333 -163.333 -109 -210s-121.667 -70 -207 -70h-781c-50.667 -0 -86.334 12.333 -107.001 37c-20 25.333 -24.667 63 -14 113z" />
    <glyph glyph-name="uni1791" unicode="&#x1791;" horiz-adv-x="1516" 
d="M1100 650c48 0 75.333 16.667 82 50c7.33301 33.333 -5 50 -37 50s-54.667 -31 -68 -93l-1 -7h24zM1044 501l-39.999 -190.998c-22 -103.333 -61.333 -180.666 -118 -231.999c-56 -52 -129.667 -78 -221 -78c-110.667 0 -187 30.667 -229 92
c-42.667 61.333 -51 153.666 -25 276.999c17.333 82 51 118.667 101 110c49.333 -8.66699 65.666 -52.667 48.999 -132c-14 -66 -12.333 -115.333 5 -148c18 -32.667 51.667 -49 101 -49c50 0 90.667 15.333 122 46c31.333 31.333 53.666 78.333 66.999 141l37 173
c-46 5.33301 -89.333 12.666 -130 21.999c-95.333 21.333 -195.333 73.333 -300 156c-104.667 83.333 -170 167.666 -196 252.999c-9.33301 30.667 -14 65.667 -14 105c0 45.333 6.33301 96.333 19 153c19.333 91.333 77.333 164.333 174 219
c97.333 54.667 224.666 82 381.999 82c64 0 144 -9.33301 240 -28c139.333 -32 236.333 -88.667 291 -170c40 -60.667 60 -122 60 -184c0 -20 -2 -40.333 -6 -61c-10.667 -47.333 -41 -71.333 -91 -72c-50.667 0 -71 27 -61 81c10.667 49.333 -1.66602 99.333 -36.999 150
c-36.667 52.667 -100 90.334 -190 113.001c-87.333 14 -154 21 -200 21c-139.333 0 -241 -18.667 -305 -56c-63.333 -37.333 -101.666 -87 -114.999 -149c-14.667 -66 -16.334 -119 -5.00098 -159c16 -53.333 65.667 -113.666 149 -180.999
c83.333 -66.667 166 -109.334 248 -128.001c36.667 -8 76 -14.333 118 -19l7 31c14.667 70 40 122.667 76 158s82.667 53 140 53c77.333 0 131.333 -18.667 162 -56c30.667 -38 38 -94.333 22 -169c-12 -58.667 -38 -102.334 -78 -131.001c-40.667 -29.333 -95 -44 -163 -44
c-15.333 0 -30.666 0.333008 -45.999 1z" />
    <glyph glyph-name="uni1792" unicode="&#x1792;" horiz-adv-x="1750" 
d="M449 366c22.667 22.667 61.6689 33.9971 117.002 33.9971c142 0 285.667 -45.667 431 -137l185 -113c44.667 0 80.334 12 107.001 36s44.667 59.667 54 107l91 431c7.33301 38 5.66602 66.667 -5.00098 86c-10 18.667 -29 28 -57 28c-28.667 0 -53 -13.667 -73 -41
s-35.667 -68.333 -47 -123c-12.667 -57.333 -6.33398 -86 18.999 -86c34.667 0.666992 52 -24 52 -74s-17 -75.333 -51 -76c-74 0 -125 21.667 -153 65c-28 44 -33 109.667 -15 197c20.667 96 53.334 168 98.001 216s101.334 72 170.001 72
c71.333 0 129.333 -25.333 174 -76c44.667 -50 57.334 -121.333 38.001 -214l-93 -428c-18 -90 -53.333 -157.333 -106 -202c-52.667 -45.333 -122.334 -68 -209.001 -68c-22.667 0 -101.667 41.667 -237 125s-260 125 -374 125c-40.667 0 -79.334 -33.333 -116.001 -100
c-57.333 -100 -110.333 -150 -159 -150s-66.667 30.667 -54 92l20 92l158 735l-59 42c-40 27.333 -69.833 48.5 -89.5 63.5s-35.834 36.5 -48.501 64.5c-12 28 -18 61.333 -18 100s9 75.667 27 111c18 36 45.333 70.333 82 103c36 32.667 79.333 57 130 73
c51.333 16 106.333 24 165 24s114.667 -13 168 -39s107.666 -65 162.999 -117c66 -62.667 107.667 -94 125 -94s62.333 25 135 75c36 25.333 73.667 44 113 56c39.333 12.667 80 19 122 19c42.667 0 84.667 -9.66699 126 -29c42 -20 83.333 -49.333 124 -88
c60.667 -55.333 91 -111 91 -167c0 -53.333 -11 -82.666 -33 -87.999c-22.667 -4.66699 -42.667 6.5 -60 33.5s-52.333 65.167 -105 114.5c-26 24.667 -51.333 43.334 -76 56.001c-25.333 12 -49.666 18 -72.999 18c-47.333 0 -89.333 -12.333 -126 -37
c-54 -37.333 -101.333 -65.666 -142 -84.999c-40.667 -18.667 -74.667 -28 -102 -28c-26.667 0 -57.667 10.667 -93 32c-36 20.667 -76 51.667 -120 93c-44.667 42 -86.334 73.333 -125.001 94s-74.667 31 -108 31c-84.667 0 -148.667 -18.667 -192 -56s-65 -70.333 -65 -99
c0 -28 17.667 -54.333 53 -79l182 -115z" />
    <glyph glyph-name="uni1793" unicode="&#x1793;" horiz-adv-x="1750" 
d="M300 250c0 -66.667 16.667 -100 50 -100c32.667 0 56 33.333 70 100l22 100h-41c-34 0 -59.333 -8.33301 -76 -25s-25 -41.667 -25 -75zM519 726c15.333 52 46.9971 73.333 94.9971 64c48 -10 65.333 -43 52 -99l-39 -191c50 0 118.333 -25.667 205 -77
c86 -51.333 159.333 -109.666 220 -174.999s105 -98 133 -98c31.333 0 61 12.667 89 38c27.333 26 46.333 64.333 57 115l32 144c9.33301 50 -21.334 98.667 -92.001 146s-181.667 93.333 -333 138c-125.333 38.667 -225 79 -299 121
c-73.333 42 -120.666 85.667 -141.999 131c-40 88.667 -53.667 160.667 -41 216c19.333 91.333 77.333 164.333 174 219c97.333 54.667 224.666 82 381.999 82c97.333 0 194 -9.33301 290 -28c139.333 -32 236.333 -88.667 291 -170c40 -60.667 60 -122 60 -184
c0 -20 -2 -40.333 -6 -61c-10.667 -47.333 -41 -71.333 -91 -72c-50.667 0 -71 27 -61 81c10.667 49.333 -1.66602 99.333 -36.999 150c-36.667 52.667 -100 90.334 -190 113.001c-87.333 14 -170.666 21 -249.999 21c-139.333 0 -241 -18.667 -305 -56
c-63.333 -37.333 -99.666 -76.333 -108.999 -117c-5.33301 -32 5.33398 -76.667 32.001 -134c11.333 -24.667 46.333 -51 105 -79s140.667 -57.667 246 -89c194.667 -58.667 335.334 -126.334 422.001 -203.001c87.333 -76.667 120.666 -162.334 99.999 -257.001l-30 -135
c-20 -94 -55.667 -164 -107 -210c-52.667 -46.667 -115 -70 -187 -70c-73.333 0 -143.333 37 -210 111c-66 74 -133.667 132.333 -203 175c-68.667 42.667 -118.667 64 -150 64h-27l-23 -121c-17.333 -76.667 -44.333 -134 -81 -172c-37.333 -38 -84.333 -57 -141 -57
c-66.667 0 -116.667 20.667 -150 62c-33.333 42 -50 104.667 -50 188s21 146 63 188c41.333 41.333 104 62 188 62h72z" />
    <glyph glyph-name="uni1794" unicode="&#x1794;" horiz-adv-x="1802" 
d="M498 919l-101.998 57.999c-127.333 62.667 -191 131.334 -191 206.001v4c2 76 32.333 147 91 213c58 66.667 115 100 171 100c56.667 0 119 -17.667 187 -53c79.333 -37.333 151.666 -68.333 216.999 -93c43.333 -20.667 59.333 -53 48 -97
c-24 -43.333 -61.333 -56.666 -112 -39.999c-65.333 24.667 -121 49.334 -167 74.001c-86.667 39.333 -140 59 -160 59s-45.333 -17.667 -76 -53s-46.667 -66.333 -48 -93s35 -57.334 109 -92.001l204 -111l-179 -851h759c44.667 0 81 12.667 109 38
c27.333 26 46.666 64.333 57.999 115l108 496l-152 78c-129.333 63.333 -193 133.333 -191 210c2 76 32.333 147 91 213c58 66.667 115 100 171 100c56.667 0 125.667 -24.333 207 -73l137 -83c39.333 -24 59 -50 59 -78c0 -12.667 -3.66699 -25.667 -11 -39
c-24 -43.333 -61.333 -50 -112 -20l-137 84c-66.667 39.333 -110 59 -130 59s-45.333 -17.667 -76 -53s-46.667 -66.333 -48 -93s35 -57.334 109 -92.001l254 -131l-130 -601c-20 -93.333 -56.333 -163.333 -109 -210s-121.667 -70 -207 -70h-791
c-51.333 -0 -87.333 12.333 -108 37c-20 25.333 -24.667 63 -14 113z" />
    <glyph glyph-name="uni1795" unicode="&#x1795;" horiz-adv-x="1749" 
d="M449 366c22.667 22.667 61.6689 33.9971 117.002 33.9971c128.667 0 265.667 -45.667 411 -137l185 -113c44.667 0 80.334 12 107.001 36s44.667 59.667 54 107l91 431c7.33301 38 5.66602 66.667 -5.00098 86c-10 18.667 -29 28 -57 28c-28.667 0 -53 -13.667 -73 -41
s-35.667 -68.333 -47 -123c-12.667 -57.333 -6.33398 -86 18.999 -86c34.667 0.666992 52 -24 52 -74s-17 -75.333 -51 -76c-74 0 -125 21.667 -153 65c-28 44 -33 109.667 -15 197c20.667 96 53.334 168 98.001 216s101.334 72 170.001 72
c71.333 0 129.333 -25.333 174 -76c44.667 -50 57.334 -121.333 38.001 -214l-93 -428c-18 -90 -53.333 -157.333 -106 -202c-52.667 -45.333 -122.334 -68 -209.001 -68c-22.667 0 -101.667 41.667 -237 125s-253.333 125 -354 125
c-40.667 0 -79.334 -33.333 -116.001 -100c-57.333 -100 -110.333 -150 -159 -150s-66.667 30.667 -54 92l20 92l158 735c-79.333 55.333 -128.833 90.5 -148.5 105.5s-35.834 36.5 -48.501 64.5c-12 28 -18 61.333 -18 100s9 75.667 27 111c18 36 45.333 70.333 82 103
c36 32.667 79.333 57 130 73c51.333 16 106.333 24 165 24s114.667 -13 168 -39s126 -67.667 218 -125c91.333 -57.333 184.666 -86 279.999 -86c88 0 158.667 22 212 66s82 86.333 86 127c14 56.667 4 107 -30 151s-95.333 77 -184 99
c-64.667 20.667 -88.334 55 -71.001 103c12.667 34 38 51 76 51c14.667 0 31 -2.33301 49 -7c128.667 -35.333 217 -92.666 265 -171.999c33.333 -56 50 -115 50 -177c0 -24.667 -2.66699 -50 -8 -76c-6 -83.333 -49.667 -156.666 -131 -219.999s-185.666 -95 -312.999 -95
c-116 0 -227.667 31.333 -335 94c-108 62.667 -181.333 104.334 -220 125.001s-74.667 31 -108 31c-84.667 0 -148.667 -18.667 -192 -56s-65 -70.333 -65 -99c0 -28 17.667 -54.333 53 -79l182 -115z" />
    <glyph glyph-name="uni1796" unicode="&#x1796;" horiz-adv-x="1768" 
d="M416 445l-38.001 -179.999c-8 -38.667 -8.66699 -67.334 -2 -86.001c6 -19.333 19.667 -29 41 -29c23.333 0 54.333 20.667 93 62c38.667 42 62 82.333 70 121c4.66699 19.333 -0.666016 36.333 -15.999 51c-14.667 14.667 -38.667 27 -72 37zM416.999 0.000976562
c-83.333 0 -140.332 25.001 -170.999 75.001c-18 29.333 -27 67.666 -27 114.999c0 32 4.33301 68.667 13 110l176 825c19.333 95.333 52.666 174.333 99.999 237c48 62.667 109.667 109 185 139h27c85.333 0 167 -44.667 245 -134l100 -123l88 103
c58.667 68.667 114 103 166 103c52.667 0 103 -18 151 -54c48 -35.333 89.333 -81.333 124 -138c34 -56.667 55 -109 63 -157c7.33301 -48 11 -84.667 11 -110c0 -26 -4.66699 -61.333 -14 -106l-168 -792c-6.66699 -31.333 -18 -54.666 -34 -69.999s-36.667 -23 -62 -23
c-26 0 -43.333 10 -52 30s-8.66699 49.667 0 89l169 793c7.33301 35.333 11 61.5 11 78.5s-2.66699 42.5 -8 76.5c-5.33301 33.333 -20.333 70.666 -45 111.999c-24.667 42 -50.334 72.667 -77.001 92c-26 19.333 -51.333 29 -76 29l-151 -182
c-33.333 -37.333 -65.666 -56 -96.999 -56s-65.666 23.333 -102.999 70l-100 125c-54.667 62 -101.334 93 -140.001 93c-35.333 -18.667 -68 -47.667 -98 -87c-30 -40 -52 -93 -66 -159l-109 -513l101 -29c73.333 -22 124.666 -54 153.999 -96
c30 -42.667 38.333 -95.667 25 -159c-14 -68.667 -52.333 -137 -115 -205c-63.333 -68 -128.666 -102 -195.999 -102z" />
    <glyph glyph-name="uni1797" unicode="&#x1797;" horiz-adv-x="1750" 
d="M406 978c-24.667 -6 -61.999 8.33008 -111.999 42.9971c-25.333 17.333 -44.333 40 -57 68c-12 28 -18 61.333 -18 100s9 75.667 27 111c18 36 45.333 70.333 82 103c36 32.667 79.333 57 130 73c51.333 16 106.333 24 165 24s114.667 -13 168 -39
s107.666 -65 162.999 -117c66 -62.667 107.667 -94 125 -94s62.333 25 135 75c36 25.333 73.667 44 113 56c39.333 12.667 80 19 122 19c42.667 0 84.667 -9.66699 126 -29c42 -20 83.333 -49.333 124 -88c60.667 -55.333 91 -111 91 -167
c0 -53.333 -11 -82.666 -33 -87.999c-22.667 -4.66699 -42.667 6.5 -60 33.5s-52.333 65.167 -105 114.5c-26 24.667 -51.333 43.334 -76 56.001c-25.333 12 -49.666 18 -72.999 18c-47.333 0 -89.333 -12.333 -126 -37c-54 -37.333 -101.333 -65.666 -142 -84.999
c-40.667 -18.667 -74.667 -28 -102 -28c-26.667 0 -57.667 10.667 -93 32c-36 20.667 -76 51.667 -120 93c-44.667 42 -86.334 73.333 -125.001 94s-74.667 31 -108 31c-84.667 0 -148.667 -18.667 -192 -56s-65 -70.333 -65 -99c0 -28 17.667 -54.333 53 -79
c36 -25.333 48.333 -53 37 -83c-10.667 -30.667 -28.667 -49 -54 -55zM689.001 748.997l-112.002 -525.001c-16 -74.667 -42.667 -130.667 -80 -168c-38 -37.333 -86.667 -56 -146 -56c-66.667 0 -125 17.333 -175 52c-50.667 34.667 -76 100.334 -76 197.001
c0 117.333 18 205 54 263c36.667 58.667 91 88 163 88c55.333 0 83 -25 83 -75s-27 -75 -81 -75c-22.667 0 -40 -16.667 -52 -50c-11.333 -32.667 -17 -82.334 -17 -149.001c0 -46.667 10.667 -75 32 -85c20.667 -10.667 43.667 -16 69 -16c38 0 64 33.333 78 100l98 471
c47.333 219.333 171 329 371 329c148.667 0 307.334 -53.333 476.001 -160c100 -70 167.333 -136.667 202 -200c28.667 -62 31.334 -144.667 8.00098 -248l-73 -342c-6.66699 -33.333 -18.334 -58.333 -35.001 -75c-16 -16.667 -37 -25 -63 -25s-43.333 8 -52 24
c-9.33301 16.667 -10.333 42 -3 76l73 351c18.667 76.667 21 131.334 7 164.001c-34 54.667 -91 110 -171 166c-133.333 78.667 -256.666 118 -369.999 118c-116.667 0 -186 -50 -208 -150z" />
    <glyph glyph-name="uni1798" unicode="&#x1798;" horiz-adv-x="1802" 
d="M1460 503l-633.999 71.998c-33.333 3.33301 -57.666 12.333 -72.999 27c-14.667 14 -20.667 33.333 -18 58c2.66699 25.333 13 43 31 53c18 10.667 43.333 14.334 76 11.001l650 -73l32 148l-152 78c-129.333 63.333 -193 133.333 -191 210c2 76 32.333 147 91 213
c58 66.667 115 100 171 100c56.667 0 125.667 -24.333 207 -73l137 -83c39.333 -24 59 -50 59 -78c0 -12.667 -3.66699 -25.667 -11 -39c-24 -43.333 -61.333 -50 -112 -20l-137 84c-66.667 39.333 -110 59 -130 59s-45.333 -17.667 -76 -53s-46.667 -66.333 -48 -93
s35 -57.334 109 -92.001l254 -131l-130 -601c-20 -93.333 -56.333 -163.333 -109 -210s-121.667 -70 -207 -70h-791c-51.333 0 -87.333 12.333 -108 37c-20 25.333 -24.667 63 -14 113l162 769l-102 58c-127.333 62.667 -191 131.334 -191 206.001v4c2 76 32.333 147 91 213
c58 66.667 115 100 171 100c56.667 0 119 -17.667 187 -53c79.333 -37.333 151.666 -68.333 216.999 -93c43.333 -20.667 59.333 -53 48 -97c-24 -43.333 -61.333 -56.666 -112 -39.999c-65.333 24.667 -121 49.334 -167 74.001c-86.667 39.333 -140 59 -160 59
s-45.333 -17.667 -76 -53s-46.667 -66.333 -48 -93s35 -57.334 109 -92.001l204 -111l-179 -851h759c44.667 0 81 12.667 109 38c27.333 26 46.666 64.333 57.999 115z" />
    <glyph glyph-name="uni1799" unicode="&#x1799;" horiz-adv-x="2510" 
d="M1440 358c20.667 -62.667 42.002 -111.002 64.002 -145.002c26.667 -42 55 -63 85 -63h354c44.667 0 81 12.667 109 38c27.333 26 46.666 64.333 58 115l108 496l-152 78c-129.333 63.333 -193 133.333 -191 210c2 76 32.333 147 91 213c58 66.667 115 100 171 100
c56.667 0 125.667 -24.333 207 -73l107 -63c39.333 -24 59 -50 59 -78c0 -12.667 -3.66699 -25.667 -11 -39c-24 -43.333 -61.333 -50 -112 -20l-107 64c-66.667 39.333 -110 59 -130 59s-45.333 -17.667 -76 -53s-46.667 -66.333 -48 -93s35 -57.334 109 -92.001l254 -131
l-130 -601c-20 -93.333 -56.333 -163.333 -109 -210s-121.667 -70 -207 -70h-353c-66.667 0 -124.334 30.667 -173.001 92c-14 17.333 -27 37.333 -39 60c-18 -32.667 -39.333 -60 -64 -82c-52.667 -46.667 -121.667 -70 -207 -70h-772
c-50.667 0 -86.334 12.333 -107.001 37c-13.333 16.667 -20 39 -20 67c0 14.667 1.66699 30.334 5 47.001l241 1132c13.333 93.333 49.333 156.333 108 189c34 18.667 69.667 28 107 28c26.667 0 54.334 -5 83.001 -15c64.667 -23.333 110 -65.333 136 -126
c25.333 -60 31.666 -138.667 18.999 -236c-12.667 -88 -39.334 -148 -80.001 -180c-41.333 -31.333 -96.666 -34.666 -165.999 -9.99902c-32 12 -39.667 41.667 -23 89c17.333 46.667 42 64 74 52c24 -8.66699 39.667 16 47 74c8 55.333 7 99.333 -3 132
c-9.33301 32.667 -27.666 53.667 -54.999 63c-26 9.33301 -47 7 -63 -7c-16 -13.333 -28.333 -39.666 -37 -78.999l-233 -1107h739c44.667 0 81 12.667 109 38c27.333 26 46.666 64.333 57.999 115l118 546l-122 68c-129.333 70 -193 143.333 -191 220
c2 76 32.333 147 91 213c58 66.667 115 100 171 100c56.667 0 125.667 -24.333 207 -73l107 -63c56.667 -34 72.667 -73 48 -117c-24 -43.333 -61.333 -50 -112 -20l-107 64c-66.667 39.333 -110 59 -130 59s-45.333 -17.667 -76 -53s-46.667 -66.333 -48 -93
s35 -60.667 109 -102l224 -121z" />
    <glyph glyph-name="uni179A" unicode="&#x179a;" horiz-adv-x="950" 
d="M637 899l-151.999 78c-129.333 63.333 -193 133.333 -191 210c2 76 32.333 147 91 213c58 66.667 115 100 171 100c56.667 0 125.667 -24.333 207 -73l137 -83c39.333 -24 59 -50 59 -78c0 -12.667 -3.66699 -25.667 -11 -39c-24 -43.333 -61.333 -50 -112 -20l-137 84
c-66.667 39.333 -110 59 -130 59s-45.333 -17.667 -76 -53s-46.667 -66.333 -48 -93s35 -57.334 109 -92.001l254 -131l-161 -757c-32 -149.333 -114 -224 -246 -224c-66.667 0 -125.167 17.333 -175.5 52s-75.5 100.334 -75.5 197.001c0 67.333 4 117.333 12 150
c10.667 50.667 31.334 88.334 62.001 113.001c30.667 25.333 71.667 38 123 38c35.333 0 52.666 -25 51.999 -75c0 -50 -16.667 -75 -50 -75c-22.667 0 -36.334 -12.333 -41.001 -37c-5.33301 -24.667 -8 -61.334 -8 -110.001c0 -48 10.5 -77.167 31.5 -87.5
s44.167 -15.5 69.5 -15.5c51.333 0 84 33.333 98 100z" />
    <glyph glyph-name="uni179B" unicode="&#x179b;" horiz-adv-x="2418" 
d="M416 445l-38.001 -179.999c-8 -38.667 -8.66699 -67.334 -2 -86.001c6 -19.333 19.667 -29 41 -29c23.333 0 54.333 20.667 93 62c38.667 42 62 82.333 70 121c4.66699 19.333 -0.666016 36.333 -15.999 51c-14.667 14.667 -38.667 27 -72 37zM416.999 0.000976562
c-83.333 0 -140.334 24.998 -171.001 74.998c-18 29.333 -27 67.666 -27 114.999c0 32 4.33301 68.667 13 110l176 825c19.333 95.333 52.666 174.333 99.999 237c48 62.667 111.333 103.334 190 122.001c44 10.667 87 16 129 16c32.667 0 64.667 -3.33301 96 -10
c70.667 -14 140.334 -35 209.001 -63c68.667 -27.333 137.334 -69.333 206.001 -126c69.333 -56 111.666 -116.333 126.999 -181c16 -64 15.333 -138 -2 -222l-159 -748h468c58 0 112.667 23 164 69c52 46 85.667 104 101 174l86 406l-152 78
c-129.333 63.333 -193 133.333 -191 210c2 76 32.333 147 91 213c58 66.667 115 100 171 100c56.667 0 125.667 -24.333 207 -73l137 -83c39.333 -24 59 -50 59 -78c0 -12.667 -3.66699 -25.667 -11 -39c-24 -43.333 -61.333 -50 -112 -20l-137 84
c-66.667 39.333 -110 59 -130 59s-45.333 -17.667 -76 -53s-46.667 -66.333 -48 -93s35 -57.334 109 -92.001l254 -131l-110 -517c-22 -104 -71.667 -190.667 -149 -260c-78 -69.333 -167 -104 -267 -104h-498c-50.667 0 -86 12.333 -106 37c-20 25.333 -24.667 63 -14 113
l165 779c12.667 60.667 14.334 110.334 5.00098 149.001c-9.33301 38 -39 77 -89 117s-102.667 71.333 -158 94s-111 39.667 -167 51c-56 10.667 -109.667 10.334 -161 -0.999023s-92 -36.666 -122 -75.999c-30 -40 -52 -93 -66 -159l-109 -513l101 -29
c73.333 -22 124.666 -54 153.999 -96c30 -42.667 38.333 -95.667 25 -159c-14 -68.667 -52.333 -137 -115 -205c-63.333 -68 -128.666 -102 -195.999 -102z" />
    <glyph glyph-name="uni179C" unicode="&#x179c;" horiz-adv-x="950" 
d="M637 899l-151.996 78.002c-129.333 63.333 -193 133.333 -191 210c2 76 32.333 147 91 213c58 66.667 115 100 171 100c56.667 0 110.667 -15.667 162 -47c50 -30 90.333 -38.667 121 -26c30.667 13.333 51.667 47.666 63 102.999
c9.33301 56 -1.83398 108.333 -33.501 157s-91.834 84 -180.501 106c-64.667 20.667 -88.334 55 -71.001 103c12.667 34 38 51 76 51c14.667 0 31 -2.33301 49 -7c128.667 -35.333 215.667 -95 261 -179c34.667 -64 52 -129.667 52 -197
c0 -20.667 -1.66699 -41.334 -5 -62.001c-26.667 -122.667 -73 -199 -139 -229c-66.667 -30.667 -152.667 -15.667 -258 45c-36 21.333 -64 32 -84 32s-45.333 -17.667 -76 -53s-46.667 -66.333 -48 -93s35 -57.334 109 -92.001l254 -131l-161 -757
c-32 -149.333 -114 -224 -246 -224c-66.667 0 -125.167 17.333 -175.5 52s-75.5 100.334 -75.5 197.001c0 67.333 4 117.333 12 150c10.667 50.667 31.334 88.334 62.001 113.001c30.667 25.333 71.667 38 123 38c35.333 0 52.666 -25 51.999 -75c0 -50 -16.667 -75 -50 -75
c-22.667 0 -36.334 -12.333 -41.001 -37c-5.33301 -24.667 -8 -61.334 -8 -110.001c0 -48 10.5 -77.167 31.5 -87.5s44.167 -15.5 69.5 -15.5c51.333 0 84 33.333 98 100z" />
    <glyph glyph-name="uni179D" unicode="&#x179d;" horiz-adv-x="1753" 
d="M389 978c-24.667 -6 -61.999 8.33008 -111.999 42.9971c-25.333 17.333 -44.333 40 -57 68c-12 28 -18 61.333 -18 100s9 75.667 27 111c18 36 45.333 70.333 82 103c36 32.667 79.333 57 130 73c51.333 16 106.333 24 165 24s114.667 -13 168 -39
s107.666 -65 162.999 -117c66 -62.667 107.667 -94 125 -94s62.333 25 135 75c36 25.333 73.667 44 113 56c39.333 12.667 80 19 122 19c42.667 0 84.667 -9.66699 126 -29c42 -20 83.333 -49.333 124 -88c60.667 -55.333 91 -111 91 -167
c0 -53.333 -11 -82.666 -33 -87.999c-22.667 -4.66699 -42.667 6.5 -60 33.5s-52.333 65.167 -105 114.5c-26 24.667 -51.333 43.334 -76 56.001c-25.333 12 -49.666 18 -72.999 18c-47.333 0 -89.333 -12.333 -126 -37c-54 -37.333 -101.333 -65.666 -142 -84.999
c-40.667 -18.667 -74.667 -28 -102 -28c-26.667 0 -57.667 10.667 -93 32c-36 20.667 -76 51.667 -120 93c-44.667 42 -86.334 73.333 -125.001 94s-74.667 31 -108 31c-84.667 0 -148.667 -18.667 -192 -56s-65 -70.333 -65 -99c0 -28 17.667 -54.333 53 -79
c36 -25.333 48.333 -53 37 -83c-10.667 -30.667 -28.667 -49 -54 -55zM1416 459.997c8.66699 51.333 -2.99902 103.001 -34.999 155.001c-34 54.667 -91 110 -171 166s-151.667 98 -215 126s-125 42 -185 42c-73.333 0 -142.333 -18.667 -207 -56
s-106.667 -100.333 -126 -189l-89 -415c53.333 60 112.333 111.333 177 154c62.667 38 125.334 57 188.001 57c62 0 126.667 -19.667 194 -59c48 -29.333 58.667 -65 32 -107c-26 -42 -64 -48 -114 -18c-38 22.667 -74.667 34 -110 34s-78.666 -16 -129.999 -48
c-45.333 -33.333 -89 -73 -131 -119c-101.333 -122 -167 -183 -197 -183c-29.333 0 -53 20.333 -71 61c-9.33301 21.333 -14 48.666 -14 81.999c0 29.333 3.66699 63 11 101l106 488c31.333 136.667 95.666 232 192.999 286c97.333 54.667 193.666 82 288.999 82
c74.667 0 152.667 -17.667 234 -53c80.667 -34.667 171.334 -87 272.001 -157c100 -70 171 -142.333 213 -217c41.333 -74.667 53.666 -151.667 36.999 -231l-3 -16l101 -24c64.667 -15.333 91.334 -47.333 80.001 -96s-49.666 -65.334 -114.999 -50.001l-98 23l-38 -179
c-6.66699 -33.333 -18.334 -58.333 -35.001 -75c-16 -16.667 -37 -25 -63 -25s-43.333 8 -52 24c-9.33301 16.667 -10.333 42 -3 76l44 214l-144 34c-64.667 15.333 -91.334 47 -80.001 95c11.333 48.667 49.666 65.334 114.999 50.001z" />
    <glyph glyph-name="uni179E" unicode="&#x179e;" horiz-adv-x="1802" 
d="M1607 473l-41.999 -192.999c-20 -93.333 -56.333 -163.333 -109 -210s-121.667 -70 -207 -70h-791c-51.333 0 -87.333 12.333 -108 37c-20 25.333 -24.667 63 -14 113l162 769l-102 58c-127.333 62.667 -191 131.334 -191 206.001v4c2 76 32.333 147 91 213
c58 66.667 115 100 171 100c56.667 0 119 -17.667 187 -53c79.333 -37.333 151.666 -68.333 216.999 -93c43.333 -20.667 59.333 -53 48 -97c-24 -43.333 -61.333 -56.666 -112 -39.999c-65.333 24.667 -121 49.334 -167 74.001c-86.667 39.333 -140 59 -160 59
s-45.333 -17.667 -76 -53s-46.667 -66.333 -48 -93s35 -57.334 109 -92.001l204 -111l-179 -851h759c44.667 0 81 12.667 109 38c27.333 26 46.666 64.333 57.999 115l45 205l-143 33c-64.667 15.333 -91.334 47.333 -80.001 96c11.333 48 49.333 64.667 114 50l140 -33
l32 145l-152 78c-129.333 63.333 -193 133.333 -191 210c2 76 32.333 147 91 213c58 66.667 115 100 171 100c56.667 0 125.667 -24.333 207 -73l137 -83c39.333 -24 59 -50 59 -78c0 -12.667 -3.66699 -25.667 -11 -39c-24 -43.333 -61.333 -50 -112 -20l-137 84
c-66.667 39.333 -110 59 -130 59s-45.333 -17.667 -76 -53s-46.667 -66.333 -48 -93s35 -57.334 109 -92.001l254 -131l-57 -262l104 -24c64.667 -14.667 91.334 -46.334 80.001 -95.001s-49.666 -65.334 -114.999 -50.001z" />
    <glyph glyph-name="uni179F" unicode="&#x179f;" horiz-adv-x="2418" 
d="M416 445l-38.001 -179.999c-8 -38.667 -8.66699 -67.334 -2 -86.001c6 -19.333 19.667 -29 41 -29c23.333 0 54.333 20.667 93 62c38.667 42 62 82.333 70 121c4.66699 19.333 -0.666016 36.333 -15.999 51c-14.667 14.667 -38.667 27 -72 37zM484.999 1049
c-78 50 -117.002 115.331 -117.002 195.998c0 83.333 34.667 146.666 104 189.999c68.667 43.333 132 65 190 65c57.333 0 116 -10 176 -30l230 -78c34 -12 57.333 -26.667 70 -44c12 -17.333 13.667 -37.666 5 -60.999s-23.667 -38 -45 -44c-20.667 -6 -47.667 -3 -81 9
l-224 75c-46 15.333 -86.667 23 -122 23s-69.666 -10.667 -102.999 -32s-50 -45.333 -50 -72c0 -27.333 17.667 -51.666 53 -72.999l85 -52c65.333 12 128.333 11.667 189 -1c70.667 -14 140.334 -35 209.001 -63c68.667 -27.333 137.334 -69.333 206.001 -126
c69.333 -56 111.666 -116.333 126.999 -181c16 -64 15.333 -138 -2 -222l-81 -378h468c58 0 112.667 23 164 69c52 46 85.667 104 101 174l86 406l-152 78c-129.333 63.333 -193 133.333 -191 210c2 76 32.333 147 91 213c58 66.667 115 100 171 100
c56.667 0 125.667 -24.333 207 -73l137 -83c39.333 -24 59 -50 59 -78c0 -12.667 -3.66699 -25.667 -11 -39c-24 -43.333 -61.333 -50 -112 -20l-137 84c-66.667 39.333 -110 59 -130 59s-45.333 -17.667 -76 -53s-46.667 -66.333 -48 -93s35 -57.334 109 -92.001l254 -131
l-110 -517c-22 -104 -71.667 -190.667 -149 -260c-78 -69.333 -167 -104 -267 -104h-498c-50.667 0 -86 12.333 -106 37c-20 25.333 -24.667 63 -14 113l87 409c12.667 60.667 14.334 110.334 5.00098 149.001c-9.33301 38 -39 77 -89 117s-102.667 71.333 -158 94
s-111 39.667 -167 51c-56 10.667 -109.667 10.334 -161 -0.999023s-92 -36.666 -122 -75.999c-30 -40 -52 -93 -66 -159l-31 -143l101 -29c73.333 -22 124.666 -54 153.999 -96c30 -42.667 38.333 -95.667 25 -159c-14 -68.667 -52.333 -137 -115 -205
c-63.333 -68 -128.666 -102 -195.999 -102c-83.333 0 -140.333 25 -171 75c-18 29.333 -27 67.666 -27 114.999c0 32 4.33301 68.667 13 110l98 455c19.333 95.333 52.666 174.333 99.999 237c16.667 21.333 35 40.333 55 57z" />
    <glyph glyph-name="uni17A0" unicode="&#x17a0;" horiz-adv-x="2752" 
d="M498 919l-101.997 57.9941c-127.333 62.667 -191 131.334 -191 206.001v4c2 76 32.333 147 91 213c58 66.667 115 100 171 100c56.667 0 119 -17.667 187 -53c79.333 -37.333 151.666 -68.333 216.999 -93c43.333 -20.667 59.333 -53 48 -97
c-24 -43.333 -61.333 -56.666 -112 -39.999c-65.333 24.667 -121 49.334 -167 74.001c-86.667 39.333 -140 59 -160 59s-45.333 -17.667 -76 -53s-46.667 -66.333 -48 -93s35 -57.334 109 -92.001l204 -111l-179 -851h759c44.667 0 81 12.667 109 38
c27.333 26 46.666 64.333 57.999 115l157 722c19.333 95.333 52.666 174.333 99.999 237c48 62.667 111.333 103.334 190 122.001s153.667 20.667 225 6c70.667 -14 140.334 -35 209 -63c68.667 -27.333 137.334 -69.333 206 -126c69.333 -56 111.666 -116.333 127 -181
c8 -30.667 12 -63.667 12 -99c0 -38 -4.66699 -79 -14 -123l-157 -706c-14.667 -61.333 -46.334 -92 -95 -92c-48.667 0 -66.667 30.667 -54 92l158 737c12.667 60.667 14.334 110.334 5 149.001c-9.33301 38 -39 77 -89 117s-102.667 71.333 -158 94s-111 39.667 -167 51
c-56 10.667 -109.667 10.334 -161 -0.999023s-92 -36.666 -122 -75.999c-30 -40 -52 -93 -66 -159l-157 -724c-20 -93.333 -56.333 -163.333 -109 -210s-121.667 -70 -207 -70h-791c-51.333 -0 -87.333 12.333 -108 37c-20 25.333 -24.667 63 -14 113z" />
    <glyph glyph-name="uni17A1" unicode="&#x17a1;" horiz-adv-x="2266" 
d="M1100 650c48 0 75.333 16.667 82 50c7.33301 33.333 -5 50 -37 50s-54.667 -31 -68 -93l-1 -7h24zM1044 501l-39.999 -190.998c-22 -103.333 -61.333 -180.666 -118 -231.999c-56 -52 -129.667 -78 -221 -78c-110.667 0 -187 30.667 -229 92
c-42.667 61.333 -51 153.666 -25 276.999c17.333 82 51 118.667 101 110c49.333 -8.66699 65.666 -52.667 48.999 -132c-14 -66 -12.333 -115.333 5 -148c18 -32.667 51.667 -49 101 -49c50 0 90.667 15.333 122 46c31.333 31.333 53.666 78.333 66.999 141l37 173
c-46 5.33301 -89.333 12.666 -130 21.999c-95.333 21.333 -195.333 73.333 -300 156c-104.667 83.333 -170 167.666 -196 252.999c-9.33301 30.667 -14 65.667 -14 105c0 45.333 6.33301 96.333 19 153c19.333 91.333 77.333 164.333 174 219
c97.333 54.667 224.666 82 381.999 82c64 0 144 -9.33301 240 -28c139.333 -32 236.333 -88.667 291 -170c53.333 -80 71.333 -161.667 54 -245c-10.667 -47.333 -41 -71.333 -91 -72c-50.667 0 -71 27 -61 81c10.667 49.333 -1.66602 99.333 -36.999 150
c-36.667 52.667 -100 90.334 -190 113.001c-87.333 14 -154 21 -200 21c-139.333 0 -241 -18.667 -305 -56c-63.333 -37.333 -101.666 -87 -114.999 -149c-14.667 -66 -16.334 -119 -5.00098 -159c16 -53.333 65.667 -113.666 149 -180.999
c83.333 -66.667 166 -109.334 248 -128.001c36.667 -8 76 -14.333 118 -19l7 31c14.667 70 40 122.667 76 158s82.667 53 140 53c77.333 0 131.333 -18.667 162 -56c30.667 -38 38 -94.333 22 -169c-12 -58.667 -38 -102.334 -78 -131.001c-40.667 -29.333 -95 -44 -163 -44
c-15.333 0 -30.666 0.333008 -45.999 1zM1963 799.002l-151.998 78.001c-129.333 63.333 -193 133.333 -191 210c2 76 32.333 147 91 213c58 66.667 115 100 171 100c56.667 0 125.667 -24.333 207 -73l137 -83c39.333 -24 59 -50 59 -78
c0 -12.667 -3.66699 -25.667 -11 -39c-24 -43.333 -61.333 -50 -112 -20l-137 84c-66.667 39.333 -110 59 -130 59s-45.333 -17.667 -76 -53s-46.667 -66.333 -48 -93s35 -57.334 109 -92.001l254 -131l-276 -1304c-20 -93.333 -56.333 -163.333 -109 -210
s-110.334 -70 -173.001 -70c-22.667 0 -101.667 41.667 -237 125s-223.333 125 -264 125s-79.334 -33.333 -116.001 -100c-57.333 -100 -110.333 -150 -159 -150s-66.667 30.667 -54 92l20 92l52 247c2.66699 14.667 -8.66602 22 -33.999 22c-18.667 0 -28 -16.667 -28 -50
c0 -53.333 -25 -80 -75 -80s-75 27 -75 81c0 66 15 115.667 45 149s75 50 135 50c77.333 0 130 -16.667 158 -50c28.667 -33.333 36 -83.333 22 -150l-7 -37c22.667 22.667 61.667 34 117 34c68.667 0 175.667 -45.667 321 -137l185 -113c18 0 41 12.667 69 38
c27.333 26 46.666 64.333 57.999 115z" />
    <glyph glyph-name="uni17A2" unicode="&#x17a2;" horiz-adv-x="1950" 
d="M637 899l-151.999 78c-129.333 63.333 -193 133.333 -191 210c2 76 32.333 147 91 213c58 66.667 115 100 171 100c56.667 0 125.667 -24.333 207 -73l137 -83c56.667 -34 72.667 -73 48 -117c-24 -43.333 -61.333 -50 -112 -20l-137 84c-66.667 39.333 -110 59 -130 59
s-45.333 -17.667 -76 -53s-46.667 -66.333 -48 -93s35 -57.334 109 -92.001l254 -131l-161 -757c-32 -149.333 -114 -224 -246 -224c-66.667 0 -125.167 17.333 -175.5 52s-75.5 100.334 -75.5 197.001c0 67.333 4 117.333 12 150
c10.667 50.667 31.334 88.334 62.001 113.001c30.667 25.333 71.667 38 123 38c35.333 0 52.666 -25 51.999 -75c0 -50 -16.667 -75 -50 -75c-22.667 0 -36.334 -12.333 -41.001 -37c-5.33301 -24.667 -8 -61.334 -8 -110.001c0 -48 10.5 -77.167 31.5 -87.5
s44.167 -15.5 69.5 -15.5c51.333 0 84 33.333 98 100zM1653 736l13 62.998l-152 78c-129.333 63.333 -193 133.333 -191 210c2 76 32.333 147 91 213c58 66.667 115 100 171 100c56.667 0 125.667 -24.333 207 -73l137 -83c39.333 -24 59 -50 59 -78
c0 -12.667 -3.66699 -25.667 -11 -39c-24 -43.333 -61.333 -50 -112 -20l-137 84c-66.667 39.333 -110 59 -130 59s-45.333 -17.667 -76 -53s-46.667 -66.333 -48 -93s35 -57.334 109 -92.001l254 -131l-140 -657c-32 -149.333 -114 -224 -246 -224
c-66.667 0 -125.167 17.333 -175.5 52s-75.5 90.334 -75.5 167.001c0 54 4 97.333 12 130c10.667 50.667 31.334 88.334 62.001 113.001c30.667 25.333 71.667 38 123 38c35.333 0 52.666 -25 51.999 -75c0 -50 -16.667 -75 -50 -75c-22.667 0 -36.334 -12.333 -41.001 -37
c-5.33301 -24.667 -8 -54.667 -8 -90c0 -28 10.5 -47.167 31.5 -57.5s44.167 -15.5 69.5 -15.5c51.333 0 84 33.333 98 100l72 338l-677 77c-33.333 3.33301 -57.666 12.333 -72.999 27c-14.667 14 -20.667 33.333 -18 58c2.66699 25.333 13 43 31 53
c18 10.667 43.333 14.334 76 11.001z" />
    <glyph glyph-name="uni17A3" unicode="&#x17a3;" horiz-adv-x="1950" 
d="M637 899l-151.999 78c-129.333 63.333 -193 133.333 -191 210c2 76 32.333 147 91 213c58 66.667 115 100 171 100c56.667 0 125.667 -24.333 207 -73l137 -83c56.667 -34 72.667 -73 48 -117c-24 -43.333 -61.333 -50 -112 -20l-137 84c-66.667 39.333 -110 59 -130 59
s-45.333 -17.667 -76 -53s-46.667 -66.333 -48 -93s35 -57.334 109 -92.001l254 -131l-161 -757c-32 -149.333 -114 -224 -246 -224c-66.667 0 -125.167 17.333 -175.5 52s-75.5 100.334 -75.5 197.001c0 67.333 4 117.333 12 150
c10.667 50.667 31.334 88.334 62.001 113.001c30.667 25.333 71.667 38 123 38c35.333 0 52.666 -25 51.999 -75c0 -50 -16.667 -75 -50 -75c-22.667 0 -36.334 -12.333 -41.001 -37c-5.33301 -24.667 -8 -61.334 -8 -110.001c0 -48 10.5 -77.167 31.5 -87.5
s44.167 -15.5 69.5 -15.5c51.333 0 84 33.333 98 100zM1653 736l13 62.998l-152 78c-129.333 63.333 -193 133.333 -191 210c2 76 32.333 147 91 213c58 66.667 115 100 171 100c56.667 0 125.667 -24.333 207 -73l137 -83c39.333 -24 59 -50 59 -78
c0 -12.667 -3.66699 -25.667 -11 -39c-24 -43.333 -61.333 -50 -112 -20l-137 84c-66.667 39.333 -110 59 -130 59s-45.333 -17.667 -76 -53s-46.667 -66.333 -48 -93s35 -57.334 109 -92.001l254 -131l-140 -657c-32 -149.333 -114 -224 -246 -224
c-66.667 0 -125.167 17.333 -175.5 52s-75.5 90.334 -75.5 167.001c0 54 4 97.333 12 130c10.667 50.667 31.334 88.334 62.001 113.001c30.667 25.333 71.667 38 123 38c35.333 0 52.666 -25 51.999 -75c0 -50 -16.667 -75 -50 -75c-22.667 0 -36.334 -12.333 -41.001 -37
c-5.33301 -24.667 -8 -54.667 -8 -90c0 -28 10.5 -47.167 31.5 -57.5s44.167 -15.5 69.5 -15.5c51.333 0 84 33.333 98 100l72 338l-677 77c-33.333 3.33301 -57.666 12.333 -72.999 27c-14.667 14 -20.667 33.333 -18 58c2.66699 25.333 13 43 31 53
c18 10.667 43.333 14.334 76 11.001z" />
    <glyph glyph-name="uni17A4" unicode="&#x17a4;" horiz-adv-x="2800" 
d="M637 899l-151.999 78c-129.333 63.333 -193 133.333 -191 210c2 76 32.333 147 91 213c58 66.667 115 100 171 100c56.667 0 125.667 -24.333 207 -73l137 -83c56.667 -34 72.667 -73 48 -117c-24 -43.333 -61.333 -50 -112 -20l-137 84c-66.667 39.333 -110 59 -130 59
s-45.333 -17.667 -76 -53s-46.667 -66.333 -48 -93s35 -57.334 109 -92.001l254 -131l-161 -757c-32 -149.333 -114 -224 -246 -224c-66.667 0 -125.167 17.333 -175.5 52s-75.5 100.334 -75.5 197.001c0 67.333 4 117.333 12 150
c10.667 50.667 31.334 88.334 62.001 113.001c30.667 25.333 71.667 38 123 38c35.333 0 52.666 -25 51.999 -75c0 -50 -16.667 -75 -50 -75c-22.667 0 -36.334 -12.333 -41.001 -37c-5.33301 -24.667 -8 -61.334 -8 -110.001c0 -48 10.5 -77.167 31.5 -87.5
s44.167 -15.5 69.5 -15.5c51.333 0 84 33.333 98 100zM1652 737l24 111.998l-152 78c-129.333 63.333 -193 133.333 -191 210c2 76 32.333 147 91 213c58 66.667 115 100 171 100c65.333 0 135.666 -23.667 210.999 -71l193 -124l111 91c44.667 36.667 87.334 55 128.001 55
c41.333 0 79 -9.66699 113 -29l126 -71c76 -43.333 133 -86.666 171 -129.999c38 -44 57 -88.333 57 -133c0 -49.333 -5.33301 -99 -16 -149l-171 -802c-6 -28.667 -17 -50.334 -33 -65.001s-36.667 -22 -62 -22c-26 0 -43.333 9.66699 -52 29s-9 48 -1 86l172 806
c8 38 12 75 12 111c0 35.333 -52 82.333 -156 141l-156 88l-147 -121c-32.667 -26.667 -63 -40 -91 -40s-60.667 12 -98 36l-168 107c-60.667 38 -104 57 -130 57c-20 0 -45.333 -17.667 -76 -53s-46.667 -66.333 -48 -93s35 -57.334 109 -92.001l254 -131l-150 -707
c-32 -149.333 -114 -224 -246 -224c-66.667 0 -125.167 17.333 -175.5 52s-75.5 90.334 -75.5 167.001c0 54 4 97.333 12 130c10.667 50.667 31.334 88.334 62.001 113.001c30.667 25.333 71.667 38 123 38c35.333 0 52.666 -25 51.999 -75c0 -50 -16.667 -75 -50 -75
c-22.667 0 -36.334 -12.333 -41.001 -37c-5.33301 -24.667 -8 -54.667 -8 -90c0 -28 10.5 -47.167 31.5 -57.5s44.167 -15.5 69.5 -15.5c51.333 0 84 33.333 98 100l72 338l-677 77c-33.333 3.33301 -57.666 12.333 -72.999 27c-14.667 14 -20.667 33.333 -18 58
c2.66699 25.333 13 43 31 53c18 10.667 43.333 14.334 76 11.001z" />
    <glyph glyph-name="uni17A5" unicode="&#x17a5;" horiz-adv-x="1748" 
d="M417 445l-38.001 -179.999c-8 -38.667 -8.66699 -67.334 -2 -86.001c6 -19.333 19.667 -29 41 -29c23.333 0 54.333 20.667 93 62c38.667 42 62 82.333 70 121c4.66699 19.333 -0.666016 36.333 -15.999 51c-14.667 14.667 -38.667 27 -72 37zM539.999 1029
c90 47.333 179.337 70.998 268.004 70.998c74.667 0 152.667 -17.667 234 -53c80.667 -34.667 171.334 -87 272.001 -157c100 -70 171 -142.333 213 -217c41.333 -74.667 53.666 -151.667 36.999 -231l-73 -342c-6.66699 -33.333 -18.334 -58.333 -35.001 -75
c-16 -16.667 -37 -25 -63 -25s-43.333 8 -52 24c-9.33301 16.667 -10.333 42 -3 76l73 351c12 54 1 108.667 -33 164c-34 54.667 -91 110 -171 166s-151.667 98 -215 126s-125 42 -185 42c-73.333 0 -142.333 -18.667 -207 -56s-106.667 -100.333 -126 -189l-25 -113
l101 -29c73.333 -22 124.666 -54 153.999 -96c30 -42.667 38.333 -95.667 25 -159c-14 -68.667 -52.333 -137 -115 -205c-63.333 -68 -128.666 -102 -195.999 -102c-83.333 0 -140.333 25 -171 75s-35.334 125 -14.001 225l93 432c17.333 76 45 139.333 83 190
c-76.667 53.333 -124.334 87.666 -143.001 102.999c-20 14.667 -36.333 36 -49 64c-12 28 -18 61.333 -18 100s9 75.667 27 111c18 36 45.333 70.333 82 103c36 32.667 79.333 57 130 73c51.333 16 106.333 24 165 24s114.667 -13 168 -39s126 -67.667 218 -125
c91.333 -57.333 184.666 -86 279.999 -86c88 0 158.667 22 212 66s82 86.333 86 127c14 56.667 4 107 -30 151s-95.333 77 -184 99c-64.667 20.667 -88.334 55 -71.001 103c12.667 34 38 51 76 51c14.667 0 31 -2.33301 49 -7c128.667 -35.333 217 -92.666 265 -171.999
c33.333 -56 50 -115 50 -177c0 -24.667 -2.66699 -50 -8 -76c-6 -83.333 -49.667 -156.666 -131 -219.999s-185.666 -95 -312.999 -95c-116 0 -227.667 31.333 -335 94c-108 62.667 -181.333 104.334 -220 125.001s-74.667 31 -108 31c-84.667 0 -148.667 -18.667 -192 -56
s-65 -70.333 -65 -99c0 -28 17.667 -54.333 53 -79z" />
    <glyph glyph-name="uni17A6" unicode="&#x17a6;" horiz-adv-x="2414" 
d="M412 445l-38.001 -179.999c-8 -38.667 -8.66699 -67.334 -2 -86.001c6 -19.333 19.667 -29 41 -29c23.333 0 54.333 20.667 93 62c38.667 42 62 82.333 70 121c4.66699 19.333 -0.666016 36.333 -15.999 51c-14.667 14.667 -38.667 27 -72 37zM412.999 0.000976562
c-83.333 0 -140.333 24.9951 -171 74.9951s-35.334 125 -14.001 225l176 825c19.333 95.333 52.666 174.333 99.999 237c48 62.667 111.333 103.334 190 122.001s153.667 20.667 225 6c70.667 -14 140.334 -35 209.001 -63c68.667 -27.333 137.334 -69.333 206.001 -126
c69.333 -56 111.666 -116.333 126.999 -181c16 -64 15.333 -138 -2 -222l-172 -805c-7.33301 -31.333 -19 -54.666 -35 -69.999s-36.667 -23 -62 -23c-26 0 -43.333 8.66699 -52 26c-9.33301 18 -10.333 44.333 -3 79l176 824c12.667 60.667 14.334 110.334 5.00098 149.001
c-9.33301 38 -39 77 -89 117s-102.667 71.333 -158 94s-111 39.667 -167 51c-56 10.667 -109.667 10.334 -161 -0.999023s-92 -36.666 -122 -75.999c-30 -40 -52 -93 -66 -159l-109 -513l101 -29c73.333 -22 124.666 -54 153.999 -96c30 -42.667 38.333 -95.667 25 -159
c-14 -68.667 -52.333 -137 -115 -205c-63.333 -68 -128.666 -102 -195.999 -102zM200.999 -550.004l-17.001 -79.001c-10 -47.333 0 -71 30 -71c48.667 0 85.334 8.33301 110.001 25c24.667 16 37 40.667 37 74c0 16.667 -11.667 29.334 -35 38.001s-58.333 13 -105 13h-20z
M2116 798.995l-152 77.9971c-129.333 63.333 -193 133.333 -191 210c2 76 32.333 147 91 213c58 66.667 115 100 171 100c56.667 0 110.667 -15.667 162 -47c50 -30 90.333 -38.667 121 -26c30.667 13.333 51.667 47.666 63 102.999c9.33301 56 -1.83398 108.333 -33.5 157
c-31.667 48.667 -91.834 84 -180.5 106c-64.667 20.667 -88.334 55 -71.001 103c12.667 34 38 51 76 51c14.667 0 31 -2.33301 49 -7c128.667 -35.333 215.667 -95 261 -179c34.667 -64 52 -129.667 52 -197c0 -20.667 -1.66699 -41.334 -5 -62.001
c-26.667 -122.667 -73 -199 -139 -229c-66.667 -30.667 -152.667 -15.667 -258 45c-36 21.333 -64 32 -84 32s-45.333 -17.667 -76 -53s-46.667 -66.333 -48 -93s35 -57.334 109 -92.001l254 -131l-310 -1451c-20 -93.333 -56.333 -163.333 -109 -210s-121.667 -70 -207 -70
h-574c-51.333 0 -87.333 12.333 -108 37c-20 25.333 -24.667 63 -14 113l8 42c12.667 60.667 14.334 110.334 5.00098 149.001c-9.33301 38 -39 77 -89 117s-102.667 71.333 -158 94s-111 39.667 -167 51c-56 10.667 -109.667 10.334 -161 -0.999023
s-92 -36.666 -122 -75.999c-30 -40 -45.667 -65.333 -47 -76c93.333 0 163.333 -16.667 210 -50s70 -83.666 70 -150.999c0 -82.667 -25 -145 -75 -187c-50 -41.333 -125.333 -62 -226 -62c-80 0 -135.333 23.667 -166 71c-14 24.667 -21 55.334 -21 92.001
c0 26 3.33301 54.667 10 86l43 199c10.667 55.333 39.667 114.333 87 177c48 62.667 111.333 103.334 190 122.001s153.667 20.667 225 6c70.667 -14 140.334 -35 209.001 -63c68.667 -27.333 137.334 -69.333 206.001 -126c69.333 -56 111.666 -116.333 126.999 -181
c16 -64 15.333 -138 -2 -222l-2 -11h542c44.667 0 81 12.667 109 38c27.333 26 46.666 64.333 57.999 115z" />
    <glyph glyph-name="uni17A7" unicode="&#x17a7;" horiz-adv-x="1510" 
d="M545 928c55.333 34.667 95.6699 30.667 121.003 -12c25.333 -43.333 14.333 -80.333 -33 -111c-88 -53.333 -165 -65.333 -231 -36c-66 30 -106.667 86 -122 168c-16 82.667 -14 170 6 262c19.333 91.333 77.333 164.333 174 219c97.333 54.667 224.666 82 381.999 82
c64 0 144 -9.33301 240 -28c139.333 -32 236.333 -88.667 291 -170c35.333 -52.667 53 -115.667 53 -189c0 -39.333 -5 -81.666 -15 -126.999c-20.667 -106 -170.334 -223 -449.001 -351s-441.667 -218.667 -489 -272c-48 -54 -73.333 -95.667 -76 -125
c-2.66699 -30 11.666 -52.333 42.999 -67c30.667 -14 57.667 -21 81 -21c50 0 96 15.333 138 46l461 356c38.667 32 82 39 130 21s60.667 -79.667 38 -185l-51 -236c-34 -156.667 -82.667 -265 -146 -325c-39.333 -36.667 -73.333 -55 -102 -55c-18 0 -34 7 -48 21
c-37.333 37.333 -28 81.666 28 132.999c56.667 51.333 97.667 138.666 123 261.999l39 185l-363 -280c-80.667 -62 -164.667 -93 -252 -93c-49.333 0 -109 17.667 -179 53c-62 32.667 -93 84.667 -93 156c0 8 0.333008 16.333 1 25c8 84 42.667 159.333 104 226
s226.333 162 495 286s410 213.333 424 268c16.667 82 6.66699 149.333 -30 202s-100 90.334 -190 113.001c-87.333 14 -154 21 -200 21c-139.333 0 -241 -18.667 -305 -56c-63.333 -37.333 -101.666 -87 -114.999 -149c-14 -62 -15.667 -115 -5 -159
c10 -44 23.333 -70 40 -78c17.333 -8.66699 44.666 -2 81.999 20z" />
    <glyph glyph-name="uni17A8" unicode="&#x17a8;" horiz-adv-x="1500" 
d="M535 928c55.333 34.667 95.6689 30.667 121.002 -12c25.333 -43.333 14.333 -80.333 -33 -111c-88 -53.333 -165 -65.333 -231 -36c-66 30 -106.667 86 -122 168c-16 82.667 -14 170 6 262c19.333 91.333 77.333 164.333 174 219c97.333 54.667 224.666 82 381.999 82
c64 0 144 -9.33301 240 -28c139.333 -32 236.333 -88.667 291 -170s67.334 -186.666 38.001 -315.999c-20.667 -106 -170.334 -223 -449.001 -351s-441.667 -218.667 -489 -272c-48 -54 -73.333 -95.667 -76 -125c-2.66699 -30 11.666 -52.333 42.999 -67
c30.667 -14 57.667 -21 81 -21c50 0 96 15.333 138 46l461 356c38.667 32 82 39 130 21s60.667 -79.667 38 -185l-51 -236c-34 -156.667 -82.667 -265 -146 -325c-39.333 -36.667 -73.333 -55 -102 -55c-18 0 -34 7 -48 21c-37.333 37.333 -28 81.666 28 132.999
c56.667 51.333 97.667 138.666 123 261.999l39 185l-363 -280c-80.667 -62 -164.667 -93 -252 -93c-49.333 0 -109 17.667 -179 53c-69.333 36.667 -100 97 -92 181s42.667 159.333 104 226s226.333 162 495 286s410 213.333 424 268c16.667 82 6.66699 149.333 -30 202
s-100 90.334 -190 113.001c-87.333 14 -154 21 -200 21c-139.333 0 -241 -18.667 -305 -56c-63.333 -37.333 -101.666 -87 -114.999 -149c-14 -62 -15.667 -115 -5 -159c10 -44 23.333 -70 40 -78c17.333 -8.66699 44.666 -2 81.999 20zM338.003 1427
c-24.667 -6 -62.002 8.33398 -112.002 43.001s-75 90.667 -75 168s36.333 148.666 109 213.999c72.667 64.667 154.334 97 245.001 97c77.333 0 171 -52 281 -156c66 -62.667 107.667 -94 125 -94s62.333 25 135 75s141 75 205 75c71.333 0 148 -39 230 -117l62 -58
c40.667 -39.333 61 -79 61 -119s-18.333 -64.333 -55 -73c-36 -8 -61 1.66699 -75 29c-14 26.667 -47.333 64.667 -100 114c-52 49.333 -95 74 -129 74c-27.333 0 -59.333 -12.333 -96 -37c-108.667 -75.333 -190 -113 -244 -113c-53.333 0 -124.333 41.667 -213 125
s-149.667 125 -183 125c-51.333 0 -98.666 -18.667 -141.999 -56s-65 -70.333 -65 -99c0 -28 17.667 -54.333 53 -79c36 -25.333 48.333 -53 37 -83c-10.667 -30.667 -28.667 -49 -54 -55z" />
    <glyph glyph-name="uni17A9" unicode="&#x17a9;" horiz-adv-x="1610" 
d="M545 928c55.333 34.667 95.6689 30.667 121.002 -12c25.333 -43.333 14.333 -80.333 -33 -111c-88 -53.333 -165 -65.333 -231 -36c-66 30 -106.667 86 -122 168c-16 82.667 -14 170 6 262c19.333 91.333 77.333 164.333 174 219c97.333 54.667 224.666 82 381.999 82
c64 0 144 -9.33301 240 -28c139.333 -32 236.333 -88.667 291 -170s67.334 -186.666 38.001 -315.999c-20.667 -106 -170.334 -223 -449.001 -351s-441.667 -218.667 -489 -272c-48 -54 -73.333 -95.667 -76 -125c-2.66699 -30 11.666 -52.333 42.999 -67
c30.667 -14 57.667 -21 81 -21c50 0 96 15.333 138 46l461 356c38.667 32 82 39 130 21s60.667 -79.667 38 -185l-51 -236c-34 -156.667 -82.667 -265 -146 -325c-39.333 -36.667 -73.333 -55 -102 -55c-18 0 -34 7 -48 21c-37.333 37.333 -28 81.666 28 132.999
c56.667 51.333 97.667 138.666 123 261.999l39 185l-363 -280c-80.667 -62 -164.667 -93 -252 -93c-49.333 0 -109 17.667 -179 53c-62 32.667 -93 84.667 -93 156c0 8 0.333008 16.333 1 25c8 84 42.667 159.333 104 226s226.333 162 495 286s410 213.333 424 268
c16.667 82 6.66699 149.333 -30 202s-100 90.334 -190 113.001c-87.333 14 -154 21 -200 21c-139.333 0 -241 -18.667 -305 -56c-63.333 -37.333 -101.666 -87 -114.999 -149c-14 -62 -15.667 -115 -5 -159c10 -44 23.333 -70 40 -78c17.333 -8.66699 44.666 -2 81.999 20z
M1465 487c15.333 75.333 47 104.002 95 86.002c32.667 -12 49 -44.333 49 -97c0 -24.667 -3.66699 -54 -11 -88l-51 -236c-34 -156.667 -82.667 -265 -146 -325c-39.333 -36.667 -73.333 -55 -102 -55c-18 0 -34 7 -48 21c-37.333 37.333 -28 81.666 28 132.999
c56.667 51.333 97.667 138.666 123 261.999l39 185z" />
    <glyph glyph-name="uni17AA" unicode="&#x17aa;" horiz-adv-x="1510" 
d="M631 1480c63.333 13.333 133.673 19.998 211.006 19.998c64 0 144 -9.33301 240 -28c139.333 -32 236.333 -88.667 291 -170s67.334 -186.666 38.001 -315.999c-20.667 -106 -170.334 -223 -449.001 -351s-441.667 -218.667 -489 -272c-48 -54 -73.333 -95.667 -76 -125
c-2.66699 -30 11.666 -52.333 42.999 -67c30.667 -14 57.667 -21 81 -21c50 0 96 15.333 138 46l461 356c38.667 32 82 39 130 21s60.667 -79.667 38 -185l-51 -236c-34 -156.667 -82.667 -265 -146 -325c-39.333 -36.667 -73.333 -55 -102 -55c-18 0 -34 7 -48 21
c-37.333 37.333 -28 81.666 28 132.999c56.667 51.333 97.667 138.666 123 261.999l39 185l-363 -280c-80.667 -62 -164.667 -93 -252 -93c-49.333 0 -109 17.667 -179 53c-62 32.667 -93 84.667 -93 156c0 8 0.333008 16.333 1 25c8 84 42.667 159.333 104 226
s226.333 162 495 286s410 213.333 424 268c16.667 82 6.66699 149.333 -30 202s-100 90.334 -190 113.001c-87.333 14 -154 21 -200 21c-139.333 0 -241 -18.667 -305 -56c-63.333 -37.333 -101.666 -87 -114.999 -149c-14 -62 -15.667 -115 -5 -159
c10 -44 23.333 -70 40 -78c17.333 -8.66699 44.666 -2 81.999 20c55.333 34.667 95.666 30.667 120.999 -12c25.333 -43.333 14.333 -80.333 -33 -111c-88 -53.333 -165 -65.333 -231 -36c-66 30 -106.667 86 -122 168c-16 82.667 -14 170 6 262
c18.667 86.667 72 157 160 211c-51.333 36 -84.333 60 -99 72c-20 14.667 -36.333 36 -49 64c-12 28 -18 61.333 -18 100s9 75.667 27 111c18 36 45.333 70.333 82 103c36 32.667 79.333 57 130 73c51.333 16 93 24 125 24c58.667 0 114.667 -13 168 -39
s107.666 -65 162.999 -117c33.333 -31.333 73.666 -54.666 120.999 -69.999c47.333 -16 88.666 -24 123.999 -24c34.667 0 70.334 15.333 107.001 46s60.334 66.334 71.001 107.001c7.33301 36.667 -4.33398 91 -35.001 163c-24 62.667 -80.333 105 -169 127
c-64.667 20.667 -88.334 55 -71.001 103c12.667 34 38 51 76 51c14.667 0 31 -2.33301 49 -7c128.667 -35.333 211.667 -102 249 -200c34.667 -83.333 52 -155.333 52 -216c0 -17.333 -1.33301 -33.666 -4 -48.999c-19.333 -83.333 -59.666 -150 -120.999 -200
s-129 -75 -203 -75c-56 0 -115.667 10.333 -179 31c-62.667 21.333 -116.334 52.666 -161.001 93.999c-44.667 42 -86.334 73.333 -125.001 94s-74.667 31 -108 31c-58 0 -108.667 -18.667 -152 -56s-65 -70.333 -65 -99c0 -28 17.667 -54.333 53 -79z" />
    <glyph glyph-name="uni17AB" unicode="&#x17ab;" horiz-adv-x="1802" 
d="M498 919l-101.998 57.999c-127.333 62.667 -191 131.334 -191 206.001v4c2 76 32.333 147 91 213c58 66.667 115 100 171 100c56.667 0 119 -17.667 187 -53c79.333 -37.333 151.666 -68.333 216.999 -93c43.333 -20.667 59.333 -53 48 -97
c-24 -43.333 -61.333 -56.666 -112 -39.999c-65.333 24.667 -121 49.334 -167 74.001c-86.667 39.333 -140 59 -160 59s-45.333 -17.667 -76 -53s-46.667 -66.333 -48 -93s35 -57.334 109 -92.001l204 -111l-179 -851h759c44.667 0 81 12.667 109 38
c27.333 26 46.666 64.333 57.999 115l108 496l-152 78c-129.333 63.333 -193 133.333 -191 210c2 76 32.333 147 91 213c58 66.667 115 100 171 100c56.667 0 125.667 -24.333 207 -73l137 -83c39.333 -24 59 -50 59 -78c0 -12.667 -3.66699 -25.667 -11 -39
c-24 -43.333 -61.333 -50 -112 -20l-137 84c-66.667 39.333 -110 59 -130 59s-45.333 -17.667 -76 -53s-46.667 -66.333 -48 -93s35 -57.334 109 -92.001l254 -131l-130 -601c-20 -93.333 -56.333 -163.333 -109 -210s-121.667 -70 -207 -70h-791
c-51.333 -0 -87.333 12.333 -108 37c-20 25.333 -24.667 63 -14 113zM1155 -175.001c0 50 25.002 75.001 75.002 75.001c85.333 0 145.666 -16.333 180.999 -49c35.333 -32 46 -80.333 32 -145s-57.333 -116.334 -130 -155.001s-175 -64.334 -307 -77.001
c-131.333 -12.667 -242 -34 -332 -64s-159.333 -68.667 -208 -116c-34.667 -34 -65.334 -51 -92.001 -51c-17.333 0 -33 7 -47 21c-35.333 36.667 -26.666 80.334 26.001 131.001c63.333 61.333 148 111.333 254 150c106 38 233.667 64.667 383 80
c191.333 17.333 290.666 42.333 297.999 75c7.33301 33.333 -13 50 -61 50s-72 25 -72 75z" />
    <glyph glyph-name="uni17AC" unicode="&#x17ac;" horiz-adv-x="1802" 
d="M498 919l-101.998 57.999c-127.333 62.667 -191 131.334 -191 206.001v4c2 76 32.333 147 91 213c58 66.667 115 100 171 100c56.667 0 119 -17.667 187 -53c79.333 -37.333 151.666 -68.333 216.999 -93c43.333 -20.667 59.333 -53 48 -97
c-24 -43.333 -61.333 -56.666 -112 -39.999c-65.333 24.667 -121 49.334 -167 74.001c-86.667 39.333 -140 59 -160 59s-45.333 -17.667 -76 -53s-46.667 -66.333 -48 -93s35 -57.334 109 -92.001l204 -111l-179 -851h759c44.667 0 81 12.667 109 38
c27.333 26 46.666 64.333 57.999 115l108 496l-152 78c-129.333 63.333 -193 133.333 -191 210c2 76 32.333 147 91 213c58 66.667 115 100 171 100c56.667 0 125.667 -24.333 207 -73l137 -83c39.333 -24 59 -50 59 -78c0 -12.667 -3.66699 -25.667 -11 -39
c-24 -43.333 -61.333 -50 -112 -20l-137 84c-66.667 39.333 -110 59 -130 59s-45.333 -17.667 -76 -53s-46.667 -66.333 -48 -93s35 -57.334 109 -92.001l254 -131l-130 -601c-20 -93.333 -56.333 -163.333 -109 -210s-121.667 -70 -207 -70h-791
c-51.333 -0 -87.333 12.333 -108 37c-20 25.333 -24.667 63 -14 113zM1149 -504.001c-42.667 -9.33301 -90.332 -16.6689 -142.999 -22.002c-131.333 -12.667 -242 -34 -332 -64s-159.333 -68.667 -208 -116c-34.667 -34 -65.334 -51 -92.001 -51c-17.333 0 -33 7 -47 21
c-35.333 36.667 -26.666 80.334 26.001 131.001c63.333 61.333 148 111.333 254 150c106 38 233.667 64.667 383 80c191.333 17.333 290.666 42.333 297.999 75c7.33301 33.333 -13 50 -61 50s-72 25 -72 75s25 75 75 75c85.333 0 145.666 -16.333 180.999 -49
c35.333 -32 46 -80.333 32 -145c-12.667 -58.667 -49.667 -106.667 -111 -144l256 -146c58 -33.333 74.667 -71.666 50 -114.999c-14 -24 -33.333 -36 -58 -36c-19.333 0 -41.666 7 -66.999 21z" />
    <glyph glyph-name="uni17AD" unicode="&#x17ad;" horiz-adv-x="1768" 
d="M416 445l-38.001 -179.999c-8 -38.667 -8.66699 -67.334 -2 -86.001c6 -19.333 19.667 -29 41 -29c23.333 0 54.333 20.667 93 62c38.667 42 62 82.333 70 121c4.66699 19.333 -0.666016 36.333 -15.999 51c-14.667 14.667 -38.667 27 -72 37zM416.999 0.000976562
c-83.333 0 -140.332 25.001 -170.999 75.001c-18 29.333 -27 67.666 -27 114.999c0 32 4.33301 68.667 13 110l176 825c19.333 95.333 52.666 174.333 99.999 237c48 62.667 109.667 109 185 139h27c85.333 0 167 -44.667 245 -134l100 -123l88 103
c58.667 68.667 114 103 166 103c52.667 0 103 -18 151 -54c48 -35.333 89.333 -81.333 124 -138c34 -56.667 55 -109 63 -157c7.33301 -48 11 -84.667 11 -110c0 -26 -4.66699 -61.333 -14 -106l-168 -792c-6.66699 -31.333 -18 -54.666 -34 -69.999s-36.667 -23 -62 -23
c-26 0 -43.333 10 -52 30s-8.66699 49.667 0 89l169 793c7.33301 35.333 11 61.5 11 78.5s-2.66699 42.5 -8 76.5c-5.33301 33.333 -20.333 70.666 -45 111.999c-24.667 42 -50.334 72.667 -77.001 92c-26 19.333 -51.333 29 -76 29l-151 -182
c-33.333 -37.333 -65.666 -56 -96.999 -56s-65.666 23.333 -102.999 70l-100 125c-54.667 62 -101.334 93 -140.001 93c-35.333 -18.667 -68 -47.667 -98 -87c-30 -40 -52 -93 -66 -159l-109 -513l101 -29c73.333 -22 124.666 -54 153.999 -96
c30 -42.667 38.333 -95.667 25 -159c-14 -68.667 -52.333 -137 -115 -205c-63.333 -68 -128.666 -102 -195.999 -102zM1171 -174.998c0 50 25.002 75.001 75.002 75.001c85.333 0 145.666 -16.333 180.999 -49c35.333 -32 46 -80.333 32 -145
s-57.333 -116.334 -130 -155.001s-175 -64.334 -307 -77.001c-131.333 -12.667 -242 -34 -332 -64s-159.333 -68.667 -208 -116c-34.667 -34 -65.334 -51 -92.001 -51c-17.333 0 -33 7 -47 21c-35.333 36.667 -26.666 80.334 26.001 131.001
c63.333 61.333 148 111.333 254 150c106 38 233.667 64.667 383 80c191.333 17.333 290.666 42.333 297.999 75c7.33301 33.333 -13 50 -61 50s-72 25 -72 75z" />
    <glyph glyph-name="uni17AE" unicode="&#x17ae;" horiz-adv-x="1768" 
d="M416 445l-38.001 -179.999c-8 -38.667 -8.66699 -67.334 -2 -86.001c6 -19.333 19.667 -29 41 -29c23.333 0 54.333 20.667 93 62c38.667 42 62 82.333 70 121c4.66699 19.333 -0.666016 36.333 -15.999 51c-14.667 14.667 -38.667 27 -72 37zM416.999 0.000976562
c-83.333 0 -140.332 25.001 -170.999 75.001c-18 29.333 -27 67.666 -27 114.999c0 32 4.33301 68.667 13 110l176 825c19.333 95.333 52.666 174.333 99.999 237c48 62.667 109.667 109 185 139h27c85.333 0 167 -44.667 245 -134l100 -123l88 103
c58.667 68.667 114 103 166 103c52.667 0 103 -18 151 -54c48 -35.333 89.333 -81.333 124 -138c34 -56.667 55 -109 63 -157c7.33301 -48 11 -84.667 11 -110c0 -26 -4.66699 -61.333 -14 -106l-168 -792c-6.66699 -31.333 -18 -54.666 -34 -69.999s-36.667 -23 -62 -23
c-26 0 -43.333 10 -52 30s-8.66699 49.667 0 89l169 793c7.33301 35.333 11 61.5 11 78.5s-2.66699 42.5 -8 76.5c-5.33301 33.333 -20.333 70.666 -45 111.999c-24.667 42 -50.334 72.667 -77.001 92c-26 19.333 -51.333 29 -76 29l-151 -182
c-33.333 -37.333 -65.666 -56 -96.999 -56s-65.666 23.333 -102.999 70l-100 125c-54.667 62 -101.334 93 -140.001 93c-35.333 -18.667 -68 -47.667 -98 -87c-30 -40 -52 -93 -66 -159l-109 -513l101 -29c73.333 -22 124.666 -54 153.999 -96
c30 -42.667 38.333 -95.667 25 -159c-14 -68.667 -52.333 -137 -115 -205c-63.333 -68 -128.666 -102 -195.999 -102zM1165 -503.998c-42.667 -9.33301 -90.332 -16.668 -142.999 -22.001c-131.333 -12.667 -242 -34 -332 -64s-159.333 -68.667 -208 -116
c-34.667 -34 -65.334 -51 -92.001 -51c-17.333 0 -33 7 -47 21c-35.333 36.667 -26.666 80.334 26.001 131.001c63.333 61.333 148 111.333 254 150c106 38 233.667 64.667 383 80c191.333 17.333 290.666 42.333 297.999 75c7.33301 33.333 -13 50 -61 50s-72 25 -72 75
s25 75 75 75c85.333 0 145.666 -16.333 180.999 -49c35.333 -32 46 -80.333 32 -145c-12.667 -58.667 -49.667 -106.667 -111 -144l256 -146c40.667 -23.333 61 -49 61 -77c0 -12 -3.66699 -24.667 -11 -38c-14 -24 -33.333 -36 -58 -36c-19.333 0 -41.666 7 -66.999 21z
" />
    <glyph glyph-name="uni17AF" unicode="&#x17af;" horiz-adv-x="1650" 
d="M389 850c-24.667 0 -37.6641 -25 -38.9971 -75c-0.666992 -50 -26 -75 -76 -75c-50 0.666992 -75 26 -75 76c0.666992 50.667 14.667 100.667 42 150s77.666 74 150.999 74s124 -25.333 152 -76c28 -50 32.333 -121.333 13 -214l-73 -344c22.667 22.667 61.667 34 117 34
c68.667 0 175.667 -45.667 321 -137l185 -113c18 0 41 12.667 69 38c27.333 26 46.666 64.333 57.999 115l96 447c14 64.667 -4 156.667 -54 276c-33.333 60 -116.666 119.667 -249.999 179l-130 60c-114 50.667 -195 110 -243 178s-63 144.333 -45 229
c14 62.667 8.33301 121.667 -17 177s-70 107 -134 155c-52 41.333 -63 82 -33 122c15.333 21.333 33 32 53 32c18.667 0 39 -8.66699 61 -26c92 -70.667 156 -147 192 -229c36 -81.333 43.667 -168.333 23 -261c-8 -46 4 -89 36 -129c32.667 -40 85.667 -77 159 -111
l143 -62c183.333 -74.667 293.333 -157 330 -247c44.667 -104 67 -197 67 -279c0 -33.333 -3.66699 -65 -11 -95l-94 -439c-20 -93.333 -56.333 -163.333 -109 -210s-110.334 -70 -173.001 -70c-22.667 0 -101.667 41.667 -237 125s-223.333 125 -264 125
s-79.334 -33.333 -116.001 -100c-57.333 -100 -110.333 -150 -159 -150s-66.667 30.667 -54 92l20 92l116 552c13.333 76 7.33301 114 -18 114z" />
    <glyph glyph-name="uni17B0" unicode="&#x17b0;" horiz-adv-x="1761" 
d="M409 445l-38.001 -179.999c-8 -38.667 -8.66699 -67.334 -2 -86.001c6 -19.333 19.667 -29 41 -29c23.333 0 54.333 20.667 93 62c38.667 42 62 82.333 70 121c4.66699 19.333 -0.666016 36.333 -15.999 51c-14.667 14.667 -38.667 27 -72 37zM409.999 0.000976562
c-83.333 0 -140.331 25 -170.998 75s-35.334 125 -14.001 225l176 825c19.333 95.333 52.666 174.333 99.999 237c48 62.667 109.667 109 185 139h27c85.333 0 167 -44.667 245 -134l100 -123l88 103c58.667 68.667 114 103 166 103c52.667 0 103 -18 151 -54
c48 -35.333 89.333 -81.333 124 -138c34 -56.667 55 -109 63 -157c7.33301 -48 11 -84.667 11 -110c0 -26 -4.66699 -61.333 -14 -106l-168 -792c-6.66699 -31.333 -18 -54.666 -34 -69.999s-36.667 -23 -62 -23c-26 0 -43.333 10 -52 30s-8.66699 49.667 0 89l169 793
c7.33301 35.333 11 61.5 11 78.5s-2.66699 42.5 -8 76.5c-5.33301 33.333 -20.333 70.666 -45 111.999c-24.667 42 -50.334 72.667 -77.001 92c-26 19.333 -51.333 29 -76 29l-151 -182c-33.333 -37.333 -65.666 -56 -96.999 -56s-65.666 23.333 -102.999 70l-100 125
c-54.667 62 -101.334 93 -140.001 93c-35.333 -18.667 -68 -47.667 -98 -87c-30 -40 -52 -93 -66 -159l-109 -513l101 -29c73.333 -22 124.666 -54 153.999 -96c30 -42.667 38.333 -95.667 25 -159c-14 -68.667 -52.333 -137 -115 -205
c-63.333 -68 -128.666 -102 -195.999 -102zM1338 -172.999c10.667 -48.667 -15.3359 -79.334 -78.0029 -92.001l-722 -144c-86.667 -18 -153 -37.333 -199 -58s-71.333 -43.334 -76 -68.001c-5.33301 -24 -2.66602 -45.667 8.00098 -65
c11.333 -19.333 30.333 -36.333 57 -51c26 -14 54.333 -23 85 -27s63 -3 97 3c34.667 6 60 20.333 76 43s23 53.667 21 93c-4 78.667 23 123.667 81 135c58.667 12 139 -18 241 -90c102 -71.333 173.667 -103.333 215 -96c42 7.33301 76.667 40.666 104 99.999
c27.333 58.667 37.333 96.334 30 113.001c-24 48 -11.333 78.333 38 91s85 -3.33301 107 -48c22 -45.333 8 -120 -42 -224c-25.333 -52.667 -55 -93.667 -89 -123c-34 -30 -73 -48.667 -117 -56c-43.333 -7.33301 -93.666 -0.333008 -150.999 21
s-121.666 57.333 -192.999 108l-71 50c3.33301 -74 -10.334 -132.333 -41.001 -175s-78.334 -70 -143.001 -82c-39.333 -6.66699 -77.333 -10 -114 -10c-24 0 -47.333 1.33301 -70 4c-58 8 -112.667 25.667 -164 53c-51.333 28 -86.666 63.333 -105.999 106
c-12 26 -18 54.667 -18 86c0 20.667 2.66699 42.334 8 65.001c12 58.667 50.667 108.667 116 150c66 40.667 158 73.334 276 98.001l730 145c58.667 12 93.334 -6.33301 104.001 -55z" />
    <glyph glyph-name="uni17B1" unicode="&#x17b1;" horiz-adv-x="1510" 
d="M545 928c55.333 34.667 95.6689 30.667 121.002 -12c25.333 -43.333 14.333 -80.333 -33 -111c-88 -53.333 -165 -65.333 -231 -36c-66 30 -106.667 86 -122 168c-16 82.667 -14 170 6 262c19.333 91.333 77.333 164.333 174 219c97.333 54.667 224.666 82 381.999 82
c64 0 144 -9.33301 240 -28c139.333 -32 236.333 -88.667 291 -170s67.334 -186.666 38.001 -315.999c-20.667 -106 -170.334 -223 -449.001 -351s-441.667 -218.667 -489 -272c-48 -54 -73.333 -95.667 -76 -125c-2.66699 -30 11.666 -52.333 42.999 -67
c30.667 -14 57.667 -21 81 -21c50 0 96 15.333 138 46l461 356c38.667 32 82 39 130 21s60.667 -79.667 38 -185l-51 -236c-34 -156.667 -82.667 -265 -146 -325c-39.333 -36.667 -73.333 -55 -102 -55c-18 0 -34 7 -48 21c-37.333 37.333 -28 81.666 28 132.999
c56.667 51.333 97.667 138.666 123 261.999l39 185l-363 -280c-80.667 -62 -164.667 -93 -252 -93c-49.333 0 -109 17.667 -179 53c-62 32.667 -93 84.667 -93 156c0 8 0.333008 16.333 1 25c8 84 42.667 159.333 104 226s226.333 162 495 286s410 213.333 424 268
c16.667 82 6.66699 149.333 -30 202s-100 90.334 -190 113.001c-87.333 14 -154 21 -200 21c-139.333 0 -241 -18.667 -305 -56c-63.333 -37.333 -101.666 -87 -114.999 -149c-14 -62 -15.667 -115 -5 -159c10 -44 23.333 -70 40 -78c17.333 -8.66699 44.666 -2 81.999 20z
M1406 1531c-33.333 -38 -67.668 -42.001 -103.001 -12.001l-54 44c-71.333 60 -157 99.333 -257 118s-251.667 2.66699 -455 -48l-136 -32c-45.333 -10.667 -76.333 -9 -93 5c-16 13.333 -17.667 39.333 -5 78l39 116c51.333 154 137 260 257 318
c120.667 58.667 256.334 89.667 407.001 93h30c139.333 0 270.333 -21.333 393 -64l99 -34c54 -19.333 81 -47 81 -83c0 -7.33301 -1 -15 -3 -23c-13.333 -47.333 -51.333 -60.666 -114 -39.999l-94 32c-126 42 -253.333 62.333 -382 61s-239.667 -24 -333 -68
c-93.333 -44.667 -156.333 -115 -189 -211c227.333 54.667 403 70.334 527 47.001c124.667 -22.667 228.334 -68.334 311.001 -137.001l61 -51c41.333 -34.667 45.666 -71 12.999 -109z" />
    <glyph glyph-name="uni17B2" unicode="&#x17b2;" horiz-adv-x="1506" 
d="M1085 200c49.333 33.333 77.665 71.333 84.998 114c7.33301 31.333 -36.667 72.333 -132 123c-95.333 51.333 -136 106.666 -122 165.999c14 60 62.333 101.333 145 124c138 37.333 212.333 77.333 223 120c8 34.667 -9 60.667 -51 78
c-42.667 17.333 -110.334 26 -203.001 26c-39.333 0 -71.333 -11.667 -96 -35c-25.333 -23.333 -43.333 -58.333 -54 -105c-16.667 -70.667 -49.667 -102.334 -99 -95.001c-48.667 7.33301 -65.334 45.333 -50.001 114c19.333 90 56.666 157.667 111.999 203
c54.667 45.333 127.334 68 218.001 68c144 0 247 -23 309 -69c46.667 -34 70 -81.667 70 -143c0 -19.333 -2.33301 -40.333 -7 -63c-11.333 -54 -45.333 -101.333 -102 -142c-57.333 -41.333 -137.666 -76.333 -240.999 -105c87.333 -46.667 150 -94.667 188 -144
c38 -50 51.333 -101.333 40 -154c-14 -70.667 -59.667 -135.334 -137 -194.001c-76.667 -58 -179.667 -87 -309 -87h-117c-99.333 0 -183 15.333 -251 46s-120.333 77 -157 139c-37.333 61.333 -58.666 138.333 -63.999 231c-0.666992 16 -1 32.333 -1 49
c0 80.667 10.333 172 31 274l83 386c19.333 95.333 52.666 174.333 99.999 237c48 62.667 111.333 103.334 190 122.001c51.333 12 101 18 149 18c26 0 51.333 -1.66699 76 -5c70.667 -12 140.334 -31 209.001 -57c68.667 -26.667 128.334 -58.334 179.001 -95.001
c56.667 -35.333 75.667 -73.666 57 -114.999c-19.333 -41.333 -60.333 -45.666 -123 -12.999c-59.333 34.667 -116.666 63 -171.999 85c-55.333 20.667 -111 35.667 -167 45c-56 6 -109.667 3.33301 -161 -8s-92 -36.666 -122 -75.999c-30 -40 -52 -93 -66 -159l-87 -403
c-18.667 -92 -26.334 -172.333 -23.001 -241c4 -68.667 19 -126 45 -172c26.667 -46 64.667 -80.667 114 -104c48.667 -22.667 109 -34 181 -34h113c82.667 0 148.334 16.667 197.001 50z" />
    <glyph glyph-name="uni17B3" unicode="&#x17b3;" horiz-adv-x="1510" 
d="M1367 1647c30 0 32.001 5 6.00098 15l-103 23c33.333 -25.333 65.666 -38 96.999 -38zM1044 1887c8 44.667 23.3379 94.668 46.0049 150.001c37.333 98 120.333 164.667 249 200c18 4.66699 34.333 7 49 7c38 0 63.333 -17 76 -51
c17.333 -48 -6.33398 -82.333 -71.001 -103c-88.667 -22 -145 -64.333 -169 -127c-18 -42.667 -29.667 -79 -35 -109l204 -49c116 -33.333 174 -89.333 174 -168v-12c-5.33301 -85.333 -72.333 -128 -201 -128c-74 0 -141.667 25 -203 75c-51.333 42 -88 95.667 -110 161
c-214 45.333 -343.667 68 -389 68c-64.667 0 -120.334 -18 -167.001 -54c-44 -34.667 -66 -66.334 -66 -95.001c0 -28 17.667 -54.333 53 -79l147 -93c63.333 13.333 133.666 20 210.999 20c64 0 144 -9.33301 240 -28c139.333 -32 236.333 -88.667 291 -170
s67.334 -186.666 38.001 -315.999c-20.667 -106 -170.334 -223 -449.001 -351s-441.667 -218.667 -489 -272c-48 -54 -73.333 -95.667 -76 -125c-2.66699 -30 11.666 -52.333 42.999 -67c30.667 -14 57.667 -21 81 -21c50 0 96 15.333 138 46l461 356
c38.667 32 82 39 130 21s60.667 -79.667 38 -185l-51 -236c-34 -156.667 -82.667 -265 -146 -325c-39.333 -36.667 -73.333 -55 -102 -55c-18 0 -34 7 -48 21c-37.333 37.333 -28 81.666 28 132.999c56.667 51.333 97.667 138.666 123 261.999l39 185l-363 -280
c-80.667 -62 -164.667 -93 -252 -93c-49.333 0 -109 17.667 -179 53c-62 32.667 -93 84.667 -93 156c0 8 0.333008 16.333 1 25c8 84 42.667 159.333 104 226s226.333 162 495 286s410 213.333 424 268c16.667 82 6.66699 149.333 -30 202s-100 90.334 -190 113.001
c-87.333 14 -154 21 -200 21c-139.333 0 -241 -18.667 -305 -56c-63.333 -37.333 -101.666 -87 -114.999 -149c-14 -62 -15.667 -115 -5 -159c10 -44 23.333 -70 40 -78c17.333 -8.66699 44.666 -2 81.999 20c55.333 34.667 95.666 30.667 120.999 -12
c25.333 -43.333 14.333 -80.333 -33 -111c-88 -53.333 -165 -65.333 -231 -36c-66 30 -106.667 86 -122 168c-16 82.667 -14 170 6 262c18.667 86.667 72 157 160 211c-51.333 36 -84.333 60 -99 72c-20 14.667 -36.333 36 -49 64c-12 28 -18 61.333 -18 100
s9 75.667 27 111c18 36 45.667 69 83 99c39.333 31.333 84.333 55 135 71c51.333 16 96.333 24 135 24c61.333 0 189.333 -21.333 384 -64z" />
    <glyph glyph-name="uni17B4" unicode="&#x17b4;" horiz-adv-x="1536" 
d="M256 0v1280h1024v-1280h-1024zM288 32h960v1216h-960v-1216z" />
    <glyph glyph-name="uni17B5" unicode="&#x17b5;" horiz-adv-x="1536" 
d="M256 0v1280h1024v-1280h-1024zM288 32h960v1216h-960v-1216z" />
    <glyph glyph-name="uni17B6" unicode="&#x17b6;" horiz-adv-x="699" 
d="M-379 1114c-4.66699 10 -7.00098 20.332 -7.00098 30.999c0 36.667 29.667 76.667 89 120l193 141c42.667 31.333 83 55 121 71c38 15.333 74 23 108 23s75.333 -12.333 124 -37c48 -25.333 103 -63 165 -113c62.667 -50 109.667 -96.667 141 -140
c30.667 -44 46 -84.667 46 -122c0 -29.333 -6 -72.666 -18 -129.999l-184 -868c-6.66699 -30 -18 -52.667 -34 -68c-15.333 -14.667 -36 -22 -62 -22s-43.333 8.66699 -52 26c-9.33301 17.333 -10.333 43.333 -3 78l185 869c11.333 56 17 96 17 120s-45.333 73 -136 147
c-91.333 73.333 -153.666 110 -186.999 110c-34 0 -83 -22.667 -147 -68l-203 -147c-80.667 -58.667 -132.667 -65.667 -156 -21z" />
    <glyph glyph-name="uni17B7" unicode="&#x17b7;" 
d="M-91 1644c-112 36.667 -284.668 69.3281 -518.001 97.9951l-355 47c-122.667 9.33301 -212.667 43 -270 101c-28 28.667 -48 63.334 -60 104.001c-2.66699 10.667 -4.66699 21.334 -6 32.001c-2.66699 18.667 -4 38.667 -4 60.001c0 15.333 0.666992 31.666 2 49
c10 90 42.333 161.667 97 215c55.333 52.667 132.333 87 231 103c30.667 4.66699 61 7 91 7c48.667 0 97.334 -6.33301 146.001 -19c77.333 -21.333 154.333 -59.666 231 -114.999c96.667 -69.333 179.667 -135.333 249 -198c70 -62 127 -120.667 171 -176
c87.333 -110 136.333 -198 147 -264c0.666992 -6 1 -11.333 1 -16c0 -24 -10.333 -39 -31 -45l-22 -4c-7.33301 0.666992 -16.333 1.33398 -27 2.00098c-20.667 2.66699 -45 9 -73 19zM-580.001 1890.99c172.667 -25.333 313.332 -51.334 421.999 -78.001
c-59.333 66.667 -122.666 131.334 -189.999 194.001c-68 63.333 -147.333 128.333 -238 195c-62 44 -123.333 74.333 -184 91c-60 16.667 -120 20.334 -180 11c-76 -12 -131 -35.667 -165 -71c-34 -34.667 -47.667 -81.334 -41 -140c4.66699 -42 24 -76 58 -102
c34 -25.333 82.667 -42.333 146 -51z" />
    <glyph glyph-name="uni17B8" unicode="&#x17b8;" 
d="M17 1624c-4 -0.666992 -8.66797 -1.00098 -14.001 -1.00098c-17.333 0 -40 4.33301 -68 13c-116.667 38 -292 70 -526 96l-356 43c-122 8 -212 40.667 -270 98c-28.667 28 -49.334 62.333 -62.001 103c-2.66699 10.667 -4.66699 21.334 -6 32.001
c-3.33301 21.333 -5 44 -5 68c0 13.333 0.333008 27 1 41c9.33301 90 41 162 95 216c54.667 53.333 131.334 88.666 230.001 106c32 5.33301 64 8 96 8c47.333 0 94.333 -6 141 -18c78 -20 155.333 -57.333 232 -112c97.333 -68 181 -133 251 -195
c71.333 -61.333 129.333 -119.333 174 -174l24 -31c33.333 146.667 56 291 68 433c4.66699 47.333 31.334 69.666 80.001 67c38.667 -2.66699 60.667 -19.667 66 -51c0.666992 -4.66699 1 -10 1 -16v-10c-16.667 -174 -42.667 -340.333 -78 -499l-35 -160
c-7.33301 -35.333 -20.333 -54.333 -39 -57zM-564.001 1881c173.333 -23.333 314.668 -47.668 424.001 -73.001c-60.667 66 -125 130 -193 192c-69.333 62.667 -149.333 126.667 -240 192c-62.667 43.333 -124.334 73 -185.001 89c-60.667 16.667 -120.667 19.667 -180 9
c-76 -13.333 -130.667 -37.666 -164 -72.999c-34 -35.333 -47.333 -82 -40 -140c5.33301 -42 25 -75.667 59 -101s83 -42 147 -50z" />
    <glyph glyph-name="uni17B9" unicode="&#x17b9;" 
d="M-624 1896c172.667 -27.333 313.335 -54.666 422.002 -81.999c-58.667 67.333 -121.334 132.666 -188.001 195.999c-67.333 64 -146 130 -236 198c-61.333 44.667 -122.333 75.334 -183 92c-60 18 -120 22.667 -180 14c-75.333 -11.333 -130.333 -34.333 -165 -69
s-49 -81 -43 -139c4 -42.667 23 -77 57 -103c33.333 -26 81.666 -43.667 144.999 -53zM-190.999 2174c-11.333 -30 -14.666 -60 -9.99902 -90s16.667 -57.667 36 -83s43.833 -43.5 73.5 -54.5s59.5 -14.167 89.5 -9.5c29.333 4.66699 56.5 16.667 81.5 36s43 43.833 54 73.5
s14.5 59.5 10.5 89.5c-4.66699 30 -16.834 57.667 -36.501 83s-44.334 43.333 -74.001 54s-58.834 13.667 -87.501 9c-29.333 -4 -56.666 -15.5 -81.999 -34.5s-43.666 -43.5 -54.999 -73.5zM-17.999 1784c18 -37.333 29 -70 33 -98
c4.66699 -32.667 -5.33301 -52.667 -30 -60l-22 -3c-8 0 -17 0.333008 -27 1c-20.667 3.33301 -45 10 -73 20c-111.333 38 -283.666 72.667 -516.999 104l-355 51c-122 10.667 -211.333 45.667 -268 105c-28 28.667 -47.667 63.334 -59 104.001
c-2.66699 10.667 -4.66699 21.334 -6 32.001c-2 17.333 -3 36 -3 56c0 16.667 0.666992 34.334 2 53c11.333 90 44.666 161.333 99.999 214c55.333 52 132.666 85.333 231.999 100c28 4 56 6 84 6c51.333 0 102.333 -7 153 -21c77.333 -22 154 -61 230 -117
c74 -54 140 -106.333 198 -157c3.33301 18 8.33301 36.333 15 55c20.667 55.333 54.667 100.666 102 136c47.333 35.333 98 57 152 65c54 8.66699 108.5 3 163.5 -17s101 -53.833 138 -101.5s59.5 -99.5 67.5 -155.5c2.66699 -16.667 4 -33.334 4 -50.001
c0 -38.667 -7 -77.334 -21 -116.001c-20.667 -55.333 -54.667 -100.833 -102 -136.5s-98.666 -57.5 -153.999 -65.5c-12.667 -2 -25 -3.33301 -37 -4z" />
    <glyph glyph-name="uni17BA" unicode="&#x17ba;" 
d="M-415 2059c-52.667 44 -111.001 89 -175.001 135c-62 43.333 -123.333 73.333 -184 90s-120.667 20 -180 10c-76 -13.333 -131 -37.666 -165 -73c-34 -34.667 -47.333 -81.334 -40 -140.001c5.33301 -42 25 -75.667 59 -101s82.667 -42 146 -50l373 -47
c172.667 -24 313.667 -48.667 423 -74c-48.667 54 -100 106.667 -154 158c-13.333 -6 -29.333 -7 -48 -3c-45.333 10.667 -63.666 42.334 -54.999 95.001zM-250.001 2115c66 -58.667 120 -114 162 -166l25 -32c33.333 146.667 56.333 291 69 433
c4.66699 47.333 31.334 69.666 80.001 67c39.333 -3.33301 61.666 -20.333 66.999 -51c0.666992 -4 1 -8 1 -12c0 -4.66699 -0.333008 -9.33398 -1 -14c-17.333 -174 -44 -340.667 -80 -500l-35 -159c-8 -35.333 -21 -54.333 -39 -57c-18.667 -3.33301 -46 0.666992 -82 12
c-116.667 38.667 -292 71.334 -526 98.001l-355 45c-122.667 8 -213 41 -271 99c-28.667 28 -49 62.333 -61 103c-2.66699 10.667 -4.66699 21 -6 31c-6 33.333 -7.33301 69.666 -4 108.999c10 90.667 42.333 162.667 97 216c54 53.333 130.333 88.333 229 105
c80 14 159 10.667 237 -10s155.333 -58.334 232 -113l130 -95l41 200c10 46.667 32.333 70 67 70c8 0 16.667 -1.33301 26 -4c49.333 -12.667 68 -47.334 56 -104z" />
    <glyph glyph-name="uni17BB" unicode="&#x17bb;" 
d="M-779 -650c-39.333 0 -59 20.332 -59 60.999c0 11.333 1.33301 24.333 4 39l82 380c10 46.667 40.667 70 92 70c40 0 60 -20.333 60 -61c0 -11.333 -1.66699 -24.666 -5 -39.999l-81 -374c-10.667 -50 -41.667 -75 -93 -75z" />
    <glyph glyph-name="uni17BC" unicode="&#x17bc;" 
d="M-395 -100c37.333 0 56 -17.332 56 -51.999c0 -15.333 -3.66699 -34 -11 -56l-51 -135c-44 -119.333 -90.333 -209 -139 -269c-48 -60 -101.667 -90 -161 -90c-93.333 0 -156 33.333 -188 100c-16.667 35.333 -25 80.333 -25 135c0 47.333 6.33301 102 19 164l27 125
c11.333 52 42.333 78 93 78c51.333 0 69.333 -36.333 54 -109l-27 -125c-15.333 -72.667 -19.333 -127.334 -12 -164.001c8 -36 27 -54 57 -54c23.333 0 47.333 20.667 72 62c24.667 40.667 53 102 85 184l45 121c18 56.667 53.333 85 106 85z" />
    <glyph glyph-name="uni17BD" unicode="&#x17bd;" 
d="M-332 -100c36.667 0 55.001 -17.668 55.001 -53.001c0 -14.667 -3.33301 -33 -10 -55l-61 -270c-27.333 -144.667 -90.666 -217 -189.999 -217c-62.667 0 -143.334 37.667 -242.001 113c-32.667 24.667 -61 37 -85 37c-11.333 0 -22 -24 -32 -72
c-11.333 -52 -42.666 -78 -93.999 -78c-40 0 -60 20 -60 60c0 10.667 1.33301 22.334 4 35.001l92 422c11.333 52 42.333 78 93 78c51.333 0 69.333 -36.333 54 -109l-41 -184c45.333 0 100.666 -25.333 165.999 -76s109.666 -76 132.999 -76s42 34.333 56 103l56 257
c18 56.667 53.333 85 106 85z" />
    <glyph glyph-name="uni17BE" unicode="&#x17be;" 
d="M17 1624c-4 -0.666992 -8.66797 -1.00098 -14.001 -1.00098c-17.333 0 -40 4.33301 -68 13c-116.667 38 -292 70 -526 96l-356 43c-122 8 -212 40.667 -270 98c-28.667 28 -49.334 62.333 -62.001 103c-2.66699 10.667 -4.66699 21.334 -6 32.001
c-3.33301 21.333 -5 44 -5 68c0 13.333 0.333008 27 1 41c9.33301 90 41 162 95 216c54.667 53.333 131.334 88.666 230.001 106c32 5.33301 64 8 96 8c47.333 0 94.333 -6 141 -18c78 -20 155.333 -57.333 232 -112c97.333 -68 181 -133 251 -195
c71.333 -61.333 129.333 -119.333 174 -174l24 -31c33.333 146.667 56 291 68 433c4.66699 47.333 31.334 69.666 80.001 67c38.667 -2.66699 60.667 -19.667 66 -51c0.666992 -4.66699 1 -10 1 -16v-10c-16.667 -174 -42.667 -340.333 -78 -499l-35 -160
c-7.33301 -35.333 -20.333 -54.333 -39 -57zM-564.001 1881c173.333 -23.333 314.668 -47.668 424.001 -73.001c-60.667 66 -125 130 -193 192c-69.333 62.667 -149.333 126.667 -240 192c-62.667 43.333 -124.334 73 -185.001 89c-60.667 16.667 -120.667 19.667 -180 9
c-76 -13.333 -130.667 -37.666 -164 -72.999c-34 -35.333 -47.333 -82 -40 -140c5.33301 -42 25 -75.667 59 -101s83 -42 147 -50z" />
    <glyph glyph-name="uni17BF" unicode="&#x17bf;" horiz-adv-x="913" 
d="M241 2001c-13.333 -4 -29.332 -3.66895 -47.999 0.998047c-44 12 -59.667 39.333 -47 82c-48.667 40 -103 81 -163 123c-58.667 40 -117.667 68.667 -177 86c-58.667 17.333 -118 24 -178 20c-76.667 -5.33301 -133.334 -21.666 -170.001 -48.999
c-36.667 -26 -53.667 -63.333 -51 -112c1.33301 -35.333 18 -64.333 50 -87c32 -23.333 79.333 -40.666 142 -51.999l367 -63c170 -31.333 308.667 -61 416 -89c-44 48 -91 94.667 -141 140zM650.001 1498c11.333 52 -9.66895 94.668 -63.002 128.001l-145 51
c-113.333 43.333 -285 86 -515 128l-351 66c-121.333 16.667 -208.666 53.334 -261.999 110.001c-26 27.333 -43.333 60 -52 98c-2 9.33301 -3.33301 19 -4 29c-0.666992 8.66699 -1 17.334 -1 26c0 22.667 2.33301 47 7 73c16.667 80.667 54.334 143.667 113.001 189
c58.667 44 137.667 70 237 78c80.667 6 159.334 -3 236.001 -27c76 -24.667 150 -64.334 222 -119c43.333 -33.333 83.333 -65.666 120 -97l67 211c12.667 39.333 34.667 59 66 59c10 0 20.667 -2 32 -6c48 -14.667 63.667 -47.334 47 -98.001l-90 -274
c61.333 -58 111 -112 149 -162l22 -31c45.333 130.667 80.333 260 105 388c8 42.667 36.167 60.5 84.5 53.5s68.5 -31.833 60.5 -74.5c-31.333 -156 -71.333 -305 -120 -447l-14 -41l39 -23c112 -58 168 -139.667 168 -245c0 -22.667 -2.66699 -46.334 -8 -71.001
l-416 -1950c-30.667 -146.667 -125.334 -220 -284.001 -220h-585c-102.667 0 -143.667 50 -123 150l77 358c12 61.333 43.667 92 95 92s69 -37.667 53 -113l-7 -34h1l-65 -303h555c77.333 0 122.333 31.667 135 95z" />
    <glyph glyph-name="uni17C0" unicode="&#x17c0;" horiz-adv-x="947" 
d="M420 -480c-30.667 -146.667 -125.33 -219.997 -283.997 -219.997h-585c-85.333 0 -128 34.667 -128 104c0 14 1.66699 29.333 5 46l77 358c12 61.333 43.667 92 95 92s69 -37.667 53 -113l-7 -34h1l-65 -303h555c77.333 0 122.333 31.667 135 95l294 1354l-152 78
c-129.333 63.333 -193 133.333 -191 210c2 76 32.333 147 91 213c58 66.667 115 100 171 100c56.667 0 110.667 -15.667 162 -47c50 -30 90.333 -38.667 121 -26c30.667 13.333 51.667 47.666 63 102.999c9.33301 56 -1.83398 108.333 -33.501 157s-91.834 84 -180.501 106
c-64.667 20.667 -88.334 55 -71.001 103c12.667 34 38 51 76 51c14.667 0 31 -2.33301 49 -7c128.667 -35.333 215.667 -95 261 -179c34.667 -64 52 -129.667 52 -197c0 -20.667 -1.66699 -41.334 -5 -62.001c-26.667 -122.667 -73 -199 -139 -229
c-66.667 -30.667 -152.667 -15.667 -258 45c-36 21.333 -64 32 -84 32s-45.333 -17.667 -76 -53s-46.667 -66.333 -48 -93s35 -57.334 109 -92.001l254 -131z" />
    <glyph glyph-name="uni17C1" unicode="&#x17c1;" horiz-adv-x="952" 
d="M501 445l-38.001 -179.999c-8 -38.667 -8.66699 -67.334 -2 -86.001c6 -19.333 19.667 -29 41 -29c23.333 0 54.333 20.667 93 62c38.667 42 62 82.333 70 121c4.66699 19.333 -0.666016 36.333 -15.999 51c-14.667 14.667 -38.667 27 -72 37zM501.999 0.000976562
c-83.333 0 -140.332 25 -170.999 75s-35.334 125 -14.001 225l138 645l-62 32c-127.333 62.667 -191 131.334 -191 206.001v4c2 76 32.333 147 91 213c58 66.667 115 100 171 100c56.667 0 125.667 -24.333 207 -73l137 -83c39.333 -24 59 -50 59 -78
c0 -12.667 -3.66699 -25.667 -11 -39c-24 -43.333 -61.333 -50 -112 -20l-137 84c-66.667 39.333 -110 59 -130 59s-45.333 -17.667 -76 -53s-46.667 -66.333 -48 -93s35 -57.334 109 -92.001l164 -85l-93 -436l101 -29c73.333 -22 124.666 -54 153.999 -96
c30 -42.667 38.333 -95.667 25 -159c-14 -68.667 -52.333 -137 -115 -205c-63.333 -68 -128.666 -102 -195.999 -102z" />
    <glyph glyph-name="uni17C2" unicode="&#x17c2;" horiz-adv-x="1003" 
d="M514 445l-38.001 -179.999c-8 -38.667 -8.66699 -67.334 -2 -86.001c6 -19.333 19.667 -29 41 -29c23.333 0 54.333 20.667 93 62c38.667 42 62 82.333 70 121c4.66699 19.333 -0.666016 36.333 -15.999 51c-14.667 14.667 -38.667 27 -72 37zM514.999 0.000976562
c-83.333 0 -140.332 25.001 -170.999 75.001s-35.334 125 -14.001 225l138 645l-62 32c-129.333 63.333 -193 133.333 -191 210c2 76 32.333 147 91 213c58 66.667 115 100 171 100c56.667 0 125.667 -24.333 207 -73l137 -83c56.667 -34 72.667 -73 48 -117
c-24 -43.333 -61.333 -50 -112 -20l-137 84c-66.667 39.333 -110 59 -130 59s-45.333 -17.667 -76 -53s-46.667 -66.333 -48 -93s35 -57.334 109 -92.001l164 -85l-93 -436l101 -29c73.333 -22 124.666 -54 153.999 -96c30 -42.667 38.333 -95.667 25 -159
c-14 -68.667 -52.333 -137 -115 -205c-63.333 -68 -128.666 -102 -195.999 -102zM500 1864c8.66699 49.333 -8.99902 75.667 -52.999 79c-42.667 4 -68.334 -14.667 -77.001 -56c-8.66699 -42 31 -67 119 -75zM805.001 1842c72.667 34 113.336 90.334 122.003 169.001
c8.66699 78 -6.66602 142 -45.999 192c-38 50.667 -101.667 87 -191 109c-114.667 28.667 -225.334 42 -332.001 40c-108.667 -3.33301 -213 -22.333 -313 -57c-61.333 -22 -101.333 -13 -120 27c-2 3.33301 -3.33301 6.66602 -4 10c-3.33301 10.667 -5 20.667 -5 30
c0 26.667 15.333 47.334 46 62c6 2.66699 12.333 5.33398 19 8c120 42 242.667 64.333 368 67c15.333 0.666992 31 1 47 1c109.333 0 221 -14.333 335 -43c130 -32.667 224 -88 282 -166c11.333 -16.667 21.666 -34.334 30.999 -53c25.333 -53.333 38 -114.666 38 -184
c0 -21.333 -1.33301 -43.333 -4 -66c-15.333 -123.333 -74 -212 -176 -266s-247.667 -73 -437 -57c-94.667 6.66699 -162.334 30 -203.001 70c-40.667 39.333 -55 94.333 -43 165c13.333 69.333 41 120.333 83 153c43.333 32 100.666 44.667 171.999 38
c72 -6.66699 122.667 -30 152 -70c29.333 -40.667 37 -98.334 23 -173.001l-8 -41c66 4 120.667 15.667 164 35z" />
    <glyph glyph-name="uni17C3" unicode="&#x17c3;" horiz-adv-x="1000" 
d="M520 445l-38.001 -179.999c-8 -38.667 -8.66699 -67.334 -2 -86.001c6 -19.333 19.667 -29 41 -29c23.333 0 54.333 20.667 93 62c38.667 42 62 82.333 70 121c4.66699 19.333 -0.666016 36.333 -15.999 51c-14.667 14.667 -38.667 27 -72 37zM520.999 0.000976562
c-83.333 0 -140.332 25.001 -170.999 75.001s-35.334 125 -14.001 225l138 645l-62 32c-129.333 63.333 -193 133.333 -191 210c2 76 32.333 147 91 213c58 66.667 115 100 171 100c56.667 0 125.667 -24.333 207 -73l137 -83c56.667 -34 72.667 -73 48 -117
c-24 -43.333 -61.333 -50 -112 -20l-137 84c-66.667 39.333 -110 59 -130 59s-45.333 -17.667 -76 -53s-46.667 -66.333 -48 -93s35 -57.334 109 -92.001l164 -85l-93 -436l101 -29c73.333 -22 124.666 -54 153.999 -96c30 -42.667 38.333 -95.667 25 -159
c-14 -68.667 -52.333 -137 -115 -205c-63.333 -68 -128.666 -102 -195.999 -102zM612 1973c49.333 -10 67.666 -42.666 54.999 -97.999c-8.66699 -42 -7.66699 -74.333 3 -97s31.334 -35.334 62.001 -38.001c29.333 -4 54.666 7.33301 75.999 34
c22.667 26.667 40 68.667 52 126c12.667 58 6.66699 101.333 -18 130c-25.333 28.667 -69 42.667 -131 42c-60 0.666992 -103.667 27.667 -131 81l-58 102c-38.667 68.667 -85.334 103 -140.001 103c-56 0 -134.667 -32.333 -236 -97c-59.333 -39.333 -103.333 -40 -132 -2
c-6.66699 8 -11 16.667 -13 26c-0.666992 4 -1 8.33301 -1 13c0 24.667 19.667 50 59 76c92.667 61.333 174.334 100.333 245.001 117c27.333 6.66699 53 10 77 10c116.667 0 207.334 -59.667 272.001 -179l58 -107c124.667 0.666992 212 -26 262 -80
c19.333 -22.667 33 -48.667 41 -78c5.33301 -21.333 8 -44.333 8 -69c0 -29.333 -3.66699 -61.333 -11 -96c-24 -108 -61.667 -186.333 -113 -235c-52 -49.333 -118.333 -69.333 -199 -60c-80.667 10.667 -135.667 40.667 -165 90c-30.667 50 -35.334 120.333 -14.001 211
c12.667 60.667 43.334 85.667 92.001 75z" />
    <glyph glyph-name="uni17C4" unicode="&#x17c4;" horiz-adv-x="699" 
d="M-379 1114c-4.66699 10 -7.00098 20.332 -7.00098 30.999c0 36.667 29.667 76.667 89 120l193 141c42.667 31.333 83 55 121 71c38 15.333 74 23 108 23s75.333 -12.333 124 -37c48 -25.333 103 -63 165 -113c62.667 -50 109.667 -96.667 141 -140
c30.667 -44 46 -84.667 46 -122c0 -29.333 -6 -72.666 -18 -129.999l-184 -868c-6.66699 -30 -18 -52.667 -34 -68c-15.333 -14.667 -36 -22 -62 -22s-43.333 8.66699 -52 26c-9.33301 17.333 -10.333 43.333 -3 78l185 869c11.333 56 17 96 17 120s-45.333 73 -136 147
c-91.333 73.333 -153.666 110 -186.999 110c-34 0 -83 -22.667 -147 -68l-203 -147c-80.667 -58.667 -132.667 -65.667 -156 -21z" />
    <glyph glyph-name="uni17C5" unicode="&#x17c5;" horiz-adv-x="699" 
d="M578 1172c15.333 -29.333 22.998 -57.3359 22.998 -84.0029c0 -29.333 -6 -72.666 -18 -129.999l-184 -868c-6.66699 -30 -18 -52.667 -34 -68c-15.333 -14.667 -36 -22 -62 -22s-43.333 8.66699 -52 26c-9.33301 17.333 -10.333 43.333 -3 78l185 869
c11.333 56 17 96 17 120s-45.333 73 -136 147c-91.333 73.333 -153.666 110 -186.999 110c-34 0 -83 -22.667 -147 -68l-203 -147c-80.667 -58.667 -132.667 -65.667 -156 -21c-4.66699 10 -7 20.333 -7 31c0 36.667 29.667 76.667 89 120l193 141
c42.667 31.333 83 55 121 71c38 15.333 74 23 108 23s75.333 -12.333 124 -37c48 -25.333 103 -63 165 -113l42 -35l82 386c8 38.667 -2.66699 73.334 -32 104.001c-29.333 30 -63.666 45 -102.999 45h-199c-66 0 -99 25 -99 75s33.333 75 100 75h201
c80 0 151.333 -32.333 214 -97c48 -49.333 72 -105.666 72 -168.999c0 -19.333 -2.33301 -39.333 -7 -60z" />
    <glyph glyph-name="uni17C6" unicode="&#x17c6;" 
d="M-631 2019c-20.667 20.667 -52 31 -94 31s-73.333 -10.333 -94 -31s-31 -52 -31 -94s10.333 -73.333 31 -94s52 -31 94 -31s73.333 10.333 94 31s31 52 31 94s-10.333 73.333 -31 94zM-725 2198c46 0 90.8311 -11.833 134.498 -35.5s78 -57.5 103 -101.5
s37.5 -90 37.5 -138c0 -47.333 -12.167 -92.666 -36.5 -135.999s-58.166 -77 -101.499 -101s-89 -36 -137 -36c-47.333 0 -92.833 12 -136.5 36s-77.5 57.667 -101.5 101s-36 88.666 -36 135.999c0 48 12.333 94 37 138s58.834 77.833 102.501 101.5s88.5 35.5 134.5 35.5z
" />
    <glyph glyph-name="uni17C7" unicode="&#x17c7;" horiz-adv-x="1000" 
d="M778 1321c-20.667 20.667 -51.667 31 -93 31c-42 0 -73.333 -10.333 -94 -31s-31 -52 -31 -94s10.333 -73.333 31 -94s52 -31 94 -31c41.333 0 72.333 10.333 93 31c21.333 20.667 32 52 32 94s-10.667 73.333 -32 94zM685 1500c46 0 90.8311 -11.833 134.498 -35.5
s77.834 -57.5 102.501 -101.5s37 -90 37 -138c0 -47.333 -12 -92.666 -36 -135.999s-57.833 -77 -101.5 -101s-89.167 -36 -136.5 -36s-92.833 12 -136.5 36s-77.5 57.667 -101.5 101s-36 88.666 -36 135.999c0 48 12.167 94 36.5 138s58.333 77.833 102 101.5
s88.834 35.5 135.501 35.5zM576.998 369c-20.667 20.667 -52 31 -94 31s-73.333 -10.333 -94 -31s-31 -52 -31 -94s10.333 -73.333 31 -94s52 -31 94 -31s73.333 10.333 94 31s31 52 31 94s-10.333 73.333 -31 94zM482.998 548c46 0 90.8311 -11.833 134.498 -35.5
s78 -57.5 103 -101.5s37.5 -89.667 37.5 -137c0 -48 -12.167 -93.667 -36.5 -137s-58.166 -77 -101.499 -101s-89 -36 -137 -36c-47.333 0 -92.833 12 -136.5 36s-77.5 57.667 -101.5 101s-36 89 -36 137c0 47.333 12.333 93 37 137s58.834 77.833 102.501 101.5
s88.5 35.5 134.5 35.5z" />
    <glyph glyph-name="uni17C8" unicode="&#x17c8;" horiz-adv-x="850" 
d="M586 1352c30 0 59 -7.66699 87 -23s49.833 -37 65.5 -65s23.5 -57.333 23.5 -88s-7.66699 -59.834 -23 -87.501s-37 -49.167 -65 -64.5s-57.333 -23 -88 -23c-30 0 -59 7.66699 -87 23s-49.667 36.833 -65 64.5s-23 56.834 -23 87.501s7.83301 60 23.5 88
s37.5 49.667 65.5 65s56.667 23 86 23zM384 349c29.333 0 57.833 -7.5 85.5 -22.5s49.5 -36.5 65.5 -64.5s24 -57.333 24 -88c0 -30 -7.66699 -58.833 -23 -86.5s-37 -49.167 -65 -64.5s-57 -23 -87 -23s-59 7.66699 -87 23s-49.667 36.833 -65 64.5s-23 56.5 -23 86.5
c0 30.667 7.83301 60 23.5 88s37.5 49.5 65.5 64.5s56.667 22.5 86 22.5z" />
    <glyph glyph-name="uni17C9" unicode="&#x17c9;" 
d="M-685 1772l104 489c12.667 59.333 44.334 89 95.001 89c39.333 0 59 -22.333 59 -67c0 -14 -2 -30.333 -6 -49l-106 -499c-12.667 -56.667 -44.334 -85 -95.001 -85c-51.333 0 -68.333 40.667 -51 122zM-1096 1680c-38 0 -57 22.667 -57 68c0 15.333 2 33.333 6 54
l106 509c12.667 59.333 44.334 89 95.001 89c51.333 0 69 -38.667 53 -116l-108 -519c-12.667 -56.667 -44.334 -85 -95.001 -85z" />
    <glyph glyph-name="uni17CA" unicode="&#x17ca;" 
d="M-1463 1601c-3.33301 -0.666992 -6.99805 -1 -10.998 -1c-24.667 0 -58.334 14.667 -101.001 44c-50 34.667 -75 90.667 -75 168s36.333 133.5 109 168.5s161 52.5 265 52.5c130.667 0 251 -42 361 -126c66 -49.333 107.667 -74 125 -74s62.333 21.667 135 65
c72.667 50 151 75 235 75c84.667 0 168 -39 250 -117l62 -58c40.667 -39.333 61 -79 61 -119s-18.333 -64.333 -55 -73c-8 -2 -15.333 -3 -22 -3c-24 0 -41.667 10.667 -53 32c-14 26.667 -47.333 64.667 -100 114c-52 49.333 -101.667 74 -149 74s-89.333 -12.333 -126 -37
c-108.667 -55.333 -190 -83 -244 -83c-53.333 0 -124.333 28.333 -213 85c-88.667 63.333 -176.334 95 -263.001 95c-64.667 0 -118.667 -3.66699 -162 -11s-65 -25.333 -65 -54c0 -28 17.667 -54.333 53 -79c36 -25.333 48.333 -53 37 -83
c-10.667 -30.667 -28.667 -49 -54 -55z" />
    <glyph glyph-name="uni17CB" unicode="&#x17cb;" 
d="M-866 1680c-38 0 -57 22.667 -57 68c0 15.333 2 33.333 6 54l106 509c12.667 59.333 44.334 89 95.001 89c39.333 0 59 -22.333 59 -67c0 -14 -2 -30.333 -6 -49l-108 -519c-12.667 -56.667 -44.334 -85 -95.001 -85z" />
    <glyph glyph-name="uni17CC" unicode="&#x17cc;" 
d="M-313 1681c-18 -21.333 -36.668 -31.999 -56.001 -31.999c-15.333 0 -31 6.66699 -47 20l-54 44c-71.333 60 -157 99.333 -257 118s-231.667 2.66699 -395 -48l-136 -32c-45.333 -10.667 -76.333 -9 -93 5c-8.66699 7.33301 -13 18.666 -13 33.999
c0 12 2.66699 26.667 8 44l39 116c51.333 154 137 260 257 318c120.667 58.667 229.667 89.667 327 93h23c104.667 0 218 -21.333 340 -64l99 -34c54.667 -19.333 82 -47 82 -83c0 -7.33301 -1.33301 -15 -4 -23c-13.333 -47.333 -51.333 -60.666 -114 -40l-94 32
c-126 42 -233.333 62.333 -322 61c-75.333 -1.33301 -159.666 -24 -252.999 -68c-93.333 -44.667 -156.333 -115 -189 -211c187.333 54.667 343 70.334 467 47.001c124.667 -22.667 228.334 -68.334 311.001 -137.001l61 -51c41.333 -34.667 45.666 -71 12.999 -109z" />
    <glyph glyph-name="uni17CD" unicode="&#x17cd;" 
d="M-782 1650c-126.667 0 -246.668 35 -360.001 105c-82.667 49.333 -134.667 104 -156 164c-6.66699 20 -10 40.667 -10 62c0 42 13.667 86.667 41 134c44.667 66.667 108 100.334 190 101c81.333 0 181 -33 299 -99c40 -23.333 79.333 -3.66602 118 59l68 108
c44.667 70.667 90.667 124 138 160c47.333 35.333 96 54 146 56h8c48 0 94 -11.333 138 -34c46 -24 90.667 -60.333 134 -109c18 -20 27 -39.333 27 -58s-9 -37 -27 -55c-35.333 -35.333 -69.333 -35 -102 1c-61.333 70.667 -117.333 105.334 -168 104.001
c-51.333 -1.33301 -103.666 -44.333 -156.999 -129l-76 -120c-44.667 -72 -93.667 -117.667 -147 -137s-111.333 -12.333 -174 21c-77.333 43.333 -139.666 69.666 -186.999 78.999c-48 10 -81 2.66699 -99 -22c-14 -28.667 -13 -56.667 3 -84s47 -54 93 -80
c93.333 -51.333 180 -77 260 -77c66 0 99.167 -25 99.5 -75s-32.834 -75 -99.501 -75z" />
    <glyph glyph-name="uni17CE" unicode="&#x17ce;" 
d="M-736 1953l-40 -188c-12.667 -56.667 -44.334 -85 -95.001 -85c-51.333 0 -68.333 40.667 -51 122l39 184l-151 35c-56.667 13.333 -85 39 -85 77c0 6 0.666992 12.667 2 20c11.333 48.667 51 65 119 49l146 -33l36 177c12.667 59.333 44.334 89 95.001 89
c51.333 0 69 -38.667 53 -116l-38 -184l139 -32c57.333 -13.333 86 -38.666 86 -75.999c0 -6 -1 -12.667 -3 -20c-11.333 -48.667 -51 -65.334 -119 -50.001z" />
    <glyph glyph-name="uni17CF" unicode="&#x17cf;" 
d="M-761 1639c-44 0 -113.999 34.333 -209.999 103c-57.333 40.667 -98 47.334 -122 20.001c-72 -82 -140.667 -123 -206 -123c-32.667 0 -54 14 -64 42c-4.66699 13.333 -7 29.666 -7 48.999c0 22 3 47.667 9 77l52 245c19.333 90.667 59.333 151.667 120 183
c60 30.667 141 32 243 4l174 -48c53.333 -13.333 100 9.33398 140 68l18 25c60 85.333 106 138.666 138 160c47.333 35.333 96 54 146 56h8c48 0 94 -11.333 138 -34c46 -24 90.667 -60.333 134 -109c18 -20 27 -39.333 27 -58s-9 -37 -27 -55
c-35.333 -35.333 -69.333 -35 -102 1c-61.333 70.667 -117.333 105.334 -168 104c-43.333 0 -95.666 -43 -156.999 -129l-28 -47c-42.667 -58.667 -91.334 -98 -146.001 -118c-54.667 -20.667 -115.334 -21.667 -182.001 -3l-160 46c-48 13.333 -86.333 13.333 -115 0
c-28 -13.333 -46 -39.333 -54 -78l-30 -140c36.667 42.667 80.334 62.667 131.001 60c51.333 -2 109.333 -26.333 174 -73l65 -47c5.33301 46 33.333 69 84 69s72 -31.333 64 -94l-4 -31c-10.667 -83.333 -38.334 -125 -83.001 -125z" />
    <glyph glyph-name="uni17D0" unicode="&#x17d0;" 
d="M-700 2100c50 0 87.668 -10.3311 113.001 -30.998c24.667 -20.667 37 -52 37 -94c0 -50 -25 -75 -75 -75s-75 16.667 -75 50c-64.667 0 -97 -16.667 -97 -50s16.667 -58.333 50 -75c32.667 -16.667 81.667 -25 147 -25c183.333 0 321 25 413 75
c91.333 50 137 118.333 137 205c0 68.667 -18.333 126 -55 172c-37.333 46 -93 77.333 -167 94c-57.333 12.667 -80 43 -68 91c10 37.333 35 56 75 56c10.667 0 22.667 -1.33301 36 -4c110 -24.667 192.333 -72 247 -142c54.667 -69.333 82 -158.333 82 -267
c0 -136.667 -58.333 -242.334 -175 -317.001c-116.667 -75.333 -291.667 -113 -525 -113c-116.667 0 -204 21 -262 63c-58.667 41.333 -88 103.666 -88 186.999c0 66.667 21 116.667 63 150c41.333 33.333 103.666 50 186.999 50z" />
    <glyph glyph-name="uni17D1" unicode="&#x17d1;" 
d="M-201 1725c0 -50 -33 -75 -99 -75h-990c-73.333 0 -110 25 -110 75s36.667 75 110 75h990c66 0 99 -25 99 -75z" />
    <glyph glyph-name="uni17D2" unicode="&#x17d2;" 
d="M-450 -450h-150v-150h-100v150h-150v100h150v150h100v-150h150v-100z" />
    <glyph glyph-name="uni17D3" unicode="&#x17d3;" 
d="M-925 1750c0 -33.333 12.333 -58.333 37 -75c25.333 -16.667 63 -25 113 -25s87.667 8.33301 113 25c24.667 16.667 37 41.667 37 75s-12.333 58.333 -37 75c-25.333 16.667 -63 25 -113 25s-87.667 -8.33301 -113 -25c-24.667 -16.667 -37 -41.667 -37 -75zM-525 1750
c0 -66.667 -21 -116.667 -63 -150c-41.333 -33.333 -103.666 -50 -186.999 -50s-145.666 16.667 -186.999 50c-42 33.333 -63 83.333 -63 150s21 116.667 63 150c41.333 33.333 103.666 50 186.999 50s145.666 -16.667 186.999 -50c42 -33.333 63 -83.333 63 -150z" />
    <glyph glyph-name="uni17D4" unicode="&#x17d4;" horiz-adv-x="1400" 
d="M700 1425c0 -50 -33.333 -75.001 -100 -75.001c-50 0 -87.667 -12.333 -113 -37c-24.667 -25.333 -37 -63 -37 -113s16.667 -87.667 50 -113c33.333 -24.667 83.333 -37 150 -37c133.333 0 249.333 32.333 348 97c98 64 159 151.333 183 262
c12.667 60.667 44.334 91 95.001 91c39.333 0 59 -21.333 59 -64c0 -13.333 -2 -28.666 -6 -45.999l-276 -1304c-12.667 -58 -44.334 -87 -95.001 -87c-51.333 0 -69 38.333 -53 115l194 914c-120 -85.333 -269.667 -128 -449 -128c-130 0 -220.667 25 -272 75
c-52 50 -78 125 -78 225s25 175 75 225s125 75 225 75c66.667 0 100 -25 100 -75z" />
    <glyph glyph-name="uni17D5" unicode="&#x17d5;" horiz-adv-x="1850" 
d="M700 1425c0 -50 -33.333 -75 -100 -75c-50 0 -87.667 -12.333 -113 -37c-24.667 -25.333 -37 -63 -37 -113s16.667 -87.667 50 -113c33.333 -24.667 83.333 -37 150 -37c133.333 0 249.333 32.333 348 97c98 64 159 151.333 183 262c12.667 60.667 44.334 91 95.001 91
c51.333 0 69 -36.667 53 -110l-276 -1304c-12.667 -58 -44.334 -87 -95.001 -87c-51.333 0 -69 38.333 -53 115l194 914c-120 -85.333 -269.667 -128 -449 -128c-130 0 -220.667 25 -272 75c-52 50 -78 125 -78 225s25 175 75 225s125 75 225 75c66.667 0 100 -25 100 -75z
M1601 1409c12.667 60.667 44.334 90.999 95.001 90.999c39.333 0 59 -21.333 59 -64c0 -13.333 -2 -28.666 -6 -45.999l-276 -1304c-12.667 -58 -44.334 -87 -95.001 -87c-51.333 0 -69 38.333 -53 115z" />
    <glyph glyph-name="uni17D6" unicode="&#x17d6;" horiz-adv-x="1057" 
d="M778 1321c-20.667 20.667 -51.667 31 -93 31c-42 0 -73.333 -10.333 -94 -31s-31 -52 -31 -94s10.333 -73.333 31 -94s52 -31 94 -31c41.333 0 72.333 10.333 93 31c21.333 20.667 32 52 32 94s-10.667 73.333 -32 94zM685 1500c46 0 90.8311 -11.833 134.498 -35.5
s77.834 -57.5 102.501 -101.5s37 -90 37 -138c0 -47.333 -12 -92.666 -36 -135.999s-57.833 -77 -101.5 -101s-89.167 -36 -136.5 -36s-92.833 12 -136.5 36s-77.5 57.667 -101.5 101s-36 88.666 -36 135.999c0 48 12.167 94 36.5 138s58.333 77.833 102 101.5
s88.834 35.5 135.501 35.5zM576.998 369c-20.667 20.667 -52 31 -94 31s-73.333 -10.333 -94 -31s-31 -52 -31 -94s10.333 -73.333 31 -94s52 -31 94 -31s73.333 10.333 94 31s31 52 31 94s-10.333 73.333 -31 94zM482.998 548c46 0 90.8311 -11.833 134.498 -35.5
s78 -57.5 103 -101.5s37.5 -89.667 37.5 -137c0 -48 -12.167 -93.667 -36.5 -137s-58.166 -77 -101.499 -101s-89 -36 -137 -36c-47.333 0 -92.833 12 -136.5 36s-77.5 57.667 -101.5 101s-36 89 -36 137c0 47.333 12.333 93 37 137s58.834 77.833 102.501 101.5
s88.5 35.5 134.5 35.5zM1062 746c0 -50 -33 -75 -99 -75h-750c-73.333 0 -110 25 -110 75s36.667 75 110 75h750c66 0 99 -25 99 -75z" />
    <glyph glyph-name="uni17D7" unicode="&#x17d7;" horiz-adv-x="1550" 
d="M440 150h320.001c97.333 0 174.333 16.667 231 50c56 33.333 91.333 83.666 106 150.999l200 953c-181.333 -136 -309.666 -204 -384.999 -204c-74.667 0 -152.334 41.667 -233.001 125s-140.334 125 -179.001 125c-39.333 0 -68 -41.667 -86 -125
c-17.333 -83.333 1 -125 55 -125s81 -25 81 -75s-24.333 -75 -73 -75c-91.333 0 -155 22.667 -191 68c-23.333 30 -35 69.667 -35 119c0 26.667 3.33301 56 10 88c19.333 91.333 49 160 89 206s90.333 69 151 69c74 0 151.333 -41.667 232 -125
c80 -83.333 142.333 -125 187 -125s160.667 68 348 204c32 30.667 81.333 46 148 46c39.333 0 59 -21.333 59 -64c0 -13.333 -2 -28.666 -6 -45.999l-227 -1078c-22 -104 -73.333 -182 -154 -234c-80 -52 -189.333 -78 -328 -78h-320c-66.667 0 -100 25 -100 75
s33.333 75 100 75z" />
    <glyph glyph-name="uni17D8" unicode="&#x17d8;" horiz-adv-x="5211" 
d="M700 1425c0 -50 -33.333 -75.001 -100 -75.001c-50 0 -87.667 -12.333 -113 -37c-24.667 -25.333 -37 -63 -37 -113s16.667 -87.667 50 -113c33.333 -24.667 83.333 -37 150 -37c133.333 0 249.333 32.333 348 97c98 64 159 151.333 183 262
c12.667 60.667 44.334 91 95.001 91c39.333 0 59 -21.333 59 -64c0 -13.333 -2 -28.666 -6 -45.999l-276 -1304c-12.667 -58 -44.334 -87 -95.001 -87c-51.333 0 -69 38.333 -53 115l194 914c-120 -85.333 -269.667 -128 -449 -128c-130 0 -220.667 25 -272 75
c-52 50 -78 125 -78 225s25 175 75 225s125 75 225 75c66.667 0 100 -25 100 -75zM1799 444.999l-38.001 -179.999c-8 -38.667 -8.66699 -67.334 -2 -86.001c6 -19.333 19.667 -29 41 -29c23.333 0 54.333 20.667 93 62c38.667 42 62 82.333 70 121
c4.66699 19.333 -0.666016 36.333 -15.999 51c-14.667 14.667 -38.667 27 -72 37zM1800 0c-83.333 0 -140.333 24.998 -171 74.998c-18 29.333 -27 67.666 -27 114.999c0 32 4.33301 68.667 13 110l176 825c19.333 95.333 52.666 174.333 99.999 237
c48 62.667 111.333 103.334 190 122.001c44 10.667 87 16 129 16c32.667 0 64.667 -3.33301 96 -10c70.667 -14 140.334 -35 209 -63c68.667 -27.333 137.334 -69.333 206 -126c69.333 -56 111.666 -116.333 127 -181c16 -64 15.333 -138 -2 -222l-159 -748h468
c58 0 112.667 23 164 69c52 46 85.667 104 101 174l86 406l-152 78c-129.333 63.333 -193 133.333 -191 210c2 76 32.333 147 91 213c58 66.667 115 100 171 100c56.667 0 125.667 -24.333 207 -73l137 -83c39.333 -24 59 -50 59 -78c0 -12.667 -3.66699 -25.667 -11 -39
c-24 -43.333 -61.333 -50 -112 -20l-137 84c-66.667 39.333 -110 59 -130 59s-45.333 -17.667 -76 -53s-46.667 -66.333 -48 -93s35 -57.334 109 -92.001l254 -131l-110 -517c-22 -104 -71.667 -190.667 -149 -260c-78 -69.333 -167 -104 -267 -104h-498
c-50.667 0 -86 12.333 -106 37c-20 25.333 -24.667 63 -14 113l165 779c12.667 60.667 14.334 110.334 5.00098 149.001c-9.33301 38 -39 77 -89 117s-102.667 71.333 -158 94s-111 39.667 -167 51c-56 10.667 -109.667 10.334 -161 -0.999023s-92 -36.666 -122 -75.999
c-30 -40 -52 -93 -66 -159l-109 -513l101 -29c73.333 -22 124.666 -54 153.999 -96c30 -42.667 38.333 -95.667 25 -159c-14 -68.667 -52.333 -137 -115 -205c-63.333 -68 -128.666 -102 -195.999 -102zM4528 1425c0 -50 -33.333 -75.001 -99.999 -75.001
c-50 0 -87.666 -12.333 -113 -37c-24.666 -25.333 -37 -63 -37 -113s16.666 -87.667 50 -113c33.334 -24.667 83.334 -37 150 -37c133.334 0 249.334 32.333 348 97c98 64 159 151.333 183 262c12.666 60.667 44.333 91 95 91c39.334 0 59 -21.333 59 -64
c0 -13.333 -2 -28.666 -6 -45.999l-276 -1304c-12.666 -58 -44.333 -87 -95 -87c-51.334 0 -69 38.333 -53 115l194 914c-120 -85.333 -269.666 -128 -449 -128c-130 0 -220.666 25 -272 75c-52 50 -78 125 -78 225s25 175 75 225s125 75 225 75
c66.666 0 99.999 -25 99.999 -75z" />
    <glyph glyph-name="uni17D9" unicode="&#x17d9;" horiz-adv-x="1550" 
d="M775 0c-158 0 -276.667 58.333 -356 175s-119 291.667 -119 525s39.667 408.333 119 525s198 175 356 175s276.667 -58.333 356 -175s119 -291.667 119 -525s-39.667 -408.333 -119 -525s-198 -175 -356 -175zM775 1283c-118.667 0 -207.667 -48.333 -267 -145
c-59.333 -97.333 -89 -243.333 -89 -438s29.667 -340.667 89 -438c59.333 -96.667 148.333 -145 267 -145s207.667 48.333 267 145c59.333 97.333 89 243.333 89 438s-29.667 340.667 -89 438c-59.333 96.667 -148.333 145 -267 145zM775 233
c-79.333 0 -138.666 39 -177.999 117s-59 194.667 -59 350s19.667 272 59 350s98.666 117 177.999 117s138.666 -39 177.999 -117s59 -194.667 59 -350s-19.667 -272 -59 -350s-98.666 -117 -177.999 -117zM775 1050c-39.333 0 -69 -29 -89 -87
c-20 -58.667 -30 -146.334 -30 -263.001s10 -204 30 -262c20 -58.667 49.667 -88 89 -88s69 29.333 89 88c20 58 30 145.333 30 262s-10 204.334 -30 263.001c-20 58 -49.667 87 -89 87z" />
    <glyph glyph-name="uni17DA" unicode="&#x17da;" horiz-adv-x="3501" 
d="M2856 507c6.66699 -10 15 -10.667 25 -2c3.33301 2.66699 0 13.667 -10 33c-14 -14.667 -19 -25 -15 -31zM1597 1131c-35.333 35.333 -69 31.667 -101 -11c-16 -21.333 -4.33301 -62.333 35 -123c3.33301 -6 7.33301 -12 12 -18c54 83.333 72 134 54 152zM1781 347.001
c23.333 -27.333 49.332 -29.667 77.999 -7c14 11.333 1.33301 44.333 -38 99c-37.333 -48 -50.666 -78.667 -39.999 -92zM2199 1094c-17.333 23.333 -38.334 26 -63.001 8c-12 -8.66699 -3.66699 -36.667 25 -84c32.667 40.667 45.334 66 38.001 76zM2368 437
c8.66699 -10 19.334 -11.001 32 -3.00098c4 2.66699 0 14 -12 34c-16.667 -17.333 -23.334 -27.666 -20 -30.999zM2756 1011c-8 8 -18 6.66504 -30 -4.00195c-4 -3.33301 -2 -12.666 6 -27.999c18.667 18.667 26.667 29.334 24 32.001zM2906 737.997
c27.333 12 56.335 21.9941 87.002 29.9941c76.667 21.333 164 32 262 32c63.333 0 95 -25 95 -75s-33 -75 -99 -75h-120c-57.333 0 -108 -11 -152 -33c13.333 -27.333 23 -52.666 29 -75.999c17.333 -67.333 4 -117.666 -40 -150.999s-85.333 -47.333 -124 -42
c-39.333 4.66699 -76 28.334 -110 71.001s-46 85.334 -36 128.001c10 40 39.667 80 89 120l-32 46c-12 14.667 -23 29 -33 43c-30.667 -28 -64.667 -57 -102 -87l-133 -110c13.333 -25.333 24 -49 32 -71c28 -80 19.333 -137 -26 -171s-88 -48 -128 -42
c-40.667 6 -78.334 31.333 -113 76c-34.667 44.667 -30.667 103.667 12 177c11.333 18.667 25 38.334 41 59.001l-86 113l-69 86c-32.667 -37.333 -70 -77 -112 -119l-129 -128c29.333 -43.333 51.666 -83 66.999 -119c37.333 -88 29.666 -152 -23.001 -192
s-102.667 -58 -150 -54s-92 30.667 -134 80s-41.667 117.333 1 204c14.667 30 34 62 58 96l-99 108l-73 80c-44.667 -64 -98 -133.333 -160 -208c-148.667 -178 -288 -311.333 -418 -400c-130.667 -89.333 -251.667 -134 -363 -134c-138 0 -241.667 62.333 -311 187
c-69.333 125.333 -104 313 -104 563s39.667 437.333 119 562c79.333 125.333 198 188 356 188c158.667 0 277.667 -33 357 -99c78.667 -66 118 -165 118 -297c0 -135.333 -28.667 -244 -86 -326c-58 -82.667 -144.667 -138.667 -260 -168c-56 -16 -90.667 0 -104 48
c-13.333 48.667 8.33398 80.667 65.001 96c78 20 136.667 58.667 176 116s59 133 59 227c0 84 -27 147 -81 189c-54.667 42.667 -136 64 -244 64s-189 -50 -243 -150c-54.667 -100 -81.667 -250 -81 -450c0 -200 22 -350 66 -450s110.333 -150 199 -150
c88 0 186 38.667 294 116s226.333 193.333 355 348c80 96 145.667 179 197 249c-36 51.333 -62.667 98.666 -80 141.999c-38 95.333 -32.333 171.333 17 228s98.666 85.334 147.999 86.001c48.667 0.666992 97.667 -27 147 -83s49 -142.333 -1 -259
c-15.333 -35.333 -35 -73.333 -59 -114c28 -32.667 59.667 -67.667 95 -105c31.333 -33.333 60 -65.333 86 -96c32.667 36.667 69.667 75.334 111 116.001c54 50.667 100 95.667 138 135c-21.333 39.333 -39.333 81 -54 125c-29.333 88 -18.333 151.333 33 190
s99 55.334 143 50.001c44.667 -5.33301 86 -32.333 124 -81s34.333 -117 -11 -205c-14.667 -28 -33.334 -58.333 -56 -91l81 -103c29.333 -36.667 55.666 -71.667 79 -105c30.667 30 65.667 61.333 105 94l125 104c-15.333 30 -26.666 57.667 -34 83
c-20 68.667 -7.66699 119.667 37 153c44 33.333 86 47 126 41c40 -5.33301 78 -30.333 114 -75c35.333 -44.667 31.666 -102.334 -11 -173.001c-12.667 -20.667 -28.667 -42.667 -48 -66l47 -60c15.333 -19.333 29.333 -38 42 -56z" />
    <glyph glyph-name="uni17DB" unicode="&#x17db;" horiz-adv-x="950" 
d="M615 794l22 104.999l-152 78c-129.333 63.333 -193 133.333 -191 210c2 76 32.333 147 91 213c58 66.667 115 100 171 100c56.667 0 125.667 -24.333 207 -73l137 -83c56.667 -34 72.667 -73 48 -117c-24 -43.333 -61.333 -50 -112 -20l-137 84
c-66.667 39.333 -110 59 -130 59s-45.333 -17.667 -76 -53s-46.667 -66.333 -48 -93s35 -57.334 109 -92.001l254 -131l-43 -204l175 -20c48.667 -4.66699 73 -28 73 -70c0 -4 -0.333008 -8.33301 -1 -13c-6 -50 -40 -71.333 -102 -64l-177 20l-86 -406
c-32 -149.333 -114 -224 -246 -224c-66.667 0 -125.167 17.333 -175.5 52s-75.5 100.334 -75.5 197.001c0 67.333 4 117.333 12 150c10.667 50.667 31.334 88.334 62.001 113.001c30.667 25.333 71.667 38 123 38c35.333 0 52.666 -25 51.999 -75c0 -50 -16.667 -75 -50 -75
c-22.667 0 -36.334 -12.333 -41.001 -37c-5.33301 -24.667 -8 -61.334 -8 -110.001c0 -48 10.5 -77.167 31.5 -87.5s44.167 -15.5 69.5 -15.5c51.333 0 84 33.333 98 100l84 397l-285 32c-33.333 3.33301 -57.666 12.333 -72.999 27c-14.667 14 -20.667 33.333 -18 58
c2.66699 25.333 13 43 31 53c18 10.667 43.333 14.334 76 11.001z" />
    <glyph glyph-name="uni17DC" unicode="&#x17dc;" horiz-adv-x="1536" 
d="M256 0v1280h1024v-1280h-1024zM288 32h960v1216h-960v-1216z" />
    <glyph glyph-name="uni17DD" unicode="&#x17dd;" horiz-adv-x="1536" 
d="M256 0v1280h1024v-1280h-1024zM288 32h960v1216h-960v-1216z" />
    <glyph glyph-name="uni17E0" unicode="&#x17e0;" horiz-adv-x="1500" 
d="M927 1500c134 -0.666992 261.666 -68.667 382.999 -204c83.333 -94 125 -217.333 125 -370c0 -68.667 -8.33301 -143 -25 -223c-54.667 -259.333 -127.667 -441.333 -219 -546s-218.333 -157 -381 -157h-4c-161.333 0 -297.666 45.667 -408.999 137
c-57.333 46.667 -86 150.667 -86 312c0 156 26.667 365.667 80 629c50.667 198.667 119.167 318.667 205.5 360s196.5 62 330.5 62zM537.999 1056c-96.667 -482.667 -107.334 -754.332 -32.001 -814.999c74.667 -60.667 173 -91.334 295 -92.001c122 0 217 39 285 117
c68.667 78 126 226 172 444c46.667 218 26.334 379.333 -60.999 484s-188 157 -302 157c-80.667 0 -151 -12.667 -211 -38s-108.667 -111 -146 -257z" />
    <glyph glyph-name="uni17E1" unicode="&#x17e1;" horiz-adv-x="1499" 
d="M715 1110c38.667 32.667 72.667 30.334 102 -6.99902c78.667 -104.667 82 -197.667 10 -279c-71.333 -81.333 -155.666 -122.333 -252.999 -123c-97.333 0 -177 58.333 -239 175c-46.667 88 -70 170.333 -70 247c0 24.667 2.33301 49 7 73
c20 97.333 79.667 172.333 179 225s219.666 79 360.999 79s280.333 -52.667 417 -158c116 -89.333 175.333 -195 178 -317v-6c0 -123.333 -22.333 -252.333 -67 -387c-64 -173.333 -206.333 -322 -427 -446c-220 -124 -357 -186 -411 -186c-53.333 0 -80 25 -80 75
s19.667 75 59 75s157 54.667 353 164s320 236 372 380c33.333 107.333 49 208.333 47 303c-3.33301 91.333 -47.333 169.333 -132 234c-105.333 80.667 -211.333 121 -318 121s-194.667 -18.667 -264 -56c-69.333 -36.667 -109.666 -83.334 -120.999 -140.001
c-11.333 -56 2 -120.667 40 -194c38 -74 79.333 -111 124 -111c45.333 0 82.333 16.333 111 49c29.333 32.667 30.666 67.667 3.99902 105s-20.667 72.333 18 105z" />
    <glyph glyph-name="uni17E2" unicode="&#x17e2;" horiz-adv-x="2308" 
d="M961 713c-48.667 -7.33301 -76.666 18.002 -83.999 76.002c-11.333 104 -3 182 25 234s75.667 78 143 78c66.667 0 133.334 -20 200.001 -60c66 -40.667 131.333 -101.334 196 -182.001c55.333 80 108.333 140.333 159 181c50.667 40 99 60 145 60
s90.667 -17.333 134 -52c42.667 -34 84.334 -85.333 125.001 -154c40 -68.667 65.333 -134.667 76 -198c4.66699 -24 7 -48 7 -72c0 -36.667 -5.66699 -72.667 -17 -108l-54 -172c-36 -114.667 -112.333 -200.334 -229 -257.001
c-117.333 -57.333 -274.666 -86.333 -471.999 -87c-158 0 -296.667 12 -416 36c-119.333 23.333 -206.333 58.333 -261 105c-54.667 47.333 -94.334 100.333 -119.001 159s-34.334 123.334 -29.001 194.001c16 211.333 17.333 388 4 530c-13.333 142.667 -41 251 -83 325
s-104.667 131.333 -188 172c-84 40.667 -188.667 65 -314 73c-72.667 5.33301 -109 30.666 -109 75.999v7c4.66699 46.667 39.667 70 105 70h10c155.333 -11.333 285 -42.666 389 -93.999s181.667 -123.333 233 -216c52 -92 86.667 -217.667 104 -377
c18 -160 19 -353.333 3 -580c-6.66699 -94 27.666 -172.667 102.999 -236c37.333 -31.333 104.666 -55 201.999 -71c96.667 -16 223.334 -24 380.001 -24c156.667 -0.666992 280.667 20.666 372 63.999c92 43.333 151 108.333 177 195l40 130
c26.667 86.667 13 176.667 -41 270c-53.333 94 -98 141 -134 141c-36.667 0 -99.334 -63 -188.001 -189c-30 -41.333 -67.333 -62 -112 -62s-83.667 21 -117 63c-100 126 -177.333 189 -232 189c-27.333 0 -46.666 -12.667 -57.999 -38
c-10.667 -25.333 -13.334 -63.333 -8.00098 -114c4 -48.667 -18.333 -77 -67 -85z" />
    <glyph glyph-name="uni17E3" unicode="&#x17e3;" horiz-adv-x="2661" 
d="M628 540c22.667 45.333 60.665 52.6641 113.998 21.9971c73.333 -38 122 -85 146 -141c24 -56.667 23.333 -122.334 -2 -197.001c-24.667 -74.667 -57.667 -130.667 -99 -168c-40.667 -37.333 -90 -56 -148 -56c-44 0 -89 13.333 -135 40
c-45.333 27.333 -91.666 68.333 -138.999 123s-75.333 132 -84 232c-1.33301 20.667 -2 42.334 -2 65.001c0 86 12 186.333 36 301c30.667 144.667 69 266 115 364c46 97.333 99.667 171.666 161 222.999c61.333 50.667 125.333 88.667 192 114s136.334 38 209.001 38
c79.333 0 161.666 -34.667 246.999 -104c85.333 -68.667 173.333 -172 264 -310c118.667 138.667 226.334 242.334 323.001 311.001c96.667 69.333 182.334 104 257.001 104s141 -19 199 -57c58.667 -37.333 109 -93.666 151 -168.999s68 -157 78 -245
c3.33301 -29.333 5 -59.333 5 -90c0 -60.667 -7 -124.667 -21 -192l-139 -663c-14 -56.667 -46.667 -85 -98 -85c-50.667 0 -67.667 36.333 -51 109l139 661c18 85.333 24 163 18 233c-6 69.333 -24 131 -54 185c-30.667 54 -64.667 94.333 -102 121
c-37.333 27.333 -78.333 41 -123 41c-51.333 0 -115 -29.667 -191 -89c-76.667 -59.333 -165.667 -148.333 -267 -267c-29.333 -34 -53.333 -101 -72 -201l-154 -703c-14 -60 -46.333 -90 -97 -90c-51.333 0 -68 36.667 -50 110l140 698c18.667 84 11 152 -23 204
c-74 112.667 -142.667 197 -206 253c-64 56.667 -122.667 85 -176 85c-54 0 -106.333 -10 -157 -30c-50 -19.333 -99 -48.666 -147 -87.999c-47.333 -39.333 -89.333 -99.666 -126 -180.999c-36.667 -82 -68.334 -184.667 -95.001 -308c-26 -124 -37.667 -226.333 -35 -307
c3.33301 -80 20.666 -138.333 51.999 -175c64 -74 117 -111 159 -111c42.667 0 76.334 37.333 101.001 112c12 37.333 13.333 69.333 4 96c-9.33301 27.333 -29.333 49 -60 65c-61.333 32.667 -80.333 71.667 -57 117z" />
    <glyph glyph-name="uni17E4" unicode="&#x17e4;" horiz-adv-x="1756" 
d="M1395 802c-18.667 31.333 -42 47.001 -70 47.001s-56.667 -11.333 -86 -34c-30 -22.667 -45 -61 -45 -115c0 -34.667 48.667 -95.334 146 -182.001c118.667 -101.333 164.334 -213 137.001 -335c-26.667 -122.667 -138.334 -184 -335.001 -184l-200 1
c-279.333 0 -476.666 43 -591.999 129c-116 86.667 -150 237 -102 451c30 160.667 88.333 310 175 448c87.333 138 133.333 297 138 477c5.33301 72.667 -102 169.667 -322 291c-49.333 24 -74 52 -74 84c0 10.667 2.66699 21.667 8 33c13.333 28 34 42 62 42
c18 0 39.333 -6 64 -18c286.667 -154.667 425 -302.667 415 -444c-10 -207.333 -64 -390.333 -162 -549c-74 -112 -127.667 -243.667 -161 -395s-12 -255.666 64 -312.999c76.667 -57.333 240.667 -86 492 -86h200c113.333 0 174.666 21 183.999 63
c12.667 65.333 -12.333 126.333 -75 183c-140.667 121.333 -211 223.666 -211 306.999c0 103.333 31 178.666 93 225.999c62.667 47.333 124.667 71 186 71c87.333 0 156 -43.667 206 -131c12 -19.333 18 -36.666 18 -51.999c0 -22 -13 -40 -39 -54
c-44.667 -24 -82.667 -11 -114 39z" />
    <glyph glyph-name="uni17E5" unicode="&#x17e5;" horiz-adv-x="1756" 
d="M689 1300c8.66699 18.667 13 34 13 46c0 102 -41.667 153.333 -125 154c-84.667 0 -127 -33.333 -127 -100c0 -66 42.333 -99.333 127 -100h112zM843 1300c111.333 3.33301 204.33 28.3359 278.997 75.0029c79.333 49.333 134 165.666 164 348.999
c29.333 184 117.333 276 264 276c66.667 0 100 -25 100 -75s-33.667 -75 -101 -75c-61.333 0 -102 -52.333 -122 -157c-33.333 -223.333 -105.666 -369.666 -216.999 -438.999s-245 -104 -401 -104h-39c-2 -2 -3.66699 -4.33301 -5 -7
c-45.333 -68.667 -108.666 -148.667 -189.999 -240c-72 -84.667 -124.667 -202.667 -158 -354s-12 -255.666 64 -312.999c76.667 -57.333 240.667 -86 492 -86h200c113.333 0 174.666 21 183.999 63c12.667 65.333 -12.333 126.333 -75 183
c-140.667 121.333 -211 223.666 -211 306.999s31 148.666 93 195.999c62.667 47.333 124.667 71 186 71c87.333 0 156 -43.667 206 -131c30 -47.333 22.833 -82.833 -21.5 -106.5s-82.166 -10.5 -113.499 39.5c-18.667 31.333 -42 47 -70 47s-56.667 -11.333 -86 -34
c-30 -22.667 -45 -51 -45 -85c0 -34.667 48.667 -95.334 146 -182.001c118.667 -101.333 164.334 -213 137.001 -335c-26.667 -122.667 -138.334 -184 -335.001 -184l-200 1c-279.333 0 -476.666 43 -591.999 129c-82 61.333 -123 154.333 -123 279c0 52 7 109.333 21 172
c30 173.333 93.333 315 190 425c49.333 54 91 102.333 125 145h-13c-184.667 -0.666992 -277 82.666 -277 249.999c0 166.667 92.667 250 278 250c182 0 273 -100.667 273 -302c0 -14.667 -2.33301 -30.667 -7 -48z" />
    <glyph glyph-name="uni17E6" unicode="&#x17e6;" horiz-adv-x="1550" 
d="M462 501c-41.333 -32 -32.0029 -98.333 27.9971 -199c60.667 -101.333 159.334 -152 296.001 -152s248.334 102 335.001 306c86 204 128.667 362.667 128 476c0 113.333 -21.667 178 -65 194c-44 16 -101.333 24.333 -172 25c-71.333 0 -156.333 -8.33301 -255 -25
s-176.667 -25.334 -234 -26.001c-58 0 -117 44.333 -177 133c-60 89.333 -110.333 214.333 -151 375c-40.667 161.333 -105.334 242.333 -194.001 243c-66.667 0 -100.334 25 -101.001 75c0 49.333 34 74 102 74c164.667 0 271.334 -96.333 320.001 -289
s93.334 -317.667 134.001 -375s73 -86 97 -86s86.333 8.33301 187 25s194.334 24.667 281.001 24c87.333 0 172.666 -15.667 255.999 -47c82 -31.333 123 -125.666 123 -282.999v-4c-1.33301 -159.333 -53.333 -360 -156 -602s-253 -363 -451 -363
c-198.667 0.666992 -347 83 -445 247c-97.333 164 -95 284.333 7 361c45.333 34.667 83.833 32.5 115.5 -6.5s28.834 -72.5 -8.49902 -100.5z" />
    <glyph glyph-name="uni17E7" unicode="&#x17e7;" horiz-adv-x="1768" 
d="M416 445l-38.001 -179.999c-8 -38.667 -8.66699 -67.334 -2 -86.001c6 -19.333 19.667 -29 41 -29c23.333 0 54.333 20.667 93 62c38.667 42 62 82.333 70 121c4.66699 19.333 -0.666016 36.333 -15.999 51c-14.667 14.667 -38.667 27 -72 37zM1485 806.001
c2 14 3.00195 25.6689 3.00195 35.002c0 16.667 -2.66699 42 -8 76c-5.33301 33.333 -20.333 70.666 -45 111.999c-24.667 42 -50.334 72.667 -77.001 92c-26 19.333 -51.333 29 -76 29l-151 -182c-33.333 -37.333 -65.666 -56 -96.999 -56s-65.666 23.333 -102.999 70
l-100 125c-54.667 62 -101.334 93 -140.001 93c-35.333 -18.667 -68 -47.667 -98 -87c-30 -40 -52 -93 -66 -159l-79 -363l101 -29c73.333 -22 124.666 -54 153.999 -96c30 -42.667 38.333 -95.667 25 -159c-14 -68.667 -52.333 -137 -115 -205
c-63.333 -68 -128.666 -102 -195.999 -102c-83.333 0 -140.333 25 -171 75c-18 29.333 -27 67.666 -27 114.999c0 32 4.33301 68.667 13 110l146 675c19.333 95.333 52.666 174.333 99.999 237c48 62.667 109.667 109 185 139h27c85.333 0 167 -44.667 245 -134l100 -123
l88 103c58.667 68.667 114 103 166 103c52.667 0 103 -18 151 -54c42.667 -31.333 80 -71.333 112 -120l48 226c28 125.333 9.66699 231.333 -55 318c-64 87.333 -234.333 144.333 -511 171c-58.667 5.33301 -85 33 -79 83c5.33301 45.333 32 68 80 68
c5.33301 0 10.666 -0.333008 15.999 -1c316.667 -28.667 521 -105 613 -229c66 -88.667 99 -190.334 99 -305.001c0 -45.333 -5.33301 -93 -16 -143l-118 -555c-1.33301 -7.33301 -3 -15.333 -5 -24l-46 -214l-13 -61l-79 -367c-6.66699 -31.333 -18 -54.666 -34 -69.999
s-36.667 -23 -62 -23c-26 0 -43.333 10 -52 30s-8.66699 49.667 0 89l87 402z" />
    </font>
</defs>
</svg>
