<?xml version="1.0" standalone="no"?>
<!DOCTYPE svg PUBLIC "-//W3C//DTD SVG 1.1//EN" "http://www.w3.org/Graphics/SVG/1.1/DTD/svg11.dtd" >
<svg>
<metadata>
Created by FontForge 20090914 at Sat Jan 18 01:57:25 2014
 By www-data
KhmerOS - font for the Khmer language of Cambodia
Copyright 2008 Danh Hong
 
This font is free software; you can redistribute it and/or modify it under the terms of the GNU Lesser General Public License as published by the Free Software Foundation; either version 2.1 of the License, or (at your option) any later version.

This library is distributed in the hope that it will be useful, but WITHOUT ANY WARRANTY; without even the implied warranty of MERCHANTABILITY or FITNESS FOR A PARTICULAR PURPOSE.? See the GNU Lesser General Public License for more details.

You should have received a copy of the GNU Lesser General Public License along with this font; if not, write to the Free Software Foundation, Inc., 51 Franklin Street, Fifth Floor, Boston, MA 02110-1301  USA or visit http://www.gnu.org/licenses/lgpl.html
</metadata>
<defs>
<font id="Kh-MetalChrieng" horiz-adv-x="0" >
  <font-face 
    font-family="Kh Metal Chrieng"
    font-weight="400"
    font-stretch="normal"
    units-per-em="2048"
    panose-1="2 0 5 0 0 0 0 2 0 4"
    ascent="1638"
    descent="-410"
    x-height="1140"
    cap-height="1500"
    bbox="-3603 -1607 5035 3166"
    underline-thickness="48"
    underline-position="-140"
    unicode-range="U+0020-U+25CC"
  />
<missing-glyph horiz-adv-x="1536" 
d="M256 0v1280h1024v-1280h-1024zM288 32h960v1216h-960v-1216z" />
    <glyph glyph-name="uni17D2_uni1780.liga" unicode="&#x17d2;&#x1780;" 
d="M-460 -212c44 -45.333 66.001 -104.668 66.001 -178.001c0 -31.333 -4.33301 -65.666 -13 -102.999l-49 -237c-10 -46.667 -40.333 -70 -91 -70c-51.333 0 -70 30.333 -56 91l52 247c13.333 62 1.66602 110.667 -35.001 146c-47.333 44 -135.333 66 -264 66
c-92 0 -162 -16 -210 -48c-38.667 -26 -63 -63 -73 -111l-68 -321c-10.667 -46.667 -41.667 -70 -93 -70c-40 0 -60 20 -60 60c0 10.667 1.33301 22.667 4 36l71 329c18 85.333 58.667 151 122 197c72.667 52 175 78 307 78c189.333 0 319.333 -37.333 390 -112z" />
    <glyph glyph-name="uni17D2_uni1781.liga" unicode="&#x17d2;&#x1781;" 
d="M-428 -183c38.667 -32 58.002 -73.666 58.002 -124.999c0 -16 -2 -33.333 -6 -52c-12 -68 -138.333 -127 -379 -177l-360 -75c9.33301 -25.333 81.333 -38 216 -38c92.667 0 228 41 406 123c59.333 26.667 85 17 77 -29c-8.66699 -46 -62.334 -98 -161.001 -156
c-98.667 -58.667 -206 -88 -322 -88c-194.667 0 -311.334 45 -350.001 135c-8.66699 21.333 -13 40.666 -13 57.999c0 20.667 6 39 18 55c22.667 30.667 66.667 53.667 132 69l291 53c194.667 35.333 294 66.333 298 93c4.66699 26.667 -4.33301 45.667 -27 57
c-40.667 20 -123.667 30 -249 30c-127.333 0 -216 -9.66699 -266 -29c-28.667 -10.667 -45.334 -24.667 -50.001 -42c-3.33301 -18.667 5.66699 -28 27 -28c22 0 29.667 -11.667 23 -35c-6 -23.333 -26.333 -40 -61 -50c-35.333 -10 -69.333 -2 -102 24
c-24.667 19.333 -37 46 -37 80c0 10.667 1 22 3 34c12.667 54.667 46.334 97.667 101.001 129c78 44.667 198.667 67 362 67c181.333 0 305 -27.667 371 -83z" />
    <glyph glyph-name="uni17D2_uni1782.liga" unicode="&#x17d2;&#x1782;" 
d="M-1200 -728l-1 -2.00195c-10.667 -46.667 -41.667 -70 -93 -70c-40 0 -60 20 -60 60c0 10.667 1.33301 22.667 4 36l71 329c18 85.333 58.667 151 122 197c72.667 52 175 78 307 78c189.333 0 319.333 -37.333 390 -112c44 -45.333 66 -104.666 66 -177.999
c0 -31.333 -4.33301 -65.666 -13 -102.999l-49 -237c-10 -46.667 -40.333 -70 -91 -70c-51.333 0 -70 30.333 -56 91l52 247c13.333 62 1.66602 110.667 -35.001 146c-47.333 44 -135.333 66 -264 66c-92 0 -162 -16 -210 -48c-38.667 -26 -63 -63 -73 -111l-30 -145
c75.333 69.333 132 104 170 104c64.667 0 117.667 -18 159 -54s45.333 -73 12 -111c-34 -38 -65.667 -45 -95 -21s-54.666 36 -75.999 36c-31.333 0 -80 -26.333 -146 -79z" />
    <glyph glyph-name="uni17D2_uni1784.liga" unicode="&#x17d2;&#x1784;" 
d="M-1041 -418c6 31.333 0.332031 47.002 -17.001 47.002c-18 0 -34.333 -13.667 -49 -41c-15.333 -27.333 -23 -63.333 -23 -108c0 -45.333 20 -78.333 60 -99c39.333 -20.667 96 -31 170 -31c92 0 167 33.667 225 101c57.333 67.333 98.333 126.666 123 177.999
c24 51.333 43.667 114 59 188c12.667 55.333 44 83 94 83c40.667 0 61 -22 61 -66c0 -12.667 -2 -27.667 -6 -45c-17.333 -80.667 -43.666 -159.667 -78.999 -237c-36 -78 -91.333 -156 -166 -234c-74.667 -78.667 -178.334 -118 -311.001 -118
c-93.333 0 -180 21.667 -260 65s-120 115 -120 215c0 73.333 22.333 141.666 67 204.999c44 62.667 97.667 94 161 94c126.667 0 182.334 -50.667 167.001 -152c-10 -61.333 -40 -92 -90 -92s-72 15.667 -66 47z" />
    <glyph glyph-name="uni17D2_uni1785.liga" unicode="&#x17d2;&#x1785;" 
d="M-990 -182c0 54.667 26.335 82.001 79.002 82.001c47.333 0 71 -27.333 71 -82c0 -64.667 -14.667 -124.334 -44 -179.001c-29.333 -55.333 -63.333 -99.666 -102 -132.999s-93.334 -68.666 -164.001 -105.999c0 -33.333 55.667 -50 167 -50c133.333 0 235 43 305 129
c-65.333 24.667 -95.333 65.334 -90 122.001s22 100.667 50 132s69.667 47 125 47c48.667 0 85 -15.667 109 -47s36 -72.333 36 -123c0 -12.667 -6 -29 -18 -49c88.667 -10 133 -39.667 133 -89c0 -2.66699 -0.333008 -5.66699 -1 -9
c-5.33301 -54.667 -23.166 -83.834 -53.499 -87.501s-44 7.66602 -41 33.999s-32.833 44.166 -107.5 53.499l-32 -39.5l-36 -42.5c-52 -60 -109.667 -105 -173 -135c-62.667 -30.667 -131.334 -46 -206.001 -46c-111.333 0 -191.5 16.667 -240.5 50s-73.5 83.333 -73.5 150
c0 68.667 22.333 109.667 67 123c44 14 82.333 33.333 115 58c33.333 25.333 62.666 61.333 87.999 108c24.667 46 37 89 37 129zM-558.998 -389.999c4 8.66699 6.00098 16.333 6.00098 23c0 16 -13.333 24 -40 24c-37.333 0 -56 -15.667 -56 -47
c0 -20 20.667 -33.667 62 -41c13.333 16 22.666 29.667 27.999 41z" />
    <glyph glyph-name="uni17D2_uni1786.liga" unicode="&#x17d2;&#x1786;" 
d="M-558 -408c-4.66699 22 -14.333 42.667 -29 62c-30 40.667 -64.333 61 -103 61c-56 0 -88.667 -17.333 -98 -52c-12 -60.667 19.667 -91 95 -91c50.667 0 95.667 6.66699 135 20zM-403.999 -484c-1.33301 -8 -3 -16.332 -5 -24.999
c-24.667 -107.333 -71 -182.666 -139 -225.999s-167.333 -65 -298 -65c-90 0 -162.667 25 -218 75c-56 50 -100 75 -132 75c-42.667 0 -67.667 -17.333 -75 -52c-14.667 -65.333 -39.667 -98 -75 -98c-54.667 0 -82 22.667 -82 68c0 9.33301 1 19.666 3 30.999l60 285
c15.333 74 10.333 121.5 -15 142.5s-38 52.167 -38 93.5s29.667 67.666 89 78.999c15.333 2.66699 29.333 4 42 4c38 0 66.667 -12 86 -36c26 -32.667 32 -82.334 18 -149.001l-46 -220c10.667 1.33301 21.667 2 33 2c55.333 0 112.333 -25 171 -75
c58 -50 117.667 -75 179 -75c100.667 0 170.334 12.333 209.001 37c17.333 11.333 32.333 26 45 44c-31.333 -6 -65 -9 -101 -9c-94.667 0 -163.667 27.333 -207 82c-43.333 54 -59 110 -47 168s39.667 104.667 83 140c42.667 35.333 100.667 53 174 53
c99.333 0 176.666 -34.667 231.999 -104c18.667 -23.333 33 -48.666 43 -75.999c43.333 34.667 76.333 44.334 99 29.001c14 -9.33301 21 -22 21 -38c0 -15.333 -6.66699 -34 -20 -56c-25.333 -40.667 -55 -75.334 -89 -104.001z" />
    <glyph glyph-name="uni17D2_uni1787.liga" unicode="&#x17d2;&#x1787;" 
d="M-500 -432c-19.333 2.66699 -39.999 4.33691 -61.999 5.00391c-50 2.66699 -88 16.334 -114 41.001c-28 28 -41.333 70 -40 126c2 53.333 17 93.333 45 120c28.667 26.667 70.667 40 126 40c70.667 0 126.334 -31 167.001 -93c28.667 -42.667 43 -93.334 43 -152.001
c20 -12 39.667 -27 59 -45c37.333 -33.333 56 -63.666 56 -90.999c0 -16 -6.33301 -31 -19 -45c-34 -38.667 -70 -33 -108 17c-4.66699 6.66699 -9.66699 12.667 -15 18c-12.667 -34.667 -29.667 -68.334 -51 -101.001c-36.667 -56.667 -86.334 -110.334 -149.001 -161.001
c-39.333 -31.333 -80.333 -47 -123 -47c-42 0 -96 69 -162 207c-118 -138 -201.333 -207 -250 -207c-48 0 -87.667 25.667 -119 77c-27.333 46 -50 90.333 -68 133c-15.333 37.333 -27 73.666 -35 108.999c-6.66699 32.667 -10 64.334 -10 95.001c0 25.333 2.33301 50 7 74
c14 63.333 38.333 114.666 73 153.999c34.667 38.667 71 58 109 58c66.667 0 100 -33.333 100 -100s-33.333 -100 -100 -100c-8 0 -15.333 0.666992 -22 2c-6 -14 -10.667 -28.333 -14 -43c-6.66699 -33.333 -5.66699 -70.333 3 -111c6 -26 15 -54 27 -84
c15.333 -36.667 35.333 -76.334 60 -119.001c154.667 160 243.667 240 267 240s76.666 -78.333 159.999 -235c50.667 44.667 90.667 90 120 136c16.667 27.333 29.667 54.666 39 81.999zM-554.999 -293.997c12.667 -6 33.332 -10 61.999 -12c-2 6 -4.33301 11.333 -7 16
c-13.333 26.667 -28.333 40 -45 40s-24.667 -9.33301 -24 -28c0.666992 -6.66699 5.33398 -12 14.001 -16z" />
    <glyph glyph-name="uni17D2_uni1789.liga" unicode="&#x17d2;&#x1789;" 
d="M-1510 -265c0 23.333 6.66895 42.0029 20.002 56.0029c12.667 13.333 31 18.666 55 15.999s52.667 -18.667 86 -48c235.333 -206 461.666 -309 678.999 -309c98 0 175 27.333 231 82c56 54 88 100 96 138c7.33301 38 8.66602 60.833 3.99902 68.5s-15 11.5 -31 11.5
c0 -33.333 -25 -50 -75 -50s-75 23.333 -75 70c0 86.667 50 130 150 130c70 0 120.667 -23.667 152 -71c20.667 -30.667 31 -68 31 -112c0 -24.667 -3.33301 -51.334 -10 -80.001c-17.333 -80.667 -67 -157 -149 -229c-82.667 -72 -190.667 -108 -324 -108
c-254 0 -515 116.667 -783 350c-38 33.333 -57 61.666 -57 84.999z" />
    <glyph glyph-name="uni17D2_uni178A.liga" unicode="&#x17d2;&#x178a;" 
d="M-1159 -560l-24.001 -105c60.667 14 93.334 37.333 98.001 70c4.66699 32 -20 43.667 -74 35zM-1279 -375c18 85.333 58.6689 150.998 122.002 196.998c72.667 52 175 78 307 78c189.333 0 319.333 -37.333 390 -112c44 -45.333 66 -104.666 66 -177.999
c0 -31.333 -4.33301 -65.666 -13 -102.999l-49 -237c-10 -46.667 -40.333 -70 -91 -70c-51.333 0 -70 30.333 -56 91l52 247c13.333 62 1.66602 110.667 -35.001 146c-47.333 44 -135.333 66 -264 66c-92 0 -162 -16 -210 -48c-38.667 -26 -63 -63 -73 -111l-5 -28
c79.333 4 132 -9.33301 158 -40c25.333 -31.333 32.666 -78 21.999 -140c-10.667 -62.667 -53 -108.667 -127 -138c-74 -30 -139.667 -45 -197 -45c-40.667 0 -61 30 -61 90c0 24 3.33301 53 10 87z" />
    <glyph glyph-name="uni17D2_uni178B.liga" unicode="&#x17d2;&#x178b;" 
d="M-1198 -317c68 44.667 167.331 67 297.998 67h394v2c-16.667 4 -27.667 13 -33 27c-6 14.667 -6.33301 34 -1 58s17.333 40.333 36 49c10.667 5.33301 23.334 8 38.001 8c12 0 25 -1.66699 39 -5c32.667 -6.66699 54.667 -24 66 -52c6 -14 9 -31 9 -51
c0 -18.667 -2.66699 -40 -8 -64l-85 -398c-10 -49.333 -41.667 -74 -95 -74c-50 0 -90.333 14.333 -121 43l-142 134l-25 -29c-80 -98.667 -160.667 -148 -242 -148c-85.333 0 -147.666 19 -186.999 57c-34 32.667 -51 78.667 -51 138c0 27.333 3.33301 57 10 89
c14 64 47.333 113.667 100 149zM-1146 -568c12.667 -21.333 38 -31.999 76 -31.999c68 0 123.667 25.333 167 76l106 111l213 -196l46 209h-362c-92.667 0 -160 -12 -202 -36c-27.333 -16 -44 -37.333 -50 -64c-6 -28.667 -4 -51.334 6 -68.001z" />
    <glyph glyph-name="uni17D2_uni178C.liga" unicode="&#x17d2;&#x178c;" 
d="M-574.5 -359.5c-2.33301 13.667 -11.168 34.168 -26.501 61.501c-31.333 40.667 -57 61 -77 61c-20.667 0 -89.334 -51.333 -206.001 -154c-75.333 102.667 -126.666 154 -153.999 154c-29.333 -2.66699 -58 -16.334 -86 -41.001
c-29.333 -25.333 -33.333 -52.666 -12 -81.999s28.5 -55.5 21.5 -78.5s-29.5 -34.667 -67.5 -35s-72 32.167 -102 97.5c-7.33301 16.667 -11 33.334 -11 50.001c0 50 33 100.333 99 151c63.333 50 116 75 158 75c64 0 123.667 -39 179 -117c76 78 139 117 189 117
c49.333 0 102 -34.333 158 -103c61.333 -84.667 92 -151.667 92 -201c0 -6.66699 -0.666992 -13.334 -2 -20.001c-14 -38 -103.667 -79 -269 -123l-316 -83c-36 -10.667 -49 -31.334 -39 -62.001c4 -16.667 20.667 -21 50 -13l312 103
c50.667 13.333 91.334 12.333 122.001 -3c30.667 -16 34.334 -53 11.001 -111l-36 -88c-20.667 -50 -46.334 -75 -77.001 -75c-7.33301 0 -15 1.33301 -23 4c-40.667 14 -49.334 51.667 -26.001 113l13 39l-259 -91c-118.667 -34.667 -193 -4.66699 -223 90
c-36.667 108.667 8.33301 180 135 214l143 40l167 45c110.667 30 164.834 51.833 162.501 65.5z" />
    <glyph glyph-name="uni17D2_uni178E.liga" unicode="&#x17d2;&#x178e;" 
d="M-2639 -560l-24 -105c60.667 14 93.334 37.333 98 70c4.66699 32 -20 43.667 -74 35zM-1327 -599l48.002 223.996c18 85.333 58.667 151 122 197c72.667 52 175 78 307 78c189.333 0 319.333 -37.333 390 -112c44 -45.333 66 -104.666 66 -177.999
c0 -31.333 -4.33301 -65.666 -13 -102.999l-49 -237c-10 -46.667 -40.333 -70 -91 -70c-51.333 0 -70 30.333 -56 91l52 247c13.333 62 1.66602 110.667 -35.001 146c-47.333 44 -135.333 66 -264 66c-92 0 -162 -16 -210 -48c-38.667 -26 -63 -63 -73 -111l-53 -256
c-20 -90 -57.667 -135 -113 -135c-28.667 0 -64.667 22 -108 66l-195 197l-277 -197c-62 -44 -105 -66 -129 -66c-64 0 -89 30.333 -75 91l52 247c13.333 62 1.66602 110.667 -35.001 146c-47.333 44 -135.333 66 -264 66c-92 0 -162 -16 -210 -48
c-38.667 -26 -63 -63 -73 -111l-5 -28c79.333 4 132 -9.33301 158 -40c25.333 -31.333 32.666 -78 22 -140c-10.667 -62.667 -53 -108.667 -127 -138c-74 -30 -139.667 -45 -197 -45c-40.667 0 -61 30 -61 90c0 24 3.33301 53 10 87l54 248c18 85.333 58.667 151 122 197
c72.667 52 175 78 307 78c189.333 0 319.333 -37.333 390 -112c44 -45.333 66 -104.666 66 -177.999c0 -31.333 -4.33301 -65.666 -13 -102.999l-15 -72l315 227z" />
    <glyph glyph-name="uni17D2_uni178F.liga" unicode="&#x17d2;&#x178f;" 
d="M-1159 -560l-24.001 -105c60.667 14 93.334 37.333 98.001 70c4.66699 32 -20 43.667 -74 35zM-1279 -375c18 85.333 58.6689 150.998 122.002 196.998c72.667 52 175 78 307 78c189.333 0 319.333 -37.333 390 -112c44 -45.333 66 -104.666 66 -177.999
c0 -31.333 -4.33301 -65.666 -13 -102.999l-49 -237c-10 -46.667 -40.333 -70 -91 -70c-51.333 0 -70 30.333 -56 91l52 247c13.333 62 1.66602 110.667 -35.001 146c-47.333 44 -135.333 66 -264 66c-92 0 -162 -16 -210 -48c-38.667 -26 -63 -63 -73 -111l-5 -28
c79.333 4 132 -9.33301 158 -40c25.333 -31.333 32.666 -78 21.999 -140c-10.667 -62.667 -53 -108.667 -127 -138c-74 -30 -139.667 -45 -197 -45c-40.667 0 -61 30 -61 90c0 24 3.33301 53 10 87z" />
    <glyph glyph-name="uni17D2_uni1790.liga" unicode="&#x17d2;&#x1790;" 
d="M-861.5 -364.5c63.667 -27.667 80.499 -95.167 50.499 -202.5c-27.333 -88.667 -97 -133 -209 -133c-179.333 0 -269 74.667 -269 224c0 32 4 67.333 12 106c37.333 180 196.333 270 477 270c262.667 0 418.334 -100.333 467.001 -301c5.33301 -20.667 8 -39 8 -55
c0 -41.333 -16 -67.333 -48 -78c-44 -14 -74.667 11 -92 75c-39.333 139.333 -151 209 -335 209c-200 0 -310.333 -50 -331 -150c-21.333 -100 15.667 -150 111 -150c36 0 58.333 10 67 30c19.333 44.667 1 76 -55 94c34 68.667 82.833 89.167 146.5 61.5z" />
    <glyph glyph-name="uni17D2_uni1791.liga" unicode="&#x17d2;&#x1791;" 
d="M-688 -188c12.667 58.667 44.668 88 96.001 88c50.667 0 68.334 -36.667 53.001 -110c-30.667 -141.333 -178 -261 -442 -359c-9.33301 -54 17.667 -81 81 -81c104.667 0 225 81.333 361 244c45.333 54 78.666 79 99.999 75c32 -6.66699 48 -31.667 48 -75
c0 -14 -2 -30.333 -6 -49l-50 -248c-15.333 -64.667 -49 -97 -101 -97s-70.667 33.333 -56 100l21 104c-115.333 -136 -221 -204 -317 -204c-64.667 0 -125.334 29 -182.001 87c-45.333 46.667 -68 94.667 -68 144c0 12 1 23.667 3 35c12 47.333 35 75.333 69 84
c238 68 368 155.333 390 262z" />
    <glyph glyph-name="uni17D2_uni1792.liga" unicode="&#x17d2;&#x1792;" 
d="M-1173 -557c-1.33301 -62 56.333 -93 173 -93c101.333 0 139 56.667 113 170c-104 -44 -199.333 -69.667 -286 -77zM-615.501 -345.5c-59 -43 -118.833 -72.5029 -179.5 -88.5029l173 -75c36 -12.667 61.667 8 77 62l23 81c24.667 90.667 31.667 161 21 211
c87.333 -32.667 131 -74 131 -124c0 -35.333 -6 -77 -18 -125l-27 -99c-18.667 -69.333 -55.667 -114.666 -111 -135.999c-59.333 -26 -108.333 -26.667 -147 -2l-85 54c-6 -75.333 -28.333 -129.666 -67 -162.999s-97 -50 -175 -50c-122.667 0 -207.167 22.833 -253.5 68.5
s-69.5 102.834 -69.5 171.501v13c3.33301 54 25 89.667 65 107c112.667 18.667 223.5 47 332.5 85s184.667 76 227 114s41.833 68.667 -1.5 92c2 32.667 23.333 49 64 49c40 0 69 -9.33301 87 -28c30.667 -24 42 -55.5 34 -94.5s-41.5 -80 -100.5 -123z" />
    <glyph glyph-name="uni17D2_uni1793.liga" unicode="&#x17d2;&#x1793;" 
d="M-1334 -639c-44 40.667 -66.001 97 -66.001 169s22.333 135 67 189s117 81 217 81h419c15.333 66.667 48.333 100 99 100s68.667 -33.333 54 -100h344c66.667 0 100 -25 100 -75s-33.333 -75 -100 -75h-374l-32 -150c33.333 0 61.666 -12 84.999 -36s35 -63.667 35 -119
s-15.333 -93.333 -46 -114c-31.333 -20.667 -67.666 -31 -108.999 -31s-74.666 10 -99.999 30s-43 55.667 -53 107c-134.667 -24.667 -236.667 -37 -306 -37c-112 0 -190 20.333 -234 61zM-1220 -519c19.333 -20.667 59.333 -31 120 -31c22.667 0 136 11.667 340 35l31 165
h-387c-50 0 -84.667 -10.333 -104 -31c-20 -20.667 -30 -43.667 -30 -69c0 -26 10 -49 30 -69z" />
    <glyph glyph-name="uni17D2_uni1795.liga" unicode="&#x17d2;&#x1795;" 
d="M-449 -700c-14 -66.667 -46.333 -99.999 -97 -99.999c-51.333 0 -101.333 21 -150 63l-171 137l-250 -137c-66.667 -42 -125.334 -63 -176.001 -63c-40 0 -60 20.667 -60 62c0 11.333 1.33301 24 4 38l62 282c15.333 74 10.333 126.5 -15 157.5s-31.333 65.5 -18 103.5
s43 57 89 57s82 -14 108 -42s32 -75.333 18 -142l-67 -308l320 177l264 -218l50 233c9.33301 47.333 -4 83.333 -40 108c-36.667 24.667 -46.667 63 -30 115c16.667 51.333 58.334 77 125.001 77c41.333 0 76 -12.667 104 -38c19.333 -16.667 29 -42 29 -76
c0 -16.667 -2.33301 -35.334 -7 -56.001z" />
    <glyph glyph-name="uni17D2_uni1796.liga" unicode="&#x17d2;&#x1796;" 
d="M-1345 -374c16.667 67.333 61.3359 130.999 134.003 190.999c66 54.667 121 82 165 82c66.667 0 115.667 -27.667 147 -83l40 -67c79.333 100 145 150 197 150s107.333 -37.333 166 -112c55.333 -74.667 87.333 -130.667 96 -168c1.33301 -6 2 -14.333 2 -25
c0 -50.667 -16.667 -148.667 -50 -294c-14.667 -66.667 -45.334 -100 -92.001 -100s-86.667 11.667 -120 35s-45 50 -35 80s31 49.333 63 58s56 50 72 124c12 60.667 2 122.667 -30 186c-32.667 44 -59.334 66 -80.001 66c-21.333 0 -93 -63.333 -215 -190
c-78.667 126.667 -132.334 190 -161.001 190c-30.667 -2.66699 -60.667 -17.334 -90 -44.001c-30 -27.333 -52.667 -71.666 -68 -132.999l-5 -47c79.333 4.66699 130 -8.66602 152 -39.999c22.667 -30.667 30 -71 22 -121s-47 -89.667 -117 -119
c-70.667 -30 -134.667 -45 -192 -45c-40.667 0 -61 30 -61 90c0 24 3.33301 53 10 87zM-1229 -597.001l-16 -68c53.333 14 81 31 83 51s-20.333 25.667 -67 17z" />
    <glyph glyph-name="uni17D2_uni1797.liga" unicode="&#x17d2;&#x1797;" 
d="M-1288 -417l9.00098 41.998c18 85.333 58.667 151 122 197c72.667 52 175 78 307 78c189.333 0 319.333 -37.333 390 -112c44 -45.333 66 -104.666 66 -177.999c0 -31.333 -4.33301 -65.666 -13 -102.999l-49 -237c-10 -46.667 -40.333 -70 -91 -70
c-51.333 0 -70 30.333 -56 91l52 247c13.333 62 1.66602 110.667 -35.001 146c-47.333 44 -135.333 66 -264 66c-92 0 -162 -16 -210 -48c-38.667 -26 -63 -63 -73 -111l-68 -321c-10.667 -46.667 -43.667 -70 -99 -70c-47.333 0 -87.333 30 -120 90
c-33.333 60 -50 115.667 -50 167c0 28 6 59 18 93c11.333 33.333 66 44.333 164 33z" />
    <glyph glyph-name="uni17D2_uni1798.liga" unicode="&#x17d2;&#x1798;" 
d="M-308 -460c-8.66699 6.66699 -22.667 10 -42 10h-50l-6 -27c-6 -24.667 -5.66699 -43 1 -55c6 -12 17.667 -18 35 -18c41.333 0 65 17.333 71 52c3.33301 17.333 0.333008 30 -9 38zM-536 -638c-31.333 42 -37.0029 104.667 -17.0029 188
c-49.333 0 -142.166 -6.66699 -278.499 -20s-259.166 -20 -368.499 -20c-112 0 -190 20.333 -234 61s-66 80.667 -66 120s21.667 59 65 59s78.333 -15 105 -45c26 -30 69.333 -45 130 -45c109.333 0 235 6.66699 377 20s243.667 20 305 20l6 26l22 119
c8.66699 36.667 38.334 55 89.001 55s69.667 -33.333 57 -100l-22 -100h16c81.333 0 140 -18.333 176 -55c28 -28.667 42 -68.667 42 -120c0 -15.333 -1.33301 -32 -4 -50c-16.667 -116.667 -94.667 -175 -234 -175c-80 0 -135.333 20.667 -166 62z" />
    <glyph glyph-name="uni17D2_uni179A.liga" unicode="&#x17d2;&#x179a;" horiz-adv-x="750" 
d="M1302 -559c93.333 62.667 175.999 157.668 247.999 285.001c30.667 62 64 93 100 93c37.333 0 56 -16.667 56 -50c0 -34 -10.667 -72 -32 -114c-79.333 -155.333 -177.333 -271 -294 -347c-110 -72 -246.667 -108 -410 -108c-289.333 0 -488.666 83 -597.999 249
c-57.333 104 -86 226 -86 366c0 88.667 11.667 184.667 35 288l178 830c9.33301 43.333 -6.66699 87.666 -48 132.999c-42 44.667 -107.667 69.667 -197 75c98 57.333 176.667 119.333 236 186s103 124.334 131 173.001c48 -72 96 -124.667 144 -158
c47.333 -33.333 94.666 -47.333 141.999 -42l-50 -34c-34 -23.333 -76 -36 -126 -38c-50 -2.66699 -92.667 16.666 -128 57.999l-91 -98c56.667 -38.667 96 -82 118 -130s27 -100.667 15 -158l-177 -831c-44.667 -205.333 -33 -377.333 35 -516
c85.333 -135.333 241 -203 467 -203c130.667 0 241.334 30.333 332.001 91z" />
    <glyph glyph-name="uni17D2_uni179B.liga" unicode="&#x17d2;&#x179b;" 
d="M-762 -577c59.333 0 61.334 -36.999 6.00098 -110.999c-54.667 -74.667 -136 -112 -244 -112c-200 0 -300 80.333 -300 241c0 153.333 111.667 237.666 335 252.999c58.667 6 124.667 -9.33301 198 -46c77.333 2 144.833 25.167 202.5 69.5s86.5 93.166 86.5 146.499
c0 57.333 24.333 86 73 86c48 0 72 -28.667 72 -86c0 -80 -34.333 -150.333 -103 -211c-68.667 -60 -135.334 -103.333 -200.001 -130c-64.667 -26 -124 -27 -178 -3s-104.333 33 -151 27c-123.333 -7.33301 -185 -42.666 -185 -105.999c0 -60.667 50 -91 150 -91
c62 0 141.333 24.333 238 73z" />
    <glyph glyph-name="uni17D2_uni179C.liga" unicode="&#x17d2;&#x179c;" 
d="M-381 -137c0 -42 -23.002 -107.999 -69.002 -197.999c-162 -310 -312 -465 -450 -465c-112 0 -195.333 44.667 -250 134c-22.667 44.667 -34 87.667 -34 129c0 19.333 2.66699 38.333 8 57c15.333 58 64.333 100 147 126c128.667 44.667 255.334 106 380.001 184l94 58
c38.667 24 73 36 103 36c18.667 0 35.334 -4.66699 50.001 -14c14 -8.66699 21 -24.334 21 -47.001zM-560.002 -276.999c-146 -92 -289.666 -158.667 -430.999 -200c-54 -14 -68 -46.333 -42 -97s70.333 -76 133 -76c71.333 0 184.666 124.333 339.999 373z" />
    <glyph glyph-name="uni17D2_uni17A0.liga" unicode="&#x17d2;&#x17a0;" 
d="M-1291 -98c48.667 0 65.9951 -28.998 51.9951 -86.998l-60 -264c-16.667 -72.667 -8.83398 -127.334 23.499 -164.001s78.833 -55 139.5 -55c56.667 0 103 16.5 139 49.5s61.667 82.5 77 148.5l26 114c20.667 87.333 60.334 152.166 119.001 194.499
s130.334 63.5 215.001 63.5c64.667 0 115.167 -10.833 151.5 -32.5s68.5 -49 96.5 -82s47.667 -78.167 59 -135.5c4.66699 -22 7 -45.333 7 -70c0 -38.667 -5.33301 -81 -16 -127l-37 -167c-14 -58.667 -43.333 -88 -88 -88c-44 0 -82 10.333 -114 31s-43 44 -33 70
c9.33301 26.667 29.333 43.667 60 51c30 8 52.5 45 67.5 111s19.167 117.333 12.5 154c-5.33301 37.333 -19.833 72.333 -43.5 105s-64.5 49 -122.5 49c-55.333 0 -98.666 -12.833 -129.999 -38.5s-52 -61.5 -62 -107.5l-29 -117
c-23.333 -102.667 -66.166 -179.667 -128.499 -231s-137.833 -77 -226.5 -77c-95.333 0 -176.666 32.333 -243.999 97c-48 46.667 -72 106.667 -72 180c0 30 3.66699 62 11 96l58 247c12.667 54.667 43.334 82 92.001 82z" />
    <glyph glyph-name="uni17D2_uni17A2.liga" unicode="&#x17d2;&#x17a2;" 
d="M-1098 -528l-36.0029 -165.998c-15.333 -70.667 -42.333 -106 -81 -106s-76.667 20.667 -114 62c-30 33.333 -45 67 -45 101c0 7.33301 0.666992 15 2 23c8.66699 41.333 45.334 55 110.001 41l42 196l-88 70c68.667 47.333 131.667 119 189 215
c60.667 -93.333 133 -140.333 217 -141c-65.333 -71.333 -142.666 -80 -231.999 -26l-31 -35c68.667 -40.667 98.667 -82.334 90 -125.001v-1h536l9 43l-87 70c68 47.333 130.667 119 188 215c34.667 -76 87.334 -123 158.001 -141c-52 -60 -109.667 -68.667 -173 -26
l-30 -35c68 -40.667 97.667 -82.334 89 -125.001l-59 -275c-15.333 -70.667 -42 -106 -80 -106c-38.667 0 -73 13.5 -103 40.5s-42.167 61.333 -36.5 103s36.167 69.5 91.5 83.5l10 45h-536z" />
    <glyph glyph-name="uni17B7_uni17CD.liga" unicode="&#x17b7;&#x17cd;" 
d="M-83 1730c6.66699 -13.333 9.99805 -25 9.99805 -35c0 -0.666992 -0.333008 -1.66699 -1 -3c-2 -28 -27.667 -42 -77 -42c-8 0 -17 0.333008 -27 1l-598 53c-60.667 5.33301 -106.667 20.666 -138 45.999c-31.333 26 -47 64 -47 114c0 8.66699 0.333008 17.334 1 26.001
c6 69.333 33.333 122 82 158c43.333 32 103.333 48 180 48c18 0 37 -1 57 -3c66 -5.33301 138 -31.333 216 -78c16.667 -9.33301 33 -19.333 49 -30c22 92.667 96 144 222 154c39.333 4.66699 80.333 -2 123 -20c58.667 35.333 99.334 70 122.001 104
c20 31.333 30 61.333 30 90c0 53.333 22.667 80 68 80c46 0 69 -26.667 69 -80c0 -60.667 -18.667 -116.334 -56 -167.001c-38.667 -54 -87 -97.333 -145 -130c-38 -29.333 -74.833 -37.166 -110.5 -23.499s-69.167 18.167 -100.5 13.5c-60.667 -6 -91 -34 -91 -84
c0 -17.333 4.33301 -31.333 13 -42c6 -4.66699 12 -9.66699 18 -15c13.333 -6.66699 30.333 -10 51 -10c67.333 0 107 7.5 119 22.5s37.667 22.5 77 22.5s41 -29.667 5 -89c-25.333 -41.333 -65.666 -68.333 -120.999 -81zM-335.002 1779
c-10.667 11.333 -19.667 24.333 -27 39c-118 77.333 -215.333 119.333 -292 126c-55.333 4.66699 -96 -1.33301 -122 -18c-21.333 -12.667 -33 -29 -35 -49c-2 -22.667 1.33301 -38 10 -46c7.33301 -8 19 -12.667 35 -14z" />
    <glyph glyph-name=".notdef" horiz-adv-x="1536" 
d="M256 0v1280h1024v-1280h-1024zM288 32h960v1216h-960v-1216z" />
    <glyph glyph-name="space" unicode=" " horiz-adv-x="569" 
 />
    <glyph glyph-name="space" unicode="&#xa0;" horiz-adv-x="569" 
 />
    <glyph glyph-name="exclam" unicode="!" horiz-adv-x="872" 
d="M612 1493v-692l-40 -457h-70l-40 457v692h150zM622 213v-213h-172v213h172z" />
    <glyph glyph-name="quotedbl" unicode="&#x22;" horiz-adv-x="727" 
d="M106 1452h190v-227l-55 -275h-80l-55 275v227zM434 1452h190v-227l-55 -275h-80l-55 275v227z" />
    <glyph glyph-name="numbersign" unicode="#" horiz-adv-x="1138" 
d="M993 1427l-74 -401h190v-139h-217l-63 -357h215v-139h-240l-80 -431h-155l77 431h-253l-80 -431h-156l78 431h-207v139h233l64 357h-221v139h248l73 401h156l-74 -401h256l72 401h158zM737 887h-254l-66 -357h256z" />
    <glyph glyph-name="dollar" unicode="$" horiz-adv-x="1138" 
d="M501 1577l121.001 0.000976562v-111c172 -12 290 -81.667 354 -209c26 -51.333 40.333 -109.333 43 -174v-20h-161c-1.33301 105.333 -41 181 -119 227c-27.333 15.333 -57.333 25.666 -90 30.999c-8.66699 1.33301 -17.667 2 -27 2v-510
c136.667 -42 226 -74.667 268 -98c116 -66 174 -171.333 174 -316c0 -142 -46.333 -254.667 -139 -338c-14.667 -13.333 -31 -25.333 -49 -36c-66.667 -39.333 -151.334 -63.333 -254.001 -72v-211h-121v211c-210 14 -344.333 100.667 -403 260
c-22 62.667 -31 133.667 -27 213h162c9.33301 -101.333 23.666 -168.333 42.999 -201c2.66699 -4 5.33398 -8.66699 8.00098 -14c48 -65.333 120.333 -104.333 217 -117v557c-126.667 38.667 -212.667 74.334 -258 107.001c-96.667 69.333 -145 169 -145 299
c0 199.333 95.333 327.666 286 384.999c36 10.667 75 18.667 117 24v111zM501.001 829.001v492.001c-130.667 -18 -207.667 -78.667 -231 -182c-4 -19.333 -6 -40 -6 -62c0 -122.667 79 -205.334 237 -248.001zM622.001 633.002l-0.000976562 -539
c83.333 10 146 35.333 188 76c57.333 54.667 86 123 86 205c0 83.333 -32 145.333 -96 186c-39.333 24.667 -98.666 48.667 -177.999 72z" />
    <glyph glyph-name="percent" unicode="%" horiz-adv-x="1820" 
d="M407 1403c114.667 0 207.001 -45.001 277.001 -135.001l37 -58c24 -50 36 -103.667 36 -161c0 -108 -43 -197 -129 -267c-64 -53.333 -137 -80 -219 -80c-110.667 0 -201.334 43 -272.001 129c-52 66 -78 140 -78 222c0 110.667 43 201.334 129 272.001
c64 52 137 78 219 78zM407.001 1260c-73.333 0 -130.667 -31.666 -172 -94.999l-24 -47c-7.33301 -22 -11 -43.667 -11 -65c0 -72.667 30.667 -130 92 -172c36 -23.333 75 -35 117 -35c74 0 131.333 30.667 172 92c23.333 34 35 71.667 35 113
c0 77.333 -32.667 136.666 -98 177.999c-32.667 20.667 -69.667 31 -111 31zM1247 1452h135l-809 -1492h-135zM1409 659c116 0 208.667 -45 278 -135c48 -62.667 72 -135 72 -217c0 -108 -43 -196.667 -129 -266c-64 -52.667 -137 -79 -219 -79
c-110.667 0 -201.667 42.667 -273 128c-52 65.333 -78 139 -78 221c0 110.667 44 201 132 271c64 51.333 136.333 77 217 77zM1409 516c-74 0 -131.332 -30.667 -171.999 -92c-23.333 -34 -35 -71.667 -35 -113c0 -74.667 32 -132.667 96 -174c34 -22 71.667 -33 113 -33
c73.333 0 130.666 31 171.999 93c23.333 34 35 70.667 35 110c0 78 -33 137.333 -99 178l-47 21c-20.667 6.66699 -41.667 10 -63 10z" />
    <glyph glyph-name="ampersand" unicode="&#x26;" horiz-adv-x="1366" 
d="M1009 684l164.001 -0.00292969c0 -128 -39.667 -253 -119 -375l250 -309h-223l-127 160c-66.667 -66 -119.334 -110.333 -158.001 -133c-76.667 -49.333 -166.667 -74 -270 -74c-158.667 0 -276 56 -352 168c-45.333 66.667 -68 146.334 -68 239.001
c0 110.667 35.333 202.334 106 275.001c49.333 49.333 124.666 103.333 225.999 162c-96 120 -150 212.667 -162 278c-2.66699 18 -4 36.333 -4 55c0 105.333 44.333 190 133 254c62.667 45.333 135 68 217 68c122.667 0 215.667 -45 279 -135l30 -57
c12.667 -28.667 20.334 -59.667 23.001 -93c1.33301 -12 2 -24.333 2 -37c0 -94 -37.667 -174.333 -113 -241c-39.333 -35.333 -96 -73.666 -170 -114.999l273 -334c43.333 76.667 64.333 158 63 244zM583.001 882.997c110.667 69.333 176.333 129.332 197 179.999
c9.33301 20.667 14 44.667 14 72c0 70.667 -30.667 121.667 -92 153c-26 14 -54.667 21 -86 21c-82 0 -136.667 -34.333 -164 -103c-8 -21.333 -12 -45.666 -12 -72.999c0 -45.333 17 -92 51 -140zM856 280.996l-327.999 408.999c-128.667 -82 -206.667 -157 -234 -225
c-10.667 -27.333 -16 -57.333 -16 -90c0 -88.667 37 -159 111 -211c47.333 -34 99.666 -51 156.999 -51c92 0 184.333 44.333 277 133c10.667 10.667 21.667 22.334 33 35.001z" />
    <glyph glyph-name="quotesingle" unicode="'" horiz-adv-x="391" 
d="M98 1452h193v-227l-56 -275h-82l-55 275v227z" />
    <glyph glyph-name="parenleft" unicode="(" horiz-adv-x="1146" 
d="M584 1493h112.001c-168.667 -273.333 -261.334 -566.333 -278.001 -879c-1.33301 -28.667 -2 -56.667 -2 -84c0 -318 83.333 -622 250 -912c9.33301 -18 19.333 -35.333 30 -52h-112c-154.667 202 -257 434 -307 696c-18 92.667 -27 182 -27 268
c0 244.667 63.333 489.334 190 734.001c42.667 83.333 90.667 159.666 144 228.999z" />
    <glyph glyph-name="parenright" unicode=")" horiz-adv-x="1146" 
d="M563 -434l-113 -0.000976562c169.333 273.333 262.333 566 279 878c1.33301 28.667 2 56.667 2 84c0 318.667 -83.333 623.334 -250 914.001c-10 17.333 -20.333 34.333 -31 51h113c154 -202 256.333 -434 307 -696c17.333 -93.333 26 -183 26 -269
c0 -244 -63.333 -488 -190 -732c-42 -83.333 -89.667 -160 -143 -230z" />
    <glyph glyph-name="asterisk" unicode="*" horiz-adv-x="1321" 
d="M696 1493h129l-10 -229l217 77l39 -120l-222 -62l144 -182l-105 -74l-127 191l-129 -191l-102 74l141 182l-221 62l39 120l217 -77z" />
    <glyph glyph-name="plus" unicode="+" horiz-adv-x="1196" 
d="M1093 547v-144h-424v-423h-143v423h-424v144h424v424h143v-424h424z" />
    <glyph glyph-name="comma" unicode="," horiz-adv-x="569" 
d="M178 213l215 -0.000976562v-245c0 -179.333 -71.667 -269 -215 -269v78c58.667 2.66699 95 25.334 109 68.001c9.33301 26 14 65.667 14 119v36h-123v213z" />
    <glyph glyph-name="hyphen" unicode="-" horiz-adv-x="681" 
d="M581 639v-147h-487v147h487z" />
    <glyph glyph-name="hyphen" unicode="&#xad;" horiz-adv-x="681" 
d="M581 639v-147h-487v147h487z" />
    <glyph glyph-name="period" unicode="." horiz-adv-x="569" 
d="M391 213v-213h-213v213h213z" />
    <glyph glyph-name="slash" unicode="/" horiz-adv-x="569" 
d="M469 1493h113l-485 -1533h-113z" />
    <glyph glyph-name="zero" unicode="0" horiz-adv-x="1166" 
d="M583 1500c330 0 495 -250 495 -750s-165 -750 -495 -750s-495 250 -495 750s165 750 495 750zM583 1350c-230 0 -345 -200 -345 -600s115 -600 345 -600s345 200 345 600s-115 600 -345 600z" />
    <glyph glyph-name="one" unicode="1" horiz-adv-x="952" 
d="M431 1172h-205v95c141.333 0 222 77.667 242 233h113v-1350h205v-150h-560v150h205v1022z" />
    <glyph glyph-name="two" unicode="2" horiz-adv-x="1129" 
d="M889 1053c0 198 -105 297.001 -315 297.001s-315 -99 -315 -297h-150c0 298 155 447 465 447s465 -149 465 -447c0 -208 -127.333 -366.667 -382 -476l-191 -83c-138 -56.667 -207 -171.334 -207 -344.001h780v-150h-930v150c0 238.667 102.333 401.667 307 489l191 82
c188 81.333 282 192 282 332z" />
    <glyph glyph-name="three" unicode="3" horiz-adv-x="1143" 
d="M562 861c190 0 285 81.668 285 245.001c0 162.667 -95 244 -285 244s-285 -81.333 -285 -244h-150c0 262.667 145 394 435 394s435 -130.667 435 -392c0 -146.667 -45.333 -252.334 -136 -317.001c110.667 -68.667 166 -188.667 166 -360c0 -287.333 -155 -431 -465 -431
s-465 144.333 -465 433h150c0 -188.667 105 -283 315 -283s315 94.333 315 283c0 188 -105 282 -315 282h-78v146h78z" />
    <glyph glyph-name="four" unicode="4" horiz-adv-x="1091" 
d="M698 1231l-477 -712h477v712zM698 1500h150v-981h192v-150h-192v-369h-150v369h-658v150z" />
    <glyph glyph-name="five" unicode="5" horiz-adv-x="1146" 
d="M1039 500c0 -333.333 -145.666 -500 -436.999 -500c-285.333 -0 -444.666 132.333 -477.999 397h150c33.333 -164.667 142.666 -247 327.999 -247c191.333 0 287 116.667 287 350s-92.333 350 -277 350c-134.667 0 -230.667 -42.667 -288 -128h-145l70 778h720v-178h-585
l-37 -373c71.333 34 159.666 51 264.999 51c284.667 0 427 -166.667 427 -500z" />
    <glyph glyph-name="six" unicode="6" horiz-adv-x="1082" 
d="M243 573c28.667 -282 130.999 -423 306.999 -423c210 0 315 108.333 315 325s-105 325 -315 325c-175.333 0 -277.666 -75.667 -306.999 -227zM549.999 0c-310 0 -465 250 -465 750s171.667 750 515 750c276.667 0 415 -117.333 415 -352h-150
c0 134.667 -88.333 202 -265 202c-218.667 0 -339 -162 -361 -486c75.333 57.333 179 86 311 86c310 0 465 -158.333 465 -475s-155 -475 -465 -475z" />
    <glyph glyph-name="seven" unicode="7" horiz-adv-x="1103" 
d="M1029 1350l-533 -1350h-161l534 1350h-770v150h930v-150z" />
    <glyph glyph-name="eight" unicode="8" horiz-adv-x="1078" 
d="M539 1350c-190 0 -285 -83.333 -285 -250s95 -250 285 -250s285 83.333 285 250s-95 250 -285 250zM539 700c-210 0 -315 -91.667 -315 -275s105 -275 315 -275s315 91.667 315 275s-105 275 -315 275zM237 780c-88.667 65.333 -133 172 -133 320
c0 266.667 145 400 435 400s435 -133.333 435 -400c0 -148 -44.333 -254.667 -133 -320c108.667 -68.667 163 -187 163 -355c0 -283.333 -155 -425 -465 -425s-465 141.667 -465 425c0 168 54.333 286.333 163 355z" />
    <glyph glyph-name="nine" unicode="9" horiz-adv-x="1082" 
d="M839 927c-28.667 282 -130.999 423 -306.999 423c-210 0 -315 -108.333 -315 -325s105 -325 315 -325c175.333 0 277.666 75.667 306.999 227zM532.001 1500c310 0 465 -250 465 -750s-171.667 -750 -515 -750c-276.667 -0 -415 117.333 -415 352h150
c0 -134.667 88.333 -202 265 -202c218.667 0 339 162 361 486c-75.333 -57.333 -179 -86 -311 -86c-310 0 -465 158.333 -465 475s155 475 465 475z" />
    <glyph glyph-name="colon" unicode=":" horiz-adv-x="569" 
d="M438 213v-213h-213v213h213zM438 1073v-213h-213v213h213z" />
    <glyph glyph-name="semicolon" unicode=";" horiz-adv-x="569" 
d="M440 1073v-213h-213v213h213zM225 213l215 -0.000976562v-245c0 -179.333 -71.667 -269 -215 -269v78c58.667 2.66699 95 25.334 109 68.001c9.33301 26 14 65.667 14 119v36h-123v213z" />
    <glyph glyph-name="semicolon" unicode="&#x37e;" horiz-adv-x="569" 
d="M440 1073v-213h-213v213h213zM225 213l215 -0.000976562v-245c0 -179.333 -71.667 -269 -215 -269v78c58.667 2.66699 95 25.334 109 68.001c9.33301 26 14 65.667 14 119v36h-123v213z" />
    <glyph glyph-name="less" unicode="&#x3c;" horiz-adv-x="1196" 
d="M92 406v141l1001 424v-162l-806 -330l806 -336v-161z" />
    <glyph glyph-name="equal" unicode="=" horiz-adv-x="1196" 
d="M1093 723v-143h-991v143h991zM1093 371v-144h-991v144h991z" />
    <glyph glyph-name="greater" unicode="&#x3e;" horiz-adv-x="1196" 
d="M1103 547v-141l-1001 -424v161l807 330l-807 336v162z" />
    <glyph glyph-name="question" unicode="?" horiz-adv-x="1585" 
d="M968 408l-184 0.000976562v112c0 68.667 19 128 57 178c23.333 30 59 67.667 107 113l49 43c100.667 90 151.667 180 153 270c0 96 -41.667 164.333 -125 205l-63 21c-23.333 5.33301 -48 8 -74 8c-112 0 -188.333 -39.667 -229 -119
c-23.333 -46.667 -35 -113.667 -35 -201h-174c0 144 30.667 255.667 92 335c62 79.333 154.333 126 277 140c26 3.33301 52.667 5 80 5c172 0 296 -56.667 372 -170l33 -62c20.667 -49.333 31 -103.333 31 -162c0 -95.333 -35 -183.333 -105 -264
c-26 -31.333 -59.333 -65.333 -100 -102c-86 -79.333 -136 -137.333 -150 -174c-8 -20.667 -12 -47.334 -12 -80.001v-96zM968 213.001v-213h-184v213h184z" />
    <glyph glyph-name="at" unicode="@" horiz-adv-x="2078" 
d="M1361 1026h170.001l-184 -573c-16.667 -48 -25 -82.333 -25 -103c0 -36.667 20 -64 60 -82c13.333 -5.33301 27.666 -8 42.999 -8c87.333 0 167 49.333 239 148c70 96.667 105 204.334 105 323.001c0 164 -66.333 306.667 -199 428c-135.333 126 -299 193 -491 201h-31
c-200.667 0 -378.334 -69.667 -533.001 -209l-69 -70c-135.333 -154 -203 -328 -203 -522c0 -192.667 71.667 -355 215 -487c147.333 -136.667 331.666 -205 552.999 -205c108 0 239.667 22 395 66l58 -137c-153.333 -57.333 -307.666 -86 -462.999 -86
c-246 0 -458.333 73 -637 219c-166.667 136 -263 304.333 -289 505c-4 31.333 -6 62.666 -6 93.999c0 210.667 65 404.667 195 582c38 53.333 81 101 129 143c147.333 134 324 218 530 252c50.667 8.66699 101.334 13 152.001 13c226.667 0 423.667 -69 591 -207
c158.667 -128.667 250.334 -285 275.001 -469c4 -28.667 6 -57.334 6 -86.001c0 -165.333 -58.667 -317.666 -176 -456.999c-104 -121.333 -231 -182 -381 -182c-131.333 0 -206.333 52.333 -225 157c-90 -98 -187 -147 -291 -147c-112 0 -200 47 -264 141
c-46.667 67.333 -70 145.333 -70 234c0 148.667 54 280.334 162 395.001c105.333 113.333 226.666 170.666 363.999 171.999c114.667 0 198 -59.333 250 -178zM1054 938c-90 0 -169 -48.332 -237 -144.999c-62 -86 -93 -183.667 -93 -293c0 -92 32.333 -161 97 -207
c32.667 -23.333 68 -35 106 -35c79.333 0 149 44.333 209 133c45.333 65.333 78.666 155.666 99.999 270.999c6 30 9.66699 56.333 11 79c4 74 -24 130 -84 168c-33.333 19.333 -69.666 29 -108.999 29z" />
    <glyph glyph-name="A" unicode="A" horiz-adv-x="1222" 
d="M847 597l-236 685l-236 -685h472zM694 1500l518 -1500h-159l-154 447h-576l-154 -447h-159l518 1500h166z" />
    <glyph glyph-name="B" unicode="B" horiz-adv-x="1257" 
d="M311 710v-560h400c113.333 0 198.333 23.333 255 70s85 116.667 85 210s-28.333 163.333 -85 210s-141.667 70 -255 70h-400zM661 860c113.333 0 198.333 20.334 255 61.001c56.667 41.333 85 102.666 85 183.999c0 82 -28.333 143.333 -85 184s-141.667 61 -255 61h-350
v-490h350zM161 1500l499.999 -0.00390625c163.333 0 286 -33 368 -99c81.333 -65.333 122 -164 122 -296c0 -69.333 -11.333 -129.666 -34 -180.999s-57 -93.666 -103 -126.999c62.667 -33.333 109.334 -80.666 140.001 -141.999c31.333 -61.333 47 -136.333 47 -225
c0 -143.333 -40.667 -250.666 -122 -321.999c-82 -72 -204.667 -108 -368 -108h-550v1500z" />
    <glyph glyph-name="C" unicode="C" horiz-adv-x="1253" 
d="M676 0c-200 0 -350 62.668 -450 188.001c-100 124.667 -150 312 -150 562s50 437.667 150 563c100 124.667 250 187 450 187c125.333 0 231 -24.333 317 -73c86 -49.333 152.333 -123 199 -221l-129 -82c-35.333 80.667 -85.333 141 -150 181c-64 40 -143 60 -237 60
c-150 0 -262.333 -51.333 -337 -154c-75.333 -102 -113 -255.667 -113 -461c0 -204.667 37.667 -358.334 113 -461.001c74.667 -102.667 187 -154 337 -154c98.667 0 181 22.333 247 67c66.667 44 116.667 110.333 150 199l136 -68c-44 -110.667 -110.667 -194 -200 -250
c-88.667 -55.333 -199.667 -83 -333 -83z" />
    <glyph glyph-name="D" unicode="D" horiz-adv-x="1325" 
d="M661 1350h-350v-1200h300c163.333 0 286 50 368 150c81.333 100 122 250 122 450s-36.667 350 -110 450s-183.333 150 -330 150zM1251 750c0 -250 -53.334 -437.333 -160.001 -562c-106.667 -125.333 -266.667 -188 -480 -188h-450v1500h500
c196.667 0 344.334 -62.333 443.001 -187c98 -125.333 147 -313 147 -563z" />
    <glyph glyph-name="E" unicode="E" horiz-adv-x="1278" 
d="M311 723v-573h890v-150h-1040v1500h1020v-150h-870v-477h840v-150h-840z" />
    <glyph glyph-name="F" unicode="F" horiz-adv-x="1216" 
d="M311 873h759v-150h-759v-723h-150v1500h1019v-150h-869v-477z" />
    <glyph glyph-name="G" unicode="G" horiz-adv-x="1308" 
d="M1050 425v183h-376v150h526v-758h-150v134c-95.333 -89.333 -225 -134 -389 -134c-194.667 0 -341 62.667 -439 188c-97.333 124.667 -146 312 -146 562s48.667 437.667 146 563c98 124.667 244.333 187 439 187c242.667 0 409.667 -96.667 501 -290l-140 -67
c-70.667 138 -191 207 -361 207c-144.667 0 -253.334 -50 -326.001 -150s-109 -250 -109 -450s36.333 -350 109 -450s181.334 -150 326.001 -150c196 0 325.667 91.667 389 275z" />
    <glyph glyph-name="H" unicode="H" horiz-adv-x="1378" 
d="M311 693v-693h-150v1500h150v-657h756v657h150v-1500h-150v693h-756z" />
    <glyph glyph-name="I" unicode="I" horiz-adv-x="656" 
d="M253 1350h-150v150h450v-150h-150v-1200h150v-150h-450v150h150v1200z" />
    <glyph glyph-name="J" unicode="J" horiz-adv-x="941" 
d="M570 1350h-155v150h450v-150h-145v-950c0 -266.667 -110.333 -400 -331 -400c-221.333 0 -332 126.667 -332 380h150c0 -153.333 60.667 -230 182 -230c120.667 0 181 83.333 181 250v950z" />
    <glyph glyph-name="K" unicode="K" horiz-adv-x="1231" 
d="M1036 0l-538 805l-187 -179v-626h-150v1500h150v-667l693 667h217l-613 -589l608 -911h-180z" />
    <glyph glyph-name="L" unicode="L" horiz-adv-x="1030" 
d="M311 150h709v-150h-859v1500h150v-1350z" />
    <glyph glyph-name="M" unicode="M" horiz-adv-x="1616" 
d="M808 225l-435 1275h-212v-1500h150v1218l416 -1218h162l416 1218v-1218h150v1500h-212z" />
    <glyph glyph-name="N" unicode="N" horiz-adv-x="1393" 
d="M311 1267v-1267h-150v1500h188l733 -1265v1265h150v-1500h-187z" />
    <glyph glyph-name="O" unicode="O" horiz-adv-x="1322" 
d="M661 1500c195.333 0 341.666 -62.333 438.999 -187c97.333 -125.333 146 -313 146 -563s-48.667 -437.333 -146 -562c-97.333 -125.333 -243.666 -188 -438.999 -188c-194.667 0 -341 62.667 -439 188c-97.333 124.667 -146 312 -146 562s48.667 437.667 146 563
c98 124.667 244.333 187 439 187zM661 1350c-144.667 0 -253.334 -50 -326.001 -150s-109 -250 -109 -450s36.333 -350 109 -450s181.334 -150 326.001 -150c145.333 0 254 50 326 150c72.667 100 109 250 109 450s-36.333 350 -109 450c-72 100 -180.667 150 -326 150z" />
    <glyph glyph-name="P" unicode="P" horiz-adv-x="1239" 
d="M1191 1090c0 -136.667 -41.333 -238.999 -124 -306.999c-82 -68.667 -205.667 -103 -371 -103h-385v-680h-150v1500h535c165.333 0 289 -34 371 -102c82.667 -68.667 124 -171.334 124 -308.001zM311 830.001h385c115.333 0 201.666 21.667 258.999 65s86 108.333 86 195
s-28.667 151.667 -86 195s-143.666 65 -258.999 65h-385v-520z" />
    <glyph glyph-name="Q" unicode="Q" horiz-adv-x="1334" 
d="M1017 348c52.667 98 79 232 79 402c0 200 -36.333 350 -109 450c-72 100 -180.667 150 -326 150c-144.667 0 -253.334 -50 -326.001 -150s-109 -250 -109 -450s36.333 -350 109 -450s181.334 -150 326.001 -150c106.667 0 193.667 27 261 81l-248 181l88 122zM1053 136
c-95.333 -90.667 -225.999 -136 -391.999 -136c-194.667 0 -341 62.667 -439 188c-97.333 124.667 -146 312 -146 562s48.667 437.667 146 563c98 124.667 244.333 187 439 187c195.333 0 341.666 -62.333 438.999 -187c97.333 -125.333 146 -313 146 -563
c0 -208.667 -34 -373.667 -102 -495l184 -134l-88 -121z" />
    <glyph glyph-name="R" unicode="R" horiz-adv-x="1252" 
d="M311 830h385c115.333 0 201.666 21.667 258.999 65s86 108.333 86 195s-28.667 151.667 -86 195s-143.666 65 -258.999 65h-385v-520zM1076 0l-328.001 681.002c-17.333 -0.666992 -34.666 -1 -51.999 -1h-385v-680h-150v1500h535c165.333 0 289 -34 371 -102
c82.667 -68.667 124 -171.334 124 -308.001c0 -104 -24 -188.333 -72 -253s-120 -109.334 -216 -134.001l339 -703h-166z" />
    <glyph glyph-name="S" unicode="S" horiz-adv-x="1204" 
d="M615 1500c332 0 498 -133.334 498 -400.001h-150c0 166.667 -116 250 -348 250s-348 -67.667 -348 -203c0 -136 81 -221 243 -255l244 -53c259.333 -55.333 389 -202 389 -440c0 -266 -176 -399 -528 -399s-528 166.667 -528 500h150c0 -233.333 126 -350 378 -350
s378 83 378 249c0 166.667 -91 269.667 -273 309l-244 53c-239.333 48.667 -359 177.334 -359 386.001c0 235.333 166 353 498 353z" />
    <glyph glyph-name="T" unicode="T" horiz-adv-x="1076" 
d="M464 1350h-454v150h1056v-150h-452v-1350h-150v1350z" />
    <glyph glyph-name="U" unicode="U" horiz-adv-x="1386" 
d="M693 0c-366.667 0 -550 166.667 -550 500v1000h150v-1000c0 -233.333 133.333 -350 400 -350s400 116.667 400 350v1000h150v-1000c0 -333.333 -183.333 -500 -550 -500z" />
    <glyph glyph-name="V" unicode="V" horiz-adv-x="1222" 
d="M1053 1500h159l-518 -1500h-166l-518 1500h159l442 -1282z" />
    <glyph glyph-name="W" unicode="W" horiz-adv-x="1999" 
d="M1079 1500l377 -1283l376 1283h157l-441 -1500h-185l-363 1236l-364 -1236h-185l-441 1500h157l377 -1283l376 1283h159z" />
    <glyph glyph-name="X" unicode="X" horiz-adv-x="1258" 
d="M629 619l-428 -619h-183l520 751l-518 749h183l426 -616l426 616h183l-517 -749l519 -751h-183z" />
    <glyph glyph-name="Y" unicode="Y" horiz-adv-x="1212" 
d="M531 631l-521 869h175l421 -703l421 703h175l-521 -869v-622h-150v622z" />
    <glyph glyph-name="Z" unicode="Z" horiz-adv-x="1193" 
d="M930 1350h-854v150h1041v-150l-853 -1200h853v-150h-1041v150z" />
    <glyph glyph-name="bracketleft" unicode="[" horiz-adv-x="665" 
d="M176 1500h381v-150h-231v-1634h231v-150h-381v1934z" />
    <glyph glyph-name="backslash" unicode="\" horiz-adv-x="752" 
d="M215 1500l485 -1533h-163l-485 1533h163z" />
    <glyph glyph-name="bracketright" unicode="]" horiz-adv-x="665" 
d="M339 1350h-231v150h381v-1934h-381v150h231v1634z" />
    <glyph glyph-name="asciicircum" unicode="^" horiz-adv-x="1046" 
d="M446 1500h150l317 -778h-141l-250 614l-248 -614h-141z" />
    <glyph glyph-name="underscore" unicode="_" horiz-adv-x="1197" 
d="M1213 -241v-135h-1229v135h1229z" />
    <glyph glyph-name="grave" unicode="`" horiz-adv-x="681" 
d="M220 1516l223 -304h-123l-275 304h175z" />
    <glyph glyph-name="a" unicode="a" horiz-adv-x="1115" 
d="M819 620c-58 -24 -132.997 -42.332 -224.997 -54.999c-124.667 -17.333 -218.334 -46.333 -281.001 -87s-94 -93 -94 -157c0 -56.667 18.333 -99.334 55 -128.001s91.667 -43 165 -43c71.333 0 138.666 18 201.999 54s122.666 89.667 177.999 161v255zM69.0029 850.001
c0 96.667 37.6641 169.333 112.997 218c74.667 48 187 72 337 72s262.667 -25.667 338 -77c74.667 -52 112 -129.667 112 -233v-830h-150v186c-55.333 -62 -114.666 -108.333 -177.999 -139c-63.333 -31.333 -130.666 -47 -201.999 -47
c-123.333 0 -215.666 26.667 -276.999 80c-62 54 -93 134.333 -93 241c0 104 41.667 187.333 125 250c82.667 63.333 207 105.666 373 126.999c168 22.667 252 53.334 252 92.001v40c0 53.333 -25 93.333 -75 120s-125 40 -225 40s-175 -11.667 -225 -35
s-75 -58.333 -75 -105h-150z" />
    <glyph glyph-name="b" unicode="b" horiz-adv-x="1115" 
d="M296 0h-150v1500h150v-527c64 111.333 164 167 300 167c300 0 450 -190 450 -570s-150 -570 -450 -570c-136 0 -236 55.667 -300 167v-167zM296 570c0 -131.333 25.5 -234.167 76.5 -308.5s125.5 -111.5 223.5 -111.5c200 0 300 140 300 420s-100 420 -300 420
c-98 0 -172.5 -37 -223.5 -111s-76.5 -177 -76.5 -309z" />
    <glyph glyph-name="c" unicode="c" horiz-adv-x="1031" 
d="M901 143c-79.333 -95.333 -198.332 -143.001 -356.999 -143.001c-158 0 -276.667 47.667 -356 143c-79.333 94.667 -119 237 -119 427s39.667 332.667 119 428c79.333 94.667 198 142 356 142c158.667 0 277.667 -47.333 357 -142
c15.333 -19.333 29.333 -40.666 42 -63.999l-131 -76c-6.66699 11.333 -13.334 21.666 -20.001 30.999c-52 67.333 -134.667 101 -248 101s-195.666 -33.667 -246.999 -101c-52 -67.333 -78 -173.666 -78 -318.999c0 -144.667 26 -250.667 78 -318
c51.333 -68 133.666 -102 246.999 -102s196 34 248 102c20.667 26.667 37 60 49 100l145 -44c-20 -65.333 -48.333 -120.333 -85 -165z" />
    <glyph glyph-name="d" unicode="d" horiz-adv-x="1115" 
d="M819 167c-64 -111.333 -164 -167 -300 -167c-300 0 -450 190 -450 570s150 570 450 570c136 0 236 -55.667 300 -167v527h150v-1500h-150v167zM519 990c-200 0 -300 -139.999 -300 -419.999s100 -420 300 -420c98 0 172.5 37.167 223.5 111.5s76.5 177.166 76.5 308.499
c0 132 -25.5 235 -76.5 309s-125.5 111 -223.5 111z" />
    <glyph glyph-name="e" unicode="e" horiz-adv-x="1083" 
d="M219 545c3.33301 -132 29.332 -229.667 77.999 -293c51.333 -68 133.666 -102 246.999 -102s196 34 248 102c20.667 27.333 37.334 61 50.001 101h156c-19.333 -85.333 -51.666 -155.333 -96.999 -210c-79.333 -95.333 -198.333 -143 -357 -143
c-158 0 -276.667 47.5 -356 142.5s-119 237.5 -119 427.5s39.667 332.5 119 427.5s198 142.5 356 142.5c158.667 0 277.5 -47.5 356.5 -142.5s118.5 -237.5 118.5 -427.5v-25h-800zM860.999 695c-10.667 83.333 -33.668 148 -69.001 194c-52 67.333 -134.667 101 -248 101
s-195.666 -33.667 -246.999 -101c-36 -46 -59.333 -110.667 -70 -194h634z" />
    <glyph glyph-name="f" unicode="f" horiz-adv-x="501" 
d="M179 1140v110c0 166.667 114 250 342 250v-135c-128 0 -192 -38.333 -192 -115v-110h162v-150h-162v-990h-150v990h-140v150h140z" />
    <glyph glyph-name="g" unicode="g" horiz-adv-x="1115" 
d="M519 990c-200 0 -300 -139.999 -300 -419.999s100 -420 300 -420c98 0 172.5 37.167 223.5 111.5s76.5 177.166 76.5 308.499c0 132 -25.5 235 -76.5 309s-125.5 111 -223.5 111zM819 130.001v37c-64 -111.333 -164 -167 -300 -167c-300 0 -450 190 -450 570
s150 570 450 570c136 0 236 -55.667 300 -167v167h150v-1010c0 -326.667 -143.333 -490 -430 -490c-246.667 0 -396.667 91.667 -450 275l125 20c46.667 -96.667 155 -145 325 -145c186.667 0 280 113.333 280 340z" />
    <glyph glyph-name="h" unicode="h" horiz-adv-x="1184" 
d="M898 0v710c0 186.667 -86.667 280 -260 280c-91.333 0 -170.833 -40.333 -238.5 -121s-101.5 -137 -101.5 -169v-700h-150v1500h150v-557c104 131.333 217.333 197 340 197c273.333 0 410 -143.333 410 -430v-710h-150z" />
    <glyph glyph-name="i" unicode="i" horiz-adv-x="424" 
d="M137 1350v150h150v-150h-150zM287 1140v-1140h-150v1140h150z" />
    <glyph glyph-name="j" unicode="j" horiz-adv-x="474" 
d="M187 1350v150h150v-150h-150zM10 -360v150c118 0 177 53.333 177 160v1190h150v-1190c0 -206.667 -109 -310 -327 -310z" />
    <glyph glyph-name="k" unicode="k" horiz-adv-x="1054" 
d="M296 632l502 508h211l-469 -474l504 -666h-188l-422 558l-138 -140v-418h-150v1500h150v-868z" />
    <glyph glyph-name="l" unicode="l" horiz-adv-x="450" 
d="M300 1500v-1500h-150v1500h150z" />
    <glyph glyph-name="m" unicode="m" horiz-adv-x="1732" 
d="M946 700l-0.000976562 -700h-150v710c0 186.667 -73.333 280 -220 280c-91.333 0 -160.833 -40.333 -208.5 -121s-71.5 -137 -71.5 -169v-700h-150v1140h150v-197c90.667 131.333 194 197 310 197c164.667 0 269.334 -77.333 314.001 -232l26 35
c90.667 131.333 194 197 310 197c226.667 0 340 -146.667 340 -440v-700h-150v710c0 186.667 -73.333 280 -220 280c-91.333 0 -160.833 -40.333 -208.5 -121s-71.5 -137 -71.5 -169z" />
    <glyph glyph-name="n" unicode="n" horiz-adv-x="1184" 
d="M898 0v710c0 186.667 -86.667 280 -260 280c-91.333 0 -170.833 -40.333 -238.5 -121s-101.5 -137 -101.5 -169v-700h-150v1140h150v-197c104 131.333 217.333 197 340 197c273.333 0 410 -143.333 410 -430v-710h-150z" />
    <glyph glyph-name="o" unicode="o" horiz-adv-x="1084" 
d="M867 570c0 145.333 -25.667 251.666 -77 318.999c-52 67.333 -134.667 101 -248 101s-195.666 -33.667 -246.999 -101c-52 -67.333 -78 -173.666 -78 -318.999c0 -144.667 26 -250.667 78 -318c51.333 -68 133.666 -102 246.999 -102s196 34 248 102
c51.333 67.333 77 173.333 77 318zM67 570c0 190 39.667 332.667 119 428c79.333 94.667 198 142 356 142c158.667 0 277.667 -47.333 357 -142c78.667 -95.333 118 -238 118 -428s-39.333 -332.333 -118 -427c-79.333 -95.333 -198.333 -143 -357 -143
c-158 0 -276.667 47.667 -356 143c-79.333 94.667 -119 237 -119 427z" />
    <glyph glyph-name="p" unicode="p" horiz-adv-x="1115" 
d="M296 973c64 111.333 164 167 300 167c300 0 450 -190 450 -570s-150 -570 -450 -570c-136 0 -236 55.667 -300 167v-527h-150v1500h150v-167zM596 150c200 0 300 139.999 300 419.999s-100 420 -300 420c-98 0 -172.5 -37.167 -223.5 -111.5
s-76.5 -177.166 -76.5 -308.499c0 -132 25.5 -235 76.5 -309s125.5 -111 223.5 -111z" />
    <glyph glyph-name="q" unicode="q" horiz-adv-x="1115" 
d="M819 1140h150v-1500h-150v527c-64 -111.333 -164 -167 -300 -167c-300 0 -450 190 -450 570s150 570 450 570c136 0 236 -55.667 300 -167v167zM819 570c0 131.333 -25.5 234.167 -76.5 308.5s-125.5 111.5 -223.5 111.5c-200 0 -300 -140 -300 -420s100 -420 300 -420
c98 0 172.5 37 223.5 111s76.5 177 76.5 309z" />
    <glyph glyph-name="r" unicode="r" horiz-adv-x="676" 
d="M656 990c-98 0 -182.5 -40.333 -253.5 -121s-106.5 -137 -106.5 -169v-700h-150v1140h150v-197c110.667 131.333 230.667 197 360 197v-150z" />
    <glyph glyph-name="s" unicode="s" horiz-adv-x="1026" 
d="M77 361l150 0.00195312c0 -140.667 100 -211 300 -211s300 66.667 300 200c0 71.333 -64 123.666 -192 156.999l-160 39c-245.333 59.333 -368 160.666 -368 303.999c0 193.333 140 290 420 290s420 -107.333 420 -322h-150c0 114.667 -90 172 -270 172
s-270 -46.667 -270 -140c0 -71.333 87 -129.333 261 -174l160 -39c199.333 -48 299 -143.667 299 -287c0 -233.333 -150 -350 -450 -350s-450 120.333 -450 361z" />
    <glyph glyph-name="t" unicode="t" horiz-adv-x="566" 
d="M192 990h-161v150h161v360h150v-360h209v-150h-209v-700c0 -93.333 69.667 -140 209 -140v-150c-239.333 0 -359 96.667 -359 290v700z" />
    <glyph glyph-name="u" unicode="u" horiz-adv-x="1184" 
d="M286 1140v-710c0 -186.667 86.667 -280 260 -280c91.333 0 170.833 40.333 238.5 121s101.5 137 101.5 169v700h150v-1140h-150v197c-104 -131.333 -217.333 -197 -340 -197c-273.333 -0 -410 143.333 -410 430v710h150z" />
    <glyph glyph-name="v" unicode="v" horiz-adv-x="929" 
d="M756 1140h157l-368 -1140h-161l-368 1140h157l291 -898z" />
    <glyph glyph-name="w" unicode="w" horiz-adv-x="1448" 
d="M724 844l-220 -844h-191l-297 1140h155l238 -909l237 909h156l238 -909l237 909h155l-297 -1140h-191z" />
    <glyph glyph-name="x" unicode="x" horiz-adv-x="941" 
d="M471 433l-283 -433h-178l372 570l-372 570h178l283 -433l282 433h178l-371 -570l371 -570h-178z" />
    <glyph glyph-name="y" unicode="y" horiz-adv-x="1023" 
d="M492 266l353 874h162l-607 -1500h-162l169 418l-391 1082h159z" />
    <glyph glyph-name="z" unicode="z" horiz-adv-x="1071" 
d="M982 990l-732 -840h762v-150h-953v150l732 840h-702v150h893v-150z" />
    <glyph glyph-name="braceleft" unicode="{" horiz-adv-x="635" 
d="M60 600c74 15.333 119.167 37.835 135.5 67.502s24.5 101.5 24.5 215.5v342c0 139.333 48.333 224.666 145 255.999c24.667 8 50.667 12 78 12h94v-93c-121.333 0 -182 -49.667 -182 -149v-399c0 -180.667 -48.333 -288 -145 -322c96.667 -34 145 -141.333 145 -322v-399
c0 -99.333 60.667 -149 182 -149v-93h-94c-27.333 0 -53.333 4 -78 12c-96.667 31.333 -145 116.666 -145 255.999v342c0 114 -8.16699 185.833 -24.5 215.5s-61.5 52.167 -135.5 67.5v140z" />
    <glyph glyph-name="bar" unicode="|" horiz-adv-x="766" 
d="M308 1500h150v-1860h-150v1860z" />
    <glyph glyph-name="braceright" unicode="}" horiz-adv-x="635" 
d="M575 460c-74 -15.333 -119.167 -37.835 -135.5 -67.502s-24.5 -101.5 -24.5 -215.5v-342c0 -139.333 -48.333 -224.666 -145 -255.999c-24.667 -8 -50.667 -12 -78 -12h-94v93c121.333 0 182 49.667 182 149v399c0 180.667 48.333 288 145 322
c-96.667 34 -145 141.333 -145 322v399c0 99.333 -60.667 149 -182 149v93h94c27.333 0 53.333 -4 78 -12c96.667 -31.333 145 -116.666 145 -255.999v-342c0 -114 8.16699 -185.833 24.5 -215.5s61.5 -52.167 135.5 -67.5v-140z" />
    <glyph glyph-name="asciitilde" unicode="~" horiz-adv-x="1200" 
d="M800 250c-99.333 0 -173.999 41.667 -223.999 125l-38 63c-25.333 41.333 -71.333 62 -138 62c-66 0 -99 -33.333 -99 -100v-150h-151v151c0 166 82.333 249 247 249h3c99.333 0 174.666 -41.667 225.999 -125l37 -62c24.667 -42 70.667 -63 138 -63
c66 0 99 33.333 99 100v150h150v-150c0 -166 -83.333 -249.333 -250 -250z" />
    <glyph glyph-name="uni1780" unicode="&#x1780;" horiz-adv-x="1600" 
d="M585 802c18 -36.667 22.333 -77.668 13 -123.001l-135 -629c-6.66699 -33.333 -27.667 -50 -63 -50c-57.333 0 -86 18.667 -86 56c0 6 0.666992 12.333 2 19l133 625c6 28.667 0.833008 54.834 -15.5 78.501s-47.5 35.5 -93.5 35.5c0 18 12 35 36 51
c68.667 45.333 146.667 79 234 101c87.333 22.667 184 34 290 34c101.333 0 188 -10.667 260 -32s129 -53.666 171 -96.999c42.667 -42.667 70 -96.334 82 -161.001c12 -64 8.66699 -139 -10 -225l-92 -435c-7.33301 -33.333 -27.666 -50 -60.999 -50
c-68.667 0 -97.667 25 -87 75l93 444c12.667 58.667 15.667 109 9 151c-6 42.667 -22 76.667 -48 102c-50.667 52 -156.334 78 -317.001 78c-119.333 0 -224.333 -16 -315 -48zM672 1048c-38 22 -78.334 40.335 -121.001 55.002
c-43.333 15.333 -87.666 25.666 -132.999 30.999l-68 9c136 75.333 233.167 136.166 291.5 182.499s101.5 87.166 129.5 122.499c28.667 34.667 52 52 70 52s54 -30.333 108 -91l79 -91l103 91l51 46c33.333 30 60 45 80 45c20.667 0 40 -16.333 58 -49s50.667 -75 98 -127
c48 -52 90.333 -93.333 127 -124s55 -53.667 55 -69s-24 -18.333 -72 -9c-47.333 8.66699 -107.333 37.334 -180 86.001c-72 48.667 -119.333 90.667 -142 126l-221 -195l-160 183l-182 -142l61 -58c40 -39.333 54 -67 42 -83c-11.333 -16 -36 -13 -74 9z" />
    <glyph glyph-name="uni1781" unicode="&#x1781;" horiz-adv-x="1540" 
d="M524 262c29.333 -26 62.6611 -50.998 99.9941 -74.998c36.667 -24.667 82 -37 136 -37c66.667 0 146.667 47.333 240 142c132.667 136.667 229.334 246 290.001 328s95 120.333 103 115c8 -6 8 -27.667 0 -65s-29.667 -98.333 -65 -183
c-36 -85.333 -112.333 -189 -229 -311c-118.667 -117.333 -231.667 -176 -339 -176c-85.333 0 -170.333 28 -255 84s-134 105 -148 147c-1.33301 3.33301 -2 7.66602 -2 12.999c0 12.667 2.66699 30.334 8 53.001c6.66699 32.667 32.334 63.667 77.001 93l645 384
c67.333 39.333 120.333 81 159 125c38.667 44.667 63.334 92 74.001 142c11.333 52 12 97.333 2 136s-30.333 70.667 -61 96c-61.333 51.333 -151 77 -269 77c-86.667 0 -155 -16.333 -205 -49s-82 -81.667 -96 -147c-10 -51.333 -7.33301 -89.666 8 -114.999
c15.333 -26 43.666 -39 84.999 -39c47.333 0 55 10.333 23 31c-32.667 20.667 -38 57 -16 109c22 51.333 68.667 65.666 140 42.999c70.667 -23.333 93 -84.666 67 -183.999c-26.667 -99.333 -98 -149 -214 -149c-102.667 0 -174 27.667 -214 83
c-40 54.667 -48.667 137 -26 247c22.667 106.667 71.334 186.667 146.001 240s175.334 80 302.001 80c76.667 0 151.334 -10 224.001 -30c73.333 -20.667 131.333 -51.334 174 -92.001s70.334 -91.334 83.001 -152.001c5.33301 -26 8 -53.667 8 -83
c0 -40.667 -5 -84.334 -15 -131.001c-14.667 -71.333 -48 -138 -100 -200c-51.333 -62 -121 -119.333 -209 -172z" />
    <glyph glyph-name="uni1782" unicode="&#x1782;" horiz-adv-x="1600" 
d="M672 1048c-38 22 -78.334 40.335 -121.001 55.002c-43.333 15.333 -87.666 25.666 -132.999 30.999l-68 9c136 75.333 233.167 136.166 291.5 182.499s101.5 87.166 129.5 122.499c28.667 34.667 52 52 70 52s54 -30.333 108 -91l79 -91l103 91l51 46
c33.333 30 60 45 80 45c20.667 0 40 -16.333 58 -49s50.667 -75 98 -127c48 -52 90.333 -93.333 127 -124s55 -53.667 55 -69s-24 -18.333 -72 -9c-47.333 8.66699 -107.333 37.334 -180 86.001c-72 48.667 -119.333 90.667 -142 126l-221 -195l-160 183l-182 -142l61 -58
c40 -39.333 54 -67 42 -83c-11.333 -16 -36 -13 -74 9zM399.999 0.00195312c-57.333 0 -85.9971 18.667 -85.9971 56c0 6 0.666992 12.333 2 19l133 625c21.333 100 69.333 175 144 225c75.333 50 177.666 75 306.999 75c101.333 0 188 -10.667 260 -32
s129 -53.666 171 -96.999c42.667 -42.667 70 -96.334 82 -161.001c12 -64 8.66699 -139 -10 -225l-81 -385c-14.667 -66.667 -45.334 -100 -92.001 -100s-86.667 11.667 -120 35s-45 50 -35 80s31 49.333 63 58s56 50 72 124l46 222c12.667 58.667 15.667 109 9 151
c-6 42.667 -22 76.667 -48 102c-50.667 52 -156.334 78 -317.001 78c-98 0 -170.333 -15.333 -217 -46c-46 -31.333 -74.333 -73 -85 -125l-76 -353c105.333 116 198 174 278 174c100 0 150 -33.333 150 -100s-50 -100 -150 -100c0 33.333 -9 50 -27 50
s-71 -48.667 -159 -146l-132 -147c-32.667 -38 -60 -57 -82 -57z" />
    <glyph glyph-name="uni1783" unicode="&#x1783;" horiz-adv-x="2250" 
d="M569 1266c12 56 -1 84 -39 84c-58 0 -94 -33.333 -108 -100c-6.66699 -31.333 0 -55.333 20 -72c20.667 -16.667 55 -26 103 -28zM1306 31c-64 21.333 -112 52.999 -144 94.999c-40.667 -42 -91.334 -73.667 -152.001 -95c-60 -20.667 -130 -31 -210 -31
c-166.667 0 -285 31.333 -355 94s-92 156.334 -66 281.001l134 626c-98 6.66699 -166.667 34.667 -206 84c-26.667 32.667 -40 75 -40 127c0 25.333 3.33301 53 10 83c14.667 68.667 43 120 85 154s98 51 168 51c80.667 0 136.667 -21 168 -63s38 -105.333 20 -190
l-191 -897c-13.333 -66.667 2.66699 -116.667 48 -150s120.333 -50 225 -50c88.667 0 160 17 214 51c53.333 34.667 89.333 86.334 108 155.001l123 577c9.33301 43.333 -6.66699 87.666 -48 132.999c-42 44.667 -107.667 69.667 -197 75c98 57.333 176.667 119.333 236 186
s103 124.334 131 173.001c48 -72 99 -123.333 153 -154c53.333 -30.667 113.333 -32.667 180 -6c-57.333 -71.333 -121.333 -108.333 -192 -111c-70.667 -3.33301 -123.667 15.667 -159 57l-91 -98c56.667 -38.667 96 -82 118 -130s27 -100.667 15 -158l-117 -550
c-13.333 -66.667 2.66699 -116.667 48 -150s120.333 -50 225 -50c92.667 0 166.334 18.667 221.001 56c54.667 38 90 94.333 106 169l118 558c9.33301 43.333 -6.66699 87.666 -48 132.999c-42 44.667 -107.667 69.667 -197 75c98 57.333 176.667 119.333 236 186
s103 124.334 131 173.001c48 -72 96 -124.667 144 -158c47.333 -33.333 94.666 -47.333 142 -42l-50 -34c-34 -23.333 -76 -36 -126 -38c-50 -2.66699 -92.667 16.666 -128 57.999l-91 -98c56.667 -38.667 96 -82 118 -130s27 -100.667 15 -158l-117 -550
c-24.667 -116.667 -76.334 -204 -155.001 -262c-79.333 -58.667 -185.666 -88 -318.999 -88c-96.667 -0 -177 10.333 -241 31z" />
    <glyph glyph-name="uni1784" unicode="&#x1784;" horiz-adv-x="1600" 
d="M1114 1256c78 8.66699 120.334 28.333 127.001 59c9.33301 43.333 -11 65 -61 65c-40 0 -64.333 -13.333 -73 -40s-6.33398 -54.667 6.99902 -84zM1073 1102c-22.667 -1.33301 -46.998 -2.00098 -72.998 -2.00098c-155.333 0 -265.666 29.333 -330.999 88
c-64.667 58.667 -84.667 146.334 -60 263.001c18 84 62.667 155.667 134 215c71.333 60 184.333 105.667 339 137c128 30.667 218 67.667 270 111s84.333 94.666 97 153.999c7.33301 28.667 18.666 49 33.999 61c11.333 8 24.333 12 39 12
c7.33301 0 14.666 -0.666992 21.999 -2c24.667 -4.66699 41.334 -15.667 50.001 -33c5.33301 -9.33301 8 -20.666 8 -34c0 -10 -1.66699 -21.333 -5 -34c-19.333 -89.333 -64.333 -165 -135 -227c-70.667 -61.333 -185.667 -111.333 -345 -150
c-123.333 -24 -211.333 -56.667 -264 -98c-52.667 -40.667 -85 -88.334 -97 -143.001c-11.333 -53.333 0.666992 -94 36 -122c35.333 -28.667 93.666 -44.334 174.999 -47.001c-11.333 50.667 -8.66602 102.667 8.00098 156c19.333 62 87.666 93 204.999 93
c79.333 0 134.666 -18.667 165.999 -56s38.333 -93.666 21 -168.999c-12 -52 -43.333 -92.667 -94 -122c72.667 -38.667 124.667 -98 156 -178c33.333 -87.333 41.666 -170.666 24.999 -249.999l-133 -625c-14 -66.667 -46.333 -100 -97 -100c-51.333 0 -101.333 21 -150 63
l-221 187l-300 -187c-66.667 -42 -125.334 -63 -176.001 -63c-40 0 -60 20.667 -60 62c0 11.333 1.33301 24 4 38l138 647c7.33301 35.333 -5.66699 61.333 -39 78s-45 50 -35 100s48.333 75 115 75c50.667 0 87.334 -18 110.001 -54c22 -36 21 -111 -3 -225l-109 -513
l370 227l314 -268l124 583c8 40 1.66699 92.333 -19 157s-72.667 118.334 -156 161.001c-21.333 10.667 -40.666 22 -57.999 34z" />
    <glyph glyph-name="uni1785" unicode="&#x1785;" horiz-adv-x="1600" 
d="M672 1048c-38 22 -78.334 40.335 -121.001 55.002c-43.333 15.333 -87.666 25.666 -132.999 30.999l-68 9c136 75.333 233.167 136.166 291.5 182.499s101.5 87.166 129.5 122.499c28.667 34.667 52 52 70 52s54 -30.333 108 -91l79 -91l103 91l51 46
c33.333 30 60 45 80 45c20.667 0 40 -16.333 58 -49s50.667 -75 98 -127c48 -52 90.333 -93.333 127 -124s55 -53.667 55 -69s-24 -18.333 -72 -9c-47.333 8.66699 -107.333 37.334 -180 86.001c-72 48.667 -119.333 90.667 -142 126l-221 -195l-160 183l-182 -142l61 -58
c40 -39.333 54 -67 42 -83c-11.333 -16 -36 -13 -74 9zM527.999 350.002c-13.333 -64 -0.668945 -113.331 37.998 -147.998c39.333 -34.667 128 -52 266 -52c126 0 219.333 19.667 280 59s98.334 93.333 113.001 162l70 329c-63.333 33.333 -95 75 -95 125
s13.333 91.667 40 125s63.334 50 110.001 50c54.667 0 93.667 -8.33301 117 -25c23.333 -17.333 31.333 -43 24 -77l-117 -548c-24.667 -116.667 -82 -204 -172 -262c-90.667 -58.667 -214 -88 -370 -88c-177.333 0 -303 33.333 -377 100c-37.333 33.333 -62.333 73 -75 119
c-12 46 -12 98 0 156l73 342c15.333 74 10.333 121.5 -15 142.5s-38 52.167 -38 93.5s29.667 67.666 89 78.999c59.333 10.667 102 0 128 -32c26 -32.667 32 -82.334 18 -149.001z" />
    <glyph glyph-name="uni1786" unicode="&#x1786;" horiz-adv-x="1600" 
d="M672 1048c-38 22 -78.334 40.335 -121.001 55.002c-43.333 15.333 -87.666 25.666 -132.999 30.999l-68 9c136 75.333 233.167 136.166 291.5 182.499s101.5 87.166 129.5 122.499c28.667 34.667 52 52 70 52s54 -30.333 108 -91l79 -91l103 91l51 46
c33.333 30 60 45 80 45c20.667 0 40 -16.333 58 -49s50.667 -75 98 -127c48 -52 90.333 -93.333 127 -124s55 -53.667 55 -69s-24 -18.333 -72 -9c-47.333 8.66699 -107.333 37.334 -180 86.001c-72 48.667 -119.333 90.667 -142 126l-221 -195l-160 183l-182 -142l61 -58
c40 -39.333 54 -67 42 -83c-11.333 -16 -36 -13 -74 9zM949.999 483.002c12.667 -14 35.001 -20.9971 67.001 -20.9971c50 0 75 -25 75 -75s-25 -75 -75 -75c-94.667 0 -160 23 -196 69c-34.667 44 -43 109.333 -25 196c16.667 76 48.667 132.667 96 170
c45.333 35.333 104.666 53 177.999 53c126 0 215 -33.333 267 -100c58.667 -75.333 71 -192 37 -350c-24.667 -116.667 -82 -204 -172 -262c-90.667 -58.667 -181.334 -88 -272.001 -88c-96.667 0 -177.667 25 -243 75c-66 50 -111.667 75 -137 75
c-42.667 0 -67.667 -17.333 -75 -52c-14.667 -65.333 -39.667 -98 -75 -98c-55.333 0 -83 22.667 -83 68c0 9.33301 1.33301 19.666 4 30.999l132 618c15.333 74 10.333 121.5 -15 142.5s-38 52.167 -38 93.5s29.667 67.666 89 78.999c59.333 10.667 102 0 128 -32
c26 -32.667 32 -82.334 18 -149.001l-118 -553c10.667 1.33301 21.667 2 33 2c55.333 0 126.666 -37.333 213.999 -112c29.333 -25.333 84.666 -38 165.999 -38c60.667 0 121.334 19.667 182.001 59s98.334 93.333 113.001 162c22 101.333 16.667 175 -16 221
c-27.333 38.667 -73.666 58 -138.999 58c-32.667 0 -59.667 -8.33301 -81 -25c-23.333 -18.667 -39.333 -48 -48 -88c-5.33301 -24 -2.33301 -42 9 -54z" />
    <glyph glyph-name="uni1787" unicode="&#x1787;" horiz-adv-x="1600" 
d="M672 1048c-38 22 -78.333 40.3359 -121 55.0029c-43.333 15.333 -87.666 25.666 -132.999 30.999l-68 9c136 75.333 233.167 136.166 291.5 182.499s101.5 87.166 129.5 122.499c28.667 34.667 52 52 70 52s54 -30.333 108 -91c32 -36 68.667 -63.333 110 -82
c42 -18 89 -27 141 -27c74 0 137.667 31.333 191 94c53.333 62 97 155.333 131 280c11.333 42 24.666 71.667 39.999 89c12.667 14 26 21 40 21c4.66699 0 9.33398 -0.666992 14.001 -2c20.667 -6 33.667 -20 39 -42c2.66699 -8.66699 4 -18.667 4 -30
c0 -17.333 -3 -37.666 -9 -60.999c-36 -166.667 -91.667 -291.334 -167 -374.001c-74.667 -83.333 -169 -125 -283 -125c-74.667 0 -143.334 14.333 -206.001 43s-115.667 67.667 -159 117l-175 -146l44 -42c40 -39.333 54 -67 42 -83c-11.333 -16 -36 -13 -74 9z
M498 208.003l370.002 227.001l314 -268l140 657c8 40 6.33301 68.333 -5 85s-17 36 -17 58s16.667 33 50 33s66 -13.667 98 -41c31.333 -27.333 38.666 -80.666 21.999 -159.999l-149 -699c-14 -66.667 -46.333 -100 -97 -100c-51.333 0 -101.333 21 -150 63l-221 187
l-300 -187c-66.667 -42 -125.334 -63 -176.001 -63c-40 0 -60 20.667 -60 62c0 11.333 1.33301 24 4 38l132 617c15.333 74 10.333 121.5 -15 142.5s-38 52.167 -38 93.5s29.667 67.666 89 78.999c59.333 10.667 102 0 128 -32c26 -32.667 32 -82.334 18 -149.001z" />
    <glyph glyph-name="uni1788" unicode="&#x1788;" horiz-adv-x="2998" 
d="M1264 1019c12.667 58.667 15.667 108.999 9 150.999c-6 42.667 -22 76.667 -48 102c-50.667 52 -133 78 -247 78c-78 0 -140.333 -15.333 -187 -46c-46 -31.333 -74.333 -73 -85 -125l-146 -681c12.667 1.33301 26 2 40 2c36 0 69.667 -18.667 101 -56
c30.667 -38 37.334 -88 20.001 -150c-18 -62 -59.333 -126.333 -124 -193c-64.667 -67.333 -114.667 -101 -150 -101s-65 16.667 -89 50c-14.667 20.667 -22 47.667 -22 81c0 20.667 2.66699 43.667 8 69l213 1000c21.333 100 69.333 175 144 225
c75.333 50 167.666 75 276.999 75c54.667 0 118 -10.667 190 -32s129 -53.666 171 -96.999c42.667 -42.667 70 -96.334 82 -161.001c12 -64 8.66699 -139 -10 -225l-136 -635c-13.333 -66.667 2.66699 -116.667 48 -150s120.333 -50 225 -50c88.667 0 160 17 214 51
c53.333 34.667 89.333 86.334 108 155.001l123 577c9.33301 43.333 -6.66699 87.666 -48 132.999c-42 44.667 -107.667 69.667 -197 75c98 57.333 176.667 119.333 236 186s103 124.334 131 173.001c48 -72 99 -123.333 153 -154c53.333 -30.667 113.333 -32.667 180 -6
c-57.333 -71.333 -121.333 -108.333 -192 -111c-70.667 -3.33301 -123.667 15.667 -159 57l-91 -98c56.667 -38.667 96 -82 118 -130s27 -100.667 15 -158l-117 -550c-13.333 -66.667 2.66699 -116.667 48 -150s120.333 -50 225 -50c92.667 0 166.334 18.667 221 56
c54.667 38 90 94.333 106 169l118 558c9.33301 43.333 -6.66699 87.666 -48 132.999c-42 44.667 -107.667 69.667 -197 75c98 57.333 176.667 119.333 236 186s103 124.334 131 173.001c48 -72 96 -124.667 144 -158c47.333 -33.333 94.666 -47.333 142 -42l-50 -34
c-34 -23.333 -76 -36 -126 -38c-50 -2.66699 -92.667 16.666 -128 57.999l-91 -98c56.667 -38.667 96 -82 118 -130s27 -100.667 15 -158l-117 -550c-24.667 -116.667 -76.334 -204 -155 -262c-79.333 -58.667 -185.666 -88 -318.999 -88c-96.667 0 -177 10.333 -241 31
c-64 21.333 -112 53 -144 95c-40.667 -42 -91.334 -73.667 -152.001 -95c-60 -20.667 -130 -31 -210 -31c-166.667 0 -285 31.333 -355 94s-92 156.334 -66 281.001z" />
    <glyph glyph-name="uni1789" unicode="&#x1789;" horiz-adv-x="2550" 
d="M486 150c59.333 0 115.002 22.667 167.002 68c51.333 44.667 85.666 106 102.999 184c10 44 5.66699 71.333 -13 82s-49.334 16 -92.001 16c-60.667 0 -96.667 -26.333 -108 -79zM1613 1050c-2 -49.333 -9.66309 -102.67 -22.9961 -160.003l-168 -790
c-14.667 -66.667 -45.334 -100 -92.001 -100s-86.667 11.667 -120 35s-45 50 -35 80s31 49.333 63 58s56 50 72 124l131 617c20 86.667 28 159 24 217c-3.33301 58 -18.666 101.667 -45.999 131c-54.667 58.667 -92.334 88 -113.001 88c-21.333 0 -66 -41.667 -134 -125
l-102 -125l-63 125c-42.667 83.333 -73 125 -91 125s-58 -31 -120 -93c-62.667 -62.667 -105.334 -146.334 -128.001 -251.001l-78 -370c20 9.33301 40.333 14 61 14c69.333 0 118.666 -8.33301 147.999 -25c88 -51.333 122.667 -132.333 104 -243
c-22 -119.333 -75.667 -212.666 -161 -279.999c-85.333 -68 -170.666 -102 -255.999 -102c-62 0 -105 16.667 -129 50c-14.667 20.667 -22 48 -22 82c0 20.667 2.66699 43.334 8 68.001l176 836c28.667 134 88.334 245 179.001 333l68 65c45.333 44 95.666 66 150.999 66
s98.666 -27.667 129.999 -83l47 -84c47.333 54 88 96.333 122 127c33.333 31.333 71 47 113 47s107.667 -51.333 197 -154c24 -27.333 43 -58.333 57 -93c48 80 102.667 140 164 180s145.666 60 252.999 60c206.667 0 343.334 -46.667 410 -140c34 -46 54.333 -104 61 -174
c2 -17.333 3 -35.666 3 -54.999c0 -56.667 -7.66699 -120 -23 -190l-179 -841c-14.667 -66.667 -45.334 -100 -92 -100c-46.667 0 -86.667 11.667 -120 35s-45 50 -35 80s31 49.333 63 58s56 50 72 124l144 674c26.667 126.667 19 221.334 -23 284.001
c-42.667 63.333 -136.334 95 -281 95c-100 0 -178.333 -25 -235 -75c-56 -50 -106.667 -125 -152 -225zM350.006 -265.004c0 23.333 6.66797 42.002 20.001 56.002c12.667 13.333 31 18.666 55 15.999s52.667 -18.667 86 -48c235.333 -206 498.666 -309 789.999 -309
c290.667 0 482.334 27.333 575.001 82c92.667 54 143 100 151 138c7.33301 38 8.66602 60.833 3.99902 68.5s-15 11.5 -31 11.5c0 -33.333 -25 -50 -75 -50s-75 23.333 -75 70c0 86.667 50 130 150 130c70 0 120.667 -23.667 152 -71c31.333 -48 38.333 -112 21 -192
c-17.333 -80.667 -87 -157 -209 -229c-122.667 -72 -345.667 -108 -669 -108c-324 0 -620 116.667 -888 350c-38 33.333 -57 61.666 -57 84.999z" />
    <glyph glyph-name="uni178A" unicode="&#x178a;" horiz-adv-x="1600" 
d="M498 208l370.002 227.001l314 -268l140 657c8 40 6.33301 68.333 -5 85s-17 36 -17 58s16.667 33 50 33s66 -13.667 98 -41c31.333 -27.333 38.666 -80.666 21.999 -159.999l-149 -699c-14 -66.667 -46.333 -100 -97 -100c-51.333 0 -101.333 21 -150 63l-221 187
l-300 -187c-66.667 -42 -125.334 -63 -176.001 -63c-40 0 -60 20.667 -60 62c0 11.333 1.33301 24 4 38l132 617c15.333 74 10.333 121.5 -15 142.5s-38 52.167 -38 93.5s29.667 67.666 89 78.999c59.333 10.667 102 0 128 -32c26 -32.667 32 -82.334 18 -149.001z
M1640 1600c-12 -54 -34.999 -115.332 -68.999 -183.999c-30.667 -62.667 -68 -118 -112 -166c-39.333 -42.667 -92.333 -76 -159 -100c-90.667 -33.333 -207.334 -50 -350.001 -50c-154 0 -265 23 -333 69c-67.333 46.667 -91.666 116 -72.999 208c18 82 78.667 123 182 123
c76 0 114 -33.333 114 -100s-26 -100 -78 -100c-51.333 0 -74 16.667 -68 50c-7.33301 -33.333 10.334 -58.333 53.001 -75s110.334 -25 203.001 -25c120 0 217 13.333 291 40c54 19.333 95.667 45.666 125 78.999c33.333 37.333 62.666 80 87.999 128
c27.333 52.667 52.666 112.667 75.999 180c23.333 66.667 50.666 100 81.999 100c30.667 0 46 -16 46 -48s-6 -75 -18 -129z" />
    <glyph glyph-name="uni178B" unicode="&#x178b;" horiz-adv-x="1600" 
d="M555 1200c-63.333 33.333 -95 75.001 -95 125.001s13.333 91.667 40 125s63.334 50 110.001 50c48 0 84.333 -12.667 109 -38c25.333 -24.667 32.666 -61.334 21.999 -110.001l-202 -952c-17.333 -83.333 -2.33301 -145.666 45 -186.999c47.333 -42 136 -63 266 -63
c133.333 0 225.333 18.667 276 56c51.333 38 85 94.333 101 169l118 558c9.33301 43.333 -6.66699 87.666 -48 132.999c-42 44.667 -107.667 69.667 -197 75c74.667 38.667 135 88.167 181 148.5s82.333 130.5 109 210.5c76 -94 133.333 -140.667 172 -140
c38.667 0 58 53.333 58 160c0 122 -24.333 224.333 -73 307c-49.333 82 -62.666 123 -39.999 123c22 0 68 -41.667 138 -125s105 -208.333 105 -375c0 -66.667 -18 -119.667 -54 -159c-36 -40 -79 -61 -129 -63c-76.667 -2.66699 -132.667 16.666 -168 57.999l-51 -88
c63.333 -45.333 106 -92 128 -140s27 -100.667 15 -158l-117 -550c-24.667 -116.667 -76.334 -204 -155.001 -262c-79.333 -58.667 -202.333 -88 -369 -88s-292 36.667 -376 110c-63.333 54.667 -95 127 -95 217c0 30.667 3.66699 63.334 11 98.001z" />
    <glyph glyph-name="uni178C" unicode="&#x178c;" horiz-adv-x="1600" 
d="M1428 832c-54.667 -69.333 -132.001 -133.334 -232.001 -192.001l-629 -388l9 -24c16.667 -52 61.334 -78 134.001 -78c51.333 0 143 45 275 135l260 176c12 59.333 43.667 89 95 89s65.333 -54.667 42 -164l-105 -492c-13.333 -62.667 -45.666 -94 -96.999 -94
s-68.666 38 -51.999 114l73 339l-121 -84c-160 -112.667 -283.333 -169 -370 -169c-72 0 -130.667 14 -176 42s-77.333 70 -96 126l-21 63c-1.33301 3.33301 -2 7.66602 -2 12.999c0 12.667 2.66699 30.334 8 53.001c6.66699 32.667 32.334 63.667 77.001 93l636 384
c73.333 43.333 130 90.333 170 141c32 40 53 82 63 126c6.66699 33.333 5.66699 70.333 -3 111c-12.667 59.333 -41.667 127 -87 203c-154.667 -160 -243.667 -240 -267 -240s-76.666 78.333 -159.999 235c-90.667 -79.333 -146.334 -161.666 -167.001 -246.999
c-8 -49.333 -5.33301 -87 8 -113c13.333 -26.667 28.333 -40 45 -40s30 9.33301 40 28c9.33301 18.667 -10.667 41.667 -60 69c62.667 60 118.667 69.333 168 28s54.666 -97.333 15.999 -168c-38.667 -71.333 -93.334 -107 -164.001 -107s-126.334 31 -167.001 93
c-41.333 62 -52.333 140.667 -33 236c26 120.667 98.333 228.667 217 324c39.333 31.333 80.333 47 123 47c42 0 96 -69 162 -207c118 138 201.333 207 250 207c48 0 87.667 -25.667 119 -77c52.667 -86 87 -166.667 103 -242c6.66699 -32.667 10 -64 10 -94
c0 -26 -2.33301 -51 -7 -75c-14 -63.333 -43 -123.333 -87 -180z" />
    <glyph glyph-name="uni178D" unicode="&#x178d;" horiz-adv-x="2450" 
d="M486 150c59.333 0 115.002 22.667 167.002 68c51.333 44.667 85.666 106 102.999 184c10 44 5.66699 71.333 -13 82s-49.334 16 -92.001 16c-60.667 0 -96.667 -26.333 -108 -79zM2192 933c9.33301 43.333 -6.66309 87.6641 -47.9961 132.997
c-42 44.667 -107.667 69.667 -197 75c98 57.333 176.667 119.333 236 186s103 124.334 131 173.001c48 -72 96 -124.667 144 -158c47.333 -33.333 94.666 -47.333 141.999 -42l-50 -34c-34 -23.333 -76 -36 -126 -38c-50 -2.66699 -92.667 16.666 -128 57.999l-91 -98
c56.667 -38.667 96 -82 118 -130s27 -100.667 15 -158l-171 -800c-14 -66.667 -46.333 -100 -97 -100c-51.333 0 -101.333 21 -150 63l-171 157l-250 -157c-66.667 -42 -125.334 -63 -176.001 -63c-51.333 0 -70 33.333 -56 100l174 814c20 86.667 28 159 24 217
c-3.33301 58 -22 109 -56 153c-34.667 44 -62.334 66 -83.001 66c-21.333 0 -96.666 -59.667 -225.999 -179c-84.667 119.333 -141.334 179 -170.001 179c-50.667 -2.66699 -105.667 -31 -165 -85c-36.667 -39.333 -69 -125.666 -97 -258.999l-78 -370
c20 9.33301 40.333 14 61 14c69.333 0 118.666 -8.33301 147.999 -25c88 -51.333 122.667 -132.333 104 -243c-22 -119.333 -75.667 -212.666 -161 -279.999c-85.333 -68 -170.666 -102 -255.999 -102c-62 0 -105 16.667 -129 50c-14.667 20.667 -22 48 -22 82
c0 20.667 2.66699 43.334 8 68.001l176 836c34 162.667 87.667 278 161 346l86 68c45.333 33.333 105.666 50 180.999 50c55.333 0 98.666 -27.667 129.999 -83l45 -66c89.333 99.333 160 149 212 149s108.333 -37.333 169 -112c60 -74.667 95.333 -150.667 106 -228
s4.33398 -167.333 -18.999 -270l-146 -682l320 197l264 -238z" />
    <glyph glyph-name="uni178E" unicode="&#x178e;" horiz-adv-x="3300" 
d="M1364 1019c12.667 58.667 15.668 109 9.00098 151c-6 42.667 -22 76.667 -48 102c-50.667 52 -149.667 78 -297 78c-111.333 0 -190.333 -15.333 -237 -46c-46 -31.333 -74.333 -73 -85 -125l-146 -681c12.667 1.33301 26 2 40 2c36 0 69.667 -18.667 101 -56
c30.667 -38 37.334 -88 20.001 -150c-18 -62 -59.333 -126.333 -124 -193c-64.667 -67.333 -114.667 -101 -150 -101s-65 16.667 -89 50c-14.667 20.667 -22 47.667 -22 81c0 20.667 2.66699 43.667 8 69l213 1000c21.333 100 69.333 175 144 225
c75.333 50 184.333 75 327 75c88 0 168 -10.667 240 -32s129 -53.666 171 -96.999c42.667 -42.667 70 -96.334 82 -161.001c12 -64 8.66699 -139 -10 -225l-167 -777l388 227l302 -268l221 1033c21.333 100 69.333 175 144 225c75.333 50 194.333 75 357 75
c68 0 138 -10.667 210 -32s129 -53.666 171 -96.999c42.667 -42.667 70 -96.334 82 -161.001c4.66699 -25.333 7 -52 7 -80c0 -44 -5.66699 -92.333 -17 -145l-187 -885c-14.667 -66.667 -45.334 -100 -92.001 -100s-86.667 11.667 -120 35s-45 50 -35 80s31 49.333 63 58
s56 50 72 124l152 722c12.667 58.667 15.667 109 9 151c-6 42.667 -22 76.667 -48 102c-50.667 52 -139.667 78 -267 78c-131.333 0 -220.333 -15.333 -267 -46c-46 -31.333 -74.333 -73 -85 -125l-231 -1079c-14 -66.667 -46.333 -100 -97 -100
c-51.333 0 -101.333 21 -150 63l-209 187l-318 -187c-66.667 -42 -125.334 -63 -176.001 -63c-51.333 -0 -70 33.333 -56 100z" />
    <glyph glyph-name="uni178F" unicode="&#x178f;" horiz-adv-x="1600" 
d="M672 1048c-38 22 -78.334 40.335 -121.001 55.002c-43.333 15.333 -87.666 25.666 -132.999 30.999l-68 9c136 75.333 233.167 136.166 291.5 182.499s101.5 87.166 129.5 122.499c28.667 34.667 52 52 70 52s54 -30.333 108 -91l79 -91l103 91l51 46
c33.333 30 60 45 80 45c20.667 0 40 -16.333 58 -49s50.667 -75 98 -127c48 -52 90.333 -93.333 127 -124s55 -53.667 55 -69s-24 -18.333 -72 -9c-47.333 8.66699 -107.333 37.334 -180 86.001c-72 48.667 -119.333 90.667 -142 126l-221 -195l-160 183l-182 -142l61 -58
c40 -39.333 54 -67 42 -83c-11.333 -16 -36 -13 -74 9zM485.999 150.002c59.333 0 108.332 22.666 146.999 67.999c38 44.667 62 89.334 72 134.001c10 44 5.66699 71.333 -13 82s-42.667 16 -72 16c-47.333 0 -76.666 -26.333 -87.999 -79zM448.998 700.001
c21.333 100 69.3369 175 144.004 225c75.333 50 177.666 75 306.999 75c101.333 0 188 -10.667 260 -32s129 -53.666 171 -96.999c42.667 -42.667 70 -96.334 82 -161.001c12 -64 8.66699 -139 -10 -225l-81 -385c-14.667 -66.667 -45.334 -100 -92.001 -100
s-86.667 11.667 -120 35s-45 50 -35 80s31 49.333 63 58s56 50 72 124l46 222c12.667 58.667 15.667 109 9 151c-6 42.667 -22 76.667 -48 102c-50.667 52 -156.334 78 -317.001 78c-98 0 -170.333 -15.333 -217 -46c-46 -31.333 -74.333 -73 -85 -125l-18 -81
c12.667 1.33301 26 2 40 2c69.333 0 123.666 -12.667 162.999 -38c64.667 -42.667 87.667 -119.334 69 -230.001c-14.667 -86 -58 -162.667 -130 -230c-72 -68 -150.667 -102 -236 -102c-62 0 -105 16.667 -129 50c-14.667 20.667 -22 48 -22 82
c0 20.667 2.66699 43.334 8 68.001z" />
    <glyph glyph-name="uni1790" unicode="&#x1790;" horiz-adv-x="1600" 
d="M528 350c-13.333 -64 -0.668945 -113.331 37.998 -147.998c39.333 -34.667 128 -52 266 -52c126 0 219.333 19.667 280 59s98.334 93.333 113.001 162l70 329c-63.333 33.333 -95 75 -95 125s13.333 91.667 40 125s63.334 50 110.001 50c41.333 0 76 -12.667 104 -38
c28.667 -25.333 36 -69.333 22 -132l-102 -480c-24.667 -116.667 -82 -204 -172 -262c-90.667 -58.667 -214 -88 -370 -88c-177.333 0 -303 33.333 -377 100c-37.333 33.333 -62.333 73 -75 119c-12 46 -12 98 0 156l73 342c15.333 74 10.333 121.5 -15 142.5
s-38 52.167 -38 93.5s29.667 67.666 89 78.999c59.333 10.667 102 0 128 -32c26 -32.667 32 -82.334 18 -149.001zM671.997 1048c-38 22 -78.333 40.3359 -121 55.0029c-43.333 15.333 -87.666 25.666 -132.999 30.999l-68 9c136 75.333 233.167 136.166 291.5 182.499
s101.5 87.166 129.5 122.499c28.667 34.667 52 52 70 52s54 -30.333 108 -91c32 -36 68.667 -63.333 110 -82c42 -18 89 -27 141 -27c74 0 137.667 31.333 191 94c53.333 62 97 155.333 131 280c11.333 42 24.666 71.667 39.999 89c12.667 14 26 21 40 21
c4.66699 0 9.33398 -0.666992 14.001 -2c20.667 -6 33.667 -20 39 -42c2.66699 -8.66699 4 -18.667 4 -30c0 -17.333 -3 -37.666 -9 -60.999c-36 -166.667 -91.667 -291.334 -167 -374.001c-74.667 -83.333 -169 -125 -283 -125c-74.667 0 -143.334 14.333 -206.001 43
s-115.667 67.667 -159 117l-175 -146l44 -42c40 -39.333 54 -67 42 -83c-11.333 -16 -36 -13 -74 9z" />
    <glyph glyph-name="uni1791" unicode="&#x1791;" horiz-adv-x="1550" 
d="M1166 734c-11.333 -14 -19.6689 -36 -25.002 -66l-3 -14c66.667 6.66699 102.667 22 108 46c6.66699 33.333 -8.66602 50 -45.999 50c-13.333 0 -24.666 -5.33301 -33.999 -16zM1072 853c34 31.333 76.666 46.9971 127.999 46.9971c36.667 0 68 -4 94 -12
c54.667 -16 88.334 -49 101.001 -99c7.33301 -32 6.33301 -70.667 -3 -116c-10 -46.667 -34.667 -83.667 -74 -111c-48.667 -34.667 -120 -54.667 -214 -60l-50 -228c-20 -95.333 -58 -166 -114 -212c-52 -41.333 -118.667 -62 -200 -62c-96.667 0 -165 21.667 -205 65
c-40.667 44.667 -51.667 112.334 -33 203.001l21 93c7.33301 33.333 -13.667 50 -63 50c7.33301 33.333 24 58.333 50 75s61.667 25 107 25c60.667 0 79 -59.333 55 -178l-18 -87c-8 -35.333 -2.66699 -61 16 -77c14.667 -12.667 38 -19 70 -19c50 0 89.667 15.333 119 46
c23.333 24.667 40 59.334 50 104.001l43 204c-172 14.667 -293 70.667 -363 168c-74.667 104.667 -90.667 257 -48 457c25.333 120 78.333 211 159 273c85.333 65.333 202 98 350 98c191.333 0 322.666 -32.667 393.999 -98c43.333 -39.333 65 -90 65 -152
c0 -22 -2.66699 -45 -8 -69c-10.667 -49.333 -33 -86.666 -67 -111.999c-35.333 -26 -83.333 -39 -144 -39c-93.333 0 -140 33.333 -140 100s40.667 100 122 100c-12.667 -49.333 -1.33398 -74 33.999 -74c25.333 0 41.333 19.667 48 59c8 37.333 -5 67 -39 89
c-47.333 30.667 -135.666 46 -264.999 46c-108 0 -192.333 -23.667 -253 -71c-55.333 -42.667 -91.333 -104.334 -108 -185.001c-31.333 -144.667 -18.666 -254 38.001 -328c50 -66.667 135.667 -104.667 257 -114l8 40c16 72.667 42.667 126.334 80 161.001z" />
    <glyph glyph-name="uni1792" unicode="&#x1792;" horiz-adv-x="1600" 
d="M672 1048c-38 22 -78.334 40.335 -121.001 55.002c-43.333 15.333 -87.666 25.666 -132.999 30.999l-68 9c136 75.333 233.167 136.166 291.5 182.499s101.5 87.166 129.5 122.499c28.667 34.667 52 52 70 52s54 -30.333 108 -91l79 -91l103 91l51 46
c33.333 30 60 45 80 45c20.667 0 40 -16.333 58 -49s50.667 -75 98 -127c48 -52 90.333 -93.333 127 -124s55 -53.667 55 -69s-24 -18.333 -72 -9c-47.333 8.66699 -107.333 37.334 -180 86.001c-72 48.667 -119.333 90.667 -142 126l-221 -195l-160 183l-182 -142l61 -58
c40 -39.333 54 -67 42 -83c-11.333 -16 -36 -13 -74 9zM1321 100.002c-14 -66.667 -46.333 -99.998 -97 -99.998c-51.333 0 -101.333 21 -150 63l-221 187l-300 -187c-66.667 -42 -125.334 -63 -176.001 -63c-40 0 -60 20.667 -60 62c0 11.333 1.33301 24 4 38l132 617
c15.333 74 10.333 121.5 -15 142.5s-38 52.167 -38 93.5s29.667 67.666 89 78.999c59.333 10.667 102 0 128 -32c26 -32.667 32 -82.334 18 -149.001l-137 -643l370 227l314 -268l113 533c-63.333 33.333 -95 75 -95 125s13.333 91.667 40 125s63.334 50 110.001 50
c41.333 0 76 -12.667 104 -38c28.667 -25.333 36 -69.333 22 -132z" />
    <glyph glyph-name="uni1793" unicode="&#x1793;" horiz-adv-x="1600" 
d="M403 479c7.33301 36.667 0.337891 60.6699 -20.9951 72.0029c-21.333 10.667 -32 31 -32 61s18 52 54 66c35.333 13.333 76 13.333 122 0c45.333 -14 61 -54.333 47 -121l-56 -259c10.667 1.33301 21.667 2 33 2c55.333 0 112.333 -25 171 -75
c5.33301 -4.66699 10.666 -9 15.999 -13c55.333 -41.333 119.666 -62 192.999 -62c60.667 0 121.334 19.667 182.001 59s98.334 93.333 113.001 162c23.333 110.667 16 193.334 -22 248.001c-38 54 -105.667 81 -203 81c-186.667 0 -316.667 43.667 -390 131
c-70.667 84 -88.334 209.333 -53.001 376c18.667 89.333 63 158 133 206c84 58 204 87 360 87c188.667 0 318.334 -35.667 389.001 -107c30 -29.333 49.333 -65.333 58 -108c4 -18.667 6 -38.334 6 -59.001c0 -26.667 -3.33301 -55.334 -10 -86.001
c-24.667 -113.333 -92.334 -170 -203.001 -170c-100 0 -150 29.667 -150 89s31.333 96.333 94 111c9.33301 -33.333 28 -50 56 -50c29.333 0 47.666 16 54.999 48c11.333 54.667 -2.33398 97 -41.001 127c-47.333 36.667 -132 55 -254 55c-124.667 0 -216 -21.333 -274 -64
c-38 -28 -62 -65 -72 -111c-22 -103.333 -11 -182 33 -236c48 -59.333 135.667 -89 263 -89c160 0 271.333 -41.667 334 -125c62 -83.333 75.333 -208.333 40 -375c-24.667 -116.667 -82 -204 -172 -262c-90.667 -58.667 -181.334 -88 -272.001 -88
c-90 0 -167.667 25 -233 75c-8 5.33301 -15.333 10.666 -22 15.999c-54.667 39.333 -96.334 59 -125.001 59c-42.667 0 -67.667 -17.333 -75 -52c-14.667 -65.333 -39.667 -98 -75 -98c-55.333 0 -83 22.667 -83 68c0 9.33301 1.33301 19.666 4 30.999z" />
    <glyph glyph-name="uni1794" unicode="&#x1794;" horiz-adv-x="1600" 
d="M499 933c9.33301 43.333 -6.66504 87.666 -47.998 132.999c-42 44.667 -107.667 69.667 -197 75c98 57.333 176.667 119.333 236 186s103 124.334 131 173.001c48 -72 99 -123.333 153 -154c53.333 -30.667 113.333 -32.667 180 -6
c-57.333 -71.333 -121.333 -108.333 -192 -111c-70.667 -3.33301 -123.667 15.667 -159 57l-91 -98c56.667 -38.667 96 -82 118 -130s27 -100.667 15 -158l-106 -500c-17.333 -83.333 -2.33301 -145.666 45 -186.999c47.333 -42 136 -63 266 -63
c133.333 0 225.333 18.667 276 56c51.333 38 85 94.333 101 169l118 558c9.33301 43.333 -6.66699 87.666 -48 132.999c-42 44.667 -107.667 69.667 -197 75c98 57.333 176.667 119.333 236 186s103 124.334 131 173.001c48 -72 96 -124.667 144 -158
c47.333 -33.333 93.666 -47.333 138.999 -42l-47 -34c-34 -23.333 -76 -36 -126 -38c-50 -2.66699 -92.667 16.666 -128 57.999l-91 -98c56.667 -38.667 96 -82 118 -130s27 -100.667 15 -158l-117 -550c-24.667 -116.667 -76.334 -204 -155.001 -262
c-79.333 -58.667 -202.333 -88 -369 -88s-292 36.667 -376 110c-84.667 73.333 -112.667 178.333 -84 315z" />
    <glyph glyph-name="uni1795" unicode="&#x1795;" horiz-adv-x="1600" 
d="M673 1048c-38 22 -78.333 40.3359 -121 55.0029c-43.333 15.333 -87.666 25.666 -132.999 30.999l-68 9c136 75.333 233.167 136.166 291.5 182.499s101.5 87.166 129.5 122.499c28.667 34.667 52 52 70 52s54 -30.333 108 -91c32 -36 68.667 -63.333 110 -82
c42 -18 89 -27 141 -27c74 0 137.667 31.333 191 94c53.333 62 97 155.333 131 280c11.333 42 24.666 71.667 39.999 89c12.667 14 26 21 40 21c4.66699 0 9.33398 -0.666992 14.001 -2c20.667 -6 33.667 -20 39 -42c2.66699 -8.66699 4 -18.667 4 -30
c0 -17.333 -3 -37.666 -9 -60.999c-36 -166.667 -91.667 -291.334 -167 -374.001c-74.667 -83.333 -169 -125 -283 -125c-74.667 0 -143.334 14.333 -206.001 43s-115.667 67.667 -159 117l-175 -146l44 -42c40 -39.333 54 -67 42 -83c-11.333 -16 -36 -13 -74 9z
M1310 766.003c12 56 9 84 -9 84c-58 0 -97 -24.333 -117 -73c-20.667 -49.333 -21 -82.333 -1 -99c20.667 -16.667 55 -26 103 -28zM1322 100.003c-14 -66.667 -46.333 -99.998 -97 -99.998c-51.333 0 -101.333 21 -150 63l-221 187l-300 -187
c-66.667 -42 -125.334 -63 -176.001 -63c-40 0 -60 20.667 -60 62c0 11.333 1.33301 24 4 38l132 617c15.333 74 10.333 121.5 -15 142.5s-38 52.167 -38 93.5s29.667 67.666 89 78.999c59.333 10.667 102 0 128 -32c26 -32.667 32 -82.334 18 -149.001l-137 -643l370 227
l314 -268l71 334c-98 6.66699 -166.667 34.667 -206 84c-39.333 48.667 -43.666 113 -12.999 193c30 80 69.333 137 118 171s98 51 148 51c60.667 0 106.667 -21 138 -63s38 -105.333 20 -190z" />
    <glyph glyph-name="uni1796" unicode="&#x1796;" horiz-adv-x="1700" 
d="M486 150c39.333 0 95.002 31 167.002 93c51.333 44.667 85.666 97.667 102.999 159c10 44 5.66699 71.333 -13 82s-49.334 16 -92.001 16c-60.667 0 -96.667 -26.333 -108 -79zM519.002 1036c34 162.667 78.666 267.332 133.999 313.999l101 82
c53.333 45.333 102 68 146 68c66.667 0 115.667 -27.667 147 -83l50 -77c106 106.667 185 160 237 160s110.667 -36.667 176 -110c64.667 -78.667 102.334 -156.667 113.001 -234c1.33301 -9.33301 2 -19.666 2 -30.999c0 -52.667 -11.667 -131 -35 -235l-168 -790
c-14.667 -66.667 -45.334 -100 -92.001 -100s-86.667 11.667 -120 35s-45 50 -35 80s31 49.333 63 58s56 50 72 124l131 617c24.667 110 37.334 181 38.001 213c-3.33301 58 -24.333 111 -63 159c-39.333 42.667 -69.333 64 -90 64c-21.333 0 -106.333 -66.667 -255 -200
c-85.333 133.333 -142.333 200 -171 200c-30.667 -2.66699 -58 -14.334 -82 -35.001l-72 -62c-24 -20.667 -50 -103 -78 -247l-78 -370c20 9.33301 40.333 14 61 14c69.333 0 118.666 -8.33301 147.999 -25c88 -51.333 122.667 -132.333 104 -243
c-22 -102.667 -75.667 -187.667 -161 -255c-105.333 -84.667 -190.666 -127 -255.999 -127c-62 0 -105 16.667 -129 50c-14.667 20.667 -22 48 -22 82c0 20.667 2.66699 43.334 8 68.001z" />
    <glyph glyph-name="uni1797" unicode="&#x1797;" horiz-adv-x="1600" 
d="M622 1048c-38 22 -78.334 40.335 -121.001 55.002c-43.333 15.333 -87.666 25.666 -132.999 30.999l-68 9c136 75.333 233.167 136.166 291.5 182.499s101.5 87.166 129.5 122.499c28.667 34.667 52 52 70 52s54 -30.333 108 -91l79 -91l103 91l51 46
c33.333 30 60 45 80 45c20.667 0 40 -16.333 58 -49s50.667 -75 98 -127c48 -52 90.333 -93.333 127 -124s55 -53.667 55 -69s-24 -18.333 -72 -9c-47.333 8.66699 -107.333 37.334 -180 86.001c-72 48.667 -119.333 90.667 -142 126l-221 -195l-160 183l-182 -142l61 -58
c40 -39.333 54 -67 42 -83c-11.333 -16 -36 -13 -74 9zM448.999 700.002c21.333 100 69.3359 175.001 144.003 225.001c75.333 50 177.666 75 306.999 75c101.333 0 188 -10.667 260 -32s129 -53.666 171 -96.999c42.667 -42.667 70 -96.334 82 -161.001
c12 -64 8.66699 -139 -10 -225l-81 -385c-14.667 -66.667 -45.334 -100 -92.001 -100s-86.667 11.667 -120 35s-45 50 -35 80s31 49.333 63 58s56 50 72 124l46 222c12.667 58.667 15.667 109 9 151c-6 42.667 -22 76.667 -48 102c-50.667 52 -156.334 78 -317.001 78
c-98 0 -170.333 -15.333 -217 -46c-46 -31.333 -74.333 -73 -85 -125l-113 -529c-14 -67.333 -31.667 -109 -53 -125c-21.333 -16.667 -43.333 -25 -66 -25c-49.333 0 -89.333 39.667 -120 119c-30.667 78.667 -46 153 -46 223c0 69.333 20.667 119.666 62 150.999
s90.333 37 147 17z" />
    <glyph glyph-name="uni1798" unicode="&#x1798;" horiz-adv-x="1600" 
d="M592 650l-53 -250.001c-17.333 -83.333 -2.33301 -145.666 45 -186.999c47.333 -42 136 -63 266 -63c133.333 0 225.333 18.667 276 56c51.333 38 85 94.333 101 169l58 275h-693zM624 799.999l693.002 0.000976562l28 133c9.33301 43.333 -6.66699 87.666 -48 132.999
c-42 44.667 -107.667 69.667 -197 75c98 57.333 176.667 119.333 236 186s103 124.334 131 173.001c48 -72 96 -124.667 144 -158c47.333 -33.333 93.666 -47.333 138.999 -42l-47 -34c-34 -23.333 -76 -36 -126 -38c-50 -2.66699 -92.667 16.666 -128 57.999l-91 -98
c56.667 -38.667 96 -82 118 -130s27 -100.667 15 -158l-117 -550c-24.667 -116.667 -76.334 -204 -155.001 -262c-79.333 -58.667 -202.333 -88 -369 -88s-292 36.667 -376 110c-84.667 73.333 -112.667 178.333 -84 315l109 508
c9.33301 43.333 -6.66699 87.666 -48 132.999c-42 44.667 -107.667 69.667 -197 75c98 57.333 176.667 119.333 236 186s103 124.334 131 173.001c48 -72 99 -123.333 153 -154c53.333 -30.667 113.333 -32.667 180 -6c-57.333 -71.333 -121.333 -108.333 -192 -111
c-70.667 -3.33301 -123.667 15.667 -159 57l-91 -98c56.667 -38.667 96 -82 118 -130s27 -100.667 15 -158z" />
    <glyph glyph-name="uni1799" unicode="&#x1799;" horiz-adv-x="2400" 
d="M579 1316c26 122.667 86.334 184 181.001 184c62 0 106 -25 132 -75c25.333 -50 30.333 -101.667 15 -155c-15.333 -54 -45 -91 -89 -111c-44 -20.667 -84 -22 -120 -4l-138 -660c-23.333 -106.667 -12 -190.667 34 -252c46 -62 131.333 -93 256 -93c122 0 210 17 264 51
c53.333 34.667 89.333 86.334 108 155.001l123 577c9.33301 43.333 -6.66699 87.666 -48 132.999c-42 44.667 -107.667 69.667 -197 75c98 57.333 176.667 119.333 236 186s103 124.334 131 173.001c48 -72 99 -123.333 153 -154c53.333 -30.667 113.333 -32.667 180 -6
c-57.333 -71.333 -121.333 -108.333 -192 -111c-70.667 -3.33301 -123.667 15.667 -159 57l-91 -98c56.667 -38.667 96 -82 118 -130s27 -100.667 15 -158l-117 -550c-13.333 -66.667 2.66699 -116.667 48 -150s127 -50 245 -50c112.667 0 196.334 18.667 251.001 56
c54.667 38 90 94.333 106 169l118 558c9.33301 43.333 -6.66699 87.666 -48 132.999c-42 44.667 -107.667 69.667 -197 75c98 57.333 176.667 119.333 236 186s103 124.334 131 173.001c48 -72 96 -124.667 144 -158c47.333 -33.333 94.666 -47.333 142 -42l-50 -34
c-34 -23.333 -76 -36 -126 -38c-50 -2.66699 -92.667 16.666 -128 57.999l-91 -98c56.667 -38.667 96 -82 118 -130s27 -100.667 15 -158l-117 -550c-24.667 -116.667 -76.334 -204 -155.001 -262c-79.333 -58.667 -195.666 -88 -348.999 -88c-110 -0 -197 10.333 -261 31
c-64 21.333 -112 53 -144 95c-40.667 -42 -91.334 -73.667 -152.001 -95c-60 -20.667 -146.667 -31 -260 -31c-166.667 -0 -279.334 28.333 -338.001 85s-96 120.667 -112 192c-6.66699 29.333 -10 60.333 -10 93c0 46.667 7 96.667 21 150z" />
    <glyph glyph-name="uni179A" unicode="&#x179a;" horiz-adv-x="849" 
d="M577 150c-14 -67.333 -31.665 -108.998 -52.998 -124.998c-21.333 -16.667 -43.333 -25 -66 -25c-49.333 0 -95 49 -137 147c-34.667 80.667 -52 150 -52 208c0 12 0.666992 23.333 2 34c9.33301 63.333 35.666 106.333 78.999 129c44 21.333 82.333 24.666 115 9.99902
c12.667 -6 24.667 -12 36 -18l90 423c9.33301 43.333 -6.66699 87.666 -48 132.999c-42 44.667 -107.667 69.667 -197 75c98 57.333 176.667 119.333 236 186s103 124.334 131 173.001c48 -72 96 -124.667 144 -158c47.333 -33.333 94.666 -47.333 141.999 -42l-50 -34
c-34 -23.333 -76 -36 -126 -38c-50 -2.66699 -92.667 16.666 -128 57.999l-91 -98c56.667 -38.667 96 -82 118 -130s27 -100.667 15 -158z" />
    <glyph glyph-name="uni179B" unicode="&#x179b;" horiz-adv-x="2351" 
d="M1628 0c-186.667 0 -314.999 31.333 -384.999 94s-92 156.334 -66 281.001l137 644c12.667 58.667 15.667 109 9 151c-6 42.667 -22 76.667 -48 102c-50.667 52 -133 78 -247 78c-111.333 0 -190.333 -15.333 -237 -46c-46 -31.333 -74.333 -73 -85 -125l-146 -681
c12.667 1.33301 26 2 40 2c36 0 69.667 -18.667 101 -56c30.667 -38 37.334 -88 20.001 -150c-18 -62 -59.333 -126.333 -124 -193c-64.667 -67.333 -114.667 -101 -150 -101s-65 16.667 -89 50c-14.667 20.667 -22 47.667 -22 81c0 20.667 2.66699 43.667 8 69l213 1000
c21.333 100 69.333 175 144 225c75.333 50 184.333 75 327 75c54.667 0 118 -10.667 190 -32s129 -53.666 171 -96.999c42.667 -42.667 70 -96.334 82 -161.001c12 -64 8.66699 -139 -10 -225l-136 -635c-13.333 -66.667 2.66699 -116.667 48 -150s130.333 -50 255 -50
c106 0 186.333 18.667 241 56c54.667 38 90 94.333 106 169l118 558c9.33301 43.333 -6.66699 87.666 -48 132.999c-42 44.667 -107.667 69.667 -197 75c98 57.333 176.667 119.333 236 186s103 124.334 131 173.001c48 -72 96 -124.667 144 -158
c47.333 -33.333 94.666 -47.333 141.999 -42l-50 -34c-34 -23.333 -76 -36 -126 -38c-50 -2.66699 -92.667 16.666 -128 57.999l-91 -98c56.667 -38.667 96 -82 118 -130s27 -100.667 15 -158l-117 -550c-24.667 -116.667 -76.334 -204 -155.001 -262
c-79.333 -58.667 -192.333 -88 -339 -88z" />
    <glyph glyph-name="uni179C" unicode="&#x179c;" horiz-adv-x="849" 
d="M577 150c-14 -67.333 -31.667 -108.997 -53 -124.997c-21.333 -16.667 -43.333 -25 -66 -25c-49.333 0 -95 49 -137 147c-34.667 80.667 -52 150 -52 208c0 12 0.666992 23.333 2 34c9.33301 63.333 35.666 106.333 78.999 129c44 21.333 82.333 24.666 115 9.99902
c12.667 -6 24.667 -12 36 -18l90 423c9.33301 43.333 -6.66699 87.666 -48 132.999c-42 44.667 -107.667 69.667 -197 75c74.667 38.667 135 88.167 181 148.5s82.333 130.5 109 210.5c76 -94 133.333 -140.667 172 -140c38.667 0 58 53.333 58 160
c0 122 -24.333 224.333 -73 307c-49.333 82 -62.666 123 -39.999 123c22 0 68 -41.667 138 -125s105 -208.333 105 -375c0 -66.667 -18 -119.667 -54 -159c-36 -40 -79 -61 -129 -63c-76.667 -2.66699 -132.667 16.666 -168 57.999l-51 -88c63.333 -45.333 106 -92 128 -140
s27 -100.667 15 -158z" />
    <glyph glyph-name="uni179D" unicode="&#x179d;" horiz-adv-x="1600" 
d="M672 1048c-38 22 -78.334 40.335 -121.001 55.002c-43.333 15.333 -87.666 25.666 -132.999 30.999l-68 9c136 75.333 233.167 136.166 291.5 182.499s101.5 87.166 129.5 122.499c28.667 34.667 52 52 70 52s54 -30.333 108 -91l79 -91l103 91l51 46
c33.333 30 60 45 80 45c20.667 0 40 -16.333 58 -49s50.667 -75 98 -127c48 -52 90.333 -93.333 127 -124s55 -53.667 55 -69s-24 -18.333 -72 -9c-47.333 8.66699 -107.333 37.334 -180 86.001c-72 48.667 -119.333 90.667 -142 126l-221 -195l-160 183l-182 -142l61 -58
c40 -39.333 54 -67 42 -83c-11.333 -16 -36 -13 -74 9zM1093 365.002c-28.667 26.667 -42.998 61 -42.998 103c0 54.667 50 88.667 150 102c-6.66699 -26 -5.66699 -47.667 3 -65c7.33301 -16.667 21.333 -29.334 42 -38.001l11 52c12.667 58.667 15.667 109 9 151
c-6 42.667 -22 76.667 -48 102c-50.667 52 -156.334 78 -317.001 78c-98 0 -170.333 -15.333 -217 -46c-46 -31.333 -74.333 -73 -85 -125l-76 -353c105.333 116 198 174 278 174c100 0 150 -33.333 150 -100s-50 -100 -150 -100c0 33.333 -9 50 -27 50
s-71 -48.667 -159 -146l-132 -147c-32.667 -38 -60 -57 -82 -57c-57.333 0 -86 18.667 -86 56c0 6 0.666992 12.333 2 19l133 625c21.333 100 69.333 175 144 225c75.333 50 177.666 75 306.999 75c101.333 0 188 -10.667 260 -32s129 -53.666 171 -96.999
c42.667 -42.667 70 -96.334 82 -161.001c12 -64 8.66699 -139 -10 -225l-7 -33c40.667 4 75.667 13.333 105 28c49.333 24.667 82.333 64.667 99 120c0 -91.333 -17.333 -161.666 -52 -210.999c-39.333 -56 -100.666 -85.667 -183.999 -89l-42 -200
c-14.667 -66.667 -45.334 -100 -92.001 -100s-86.667 11.667 -120 35s-45 50 -35 80s31 49.333 63 58s56 50 72 124l3 15c-34.667 6.66699 -64 17 -88 31c-12 6.66699 -22.667 14 -32 22z" />
    <glyph glyph-name="uni179E" unicode="&#x179e;" horiz-adv-x="1600" 
d="M1093 797c0 54.667 50.0029 88.666 150.003 101.999c-6 -23.333 -5.66699 -43.333 1 -60c9.33301 -25.333 32.666 -42.666 69.999 -51.999l31 146c9.33301 43.333 -6.66699 87.666 -48 132.999c-42 44.667 -107.667 69.667 -197 75c98 57.333 176.667 119.333 236 186
s103 124.334 131 173.001c48 -72 96 -124.667 144 -158c47.333 -33.333 93.666 -47.333 138.999 -42l-47 -34c-34 -23.333 -76 -36 -126 -38c-50 -2.66699 -92.667 16.666 -128 57.999l-91 -98c56.667 -38.667 96 -82 118 -130s27 -100.667 15 -158l-25 -115
c34.667 6 64.667 16.333 90 31c42.667 24.667 71.667 62.334 87 113.001c0 -81.333 -13.667 -146 -41 -194c-34.667 -60.667 -90.667 -95.334 -168 -104.001l-60 -281c-24.667 -116.667 -76.334 -204 -155.001 -262c-79.333 -58.667 -202.333 -88 -369 -88
s-292 36.667 -376 110c-84.667 73.333 -112.667 178.333 -84 315l109 508c9.33301 43.333 -6.66699 87.666 -48 132.999c-42 44.667 -107.667 69.667 -197 75c98 57.333 176.667 119.333 236 186s103 124.334 131 173.001c48 -72 99 -123.333 153 -154
c53.333 -30.667 113.333 -32.667 180 -6c-57.333 -71.333 -121.333 -108.333 -192 -111c-70.667 -3.33301 -123.667 15.667 -159 57l-91 -98c56.667 -38.667 96 -82 118 -130s27 -100.667 15 -158l-106 -500c-17.333 -83.333 -2.33301 -145.666 45 -186.999
c47.333 -42 136 -63 266 -63c133.333 0 225.333 18.667 276 56c51.333 38 85 94.333 101 169l55 261c-46.667 6.66699 -84.667 18.667 -114 36c-46.667 26 -71.667 67.667 -75 125z" />
    <glyph glyph-name="uni179F" unicode="&#x179f;" horiz-adv-x="2251" 
d="M1204 955c14 -10.667 27.001 -21.999 39.001 -33.999c42.667 -42.667 70 -96.334 82 -161.001c12 -64 8.66699 -139 -10 -225l-40 -185c-13.333 -66.667 2.66699 -116.667 48 -150s120.333 -50 225 -50c92.667 0 166.334 18.667 221.001 56c54.667 38 90 94.333 106 169
l118 558c9.33301 43.333 -6.66699 87.666 -48 132.999c-42 44.667 -107.667 69.667 -197 75c98 57.333 176.667 119.333 236 186s103 124.334 131 173.001c48 -72 96 -124.667 144 -158c47.333 -33.333 94.666 -47.333 141.999 -42l-50 -34c-34 -23.333 -76 -36 -126 -38
c-50 -2.66699 -92.667 16.666 -128 57.999l-91 -98c56.667 -38.667 96 -82 118 -130s27 -100.667 15 -158l-117 -550c-24.667 -116.667 -76.334 -204 -155.001 -262c-79.333 -58.667 -185.666 -88 -318.999 -88c-166.667 0 -285 31.333 -355 94s-92 156.334 -66 281.001
l41 194c12.667 58.667 15.667 109 9 151c-6 42.667 -22 76.667 -48 102c-50.667 52 -133 78 -247 78c-78 0 -140.333 -15.333 -187 -46c-46 -31.333 -74.333 -73 -85 -125l-50 -231c12.667 1.33301 26 2 40 2c36 0 69.667 -18.667 101 -56
c30.667 -38 37.334 -88 20.001 -150c-18 -62 -59.333 -126.333 -124 -193c-64.667 -67.333 -114.667 -101 -150 -101s-65 16.667 -89 50c-14.667 20.667 -22 47.667 -22 81c0 20.667 2.66699 43.667 8 69l117 550c21.333 100 69.333 175 144 225
c75.333 50 167.666 75 276.999 75c53.333 0 115 -10 185 -30c-8.66699 16 -21.334 31.333 -38.001 46c-54.667 47.333 -161 72.333 -319 75c107.333 57.333 191.666 113 252.999 167s112.666 118 153.999 192c48 -72 100.333 -121.667 157 -149
c56 -27.333 131.333 -31 226 -11c-57.333 -71.333 -129.666 -108.333 -216.999 -111c-87.333 -3.33301 -148.666 15.667 -183.999 57l-73 -71c88 -37.333 143.667 -87 167 -149c11.333 -32.667 15 -69.667 11 -111z" />
    <glyph glyph-name="uni17A0" unicode="&#x17a0;" horiz-adv-x="2348" 
d="M1324 350c-24.667 -116.667 -76.3311 -204.001 -154.998 -262.001c-79.333 -58.667 -192.333 -88 -339 -88c-153.333 0 -272 36.667 -356 110c-84.667 73.333 -112.667 178.333 -84 315l109 508c9.33301 43.333 -6.66699 87.666 -48 132.999
c-42 44.667 -107.667 69.667 -197 75c98 57.333 176.667 119.333 236 186s103 124.334 131 173.001c48 -72 99 -123.333 153 -154c53.333 -30.667 113.333 -32.667 180 -6c-57.333 -71.333 -121.333 -108.333 -192 -111c-70.667 -3.33301 -123.667 15.667 -159 57l-91 -98
c56.667 -38.667 96 -82 118 -130s27 -100.667 15 -158l-106 -500c-17.333 -83.333 -2.33301 -145.666 45 -186.999c47.333 -42 129.333 -63 246 -63c113.333 0 195.333 18.667 246 56c51.333 38 85 94.333 101 169l176 825c21.333 100 69.333 175 144 225
c75.333 50 177.666 75 306.999 75c68 0 138 -10.667 210 -32s129 -53.666 171 -96.999c42.667 -42.667 70 -96.334 82 -161.001c4.66699 -25.333 7 -52 7 -80c0 -44 -5.66699 -92.333 -17 -145l-187 -885c-14.667 -66.667 -45.334 -100 -92.001 -100s-86.667 11.667 -120 35
s-45 50 -35 80s31 49.333 63 58s56 50 72 124l152 722c12.667 58.667 15.667 109 9 151c-6 42.667 -22 76.667 -48 102c-50.667 52 -139.667 78 -267 78c-98 0 -170.333 -15.333 -217 -46c-46 -31.333 -74.333 -73 -85 -125z" />
    <glyph glyph-name="uni17A1" unicode="&#x17a1;" horiz-adv-x="2250" 
d="M1166 734c-11.333 -14 -19.6689 -36 -25.002 -66l-3 -14c66.667 6.66699 102.667 22 108 46c6.66699 33.333 -8.66602 50 -45.999 50c-13.333 0 -24.666 -5.33301 -33.999 -16zM1072 853c34 31.333 76.666 46.998 127.999 46.998c36.667 0 68 -4 94 -12
c54.667 -16 88.334 -49 101.001 -99c7.33301 -32 6.33301 -70.667 -3 -116c-10 -46.667 -34.667 -83.667 -74 -111c-48.667 -34.667 -120 -54.667 -214 -60l-50 -228c-20 -95.333 -58 -166 -114 -212c-52 -41.333 -118.667 -62 -200 -62c-96.667 0 -165 21.667 -205 65
c-40.667 44.667 -51.667 112.334 -33 203.001l21 93c7.33301 33.333 -13.667 50 -63 50c7.33301 33.333 24 58.333 50 75s61.667 25 107 25c60.667 0 79 -59.333 55 -178l-18 -87c-8 -35.333 -2.66699 -61 16 -77c14.667 -12.667 38 -19 70 -19c50 0 89.667 15.333 119 46
c23.333 24.667 40 59.334 50 104.001l43 204c-172 14.667 -293 70.667 -363 168c-74.667 104.667 -90.667 257 -48 457c25.333 120 78.333 211 159 273c85.333 65.333 202 98 350 98c191.333 0 322.666 -32.667 393.999 -98c58 -52.667 77 -126.334 57 -221.001
c-10.667 -49.333 -33 -86.666 -67 -111.999c-35.333 -26 -83.333 -39 -144 -39c-93.333 0 -140 33.333 -140 100s40.667 100 122 100c-12.667 -49.333 -1.33398 -74 33.999 -74c25.333 0 41.333 19.667 48 59c8 37.333 -5 67 -39 89c-47.333 30.667 -135.666 46 -264.999 46
c-108 0 -192.333 -23.667 -253 -71c-55.333 -42.667 -91.333 -104.334 -108 -185.001c-31.333 -144.667 -18.666 -254 38.001 -328c50 -66.667 135.667 -104.667 257 -114l8 40c16 72.667 42.667 126.334 80 161.001zM1798 -700.002
c-14 -66.667 -46.332 -99.9971 -96.999 -99.9971c-51.333 0 -101.333 21 -150 63l-171 157l-250 -157c-66.667 -42 -125.334 -63 -176.001 -63c-51.333 0 -70 33.333 -56 100l65 297c15.333 74 10.333 121.5 -15 142.5s-38 52.167 -38 93.5s29.667 67.666 89 78.999
c59.333 10.667 102 0 128 -32c26 -32.667 32 -82.334 18 -149.001l-70 -323l320 197l264 -238l333 1566c9.33301 43.333 -6.66699 87.666 -48 132.999c-42 44.667 -107.667 69.667 -197 75c98 57.333 176.667 119.333 236 186s103 124.334 131 173.001
c48 -72 96 -124.667 144 -158c47.333 -33.333 94.666 -47.333 142 -42l-50 -34c-34 -23.333 -76 -36 -126 -38c-50 -2.66699 -92.667 16.666 -128 57.999l-91 -98c56.667 -38.667 96 -82 118 -130s27 -100.667 15 -158z" />
    <glyph glyph-name="uni17A2" unicode="&#x17a2;" horiz-adv-x="1607" 
d="M1321 800l28.0029 133.002c9.33301 43.333 -6.66699 87.666 -48 132.999c-42 44.667 -107.667 69.667 -197 75c98 57.333 176.667 119.333 236 186s103 124.334 131 173.001c48 -72 96 -124.667 144 -158c47.333 -33.333 94.666 -47.333 141.999 -42l-50 -34
c-34 -23.333 -76 -36 -126 -38c-50 -2.66699 -92.667 16.666 -128 57.999l-91 -98c56.667 -38.667 96 -82 118 -130s27 -100.667 15 -158l-160 -750c-14 -67.333 -31.667 -109 -53 -125c-21.333 -16.667 -43.333 -25 -66 -25c-49.333 0 -95 49 -137 147
c-42 97.333 -58.667 178 -50 242c9.33301 63.333 35.666 101.333 78.999 114c42.667 12.667 93 15 151 7l30 140h-695l-107 -500c-14 -67.333 -31.667 -109 -53 -125c-21.333 -16.667 -43.333 -25 -66 -25c-49.333 0 -95 49 -137 147c-34.667 80.667 -52 150 -52 208
c0 12 0.666992 23.333 2 34c9.33301 63.333 35.666 106.333 78.999 129c44 21.333 82.333 24.666 115 9.99902c12.667 -6 24.667 -12 36 -18l91 423c9.33301 43.333 -6.66699 87.666 -48 132.999c-42 44.667 -107.667 69.667 -197 75c98 57.333 176.667 119.333 236 186
s103 124.334 131 173.001c48 -72 99 -123.333 153 -154c53.333 -30.667 113.333 -32.667 180 -6c-57.333 -71.333 -121.333 -108.333 -192 -111c-70.667 -3.33301 -123.667 15.667 -159 57l-91 -98c56.667 -38.667 96 -82 118 -130s27 -100.667 15 -158l-21 -100h694z" />
    <glyph glyph-name="uni17A3" unicode="&#x17a3;" horiz-adv-x="1607" 
d="M1321 800l28.0029 133.002c9.33301 43.333 -6.66699 87.666 -48 132.999c-42 44.667 -107.667 69.667 -197 75c98 57.333 176.667 119.333 236 186s103 124.334 131 173.001c48 -72 96 -124.667 144 -158c47.333 -33.333 94.666 -47.333 141.999 -42l-50 -34
c-34 -23.333 -76 -36 -126 -38c-50 -2.66699 -92.667 16.666 -128 57.999l-91 -98c56.667 -38.667 96 -82 118 -130s27 -100.667 15 -158l-160 -750c-14 -67.333 -31.667 -109 -53 -125c-21.333 -16.667 -43.333 -25 -66 -25c-49.333 0 -95 49 -137 147
c-42 97.333 -58.667 178 -50 242c9.33301 63.333 35.666 101.333 78.999 114c42.667 12.667 93 15 151 7l30 140h-695l-107 -500c-14 -67.333 -31.667 -109 -53 -125c-21.333 -16.667 -43.333 -25 -66 -25c-49.333 0 -95 49 -137 147c-34.667 80.667 -52 150 -52 208
c0 12 0.666992 23.333 2 34c9.33301 63.333 35.666 106.333 78.999 129c44 21.333 82.333 24.666 115 9.99902c12.667 -6 24.667 -12 36 -18l91 423c9.33301 43.333 -6.66699 87.666 -48 132.999c-42 44.667 -107.667 69.667 -197 75c98 57.333 176.667 119.333 236 186
s103 124.334 131 173.001c48 -72 99 -123.333 153 -154c53.333 -30.667 113.333 -32.667 180 -6c-57.333 -71.333 -121.333 -108.333 -192 -111c-70.667 -3.33301 -123.667 15.667 -159 57l-91 -98c56.667 -38.667 96 -82 118 -130s27 -100.667 15 -158l-21 -100h694z" />
    <glyph glyph-name="uni17A4" unicode="&#x17a4;" horiz-adv-x="2400" 
d="M1409 1136c26 -10.667 50.002 -38.332 72.002 -82.999s27 -95.667 15 -153l-160 -750c-14 -67.333 -31.667 -109 -53 -125c-21.333 -16.667 -43.333 -25 -66 -25c-49.333 0 -95 49 -137 147c-42 97.333 -58.667 178 -50 242c9.33301 63.333 35.666 101.333 78.999 114
c42.667 12.667 93 15 151 7l30 140h-695l-107 -500c-14 -67.333 -31.667 -109 -53 -125c-21.333 -16.667 -43.333 -25 -66 -25c-49.333 0 -95 49 -137 147c-34.667 80.667 -52 150 -52 208c0 12 0.666992 23.333 2 34c9.33301 63.333 35.666 106.333 78.999 129
c44 21.333 82.333 24.666 115 9.99902c12.667 -6 24.667 -12 36 -18l91 423c9.33301 43.333 -6.66699 87.666 -48 132.999c-42 44.667 -107.667 69.667 -197 75c98 57.333 176.667 119.333 236 186s103 124.334 131 173.001c48 -72 99 -123.333 153 -154
c53.333 -30.667 113.333 -32.667 180 -6c-57.333 -71.333 -121.333 -108.333 -192 -111c-70.667 -3.33301 -123.667 15.667 -159 57l-91 -98c56.667 -38.667 96 -82 118 -130s27 -100.667 15 -158l-21 -100h694l28 133c9.33301 43.333 -6.66699 86 -48 128
c-42 41.333 -109.333 54.333 -202 39l678 400l427 -292c43.333 -29.333 71.333 -60 84 -92s19.667 -59.333 21 -82v-16c0 -18 -1.66699 -36.667 -5 -56l-183 -862c-14.667 -66.667 -45.667 -100 -93 -100c-46.667 0 -86.667 11.667 -120 35s-45 50 -35 80s31 49.333 63 58
c32.667 8.66699 57 50 73 124l144 679c10.667 50 0.666992 85.333 -30 106l-371 253z" />
    <glyph glyph-name="uni17A5" unicode="&#x17a5;" horiz-adv-x="1600" 
d="M486 150c59.333 0 108.332 22.666 146.999 67.999c38 44.667 62 89.334 72 134.001c10 44 5.66699 71.333 -13 82s-42.667 16 -72 16c-47.333 0 -76.666 -26.333 -87.999 -79zM448.999 699.999c21.333 100 69.3369 175 144.004 225c75.333 50 177.666 75 306.999 75
c101.333 0 188 -10.667 260 -32s129 -53.666 171 -96.999c42.667 -42.667 70 -96.334 82 -161.001c12 -64 8.66699 -139 -10 -225l-81 -385c-14.667 -66.667 -45.334 -100 -92.001 -100s-86.667 11.667 -120 35s-45 50 -35 80s31 49.333 63 58s56 50 72 124l46 222
c12.667 58.667 15.667 109 9 151c-6 42.667 -22 76.667 -48 102c-50.667 52 -156.334 78 -317.001 78c-98 0 -170.333 -15.333 -217 -46c-46 -31.333 -74.333 -73 -85 -125l-18 -81c12.667 1.33301 26 2 40 2c69.333 0 123.666 -12.667 162.999 -38
c64.667 -42.667 87.667 -119.334 69 -230.001c-14.667 -86 -58 -162.667 -130 -230c-72 -68 -150.667 -102 -236 -102c-62 0 -105 16.667 -129 50c-14.667 20.667 -22 48 -22 82c0 20.667 2.66699 43.334 8 68.001zM672.003 1048c-38 22 -78.333 40.3359 -121 55.0029
c-43.333 15.333 -87.666 25.666 -132.999 30.999l-68 9c136 75.333 233.167 136.166 291.5 182.499s101.5 87.166 129.5 122.499c28.667 34.667 52 52 70 52s54 -30.333 108 -91c32 -36 68.667 -63.333 110 -82c42 -18 89 -27 141 -27c74 0 137.667 31.333 191 94
c53.333 62 97 155.333 131 280c11.333 42 24.666 71.667 39.999 89c12.667 14 26 21 40 21c4.66699 0 9.33398 -0.666992 14.001 -2c20.667 -6 33.667 -20 39 -42c2.66699 -8.66699 4 -18.667 4 -30c0 -17.333 -3 -37.666 -9 -60.999
c-36 -166.667 -91.667 -291.334 -167 -374.001c-74.667 -83.333 -169 -125 -283 -125c-74.667 0 -143.334 14.333 -206.001 43s-115.667 67.667 -159 117l-175 -146l44 -42c40 -39.333 54 -67 42 -83c-11.333 -16 -36 -13 -74 9z" />
    <glyph glyph-name="uni17A6" unicode="&#x17a6;" horiz-adv-x="2350" 
d="M485 150c59.333 0 108.332 22.666 146.999 67.999c38 44.667 62 89.334 72 134.001c10 44 5.66699 71.333 -13 82s-42.667 16 -72 16c-47.333 0 -76.666 -26.333 -87.999 -79zM338.999 -668.001c42.667 0 75.5 8.83398 98.5 26.501s42 42.167 57 73.5
s13.833 51.666 -3.5 60.999s-33.333 14 -48 14c-44 0 -71.333 -23 -82 -69zM578.999 598c12.667 1.33301 26.0039 2.00098 40.0039 2.00098c69.333 0 123.666 -12.667 162.999 -38c64.667 -42.667 87.667 -119.334 69 -230.001c-14.667 -86 -58 -162.667 -130 -230
c-72 -68 -150.667 -102 -236 -102c-62 0 -105 16.667 -129 50c-23.333 33.333 -28 83.333 -14 150l213 1000c21.333 100 69.333 175 144 225c75.333 50 177.666 75 306.999 75c101.333 0 188 -10.667 260 -32s129 -53.666 171 -96.999
c42.667 -42.667 70 -96.334 82 -161.001c12 -64 8.66699 -139 -10 -225l-188 -885c-14.667 -66.667 -45.334 -100 -92.001 -100s-86.667 11.667 -120 35s-45 50 -35 80s31 49.333 63 58s56 50 72 124l153 722c12.667 58.667 15.667 109 9 151c-6 42.667 -22 76.667 -48 102
c-50.667 52 -156.334 78 -317.001 78c-98 0 -170.333 -15.333 -217 -46c-46 -31.333 -74.333 -73 -85 -125zM2194 1779c-64 80.667 -195.331 121.002 -393.998 121.002h-347l-47 -132c-22.667 -67.333 -57.334 -91.666 -104.001 -72.999
c-47.333 18.667 -59 60.334 -35 125.001l227 641c18.667 48.667 44 73 76 73c9.33301 0 19 -2 29 -6c45.333 -18 57.666 -55.667 36.999 -113l-129 -365h293c259.333 0 433.333 -56 522 -168c46.667 -58 70 -131 70 -219c0 -42 -5.33301 -87.667 -16 -137l-444 -2094
c-14.667 -70 -59.334 -124.333 -134.001 -163c-90 -46 -222.667 -69 -398 -69c-125.333 0 -223.333 25.333 -294 76c-12.667 -50.667 -42.667 -76 -90 -76s-63 31.667 -47 95l52 207c8 36 8.66699 72.333 2 109c-5.33301 37.333 -20 67 -44 89
c-47.333 45.333 -145.666 68 -294.999 68c-90.667 0 -157.667 -13.333 -201 -40c-36.667 -23.333 -61.334 -53.666 -74.001 -90.999c10.667 0.666992 22 1 34 1c52 0 96.333 -11 133 -33c60 -37.333 79.333 -95.333 58 -174s-59.166 -136.834 -113.499 -174.501
s-114.833 -56.5 -181.5 -56.5c-57.333 0 -97.333 14.667 -120 44c-13.333 18.667 -20 43 -20 73c0 17.333 2.33301 36.666 7 57.999l15 63h-1l4 15l35 160h1l6 24c20 87.333 64.667 153 134 197c69.333 43.333 164 65 284 65c94.667 0 175.334 -9 242.001 -27
c66.667 -18.667 119.667 -47 159 -85c39.333 -37.333 64.666 -84.333 75.999 -141c7.33301 -36.667 10.333 -65.834 9 -87.501s-6 -50.167 -14 -85.5c-0.666992 -3.33301 -3 -13.333 -7 -30c55.333 -62 139 -93 251 -93c144.667 0 248.667 12.667 312 38
c41.333 17.333 65 39.666 71 66.999l447 2101c20 93.333 8 167.666 -36 222.999z" />
    <glyph glyph-name="uni17A7" unicode="&#x17a7;" horiz-adv-x="1540" 
d="M474 42c-45.333 28 -77.3389 70.001 -96.0059 126.001l-21 63c-1.33301 3.33301 -2 7.66602 -2 12.999c0 12.667 2.66699 30.334 8 53.001c6.66699 32.667 32.334 63.667 77.001 93l645 384c67.333 39.333 120.333 81 159 125c38.667 44.667 63.334 92 74.001 142
c11.333 52 12 97.333 2 136s-30.333 70.667 -61 96c-61.333 51.333 -151 77 -269 77c-86.667 0 -155 -16.333 -205 -49s-82 -81.667 -96 -147c-10 -51.333 -7.33301 -89.666 8 -114.999c15.333 -26 43.666 -39 84.999 -39c47.333 0 55 10.333 23 31
c-32.667 20.667 -38 57 -16 109c22 51.333 68.667 65.666 140 42.999c70.667 -23.333 93 -84.666 67 -183.999c-26.667 -99.333 -98 -149 -214 -149c-102.667 0 -174 27.667 -214 83c-40 54.667 -48.667 137 -26 247c22.667 106.667 71.334 186.667 146.001 240
s175.334 80 302.001 80c76.667 0 151.334 -10 224.001 -30c73.333 -20.667 131.333 -51.334 174 -92.001s70.334 -91.334 83.001 -152.001c5.33301 -26 8 -53.667 8 -83c0 -40.667 -5 -84.334 -15 -131.001c-14.667 -71.333 -48 -138 -100 -200
c-51.333 -62 -121 -119.333 -209 -172l-648 -388l9 -24c11.333 -35.333 35.666 -58.666 72.999 -69.999c20.667 -5.33301 44.334 -8 71.001 -8c51.333 0 143 45 275 135l260 176c12 59.333 43.667 89 95 89s65.333 -54.667 42 -164l-105 -492
c-13.333 -62.667 -45.666 -94 -96.999 -94s-68.666 38 -51.999 114l73 339l-121 -84c-160 -112.667 -283.333 -169 -370 -169c-26.667 -0 -56.334 2.33301 -89.001 7c-32.667 4 -65 15.667 -97 35z" />
    <glyph glyph-name="uni17A8" unicode="&#x17a8;" horiz-adv-x="1540" 
d="M476 42c-45.333 28 -77.3398 69.999 -96.0068 125.999l-21 63c-3.33301 10.667 -1.33301 32.667 6 66c6.66699 32.667 32.334 63.667 77.001 93l645 384c67.333 39.333 120.333 81 159 125c38.667 44.667 63.334 92 74.001 142c11.333 52 12 97.333 2 136
s-30.333 70.667 -61 96c-61.333 51.333 -151 77 -269 77c-86.667 0 -155 -16.333 -205 -49s-82 -81.667 -96 -147c-10 -51.333 -7.33301 -89.666 8 -114.999c15.333 -26 43.666 -39 84.999 -39c47.333 0 55 10.333 23 31c-32.667 20.667 -38 57 -16 109
c22 51.333 68.667 65.666 140 42.999c70.667 -23.333 93 -84.666 67 -183.999c-26.667 -99.333 -98 -149 -214 -149c-102.667 0 -174 27.667 -214 83c-40 54.667 -48.667 137 -26 247c22.667 106.667 71.334 186.667 146.001 240s175.334 80 302.001 80
c76.667 0 151.334 -10 224.001 -30c73.333 -20.667 131.333 -51.334 174 -92.001s70.334 -91.334 83.001 -152.001c12.667 -61.333 10.334 -132.666 -6.99902 -213.999c-14.667 -71.333 -48 -138 -100 -200c-51.333 -62 -121 -119.333 -209 -172l-648 -388l9 -24
c11.333 -35.333 35.666 -58.666 72.999 -69.999c20.667 -5.33301 44.334 -8 71.001 -8c51.333 0 143 45 275 135l260 176c12 59.333 43.667 89 95 89s65.333 -54.667 42 -164l-105 -492c-13.333 -62.667 -45.666 -94 -96.999 -94s-68.666 38 -51.999 114l73 339l-121 -84
c-160 -112.667 -283.333 -169 -370 -169c-26.667 -0 -56.334 2.33301 -89.001 7c-32.667 4 -65 15.667 -97 35zM673.993 1488c-38 22 -78.334 40.335 -121.001 55.002c-43.333 15.333 -87.666 25.666 -132.999 30.999l-68 9c136 75.333 233.167 136.166 291.5 182.499
s101.5 87.166 129.5 122.499c28.667 34.667 52 52 70 52s54 -30.333 108 -91l79 -91l103 91l51 46c33.333 30 60 45 80 45c20.667 0 40 -16.333 58 -49s50.667 -75 98 -127c48 -52 90.333 -93.333 127 -124s55 -53.667 55 -69s-24 -18.333 -72 -9
c-47.333 8.66699 -107.333 37.334 -180 86.001c-72 48.667 -119.333 90.667 -142 126l-221 -195l-160 183l-182 -142l61 -58c40 -39.333 54 -67 42 -83c-11.333 -16 -36 -13 -74 9z" />
    <glyph glyph-name="uni17A9" unicode="&#x17a9;" horiz-adv-x="1612" 
d="M474 42c-45.333 28 -77.3398 69.999 -96.0068 125.999l-21 63c-1.33301 3.33301 -2 7.66602 -2 12.999c0 12.667 2.66699 30.334 8 53.001c6.66699 32.667 32.334 63.667 77.001 93l645 384c67.333 39.333 120.333 81 159 125c38.667 44.667 63.334 92 74.001 142
c11.333 52 12 97.333 2 136s-30.333 70.667 -61 96c-61.333 51.333 -151 77 -269 77c-86.667 0 -155 -16.333 -205 -49s-82 -81.667 -96 -147c-10 -51.333 -7.33301 -89.666 8 -114.999c15.333 -26 43.666 -39 84.999 -39c47.333 0 55 10.333 23 31
c-32.667 20.667 -38 57 -16 109c22 51.333 68.667 65.666 140 42.999c70.667 -23.333 93 -84.666 67 -183.999c-26.667 -99.333 -98 -149 -214 -149c-102.667 0 -174 27.667 -214 83c-40 54.667 -48.667 137 -26 247c22.667 106.667 71.334 186.667 146.001 240
s175.334 80 302.001 80c76.667 0 151.334 -10 224.001 -30c73.333 -20.667 131.333 -51.334 174 -92.001s70.334 -91.334 83.001 -152.001c12.667 -61.333 10.334 -132.666 -6.99902 -213.999c-14.667 -71.333 -48 -138 -100 -200c-51.333 -62 -121 -119.333 -209 -172
l-648 -388l9 -24c11.333 -35.333 35.666 -58.666 72.999 -69.999c20.667 -5.33301 44.334 -8 71.001 -8c51.333 0 143 45 275 135l260 176c12 59.333 43.667 89 95 89s65.333 -54.667 42 -164l-105 -492c-13.333 -62.667 -45.666 -94 -96.999 -94s-68.666 38 -51.999 114
l73 339l-121 -84c-160 -112.667 -283.333 -169 -370 -169c-26.667 -0 -56.334 2.33301 -89.001 7c-32.667 4 -65 15.667 -97 35zM1340.99 -85.001l104.001 489.001c14 65.333 45.333 92.666 94 81.999c38 -8 57 -32.333 57 -73c0 -12 -1.66699 -25.333 -5 -40l-103 -489
c-12 -56 -37 -84 -75 -84c-6.66699 0 -13.334 0.666992 -20.001 2c-48.667 10 -66 47.667 -52 113z" />
    <glyph glyph-name="uni17AA" unicode="&#x17aa;" horiz-adv-x="1540" 
d="M476 42c-45.333 28 -77.3398 69.999 -96.0068 125.999l-21 63c-1.33301 3.33301 -2 7.66602 -2 12.999c0 12.667 2.66699 30.334 8 53.001c6.66699 32.667 32.334 63.667 77.001 93l645 384c67.333 39.333 120.333 81 159 125c38.667 44.667 63.334 92 74.001 142
c11.333 52 12 97.333 2 136s-30.333 70.667 -61 96c-61.333 51.333 -151 77 -269 77c-86.667 0 -155 -16.333 -205 -49s-82 -81.667 -96 -147c-10 -51.333 -7.33301 -89.666 8 -114.999c15.333 -26 43.666 -39 84.999 -39c47.333 0 55 10.333 23 31
c-32.667 20.667 -38 57 -16 109c22 51.333 68.667 65.666 140 42.999c70.667 -23.333 93 -84.666 67 -183.999c-26.667 -99.333 -98 -149 -214 -149c-102.667 0 -174 27.667 -214 83c-40 54.667 -48.667 137 -26 247c22.667 106.667 71.334 186.667 146.001 240
s175.334 80 302.001 80c76.667 0 151.334 -10 224.001 -30c73.333 -20.667 131.333 -51.334 174 -92.001s70.334 -91.334 83.001 -152.001c12.667 -61.333 10.334 -132.666 -6.99902 -213.999c-14.667 -71.333 -48 -138 -100 -200c-51.333 -62 -121 -119.333 -209 -172
l-648 -388l9 -24c11.333 -35.333 35.666 -58.666 72.999 -69.999c20.667 -5.33301 44.334 -8 71.001 -8c51.333 0 143 45 275 135l260 176c12 59.333 43.667 89 95 89s65.333 -54.667 42 -164l-105 -492c-13.333 -62.667 -45.666 -94 -96.999 -94s-68.666 38 -51.999 114
l73 339l-121 -84c-160 -112.667 -283.333 -169 -370 -169c-26.667 -0 -56.334 2.33301 -89.001 7c-32.667 4 -65 15.667 -97 35zM723.993 1498c-38 22 -78.333 40.3369 -121 55.0039c-43.333 15.333 -87.666 25.666 -132.999 30.999l-68 9
c136 75.333 233.167 136.166 291.5 182.499s101.5 87.166 129.5 122.499c28.667 34.667 52 52 70 52s54 -30.333 108 -91c32 -36 68.667 -63.333 110 -82c42 -18 89 -27 141 -27c74 0 137.667 31.333 191 94c53.333 62 97 155.333 131 280
c11.333 42 24.666 71.667 39.999 89c12.667 14 26 21 40 21c4.66699 0 9.33398 -0.666992 14.001 -2c20.667 -6 33.667 -20 39 -42c2.66699 -8.66699 4 -18.667 4 -30c0 -17.333 -3 -37.666 -9 -61c-36 -166.667 -91.667 -291.334 -167 -374.001
c-74.667 -83.333 -169 -125 -283 -125c-74.667 0 -143.334 14.333 -206.001 43s-115.667 67.667 -159 117l-175 -146l44 -42c40 -39.333 54 -67 42 -83c-11.333 -16 -36 -13 -74 9z" />
    <glyph glyph-name="uni17AB" unicode="&#x17ab;" horiz-adv-x="1600" 
d="M499 933c9.33301 43.333 -6.66504 87.666 -47.998 132.999c-42 44.667 -107.667 69.667 -197 75c98 57.333 176.667 119.333 236 186s103 124.334 131 173.001c48 -72 99 -123.333 153 -154c53.333 -30.667 113.333 -32.667 180 -6
c-57.333 -71.333 -121.333 -108.333 -192 -111c-70.667 -3.33301 -123.667 15.667 -159 57l-91 -98c56.667 -38.667 96 -82 118 -130s27 -100.667 15 -158l-106 -500c-17.333 -83.333 -2.33301 -145.666 45 -186.999c47.333 -42 136 -63 266 -63
c133.333 0 225.333 18.667 276 56c51.333 38 85 94.333 101 169l118 558c9.33301 43.333 -6.66699 87.666 -48 132.999c-42 44.667 -107.667 69.667 -197 75c98 57.333 176.667 119.333 236 186s103 124.334 131 173.001c48 -72 96 -124.667 144 -158
c47.333 -33.333 93.666 -47.333 138.999 -42l-47 -34c-34 -23.333 -76 -36 -126 -38c-50 -2.66699 -92.667 16.666 -128 57.999l-91 -98c56.667 -38.667 96 -82 118 -130s27 -100.667 15 -158l-117 -550c-24.667 -116.667 -76.334 -204 -155.001 -262
c-79.333 -58.667 -202.333 -88 -369 -88s-292 36.667 -376 110c-84.667 73.333 -112.667 178.333 -84 315zM950.002 -175c0 50 30 75 90 75c73.333 0 127 -21.333 161 -64c33.333 -43.333 41.333 -106.666 24 -189.999c-23.333 -108.667 -105.333 -201.667 -246 -279
c-140.667 -78 -333.667 -117 -579 -117c-133.333 0 -200 16.667 -200 50s87.667 58.333 263 75c174.667 16.667 317 54.667 427 114c109.333 59.333 171.333 118.666 186 177.999c11.333 55.333 -0.666992 83 -36 83c-60 0 -90 25 -90 75z" />
    <glyph glyph-name="uni17AC" unicode="&#x17ac;" horiz-adv-x="1600" 
d="M499 933c9.33301 43.333 -6.66504 87.666 -47.998 132.999c-42 44.667 -107.667 69.667 -197 75c98 57.333 176.667 119.333 236 186s103 124.334 131 173.001c48 -72 99 -123.333 153 -154c53.333 -30.667 113.333 -32.667 180 -6
c-57.333 -71.333 -121.333 -108.333 -192 -111c-70.667 -3.33301 -123.667 15.667 -159 57l-91 -98c56.667 -38.667 96 -82 118 -130s27 -100.667 15 -158l-106 -500c-17.333 -83.333 -2.33301 -145.666 45 -186.999c47.333 -42 136 -63 266 -63
c133.333 0 225.333 18.667 276 56c51.333 38 85 94.333 101 169l118 558c9.33301 43.333 -6.66699 87.666 -48 132.999c-42 44.667 -107.667 69.667 -197 75c98 57.333 176.667 119.333 236 186s103 124.334 131 173.001c48 -72 96 -124.667 144 -158
c47.333 -33.333 93.666 -47.333 138.999 -42l-47 -34c-34 -23.333 -76 -36 -126 -38c-50 -2.66699 -92.667 16.666 -128 57.999l-91 -98c56.667 -38.667 96 -82 118 -130s27 -100.667 15 -158l-117 -550c-24.667 -116.667 -76.334 -204 -155.001 -262
c-79.333 -58.667 -202.333 -88 -369 -88s-292 36.667 -376 110c-84.667 73.333 -112.667 178.333 -84 315zM1065 -578c-25.333 -18.667 -53.998 -36.998 -85.998 -54.998c-140.667 -78 -333.667 -117 -579 -117c-133.333 0 -200 16.667 -200 50s87.667 58.333 263 75
c174.667 16.667 317 54.667 427 114c109.333 59.333 171.333 118.666 186 177.999c11.333 55.333 -0.666992 83 -36 83c-60 0 -90 25 -90 75s30 75 90 75c73.333 0 127 -21.333 161 -64c26 -33.333 36.667 -78.666 32 -135.999c33.333 16.667 72 30.667 116 42
c-62 -50.667 -106.667 -94.334 -134 -131.001c-8 -23.333 -19 -46 -33 -68c-8 -34.667 -5 -68.334 9 -101.001c17.333 -40 47.666 -64 90.999 -72c59.333 -6 85.666 -33 78.999 -81c-6.66699 -40.667 -35.667 -61 -87 -61c-84.667 8 -145.667 47 -183 117
c-13.333 25.333 -22 51 -26 77z" />
    <glyph glyph-name="uni17AD" unicode="&#x17ad;" horiz-adv-x="1700" 
d="M1050 -175c0 50 30 75 90 75c73.333 0 127 -21.333 161 -64c33.333 -43.333 41.333 -106.666 24 -189.999c-23.333 -108.667 -105.333 -201.667 -246 -279c-140.667 -78 -333.667 -117 -579 -117c-133.333 0 -200 16.667 -200 50s87.667 58.333 263 75
c174.667 16.667 317 54.667 427 114c109.333 59.333 171.333 118.666 186 177.999c11.333 55.333 -0.666992 83 -36 83c-60 0 -90 25 -90 75zM486 150c39.333 0 95.002 31 167.002 93c51.333 44.667 85.666 97.667 102.999 159c10 44 5.66699 71.333 -13 82
s-49.334 16 -92.001 16c-60.667 0 -96.667 -26.333 -108 -79zM519.002 1036c34 162.667 84.002 271.668 150.002 327.001l66 55c66 54.667 121 82 165 82c66.667 0 115.667 -27.667 147 -83l50 -77c106 106.667 185 160 237 160s108.333 -37.333 169 -112
c60 -74.667 95.333 -150.667 106 -228c3.33301 -24 5 -49.333 5 -76c0 -58.667 -8 -123.334 -24 -194.001l-168 -790c-14.667 -66.667 -45.334 -100 -92.001 -100s-86.667 11.667 -120 35s-45 50 -35 80s31 49.333 63 58s56 50 72 124l131 617c20 86.667 28 159 24 217
c-3.33301 58 -22 109 -56 153c-34.667 44 -62.334 66 -83.001 66c-21.333 0 -106.333 -66.667 -255 -200c-85.333 133.333 -142.333 200 -171 200c-30.667 -2.66699 -60.667 -17.334 -90 -44.001l-45 -41c-36.667 -39.333 -69 -125.666 -97 -258.999l-78 -370
c20 9.33301 40.333 14 61 14c69.333 0 118.666 -8.33301 147.999 -25c88 -51.333 122.667 -132.333 104 -243c-22 -102.667 -75.667 -187.667 -161 -255c-105.333 -84.667 -190.666 -127 -255.999 -127c-62 0 -105 16.667 -129 50c-23.333 33.333 -28 83.333 -14 150z" />
    <glyph glyph-name="uni17AE" unicode="&#x17ae;" horiz-adv-x="1700" 
d="M1065 -578c-25.333 -18.667 -53.998 -36.998 -85.998 -54.998c-140.667 -78 -333.667 -117 -579 -117c-133.333 0 -200 16.667 -200 50s87.667 58.333 263 75c174.667 16.667 317 54.667 427 114c109.333 59.333 171.333 118.666 186 177.999
c11.333 55.333 -0.666992 83 -36 83c-60 0 -90 25 -90 75s30 75 90 75c73.333 0 127 -21.333 161 -64c26 -33.333 36.667 -78.666 32 -135.999c33.333 16.667 72 30.667 116 42c-62 -50.667 -106.667 -94.334 -134 -131.001c-8 -23.333 -19 -46 -33 -68
c-8 -34.667 -5 -68.334 9 -101.001c17.333 -40 47.666 -64 90.999 -72c59.333 -6 85.666 -33 78.999 -81c-6.66699 -40.667 -35.667 -61 -87 -61c-84.667 8 -145.667 47 -183 117c-13.333 25.333 -22 51 -26 77zM486.002 150.002c39.333 0 95.002 31 167.002 93
c51.333 44.667 85.666 97.667 102.999 159c10 44 5.66699 71.333 -13 82s-49.334 16 -92.001 16c-60.667 0 -96.667 -26.333 -108 -79zM519.004 1036c34 162.667 84.002 271.668 150.002 327.001l66 55c66 54.667 121 82 165 82c66.667 0 115.667 -27.667 147 -83l50 -77
c106 106.667 185 160 237 160s108.333 -37.333 169 -112c60 -74.667 95.333 -150.667 106 -228c3.33301 -24 5 -49.333 5 -76c0 -58.667 -8 -123.334 -24 -194.001l-168 -790c-14.667 -66.667 -45.334 -100 -92.001 -100s-86.667 11.667 -120 35s-45 50 -35 80
s31 49.333 63 58s56 50 72 124l131 617c20 86.667 28 159 24 217c-3.33301 58 -22 109 -56 153c-34.667 44 -62.334 66 -83.001 66c-21.333 0 -106.333 -66.667 -255 -200c-85.333 133.333 -142.333 200 -171 200c-30.667 -2.66699 -60.667 -17.334 -90 -44.001l-45 -41
c-36.667 -39.333 -69 -125.666 -97 -258.999l-78 -370c20 9.33301 40.333 14 61 14c69.333 0 118.666 -8.33301 147.999 -25c88 -51.333 122.667 -132.333 104 -243c-22 -102.667 -75.667 -187.667 -161 -255c-105.333 -84.667 -190.666 -127 -255.999 -127
c-62 0 -105 16.667 -129 50c-23.333 33.333 -28 83.333 -14 150z" />
    <glyph glyph-name="uni17AF" unicode="&#x17af;" horiz-adv-x="1600" 
d="M767 1481c64.667 12.667 142.333 18.999 233 18.999c229.333 0 377.333 -58.333 444 -175c42 -74 63 -161.333 63 -262c0 -58 -7 -120.667 -21 -188l-165 -775c-14 -66.667 -46.333 -100 -97 -100c-51.333 0 -101.333 21 -150 63l-221 187l-300 -187
c-66.667 -42 -125.334 -63 -176.001 -63c-40 0 -60 20.667 -60 62c0 11.333 1.33301 24 4 38l138 647c7.33301 35.333 -5.66699 61.333 -39 78s-45 50 -35 100s48.333 75 115 75c50.667 0 87.334 -18 110.001 -54c22 -36 21 -111 -3 -225l-109 -513l370 227l314 -268
l156 733c30 143.333 20.667 254.333 -28 333c-48.667 78 -152 117 -310 117c-252.667 0 -412 -37.333 -478 -112c-22 -25.333 -38.333 -38 -49 -38c-11.333 0 -12.666 20 -3.99902 60s49.667 90 123 150c3.33301 2.66699 7 5.33398 11 8.00098l19 89
c19.333 91.333 -3.66699 210.333 -69 357c-40.667 82.667 -40.667 132.334 0 149.001c7.33301 2.66699 14.666 4 21.999 4c32.667 0 64.334 -31 95.001 -93c91.333 -166.667 125.666 -304.334 102.999 -413.001z" />
    <glyph glyph-name="uni17B0" unicode="&#x17b0;" horiz-adv-x="1700" 
d="M787 -421c-106 -51.333 -212 -92 -318 -122c66 -71.333 120.333 -107 163 -107c42 0 82 16.333 120 49c32 28 43.667 88 35 180zM486 150c39.333 0 95.002 31 167.002 93c51.333 44.667 85.666 97.667 102.999 159c10 44 5.66699 71.333 -13 82s-49.334 16 -92.001 16
c-60.667 0 -96.667 -26.333 -108 -79zM964.002 -327c64.667 -20 112.331 -23.333 142.998 -10c22.667 10 50.334 63.333 83.001 160c-75.333 -55.333 -150.666 -105.333 -225.999 -150zM1218 30c19.333 14.667 50.0039 103.668 92.0039 267.001l131 617
c20 86.667 28 159 24 217c-3.33301 58 -22 109 -56 153c-34.667 44 -62.334 66 -83.001 66c-21.333 0 -106.333 -66.667 -255 -200c-85.333 133.333 -142.333 200 -171 200c-30.667 -2.66699 -60.667 -17.334 -90 -44.001l-45 -41
c-36.667 -39.333 -69 -125.666 -97 -258.999l-78 -370c20 9.33301 40.333 14 61 14c69.333 0 118.666 -8.33301 147.999 -25c88 -51.333 122.667 -132.333 104 -243c-22 -102.667 -75.667 -187.667 -161 -255c-105.333 -84.667 -190.666 -127 -255.999 -127
c-62 0 -105 16.667 -129 50c-23.333 33.333 -28 83.333 -14 150l176 836c34 162.667 84 271.667 150 327l66 55c66 54.667 121 82 165 82c66.667 0 115.667 -27.667 147 -83l50 -77c106 106.667 185 160 237 160s108.333 -37.333 169 -112
c60 -74.667 95.333 -150.667 106 -228c3.33301 -24 5 -49.333 5 -76c0 -58.667 -8 -123.334 -24 -194.001l-168 -790c-4 -17.333 -26.833 -105.666 -68.5 -264.999s-97.834 -258 -168.501 -296c-76.667 -41.333 -162.334 -38 -257.001 10
c30.667 -99.333 10 -182.333 -62 -249c-72.667 -66.667 -144.667 -100 -216 -100s-147.333 27 -228 81c-81.333 54 -122 110.667 -122 170s44.667 104.666 134 135.999c253.333 87.333 514.666 235 783.999 443z" />
    <glyph glyph-name="uni17B1" unicode="&#x17b1;" horiz-adv-x="1540" 
d="M474 42c-45.333 28 -77.3398 69.999 -96.0068 125.999l-21 63c-1.33301 3.33301 -2 7.66602 -2 12.999c0 12.667 2.66699 30.334 8 53.001c6.66699 32.667 32.334 63.667 77.001 93l645 384c67.333 39.333 120.333 81 159 125c38.667 44.667 63.334 92 74.001 142
c11.333 52 12 97.333 2 136s-30.333 70.667 -61 96c-61.333 51.333 -151 77 -269 77c-86.667 0 -155 -16.333 -205 -49s-82 -81.667 -96 -147c-10 -51.333 -7.33301 -89.666 8 -114.999c15.333 -26 43.666 -39 84.999 -39c47.333 0 55 10.333 23 31
c-32.667 20.667 -38 57 -16 109c22 51.333 68.667 65.666 140 42.999c70.667 -23.333 93 -84.666 67 -183.999c-26.667 -99.333 -98 -149 -214 -149c-102.667 0 -174 27.667 -214 83c-40 54.667 -48.667 137 -26 247c22.667 106.667 71.334 186.667 146.001 240
s175.334 80 302.001 80c76.667 0 151.334 -10 224.001 -30c73.333 -20.667 131.333 -51.334 174 -92.001s70.334 -91.334 83.001 -152.001c12.667 -61.333 10.334 -132.666 -6.99902 -213.999c-14.667 -71.333 -48 -138 -100 -200c-51.333 -62 -121 -119.333 -209 -172
l-648 -388l9 -24c11.333 -35.333 35.666 -58.666 72.999 -69.999c20.667 -5.33301 44.334 -8 71.001 -8c51.333 0 143 45 275 135l260 176c12 59.333 43.667 89 95 89s65.333 -54.667 42 -164l-105 -492c-13.333 -62.667 -45.666 -94 -96.999 -94s-68.666 38 -51.999 114
l73 339l-121 -84c-160 -112.667 -283.333 -169 -370 -169c-26.667 -0 -56.334 2.33301 -89.001 7c-32.667 4 -65 15.667 -97 35zM1067.99 1534c-66 68 -168.335 97.499 -307.002 88.499s-225.667 -38.167 -261 -87.5c10.667 174.667 64 296 160 364
c95.333 67.333 196 101 302 101c105.333 0 210.666 -25.667 315.999 -77c104.667 -52 186.334 -136.333 245.001 -253c21.333 -49.333 32 -110 32 -182c0 -72.667 -37.333 -50.667 -112 66c-75.333 116.667 -153 195.334 -233 236.001c-80 40 -171 60 -273 60
s-176.667 -36 -224 -108c180.667 14 293.334 -2.83301 338.001 -50.5s50.334 -100.167 17.001 -157.5z" />
    <glyph glyph-name="uni17B2" unicode="&#x17b2;" horiz-adv-x="1600" 
d="M755 1439c78 40.667 176.335 61.002 295.002 61.002c212.667 0 354 -33 424 -99c60 -58 90 -108.667 90 -152c0 -6.66699 -0.666992 -13.334 -2 -20.001c-11.333 -48.667 -42.333 -40.667 -93 24s-190.334 97 -419.001 97c-85.333 0 -156 -14 -212 -42
c-78.667 -40 -128 -107.333 -148 -202l-138 -647c-18 -88.667 -0.333008 -162.334 53 -221.001s151.666 -88 294.999 -88c80.667 0 151.334 19.667 212.001 59s98.334 93.333 113.001 162c12 54.667 -20 96 -96 124l-114 42l-84 -36c-55.333 -23.333 -93 -14.333 -113 27
c-20 42 1 77.667 63 107l306 137c88.667 40 136 72 142 96s-6.33301 60.333 -37 109c-31.333 48.667 -77.666 73 -138.999 73s-100.333 -11.667 -117 -35c-17.333 -23.333 -18 -52.333 -2 -87c22.667 -48 13 -82 -29 -102c-42.667 -20.667 -79.667 -3.66699 -111 51
c-38.667 96 -31.334 174 21.999 234c52.667 59.333 137 89 253 89s200.667 -41.667 254 -125c52.667 -84 72 -159 58 -225c-14.667 -66.667 -95.667 -129.667 -243 -189l-69 -32c166 -48.667 234.333 -141.667 205 -279c-24.667 -116.667 -82 -204 -172 -262
c-90.667 -58.667 -191.334 -88 -302.001 -88c-189.333 0 -326.333 48 -411 144c-63.333 72 -95 154 -95 246c0 30 3.33301 61.333 10 94l140 654c29.333 142 99.666 242.333 210.999 301z" />
    <glyph glyph-name="uni17B3" unicode="&#x17b3;" horiz-adv-x="1540" 
d="M474 42c-45.333 28 -77.3398 69.999 -96.0068 125.999l-21 63c-1.33301 3.33301 -2 7.66602 -2 12.999c0 12.667 2.66699 30.334 8 53.001c6.66699 32.667 32.334 63.667 77.001 93l645 384c67.333 39.333 120.333 81 159 125c38.667 44.667 63.334 92 74.001 142
c11.333 52 12 97.333 2 136s-30.333 70.667 -61 96c-61.333 51.333 -151 77 -269 77c-86.667 0 -155 -16.333 -205 -49s-82 -81.667 -96 -147c-10 -51.333 -7.33301 -89.666 8 -114.999c15.333 -26 43.666 -39 84.999 -39c47.333 0 55 10.333 23 31
c-32.667 20.667 -38 57 -16 109c22 51.333 68.667 65.666 140 42.999c70.667 -23.333 93 -84.666 67 -183.999c-26.667 -99.333 -98 -149 -214 -149c-102.667 0 -174 27.667 -214 83c-40 54.667 -48.667 137 -26 247c22.667 106.667 71.334 186.667 146.001 240
s175.334 80 302.001 80c76.667 0 151.334 -10 224.001 -30c73.333 -20.667 131.333 -51.334 174 -92.001s70.334 -91.334 83.001 -152.001c12.667 -61.333 10.334 -132.666 -6.99902 -213.999c-14.667 -71.333 -48 -138 -100 -200c-51.333 -62 -121 -119.333 -209 -172
l-648 -388l9 -24c11.333 -35.333 35.666 -58.666 72.999 -69.999c20.667 -5.33301 44.334 -8 71.001 -8c51.333 0 143 45 275 135l260 176c12 59.333 43.667 89 95 89s65.333 -54.667 42 -164l-105 -492c-13.333 -62.667 -45.666 -94 -96.999 -94s-68.666 38 -51.999 114
l73 339l-121 -84c-160 -112.667 -283.333 -169 -370 -169c-26.667 -0 -56.334 2.33301 -89.001 7c-32.667 4 -65 15.667 -97 35zM1008.99 1719c18 -7.33301 31.998 -16.3359 41.998 -27.0029c44.667 -48 50.334 -100.667 17.001 -158c-34.667 35.333 -79 60.333 -133 75
c-50 13.333 -108 18 -174 14c-138.667 -9.33301 -225.667 -38.666 -261 -87.999c10.667 174.667 64 296 160 364c95.333 67.333 196 101 302 101c105.333 0 210.666 -25.667 315.999 -77c30.667 -15.333 59.334 -33.333 86.001 -54l10 10c46 47.333 108.333 86 187 116
c23.333 8.66699 43.333 13 60 13c28 0 47.333 -12 58 -36c4 -9.33301 6 -18 6 -26c0 -28 -21.333 -52.667 -64 -74c-61.333 -27.333 -108 -59.666 -140 -96.999c-4.66699 -4.66699 -8.66699 -9.66699 -12 -15c20 -27.333 38 -57.333 54 -90c21.333 -49.333 32 -110 32 -182
c0 -23.333 -3 -38.666 -9 -45.999c-41.333 -48 -82.666 -58.333 -123.999 -31c-60.667 47.333 -101.667 99 -123 155c-18 50 -20.333 103.667 -7 161c0.666992 2 1 4 1 6c-27.333 24 -55 43 -83 57c-80 40 -171 60 -273 60s-176.667 -36 -224 -108
c139.333 10.667 238 3 296 -23z" />
    <glyph glyph-name="uni17B4" unicode="&#x17b4;" horiz-adv-x="1536" 
d="M256 0v1280h1024v-1280h-1024zM288 32h960v1216h-960v-1216z" />
    <glyph glyph-name="uni17B5" unicode="&#x17b5;" horiz-adv-x="1536" 
d="M256 0v1280h1024v-1280h-1024zM288 32h960v1216h-960v-1216z" />
    <glyph glyph-name="uni17B6" unicode="&#x17b6;" horiz-adv-x="175" 
d="M-105 1335c-248 -142.667 -382.334 -195.333 -403.001 -158c0.666992 50 143.334 157.667 428.001 323l370 -253c43.333 -29.333 71.333 -60 84 -92s19.667 -59.333 21 -82v-16c0 -18 -1.66699 -36.667 -5 -56l-191 -901c-14.667 -66.667 -45.667 -100 -93 -100
c-46.667 0 -86.667 11.667 -120 35s-45 50 -35 80s31 49.333 63 58c32.667 8.66699 57 50 73 124l152 718c10.667 50 0.666992 85.333 -30 106z" />
    <glyph glyph-name="uni17B7" unicode="&#x17b7;" 
d="M-705 2276c-21.333 -12.667 -32.999 -29 -34.999 -49c-2 -22.667 1.33301 -38 10 -46c7.33301 -8 19 -12.667 35 -14l465 -41c-146.667 104 -264.334 160 -353.001 168c-55.333 4.66699 -96 -1.33301 -122 -18zM-842.999 2100c-31.333 26 -47 64 -47 114
c0 8.66699 0.333008 17.334 1 26c6 69.333 33.333 122 82 158c43.333 32 103.333 48 180 48c18 0 37 -1 57 -3c66 -5.33301 138 -31.333 216 -78c77.333 -46 156 -103 236 -171c77.333 -66 116 -115.667 116 -149c0 -0.666992 -0.333008 -1.66699 -1 -3
c-2 -28 -27.667 -42 -77 -42c-8 0 -17 0.333008 -27 1l-598 53c-60.667 5.33301 -106.667 20.666 -138 46z" />
    <glyph glyph-name="uni17B8" unicode="&#x17b8;" 
d="M-706 2276c-20.667 -12.667 -31.999 -29 -33.999 -49c-2 -22.667 1.33301 -38 10 -46c7.33301 -8 19 -12.667 35 -14l465 -41c-146.667 104 -264.667 160 -354 168c-54.667 4.66699 -95.334 -1.33301 -122.001 -18zM-122.999 2199l34.999 164
c6.66699 32.667 -6.33301 52.334 -39 59c12 54 41 81 87 81c10 0 20.667 -1.33301 32 -4c49.333 -10.667 74 -45.334 74 -104c0 -18.667 -2.66699 -39.667 -8 -63l-61 -286c-4 -20 -16.333 -33 -37 -39c-15.333 -4.66699 -31.666 -7 -48.999 -7c-6 0 -12 0.333008 -18 1
l-598 52c-61.333 5.33301 -107.333 21 -138 47c-31.333 26 -47 64 -47 114c0 8.66699 0.333008 17.334 1 26c6 69.333 33.333 122 82 158c53.333 39.333 132.333 54.333 237 45c66 -6 138 -32 216 -78c76 -44.667 153 -100 231 -166z" />
    <glyph glyph-name="uni17B9" unicode="&#x17b9;" 
d="M-705 2276c-21.333 -12.667 -32.999 -29 -34.999 -49c-2 -22.667 1.33301 -38 10 -46c7.33301 -8 19 -12.667 35 -14l465 -41c-146.667 104 -264.334 160 -353.001 168c-55.333 4.66699 -96 -1.33301 -122 -18zM-92.999 2384c-11.333 12.667 -29.332 20 -53.999 22
c-24.667 2.66699 -43.667 -1.66602 -57 -13c-14 -11.333 -22 -29.666 -24 -55c-2 -24.667 2.33301 -43.667 13 -57c11.333 -14 29.666 -22 54.999 -24s45 2.66699 59 14c12.667 11.333 20 29.333 22 54c2.66699 25.333 -2 45 -14 59zM-83.998 2163
c56.667 -52.667 83.668 -93 81.001 -121c-2 -28 -27.667 -42 -77 -42c-8 0 -17 0.333008 -27 1l-598 53c-60.667 5.33301 -106.667 20.666 -138 46c-31.333 26 -47 64 -47 114c0 8.66699 0.333008 17.334 1 26c6 69.333 33.333 122 82 158
c53.333 39.333 132.333 54.333 237 45c66 -5.33301 138 -31.333 216 -78l26 -16c6 57.333 24.667 99.333 56 126c26 21.333 61.333 32 106 32c9.33301 0 18.666 -0.333008 27.999 -1c58 -5.33301 100.333 -23.666 127 -55c22.667 -26 34 -61.667 34 -107
c0 -8.66699 -0.666992 -18 -2 -28c-5.33301 -57.333 -23.333 -99.333 -54 -126c-14.667 -12 -31.667 -21 -51 -27z" />
    <glyph glyph-name="uni17BA" unicode="&#x17ba;" 
d="M-706 2276c-20.667 -12.667 -31.999 -29 -33.999 -49c-2 -22.667 1.33301 -38 10 -46c7.33301 -8 19 -12.667 35 -14l465 -41c-146.667 104 -264.667 160 -354 168c-54.667 4.66699 -95.334 -1.33301 -122.001 -18zM-355.999 2366l15.999 65
c8.66699 32.667 -7.66602 52.334 -48.999 59c15.333 56.667 47.333 85 96 85c7.33301 0 15.333 -0.666992 24 -2c62 -10.667 80 -65 54 -163l-31 -115c40.667 -28.667 81.667 -60.667 123 -96l35 164c6.66699 32.667 -6.33301 52.334 -39 59c12 54 41 81 87 81
c10 0 20.667 -1.33301 32 -4c49.333 -10.667 74 -45.334 74 -104c0 -18.667 -2.66699 -39.667 -8 -63l-61 -286c-4 -20 -16.333 -33 -37 -39c-15.333 -4.66699 -31.666 -7 -48.999 -7c-6 0 -12 0.333008 -18 1l-598 52c-61.333 5.33301 -107.333 21 -138 47
c-31.333 26 -47 64 -47 114c0 8.66699 0.333008 17.334 1 26c6 69.333 33.333 122 82 158c53.333 39.333 132.333 54.333 237 45c65.333 -6 136.666 -31.667 213.999 -77z" />
    <glyph glyph-name="uni17BB" unicode="&#x17bb;" 
d="M-442 -797c-38 8 -57.002 32.667 -57.002 74c0 12 1.33301 25 4 39l81 379c4.66699 20 -4.66602 40.667 -27.999 62c-23.333 22 -29.666 51.333 -18.999 88s41.334 55 92.001 55c51.333 0 86.666 -12.667 105.999 -38c14.667 -19.333 22 -40.333 22 -63
c0 -8 -1 -16.333 -3 -25l-104 -489c-12 -56 -36.667 -84 -74 -84c-6 0 -12.667 0.666992 -20 2z" />
    <glyph glyph-name="uni17BC" unicode="&#x17bc;" 
d="M-630 -133c20 -22.667 29.9971 -60.666 29.9971 -113.999s-33.333 -115.5 -100 -186.5s-100 -123.167 -100 -156.5c0 -40 40 -60 120 -60c66.667 0 131.334 75.333 194.001 226s109.334 242.334 140.001 275.001s69 49 115 49c45.333 0 68 -10 68 -30
s-14.333 -37 -43 -51c-29.333 -14 -77.666 -120.667 -144.999 -320s-177 -299 -329 -299c-180 0 -270 70 -270 210c0 59.333 33.333 118.166 100 176.499s100 96.166 100 113.499c0 22 -10 39.333 -30 52c-20 12 -30 30 -30 54s9 45.667 27 65s43 29 75 29
c31.333 0 57.333 -11 78 -33z" />
    <glyph glyph-name="uni17BD" unicode="&#x17bd;" 
d="M-680 -133c20 -22.667 29.998 -60.6689 29.998 -114.002s-33.333 -115.333 -100 -186c-66.667 -71.333 -100 -123.666 -100 -156.999c0 -40 13.333 -60 40 -60c53.333 0 137.333 75.333 252 226c-2.66699 -150.667 23.333 -226 78 -226c33.333 0 66.333 75.333 99 226
s64.334 242.334 95.001 275.001s62.334 49 95.001 49c18.667 0 28 -10 28 -30s-4.5 -37 -13.5 -51s-31.167 -101.667 -66.5 -263c-52.667 -237.333 -131.667 -356 -237 -356c-74 0 -122 53 -144 159c-77.333 -106 -139.333 -159 -186 -159c-126.667 0 -190 70 -190 210
c0 59.333 33.333 118.333 100 177c66.667 58 100 95.667 100 113c0 22 -10 39.333 -30 52c-20 12 -30 30 -30 54s9 45.667 27 65s43 29 75 29c31.333 0 57.333 -11 78 -33z" />
    <glyph glyph-name="uni17BE" unicode="&#x17be;" 
d="M-706 2276c-20.667 -12.667 -31.999 -29 -33.999 -49c-2 -22.667 1.33301 -38 10 -46c7.33301 -8 19 -12.667 35 -14l465 -41c-146.667 104 -264.667 160 -354 168c-54.667 4.66699 -95.334 -1.33301 -122.001 -18zM-122.999 2199l34.999 164
c6.66699 32.667 -6.33301 52.334 -39 59c12 54 41 81 87 81c10 0 20.667 -1.33301 32 -4c49.333 -10.667 74 -45.334 74 -104c0 -18.667 -2.66699 -39.667 -8 -63l-61 -286c-4 -20 -16.333 -33 -37 -39c-15.333 -4.66699 -31.666 -7 -48.999 -7c-6 0 -12 0.333008 -18 1
l-598 52c-61.333 5.33301 -107.333 21 -138 47c-31.333 26 -47 64 -47 114c0 8.66699 0.333008 17.334 1 26c6 69.333 33.333 122 82 158c53.333 39.333 132.333 54.333 237 45c66 -6 138 -32 216 -78c76 -44.667 153 -100 231 -166z" />
    <glyph glyph-name="uni17BF" unicode="&#x17bf;" horiz-adv-x="753" 
d="M-118 2308c-21.333 -12.667 -33 -29 -35 -49c-2.66699 -22.667 0.333008 -38 9 -46c7.33301 -8 19 -13 35 -15l464 -46c-145.333 105.333 -262.333 162.666 -351 172c-55.333 5.33301 -96 0 -122 -16zM656 2059c64 -49.333 111.004 -104 141.004 -164
c18.667 -38 28 -79.333 28 -124c0 -26 -3.33301 -53.333 -10 -82l-493 -2326c-26 -121.333 -77.333 -212 -154 -272c-76 -60.667 -176.667 -91 -302 -91c-188.667 0 -318.334 38.333 -389.001 115c-42 46 -63 105 -63 177c0 30.667 3.66699 63.667 11 99l59 273
c14 66.667 39.667 109.667 77 129c36.667 18.667 80 11 130 -23c49.333 -34.667 65.666 -70.667 48.999 -108c-16.667 -38 -41 -61.5 -73 -70.5s-54 -38.5 -66 -88.5l-29 -143c-12.667 -60 -1.33398 -107.333 33.999 -142c45.333 -45.333 132 -68 260 -68
c84 0 151.333 20 202 60c53.333 40.667 88.333 102.667 105 186l496 2326c16 77.333 -18.667 159.333 -104 246l-61 59l-103 6l-522 52c-60.667 6 -106.667 22 -138 48c-35.333 30 -50 77 -44 141c7.33301 68.667 35.333 120.667 84 156c54.667 38.667 134 53 238 43
c66 -6.66699 137.667 -33.667 215 -81c22 -13.333 44 -27.666 66 -43l38 123c10 32 -1 53 -33 63c16.667 50.667 42 76 76 76c8.66699 0 17.667 -1.33301 27 -4c47.333 -15.333 56 -70.666 26 -166l-50 -154l84 -69l45 -41l75 238c10.667 31.333 0 52 -32 62
c20.667 64 54.667 88.333 102 73s55.666 -70.666 24.999 -166l-85 -271z" />
    <glyph glyph-name="uni17C0" unicode="&#x17c0;" horiz-adv-x="753" 
d="M322 -637c-26 -121.333 -77.3311 -212 -153.998 -272c-76 -60.667 -176.667 -91 -302 -91c-188.667 0 -318.334 38.333 -389.001 115c-42 46 -63 105 -63 177c0 30.667 3.66699 63.667 11 99l59 273c14 66.667 39.667 109.667 77 129c36.667 18.667 80 11 130 -23
c49.333 -34.667 65.666 -70.667 48.999 -108c-16.667 -38 -41 -61.5 -73 -70.5s-54 -38.5 -66 -88.5l-29 -143c-12.667 -60 -1.33398 -107.333 33.999 -142c45.333 -45.333 132 -68 260 -68c84 0 151.333 20 202 60c53.333 40.667 88.333 102.667 105 186l490 2307
c20 93.333 -6 199.666 -78 318.999c-58.667 85.333 -140.667 128 -246 128c-138 0 -241.333 -32.333 -310 -97c-66.667 -76.667 -120 -102.667 -160 -78c-40.667 24.667 -26.667 79.667 42 165l51 59c96 106 155 244.667 177 416c7.33301 56.667 36 85 86 85
s60.333 -80 31 -240c-11.333 -61.333 -26.666 -116.333 -45.999 -165c25.333 3.33301 68.333 5 129 5c166 0 290.667 -58.333 374 -175c72 -111.333 108 -223.666 108 -336.999c0 -38 -4 -76.333 -12 -115z" />
    <glyph glyph-name="uni17C1" unicode="&#x17c1;" horiz-adv-x="800" 
d="M560 498c12.667 1.33301 25.998 1.99902 39.998 1.99902c36 0 69.667 -18.667 101 -56c30.667 -38 37.334 -88 20.001 -150c-18 -62 -59.333 -126.333 -124 -193c-64.667 -67.333 -114.667 -101 -150 -101s-65 16.667 -89 50c-14.667 20.667 -22 47.667 -22 81
c0 20.667 2.66699 43.667 8 69l256 1200c14 66.667 46.333 100 97 100c50 0 77.333 -20.333 82 -61s24.334 -87.667 59.001 -141c34 -54 66.333 -94.667 97 -122c30 -27.333 45 -57.666 45 -90.999c-14.667 -23.333 -43 -24.333 -85 -3c-42 20.667 -82.667 48.667 -122 84
l-59 52z" />
    <glyph glyph-name="uni17C2" unicode="&#x17c2;" horiz-adv-x="800" 
d="M560 498c12.667 1.33301 25.998 1.99902 39.998 1.99902c36 0 69.667 -18.667 101 -56c30.667 -38 37.334 -88 20.001 -150c-18 -62 -59.333 -126.333 -124 -193c-64.667 -67.333 -114.667 -101 -150 -101s-65 16.667 -89 50c-14.667 20.667 -22 47.667 -22 81
c0 20.667 2.66699 43.667 8 69l256 1200c14 66.667 46.333 100 97 100c50 0 77.333 -20.333 82 -61s24.334 -87.667 59.001 -141c34 -54 66.333 -94.667 97 -122c30 -27.333 45 -57.666 45 -90.999c-14.667 -23.333 -43 -24.333 -85 -3c-42 20.667 -82.667 48.667 -122 84
l-59 52zM976.998 2271c-4 57.333 -19.002 99.667 -45.002 127c-78.667 81.333 -102.667 137 -72 167c6.66699 6.66699 15 10 25 10c33.333 0 82.333 -40.667 147 -122c36.667 -46 62.667 -94.667 78 -146c10.667 -37.333 16 -76 16 -116c0 -32 -3.33301 -64.667 -10 -98
c-25.333 -120.667 -76.333 -219 -153 -295c-38 -51.333 -81.667 -65 -131 -41c-78 30.667 -135.667 42.667 -173 36c-23.333 -4 -38.666 -15 -45.999 -33c-10.667 -26 -12.334 -47.333 -5.00098 -64c6 -13.333 19 -23 39 -29c16 -5.33301 31.333 -7 46 -5
c24.667 2.66699 48.334 15 71.001 37c58 -34.667 72 -73 42 -115c-14 -19.333 -38 -30.333 -72 -33c-38.667 -2.66699 -90.334 5.66602 -155.001 24.999c-57.333 16.667 -95.666 43.334 -114.999 80.001c-22 42 -20 96 6 162c24 60.667 65.667 96.667 125 108
c62 12 143.333 -3 244 -45c64 62 106.333 137 127 225c10.667 64 14.334 119 11.001 165z" />
    <glyph glyph-name="uni17C3" unicode="&#x17c3;" horiz-adv-x="800" 
d="M560 498c12.667 1.33301 25.998 1.99902 39.998 1.99902c36 0 69.667 -18.667 101 -56c30.667 -38 37.334 -88 20.001 -150c-18 -62 -59.333 -126.333 -124 -193c-64.667 -67.333 -114.667 -101 -150 -101s-65 16.667 -89 50c-14.667 20.667 -22 47.667 -22 81
c0 20.667 2.66699 43.667 8 69l256 1200c14 66.667 46.333 100 97 100c50 0 77.333 -20.333 82 -61s24.334 -87.667 59.001 -141c34 -54 66.333 -94.667 97 -122c30 -27.333 45 -57.666 45 -90.999c-14.667 -23.333 -43 -24.333 -85 -3c-42 20.667 -82.667 48.667 -122 84
l-59 52zM559.998 2106c20.667 -88 62.998 -163.001 126.998 -225.001c100.667 42 182 57 244 45c59.333 -11.333 101 -47.333 125 -108c14 -36 21 -68.333 21 -97c0 -24 -5 -45.667 -15 -65c-19.333 -36.667 -57.666 -63.334 -114.999 -80.001
c-64.667 -19.333 -116.334 -27.666 -155.001 -24.999c-34 2.66699 -58 13.667 -72 33c-30 42 -16 80.333 42 115c22.667 -22 46.334 -34.333 71.001 -37c14.667 -2 30 -0.333008 46 5c20 6 33 15.667 39 29c7.33301 16.667 5.66602 38 -5.00098 64
c-7.33301 18 -22.666 29 -45.999 33c-37.333 6.66699 -95 -5.33301 -173 -36c-49.333 -24 -93 -10.333 -131 41c-76.667 76 -127.667 174.333 -153 295c-15.333 76 -13.333 147.333 6 214c15.333 51.333 41.333 100 78 146c64.667 81.333 113.667 122 147 122
c10 0 18.333 -3.33301 25 -10c30.667 -30 6.66699 -85.667 -72 -167c-26 -27.333 -41 -69.666 -45 -126.999c-3.33301 -46 0.333984 -101 11.001 -165z" />
    <glyph glyph-name="uni17C4" unicode="&#x17c4;" horiz-adv-x="749" 
d="M172 1335c-248 -142.667 -382.334 -195.333 -403.001 -158c0.666992 50 143.334 157.667 428.001 323l370 -253c43.333 -29.333 71.333 -60 84 -92s19.667 -59.333 21 -82v-16c0 -18 -1.66699 -36.667 -5 -56l-191 -901c-14.667 -66.667 -45.667 -100 -93 -100
c-46.667 0 -86.667 11.667 -120 35s-45 50 -35 80s31 49.333 63 58c32.667 8.66699 57 50 73 124l152 718c10.667 50 0.666992 85.333 -30 106z" />
    <glyph glyph-name="uni17C5" unicode="&#x17c5;" horiz-adv-x="749" 
d="M-218 1167l-12.9971 19.001c16 53.333 158.333 158 427 314l370 -253c43.333 -29.333 71.333 -60 84 -92c2 -4.66699 3.66699 -9.33398 5 -14.001l67 308c21.333 100 27.666 186.667 18.999 260c-6.66699 58 -22.334 107.667 -47.001 149
c-57.333 93.333 -76 145.666 -56 156.999c2 1.33301 4.33301 2 7 2c24 0 73 -43.333 147 -130c33.333 -39.333 56.666 -90 69.999 -152c9.33301 -42 14 -89.333 14 -142c0 -61.333 -6.33301 -129.666 -19 -204.999l-29 -177c-20 -118 -44.667 -180.667 -74 -188
c-22 -5.33301 -50.333 -5 -85 1c-0.666992 -7.33301 -1.66699 -15 -3 -23l-191 -901c-14.667 -66.667 -45.667 -100 -93 -100c-46.667 0 -86.667 11.667 -120 35s-45 50 -35 80s31 49.333 63 58c32.667 8.66699 57 50 73 124l152 718c10.667 50 0.666992 85.333 -30 106
l-314 214c-215.333 -124 -345 -180 -389 -168z" />
    <glyph glyph-name="uni17C6" unicode="&#x17c6;" 
d="M-550 2275c0 92 23 160.667 69 206c46 46 114.667 69 206 69c92 0 161 -23 207 -69c45.333 -45.333 68 -114 68 -206c-0 -91.333 -22.667 -160 -68 -206c-46 -46 -115 -69 -207 -69c-91.333 0 -160 23 -206 69s-69 114.667 -69 206zM-150 2275
c0 42 -10.333 73.333 -31 94s-52 31 -94 31c-41.333 0 -72.333 -10.333 -93 -31c-21.333 -20.667 -32 -52 -32 -94c0 -41.333 10.667 -72.666 32 -94c20.667 -20.667 51.667 -31 93 -31c42 0 73.333 10.333 94 31c20.667 21.333 31 52.666 31 94z" />
    <glyph glyph-name="uni17C7" unicode="&#x17c7;" horiz-adv-x="1169" 
d="M368 275c0 92 23 160.667 69 206c46 46 114.667 69 206 69c92 0 161 -23 207 -69c45.333 -45.333 68 -114 68 -206c0 -91.333 -22.667 -160 -68 -206c-46 -46 -115 -69 -207 -69c-91.333 0 -160 23 -206 69s-69 114.667 -69 206zM768 275c0 42 -10.333 73.333 -31 94
s-52 31 -94 31c-41.333 0 -72.333 -10.333 -93 -31c-21.333 -20.667 -32 -52 -32 -94c0 -41.333 10.667 -72.666 32 -93.999c20.667 -20.667 51.667 -31 93 -31c42 0 73.333 10.333 94 31c20.667 21.333 31 52.666 31 93.999zM570 1225c0 92 23 160.667 69 206
c46 46 114.667 69 206 69c92 0 161 -23 207 -69c45.333 -45.333 68 -114 68 -206c0 -91.333 -22.667 -160 -68 -206c-46 -46 -115 -69 -207 -69c-91.333 0 -160 23 -206 69s-69 114.667 -69 206zM970 1225c0 42 -10.333 73.333 -31 94s-52 31 -94 31
c-41.333 0 -72.333 -10.333 -93 -31c-21.333 -20.667 -32 -52 -32 -94c0 -41.333 10.667 -72.666 32 -93.999c20.667 -20.667 51.667 -31 93 -31c42 0 73.333 10.333 94 31c20.667 21.333 31 52.666 31 93.999z" />
    <glyph glyph-name="uni17C8" unicode="&#x17c8;" horiz-adv-x="900" 
d="M425 0c-42 0 -73.333 10.333 -94 31s-31 52 -31 94s10.333 73.333 31 94s52 31 94 31s73.333 -10.667 94 -32c20.667 -20.667 31 -52 31 -94c0 -20 8.33301 -30 25 -30s41.667 10 75 30c-16.667 -41.333 -43.667 -72.333 -81 -93c-38 -20.667 -86 -31 -144 -31zM638 998
c-42 0 -73.333 10.333 -94 31s-31 52 -31 94s10.333 73.333 31 94s52 31 94 31s73.333 -10.667 94 -32c20.667 -20.667 31 -52 31 -94c0 -20 8.33301 -30 25 -30s41.667 10 75 30c-16.667 -41.333 -43.667 -72.333 -81 -93c-38 -20.667 -86 -31 -144 -31z" />
    <glyph glyph-name="uni17C9" unicode="&#x17c9;" 
d="M-746 1699c-19.333 -32.667 -41.333 -49 -66 -49s-39.667 17 -45 51v14c0 47.333 19 166 57 356c5.33301 24.667 3.33301 40.334 -6 47.001c-9.33301 6 -14 21 -14 45c0 29.333 9 51 27 65c17.333 14.667 43.666 22 78.999 22s59.333 -12.333 72 -37
c12 -25.333 12.667 -63 2 -113c-51.333 -234.667 -86.666 -368.334 -105.999 -401.001zM-346 1699c-19.333 -32.667 -41.333 -48.999 -66 -48.999s-39.667 17 -45 51c-5.33301 33.333 13.667 156.666 57 369.999c5.33301 24.667 3.33301 40.334 -6 47.001
c-9.33301 6 -14 21 -14 45c0 29.333 9 51 27 65c17.333 14.667 43.666 22 78.999 22s59.333 -12.333 72 -37c6.66699 -13.333 10 -30.333 10 -51c0 -18 -2.66699 -38.667 -8 -62c-51.333 -234.667 -86.666 -368.334 -105.999 -401.001z" />
    <glyph glyph-name="uni17CA" unicode="&#x17ca;" 
d="M-887 1713c-42 -35.333 -90.999 -52.999 -146.999 -52.999c-12 0 -24.667 0.666992 -38 2l-108 14c136 75.333 233.167 136.166 291.5 182.499s101.5 87.166 129.5 122.499c28.667 34.667 52 52 70 52s54 -30.333 108 -91l79 -91l103 91l51 46c33.333 30 60 45 80 45
c20.667 0 40 -16.333 58 -49s50.667 -75 98 -127c48 -52 90.333 -93.333 127 -124s55 -53.667 55 -69c0 -9.33301 -9.33301 -14 -28 -14c-10.667 0 -25.334 1.66699 -44.001 5c-47.333 8.66699 -107.333 37.334 -180 86.001c-72 48.667 -119.333 90.667 -142 126l-221 -195
l-160 183z" />
    <glyph glyph-name="uni17CB" unicode="&#x17cb;" 
d="M-458 1699c-19.333 -32.667 -41.333 -49 -66 -49s-39.667 17 -45 51v14c0 47.333 19 166 57 356c5.33301 24.667 3.33301 40.334 -6 47.001c-9.33301 6 -14 21 -14 45c0 29.333 9 51 27 65c17.333 14.667 43.666 22 78.999 22s59.333 -12.333 72 -37
c6.66699 -13.333 10 -30.333 10 -51c0 -18 -2.66699 -38.667 -8 -62c-51.333 -234.667 -86.666 -368.334 -105.999 -401.001z" />
    <glyph glyph-name="uni17CC" unicode="&#x17cc;" 
d="M-486 1739l-76.002 -52.002c-36 -24.667 -66.667 -37 -92 -37c-21.333 0 -38.666 9 -51.999 27c-8.66699 12.667 -13 25.334 -13 38.001c0 27.333 21.333 56 64 86l94 64c124.667 86 205 170 241 252c36 83.333 54 139.333 54 168c0 66.667 25 100 75 100
c49.333 0 74 -33.333 74 -100c-0.666992 -48.667 -24.334 -125.667 -71.001 -231c-20 -46.667 -49 -92 -87 -136c10 -0.666992 20.333 -1.66699 31 -3c82.667 -8 147 -51.667 193 -131c13.333 -23.333 20 -44 20 -62c0 -25.333 -12.667 -45 -38 -59
c-14 -8.66699 -27.667 -13 -41 -13c-25.333 0 -48 16.667 -68 50c-29.333 50 -66.666 78.333 -111.999 85s-96.666 -2.66602 -153.999 -27.999z" />
    <glyph glyph-name="uni17CD" unicode="&#x17cd;" 
d="M-215 1850c43.333 0 45.002 -33.3311 5.00195 -99.998s-113.333 -100 -220 -100c-160 0 -240 75 -240 225s83.333 231.667 250 245c42.667 5.33301 87.334 -2.33398 134.001 -23c126 95.333 210.333 178.333 253 249c42 70 63 138 63 204c0 66.667 25 100 75 100
s75 -33.333 75 -100c0 -102 -30.333 -199 -91 -291c-60.667 -92.667 -153.334 -185.334 -278.001 -278c-42 -32.667 -82.5 -41.334 -121.5 -26.001s-75.5 20.333 -109.5 15c-66.667 -6.66699 -100 -38.334 -100 -95.001c0 -50 30 -75 90 -75
c73.333 0 116.666 8.33301 129.999 25s41.666 25 84.999 25z" />
    <glyph glyph-name="uni17CE" unicode="&#x17ce;" 
d="M-405 1870c-23.333 -94 -40.999 -151 -52.999 -171c-19.333 -32.667 -41.333 -49 -66 -49s-39.667 17 -45 51c-3.33301 20.667 3 77 19 169h-69c-72.667 0 -109 25 -109 75s36.333 75 109 75h97l10 51c5.33301 24.667 3.33301 40.334 -6 47c-9.33301 6 -14 21 -14 45
c0 29.333 9 51 27 65c17.333 14.667 43.666 22 78.999 22s59.333 -12.333 72 -37c12 -25.333 12.667 -63 2 -113l-17 -80h74c72 0 108 -25 108 -75s-36 -75 -108 -75h-110z" />
    <glyph glyph-name="uni17CF" unicode="&#x17cf;" 
d="M-340 1650c-49.333 0 -94.002 29.332 -134.002 87.999c-39.333 -58.667 -76.333 -88 -111 -88c-119.333 47.333 -194.333 139.666 -225 276.999l12 67c17.333 49.333 105.333 101 264 155c158 54 245 117 261 189c12 52 37.333 78 76 78
c6.66699 0 13.667 -0.666992 21 -2c36 -7.33301 54 -30.333 54 -69c0 -16 -3.33301 -34.667 -10 -56c-38 -98 -135.667 -173.333 -293 -226s-236 -102 -236 -148c4 -11.333 8.16699 -21.833 12.5 -31.5s9.83301 -19 16.5 -28s14.834 -18 24.501 -27s21.5 -18.5 35.5 -28.5
c26.667 12 63.334 44.667 110.001 98c42 -72 82.667 -108 122 -108c31.333 0 47 10.333 47 31c0 32.667 -12.333 59.667 -37 81c-24.667 20.667 -29.334 42.334 -14.001 65.001c14.667 22 42.667 33 84 33c59.333 -33.333 89 -89.666 89 -168.999
c-19.333 -120.667 -75.666 -181 -168.999 -181z" />
    <glyph glyph-name="uni17D0" unicode="&#x17d0;" 
d="M-448.5 2079c-17.667 0 -34.0029 -13.6641 -49.0029 -40.9971s-22.5 -63.333 -22.5 -108c0 -45.333 20 -78.333 60 -99c39.333 -20.667 96 -31 170 -31c92 0 168.333 42.667 229 128s116.334 203.333 167.001 353.999c35.333 98.667 53 179 53 241s25 93 75 93
s75 -37.333 75 -112s-24 -174.334 -72 -299.001c-63.333 -177.333 -133.666 -314 -210.999 -410c-78 -96.667 -183.333 -145 -316 -145c-93.333 0 -180 21.667 -260 65s-120 115 -120 215c0 73.333 22.333 141.666 67 204.999c44 62.667 97.667 94 161 94
c126.667 0 182.334 -50.667 167.001 -152c-10 -61.333 -40 -92 -90 -92s-72 15.667 -66 47s0.166992 47 -17.5 47z" />
    <glyph glyph-name="uni17D1" unicode="&#x17d1;" 
d="M30 1725c0 -50 -33.333 -75 -100 -75h-700c-66.667 0 -100 25 -100 75s33.333 75 100 75h700c66.667 0 100 -25 100 -75z" />
    <glyph glyph-name="uni17D2" unicode="&#x17d2;" 
d="M-450 -450h-150v-150h-100v150h-150v100h150v150h100v-150h150v-100z" />
    <glyph glyph-name="uni17D3" unicode="&#x17d3;" 
d="M-750 1900c0 -41.333 15 -72.666 45 -93.999c30 -20.667 75 -31 135 -31s105 10.333 135 31c30 21.333 45 52.666 45 93.999c0 42 -15 73.333 -45 94s-75 31 -135 31s-105 -10.333 -135 -31s-45 -52 -45 -94zM-271 1900c0 -83.333 -25 -145.666 -75 -186.999
c-49.333 -42 -124 -63 -224 -63s-174.667 21 -224 63c-50.667 41.333 -76 103.666 -76 186.999s25.333 146 76 188c49.333 41.333 124 62 224 62s174.667 -20.667 224 -62c50 -42 75 -104.667 75 -188z" />
    <glyph glyph-name="uni17D4" unicode="&#x17d4;" horiz-adv-x="1339" 
d="M1016 1151c-182.667 -100.667 -338 -151.001 -466 -151.001c-166.667 0 -250 83.333 -250 250s83.333 250 250 250c66.667 0 100 -25 100 -75s-33.333 -75 -100 -75s-100 -33.333 -100 -100s33.333 -100 100 -100c98.667 0 230.667 44.333 396 133l235 126
c12.667 60.667 44.334 91 95.001 91c39.333 0 59 -21.333 59 -64c0 -13.333 -2 -28.666 -6 -45.999l-237 -1120c-38.667 -180 -169.334 -270 -392.001 -270c-66.667 0 -100 25 -100 75s33.333 75 100 75c142 0 223.667 50.333 245 151l154 727l41 191z" />
    <glyph glyph-name="uni17D5" unicode="&#x17d5;" horiz-adv-x="1689" 
d="M1016 1151c-182.667 -100.667 -338 -151.001 -466 -151.001c-166.667 0 -250 83.333 -250 250s83.333 250 250 250c66.667 0 100 -25 100 -75s-33.333 -75 -100 -75s-100 -33.333 -100 -100s33.333 -100 100 -100c98.667 0 230.667 44.333 396 133l235 126
c12.667 60.667 44.334 91 95.001 91c39.333 0 59 -21.333 59 -64c0 -13.333 -2 -28.666 -6 -45.999l-237 -1120c-38.667 -180 -169.334 -270 -392.001 -270c-66.667 0 -100 25 -100 75s33.333 75 100 75c142 0 223.667 50.333 245 151l195 918zM1531 1409
c12.667 60.667 44.333 90.999 95 90.999c39.333 0 59 -21.333 59 -64c0 -13.333 -2 -28.666 -6 -45.999l-237 -1120c-38.667 -180 -152.667 -270 -342 -270c108.667 100 173.667 200.333 195 301z" />
    <glyph glyph-name="uni17D6" unicode="&#x17d6;" horiz-adv-x="1169" 
d="M368 251c0 83.333 23 145.666 69 186.999c46 42 114.667 63 206 63c92 0 161 -21 207 -63c45.333 -41.333 68 -103.666 68 -186.999s-22.667 -146 -68 -188c-46 -42 -115 -63 -207 -63c-91.333 0 -160 21 -206 63s-69 104.667 -69 188zM768 251
c0 38 -10.333 66.333 -31 85s-52 28 -94 28c-41.333 0 -72.333 -9.33301 -93 -28c-21.333 -18.667 -32 -47 -32 -85s10.667 -66.667 32 -86c20.667 -18.667 51.667 -28 93 -28c42 0 73.333 9.33301 94 28c20.667 19.333 31 48 31 86zM570 1250
c0 83.333 23 145.666 69 186.999c46 42 114.667 63 206 63c92 0 161 -21 207 -63c45.333 -41.333 68 -103.666 68 -186.999s-22.667 -145.666 -68 -186.999c-46 -42 -115 -63 -207 -63c-91.333 0 -160 21 -206 63c-46 41.333 -69 103.666 -69 186.999zM970 1250
c0 38 -10.333 66.333 -31 85c-20.667 19.333 -52 29 -94 29c-41.333 0 -72.333 -9.66699 -93 -29c-21.333 -18.667 -32 -47 -32 -85c0 -37.333 10.667 -65.666 32 -84.999c20.667 -19.333 51.667 -29 93 -29c42 0 73.333 9.66699 94 29s31 47.666 31 84.999zM462 825h564
c62.667 0 94 -25 94 -75s-31.333 -75 -94 -75h-564c-62.667 0 -94 25 -94 75s31.333 75 94 75z" />
    <glyph glyph-name="uni17D7" unicode="&#x17d7;" horiz-adv-x="1347" 
d="M1129 270c-38.667 -180 -169.33 -270.002 -391.997 -270.002c-66.667 0 -100 25 -100 75s33.333 75 100 75c142 0 223.667 50.333 245 151l158 740c6.66699 33.333 5.66699 70.333 -3 111c-12.667 59.333 -41.667 127 -87 203c-154.667 -160 -243.667 -240 -267 -240
s-76.666 78.333 -159.999 235c-90.667 -79.333 -146.334 -161.666 -167.001 -246.999c-8 -49.333 -5.33301 -87 8 -113c13.333 -26.667 28.333 -40 45 -40s30 9.33301 40 28c9.33301 18.667 -10.667 41.667 -60 69c62.667 60 118.667 69.333 168 28
s54.666 -97.333 15.999 -168c-38.667 -71.333 -93.334 -107 -164.001 -107s-126.334 31 -167.001 93c-28 42 -42 92 -42 150c0 26.667 3 55.334 9 86.001c26 120.667 98.333 228.667 217 324c39.333 31.333 80.333 47 123 47c42 0 96 -69 162 -207
c118 138 201.333 207 250 207c48 0 87.667 -25.667 119 -77c52.667 -86 87 -166.667 103 -242c6.66699 -32.667 10 -64 10 -94c0 -26 -2.33301 -51 -7 -75z" />
    <glyph glyph-name="uni17D8" unicode="&#x17d8;" horiz-adv-x="5039" 
d="M1016 1151c-182.667 -100.667 -338 -151.001 -466 -151.001c-166.667 0 -250 83.333 -250 250s83.333 250 250 250c66.667 0 100 -25 100 -75s-33.333 -75 -100 -75s-100 -33.333 -100 -100s33.333 -100 100 -100c98.667 0 230.667 44.333 396 133l235 126
c12.667 60.667 44.334 91 95.001 91c39.333 0 59 -21.333 59 -64c0 -13.333 -2 -28.666 -6 -45.999l-237 -1120c-38.667 -180 -169.334 -270 -392.001 -270c-66.667 0 -100 25 -100 75s33.333 75 100 75c142 0 223.667 50.333 245 151l154 727l41 191zM2960 -0.000976562
c-186.667 0 -315 31.333 -385 94s-92 156.334 -66 281.001l137 644c12.667 58.667 15.667 109 9 151c-6 42.667 -22 76.667 -48 102c-50.667 52 -133 78 -247 78c-111.333 0 -190.333 -15.333 -237 -46c-46 -31.333 -74.333 -73 -85 -125l-146 -681
c12.667 1.33301 26 2 40 2c36 0 69.667 -18.667 101 -56c30.667 -38 37.334 -88 20 -150c-18 -62 -59.333 -126.333 -124 -193c-64.667 -67.333 -114.667 -101 -150 -101s-65 16.667 -89 50c-14.667 20.667 -22 47.667 -22 81c0 20.667 2.66699 43.667 8 69l213 1000
c21.333 100 69.333 175 144 225c75.333 50 184.333 75 327 75c54.667 0 118 -10.667 190 -32s129 -53.666 171 -96.999c42.667 -42.667 70 -96.334 82 -161.001c12 -64 8.66699 -139 -10 -225l-136 -635c-13.333 -66.667 2.66699 -116.667 48 -150s130.333 -50 255 -50
c106 0 186.333 18.667 241 56c54.667 38 90 94.333 106 169l118 558c9.33301 43.333 -6.66699 87.666 -48 132.999c-42 44.667 -107.667 69.667 -197 75c98 57.333 176.667 119.333 236 186s103 124.334 131 173.001c48 -72 96 -124.667 144 -158
c47.333 -33.333 94.666 -47.333 142 -42l-50 -34c-34 -23.333 -76 -36 -126 -38c-50 -2.66699 -92.667 16.666 -128 57.999l-91 -98c56.667 -38.667 96 -82 118 -130s27 -100.667 15 -158l-117 -550c-24.667 -116.667 -76.334 -204 -155 -262
c-79.333 -58.667 -192.333 -88 -339 -88zM4716 1151c-182.666 -100.667 -338 -151.001 -466 -151.001c-166.667 0 -250 83.333 -250 250s83.333 250 250 250c66.666 0 100 -25 100 -75s-33.334 -75 -100 -75s-100 -33.333 -100 -100s33.334 -100 100 -100
c98.666 0 230.666 44.333 396 133l235 126c12.666 60.667 44.333 91 95 91c39.334 0 59 -21.333 59 -64c0 -13.333 -2 -28.666 -6 -45.999l-237 -1120c-38.666 -180 -169.333 -270 -392 -270c-66.666 0 -100 25 -100 75s33.334 75 100 75c142 0 223.666 50.333 245 151
l154 727l41 191z" />
    <glyph glyph-name="uni17D9" unicode="&#x17d9;" horiz-adv-x="1550" 
d="M692 12c-154.667 33.333 -258.667 115.333 -312 246c-28 68 -42 149.667 -42 245c0 86.667 11.667 184.334 35 293.001c48.667 228 123.667 391 225 489c76.667 72.667 167.667 109 273 109c36 0 73.333 -4 112 -12c154.667 -32.667 258.667 -114.334 312 -245.001
c28 -68 42 -149.667 42 -245c0 -86.667 -11.667 -184.667 -35 -294c-48.667 -228 -124 -390.667 -226 -488c-76 -73.333 -167.333 -110 -274 -110c-35.333 0 -72 4 -110 12zM959 1267c-116.667 24.667 -214.001 -4 -292.001 -86
c-78 -82.667 -137.333 -219.334 -178 -410.001c-40.667 -190 -42 -339 -4 -447c38 -106.667 115 -172.334 231 -197.001s213 4 291 86c78.667 82.667 138.334 219.334 179.001 410.001c40 190.667 41.333 339.667 4 447c-38 106.667 -115 172.334 -231 197.001zM739.999 240
c-77.333 16.667 -127 67.334 -149 152.001c-22.667 84 -17.667 202 15 354c32 152 75.333 262 130 330c54.667 68.667 120.667 94.667 198 78c78 -16.667 128 -67.334 150 -152.001c22.667 -84 17.667 -202 -15 -354c-32 -152 -75.333 -262 -130 -330s-121 -94 -199 -78z
M909.999 1039c-38.667 8.66699 -73.667 -13.332 -105 -65.999c-32 -53.333 -60 -137 -84 -251s-32.333 -201.667 -25 -263s30.333 -96 69 -104c38 -8.66699 73 13.666 105 66.999c31.333 52.667 59.333 136 84 250c24 114.667 32.333 202.667 25 264
c-7.33301 60.667 -30.333 95 -69 103z" />
    <glyph glyph-name="uni17DA" unicode="&#x17da;" horiz-adv-x="3501" 
d="M2856 507c6.66699 -10 15 -10.667 25 -2c3.33301 2.66699 0 13.667 -10 33c-14 -14.667 -19 -25 -15 -31zM1597 1131c-35.333 35.333 -69 31.667 -101 -11c-16 -21.333 -4.33301 -62.333 35 -123c3.33301 -6 7.33301 -12 12 -18c54 83.333 72 134 54 152zM1781 347.001
c23.333 -27.333 49.332 -29.667 77.999 -7c14 11.333 1.33301 44.333 -38 99c-37.333 -48 -50.666 -78.667 -39.999 -92zM2199 1094c-17.333 23.333 -38.334 26 -63.001 8c-12 -8.66699 -3.66699 -36.667 25 -84c32.667 40.667 45.334 66 38.001 76zM2368 437
c8.66699 -10 19.334 -11.001 32 -3.00098c4 2.66699 0 14 -12 34c-16.667 -17.333 -23.334 -27.666 -20 -30.999zM2756 1011c-8 8 -18 6.66504 -30 -4.00195c-4 -3.33301 -2 -12.666 6 -27.999c18.667 18.667 26.667 29.334 24 32.001zM2906 737.997
c27.333 12 56.335 21.9941 87.002 29.9941c76.667 21.333 164 32 262 32c63.333 0 95 -25 95 -75s-33 -75 -99 -75h-120c-57.333 0 -108 -11 -152 -33c13.333 -27.333 23 -52.666 29 -75.999c17.333 -67.333 4 -117.666 -40 -150.999s-85.333 -47.333 -124 -42
c-39.333 4.66699 -76 28.334 -110 71.001s-46 85.334 -36 128.001c10 40 39.667 80 89 120l-32 46c-12 14.667 -23 29 -33 43c-30.667 -28 -64.667 -57 -102 -87l-133 -110c13.333 -25.333 24 -49 32 -71c28 -80 19.333 -137 -26 -171s-88 -48 -128 -42
c-40.667 6 -78.334 31.333 -113 76c-34.667 44.667 -30.667 103.667 12 177c11.333 18.667 25 38.334 41 59.001l-86 113l-69 86c-32.667 -37.333 -70 -77 -112 -119l-129 -128c29.333 -43.333 51.666 -83 66.999 -119c37.333 -88 29.666 -152 -23.001 -192
s-102.667 -58 -150 -54s-92 30.667 -134 80s-41.667 117.333 1 204c14.667 30 34 62 58 96l-99 108l-73 80c-44.667 -64 -98 -133.333 -160 -208c-148.667 -178 -288 -311.333 -418 -400c-130.667 -89.333 -251.667 -134 -363 -134c-138 0 -241.667 62.333 -311 187
c-69.333 125.333 -104 313 -104 563s39.667 437.333 119 562c79.333 125.333 198 188 356 188c158.667 0 277.667 -33 357 -99c78.667 -66 118 -165 118 -297c0 -135.333 -28.667 -244 -86 -326c-58 -82.667 -144.667 -138.667 -260 -168c-56 -16 -90.667 0 -104 48
c-13.333 48.667 8.33398 80.667 65.001 96c78 20 136.667 58.667 176 116s59 133 59 227c0 84 -27 147 -81 189c-54.667 42.667 -136 64 -244 64s-189 -50 -243 -150c-54.667 -100 -81.667 -250 -81 -450c0 -200 22 -350 66 -450s110.333 -150 199 -150
c88 0 186 38.667 294 116s226.333 193.333 355 348c80 96 145.667 179 197 249c-36 51.333 -62.667 98.666 -80 141.999c-38 95.333 -32.333 171.333 17 228s98.666 85.334 147.999 86.001c48.667 0.666992 97.667 -27 147 -83s49 -142.333 -1 -259
c-15.333 -35.333 -35 -73.333 -59 -114c28 -32.667 59.667 -67.667 95 -105c31.333 -33.333 60 -65.333 86 -96c32.667 36.667 69.667 75.334 111 116.001c54 50.667 100 95.667 138 135c-21.333 39.333 -39.333 81 -54 125c-29.333 88 -18.333 151.333 33 190
s99 55.334 143 50.001c44.667 -5.33301 86 -32.333 124 -81s34.333 -117 -11 -205c-14.667 -28 -33.334 -58.333 -56 -91l81 -103c29.333 -36.667 55.666 -71.667 79 -105c30.667 30 65.667 61.333 105 94l125 104c-15.333 30 -26.666 57.667 -34 83
c-20 68.667 -7.66699 119.667 37 153c44 33.333 86 47 126 41c40 -5.33301 78 -30.333 114 -75c35.333 -44.667 31.666 -102.334 -11 -173.001c-12.667 -20.667 -28.667 -42.667 -48 -66l47 -60c15.333 -19.333 29.333 -38 42 -56z" />
    <glyph glyph-name="uni17DB" unicode="&#x17db;" horiz-adv-x="849" 
d="M694 700l-116.998 -549.998c-14 -67.333 -31.667 -109 -53 -125c-21.333 -16.667 -43.333 -25 -66 -25c-49.333 0 -95 49 -137 147c-34.667 80.667 -52 150 -52 208c0 12 0.666992 23.333 2 34c9.33301 63.333 35.666 106.333 78.999 129
c44 21.333 82.333 24.666 115 9.99902c12.667 -6 24.667 -12 36 -18l40 190h-141c-66.667 0 -100 25 -100 75s33.333 75 100 75h173l18 83c9.33301 43.333 -6.66699 87.666 -48 132.999c-42 44.667 -107.667 69.667 -197 75c98 57.333 176.667 119.333 236 186
s103 124.334 131 173.001c48 -72 96 -124.667 144 -158c47.333 -33.333 94.666 -47.333 141.999 -42l-50 -34c-34 -23.333 -76 -36 -126 -38c-50 -2.66699 -92.667 16.666 -128 57.999l-91 -98c56.667 -38.667 96 -82 118 -130s27 -100.667 15 -158l-11 -50h74
c66.667 0 100 -25 100 -75s-33.333 -75 -100 -75h-106z" />
    <glyph glyph-name="uni17DC" unicode="&#x17dc;" horiz-adv-x="1536" 
d="M256 0v1280h1024v-1280h-1024zM288 32h960v1216h-960v-1216z" />
    <glyph glyph-name="uni17DD" unicode="&#x17dd;" horiz-adv-x="1536" 
d="M256 0v1280h1024v-1280h-1024zM288 32h960v1216h-960v-1216z" />
    <glyph glyph-name="uni17E0" unicode="&#x17e0;" horiz-adv-x="1528" 
d="M715 16c-260 55.333 -390 213 -390 473c0 65.333 8.33301 137.666 25 216.999c70.667 332.667 229 499 475 499c43.333 0 89.666 -5.33301 138.999 -16c260 -55.333 390 -213 390 -473c0 -65.333 -8.33301 -137.666 -25 -216.999c-70.667 -332.667 -229 -499 -475 -499
c-43.333 -0 -89.666 5.33301 -138.999 16zM1182 530c62 293.333 -21 464.333 -249 513c-228 48 -373.333 -74.667 -436 -368c-62 -293.333 21 -464.333 249 -513c228 -48 373.333 74.667 436 368z" />
    <glyph glyph-name="uni17E1" unicode="&#x17e1;" horiz-adv-x="1602" 
d="M728 484c-19.333 30 -54.3281 49.998 -104.995 59.998c-64.667 14 -91.834 45.5 -81.501 94.5s48.166 66.5 113.499 52.5c98 -20 166.333 -59.333 205 -118c37.333 -56.667 46.666 -131.334 27.999 -224.001c-23.333 -104 -64.333 -176.667 -123 -218
c-56 -40 -128.667 -51.333 -218 -34c-73.333 16 -128.333 53 -165 111c-39.333 60 -59 142.667 -59 248c0 80 11 172.667 33 278c33.333 154 99 270 197 348c99.333 78.667 215 118 347 118c195.333 0 350.666 -61.667 465.999 -185c55.333 -67.333 83 -152 83 -254
c0 -46.667 -6 -97.334 -18 -152.001c-36 -161.333 -103.5 -307.666 -202.5 -438.999s-268.833 -262.333 -509.5 -393c-40.667 -19.333 -74.334 -29 -101.001 -29c-28.667 0 -48.667 11.333 -60 34c-23.333 44.667 4.66699 85.334 84 122.001
c230.667 128 387 246.333 469 355s138.667 234 170 376c25.333 114 10 205.667 -46 275c-90.667 93.333 -202.334 140 -335.001 140c-91.333 0 -174.333 -29.667 -249 -89c-73.333 -58 -122.333 -145 -147 -261v-1c-38 -176 -42 -301.333 -12 -376
c18 -43.333 47 -69.666 87 -78.999c40.667 -7.33301 74.334 -0.333008 101.001 21c28.667 22.667 49 61 61 115c8 42.667 3.66699 77.334 -13 104.001z" />
    <glyph glyph-name="uni17E2" unicode="&#x17e2;" horiz-adv-x="1702" 
d="M1576 975c12 -12 18 -28.334 18 -49.001c0 -8.66699 -1 -18 -3 -28l-117 -548c-24.667 -116.667 -82 -204 -172 -262c-90.667 -58.667 -230.667 -88 -420 -88c-157.333 0 -270 28.833 -338 86.5s-112 128.834 -132 213.501c-9.33301 38.667 -14 77 -14 115
c0 44.667 6.33301 88.667 19 132l85 399c65.333 315.333 57.333 569 -24 761c-30 71.333 -23 115.666 21 132.999c9.33301 3.33301 18 5 26 5c32.667 0 60 -26.333 82 -79c100.667 -219.333 114.667 -502.666 42 -849.999l-86 -400c-26 -124 -5 -227.333 63 -310
c39.333 -37.333 124.666 -56 255.999 -56c159.333 0 269.333 19.667 330 59s98.334 93.333 113.001 162l90 419l-250 -152l-215 177l-286 -204l25 101l262 288l228 -187l308 187c42 0 71.667 -8.33301 89 -25z" />
    <glyph glyph-name="uni17E3" unicode="&#x17e3;" horiz-adv-x="2249" 
d="M486 150c59.333 0 108.332 22.666 146.999 67.999c38 44.667 62 89.334 72 134.001c10 44 5.66699 71.333 -13 82s-42.667 16 -72 16c-47.333 0 -76.666 -26.333 -87.999 -79zM1201 729.999c10 54 12.002 100.666 6.00195 139.999c-6 42.667 -22 76.667 -48 102
c-50.667 52 -140 78 -268 78c-64.667 0 -120.334 -15.333 -167.001 -46c-46 -31.333 -74.333 -73 -85 -125l-59 -281c12.667 1.33301 26 2 40 2c69.333 0 123.666 -12.667 162.999 -38c64.667 -42.667 87.667 -119.334 69 -230.001c-14.667 -86 -58 -162.667 -130 -230
c-72 -68 -150.667 -102 -236 -102c-62 0 -105 16.667 -129 50c-14.667 20.667 -22 48 -22 82c0 20.667 2.66699 43.334 8 68.001l147 700c21.333 100 69.333 175 144 225c75.333 50 161 75 257 75c68.667 0 139 -10.667 211 -32s129 -53.666 171 -96.999
c8.66699 -8.66699 16.667 -18 24 -28c22.667 32.667 50.667 60 84 82c75.333 50 161 75 257 75c68.667 0 139 -10.667 211 -32s129 -53.666 171 -96.999c42.667 -42.667 70 -96.334 82 -161.001c4.66699 -25.333 7 -52 7 -80c0 -44 -5.66699 -92.333 -17 -145l-143 -687
c-43.333 -198.667 -153 -298 -329 -298c-111.333 0 -184.666 66.667 -219.999 200c66.667 -33.333 140 -50 220 -50c86.667 0 147.334 64 182.001 192l144 677c12 58.667 14.667 109 8 151c-6 42.667 -22 76.667 -48 102c-50.667 52 -140 78 -268 78
c-64.667 0 -120.334 -15.333 -167.001 -46c-46 -31.333 -74.333 -73 -85 -125l-164 -779c-14.667 -66.667 -45.334 -100 -92.001 -100c-58 0 -76.333 43.667 -55 131z" />
    <glyph glyph-name="uni17E4" unicode="&#x17e4;" horiz-adv-x="1644" 
d="M1529 946c22 -24 32.998 -55.6699 32.998 -95.0029c0 -15.333 -1.66699 -32 -5 -50c-8.66699 -44 -38 -62.667 -88 -56c-50 6 -72 25 -66 57c2.66699 14.667 0.333984 26 -6.99902 34c-8.66699 9.33301 -24 14 -46 14c-16 0 -30.333 -5 -43 -15
c-19.333 -16 -35.333 -43 -48 -81c-8 -24.667 -4.33301 -51.667 11 -81c24.667 -46 78.334 -97.333 161.001 -154c45.333 -31.333 57 -81 35 -149l-25 -76c-36.667 -113.333 -103 -194 -199 -242c-68 -34.667 -159 -52 -273 -52c-47.333 0 -98.333 3 -153 9
c-156.667 16.667 -265.834 57.167 -327.501 121.5s-98.167 139.833 -109.5 226.5c-2.66699 22 -4 43.667 -4 65c0 62.667 12 122.667 36 180l127 388c98 306.667 116.667 559.334 56 758.001c-22 74.667 -10 118.334 36 131.001c6.66699 2 13 3 19 3
c36 0 62.333 -29.667 79 -89c77.333 -228 61.666 -511 -47.001 -849l-128 -388c-39.333 -120.667 -29.333 -225.667 30 -315c34.667 -41.333 117.334 -69 248.001 -83c158.667 -16.667 270.334 -8.66699 335.001 24c64 32.667 107 82.334 129 149.001l23 72
c-98 77.333 -163.333 152.333 -196 225c-26 56 -32.333 110.667 -19 164c18 73.333 49.333 127 94 161c40 31.333 91 47 153 47c85.333 0 145 -18 179 -54z" />
    <glyph glyph-name="uni17E5" unicode="&#x17e5;" horiz-adv-x="1644" 
d="M850 1250v10c0 60 -16.667 90 -50 90s-50 -16.667 -50 -50s30 -50 90 -50h10zM1000 1262c138.667 22 256.329 73.999 352.996 155.999c131.333 111.333 197 238.666 197 381.999c0 66.667 25 100 75 100s75 -33.333 75 -100c0 -190.667 -81.667 -355 -245 -493
c-134.667 -113.333 -297 -180 -487 -200c-34 -80 -95 -157 -183 -231c-116.667 -98 -194 -204.667 -232 -320c-39.333 -120.667 -29.333 -225.667 30 -315c34.667 -41.333 117.334 -69 248.001 -83c158.667 -16.667 270.334 -8.66699 335.001 24
c64 32.667 107 82.334 129 149.001l23 72c-98 77.333 -163.333 152.333 -196 225c-26 56 -32.333 110.667 -19 164c18 73.333 49.333 127 94 161c40 31.333 91 47 153 47c85.333 0 145 -18 179 -54c22 -24 33 -55.667 33 -95c0 -15.333 -1.66699 -32 -5 -50
c-8.66699 -44 -38 -62.667 -88 -56c-50 6 -72 25 -66 57c2.66699 14.667 0.333984 26 -6.99902 34c-8.66699 9.33301 -24 14 -46 14c-16 0 -30.333 -5 -43 -15c-19.333 -16 -35.333 -43 -48 -81c-8 -24.667 -4.33301 -51.667 11 -81c24.667 -46 78.334 -97.333 161.001 -154
c45.333 -31.333 57 -81 35 -149l-25 -76c-36.667 -113.333 -103 -194 -199 -242c-68 -34.667 -159 -52 -273 -52c-47.333 0 -98.333 3 -153 9c-156.667 16.667 -265.834 57.167 -327.501 121.5s-98.167 139.833 -109.5 226.5c-2.66699 22 -4 43.667 -4 65
c0 62.667 12 122.667 36 180c46.667 142.667 135.667 269.667 267 381c48 40.667 86 80.334 114 119.001c-128 12.667 -192 78.667 -192 198c0 133.333 66.667 200 200 200c132.667 0 199.334 -79.333 200.001 -238z" />
    <glyph glyph-name="uni17E6" unicode="&#x17e6;" horiz-adv-x="1644" 
d="M457 108c-54.667 49.333 -82.002 116.001 -82.002 200.001c0 31.333 3.66699 64.666 11 99.999c34.667 161.333 156 242 364 242c166.667 0 250 -83.333 250 -250c0 -66.667 -25 -100 -75 -100s-75 33.333 -75 100s-33.333 100 -100 100
c-127.333 0 -199.666 -41 -216.999 -123c-12 -56.667 -3.66699 -102.667 25 -138c47.333 -59.333 151.333 -89 312 -89c122.667 0 224.334 34.333 305.001 103c92.667 80 157.334 205.667 194.001 377c33.333 156 15 268.667 -55 338c-56 55.333 -144 83 -264 83
c-248.667 0 -386 -60.333 -412 -181c-11.333 -54 -42.166 -75.667 -92.499 -65s-68.166 41.667 -53.499 93c8.66699 39.333 22.667 75 42 107c54.667 175.333 76.334 333 65.001 473c-8 98.667 -32.667 188.667 -74 270c-36.667 70 -34.334 113.667 6.99902 131
c7.33301 3.33301 15 5 23 5c33.333 0 68 -30.333 104 -91c44 -86 72 -180 84 -282c13.333 -110 7.66602 -229.333 -17.001 -358c85.333 31.333 193.333 47 324 47c171.333 0 297.666 -37.667 378.999 -113c72.667 -67.333 109 -165.333 109 -294
c0 -58 -7.33301 -122.333 -22 -193c-44.667 -210 -125.334 -365 -242.001 -465c-105.333 -90 -240 -135 -404 -135c-195.333 0 -333 36 -413 108z" />
    <glyph glyph-name="uni17E7" unicode="&#x17e7;" horiz-adv-x="2000" 
d="M486 150c39.333 0 95.002 31 167.002 93c51.333 44.667 85.666 97.667 102.999 159c10 44 5.66699 71.333 -13 82s-49.334 16 -92.001 16c-60.667 0 -96.667 -26.333 -108 -79zM1420 0c-114 0 -158.668 61.999 -134.001 185.999l155 728
c24.667 110 37.334 181 38.001 213c-3.33301 58 -24.333 111 -63 159c-39.333 42.667 -69.333 64 -90 64c-21.333 0 -106.333 -66.667 -255 -200c-85.333 133.333 -142.333 200 -171 200c-30.667 -2.66699 -58 -14.334 -82 -35.001l-72 -62c-24 -20.667 -50 -103 -78 -247
l-78 -370c20 9.33301 40.333 14 61 14c69.333 0 118.666 -8.33301 147.999 -25c88 -51.333 122.667 -132.333 104 -243c-22 -102.667 -75.667 -187.667 -161 -255c-105.333 -84.667 -190.666 -127 -255.999 -127c-62 0 -105 16.667 -129 50c-14.667 20.667 -22 48 -22 82
c0 20.667 2.66699 43.334 8 68.001l176 836c34 162.667 78.667 267.334 134 314.001l101 82c53.333 45.333 102 68 146 68c66.667 0 115.667 -27.667 147 -83l50 -77c106 106.667 185 160 237 160s110.667 -36.667 176 -110c64.667 -78.667 102.334 -156.667 113.001 -234
c6 -51.333 -5 -140 -33 -266l-158 -740c98.667 0 160.334 58.667 185.001 176l154 725c37.333 176.667 -7.66699 394.667 -135 654c-42.667 86 -55.334 133.333 -38.001 142c1.33301 0.666992 3 1 5 1c18.667 0 55.667 -39.667 111 -119c146 -210 219 -404.667 219 -584
c0 -44.667 -4.33301 -88 -13 -130l-156 -712c-42.667 -202 -157.334 -303 -344.001 -303z" />
    <glyph glyph-name="uni17E8" unicode="&#x17e8;" horiz-adv-x="1700" 
d="M1349 696c-6 19.333 -16.665 29.667 -31.998 31c-41.333 3.33301 -57 -19.334 -47 -68.001c9.33301 -48.667 -21 -60 -91 -34c-70.667 26 -87 76.333 -49 151c37.333 74 97 104 179 90c70.667 -9.33301 121.667 -39.666 153 -90.999c38.667 -64 46.667 -160.333 24 -289
l-32 -136c-24.667 -116.667 -70 -204.167 -136 -262.5s-133.667 -87.5 -203 -87.5c-77.333 0 -138.666 25 -183.999 75c-16 17.333 -29.667 34.333 -41 51c-12 -14 -24.667 -26.667 -38 -38c-77.333 -58.667 -147.333 -88 -210 -88c-90.667 0 -153.834 25 -189.501 75
s-59.834 98 -72.501 144c-6 23.333 -9 48 -9 74s3 53.333 9 82l87 413c28.667 137.333 87.334 240.333 176.001 309c89.333 68.667 208.333 103 357 103c171.333 0 308.333 -26.667 411 -80c62.667 117.333 103 219.333 121 306c17.333 86.667 14.666 173.667 -8.00098 261
c-23.333 86.667 -24.333 135.667 -3 147c2 1.33301 4.33301 2 7 2c22.667 0 58.667 -41 108 -123c34 -60 51 -130 51 -210c0 -20 -1 -40.667 -3 -62c-10.667 -106.667 -68 -238 -172 -394c-59.333 -62 -113 -79.667 -161 -53c-87.333 37.333 -204.333 56 -351 56
c-106 0 -191 -23.667 -255 -71c-64.667 -48.667 -108 -122 -130 -220l-87 -409c-13.333 -64 -10.5 -113.333 8.5 -148s54.167 -52 105.5 -52c32.667 0 72.667 19.667 120 59c38.667 39.333 65.334 93.333 80.001 162l24 114c16.667 77.333 50.667 116 102 116
s68 -41.667 50 -125l-27 -126c-13.333 -64 -8.83301 -113.333 13.5 -148s59.166 -52 110.499 -52c39.333 0 77.166 19.667 113.499 59s61.833 93.333 76.5 162l34 149c16.667 84 20 142.667 10 176z" />
    <glyph glyph-name="uni17E9" unicode="&#x17e9;" horiz-adv-x="1699" 
d="M536 189c24.667 -26 62.6689 -39.002 114.002 -39.002c58.667 0 96.667 15.333 114 46c16.667 30 4 48 -38 54c-44.667 6.66699 -60.167 33.667 -46.5 81s45.834 62 96.501 44c126 -51.333 164.667 -126.666 116 -225.999c-49.333 -99.333 -130 -149 -242 -149
c-100.667 0 -176 25.333 -226 76c-49.333 50 -74 124.667 -74 224c0 132.667 33 232.334 99 299.001c66.667 67.333 167 101 301 101h11c-60 98 -72.333 194.667 -37 290c50.667 140 142.667 210 276 210c130 0 267.333 -81.667 412 -245c16 172 58.667 330.333 128 475
c66 138 156 263.333 270 376c29.333 29.333 55 44 77 44c12.667 0 24.334 -5 35.001 -15c10.667 -10.667 16 -23 16 -37c0 -21.333 -13.333 -46.333 -40 -75c-95.333 -100 -170.666 -212.333 -225.999 -337c-58.667 -132.667 -95.334 -279 -110.001 -439
c-6.66699 -73.333 -38.334 -121 -95.001 -143s-106.667 -9.66699 -150 37c-128.667 139.333 -234.334 209 -317.001 209c-64 0 -109 -38.333 -135 -115c-26.667 -77.333 12.333 -168.333 117 -273l39 -46c113.333 -64 237.666 -164.667 372.999 -302
c36.667 -31.333 40.167 -67 10.5 -107s-66.834 -41.333 -111.501 -4c-220.667 231.333 -401.667 347 -543 347c-84 0 -147 -21.333 -189 -64c-40.667 -41.333 -61 -103.333 -61 -186c0 -48.667 12 -85.667 36 -111z" />
    <glyph glyph-name="uni17F0" unicode="&#x17f0;" horiz-adv-x="1536" 
d="M256 0v1280h1024v-1280h-1024zM288 32h960v1216h-960v-1216z" />
    <glyph glyph-name="uni17F1" unicode="&#x17f1;" horiz-adv-x="1536" 
d="M256 0v1280h1024v-1280h-1024zM288 32h960v1216h-960v-1216z" />
    <glyph glyph-name="uni17F2" unicode="&#x17f2;" horiz-adv-x="1536" 
d="M256 0v1280h1024v-1280h-1024zM288 32h960v1216h-960v-1216z" />
    <glyph glyph-name="uni17F3" unicode="&#x17f3;" horiz-adv-x="1536" 
d="M256 0v1280h1024v-1280h-1024zM288 32h960v1216h-960v-1216z" />
    <glyph glyph-name="uni17F4" unicode="&#x17f4;" horiz-adv-x="1536" 
d="M256 0v1280h1024v-1280h-1024zM288 32h960v1216h-960v-1216z" />
    <glyph glyph-name="uni17F5" unicode="&#x17f5;" horiz-adv-x="1536" 
d="M256 0v1280h1024v-1280h-1024zM288 32h960v1216h-960v-1216z" />
    <glyph glyph-name="uni17F6" unicode="&#x17f6;" horiz-adv-x="1536" 
d="M256 0v1280h1024v-1280h-1024zM288 32h960v1216h-960v-1216z" />
    <glyph glyph-name="uni17F7" unicode="&#x17f7;" horiz-adv-x="1536" 
d="M256 0v1280h1024v-1280h-1024zM288 32h960v1216h-960v-1216z" />
    <glyph glyph-name="uni17F8" unicode="&#x17f8;" horiz-adv-x="1536" 
d="M256 0v1280h1024v-1280h-1024zM288 32h960v1216h-960v-1216z" />
    <glyph glyph-name="uni17F9" unicode="&#x17f9;" horiz-adv-x="1536" 
d="M256 0v1280h1024v-1280h-1024zM288 32h960v1216h-960v-1216z" />
    <glyph glyph-name="uni200B" unicode="&#x200b;" 
 />
    <glyph glyph-name="afii61664" unicode="&#x200c;" 
d="M36 -275h-72v1859h72v-1859z" />
    <glyph glyph-name="afii301" unicode="&#x200d;" 
d="M219 1369l-49 -49l-134 136v-1731h-72v1731l-134 -136l-49 49l171 169l-171 168l49 49l170 -171l170 171l49 -49l-171 -168z" />
    <glyph glyph-name="uni25CC" unicode="&#x25cc;" horiz-adv-x="1300" 
d="M954 250c32.667 0 49 -14.001 49 -42.001c0 -26.667 -15.333 -40 -46 -40h-3c-32.667 0.666992 -49 14.334 -49 41.001c0 27.333 16.333 41 49 41zM1022 404.999c33.333 0 50 -13.668 50 -41.001s-16.667 -41 -50 -41c-32.667 0.666992 -49 14.334 -49 41.001
c0 27.333 16.333 41 49 41zM835 113.998c32.667 0 49 -14 49 -42c0 -27.333 -16.333 -41 -49 -41c-32.667 0.666992 -49 14.667 -49 42s16.333 41 49 41zM617 82.998c33.333 0 50 -14.001 50 -42.001c0 -26.667 -15.667 -40 -47 -40h-3
c-32.667 0.666992 -49 14.334 -49 41.001c0 27.333 16.333 41 49 41zM472 205.997c33.333 0 50 -14.001 50 -42.001c0 -26.667 -15.667 -40 -47 -40h-3c-32.667 0.666992 -49 14.334 -49 41.001c0 27.333 16.333 41 49 41zM391 359.996c33.333 0 50 -14.001 50 -42.001
c0 -26.667 -15.667 -40 -47 -40h-3c-32.667 0.666992 -49 14.334 -49 41.001c0 27.333 16.333 41 49 41zM353 520.995c33.333 0 50 -14.001 50 -42.001c0 -26.667 -15.667 -40 -47 -40h-3c-32.667 0.666992 -49 14.334 -49 41.001c0 27.333 16.333 41 49 41zM349 682.994
c33.333 0 50 -14.001 50 -42.001c0 -26.667 -15.667 -40 -47 -40h-3c-32.667 0.666992 -49 14.334 -49 41.001c0 27.333 16.333 41 49 41zM373 844.993c33.333 0 50 -14.001 50 -42.001c0 -26.667 -15.667 -40 -47 -40h-3c-32.667 0.666992 -49 14.334 -49 41.001
c0 27.333 16.333 41 49 41zM436 1001.99c32.667 0 49 -13.668 49 -41.001s-16.333 -41 -49 -41c-32.667 0.666992 -49 14.334 -49 41.001c0 27.333 16.333 41 49 41zM551 1144.99c32.667 0 49 -14.001 49 -42.001c0 -26.667 -15.333 -40 -46 -40h-3
c-32.667 0.666992 -49 14.334 -49 41.001c0 27.333 16.333 41 49 41zM738 1196.99c33.333 0 50 -14.001 50 -42.001c0 -26.667 -15.667 -40 -47 -40h-3c-32.667 0.666992 -49 14.334 -49 41.001c0 27.333 16.333 41 49 41zM901 1092.99c33.333 0 50 -14.001 50 -42.001
c0 -26.667 -15.667 -40 -47 -40h-3c-32.667 0.666992 -49 14.334 -49 41.001c0 27.333 16.333 41 49 41zM1000 925.988c33.333 0 50 -14.001 50 -42.001c0 -26.667 -15.667 -40 -47 -40h-3c-32.667 0.666992 -49 14.334 -49 41.001c0 27.333 16.333 41 49 41zM1042 765.987
c33.333 0 50 -14 50 -42c0 -27.333 -16.667 -41 -50 -41c-32.667 0.666992 -49 14.667 -49 42s16.333 41 49 41zM1050 578.987c33.333 0 50 -14.001 50 -42.001c0 -26.667 -15.667 -40 -47 -40h-3c-32.667 0.666992 -49 14.334 -49 41.001c0 27.333 16.333 41 49 41z" />
    <glyph glyph-name="glyph1" 
 />
    <glyph glyph-name="glyph2" horiz-adv-x="569" 
 />
    <glyph glyph-name="glyph192" horiz-adv-x="1536" 
d="M256 0v1280h1024v-1280h-1024zM288 32h960v1216h-960v-1216z" />
    <glyph glyph-name="glyph193" horiz-adv-x="1536" 
d="M256 0v1280h1024v-1280h-1024zM288 32h960v1216h-960v-1216z" />
    <glyph glyph-name="glyph204" horiz-adv-x="1536" 
d="M256 0v1280h1024v-1280h-1024zM288 32h960v1216h-960v-1216z" />
    <glyph glyph-name="glyph205" horiz-adv-x="1536" 
d="M256 0v1280h1024v-1280h-1024zM288 32h960v1216h-960v-1216z" />
    <glyph glyph-name="glyph206" horiz-adv-x="1536" 
d="M256 0v1280h1024v-1280h-1024zM288 32h960v1216h-960v-1216z" />
    <glyph glyph-name="glyph207" horiz-adv-x="1536" 
d="M256 0v1280h1024v-1280h-1024zM288 32h960v1216h-960v-1216z" />
    <glyph glyph-name="glyph208" horiz-adv-x="1536" 
d="M256 0v1280h1024v-1280h-1024zM288 32h960v1216h-960v-1216z" />
    <glyph glyph-name="glyph209" horiz-adv-x="1536" 
d="M256 0v1280h1024v-1280h-1024zM288 32h960v1216h-960v-1216z" />
    <glyph glyph-name="glyph220" horiz-adv-x="1536" 
d="M256 0v1280h1024v-1280h-1024zM288 32h960v1216h-960v-1216z" />
    <glyph glyph-name="glyph221" horiz-adv-x="1536" 
d="M256 0v1280h1024v-1280h-1024zM288 32h960v1216h-960v-1216z" />
    <glyph glyph-name="glyph222" horiz-adv-x="1536" 
d="M256 0v1280h1024v-1280h-1024zM288 32h960v1216h-960v-1216z" />
    <glyph glyph-name="glyph223" horiz-adv-x="1536" 
d="M256 0v1280h1024v-1280h-1024zM288 32h960v1216h-960v-1216z" />
    <glyph glyph-name="glyph224" horiz-adv-x="1536" 
d="M256 0v1280h1024v-1280h-1024zM288 32h960v1216h-960v-1216z" />
    <glyph glyph-name="glyph225" horiz-adv-x="1536" 
d="M256 0v1280h1024v-1280h-1024zM288 32h960v1216h-960v-1216z" />
    <glyph glyph-name="glyph229" horiz-adv-x="756" 
d="M-238 -769c-64 21.333 -111.999 53 -143.999 95c-40.667 -42 -91.334 -73.667 -152.001 -95c-60 -20.667 -113.333 -31 -160 -31c-126.667 0 -225 31.333 -295 94s-92 156.334 -66 281.001l11 70c-71.333 30 -107 72 -107 126c0 9.33301 1 18.666 3 27.999
c14 67.333 55.333 101 124 101s113.667 -18.667 135 -56s23 -98.333 5 -183l-23 -111c-13.333 -66.667 2.66699 -116.667 48 -150s100.333 -50 165 -50c55.333 0 110 17 164 51c53.333 34.667 89.333 86.334 108 155.001l70 347c48 -72 99 -123.333 153 -154
c53.333 -30.667 115 -32.667 185 -6c-57.333 -71.333 -121.333 -108.333 -192 -111c-37.333 -3.33301 -56.333 -13.333 -57 -30l-7 -52c-13.333 -66.667 2.66699 -116.667 48 -150s100.333 -50 165 -50c52.667 0 106.334 18.667 161.001 56c54.667 38 90 94.333 106 169
l288 1358c9.33301 43.333 -6.66699 87.666 -48 132.999c-42 44.667 -107.667 69.667 -197 75c98 57.333 176.667 119.333 236 186s103 124.334 131 173.001c48 -72 96 -124.667 144 -158c47.333 -33.333 94.666 -47.333 141.999 -42l-50 -34c-34 -23.333 -76 -36 -126 -38
c-50 -2.66699 -92.667 16.666 -128 57.999l-91 -98c56.667 -38.667 96 -82 118 -130s27 -100.667 15 -158l-287 -1350c-24.667 -116.667 -76.334 -204 -155.001 -262c-79.333 -58.667 -165.666 -88 -258.999 -88c-56.667 0 -117 10.333 -181 31z" />
    <glyph glyph-name="glyph234" horiz-adv-x="756" 
d="M-1126 -282c-30.667 -25.333 -51.998 -64.667 -63.998 -118l-21 -100c100.667 0 151 -33.333 151 -100c0 -133.333 -83 -200 -249 -200c-66 0 -99 25.333 -99 76c0 10 1.33301 21 4 33l69 326c18.667 90 55 157 109 201c52 42.667 120.667 64 206 64
c114 0 194 -28 240 -84c47.333 -58 58.333 -146.667 33 -266c-13.333 -66.667 -4 -116.667 28 -150s63.667 -50 95 -50c55.333 0 100 17.333 134 52c33.333 34 59.333 85.333 78 154l70 347c48 -72 99 -123.333 153 -154c53.333 -30.667 115 -32.667 185 -6
c-57.333 -71.333 -121.333 -108.333 -192 -111c-37.333 -3.33301 -56.333 -13.333 -57 -30l-7 -52c-13.333 -66.667 2.66699 -116.667 48 -150s100.333 -50 165 -50c46 0 96.333 18.667 151 56c54.667 38 90 94.333 106 169l288 1358
c9.33301 43.333 -6.66699 87.666 -48 132.999c-42 44.667 -107.667 69.667 -197 75c98 57.333 176.667 119.333 236 186s103 124.334 131 173.001c48 -72 96 -124.667 144 -158c47.333 -33.333 94.666 -47.333 141.999 -42l-50 -34c-34 -23.333 -76 -36 -126 -38
c-50 -2.66699 -92.667 16.666 -128 57.999l-91 -98c56.667 -38.667 96 -82 118 -130s27 -100.667 15 -158l-287 -1350c-24.667 -116.667 -76.334 -204 -155.001 -262c-79.333 -58.667 -162.333 -88 -249 -88c-56.667 0 -117 10.333 -181 31c-64 21.333 -112 53 -144 95
c-40.667 -42 -79.334 -73.333 -116.001 -94c-37.333 -21.333 -82.666 -32 -135.999 -32c-66.667 0 -135 31.333 -205 94s-92 156.334 -66 281.001c10 61.333 3.33301 106.333 -20 135c-21.333 26.667 -56.333 40 -105 40c-42.667 0 -78 -10.667 -106 -32z" />
    <glyph glyph-name="glyph236" 
d="M-2102 -616v5.99805c-1.33301 12 2.66699 21.667 12 29c10.667 8.66699 27.667 13 51 13c23.333 -0.666992 52.333 -9.66699 87 -27c206 -116 453.667 -168.667 743 -158c188 8 316.667 22.5 386 43.5s104 39.167 104 54.5c1.33301 14 -0.666992 23.333 -6 28
s-15.666 6.33398 -30.999 5.00098c4 -20 -17.667 -31.333 -65 -34c-47.333 -2 -74 11.667 -80 41c-4 53.333 38.333 82 127 86c66 2.66699 117.333 -10 154 -38c35.333 -28.667 50 -63 44 -103c-4 -42 -53.667 -79.667 -149 -113s-252.333 -54.333 -471 -63
c-26 -0.666992 -52 -1 -78 -1c-288.667 0 -543.334 60.333 -764.001 181c-39.333 18.667 -60.666 35.334 -64 50.001zM-1947 -376.002l-10 -47c50 9.33301 75.333 21 76 35s-21.333 18 -66 12zM-2084 -288.002l0.00390625 4c14 44.667 52 87 114 127
c59.333 38 110 57 152 57c64 0 113 -19.333 147 -58l42 -46c69.333 69.333 129 104 179 104c49.333 0 104.666 -26 165.999 -78l19 -16c15.333 15.333 33 28.666 53 39.999c66 36 175 54 327 54c156 0 270.333 -25.667 343 -77c44.667 -32 69.667 -74 75 -126
c1.33301 -10.667 1.66602 -22.334 0.999023 -35.001l2 -1l-5 -28l-2 -8l-5 -33h-1l-7 -40c-9.33301 -46 -36.333 -69 -81 -69s-84 8 -118 24c-33.333 16.667 -46.333 35.334 -39 56.001s26.333 34 57 40c26 5.33301 44.667 28.333 56 69c-0.666992 32 -16.334 58 -47.001 78
c-48 31.333 -121 47 -219 47c-113.333 0 -191.666 -11.333 -234.999 -34c-36 -18 -57 -44 -63 -78l-2 -15h-1v-6l6 -3l-11 -55c0 -4 -0.333008 -8.66699 -1 -14h-1l-8 -40c-10 -46 -37.333 -69 -82 -69c-44 0 -83 8 -117 24c-33.333 16.667 -46.333 35.334 -39 56.001
s26 34 56 40c20.667 4 36.667 18.667 48 44l1 14c-4.66699 29.333 -18.667 58.666 -42 87.999c-34.667 31.333 -62 47 -82 47c-20.667 0 -84.667 -44.333 -192 -133c-84.667 88.667 -140.667 133 -168 133c-28.667 -2 -56.334 -12.333 -83.001 -31
c-18 -13.333 -32.333 -32 -43 -56c74.667 2.66699 123.667 -6.66602 147 -27.999s33 -49.333 29 -84c-4.66699 -34.667 -39.334 -62.334 -104.001 -83.001c-65.333 -20.667 -125.333 -31 -180 -31c-38.667 0 -60.334 20.667 -65 62v16c0 13.333 1 28.333 3 45l14 78l5 26
c0 0.666992 0.333008 1.33398 1 2.00098z" />
    <glyph glyph-name="glyph240" horiz-adv-x="757" 
d="M-1222 -597l-16 -68c53.333 14 81 31 83 51s-20.333 25.667 -67 17zM499 933c9.33301 43.333 -6.66406 87.666 -47.9971 132.999c-42 44.667 -107.667 69.667 -197 75c98 57.333 176.667 119.333 236 186s103 124.334 131 173.001c48 -72 96 -124.667 144 -158
c47.333 -33.333 94.666 -47.333 141.999 -42l-50 -34c-34 -23.333 -76 -36 -126 -38c-50 -2.66699 -92.667 16.666 -128 57.999l-91 -98c56.667 -38.667 96 -82 118 -130s27 -100.667 15 -158l-340 -1600c-14 -66.667 -46.333 -100 -97 -100c-51.333 0 -101.333 21 -150 63
l-171 157l-250 -157c-66.667 -42 -125.334 -63 -176.001 -63c-51.333 0 -70 33.333 -56 100l42 197c12 60.667 2 122.667 -30 186c-32.667 44 -59.334 66 -80.001 66c-21.333 0 -93 -63.333 -215 -190c-78.667 126.667 -132.334 190 -161.001 190
c-30.667 -2.66699 -60.667 -17.334 -90 -44.001c-30 -27.333 -52.667 -71.666 -68 -132.999l-5 -47c79.333 4.66699 130 -8.66602 152 -39.999c22.667 -30.667 30 -71 22 -121s-47 -89.667 -117 -119c-70.667 -30 -134.667 -45 -192 -45c-40.667 0 -61 30 -61 90
c0 24 3.33301 53 10 87l50 249c16.667 67.333 61.334 131 134.001 191c66 54.667 121 82 165 82c66.667 0 115.667 -27.667 147 -83l40 -67c79.333 100 145 150 197 150s107.333 -37.333 166 -112c55.333 -74.667 87.333 -130.667 96 -168c1.33301 -6 2 -14.333 2 -25
c0 -24 -4 -59 -12 -105l-15 -81l320 197l264 -238z" />
    <glyph glyph-name="glyph247" horiz-adv-x="757" 
d="M-496 -239c14 66.667 39.6709 109.668 77.0039 129.001c36.667 18.667 80 11 130 -23c49.333 -34.667 65.666 -70.667 48.999 -108c-16.667 -38 -40.834 -61.5 -72.501 -70.5s-55.5 -50.167 -71.5 -123.5l-34 -157l320 197l264 -238l333 1566
c9.33301 43.333 -6.66699 87.666 -48 132.999c-42 44.667 -107.667 69.667 -197 75c98 57.333 176.667 119.333 236 186s103 124.334 131 173.001c48 -72 96 -124.667 144 -158c47.333 -33.333 94.666 -47.333 141.999 -42l-50 -34c-34 -23.333 -76 -36 -126 -38
c-50 -2.66699 -92.667 16.666 -128 57.999l-91 -98c56.667 -38.667 96 -82 118 -130s27 -100.667 15 -158l-340 -1600c-14 -66.667 -46.333 -100 -97 -100c-51.333 0 -101.333 21 -150 63l-171 157l-250 -157c-66.667 -42 -125.334 -63 -176.001 -63
c-40 0 -60 20.667 -60 62c0 11.333 1.33301 24 4 38z" />
    <glyph glyph-name="glyph252" horiz-adv-x="757" 
d="M499 933c9.33301 43.333 -6.66602 87.667 -47.999 133c-42 44.667 -107.667 69.667 -197 75c98 57.333 176.667 119.333 236 186s103 124.334 131 173.001c48 -72 96 -124.667 144 -158c47.333 -33.333 94.666 -47.333 141.999 -42l-50 -34c-34 -23.333 -76 -36 -126 -38
c-50 -2.66699 -92.667 16.666 -128 57.999l-91 -98c56.667 -38.667 96 -82 118 -130s27 -100.667 15 -158l-287 -1350c-24.667 -116.667 -82 -204 -172 -262c-90.667 -58.667 -197.334 -88 -320.001 -88c-144 0 -253 33.333 -327 100c-37.333 33.333 -62.333 73 -75 119
c-6 23.333 -9 48 -9 74s3 53.333 9 82l11 51l29 135c14 66.667 39.667 109.667 77 129c36.667 18.667 80 11 130 -23c49.333 -34.667 65.666 -70.667 48.999 -108c-16.667 -38 -40.834 -61.5 -72.501 -70.5s-55.5 -50.167 -71.5 -123.5l-4 -15
c-13.333 -64 -0.666016 -113.333 38.001 -148c39.333 -34.667 111.333 -52 216 -52c92.667 0 169.334 19.667 230.001 59s98.334 93.333 113.001 162z" />
    <glyph glyph-name="glyph256" horiz-adv-x="757" 
d="M454 1l-96.001 -450.997c-24.667 -116.667 -82 -204 -172 -262c-90.667 -58.667 -197.334 -88 -320.001 -88c-144 0 -253 33.333 -327 100c-37.333 33.333 -62.333 73 -75 119c-6 23.333 -9 48 -9 74s3 53.333 9 82l14 70c6 33.333 -3 60 -27 80
c-24.667 20 -37 50.667 -37 92s29.667 67.666 89 78.999c58.667 10.667 101 0 127 -32c26.667 -32.667 32.667 -82.334 18 -149.001l-36 -165c-13.333 -64 -0.666016 -113.333 38.001 -148c39.333 -34.667 111.333 -52 216 -52c92.667 0 169.334 19.667 230.001 59
s98.334 93.333 113.001 162l93 436c-50.667 7.33301 -89.334 20.333 -116.001 39c-44 30 -66 63 -66 99c0 62.667 47.667 100.667 143 114c-12.667 -36.667 -10 -64 8 -82c10.667 -10.667 31.334 -18 62.001 -22l166 778c9.33301 43.333 -6.66699 87.666 -48 132.999
c-42 44.667 -107.667 69.667 -197 75c98 57.333 176.667 119.333 236 186s103 124.334 131 173.001c48 -72 96 -124.667 144 -158c47.333 -33.333 94.666 -47.333 141.999 -42l-50 -34c-34 -23.333 -76 -36 -126 -38c-50 -2.66699 -92.667 16.666 -128 57.999l-91 -98
c56.667 -38.667 96 -82 118 -130s27 -100.667 15 -158l-159 -746c36.667 5.33301 67.667 14.666 93 27.999c40.667 20.667 68.667 56.334 84 107.001c0 -81.333 -13.667 -146 -41 -194c-30.667 -56 -86.667 -87.333 -168 -94z" />
    <glyph glyph-name="glyph259" 
d="M-701 -1547c-38 8 -57.002 32.667 -57.002 74c0 12 1.33301 25 4 39l81 379c4.66699 20 -4.66602 40.667 -27.999 62c-23.333 22 -29.666 51.333 -18.999 88s41.334 55 92.001 55c51.333 0 86.666 -12.667 105.999 -38c14.667 -19.333 22 -40.333 22 -63
c0 -8 -1 -16.333 -3 -25l-104 -489c-12 -56 -36.667 -84 -74 -84c-6 0 -12.667 0.666992 -20 2z" />
    <glyph glyph-name="glyph260" 
d="M-867 -883c20 -22.667 29.9971 -60.666 29.9971 -113.999s-33.333 -115.5 -100 -186.5s-100 -123.167 -100 -156.5c0 -40 40 -60 120 -60c66.667 0 131.334 75.333 194.001 226s109.334 242.334 140.001 275.001s69 49 115 49c45.333 0 68 -10 68 -30
s-14.333 -37 -43 -51c-29.333 -14 -77.666 -120.667 -144.999 -320s-177 -299 -329 -299c-180 0 -270 70 -270 210c0 59.333 33.333 118.166 100 176.499s100 96.166 100 113.499c0 22 -10 39.333 -30 52c-20 12 -30 30 -30 54s9 45.667 27 65s43 29 75 29
c31.333 0 57.333 -11 78 -33z" />
    <glyph glyph-name="glyph261" 
d="M-917 -883c20 -22.667 29.998 -60.6689 29.998 -114.002s-33.333 -115.333 -100 -186c-66.667 -71.333 -100 -123.666 -100 -156.999c0 -40 13.333 -60 40 -60c53.333 0 137.333 75.333 252 226c-2.66699 -150.667 23.333 -226 78 -226c33.333 0 66.333 75.333 99 226
s64.334 242.334 95.001 275.001s62.334 49 95.001 49c18.667 0 28 -10 28 -30s-4.5 -37 -13.5 -51s-31.167 -101.667 -66.5 -263c-52.667 -237.333 -131.667 -356 -237 -356c-74 0 -122 53 -144 159c-77.333 -106 -139.333 -159 -186 -159c-126.667 0 -190 70 -190 210
c0 59.333 33.333 118.333 100 177c66.667 58 100 95.667 100 113c0 22 -10 39.333 -30 52c-20 12 -30 30 -30 54s9 45.667 27 65s43 29 75 29c31.333 0 57.333 -11 78 -33z" />
    <glyph glyph-name="glyph262" 
d="M-705 2476c-21.333 -12.667 -32.999 -29 -34.999 -49c-2 -22.667 1.33301 -38 10 -46c7.33301 -8 19 -12.667 35 -14l465 -41c-146.667 104 -264.334 160 -353.001 168c-55.333 4.66699 -96 -1.33301 -122 -18zM-842.999 2300c-31.333 26 -47 64 -47 114
c0 8.66699 0.333008 17.334 1 26c6 69.333 33.333 122 82 158c43.333 32 103.333 48 180 48c18 0 37 -1 57 -3c66 -5.33301 138 -31.333 216 -78c77.333 -46 156 -103 236 -171c77.333 -66 116 -115.667 116 -149c0 -0.666992 -0.333008 -1.66699 -1 -3
c-2 -28 -27.667 -42 -77 -42c-8 0 -17 0.333008 -27 1l-598 53c-60.667 5.33301 -106.667 20.666 -138 46z" />
    <glyph glyph-name="glyph263" 
d="M-706 2476c-20.667 -12.667 -31.999 -29 -33.999 -49c-2 -22.667 1.33301 -38 10 -46c7.33301 -8 19 -12.667 35 -14l465 -41c-146.667 104 -264.667 160 -354 168c-54.667 4.66699 -95.334 -1.33301 -122.001 -18zM-122.999 2399l34.999 164
c6.66699 32.667 -6.33301 52.334 -39 59c12 54 41 81 87 81c10 0 20.667 -1.33301 32 -4c49.333 -10.667 74 -45.334 74 -104c0 -18.667 -2.66699 -39.667 -8 -63l-61 -286c-4 -20 -16.333 -33 -37 -39c-15.333 -4.66699 -31.666 -7 -48.999 -7c-6 0 -12 0.333008 -18 1
l-598 52c-61.333 5.33301 -107.333 21 -138 47c-31.333 26 -47 64 -47 114c0 8.66699 0.333008 17.334 1 26c6 69.333 33.333 122 82 158c53.333 39.333 132.333 54.333 237 45c66 -6 138 -32 216 -78c76 -44.667 153 -100 231 -166z" />
    <glyph glyph-name="glyph264" 
d="M-705 2476c-21.333 -12.667 -32.999 -29 -34.999 -49c-2 -22.667 1.33301 -38 10 -46c7.33301 -8 19 -12.667 35 -14l465 -41c-146.667 104 -264.334 160 -353.001 168c-55.333 4.66699 -96 -1.33301 -122 -18zM-92.999 2584c-11.333 12.667 -29.332 20 -53.999 22
c-24.667 2.66699 -43.667 -1.66602 -57 -13c-14 -11.333 -22 -29.666 -24 -55c-2 -24.667 2.33301 -43.667 13 -57c11.333 -14 29.666 -22 54.999 -24s45 2.66699 59 14c12.667 11.333 20 29.333 22 54c2.66699 25.333 -2 45 -14 59zM-83.998 2363
c56.667 -52.667 83.668 -93 81.001 -121c-2 -28 -27.667 -42 -77 -42c-8 0 -17 0.333008 -27 1l-598 53c-60.667 5.33301 -106.667 20.666 -138 46c-31.333 26 -47 64 -47 114c0 8.66699 0.333008 17.334 1 26c6 69.333 33.333 122 82 158
c53.333 39.333 132.333 54.333 237 45c66 -5.33301 138 -31.333 216 -78l26 -16c6 57.333 24.667 99.333 56 126c26 21.333 61.333 32 106 32c9.33301 0 18.666 -0.333008 27.999 -1c58 -5.33301 100.333 -23.666 127 -55c22.667 -26 34 -61.667 34 -107
c0 -8.66699 -0.666992 -18 -2 -28c-5.33301 -57.333 -23.333 -99.333 -54 -126c-14.667 -12 -31.667 -21 -51 -27z" />
    <glyph glyph-name="glyph265" 
d="M-706 2476c-20.667 -12.667 -31.999 -29 -33.999 -49c-2 -22.667 1.33301 -38 10 -46c7.33301 -8 19 -12.667 35 -14l465 -41c-146.667 104 -264.667 160 -354 168c-54.667 4.66699 -95.334 -1.33301 -122.001 -18zM-355.999 2566l15.999 65
c8.66699 32.667 -7.66602 52.334 -48.999 59c15.333 56.667 47.333 85 96 85c7.33301 0 15.333 -0.666992 24 -2c62 -10.667 80 -65 54 -163l-31 -115c40.667 -28.667 81.667 -60.667 123 -96l35 164c6.66699 32.667 -6.33301 52.334 -39 59c12 54 41 81 87 81
c10 0 20.667 -1.33301 32 -4c49.333 -10.667 74 -45.334 74 -104c0 -18.667 -2.66699 -39.667 -8 -63l-61 -286c-4 -20 -16.333 -33 -37 -39c-15.333 -4.66699 -31.666 -7 -48.999 -7c-6 0 -12 0.333008 -18 1l-598 52c-61.333 5.33301 -107.333 21 -138 47
c-31.333 26 -47 64 -47 114c0 8.66699 0.333008 17.334 1 26c6 69.333 33.333 122 82 158c53.333 39.333 132.333 54.333 237 45c65.333 -6 136.666 -31.667 213.999 -77z" />
    <glyph glyph-name="glyph266" 
d="M-660 2515c0 92 23 160.667 69 206c46 46 114.667 69 206 69c92 0 161 -23 207 -69c45.333 -45.333 68 -114 68 -206c0 -91.333 -22.667 -160 -68 -206c-46 -46 -115 -69 -207 -69c-91.333 0 -160 23 -206 69s-69 114.667 -69 206zM-260 2515c0 42 -10.333 73.333 -31 94
s-52 31 -94 31c-41.333 0 -72.333 -10.333 -93 -31c-21.333 -20.667 -32 -52 -32 -94c0 -41.333 10.667 -72.666 32 -94c20.667 -20.667 51.667 -31 93 -31c42 0 73.333 10.333 94 31c20.667 21.333 31 52.666 31 94z" />
    <glyph glyph-name="glyph267" 
d="M-218 2420c-23.333 -94 -40.999 -151 -52.999 -171c-19.333 -32.667 -41.333 -49 -66 -49s-39.667 17 -45 51c-3.33301 20.667 3 77 19 169h-69c-72.667 0 -109 25 -109 75s36.333 75 109 75h97l10 51c5.33301 24.667 3.33301 40.334 -6 47c-9.33301 6 -14 21 -14 45
c0 29.333 9 51 27 65c17.333 14.667 43.666 22 78.999 22s59.333 -12.333 72 -37c12 -25.333 12.667 -63 2 -113l-17 -80h74c72 0 108 -25 108 -75s-36 -75 -108 -75h-110z" />
    <glyph glyph-name="glyph268" 
d="M-448.5 2629c-17.667 0 -34.0029 -13.667 -49.0029 -41s-22.5 -63.333 -22.5 -108c0 -45.333 20 -78.333 60 -99c39.333 -20.667 96 -31 170 -31c92 0 168.333 42.667 229 128s116.334 203.333 167.001 354c35.333 98.667 53 179 53 241s25 93 75 93s75 -37.333 75 -112
s-24 -174.334 -72 -299c-63.333 -177.333 -133.666 -314 -210.999 -410c-78 -96.667 -183.333 -145 -316 -145c-93.333 0 -180 21.667 -260 65s-120 115 -120 215c0 73.333 22.333 141.666 67 205c44 62.667 97.667 94 161 94c126.667 0 182.334 -50.667 167.001 -152
c-10 -61.333 -40 -92 -90 -92s-72 15.667 -66 47s0.166992 47 -17.5 47z" />
    <glyph glyph-name="glyph269" horiz-adv-x="2550" 
d="M486 150c59.333 0 115.002 22.667 167.002 68c51.333 44.667 85.666 106 102.999 184c10 44 5.66699 71.333 -13 82s-49.334 16 -92.001 16c-60.667 0 -96.667 -26.333 -108 -79zM1613 1050c-2 -49.333 -9.66309 -102.67 -22.9961 -160.003l-168 -790
c-14.667 -66.667 -45.334 -100 -92.001 -100s-86.667 11.667 -120 35s-45 50 -35 80s31 49.333 63 58s56 50 72 124l131 617c20 86.667 28 159 24 217c-3.33301 58 -18.666 101.667 -45.999 131c-54.667 58.667 -92.334 88 -113.001 88c-21.333 0 -66 -41.667 -134 -125
l-102 -125l-63 125c-42.667 83.333 -73 125 -91 125s-58 -31 -120 -93c-62.667 -62.667 -105.334 -146.334 -128.001 -251.001l-78 -370c20 9.33301 40.333 14 61 14c69.333 0 118.666 -8.33301 147.999 -25c88 -51.333 122.667 -132.333 104 -243
c-22 -119.333 -75.667 -212.666 -161 -279.999c-85.333 -68 -170.666 -102 -255.999 -102c-62 0 -105 16.667 -129 50c-14.667 20.667 -22 48 -22 82c0 20.667 2.66699 43.334 8 68.001l176 836c28.667 134 88.334 245 179.001 333l68 65c45.333 44 95.666 66 150.999 66
s98.666 -27.667 129.999 -83l47 -84c47.333 54 88 96.333 122 127c33.333 31.333 71 47 113 47s107.667 -51.333 197 -154c24 -27.333 43 -58.333 57 -93c48 80 102.667 140 164 180s145.666 60 252.999 60c206.667 0 343.334 -46.667 410 -140c34 -46 54.333 -104 61 -174
c2 -17.333 3 -35.666 3 -54.999c0 -56.667 -7.66699 -120 -23 -190l-179 -841c-14.667 -66.667 -45.334 -100 -92 -100c-46.667 0 -86.667 11.667 -120 35s-45 50 -35 80s31 49.333 63 58s56 50 72 124l144 674c26.667 126.667 19 221.334 -23 284.001
c-42.667 63.333 -136.334 95 -281 95c-100 0 -178.333 -25 -235 -75c-56 -50 -106.667 -125 -152 -225z" />
    <glyph glyph-name="glyph270" 
d="M-1939 -560l-24.001 -105c60.667 14 93.334 37.333 98.001 70c4.66699 32 -20 43.667 -74 35zM-2059 -375c18 85.333 58.6689 150.998 122.002 196.998c72.667 52 175 78 307 78c189.333 0 319.333 -37.333 390 -112c44 -45.333 66 -104.666 66 -177.999
c0 -31.333 -4.33301 -65.666 -13 -102.999l-49 -237c-10 -46.667 -40.333 -70 -91 -70c-51.333 0 -70 30.333 -56 91l52 247c13.333 62 1.66602 110.667 -35.001 146c-47.333 44 -135.333 66 -264 66c-92 0 -162 -16 -210 -48c-38.667 -26 -63 -63 -73 -111l-5 -28
c79.333 4 132 -9.33301 158 -40c25.333 -31.333 32.666 -78 21.999 -140c-10.667 -62.667 -53 -108.667 -127 -138c-74 -30 -139.667 -45 -197 -45c-40.667 0 -61 30 -61 90c0 24 3.33301 53 10 87z" />
    </font>
</defs>
</svg>
